<?xml version="1.0" encoding="UTF-8" standalone="no"?>
<!DOCTYPE svg PUBLIC "-//W3C//DTD SVG 1.1//EN" "http://www.w3.org/Graphics/SVG/1.1/DTD/svg11.dtd">
<svg width="100%" height="100%" viewBox="0 0 667 846" version="1.1" xmlns="http://www.w3.org/2000/svg" xmlns:xlink="http://www.w3.org/1999/xlink" xml:space="preserve" xmlns:serif="http://www.serif.com/" style="fill-rule:evenodd;clip-rule:evenodd;stroke-linejoin:round;stroke-miterlimit:2;">
    <g transform="matrix(1,0,0,1,-1918,-94)">
        <g id="Zyklop">
        </g>
        <g id="Schaf">
        </g>
        <g id="Hermes-evil" serif:id="Hermes evil">
        </g>
        <g id="Hermes-nett" serif:id="Hermes nett">
        </g>
        <g id="Kirke-evil" serif:id="Kirke evil">
        </g>
        <g id="Kirke-nett" serif:id="Kirke nett">
        </g>
        <g id="Helios" transform="matrix(3.5902,0,0,3.5902,941.437,-1239.75)">
            <g id="sonne_helios.ai" transform="matrix(0.106301,0,0,0.106301,359.797,447.365)">
                <g transform="matrix(1,0,0,1,-960,-960)">
                    <g id="Layer-1" serif:id="Layer 1">
                        <g transform="matrix(1,0,0,1,959.435,633.379)">
                            <path d="M0,653.241C-180.074,653.241 -326.055,507.26 -326.055,327.186C-326.055,147.111 -180.074,1.131 0,1.131C180.075,1.131 326.055,147.111 326.055,327.186C326.055,507.26 180.075,653.241 0,653.241M605.84,523.298C371.541,447.166 448.928,326.62 732.105,326.62C448.928,326.62 371.541,206.077 605.843,129.945C371.541,206.077 363.313,63.05 592.416,-103.417C363.313,63.05 229.768,11.098 374.527,-188.178C229.768,11.098 139.146,-99.905 226.672,-369.292C139.146,-99.905 0.564,-63.335 0.564,-309.623C0.564,-63.335 -138.016,-99.907 -225.541,-369.293C-138.016,-99.907 -228.637,11.098 -373.396,-188.178C-228.637,11.098 -362.181,63.05 -591.285,-103.417C-362.181,63.05 -370.41,206.076 -604.709,129.944C-370.41,206.076 -447.797,326.62 -730.974,326.62C-447.797,326.62 -370.41,447.165 -604.711,523.297C-370.41,447.165 -362.181,590.192 -591.285,756.656C-362.181,590.192 -228.637,642.143 -373.396,841.422C-228.637,642.143 -138.017,753.147 -225.542,1022.53C-138.017,753.147 0.564,716.576 0.564,962.863C0.564,716.576 139.146,753.148 226.671,1022.53C139.146,753.148 229.767,642.143 374.526,841.422C229.767,642.143 363.313,590.192 592.416,756.658C363.313,590.192 371.541,447.166 605.84,523.298" style="fill:rgb(255,236,0);fill-rule:nonzero;"/>
                        </g>
                        <g transform="matrix(1,0,0,1,959.435,639.031)">
                            <path d="M0,641.939C-176.954,641.939 -320.404,498.488 -320.404,321.535C-320.404,144.582 -176.954,1.13 0,1.13C176.953,1.13 320.403,144.582 320.403,321.535C320.403,498.488 176.953,641.939 0,641.939M443.411,320.969C271.987,320.969 314.33,219.027 512.499,154.641C314.33,219.027 220.186,161.442 358.893,60.688C220.186,161.442 194.462,54.125 316.922,-114.409C194.462,54.125 84.471,62.755 137.463,-100.327C84.471,62.755 0.565,-8.861 0.565,-217.175C0.565,-8.861 -83.339,62.755 -136.332,-100.327C-83.339,62.755 -193.33,54.125 -315.791,-114.409C-193.33,54.125 -219.054,161.442 -357.761,60.688C-219.054,161.442 -313.201,219.027 -511.368,154.641C-313.201,219.027 -270.857,320.969 -442.282,320.969C-270.857,320.969 -313.201,422.912 -511.368,487.297C-313.201,422.912 -219.054,480.497 -357.761,581.25C-219.054,480.497 -193.332,587.814 -315.792,756.347C-193.332,587.814 -83.339,579.184 -136.332,742.266C-83.339,579.184 0.565,650.8 0.565,859.114C0.565,650.8 84.471,579.182 137.465,742.265C84.471,579.182 194.462,587.814 316.922,756.347C194.462,587.814 220.185,480.497 358.892,581.25C220.185,480.497 314.33,422.911 512.499,487.294C314.33,422.911 271.987,320.969 443.411,320.969" style="fill:rgb(255,194,0);fill-rule:nonzero;"/>
                        </g>
                        <g transform="matrix(0,-1,-1,0,959.435,651.462)">
                            <path d="M-309.103,-309.102C-479.814,-309.102 -618.206,-170.711 -618.206,0.001C-618.206,170.713 -479.814,309.103 -309.103,309.103C-138.392,309.103 0.001,170.713 0.001,0.001C0.001,-170.711 -138.392,-309.102 -309.103,-309.102" style="fill:rgb(255,194,0);fill-rule:nonzero;"/>
                        </g>
                    </g>
                </g>
            </g>
            <path d="M309.991,515.843C310.397,515.52 305.523,513.275 301.98,513.533C301.275,513.585 298.924,513.371 298.993,514.409C299.041,515.132 299.043,515.768 300.2,516.822C301.406,517.923 307.347,517.952 309.991,515.843Z" style="fill:rgb(244,154,103);fill-rule:nonzero;"/>
            <path d="M301.441,513.479C301.939,513.056 301.442,508.67 300.746,508.096C300.051,507.521 297.142,507.612 296.653,508.856C296.313,509.72 296.105,510.754 296.887,511.745C297.579,512.623 301.136,513.737 301.441,513.479Z" style="fill:rgb(244,154,103);fill-rule:nonzero;"/>
            <path d="M299.773,508.865C300.271,508.442 299.774,504.057 299.078,503.482C298.383,502.907 295.051,501.678 294.562,502.921C294.222,503.784 294.437,506.14 295.218,507.131C295.911,508.009 299.468,509.124 299.773,508.865Z" style="fill:rgb(244,154,103);fill-rule:nonzero;"/>
            <path d="M420.725,521.927C424.33,527.666 427.113,529.072 427.667,536.428C424.937,536.833 415.835,543.006 413.406,541.5C410.978,539.994 408.497,528.281 408.497,528.281L420.725,521.927Z" style="fill:rgb(244,154,103);fill-rule:nonzero;"/>
            <path d="M419.684,540.525C419.504,539.549 418.098,538.989 416.543,539.276C414.988,539.563 413.873,540.587 414.053,541.564C414.233,542.54 415.64,543.1 417.194,542.813C418.75,542.526 419.864,541.502 419.684,540.525Z" style="fill:rgb(244,154,103);fill-rule:nonzero;"/>
            <path d="M424.369,538.585C424.189,537.608 422.782,537.05 421.227,537.336C419.672,537.622 418.558,538.647 418.738,539.623C418.918,540.6 420.324,541.159 421.879,540.873C423.434,540.586 424.549,539.563 424.369,538.585Z" style="fill:rgb(244,154,103);fill-rule:nonzero;"/>
            <path d="M428.343,536.315C428.164,535.337 426.302,528.786 424.747,529.072C423.193,529.359 422.533,536.375 422.713,537.352C422.893,538.328 424.299,538.888 425.854,538.602C427.409,538.315 428.524,537.291 428.343,536.315Z" style="fill:rgb(244,154,103);fill-rule:nonzero;"/>
            <path d="M419.247,519.974C423.848,522.495 425.291,526.66 424.964,528.729C424.636,530.798 417.492,534.114 416.773,534.593C415.862,535.199 412.886,533.177 414.064,531.573C415.242,529.97 418.232,528.513 418.232,528.513C418.232,528.513 413.707,525.416 415.617,521.89C417.049,519.245 419.247,519.974 419.247,519.974Z" style="fill:rgb(247,188,133);fill-rule:nonzero;"/>
            <path d="M423.281,532.064C424.664,532.76 427.647,535.628 427.709,536.627C427.771,537.626 425.317,539 424.079,538.366C422.84,537.733 420.528,535.044 420.508,534.093C420.488,533.142 422.632,531.737 423.281,532.064Z" style="fill:rgb(247,188,133);fill-rule:nonzero;"/>
            <path d="M418.91,534.334C420.24,535.025 423.152,537.924 423.243,538.954C423.335,539.984 421.061,541.455 419.871,540.826C418.68,540.197 416.408,537.471 416.358,536.488C416.307,535.506 418.286,534.011 418.91,534.334Z" style="fill:rgb(247,188,133);fill-rule:nonzero;"/>
            <path d="M413.815,535.855C415.103,536.618 417.847,539.678 417.88,540.712C417.913,541.746 415.56,543.086 414.407,542.391C413.254,541.695 411.139,538.844 411.144,537.86C411.15,536.877 413.21,535.496 413.815,535.855Z" style="fill:rgb(247,188,133);fill-rule:nonzero;"/>
            <path d="M402.519,567.801C402.334,566.92 401.409,566.369 400.453,566.57C399.498,566.772 398.874,567.649 399.059,568.528C399.245,569.409 400.17,569.96 401.125,569.759C402.08,569.558 402.704,568.681 402.519,567.801Z" style="fill:rgb(230,208,172);fill-rule:nonzero;"/>
            <path d="M384.365,586.121C384.18,585.24 383.255,584.69 382.3,584.891C381.344,585.092 380.72,585.969 380.906,586.85C381.091,587.73 382.016,588.28 382.971,588.079C383.927,587.878 384.551,587.002 384.365,586.121Z" style="fill:rgb(230,208,172);fill-rule:nonzero;"/>
            <path d="M391.741,596.082C390.978,592.461 387.174,590.195 383.244,591.023C379.315,591.85 376.747,595.457 377.51,599.078C378.272,602.7 382.076,604.966 386.006,604.139C389.936,603.312 392.504,599.704 391.741,596.082Z" style="fill:rgb(230,208,172);fill-rule:nonzero;"/>
            <path d="M289.267,566.482C288.32,564.565 285.65,563.949 283.304,565.108C280.957,566.267 279.823,568.76 280.77,570.678C281.717,572.596 284.387,573.211 286.733,572.052C289.079,570.894 290.214,568.4 289.267,566.482Z" style="fill:rgb(248,240,218);fill-rule:nonzero;"/>
            <path d="M408.137,587.215C407.375,583.593 403.571,581.328 399.641,582.155C395.711,582.983 393.144,586.589 393.906,590.211C394.669,593.833 398.473,596.099 402.402,595.271C406.332,594.443 408.9,590.837 408.137,587.215Z" style="fill:rgb(230,208,172);fill-rule:nonzero;"/>
            <path d="M381.548,595.437C381.548,589.861 375.556,585.342 368.163,585.342C360.771,585.342 354.778,589.861 354.778,595.437C354.778,601.012 360.771,605.531 368.163,605.531C375.556,605.531 381.548,601.012 381.548,595.437Z" style="fill:rgb(230,208,172);fill-rule:nonzero;"/>
            <path d="M328.008,592.034C369.279,601.627 397.245,581.151 395.435,553.107C378.286,538.802 328.008,592.034 328.008,592.034Z" style="fill:rgb(230,208,172);fill-rule:nonzero;"/>
            <path d="M381.26,456.277L377.353,488.116C391.989,506.328 412.037,529.205 412.037,529.205L421.861,525.713C421.861,525.713 399.345,474.573 381.26,456.277Z" style="fill:rgb(247,188,133);fill-rule:nonzero;"/>
            <path d="M386.9,471.911C385.31,467.921 377.087,488.716 377.087,488.716C391.712,506.97 410.22,530.682 410.22,530.682L416.396,528.623C403.112,508.859 390.722,481.503 386.9,471.911Z" style="fill:rgb(244,154,103);fill-rule:nonzero;"/>
            <path d="M289.921,606.534L443.971,606.534C443.971,606.534 452.191,606.733 453.342,601.57C454.492,596.407 452.026,594.62 452.026,594.62C452.026,594.62 457.616,588.067 451.204,579.329C444.792,570.592 436.243,583.499 436.243,583.499C436.243,583.499 437.559,569.4 425.393,571.982C413.226,574.564 413.884,589.258 413.884,589.258C413.884,589.258 411.254,583.103 406.157,584.89C401.06,586.677 401.389,593.825 401.389,593.825C401.389,593.825 398.43,587.074 393.004,589.854C387.579,592.634 373.111,604.151 361.274,592.237C349.436,580.322 335.982,583.436 332.693,590.584C332.693,590.584 338.651,558.531 308.266,559.799C293.358,560.421 292.179,575.859 292.179,575.859C280.67,567.122 258.519,606.534 289.921,606.534Z" style="fill:rgb(241,224,194);fill-rule:nonzero;"/>
            <path d="M414.906,594.414C415.084,594.129 415.259,593.833 415.429,593.513C415.429,593.513 415.215,593.851 414.906,594.414Z" style="fill:rgb(230,208,172);fill-rule:nonzero;"/>
            <path d="M414.906,594.414C411.137,600.454 405.59,598.682 400.957,594.768L399.032,595.772C406.562,596.19 413.839,605.141 413.839,605.141C411.043,602.277 413.703,596.609 414.906,594.414Z" style="fill:rgb(230,208,172);fill-rule:nonzero;"/>
            <path d="M402.781,606.534C389.077,603.97 394.264,591.923 397.776,589.743C396.502,589.078 394.905,588.88 393.005,589.854C387.579,592.634 373.111,604.151 361.274,592.237C349.436,580.322 335.981,583.436 332.693,590.584C332.693,590.584 334.411,581.328 331.287,572.96C322.204,581.33 313.508,605.308 293.375,606.534L402.781,606.534Z" style="fill:rgb(230,208,172);fill-rule:nonzero;"/>
            <path d="M425.816,587.804C429.808,587.804 433.285,585.134 435.101,581.189C434.918,577.761 433.535,571.169 425.433,572.888C420.262,573.985 417.697,577.542 416.426,580.959C418.212,585.029 421.746,587.804 425.816,587.804Z" style="fill:rgb(248,240,218);fill-rule:nonzero;"/>
            <path d="M355.447,548.98C345.632,580.378 322.178,606.535 322.178,606.535L321.342,606.535L329.235,545.802L355.447,548.98Z" style="fill:rgb(247,188,133);fill-rule:nonzero;"/>
            <path d="M327.833,596.271C328.898,595.938 329.955,595.65 331.001,595.401C338.702,584.859 349.542,567.869 355.447,548.98L329.235,545.802L322.406,598.349C324.103,597.57 325.919,596.869 327.833,596.271Z" style="fill:rgb(244,154,103);fill-rule:nonzero;"/>
            <path d="M367.494,551.49C381.207,582.666 405.474,606.535 405.474,606.535L406.311,606.535L389.579,546.247L367.494,551.49Z" style="fill:rgb(247,188,133);fill-rule:nonzero;"/>
            <path d="M395.296,566.845L389.579,546.247L367.494,551.49C374.025,566.337 382.945,579.519 390.502,589.263C390.898,580.283 392.678,572.355 395.296,566.845Z" style="fill:rgb(244,154,103);fill-rule:nonzero;"/>
            <path d="M369.182,443.514C371.265,443.18 370.765,440.478 369.641,440.193C369.641,440.193 370.322,437.652 367.768,437.745C367.768,437.745 368.317,435.42 365.769,436.112C363.222,436.805 365.775,444.059 369.182,443.514Z" style="fill:rgb(239,214,178);fill-rule:nonzero;"/>
            <path d="M374.231,451.621C377.105,451.135 376.444,447.706 374.899,447.376C374.899,447.376 375.864,444.117 372.344,444.309C372.344,444.309 373.126,441.329 369.609,442.286C366.093,443.243 369.532,452.416 374.231,451.621Z" style="fill:rgb(239,214,178);fill-rule:nonzero;"/>
            <path d="M343.332,451.231C340.458,450.745 341.117,447.316 342.664,446.985C342.664,446.985 341.698,443.726 345.218,443.919C345.218,443.919 344.436,440.939 347.953,441.896C351.469,442.853 348.03,452.025 343.332,451.231Z" style="fill:rgb(239,214,178);fill-rule:nonzero;"/>
            <path d="M349.109,443.068C347.049,443.168 346.987,440.533 348.005,440.043C348.005,440.043 346.846,437.793 349.307,437.374C349.307,437.374 348.317,435.301 350.891,435.446C353.465,435.592 352.475,442.906 349.109,443.068Z" style="fill:rgb(239,214,178);fill-rule:nonzero;"/>
            <path d="M366.219,440.897C367.796,440.622 368.017,438.862 367.431,438.314C366.845,437.765 365.842,437.557 365.533,438.225C365.224,438.893 365.696,440.988 366.219,440.897Z" style="fill:rgb(244,154,103);fill-rule:nonzero;"/>
            <path d="M365.961,440.214C366.992,440.045 367.157,439.074 366.781,438.779C366.405,438.484 365.754,438.382 365.545,438.753C365.335,439.124 365.619,440.27 365.961,440.214Z" style="fill:rgb(212,73,41);fill-rule:nonzero;"/>
            <path d="M350.806,441.644C349.362,441.332 348.986,439.551 349.457,439.01C349.927,438.47 350.806,438.282 351.151,438.963C351.497,439.643 351.285,441.747 350.806,441.644Z" style="fill:rgb(244,154,103);fill-rule:nonzero;"/>
            <path d="M350.952,441.028C350.099,440.843 349.876,439.791 350.154,439.471C350.433,439.151 350.952,439.04 351.156,439.442C351.36,439.845 351.235,441.089 350.952,441.028Z" style="fill:rgb(212,73,41);fill-rule:nonzero;"/>
            <path d="M318.89,493.711C319.782,479.378 329.124,457.571 339.051,453.556C348.978,449.541 344.585,506.882 326.335,514.513C314.066,519.645 318.489,500.143 318.89,493.711Z" style="fill:rgb(247,188,133);fill-rule:nonzero;"/>
            <path d="M338.138,455.624C322.343,474.456 335.37,500.236 325.286,505.726C323.787,506.542 317.054,501.454 315.898,501.337C315.9,509.24 317.917,518.033 326.335,514.513C344.585,506.882 338.533,455.407 338.138,455.624Z" style="fill:rgb(244,154,103);fill-rule:nonzero;"/>
            <path d="M340.055,519.645C340.278,514.513 339.313,502.841 338.131,498.229C325.192,475.362 333.477,460.15 334.868,458.324C340.551,450.868 351.934,447.031 359.463,446.361C366.992,445.692 381.178,452.08 386.15,462.423C389.203,468.777 390.299,486.101 383.723,497.503C381.001,503.357 380.656,511.502 381.994,519.867L340.055,519.645Z" style="fill:rgb(247,188,133);fill-rule:nonzero;"/>
            <path d="M358.348,511.585C358.325,509.06 359.463,500.097 359.463,500.097L360.781,513.434L358.348,511.585Z" style="fill:rgb(244,154,103);fill-rule:nonzero;"/>
            <path d="M359.58,506.067C361.308,506.376 368.112,506.81 368.112,506.81L359.65,504.526L359.58,506.067Z" style="fill:rgb(244,154,103);fill-rule:nonzero;"/>
            <path d="M359.58,509.916C361.308,510.225 368.112,510.657 368.112,510.657L359.65,508.375L359.58,509.916Z" style="fill:rgb(244,154,103);fill-rule:nonzero;"/>
            <path d="M359.296,506.067C357.66,506.376 351.218,506.81 351.218,506.81L359.23,504.526L359.296,506.067Z" style="fill:rgb(244,154,103);fill-rule:nonzero;"/>
            <path d="M359.296,509.916C357.66,510.225 351.218,510.657 351.218,510.657L359.23,508.375L359.296,509.916Z" style="fill:rgb(244,154,103);fill-rule:nonzero;"/>
            <path d="M336.693,454.817C336.465,455.1 336.156,455.871 335.984,456.207C334.564,458.963 337.434,461.645 337.434,461.645C335.296,465.409 339.896,467.731 339.896,467.731C338.219,471.399 342.974,473.137 342.974,473.137C342.767,476.347 347.49,476.608 347.49,476.608C347.658,480.052 353.48,479.784 353.48,479.784C353.48,479.784 353.93,483.064 358.459,482.919C361.109,482.835 361.827,479.409 361.827,479.409C365.869,480.923 366.958,477.164 366.958,477.164C370.782,477.529 372.458,476.051 372.545,473.208C376.718,472.606 378.227,470.579 377.785,467.51C380.665,466.652 382.118,462.608 380.466,460.416C381.865,459.495 383.029,456.383 380.029,454.562C375.128,450.987 367.174,449.106 358.738,449.151C349.875,449.198 342.043,451.11 336.693,454.817Z" style="fill:rgb(244,154,103);fill-rule:nonzero;"/>
            <path d="M337.746,498.461C338.916,503.071 340.726,514.517 340.505,519.645L381.994,519.867C381.734,518.221 381.54,516.585 381.414,514.971C374.024,514.117 335.705,524.963 347.162,449.715C347.18,449.596 347.192,449.483 347.2,449.373C346.695,449.561 346.193,449.758 345.691,449.964L344.891,450.326C340.507,467.219 336.058,479.467 335.166,495.373C335.329,495.67 337.578,498.16 337.746,498.461Z" style="fill:rgb(244,154,103);fill-rule:nonzero;"/>
            <path d="M387.512,489.41C382.217,498.898 369.023,496.999 360.69,496.999C348.084,496.999 337.824,497.782 331.324,485.953C332.72,489.691 334.264,494.03 336.876,498.647C338.058,503.259 340.278,514.513 340.055,519.645L343.995,519.666C343.901,518.872 343.847,518.067 343.847,517.246C343.847,506.928 351.513,498.563 360.969,498.563C370.425,498.563 378.09,506.928 378.09,517.246C378.09,518.129 378.03,518.995 377.922,519.846L381.994,519.867C380.656,511.502 381.247,503.665 383.969,497.813C385.454,495.236 386.474,492.186 387.512,489.41Z" style="fill:rgb(244,154,103);fill-rule:nonzero;"/>
            <path d="M359.686,485.624C359.686,485.624 358.794,494.938 357.678,497.559C358.919,497.035 359.972,496.91 361.69,497.337C359.849,492.652 359.686,485.624 359.686,485.624Z" style="fill:rgb(244,154,103);fill-rule:nonzero;"/>
            <path d="M381.536,516.962C378.102,514.088 333.586,531.356 345.892,451.355C346.224,449.198 344.912,448.47 344.405,451.604C335.147,508.824 329.195,523.943 321.484,591.923C356.117,571.288 375.931,581.499 395.435,553.107C395.435,553.107 384.721,519.629 381.536,516.962Z" style="fill:rgb(248,240,218);fill-rule:nonzero;"/>
            <path d="M344.745,489.891C343.236,480.589 343.314,468.112 345.892,451.355C346.224,449.198 344.326,448.582 343.819,451.715C340.495,472.264 338.182,487.271 335.476,501.358C340.055,488.274 340.074,475.938 341.784,474.303C343.114,473.031 342.146,482.166 344.745,489.891Z" style="fill:rgb(241,224,194);fill-rule:nonzero;"/>
            <path d="M381.986,517.474C384.087,541.182 383.768,558.848 379.314,569.007C384.9,565.604 390.179,560.758 395.435,553.107C395.435,553.107 385.621,522.442 381.986,517.474Z" style="fill:rgb(241,224,194);fill-rule:nonzero;"/>
            <path d="M358.135,480.006C353.903,480.051 353.618,478.003 353.618,478.003C353.618,478.003 348.179,478.144 347.999,474.654C347.999,474.654 343.583,474.285 343.755,471.042C343.755,471.042 339.298,469.176 340.841,465.503C340.841,465.503 336.976,463.133 338.948,459.372C338.948,459.372 336.875,456.152 338.183,453.395C339.49,450.639 341.809,450.116 341.809,450.116C341.809,450.116 342.431,447.532 343.872,446.52C345.313,445.507 347.38,445.236 347.38,445.236C347.38,445.236 347.734,442.379 351.22,440.292C351.22,440.292 349.87,439.337 350.534,438.332C351.198,437.328 352.078,436.875 352.078,436.875C352.078,436.875 350.197,436.507 352.029,435.047C352.029,435.047 351.115,434.253 351.955,433.358C352.795,432.462 354.074,432.92 354.074,432.92C354.074,432.92 353.584,431.844 354.669,431.473C355.753,431.101 356.429,431.621 356.429,431.621C356.429,431.621 356.826,430.314 357.949,430.302C359.071,430.291 359.59,431.394 359.59,431.394C359.59,431.394 360.339,430.333 361.25,430.988C362.16,431.644 361.916,432.2 361.916,432.2C361.916,432.2 363.243,431.217 363.868,431.986C364.494,432.755 364.406,433.781 364.406,433.781C364.406,433.781 365.666,433.491 365.925,434.569C366.184,435.647 365.247,436.128 365.247,436.128C365.247,436.128 366.251,435.979 366.424,437.057C366.597,438.136 365.494,438.896 365.494,438.896C365.494,438.896 367.285,439.098 368.137,440.779C368.988,442.461 368.882,443.875 368.882,443.875C371.271,443.795 373.75,445.62 375.196,448.436C376.503,448.095 378.397,450.299 378.324,453.362C381.14,455.273 380.007,458.11 378.707,459.011C380.265,461.266 378.934,465.325 376.249,466.129C376.683,469.244 375.287,471.261 371.39,471.777C371.328,474.651 369.773,476.109 366.196,475.655C366.196,475.655 365.204,479.434 361.417,477.811C361.417,477.811 360.611,479.981 358.135,480.006Z" style="fill:rgb(248,240,218);fill-rule:nonzero;"/>
            <path d="M366.317,464.597C366.222,464.715 366.104,464.824 365.995,464.936C366.417,464.889 366.855,464.862 367.306,464.861C366.965,464.787 366.632,464.702 366.317,464.597Z" style="fill:rgb(249,230,203);fill-rule:nonzero;"/>
            <path d="M378.324,453.362C378.397,450.299 376.503,448.095 375.196,448.436C373.75,445.62 371.271,443.795 368.882,443.875C368.882,443.875 368.988,442.461 368.137,440.779C368.05,440.608 367.951,440.455 367.847,440.313C368.029,440.79 368.137,441.287 368.137,441.802C368.137,442.743 367.804,443.631 367.227,444.426C367.398,444.417 367.57,444.409 367.745,444.409C371.21,444.409 374.019,446.182 374.019,448.369C374.019,449.472 373.304,450.468 372.152,451.186C376.109,452.207 378.861,454.658 378.489,457.038C378.322,458.101 377.553,458.983 376.397,459.619C376.482,459.904 376.529,460.198 376.529,460.499C376.529,462.99 373.505,465.013 369.73,465.093C371.867,465.531 373.365,466.543 373.365,467.722C373.365,469.302 370.646,471.835 367.327,471.835C364.007,471.835 361.345,469.302 361.345,467.722C361.345,467.526 361.386,467.335 361.465,467.151C360.692,467.301 359.872,467.387 359.017,467.387C357.171,467.387 355.471,467.009 354.107,466.373L354.123,466.55C354.123,467.077 353.746,467.554 353.134,467.912C353.865,467.553 354.869,467.331 355.978,467.331C358.211,467.331 360.021,468.23 360.021,469.339C360.021,470.448 358.183,472.629 355.949,472.629C353.716,472.629 351.934,470.448 351.934,469.339C351.934,468.837 352.308,468.379 352.921,468.027C352.26,468.356 351.354,469.409 350.386,469.409C348.338,469.409 346.706,467.659 346.706,466.55C346.706,465.442 348.366,464.543 350.414,464.543C350.904,464.543 351.371,464.595 351.798,464.689C351.546,464.39 351.336,464.076 351.184,463.746C350.433,464.105 349.508,464.319 348.504,464.319C345.994,464.319 343.959,462.996 343.959,461.364C343.959,460.853 344.158,460.373 344.508,459.954C341.212,459.134 338.884,457.154 338.884,454.838C338.884,452.859 340.589,451.128 343.141,450.153C343.024,449.867 342.955,449.57 342.955,449.261C342.955,447.229 345.664,445.581 349.006,445.581C351.164,445.581 353.05,446.271 354.12,447.305C354.203,447.214 354.295,447.126 354.396,447.041C351.676,445.99 349.843,444.04 349.843,441.802C349.843,441.616 349.86,441.433 349.885,441.251C347.645,443.157 347.38,445.236 347.38,445.236C347.38,445.236 345.313,445.507 343.872,446.52C342.431,447.532 341.809,450.115 341.809,450.115C341.809,450.115 339.49,450.639 338.183,453.395C336.875,456.152 338.948,459.372 338.948,459.372C336.976,463.133 340.841,465.503 340.841,465.503C339.298,469.176 343.526,471.249 343.526,471.249C343.355,474.492 347.999,474.654 347.999,474.654C348.179,478.144 353.618,478.003 353.618,478.003C353.618,478.003 353.903,480.051 358.135,480.006C360.611,479.981 361.417,477.811 361.417,477.811C365.204,479.434 366.196,475.655 366.196,475.655C369.773,476.109 371.328,474.651 371.39,471.777C375.287,471.261 376.683,469.244 376.249,466.129C378.934,465.325 380.265,461.266 378.707,459.011C380.007,458.11 381.14,455.273 378.324,453.362Z" style="fill:rgb(249,230,203);fill-rule:nonzero;"/>
            <path d="M365.247,436.128C365.247,436.128 366.184,435.647 365.925,434.569C365.666,433.491 364.406,433.781 364.406,433.781C364.406,433.781 364.459,433.088 364.132,432.413L364.038,432.372C364.038,432.372 364.382,433.502 363.259,433.728C362.135,433.955 361.533,433.351 361.533,433.351C361.533,433.351 360.968,434.594 359.854,434.459C358.739,434.323 358.369,433.162 358.369,433.162C358.369,433.162 357.487,434.115 356.671,433.346C355.855,432.577 356.17,432.057 356.17,432.057C356.17,432.057 354.725,432.858 354.206,432.013L354.124,431.85C353.797,432.31 354.074,432.92 354.074,432.92C354.074,432.92 352.795,432.462 351.955,433.358C351.115,434.253 352.029,435.047 352.029,435.047C350.197,436.507 352.078,436.875 352.078,436.875C352.078,436.875 351.198,437.328 350.534,438.332C350.252,438.758 350.334,439.175 350.521,439.515C351.883,437.3 355.159,435.737 358.99,435.737C361.932,435.737 364.542,436.662 366.215,438.092C366.378,437.804 366.487,437.453 366.424,437.057C366.251,435.979 365.247,436.128 365.247,436.128Z" style="fill:rgb(249,230,203);fill-rule:nonzero;"/>
            <path d="M358.304,439.459C357.507,439.47 356.826,440.077 356.673,440.913L356.513,441.791C356.439,442.193 356.708,442.566 357.089,442.611C357.912,442.71 358.769,442.703 359.658,442.596C360.064,442.547 360.336,442.124 360.215,441.706L359.933,440.729C359.714,439.966 359.05,439.449 358.304,439.459Z" style="fill:rgb(241,224,194);fill-rule:nonzero;"/>
            <path d="M352.542,439.422C353.755,438.609 356.159,439.471 358.532,439.401C360.93,439.33 363.296,438.338 364.276,439.256C364.276,439.256 362.977,440.861 358.376,440.526C353.482,441.405 352.542,439.422 352.542,439.422Z" style="fill:rgb(247,188,133);fill-rule:nonzero;"/>
            <path d="M352.965,439.894C354.253,439.395 356.311,440.339 358.48,440.275C360.497,440.216 362.622,439.276 363.789,439.597C364.107,439.397 364.276,439.256 364.276,439.256C363.296,438.338 360.93,439.33 358.532,439.401C356.159,439.471 353.755,438.609 352.542,439.422C352.542,439.422 352.632,439.629 352.965,439.894Z" style="fill:rgb(244,154,103);fill-rule:nonzero;"/>
            <path d="M358.289,439.648C357.634,439.657 357.076,440.165 356.95,440.866L356.818,441.601C356.758,441.938 356.979,442.25 357.291,442.288C357.966,442.37 358.67,442.364 359.399,442.275C359.733,442.234 359.955,441.88 359.857,441.53L359.625,440.712C359.445,440.073 358.901,439.64 358.289,439.648Z" style="fill:rgb(244,154,103);fill-rule:nonzero;"/>
            <path d="M358.289,439.586C357.8,439.593 357.383,440.046 357.29,440.671L357.191,441.326C357.146,441.627 357.311,441.904 357.544,441.939C358.048,442.012 358.573,442.007 359.118,441.927C359.367,441.891 359.533,441.575 359.46,441.263L359.287,440.533C359.152,439.964 358.746,439.578 358.289,439.586Z" style="fill:rgb(247,188,133);fill-rule:nonzero;"/>
            <path d="M282.158,599.827C307.004,605.022 330.9,586.975 358.946,576.934C343.178,574.566 333.083,567.044 326.008,556.777C315.345,575.44 309.728,596.474 282.158,599.827Z" style="fill:rgb(248,240,218);fill-rule:nonzero;"/>
            <path d="M299.733,587.715C299.733,580.493 294.152,574.64 287.268,574.64C280.384,574.64 274.803,580.493 274.803,587.715C274.803,594.937 280.384,600.79 287.268,600.79C294.152,600.79 299.733,594.937 299.733,587.715Z" style="fill:rgb(248,240,218);fill-rule:nonzero;"/>
            <path d="M311.362,574.564C314.177,568.194 310.701,562.605 304.539,562.968C299.502,563.265 295.127,567.614 294.099,572.24C293.174,576.403 295.752,574.179 299.721,574.86C304.433,575.669 308.929,580.066 311.362,574.564Z" style="fill:rgb(248,240,218);fill-rule:nonzero;"/>
            <path d="M411.121,606.535L404.005,606.535C404.005,606.535 403.903,604.261 404.855,603.636C405.782,603.025 411.121,606.535 411.121,606.535Z" style="fill:rgb(247,188,133);fill-rule:nonzero;"/>
            <path d="M315.871,606.535L323.571,606.535C323.571,606.535 323.681,604.261 322.652,603.636C321.649,603.025 315.871,606.535 315.871,606.535Z" style="fill:rgb(247,188,133);fill-rule:nonzero;"/>
            <path d="M310.106,514.374C319.141,515.267 324.791,514.596 327.172,513.119C334.748,508.418 330.749,492.171 319.755,492.985C316.743,493.209 305.242,499.852 304.25,501.239C302.577,503.582 306.538,514.022 310.106,514.374Z" style="fill:rgb(247,188,133);fill-rule:nonzero;"/>
            <path d="M329.423,496.442C329.2,499.955 327.686,504.268 324.746,506.092C322.365,507.569 316.631,509.271 307.596,508.378C306.363,508.257 305.09,506.806 304.02,504.863C304.718,509.09 307.472,515.15 310.05,515.405C319.085,516.298 325.079,515.449 327.46,513.973C332.314,510.959 332.954,501.66 329.423,496.442Z" style="fill:rgb(244,154,103);fill-rule:nonzero;"/>
            <path d="M311.612,514.374C307.13,514.508 305.296,517.564 300.736,514.039C297.646,511.65 296.315,505.075 296.901,502.716C300.805,502.397 302.993,497.949 309.186,500.403C315.379,502.857 318.188,514.177 311.612,514.374Z" style="fill:rgb(247,188,133);fill-rule:nonzero;"/>
            <path d="M308.351,498.44C305.115,497.932 304.003,499.943 303.751,501.248C303.482,502.644 305.969,511.703 307.726,512.18C308.947,512.511 315.778,510.662 315.818,509.104C315.852,507.724 309.085,498.555 308.351,498.44Z" style="fill:rgb(244,154,103);fill-rule:nonzero;"/>
            <path d="M313.66,509.095C308.006,509.417 306.266,506.163 300.344,502.858C299.498,502.385 295.481,502.131 296.606,506.454C297.37,509.626 299.175,513.475 300.987,514.876C305.547,518.4 307.819,515.689 312.301,515.554C315.622,515.455 316.371,512.217 315.504,508.721C314.981,508.921 314.373,509.054 313.66,509.095Z" style="fill:rgb(244,154,103);fill-rule:nonzero;"/>
            <path d="M324.677,554.047L321.67,542.354L320.841,545.084L309.563,518.246L303.521,499.934L301.399,490.623L286.261,453.56L288.323,466.601L286.689,466.811L299.681,496.239L297.478,495.099L306.999,515.705L308.73,522.953L320.139,544.963L318.031,543.967L324.677,554.047Z" style="fill:rgb(247,219,120);fill-rule:nonzero;"/>
            <path d="M349.782,580.519C353.056,579.508 355.642,577.866 358.635,577.022C369.487,556.614 379.169,537.733 380.21,521.651C378.845,532.568 370.365,558.02 349.782,580.519Z" style="fill:rgb(241,224,194);fill-rule:nonzero;"/>
            <path d="M379.684,493.885C379.603,493.267 378.274,492.931 376.716,493.135C375.159,493.339 373.962,494.006 374.043,494.624C374.124,495.242 375.453,495.578 377.01,495.374C378.568,495.17 379.765,494.503 379.684,493.885Z" style="fill:rgb(230,131,78);fill-rule:nonzero;"/>
            <path d="M302.874,506.777L301.896,492.805L301.399,490.623L293.71,471.796L293.71,482.712L299.681,496.239L297.478,495.099L302.874,506.777Z" style="fill:rgb(247,239,158);fill-rule:nonzero;"/>
            <path d="M317.97,538.252L309.563,518.246L308.361,514.604L310.395,526.165L317.97,540.778L317.97,538.252Z" style="fill:rgb(247,239,158);fill-rule:nonzero;"/>
            <path d="M451.137,579.218C447.609,574.442 443.238,576.38 440.118,578.95C437.795,581.883 436.205,585.62 435.718,589.747C435.634,590.457 435.583,591.179 435.566,591.91C435.445,597.162 437.127,601.924 439.95,605.419L443.301,605.419C443.301,605.419 451.518,605.61 452.782,600.638C454.048,595.665 450.816,594.433 450.816,594.433C450.816,594.433 457.356,587.633 451.137,579.218Z" style="fill:rgb(248,240,218);fill-rule:nonzero;"/>
            <path d="M425.63,591.146C420.943,590.727 417.443,593.819 417.811,598.053C418.178,602.286 421.042,603.994 425.729,604.412C430.416,604.831 435.15,603.801 434.782,599.567C434.414,595.334 430.317,591.564 425.63,591.146Z" style="fill:rgb(248,240,218);fill-rule:nonzero;"/>
            <path d="M410.017,585.718C408.334,585.012 407.094,586.089 407.488,588.292C407.897,590.577 409.184,591.578 410.922,591.869C412.43,592.122 413.656,591.717 413.255,589.917C412.866,588.168 411.49,586.337 410.017,585.718Z" style="fill:rgb(248,240,218);fill-rule:nonzero;"/>
            <path d="M411.339,578.868C412.109,578.515 412.824,579.145 412.832,580.36C412.84,581.622 412.295,582.149 411.46,582.269C410.734,582.374 410.089,582.119 410.121,581.127C410.152,580.163 410.666,579.177 411.339,578.868Z" style="fill:rgb(241,224,194);fill-rule:nonzero;"/>
            <path d="M298.264,557.353C299.8,557.732 300.114,559.483 298.712,561.273C297.258,563.128 295.847,563.263 294.485,562.468C293.303,561.778 292.653,560.654 293.854,559.241C295.022,557.867 296.918,557.022 298.264,557.353Z" style="fill:rgb(241,224,194);fill-rule:nonzero;"/>
            <path d="M332.198,518.626C330.873,525.79 329.572,533.163 328.264,541.331C327.339,566.491 323.31,576.511 323.077,578.409C325.767,571.106 331.857,551.042 332.198,518.626Z" style="fill:rgb(241,224,194);fill-rule:nonzero;"/>
            <path d="M342.174,487.073C344.386,508.672 356.811,518.442 369.861,518.442C369.861,518.442 351.574,520.359 344.7,502.329C341.564,494.102 342.174,487.073 342.174,487.073Z" style="fill:rgb(241,224,194);fill-rule:nonzero;"/>
            <path d="M388.324,534.702C388.805,541.757 391.094,558.803 391.094,558.803L395.435,553.107C395.435,553.107 388.073,531.022 388.324,534.702Z" style="fill:rgb(248,240,218);fill-rule:nonzero;"/>
            <path d="M355.176,436.804C357.146,437.064 358.501,438.017 358.501,438.017C358.501,438.017 362.45,435.992 365.641,436.105L362.077,434.838L351.293,435.793C351.293,435.793 350.852,436.015 350.846,436.364C350.833,437.201 351.633,437.167 351.633,437.167C351.633,437.167 352.478,436.448 355.176,436.804Z" style="fill:rgb(249,230,203);fill-rule:nonzero;"/>
            <path d="M359.797,454.838C363.255,452.385 366.49,453.835 366.49,453.835C366.49,453.835 363.646,450.879 365.04,447.365C363.353,450.754 363.646,451.506 359.797,454.838Z" style="fill:rgb(249,230,203);fill-rule:nonzero;"/>
            <path d="M441.669,598.169C447.915,590.863 452.309,595.724 452.309,595.724L451.763,593.205C448.752,592.202 444.681,593.038 441.669,598.169Z" style="fill:rgb(241,224,194);fill-rule:nonzero;"/>
            <path d="M318.142,563.534C317.639,562.517 316.222,562.191 314.977,562.806C313.732,563.42 313.13,564.743 313.633,565.761C314.135,566.778 315.552,567.106 316.797,566.49C318.043,565.875 318.644,564.552 318.142,563.534Z" style="fill:rgb(248,240,218);fill-rule:nonzero;"/>
            <path d="M345.521,562.029C374.449,537.327 373.283,521.916 373.283,521.916C373.283,521.916 366.219,535.205 361.278,542.681C355.459,551.484 345.521,562.029 345.521,562.029Z" style="fill:rgb(241,224,194);fill-rule:nonzero;"/>
            <path d="M361.967,439.743C361.955,439.646 361.528,439.404 361.004,439.47C360.478,439.536 360.054,439.884 360.066,439.981C360.078,440.078 360.508,439.962 361.033,439.896C361.558,439.83 361.98,439.84 361.967,439.743Z" style="fill:rgb(110,39,63);fill-rule:nonzero;"/>
            <path d="M356.408,440.092C356.422,439.995 356.074,439.65 355.55,439.575C355.026,439.5 354.525,439.723 354.511,439.82C354.497,439.917 354.942,439.918 355.466,439.993C355.99,440.068 356.394,440.189 356.408,440.092Z" style="fill:rgb(110,39,63);fill-rule:nonzero;"/>
            <path d="M308.188,498.263C305.182,496.963 303.188,498.042 303.112,499.369C303.036,500.697 304.788,507.909 306.37,508.81C307.469,509.436 309.654,508.981 310.082,507.482C310.46,506.154 308.869,498.559 308.188,498.263Z" style="fill:rgb(247,188,133);fill-rule:nonzero;"/>
            <path d="M303.089,506.312C303.886,505.668 303.058,501.526 301.937,501.265C300.815,501.004 295.451,501.271 294.673,502.726C294.132,503.738 294.493,505.986 295.756,506.623C296.874,507.188 302.6,506.706 303.089,506.312Z" style="fill:rgb(247,188,133);fill-rule:nonzero;"/>
            <path d="M304.714,511.401C305.452,510.797 304.335,507.275 303.212,507.119C302.09,506.964 296.833,507.527 296.174,508.831C295.716,509.738 296.235,511.655 297.524,512.126C298.665,512.543 304.262,511.772 304.714,511.401Z" style="fill:rgb(247,188,133);fill-rule:nonzero;"/>
            <path d="M306.578,516.447C307.297,515.968 306.668,512.739 305.686,512.509C304.703,512.278 299.965,512.351 299.243,513.458C298.741,514.229 299.004,515.979 300.103,516.504C301.075,516.969 306.137,516.739 306.578,516.447Z" style="fill:rgb(247,188,133);fill-rule:nonzero;"/>
        </g>
        <g id="Mutter">
        </g>
        <g id="Theresias">
        </g>
        <g id="Odysseus">
        </g>
    </g>
</svg>
