<?xml version="1.0" encoding="UTF-8" standalone="no"?>
<!DOCTYPE svg PUBLIC "-//W3C//DTD SVG 1.1//EN" "http://www.w3.org/Graphics/SVG/1.1/DTD/svg11.dtd">
<svg width="100%" height="100%" viewBox="0 0 619 643" version="1.1" xmlns="http://www.w3.org/2000/svg" xmlns:xlink="http://www.w3.org/1999/xlink" xml:space="preserve" xmlns:serif="http://www.serif.com/" style="fill-rule:evenodd;clip-rule:evenodd;stroke-linejoin:round;stroke-miterlimit:2;">
    <g transform="matrix(1,0,0,1,-624,-106)">
        <g id="Zyklop">
        </g>
        <g id="Schaf" transform="matrix(3.40958,-2.39497,2.39497,3.40958,-2203.48,918.256)">
            <g id="Schaaf-Füße" serif:id="Schaaf Füße">
            </g>
            <g id="Schaaf-Körper" serif:id="Schaaf Körper">
            </g>
            <g id="Schaaf-Kopf" serif:id="Schaaf Kopf">
            </g>
        </g>
        <g id="Hermes-evil" serif:id="Hermes evil">
        </g>
        <g id="Hermes-nett" serif:id="Hermes nett" transform="matrix(4.16667,0,0,4.16667,51.4846,-2465.95)">
            <path d="M184.609,637.192C183.108,638.259 184.588,639.569 184.588,639.569C184.588,639.569 184.152,640.77 184.773,641.559C185.386,642.338 186.498,642.594 186.498,642.594L189.954,641.591C189.954,641.591 190.031,639.517 188.789,637.948C186.626,635.218 184.609,637.192 184.609,637.192Z" style="fill:rgb(119,54,50);fill-rule:nonzero;"/>
            <path d="M203.038,669.375C210.575,681.136 211.209,687.829 216.692,694.971L208.05,697.726L203.038,669.375Z" style="fill:rgb(229,200,142);fill-rule:nonzero;"/>
            <path d="M261.709,750.736C260.911,750.687 250.239,750.138 249.741,750.438C249.242,750.736 248.843,751.385 248.045,756.222L248.394,756.472C248.544,755.873 250.115,754.489 251.312,754.39C255.351,754.053 253.967,753.268 253.967,753.268C258.829,752.931 256.997,751.996 256.997,751.996C259.989,751.796 262.507,750.786 261.709,750.736Z" style="fill:rgb(250,233,194);fill-rule:nonzero;"/>
            <path d="M199.747,733.157C198.949,733.108 188.277,732.56 187.778,732.858C187.28,733.157 186.881,733.806 186.083,738.644L186.432,738.893C186.582,738.294 188.152,736.91 189.349,736.811C193.389,736.474 192.005,735.689 192.005,735.689C196.867,735.352 195.034,734.417 195.034,734.417C198.026,734.218 200.545,733.207 199.747,733.157Z" style="fill:rgb(250,233,194);fill-rule:nonzero;"/>
            <path d="M183.39,672.467C170.125,658.005 149.778,630.677 149.778,630.677L151.773,626.089L185.285,647.831L183.39,672.467Z" style="fill:rgb(247,188,133);fill-rule:nonzero;"/>
            <path d="M150.229,629.639L149.778,630.677C149.778,630.677 170.125,658.604 183.39,673.066L184.047,663.925C171.185,651.978 155.799,635.626 150.229,629.639Z" style="fill:rgb(244,154,103);fill-rule:nonzero;"/>
            <path d="M213.311,701.691C209.621,690.619 210.818,685.532 213.012,681.044C214.306,678.397 212.852,668.503 205.831,659.7C200.949,653.579 192.666,651.322 184.687,647.134C184.687,647.134 177.206,664.787 185.485,679.947C193.763,695.108 213.311,701.691 213.311,701.691Z" style="fill:rgb(247,188,133);fill-rule:nonzero;"/>
            <path d="M208.535,699.705L212.046,697.4C209.977,689.217 211.473,685.206 213.361,681.344C213.697,680.656 213.497,679.179 213.413,677.66L206.03,673.9C206.03,673.9 205.736,680.42 205.121,697.987C206.353,698.65 207.508,699.225 208.535,699.705Z" style="fill:rgb(244,154,103);fill-rule:nonzero;"/>
            <path d="M208.799,682.691C205.416,684.483 197.824,683.351 191.967,673.489C186.273,663.901 184.562,652.844 187.313,648.444C186.438,648.024 185.56,647.592 184.687,647.134C184.687,647.134 177.206,664.787 185.485,679.947C193.763,695.108 213.312,701.691 213.312,701.691C211.184,695.308 208.422,686.127 208.799,682.691Z" style="fill:rgb(244,154,103);fill-rule:nonzero;"/>
            <path d="M185.534,738.743C175.859,722.286 165.886,698.399 166.883,695.406C167.064,694.864 167.86,693.555 169.278,693.368C175.012,692.614 192.694,694.738 202.739,697.352L205.781,712.113C196.605,711.215 179.367,705.989 179.351,706.677C179.301,708.772 181.944,728.171 185.534,737.098L185.534,738.743Z" style="fill:rgb(247,188,133);fill-rule:nonzero;"/>
            <path d="M179.47,708.366C179.386,707.545 179.344,706.955 179.351,706.677C179.367,705.989 196.605,711.215 205.781,712.113L202.739,697.352C192.694,694.738 175.012,692.614 169.278,693.368L169.182,693.391C172.223,695.618 175.943,701.052 179.47,708.366Z" style="fill:rgb(244,154,103);fill-rule:nonzero;"/>
            <path d="M206.38,715.953C214.059,727.622 220.543,737.297 222.138,738.594C223.734,739.89 247.472,756.646 249.766,758.74L250.165,758.242C250.165,758.242 230.217,735.9 229.319,734.903C228.422,733.905 218.348,711.365 218.348,711.365L206.38,715.953Z" style="fill:rgb(247,188,133);fill-rule:nonzero;"/>
            <path d="M222.138,738.594C222.219,738.659 222.371,738.775 222.561,738.916C226.616,739.412 231.017,740.398 235.55,741.876C232.261,738.192 229.632,735.251 229.319,734.903C228.422,733.905 218.348,711.365 218.348,711.365L206.38,715.953C214.06,727.622 220.543,737.297 222.138,738.594Z" style="fill:rgb(244,154,103);fill-rule:nonzero;"/>
            <path d="M176.309,691.817C180.697,703.585 196.068,718.231 198.55,720.042C205.931,725.428 232.76,737.297 232.76,737.297C232.76,737.297 228.97,726.325 224.482,718.945C224.482,718.945 227.659,718.879 221.988,712.263C218.997,708.772 217.799,708.772 218.099,707.475C218.398,706.179 221.091,707.675 219.296,703.685C218.537,701.999 217.903,700.527 217.424,699.298C216.769,697.62 219.586,698.985 216.692,694.971C216.692,694.971 179.213,679.585 185.775,648.075C185.853,647.698 185.717,647.307 185.415,647.067L185.05,646.778C184.5,646.41 183.759,646.555 183.388,647.104C180.567,651.288 170.991,668.515 188.576,688.524L188.078,690.12C188.078,690.12 184.886,687.627 185.385,691.717C185.385,691.717 175.228,688.918 176.309,691.817Z" style="fill:rgb(250,233,194);fill-rule:nonzero;"/>
            <path d="M221.988,712.263C218.997,708.772 217.799,708.772 218.099,707.475C218.16,707.211 218.321,707.066 218.523,706.963C196.381,696.528 196.148,689.985 187.315,687.031C187.721,687.527 188.137,688.025 188.576,688.525L188.078,690.12C188.078,690.12 184.886,687.627 185.385,691.717C185.385,691.717 175.228,688.918 176.309,691.817C180.598,703.319 195.371,717.563 198.355,719.893C187.429,708.825 181.239,698.297 184.173,695.059C187.541,691.341 195.204,702.885 209.247,715.604C183.215,684.561 223.347,718.741 226.342,722.266C225.742,721.114 225.119,719.993 224.482,718.945C224.482,718.945 227.659,718.879 221.988,712.263Z" style="fill:rgb(239,216,165);fill-rule:nonzero;"/>
            <path d="M182.093,664.688C182.093,664.688 180.815,656.026 185.77,647.678C185.727,647.441 185.61,647.221 185.415,647.067L185.05,646.778C184.797,646.608 184.502,646.553 184.222,646.591C181.221,653.212 181.343,660.028 182.093,664.688Z" style="fill:rgb(239,216,165);fill-rule:nonzero;"/>
            <path d="M224.482,718.945C224.482,718.945 216.414,712.57 210.743,705.954C207.751,702.463 217.799,708.772 218.099,707.475C218.398,706.179 221.091,707.675 219.296,703.685C219.095,703.239 218.904,702.811 218.722,702.395C211.351,704.023 197.818,695.725 189.524,685.932C178.353,672.741 178.629,660.896 180.825,651.838C177.622,659.237 174.589,673.049 188.19,688.525L187.928,689.759C187.928,689.759 184.587,687.316 185.086,691.404C185.086,691.404 178.805,689.904 176.802,690.71C182.897,691.107 195.186,696.345 204.086,704.009C212.902,711.602 226.078,724.131 231.411,736.694C232.271,737.08 232.76,737.297 232.76,737.297C232.76,737.297 228.97,726.325 224.482,718.945Z" style="fill:rgb(239,216,165);fill-rule:nonzero;"/>
            <path d="M200.146,654.664C195.857,651.322 195.009,647.632 195.109,644.84C195.209,642.047 185.029,649.57 185.029,649.57C185.029,649.57 188.925,650.774 188.676,654.016C193.414,657.307 198.051,656.359 200.146,654.664Z" style="fill:rgb(247,188,133);fill-rule:nonzero;"/>
            <path d="M200.589,655.059L206.429,680.346C220.194,686.53 228.997,692.814 235.281,698.698L240.317,693.493C240.317,693.493 217.843,663.636 200.589,655.059Z" style="fill:rgb(247,188,133);fill-rule:nonzero;"/>
            <path d="M205.888,678.001L206.292,680.708C220.056,686.892 228.997,692.814 235.281,698.698C235.281,698.698 228.921,688.325 205.888,678.001Z" style="fill:rgb(244,154,103);fill-rule:nonzero;"/>
            <path d="M200.255,679.19C200.485,678.839 200.181,678.231 199.575,677.831C198.968,677.433 198.289,677.394 198.058,677.745C197.826,678.096 198.13,678.704 198.737,679.104C199.344,679.502 200.023,679.541 200.255,679.19Z" style="fill:rgb(229,115,52);fill-rule:nonzero;"/>
            <path d="M208.2,679.922C204.31,677.454 202.814,668.926 202.814,668.926C202.814,668.926 202.889,679.174 208.798,685.309L208.2,679.922Z" style="fill:rgb(244,154,103);fill-rule:nonzero;"/>
            <path d="M188.901,739.915C187.716,738.483 186.956,739.167 184.038,734.155L184.338,736.249C188.302,742.907 188.078,753.08 189.05,753.305C189.557,753.422 189.976,750.813 189.499,747.47C189.237,745.638 190.509,741.859 188.901,739.915Z" style="fill:rgb(247,188,133);fill-rule:nonzero;"/>
            <path d="M252.356,758.009C250.757,757.063 250.273,757.964 245.831,754.236L246.821,756.106C252.806,761.027 256.04,770.676 257.031,770.558C257.548,770.496 257.058,767.899 255.478,764.915C254.61,763.279 254.528,759.295 252.356,758.009Z" style="fill:rgb(247,188,133);fill-rule:nonzero;"/>
            <path d="M184.674,737.839L186.17,736.698L187.741,738.456L185.871,740.14L184.674,737.839Z" style="fill:rgb(250,233,194);fill-rule:nonzero;"/>
            <path d="M248.693,758.018L249.591,756.671L247.746,755.25L247.372,757.02L248.693,758.018Z" style="fill:rgb(250,233,194);fill-rule:nonzero;"/>
            <path d="M213.261,717.947C219.595,726.725 230.068,732.809 230.068,732.809L231.514,735.95C225.43,731.412 217.201,724.58 213.261,717.947Z" style="fill:rgb(239,216,165);fill-rule:nonzero;"/>
            <path d="M184.562,673.863C190.696,687.028 205.507,701.541 216.578,704.084L218.809,702.594C204.755,696.694 192.762,687.922 184.562,673.863Z" style="fill:rgb(239,216,165);fill-rule:nonzero;"/>
            <path d="M202.3,662.467C194.917,662.038 190.617,657.822 188.892,654.163C191.117,655.649 193.312,656.211 195.222,656.211C197.263,656.212 198.98,655.57 200.064,654.729C200.241,654.841 200.417,654.952 200.59,655.066L200.589,655.059L202.3,662.467Z" style="fill:rgb(211,93,51);"/>
            <path d="M200.665,655.096C200.662,655.095 200.658,655.093 200.654,655.091C200.658,655.093 200.661,655.095 200.665,655.096ZM200.632,655.08C200.617,655.073 200.604,655.066 200.589,655.059C200.603,655.066 200.618,655.073 200.632,655.08ZM200.146,654.664C200.134,654.654 200.121,654.645 200.109,654.635C200.121,654.645 200.134,654.654 200.146,654.664ZM200.103,654.63C200.09,654.62 200.078,654.611 200.065,654.601C200.078,654.611 200.09,654.62 200.103,654.63ZM200.063,654.599C200.036,654.578 200.01,654.557 199.984,654.536C200.01,654.557 200.037,654.578 200.063,654.599ZM199.984,654.536C198.77,653.568 197.84,652.572 197.135,651.578C197.84,652.572 198.769,653.568 199.984,654.536Z" style="fill:rgb(220,148,145);fill-rule:nonzero;"/>
            <path d="M188.687,653.703C188.404,653.026 188.211,652.375 188.104,651.78C188.451,652.31 188.684,652.947 188.687,653.703Z" style="fill:rgb(211,93,51);fill-rule:nonzero;"/>
            <path d="M185.11,649.597C185.083,649.588 185.056,649.579 185.029,649.57C185.031,649.571 185.059,649.58 185.11,649.597Z" style="fill:rgb(216,134,104);fill-rule:nonzero;"/>
            <path d="M195.222,656.211C193.312,656.211 191.117,655.649 188.892,654.163C188.819,654.009 188.751,653.855 188.687,653.703C188.684,652.947 188.451,652.31 188.104,651.78C188.084,651.667 188.067,651.556 188.053,651.447C188.035,651.315 186.562,650.096 185.11,649.597C185.059,649.58 185.031,649.571 185.029,649.57C186.203,649.902 188.577,650.616 190.637,650.616C191.957,650.616 193.148,650.323 193.812,649.448C194.408,651.048 195.957,651.479 195.957,651.479C196.265,651.612 196.518,651.667 196.727,651.667C196.888,651.667 197.023,651.634 197.135,651.578C197.84,652.572 198.77,653.568 199.984,654.536C200.01,654.557 200.036,654.578 200.063,654.599C200.064,654.599 200.065,654.6 200.065,654.601C200.078,654.611 200.09,654.62 200.103,654.63C200.105,654.632 200.107,654.633 200.109,654.635C200.121,654.645 200.134,654.654 200.146,654.664L200.06,654.727C200.061,654.727 200.063,654.728 200.064,654.729C198.98,655.57 197.263,656.212 195.222,656.211Z" style="fill:rgb(211,93,51);fill-rule:nonzero;"/>
            <path d="M203.542,662.502C203.119,662.502 202.704,662.49 202.3,662.467L200.589,655.059C200.604,655.066 200.617,655.073 200.632,655.08C200.64,655.084 200.647,655.087 200.654,655.091C200.658,655.093 200.662,655.095 200.665,655.096C203.683,656.607 206.945,658.877 210.274,661.592C207.808,662.225 205.569,662.502 203.542,662.502Z" style="fill:rgb(211,93,51);fill-rule:nonzero;"/>
            <path d="M191.072,635.978C194.582,633.004 195.439,629.79 195.976,629.599C196.514,629.406 206.553,635.672 211.282,636.254C216.012,636.836 208.521,638.396 204.187,636.08C204.187,636.08 211.955,641.176 198.792,636.073C198.792,636.073 208.081,640.299 195.74,636.679C194.032,636.178 192.18,636.162 191.442,636.666C190.704,637.17 190.286,636.644 191.072,635.978Z" style="fill:rgb(250,233,194);fill-rule:nonzero;"/>
            <path d="M191.843,636.138C195.352,633.163 196.092,631.093 196.63,630.901C197.168,630.709 206.553,635.672 211.282,636.254C216.012,636.836 208.521,638.396 204.187,636.08C204.187,636.08 211.955,641.176 198.792,636.073C198.792,636.073 208.081,640.299 195.74,636.679C194.032,636.178 192.18,636.162 191.442,636.666C190.704,637.17 191.057,636.804 191.843,636.138Z" style="fill:rgb(239,216,165);fill-rule:nonzero;"/>
            <path d="M185.029,649.57C186.974,650.119 192.217,651.722 193.862,649.378C195.508,647.033 195.508,643.842 195.558,643.293C195.608,642.745 186.967,637.139 186.432,637.758C185.485,638.856 185.029,649.57 185.029,649.57Z" style="fill:rgb(247,188,133);fill-rule:nonzero;"/>
            <path d="M187.276,642.084L185.879,641.511C185.879,641.511 186.054,641.037 186.552,641.262C186.784,641.366 187.276,642.084 187.276,642.084Z" style="fill:rgb(117,69,56);fill-rule:nonzero;"/>
            <path d="M187.568,645.264L185.816,644.149C185.816,644.149 187.404,641.594 187.787,641.497C188.174,641.399 187.568,645.264 187.568,645.264Z" style="fill:rgb(244,154,103);fill-rule:nonzero;"/>
            <path d="M188.026,645.149L186.254,644.029C186.254,644.029 187.865,641.454 188.252,641.357C188.645,641.257 188.026,645.149 188.026,645.149Z" style="fill:rgb(247,188,133);fill-rule:nonzero;"/>
            <path d="M189.634,643.689L188.323,642.94C188.323,642.94 188.558,642.492 189.023,642.779C189.239,642.913 189.634,643.689 189.634,643.689Z" style="fill:rgb(117,69,56);fill-rule:nonzero;"/>
            <path d="M190.286,642.926L188.154,641.935L188.224,641.52L190.399,642.196L190.286,642.926Z" style="fill:rgb(119,54,50);fill-rule:nonzero;"/>
            <path d="M187.612,641.353L185.881,640.528L185.937,640.108L187.703,640.615L187.612,641.353Z" style="fill:rgb(119,54,50);fill-rule:nonzero;"/>
            <path d="M195.957,651.479C197.802,652.277 197.702,650.282 197.702,650.282C197.702,650.282 198.949,650.032 199.099,649.035C199.248,648.038 198.6,646.891 198.6,646.891L195.309,644.497C195.309,644.497 193.82,645.645 193.613,647.539C193.264,650.73 195.957,651.479 195.957,651.479Z" style="fill:rgb(97,40,43);fill-rule:nonzero;"/>
            <path d="M192.291,642.005C190.713,643.126 192.444,644.259 192.444,644.259C192.444,644.259 192.052,645.428 192.796,646.13C193.531,646.823 194.778,646.983 194.778,646.983L198.518,645.778C198.518,645.778 198.45,643.808 196.961,642.414C194.37,639.986 192.291,642.005 192.291,642.005Z" style="fill:rgb(119,54,50);fill-rule:nonzero;"/>
            <path d="M192.955,647.163C193.159,645.356 194.47,644.373 194.996,645.654C195.819,647.659 192.955,647.163 192.955,647.163Z" style="fill:rgb(247,188,133);fill-rule:nonzero;"/>
            <path d="M193.413,646.716C193.525,645.726 194.243,645.188 194.531,645.889C194.982,646.987 193.413,646.716 193.413,646.716Z" style="fill:rgb(225,124,82);fill-rule:nonzero;"/>
            <path d="M193.25,646.807C193.32,646.186 193.771,645.848 193.951,646.288C194.234,646.978 193.25,646.807 193.25,646.807Z" style="fill:rgb(247,188,133);fill-rule:nonzero;"/>
            <path d="M198.6,646.891L197.515,646.102L198.6,646.891ZM184.151,637.638C184.151,637.637 184.152,637.636 184.153,637.635C184.152,637.636 184.151,637.637 184.151,637.638ZM184.154,637.633C184.259,637.484 184.407,637.336 184.609,637.192C184.407,637.336 184.259,637.484 184.154,637.633Z" style="fill:rgb(220,148,145);fill-rule:nonzero;"/>
            <path d="M185.821,640.015C185.137,639.284 184.514,638.605 183.974,638.01C184.007,637.887 184.064,637.762 184.151,637.638C184.151,637.637 184.152,637.636 184.153,637.635C184.153,637.634 184.154,637.633 184.154,637.633C184.259,637.484 184.407,637.336 184.609,637.192C184.609,637.192 185.314,636.502 186.337,636.502C187.045,636.502 187.905,636.832 188.789,637.948C189.057,638.287 189.26,638.647 189.419,639.007C188.11,638.256 186.995,637.71 186.579,637.71C186.51,637.71 186.46,637.726 186.432,637.758C186.199,638.028 185.995,638.882 185.821,640.015Z" style="fill:rgb(94,40,46);fill-rule:nonzero;"/>
            <path d="M193.599,647.682C193.409,647.515 193.219,647.346 193.027,647.174C193.142,647.19 193.381,647.217 193.659,647.217L193.661,647.217C193.641,647.322 193.625,647.429 193.613,647.539C193.608,647.588 193.603,647.635 193.599,647.682ZM192.961,647.114C191.636,645.921 190.292,644.62 189.018,643.337L189.634,643.689C189.634,643.689 189.239,642.913 189.023,642.779C188.91,642.71 188.811,642.683 188.725,642.683C188.616,642.683 188.529,642.726 188.464,642.776C188.424,642.735 188.383,642.693 188.342,642.652C188.361,642.431 188.374,642.222 188.38,642.039L190.286,642.926L190.399,642.196L188.368,641.564C188.351,641.432 188.319,641.355 188.267,641.355C188.262,641.355 188.257,641.355 188.252,641.357C188.175,641.376 188.049,641.494 187.896,641.671C187.879,641.56 187.848,641.495 187.801,641.495C187.797,641.495 187.792,641.496 187.787,641.497C187.718,641.515 187.609,641.613 187.478,641.761C187.195,641.468 186.919,641.179 186.649,640.895L187.612,641.353L187.703,640.615L185.937,640.108L185.933,640.135C185.896,640.095 185.858,640.055 185.821,640.015C185.995,638.882 186.199,638.028 186.432,637.758C186.46,637.726 186.51,637.71 186.579,637.71C186.995,637.71 188.11,638.256 189.419,639.007C189.419,639.008 189.42,639.008 189.42,639.009C190.668,639.725 192.092,640.628 193.255,641.423C192.649,641.657 192.291,642.005 192.291,642.005C190.713,643.126 192.444,644.259 192.444,644.259C192.444,644.259 192.052,645.428 192.796,646.13C192.897,646.225 193.008,646.31 193.123,646.386C193.05,646.608 192.994,646.852 192.961,647.114Z" style="fill:rgb(211,93,51);fill-rule:nonzero;"/>
            <path d="M187.666,641.956C187.603,641.891 187.54,641.826 187.478,641.761C187.609,641.613 187.718,641.515 187.787,641.497C187.792,641.496 187.797,641.495 187.801,641.495C187.848,641.495 187.879,641.56 187.896,641.671C187.825,641.755 187.747,641.851 187.666,641.956Z" style="fill:rgb(206,59,41);fill-rule:nonzero;"/>
            <path d="M188.342,642.652C188.114,642.418 187.888,642.186 187.666,641.956C187.747,641.851 187.825,641.755 187.896,641.671C188.049,641.494 188.175,641.376 188.252,641.357C188.257,641.355 188.262,641.355 188.267,641.355C188.319,641.355 188.351,641.432 188.368,641.564L188.224,641.52L188.154,641.935L188.38,642.039C188.374,642.222 188.361,642.431 188.342,642.652Z" style="fill:rgb(211,93,51);fill-rule:nonzero;"/>
            <path d="M189.634,643.689L189.018,643.337C188.832,643.149 188.647,642.963 188.464,642.776C188.529,642.726 188.616,642.683 188.725,642.683C188.811,642.683 188.91,642.71 189.023,642.779C189.239,642.913 189.634,643.689 189.634,643.689Z" style="fill:rgb(95,41,45);fill-rule:nonzero;"/>
            <path d="M190.286,642.926L188.38,642.039L188.154,641.935L188.224,641.52L188.368,641.564L190.399,642.196L190.286,642.926Z" style="fill:rgb(94,40,46);fill-rule:nonzero;"/>
            <path d="M187.612,641.353L186.649,640.895C186.405,640.637 186.166,640.383 185.933,640.135L185.937,640.108L187.703,640.615L187.612,641.353Z" style="fill:rgb(94,40,46);fill-rule:nonzero;"/>
            <path d="M197.645,650.834C196.412,650.038 195.025,648.935 193.599,647.682C193.603,647.635 193.608,647.588 193.613,647.539C193.625,647.429 193.641,647.322 193.661,647.217C194.028,647.217 194.462,647.169 194.766,646.982C194.773,646.983 194.778,646.983 194.778,646.983L197.515,646.102L198.6,646.891C198.6,646.891 199.123,647.817 199.121,648.728C199.121,648.831 199.114,648.934 199.099,649.035C198.949,650.032 197.702,650.282 197.702,650.282C197.702,650.282 197.714,650.54 197.645,650.834Z" style="fill:rgb(73,39,44);fill-rule:nonzero;"/>
            <path d="M194.778,646.983C194.778,646.983 194.773,646.983 194.766,646.982C195.114,646.767 195.29,646.37 194.996,645.654C194.831,645.252 194.588,645.073 194.326,645.073C193.885,645.073 193.39,645.582 193.123,646.386C193.008,646.31 192.897,646.225 192.796,646.13C192.052,645.428 192.444,644.259 192.444,644.259C192.444,644.259 190.713,643.126 192.291,642.005C192.291,642.005 192.649,641.657 193.255,641.423C194.587,642.336 195.575,643.107 195.558,643.293C195.541,643.478 195.529,643.961 195.46,644.607L197.515,646.102L194.778,646.983Z" style="fill:rgb(94,40,46);fill-rule:nonzero;"/>
            <path d="M193.659,647.217C193.381,647.217 193.142,647.19 193.027,647.174C193.005,647.154 192.983,647.134 192.961,647.114C192.994,646.852 193.05,646.608 193.123,646.386C193.39,645.582 193.885,645.073 194.326,645.073C194.588,645.073 194.831,645.252 194.996,645.654C195.29,646.37 195.114,646.767 194.766,646.982C194.462,647.169 194.028,647.217 193.661,647.217L193.659,647.217ZM193.558,646.15C193.415,646.258 193.285,646.497 193.25,646.807C193.25,646.807 193.358,646.825 193.492,646.825C193.619,646.825 193.768,646.809 193.872,646.744C194.295,646.73 194.816,646.583 194.531,645.889C194.44,645.668 194.307,645.57 194.164,645.57C193.949,645.57 193.711,645.791 193.558,646.15Z" style="fill:rgb(211,93,51);fill-rule:nonzero;"/>
            <path d="M193.872,646.744C193.992,646.671 194.052,646.534 193.951,646.288C193.894,646.15 193.811,646.088 193.721,646.088C193.668,646.088 193.612,646.11 193.558,646.15C193.711,645.791 193.949,645.57 194.164,645.57C194.307,645.57 194.44,645.668 194.531,645.889C194.816,646.583 194.295,646.73 193.872,646.744Z" style="fill:rgb(189,34,40);fill-rule:nonzero;"/>
            <path d="M193.492,646.825C193.358,646.825 193.25,646.807 193.25,646.807C193.285,646.497 193.415,646.258 193.558,646.15C193.612,646.11 193.668,646.088 193.721,646.088C193.811,646.088 193.894,646.15 193.951,646.288C194.052,646.534 193.992,646.671 193.872,646.744C193.768,646.809 193.619,646.825 193.492,646.825Z" style="fill:rgb(211,93,51);fill-rule:nonzero;"/>
            <path d="M184.338,636.35C193.21,642.42 193.501,646.635 199.647,649.228C201.96,650.203 198.45,647.545 199.448,642.109C200.445,636.673 196.306,632.971 192.915,633.042C189.218,633.12 187.404,636.15 185.325,635.506C183.702,635.003 183.627,635.863 184.338,636.35Z" style="fill:rgb(245,220,98);fill-rule:nonzero;"/>
            <path d="M190.222,633.948C189.041,634.466 188.093,635.176 187.207,635.546C187.488,635.684 187.711,635.855 187.852,636.049C188.558,635.675 189.324,635.166 190.222,634.758L190.222,633.948Z" style="fill:rgb(247,232,158);fill-rule:nonzero;"/>
            <path d="M192.889,633.332C192.4,633.343 191.945,633.406 191.519,633.507L191.519,634.296C191.977,634.18 192.465,634.101 192.998,634.09C195.578,634.035 198.598,636.253 199.289,639.765C198.916,635.817 195.651,633.274 192.889,633.332Z" style="fill:rgb(247,232,158);fill-rule:nonzero;"/>
            <path d="M199.448,642.109C199.876,639.776 199.354,637.767 198.356,636.233C198.407,636.472 198.408,636.706 198.354,636.932C197.916,638.762 194.044,639.402 189.707,638.362C187.253,637.775 185.177,636.774 183.915,635.685C183.891,635.89 184.047,636.15 184.338,636.35C193.21,642.42 193.501,646.635 199.647,649.228C201.96,650.203 198.45,647.545 199.448,642.109Z" style="fill:rgb(246,198,80);fill-rule:nonzero;"/>
            <path d="M199.448,642.109C199.514,641.747 199.554,641.395 199.577,641.049C199.558,641.191 199.549,641.329 199.523,641.474C199.456,641.836 199.411,642.185 199.381,642.523C199.401,642.386 199.422,642.249 199.448,642.109Z" style="fill:rgb(245,220,98);fill-rule:nonzero;"/>
            <path d="M199.722,648.592C193.576,645.999 193.565,641.709 184.693,635.639C184.565,635.551 184.183,635.526 184.11,635.425C183.756,635.597 183.894,636.046 184.338,636.35C193.21,642.42 193.501,646.635 199.647,649.228C200.537,649.604 200.564,649.439 200.318,648.786C200.19,648.773 199.999,648.709 199.722,648.592Z" style="fill:rgb(245,220,98);fill-rule:nonzero;"/>
            <path d="M195.627,639.224C195.627,638.703 195.08,638.282 194.405,638.282C193.73,638.282 193.183,638.703 193.183,639.224C193.183,639.743 193.73,640.164 194.405,640.164C195.08,640.164 195.627,639.743 195.627,639.224Z" style="fill:rgb(245,220,98);fill-rule:nonzero;"/>
            <path d="M195.764,640.618C195.538,639.974 194.943,639.37 194.569,639.162C194.32,639.025 194.125,639.032 194.055,639.165C193.967,639.328 193.899,639.993 194.249,640.501C194.996,641.586 196.18,641.807 195.764,640.618Z" style="fill:rgb(246,198,80);fill-rule:nonzero;"/>
            <path d="M194.66,638.705C199.113,636.924 200.42,633.656 201.019,633.656C201.617,633.656 210.219,644.092 214.757,646.436C219.296,648.779 211.317,647.632 207.726,643.643C207.726,643.643 213.86,651.772 202.34,641.648C202.34,641.648 210.27,649.438 199.099,641.15C197.553,640.002 195.708,639.304 194.81,639.554C193.912,639.803 193.663,639.105 194.66,638.705Z" style="fill:rgb(250,233,194);fill-rule:nonzero;"/>
            <path d="M199.396,699.811C192.163,697.226 186.325,691.859 188.323,691.333C190.322,690.807 199.396,699.811 199.396,699.811Z" style="fill:rgb(250,233,194);fill-rule:nonzero;"/>
            <path d="M216.086,647.364C214.214,647.48 210.223,645.31 206.221,641.858C205.623,641.342 205.062,640.823 204.525,640.306L204.673,640.512C206.644,643.281 208.097,644.812 207.083,644.619C206.069,644.428 203.347,642.277 201.002,639.817C199.943,638.704 199.039,637.813 199.549,638.529C201.52,641.299 202.973,642.829 201.959,642.637C200.973,642.45 197.297,638.93 195.427,639.117C194.358,639.224 193.912,639.803 194.81,639.554C195.708,639.304 197.553,640.002 199.099,641.15C210.27,649.438 202.34,641.648 202.34,641.648C213.86,651.772 207.726,643.643 207.726,643.643C210.669,646.913 216.556,648.272 216.086,647.364Z" style="fill:rgb(250,221,178);fill-rule:nonzero;"/>
            <path d="M186.565,645.638L187.061,646.095C187.897,646.267 189.725,646.61 189.725,646.61C189.725,646.61 187.192,645.952 186.565,645.638Z" style="fill:rgb(244,154,103);fill-rule:nonzero;"/>
            <path d="M190.623,664.563L190.847,673.24L189.052,669.949L190.623,664.563Z" style="fill:rgb(244,154,103);fill-rule:nonzero;"/>
            <path d="M238.844,690.522C241.528,693.345 244.9,695.659 244.735,697.622C244.572,699.585 238.321,703.362 236.782,702.79C235.243,702.218 232.139,695.607 232.139,695.607C237.015,696.124 238.227,693.571 238.844,690.522Z" style="fill:rgb(244,154,103);fill-rule:nonzero;"/>
            <path d="M260.581,676.326C258.855,674.619 256.146,674.553 254.54,676.176C252.934,677.8 253.03,680.509 254.756,682.216C256.482,683.922 259.191,683.989 260.797,682.365C262.403,680.741 262.307,678.032 260.581,676.326ZM253.958,683.023C251.759,680.849 251.636,677.398 253.682,675.328C255.728,673.259 259.181,673.345 261.38,675.519C263.578,677.692 263.701,681.145 261.655,683.214C259.609,685.282 256.156,685.197 253.958,683.023Z" style="fill:rgb(246,200,71);fill-rule:nonzero;"/>
            <path d="M253.981,682.999C252.487,681.522 249.965,681.641 248.359,683.265C246.753,684.888 246.662,687.411 248.156,688.889C249.65,690.366 252.172,690.247 253.778,688.624C255.384,687 255.475,684.477 253.981,682.999ZM247.358,689.696C245.391,687.751 245.455,684.485 247.502,682.416C249.548,680.348 252.813,680.247 254.779,682.192C256.746,684.137 256.682,687.402 254.635,689.472C252.589,691.541 249.324,691.642 247.358,689.696Z" style="fill:rgb(246,200,71);fill-rule:nonzero;"/>
            <path d="M266.472,671.788L265.054,670.385L231.808,704.98L232.247,705.413L266.472,671.788Z" style="fill:rgb(246,200,71);fill-rule:nonzero;"/>
            <path d="M247.358,689.696C246.37,688.72 244.596,688.906 243.402,690.113C242.209,691.32 242.042,693.097 243.029,694.073C244.016,695.05 245.791,694.862 246.984,693.655C248.177,692.449 248.345,690.673 247.358,689.696ZM242.231,694.88C240.77,693.436 240.911,690.917 242.545,689.266C244.178,687.613 246.695,687.444 248.156,688.889C249.616,690.333 249.475,692.852 247.841,694.504C246.208,696.155 243.691,696.324 242.231,694.88Z" style="fill:rgb(245,220,98);fill-rule:nonzero;"/>
            <path d="M261.38,675.519C261.151,675.293 260.907,675.095 260.653,674.914C261.298,676.032 261.674,677.194 261.733,678.204C262.192,679.655 261.89,681.261 260.797,682.365C259.191,683.989 256.482,683.922 254.756,682.216C254.585,682.047 254.435,681.865 254.296,681.679C253.77,681.556 253.236,681.395 252.7,681.195C252.989,681.857 253.408,682.48 253.958,683.023C256.156,685.197 259.609,685.282 261.655,683.214C263.701,681.145 263.578,677.692 261.38,675.519Z" style="fill:rgb(245,220,98);fill-rule:nonzero;"/>
            <path d="M263.743,669.229C262.677,670.306 262.687,672.042 263.764,673.108C264.841,674.173 266.578,674.163 267.643,673.086C268.708,672.009 268.698,670.273 267.622,669.207C266.545,668.143 264.808,668.151 263.743,669.229Z" style="fill:rgb(245,220,98);fill-rule:nonzero;"/>
            <path d="M265.414,671.794C264.523,670.912 264.375,669.576 264.949,668.53C264.507,668.654 264.088,668.879 263.743,669.229C262.677,670.306 262.687,672.042 263.764,673.108C264.841,674.173 266.578,674.163 267.643,673.086C267.827,672.9 267.967,672.69 268.087,672.472C267.168,672.731 266.142,672.514 265.414,671.794Z" style="fill:rgb(246,200,71);fill-rule:nonzero;"/>
            <path d="M247.901,688.607C246.679,687.107 246.851,684.789 248.359,683.265C249.965,681.641 252.487,681.522 253.981,682.999C254.227,683.242 254.426,683.516 254.586,683.807C255.107,684.001 255.614,684.269 256.094,684.609C255.901,683.714 255.467,682.872 254.779,682.192C252.813,680.247 249.548,680.348 247.502,682.416C245.456,684.485 245.391,687.751 247.358,689.696C247.675,690.01 248.028,690.265 248.402,690.472C248.132,689.862 247.963,689.233 247.901,688.607Z" style="fill:rgb(245,220,98);fill-rule:nonzero;"/>
            <path d="M243.402,690.113C244.383,689.122 245.75,688.832 246.755,689.297C246.672,688.837 246.515,688.383 246.277,687.957C245.011,687.758 243.596,688.203 242.545,689.266C241.339,690.484 240.949,692.176 241.414,693.559C241.885,693.748 242.378,693.854 242.868,693.869C242.08,692.865 242.285,691.243 243.402,690.113Z" style="fill:rgb(246,200,71);fill-rule:nonzero;"/>
            <path d="M261.423,674.919L261.696,674.554C256.045,668.965 263.318,663.149 266.069,662.212C266.516,662.06 266.441,661.515 266.156,660.724C265.635,658.17 264.169,651.344 263.461,651.713C262.945,651.983 262.743,652.827 263.016,655.06L262.931,655.122C262.506,654.061 262.124,653.346 261.906,653.503C261.51,653.788 261.385,654.467 261.696,656.114L261.568,656.224C261.18,655.542 260.853,655.15 260.674,655.325C260.349,655.644 260.233,656.195 260.436,657.275L260.263,657.448C259.894,656.712 259.568,656.26 259.368,656.411C258.969,656.714 258.838,657.337 259.122,658.708L258.969,658.9C258.59,658.368 258.271,658.081 258.091,658.259C257.719,658.627 257.611,659.218 257.918,660.36L257.823,660.515C257.333,659.936 256.95,659.598 256.842,659.789C256.648,660.137 256.699,660.661 257.19,661.662L257.079,661.886C256.734,661.606 256.483,661.494 256.41,661.672C256.269,662.014 256.297,662.438 256.605,663.089C256.574,663.183 256.545,663.278 256.518,663.373C256.138,663.012 255.85,662.837 255.754,663.017C255.538,663.421 255.602,663.978 256.18,665.005L256.16,665.166C255.72,664.848 255.386,664.711 255.295,664.937C255.076,665.478 255.265,666.028 256.187,667.113L256.187,667.116C255.65,666.667 255.235,666.412 255.161,666.618C254.982,667.116 255.307,667.704 256.691,669.176L256.703,669.204C256.14,668.803 255.702,668.58 255.732,668.89C255.808,669.676 256.358,670.294 258.474,672.05C259.884,673.77 261.423,674.919 261.423,674.919Z" style="fill:rgb(245,220,98);fill-rule:nonzero;"/>
            <path d="M261.696,674.554C256.342,669.26 262.856,663.647 265.868,662.285C265.223,661.034 264.533,659.354 264.013,657.52C263.523,655.79 262.997,654.334 262.902,653.076C262.878,653.567 262.912,654.213 263.016,655.06L262.931,655.122C263.125,656.344 264.902,661.164 264.351,661.309C263.735,661.471 262.284,657.3 261.696,656.114L261.568,656.224C262.826,659.625 263.736,661.648 263.349,661.861C262.719,662.209 261.769,660.019 260.436,657.275L260.263,657.448C260.988,658.859 262.892,662.172 262.331,662.571C261.857,662.909 260.627,660.747 259.122,658.708L258.969,658.9C260.204,660.785 261.777,663.774 261.597,663.951C261.226,664.319 259.241,661.866 257.918,660.36L257.823,660.515C260.078,663.36 260.67,664.664 260.562,664.857C260.368,665.203 259.359,664.122 257.19,661.662L257.079,661.886C259.521,664.563 259.987,665.476 259.915,665.653C259.773,665.995 259.032,665.552 256.605,663.089C256.574,663.183 256.545,663.278 256.518,663.373C258.626,665.466 259.523,666.852 259.428,667.031C259.213,667.436 257.943,666.369 256.18,665.005L256.16,665.166C258.635,667.265 259.049,668.131 258.959,668.356C258.741,668.898 257.353,667.889 256.187,667.113L256.187,667.116C258.682,669.239 258.866,669.737 258.792,669.943C258.613,670.442 257.663,669.844 256.691,669.176L256.703,669.204C258.39,670.527 259.251,671.538 259.297,671.845C259.37,672.339 258.644,672.043 258.474,672.05C259.884,673.77 261.423,674.919 261.423,674.919L261.696,674.554Z" style="fill:rgb(246,200,71);fill-rule:nonzero;"/>
            <path d="M262.047,675.537L262.409,675.26C268.061,680.849 273.797,673.513 274.703,670.751C274.85,670.303 275.396,670.371 276.19,670.647C278.749,671.14 285.591,672.53 285.23,673.243C284.966,673.761 284.123,673.973 281.888,673.725L281.826,673.81C282.893,674.223 283.612,674.598 283.457,674.817C283.176,675.216 282.499,675.349 280.848,675.057L280.74,675.186C281.426,675.567 281.821,675.888 281.649,676.068C281.334,676.399 280.783,676.521 279.701,676.329L279.53,676.504C280.27,676.864 280.726,677.187 280.577,677.388C280.279,677.789 279.657,677.926 278.283,677.658L278.093,677.814C278.629,678.188 278.919,678.503 278.743,678.685C278.38,679.061 277.79,679.176 276.644,678.881L276.491,678.978C277.075,679.461 277.418,679.84 277.227,679.949C276.881,680.148 276.357,680.103 275.351,679.623L275.128,679.735C275.412,680.079 275.526,680.328 275.349,680.403C275.009,680.548 274.585,680.525 273.931,680.224C273.837,680.256 273.742,680.285 273.647,680.315C274.013,680.69 274.19,680.977 274.012,681.074C273.61,681.294 273.053,681.236 272.019,680.67L271.858,680.692C272.181,681.128 272.321,681.461 272.097,681.554C271.558,681.779 271.005,681.596 269.91,680.687L269.908,680.686C270.363,681.218 270.623,681.631 270.417,681.707C269.922,681.892 269.33,681.572 267.843,680.205L267.814,680.193C268.221,680.751 268.449,681.188 268.139,681.161C267.353,681.094 266.728,680.551 264.949,678.454C263.214,677.063 262.047,675.537 262.047,675.537Z" style="fill:rgb(245,220,98);fill-rule:nonzero;"/>
            <path d="M262.409,675.26C267.763,680.555 273.303,673.98 274.631,670.952C275.89,671.584 277.578,672.255 279.417,672.755C281.152,673.227 282.614,673.735 283.873,673.817C283.381,673.846 282.736,673.818 281.888,673.725L281.826,673.81C280.603,673.63 275.763,671.906 275.625,672.458C275.469,673.076 279.656,674.482 280.848,675.057L280.74,675.186C277.326,673.965 275.293,673.077 275.084,673.467C274.742,674.1 276.943,675.025 279.701,676.329L279.53,676.504C278.111,675.795 274.778,673.927 274.384,674.493C274.052,674.971 276.227,676.176 278.283,677.658L278.093,677.814C276.194,676.599 273.189,675.06 273.013,675.241C272.649,675.617 275.124,677.574 276.644,678.881L276.491,678.978C273.621,676.754 272.311,676.177 272.119,676.286C271.774,676.484 272.867,677.482 275.351,679.623L275.128,679.735C272.425,677.325 271.506,676.868 271.33,676.942C270.989,677.087 271.441,677.824 273.931,680.224C273.837,680.256 273.742,680.285 273.647,680.315C271.531,678.229 270.135,677.347 269.957,677.444C269.555,677.664 270.635,678.922 272.019,680.67L271.858,680.692C269.733,678.239 268.861,677.834 268.637,677.928C268.099,678.152 269.122,679.529 269.91,680.687L269.908,680.686C267.757,678.215 267.257,678.036 267.051,678.112C266.556,678.297 267.164,679.24 267.843,680.205L267.814,680.193C266.472,678.522 265.452,677.672 265.145,677.629C264.651,677.562 264.954,678.283 264.949,678.454C263.214,677.063 262.047,675.537 262.047,675.537L262.409,675.26Z" style="fill:rgb(246,200,71);fill-rule:nonzero;"/>
            <path d="M266.285,669.047C265.899,669.299 265.907,670.088 266.304,670.81C266.7,671.531 267.335,671.913 267.721,671.661C268.108,671.409 268.099,670.62 267.702,669.899C267.306,669.176 266.671,668.795 266.285,669.047Z" style="fill:rgb(247,240,150);fill-rule:nonzero;"/>
            <path d="M236.656,688.842C240.47,691.489 241.791,693.077 241.842,694.28C241.893,695.483 238.244,698.164 237.894,698.516C237.45,698.961 235.543,698.159 236.025,697.122C236.506,696.085 238.025,694.924 238.025,694.924C238.025,694.924 235.123,693.693 235.798,691.489C236.304,689.836 236.656,688.842 236.656,688.842Z" style="fill:rgb(247,188,133);fill-rule:nonzero;"/>
            <path d="M241.274,696.351C242.132,696.586 244.139,697.863 244.287,698.419C244.436,698.975 243.209,700.028 242.439,699.812C241.67,699.595 240.061,698.343 239.942,697.81C239.822,697.275 240.87,696.24 241.274,696.351Z" style="fill:rgb(247,188,133);fill-rule:nonzero;"/>
            <path d="M238.77,698.299C239.598,698.536 241.568,699.839 241.737,700.408C241.906,700.979 240.792,702.067 240.049,701.847C239.307,701.628 237.717,700.35 237.577,699.803C237.437,699.255 238.382,698.187 238.77,698.299Z" style="fill:rgb(247,188,133);fill-rule:nonzero;"/>
            <path d="M236.37,699.564C237.183,699.847 239.077,701.259 239.213,701.838C239.349,702.417 238.176,703.44 237.447,703.179C236.718,702.918 235.203,701.552 235.094,700.997C234.985,700.442 235.989,699.43 236.37,699.564Z" style="fill:rgb(247,188,133);fill-rule:nonzero;"/>
            <path d="M151.778,632.525C150.985,632.097 150.112,631.865 149.212,632.11C148.522,632.299 145.383,631.457 145.026,631.118C144.638,630.751 143.117,629.398 144.053,627.015C144.878,624.914 146.347,624.374 147.551,624.775C148.755,625.178 151.495,623.17 152.001,623.157C153.218,623.125 153.159,625.061 154.821,626.836C159.223,631.534 156.283,634.961 151.778,632.525Z" style="fill:rgb(247,188,133);fill-rule:nonzero;"/>
            <path d="M154.451,627.121C154.482,626.329 152.207,622.254 151.378,621.71C150.548,621.166 149.149,619.22 148.763,618.799C148.376,618.378 146.924,619.53 147.159,619.995C147.394,620.461 149.391,622.533 149.565,623.175C149.911,624.454 148.4,624.7 147.964,624.923C148.372,625.806 154.364,629.341 154.451,627.121Z" style="fill:rgb(247,188,133);fill-rule:nonzero;"/>
            <path d="M150.05,624.894C148.627,624.593 146.706,624.39 146.322,624.154C145.492,623.646 144.286,620.559 143.82,620.494C143.35,620.429 141.908,620.649 142.173,621.386C142.424,622.085 143.873,625.329 144.496,625.714C145.093,626.084 147.678,627.05 147.936,627.059C148.193,627.067 150.533,624.996 150.05,624.894Z" style="fill:rgb(247,188,133);fill-rule:nonzero;"/>
            <path d="M147.549,626.146C146.005,626.061 143.653,626.235 143.29,625.892C142.926,625.547 141.051,622.971 140.776,622.788C140.432,622.561 139.025,623.622 139.329,624.213C139.632,624.804 141.456,627.578 142.147,627.927C142.839,628.276 145.407,628.79 145.676,628.756C145.946,628.723 148.09,626.176 147.549,626.146Z" style="fill:rgb(247,188,133);fill-rule:nonzero;"/>
            <path d="M146.844,628.443C145.27,628.742 143.42,629.199 142.986,628.97C142.552,628.741 140.539,627.311 140.225,627.21C139.834,627.084 138.705,628.347 139.126,628.818C139.547,629.29 142.181,631.103 142.946,631.256C143.712,631.41 145.476,631.399 146.583,631.704C146.861,631.78 147.396,628.339 146.844,628.443Z" style="fill:rgb(247,188,133);fill-rule:nonzero;"/>
        </g>
        <g id="Kirke-evil" serif:id="Kirke evil">
        </g>
        <g id="Kirke-nett" serif:id="Kirke nett">
        </g>
        <g id="Helios">
        </g>
        <g id="Mutter">
        </g>
        <g id="Theresias">
        </g>
        <g id="Odysseus">
        </g>
    </g>
</svg>
