<?xml version="1.0" encoding="UTF-8" standalone="no"?>
<!DOCTYPE svg PUBLIC "-//W3C//DTD SVG 1.1//EN" "http://www.w3.org/Graphics/SVG/1.1/DTD/svg11.dtd">
<svg width="100%" height="100%" viewBox="0 0 400 608" version="1.1" xmlns="http://www.w3.org/2000/svg" xmlns:xlink="http://www.w3.org/1999/xlink" xml:space="preserve" xmlns:serif="http://www.serif.com/" style="fill-rule:evenodd;clip-rule:evenodd;stroke-linejoin:round;stroke-miterlimit:2;">
    <g transform="matrix(1,0,0,1,-1349,-317)">
        <g id="Zyklop">
        </g>
        <g id="Schaf">
        </g>
        <g id="Hermes-evil" serif:id="Hermes evil">
        </g>
        <g id="Hermes-nett" serif:id="Hermes nett">
        </g>
        <g id="Kirke-evil" serif:id="Kirke evil">
        </g>
        <g id="Kirke-nett" serif:id="Kirke nett" transform="matrix(4.16667,0,0,4.16667,-165.145,-2983.87)">
            <path d="M448.516,818.525C448.982,817.599 449.563,817.193 450.345,817.217C451.126,817.239 452.637,816.83 452.928,817.023C453.219,817.215 451.406,817.43 450.81,817.853C449.77,818.59 448.516,818.525 448.516,818.525Z" style="fill:rgb(244,154,103);fill-rule:nonzero;"/>
            <path d="M393.913,874.029C393.768,873.851 393.416,873.899 393.126,874.137C392.836,874.375 392.717,874.714 392.862,874.894C393.007,875.073 393.359,875.025 393.65,874.786C393.94,874.548 394.058,874.209 393.913,874.029Z" style="fill:rgb(244,154,103);fill-rule:nonzero;"/>
            <path d="M394.197,874.917C394.052,874.737 393.7,874.785 393.41,875.025C393.119,875.263 393.002,875.602 393.146,875.78C393.291,875.96 393.643,875.912 393.933,875.674C394.224,875.435 394.341,875.096 394.197,874.917Z" style="fill:rgb(244,154,103);fill-rule:nonzero;"/>
            <path d="M393.665,873.13C393.52,872.951 393.168,872.999 392.877,873.237C392.587,873.477 392.469,873.816 392.614,873.994C392.758,874.174 393.111,874.126 393.401,873.887C393.692,873.649 393.809,873.31 393.665,873.13Z" style="fill:rgb(244,154,103);fill-rule:nonzero;"/>
            <path d="M371.5,931.465C369.157,931.749 363.834,937.144 363.834,937.144L382.43,937.144C382.43,937.144 373.842,931.181 371.5,931.465Z" style="fill:rgb(228,193,125);fill-rule:nonzero;"/>
            <path d="M413.63,820.116C414.381,848.565 411.352,860.144 409.666,864.904C408.13,869.243 405.592,876.526 405.592,876.526C405.592,876.526 404.358,849.238 404.103,839.617C403.8,828.2 413.63,820.116 413.63,820.116Z" style="fill:rgb(234,141,38);fill-rule:nonzero;"/>
            <path d="M445.694,820.897C449.243,840.558 448.583,857.859 438.079,858.144C427.573,858.427 420.404,849.483 418.559,838.979C416.714,828.474 427.645,823.363 427.645,823.363C427.645,823.363 427.858,840.54 437.713,844.375C443.717,846.711 443.656,836.283 443.26,828.758C442.858,821.115 445.694,820.897 445.694,820.897Z" style="fill:rgb(241,198,83);fill-rule:nonzero;"/>
            <path d="M441.801,843.202C444.305,840.908 444.196,833.625 443.899,827.977C443.706,824.31 444.259,822.354 444.886,821.31C444.082,822 443.001,823.843 443.26,828.758C443.529,833.873 443.642,840.325 441.801,843.202Z" style="fill:rgb(234,141,38);fill-rule:nonzero;"/>
            <path d="M438.717,857.362C428.213,857.647 421.044,848.703 419.198,838.198C418.434,833.848 419.862,830.426 421.796,827.906C419.555,830.482 417.713,834.161 418.559,838.979C420.404,849.483 427.573,858.427 438.079,858.144C440.737,858.071 442.764,856.905 444.252,854.891C442.838,856.426 441.013,857.301 438.717,857.362Z" style="fill:rgb(234,141,38);fill-rule:nonzero;"/>
            <path d="M437.997,845.084C444.001,847.421 443.94,836.993 443.544,829.468C443.198,822.905 445.24,821.817 445.824,821.641C445.78,821.392 445.739,821.146 445.694,820.897C445.694,820.897 442.858,821.115 443.26,828.758C443.656,836.283 443.515,846.449 437.511,844.113C433.859,842.692 431.735,839.7 430.252,836.168C431.716,839.968 434.102,843.569 437.997,845.084Z" style="fill:rgb(234,141,38);fill-rule:nonzero;"/>
            <path d="M418.843,839.689C417.163,830.127 426.065,825.036 427.678,824.198C427.649,823.67 427.645,823.363 427.645,823.363C427.645,823.363 416.714,828.474 418.559,838.979C418.938,841.137 419.546,843.227 420.357,845.187C419.687,843.435 419.177,841.588 418.843,839.689Z" style="fill:rgb(234,141,38);fill-rule:nonzero;"/>
            <path d="M443.008,839.625C443.767,839.185 444.531,838.997 445.277,839.113C446.171,839.253 446.958,839.814 447.621,840.704C447.715,834.883 446.985,828.048 445.694,820.897C445.694,820.897 442.858,821.115 443.26,828.758C443.445,832.28 443.557,836.438 443.008,839.625Z" style="fill:rgb(234,141,38);fill-rule:nonzero;"/>
            <path d="M435.748,855.084C436.376,851.058 437.517,847.448 438.913,844.68C438.542,844.638 438.145,844.543 437.713,844.375C427.858,840.54 427.645,823.363 427.645,823.363C427.645,823.363 416.714,828.474 418.559,838.979C420.243,848.564 426.359,856.844 435.397,858.007C435.479,857.051 435.594,856.075 435.748,855.084Z" style="fill:rgb(234,141,38);fill-rule:nonzero;"/>
            <path d="M408.048,822.44C401.624,837.181 396.312,868.16 394.573,872.407L394.992,872.907C394.992,872.907 411.427,839.349 412.86,831.77C414.292,824.192 408.048,822.44 408.048,822.44Z" style="fill:rgb(247,188,133);fill-rule:nonzero;"/>
            <path d="M394.714,872.024C394.665,872.167 394.618,872.298 394.573,872.407L394.992,872.907C394.992,872.907 395.034,872.822 395.109,872.667C394.976,872.459 394.844,872.245 394.714,872.024Z" style="fill:rgb(244,154,103);fill-rule:nonzero;"/>
            <path d="M408.048,822.44C406.66,825.627 405.323,829.572 404.064,833.842C406.116,835.427 407.862,838.456 409.051,842.386C410.999,837.738 412.474,833.812 412.86,831.77C414.292,824.192 408.048,822.44 408.048,822.44Z" style="fill:rgb(244,154,103);fill-rule:nonzero;"/>
            <path d="M408.048,822.44C407.968,822.625 407.888,822.815 407.808,823.004C409.551,823.982 410.65,826.892 409.639,832.235C408.538,838.061 395.09,871.971 394.8,872.678L394.992,872.907C394.992,872.907 411.898,839.672 413.33,832.094C414.763,824.516 408.048,822.44 408.048,822.44Z" style="fill:rgb(244,154,103);fill-rule:nonzero;"/>
            <path d="M450.527,816.573C443.499,821.694 436.78,832.358 436.78,832.358C436.78,832.358 438.025,838.411 439.782,838.411C441.539,838.411 446.393,821.275 451.044,817.076L450.527,816.573Z" style="fill:rgb(247,188,133);fill-rule:nonzero;"/>
            <path d="M450.527,816.573C448.841,817.802 447.174,819.351 445.612,820.993C442.5,827.456 439.763,835.536 438.54,835.536C438.168,835.536 437.831,835.487 437.512,835.06C438.047,836.673 438.84,838.411 439.782,838.411C441.539,838.411 446.393,821.275 451.044,817.076L450.527,816.573Z" style="fill:rgb(244,154,103);fill-rule:nonzero;"/>
            <path d="M443.883,829.217L445.726,824.047C445.323,822.804 444.907,822.032 444.537,822.322C442.55,823.883 442.302,825.492 442.39,829.16C442.39,829.16 442.993,829.003 443.883,829.217Z" style="fill:rgb(244,154,103);fill-rule:nonzero;"/>
            <path d="M423.315,818.883C432.471,824.562 437.582,831.1 438.504,832.591C439.427,834.081 441.344,838.837 439.427,838.34C437.511,837.843 424.352,830.697 423.429,829.349C422.507,828 423.315,818.883 423.315,818.883Z" style="fill:rgb(247,188,133);fill-rule:nonzero;"/>
            <path d="M439.364,834.772C437.402,834.118 427.143,822.946 424.167,820.525C424.132,822.577 423.042,828.782 423.429,829.349C424.352,830.697 437.511,837.843 439.427,838.34C440.712,838.673 440.843,836.826 440.137,835.004L439.364,834.772Z" style="fill:rgb(244,154,103);fill-rule:nonzero;"/>
            <path d="M410.467,821.02C413.52,817.472 416.004,816.123 416.926,815.91C417.849,815.697 422.371,818.765 423.294,819.758C424.216,820.752 429.632,826.912 429.774,828.402C429.916,829.894 416.501,829.61 414.158,827.764C411.816,825.918 410.467,821.02 410.467,821.02Z" style="fill:rgb(247,188,133);fill-rule:nonzero;"/>
            <path d="M426.608,821.076L425.302,820.074L417.258,827.315L420.854,828.971C420.854,828.971 425.121,824.444 426.608,821.076Z" style="fill:rgb(244,154,103);fill-rule:nonzero;"/>
            <path d="M432.495,923.373C440.444,920.771 441.017,918.896 439.714,912.63C438.268,905.676 431.738,897.111 431.738,897.111C424.356,898.058 386.595,937.144 386.595,937.144L444.609,937.144C443.568,930.898 430.196,924.126 432.495,923.373Z" style="fill:rgb(224,167,82);fill-rule:nonzero;"/>
            <path d="M433.787,925.403C432.49,924.325 431.825,923.593 432.495,923.373C440.444,920.771 441.017,918.896 439.714,912.63C438.268,905.676 431.738,897.111 431.738,897.111C424.356,898.058 386.595,937.144 386.595,937.144L422.321,937.144C444.821,937.144 443.189,935.014 433.787,925.403Z" style="fill:rgb(177,75,39);fill-rule:nonzero;"/>
            <path d="M424.025,864.697C420.192,882.524 409.358,912.963 402.033,937.144L401.679,937.144L412.492,870.718L424.025,864.697Z" style="fill:rgb(247,188,133);fill-rule:nonzero;"/>
            <path d="M420.003,853.908C421.274,872.633 424.532,910.486 427.196,937.144L427.573,937.144C429.416,908.079 430.544,877.58 431.406,860.208L420.003,853.908Z" style="fill:rgb(247,188,133);fill-rule:nonzero;"/>
            <path d="M429.161,908.793C430.122,889.607 430.825,871.922 431.406,860.208L420.003,853.908C421.017,868.853 423.297,895.978 425.531,919.875C426.382,914.715 427.724,910.637 429.161,908.793Z" style="fill:rgb(244,154,103);fill-rule:nonzero;"/>
            <path d="M369.938,937.144L392.417,937.144C401.928,933.789 405.95,921.813 413.094,919.824C413.094,919.824 422.814,903.849 431.264,899.24C431.264,899.24 439.475,909.638 439.782,913.485C439.782,913.485 436.732,876.132 432.476,868.096C428.337,860.28 414.85,858.545 400.286,884.531C400.244,889.579 391.161,895.275 387.92,925.479C375.083,930.785 376.567,935.063 369.938,937.144Z" style="fill:rgb(248,220,164);fill-rule:nonzero;"/>
            <path d="M388.961,917.057C393.852,908.61 406.753,905.014 406.753,905.014L404.751,899.411C404.751,899.411 392.226,903.854 390.451,908.894C388.677,913.933 388.961,917.057 388.961,917.057Z" style="fill:rgb(233,174,57);fill-rule:nonzero;"/>
            <path d="M436.713,886.361C426.914,887.076 412.352,900.771 409.288,912.639C408.811,914.484 408.498,916.317 408.328,918.114C409.23,918.192 410.159,918.304 411.112,918.466C411.986,918.613 412.833,918.792 413.643,918.994C415.802,915.779 423.999,904.054 431.264,900.092C431.264,900.092 439.475,909.638 439.782,913.485C439.782,913.485 439.688,899.051 436.713,886.361Z" style="fill:rgb(247,237,180);fill-rule:nonzero;"/>
            <path d="M432.447,886.369C432.447,886.369 432.637,894.935 431.336,901.086L433.211,903.162C434.069,893.739 432.447,886.369 432.447,886.369Z" style="fill:rgb(248,220,164);fill-rule:nonzero;"/>
            <path d="M411.674,919.304C406.417,917.218 397.781,920.364 390.415,925.927C386.128,929.164 382.922,933.055 381.1,936.852L392.219,936.852C401.045,933.739 405.215,921.696 411.674,919.304Z" style="fill:rgb(247,237,180);fill-rule:nonzero;"/>
            <path d="M424.092,804.994C424.092,804.994 425.794,803.195 423.16,801.737C423,801.649 422.839,801.57 422.679,801.502L422.667,801.436C422.001,798.442 419.349,798.704 419.349,798.704C419.349,798.704 419.718,796.779 417.227,796.882C416.535,796.911 415.946,797.094 415.452,797.337C415.355,797.305 415.254,797.276 415.145,797.258C413.678,797.009 412.665,797.983 412.665,797.983C412.665,797.983 411.505,797.528 410.528,798.469C409.535,799.426 409.453,800.899 409.453,800.899C409.453,800.899 407.743,800.85 407.699,803.396C407.689,804.033 407.821,804.536 408.027,804.932C407.744,805.137 407.472,805.447 407.297,805.926C406.774,807.35 407.382,808.95 407.382,808.95C407.382,808.95 405.714,809.538 406.853,812.176C407.959,814.737 410.257,814.347 410.257,814.347C410.257,814.347 410.197,815.978 412.36,815.745C412.797,815.698 413.179,815.585 413.515,815.44C415.177,816.011 416.683,815.219 416.683,815.219C416.683,815.219 417.974,816.15 419.615,815.294C421.31,814.411 422.086,812.554 422.086,812.554C422.086,812.554 424.286,813.175 425.592,809.837C426.962,806.339 424.092,804.994 424.092,804.994Z" style="fill:rgb(141,27,57);fill-rule:nonzero;"/>
            <path d="M425.094,807.154C424.911,807.472 424.672,807.79 424.35,808.088C422.752,809.566 421.827,808.221 421.827,808.221C421.827,808.221 420.216,809.905 417.8,808.51C415.312,807.073 416.301,805.607 416.301,805.607C416.301,805.607 414.858,804.685 414.427,803.231C414.282,802.741 414.315,802.33 414.42,801.996C413.786,802.3 412.738,802.375 412.366,801.857C410.882,799.788 413.109,797.834 413.04,797.704C412.801,797.855 412.665,797.983 412.665,797.983C412.665,797.983 411.505,797.528 410.528,798.469C409.535,799.426 409.453,800.899 409.453,800.899C409.453,800.899 407.743,800.85 407.699,803.396C407.689,804.033 407.821,804.536 408.027,804.932C407.744,805.137 407.472,805.447 407.297,805.926C406.774,807.35 407.382,808.95 407.382,808.95C407.382,808.95 405.714,809.538 406.853,812.176C407.959,814.737 410.257,814.347 410.257,814.347C410.257,814.347 410.197,815.978 412.36,815.745C412.797,815.698 413.179,815.585 413.515,815.44C415.177,816.011 416.683,815.219 416.683,815.219C416.683,815.219 417.974,816.15 419.615,815.294C421.31,814.411 422.086,812.554 422.086,812.554C422.086,812.554 424.286,813.175 425.592,809.837C426.084,808.582 426.026,807.608 425.754,806.87C425.552,806.98 425.334,807.078 425.094,807.154Z" style="fill:rgb(113,16,49);fill-rule:nonzero;"/>
            <path d="M417.116,807.724L414.986,804.351C413.018,810.106 416.269,815.437 412.276,819.223L423.835,819.364C421.502,816.977 415.772,815.769 417.116,807.724Z" style="fill:rgb(225,124,82);fill-rule:nonzero;"/>
            <path d="M438.078,880.218C437.227,885.754 422.558,886.843 406.753,905.014C406.753,905.014 399.75,900.234 403.441,878.656C407.131,857.078 415.363,842.722 418.914,837.488C424.308,829.538 434.387,859.208 438.078,880.218Z" style="fill:rgb(247,237,180);fill-rule:nonzero;"/>
            <path d="M422.751,839.814C422.751,839.814 431.508,858.458 432.11,884.241L429.888,885.599C431.081,870.263 422.751,839.814 422.751,839.814Z" style="fill:rgb(244,220,165);fill-rule:nonzero;"/>
            <path d="M421.461,840.877C421.461,840.877 416.499,866.686 420.476,892.521L422.543,888.717C418.649,873.852 421.461,840.877 421.461,840.877Z" style="fill:rgb(244,220,165);fill-rule:nonzero;"/>
            <path d="M418.526,843.905C418.526,843.905 410.255,871.511 410.917,899.146L413.472,895.076C411.485,879.177 418.526,843.905 418.526,843.905Z" style="fill:rgb(244,220,165);fill-rule:nonzero;"/>
            <path d="M403.519,899.879C404.718,903.783 406.753,905.014 406.753,905.014C422.558,886.843 437.369,886.18 438.22,880.644C438.148,880.228 437.929,879.382 437.851,878.959C433.564,882.919 419.001,885.428 403.519,899.879Z" style="fill:rgb(241,198,83);fill-rule:nonzero;"/>
            <path d="M421.611,841.179C424.237,840.399 425.586,841.605 427.238,843.679C424.38,836.566 420.935,833.558 418.701,836.85C415.15,842.083 407.131,857.078 403.441,878.656C403.035,881.027 402.765,883.186 402.594,885.167C407.035,866.814 416.326,842.75 421.611,841.179Z" style="fill:rgb(244,220,165);fill-rule:nonzero;"/>
            <path d="M412.715,832.235C416.737,838.104 416.204,840.956 416.204,840.956C419.178,838.277 422.264,836.878 424.665,838.607L426.817,829.491L412.715,832.235Z" style="fill:rgb(235,197,129);fill-rule:nonzero;"/>
            <path d="M407.415,822.961C411.485,830.248 412.715,834.886 414.135,836.211C415.554,837.535 430.886,831.384 430.886,831.384C430.886,831.384 430.768,827.812 430.2,827.054C429.632,826.297 424.072,826.463 419.529,824.002C416.288,822.246 413.188,818.228 411.579,818.797C409.971,819.364 407.415,822.961 407.415,822.961Z" style="fill:rgb(247,237,180);fill-rule:nonzero;"/>
            <path d="M423.703,825.618L421.469,824.83L412.058,830.483L415.565,832.655C415.565,832.655 421.376,828.403 423.703,825.618Z" style="fill:rgb(244,220,165);fill-rule:nonzero;"/>
            <path d="M417.068,832.945C415.563,831.708 414.247,828.062 409.309,820.628C408.275,821.754 407.415,822.961 407.415,822.961C410.728,830.012 412.573,835.358 413.993,836.684C415.412,838.009 430.886,831.384 430.886,831.384C430.886,831.384 430.877,831.125 430.854,830.736C426.342,832.16 418.157,833.84 417.068,832.945Z" style="fill:rgb(244,220,165);fill-rule:nonzero;"/>
            <path d="M441.459,815.413C441.672,816.203 448.2,817.472 449.956,817.472C451.711,817.472 458.239,816.203 458.453,815.413L441.459,815.413Z" style="fill:rgb(245,220,98);fill-rule:nonzero;"/>
            <path d="M442.639,816.071L457.273,816.071C457.947,815.841 458.4,815.612 458.453,815.413L441.459,815.413C441.512,815.612 441.964,815.841 442.639,816.071Z" style="fill:rgb(248,234,167);fill-rule:nonzero;"/>
            <path d="M443.384,827.361C443.33,822.204 444.143,820.453 445.659,820.335C447.176,820.217 448.422,829.775 448.53,831.148C448.639,832.52 447.284,828.497 445.876,827.787C444.467,827.078 443.384,827.361 443.384,827.361Z" style="fill:rgb(245,220,98);fill-rule:nonzero;"/>
            <path d="M430.65,937.144L427.1,937.144C427.1,937.144 427.199,936.15 427.647,935.984C428.094,935.818 430.65,937.144 430.65,937.144Z" style="fill:rgb(247,188,133);fill-rule:nonzero;"/>
            <path d="M398.697,937.144L402.482,937.144C402.482,937.144 402.498,936.031 402.021,935.866C401.544,935.7 398.697,937.144 398.697,937.144Z" style="fill:rgb(247,188,133);fill-rule:nonzero;"/>
            <path d="M404.984,830.837C417.762,834.345 425.99,821.408 426.442,820.302C426.889,819.204 422.691,815.69 421.037,816.014C419.358,816.341 414.632,818.981 410.8,818.283C406.864,817.567 404.984,830.837 404.984,830.837Z" style="fill:rgb(245,220,98);fill-rule:nonzero;"/>
            <path d="M407.841,829.349C406.989,818.087 416.359,824.534 420.286,816.228C418.351,816.815 412.773,818.344 410.716,817.969C406.78,817.252 404.576,831.064 404.576,831.064C410.345,832.649 415.365,831.136 419.223,828.122C415.467,830.202 407.969,831.042 407.841,829.349Z" style="fill:rgb(241,198,83);fill-rule:nonzero;"/>
            <path d="M432.116,896.899C423.299,901.507 411.579,917.506 411.579,917.506C404.972,919.268 399.069,931.436 389.311,937.144L392.417,937.144C401.928,933.789 405.95,921.813 413.094,919.824C413.094,919.824 422.885,905.694 431.336,901.086C431.336,901.086 439.475,909.638 439.782,913.485C439.782,913.485 439.556,910.721 439.142,906.538C436.485,901.707 432.116,896.899 432.116,896.899Z" style="fill:rgb(241,198,83);fill-rule:nonzero;"/>
            <path d="M408.538,827.55C408.292,827.55 408.044,827.544 407.794,827.532C407.82,826.731 407.915,826.047 408.07,825.46C415.429,825.344 420.789,820.036 423.317,816.77C423.818,817.075 424.319,817.444 424.773,817.835C422.663,820.882 416.86,827.55 408.538,827.55Z" style="fill:rgb(247,237,127);fill-rule:nonzero;"/>
            <path d="M407.794,827.532C407.096,827.499 406.38,827.418 405.648,827.284C405.782,826.678 405.938,826.029 406.114,825.368C406.696,825.432 407.267,825.462 407.826,825.462C407.908,825.462 407.989,825.461 408.07,825.46C407.915,826.047 407.82,826.731 407.794,827.532Z" style="fill:rgb(247,225,111);fill-rule:nonzero;"/>
            <path d="M446.478,822.866C446.694,822.866 446.905,822.91 447.11,822.985C446.684,821.431 446.188,820.293 445.659,820.335C444.199,820.448 443.395,822.084 443.384,826.802C443.909,824.485 445.096,822.866 446.478,822.866Z" style="fill:rgb(241,198,83);fill-rule:nonzero;"/>
            <path d="M430.763,829.574L422.002,830.107L430.635,828.549L430.763,829.574Z" style="fill:rgb(244,220,165);fill-rule:nonzero;"/>
            <path d="M433.454,898.453C432.652,897.49 432.116,896.899 432.116,896.899L431.975,896.977C431.817,898.385 431.61,899.789 431.336,901.086L431.336,901.087C431.341,901.092 432.123,901.913 433.209,903.159L433.211,903.162C433.361,901.521 433.434,899.942 433.454,898.453Z" style="fill:rgb(233,174,57);fill-rule:nonzero;"/>
            <path d="M415.271,898.673C415.271,898.673 409.827,910.253 411.176,920.622C411.75,919.77 412.381,919.436 413.094,919.824C412.289,913.294 415.271,898.673 415.271,898.673Z" style="fill:rgb(248,220,164);fill-rule:nonzero;"/>
            <path d="M412.989,915.65C412.097,916.8 411.579,917.506 411.579,917.506C411.375,917.561 411.17,917.625 410.966,917.699C410.984,918.678 411.05,919.655 411.176,920.622L411.184,920.619C411.798,920.279 412.432,920.009 413.094,919.824C412.949,918.651 412.928,917.215 412.989,915.65Z" style="fill:rgb(233,174,57);fill-rule:nonzero;"/>
            <path d="M414.245,800.985C412.244,802.794 410.351,801.821 410.705,799.902C410.705,799.902 408.536,802.817 411.266,804.022C413.076,804.819 414.635,803.69 414.635,803.69L414.245,800.985Z" style="fill:rgb(141,27,57);fill-rule:nonzero;"/>
            <path d="M425.249,807.818C425.107,806.275 423.758,806.098 423.758,806.098C424.397,806.594 425.125,807.623 424.167,809.593L425.249,807.818Z" style="fill:rgb(113,16,49);fill-rule:nonzero;"/>
            <path d="M389.859,796.415L388.251,796.415L388.818,806.115L390.427,806.115L389.859,796.415Z" style="fill:rgb(245,220,98);fill-rule:nonzero;"/>
            <path d="M387.539,794.522C387.539,795.359 388.217,796.038 389.055,796.038C389.893,796.038 390.572,795.359 390.572,794.522C390.572,793.685 389.893,793.005 389.055,793.005C388.217,793.005 387.539,793.685 387.539,794.522Z" style="fill:rgb(245,220,98);fill-rule:nonzero;"/>
            <path d="M390.806,805.026L388.499,805.026L388.547,806.541L390.854,806.541L390.806,805.026Z" style="fill:rgb(245,220,98);fill-rule:nonzero;"/>
            <path d="M390.191,796.249L387.884,796.249L387.931,797.764L390.238,797.764L390.191,796.249Z" style="fill:rgb(245,220,98);fill-rule:nonzero;"/>
            <path d="M418.621,812.658C415.748,811.852 414.08,809.238 413.789,807.645C413.49,806.009 414.059,801.467 417.195,801.089C420.34,800.708 420.536,804.33 420.745,806.552C421.054,809.825 418.621,812.658 418.621,812.658Z" style="fill:rgb(247,188,133);fill-rule:nonzero;"/>
            <path d="M413.432,807.645C412.918,806.85 411.934,807.085 412.005,808.316C412.076,809.546 413.496,810.113 413.709,809.759C414.03,809.223 413.693,808.046 413.432,807.645Z" style="fill:rgb(247,188,133);fill-rule:nonzero;"/>
            <path d="M413.339,808.196C413.044,807.741 412.48,807.876 412.52,808.581C412.561,809.287 413.375,809.612 413.497,809.409C413.681,809.102 413.487,808.427 413.339,808.196Z" style="fill:rgb(225,124,82);fill-rule:nonzero;"/>
            <path d="M413.431,808.764C413.239,808.468 412.873,808.556 412.9,809.014C412.926,809.472 413.454,809.683 413.533,809.551C413.653,809.352 413.527,808.913 413.431,808.764Z" style="fill:rgb(247,188,133);fill-rule:nonzero;"/>
            <path d="M419.719,805.852C419.634,805.307 419.327,804.887 419.031,804.914C418.737,804.942 418.566,805.408 418.651,805.955C418.734,806.502 419.042,806.922 419.337,806.893C419.631,806.864 419.803,806.4 419.719,805.852Z" style="fill:rgb(117,69,59);fill-rule:nonzero;"/>
            <path d="M416.823,806.118C416.743,805.487 416.42,804.984 416.097,804.991C415.776,805 415.581,805.518 415.661,806.15C415.741,806.779 416.066,807.285 416.387,807.276C416.709,807.268 416.903,806.749 416.823,806.118Z" style="fill:rgb(117,69,59);fill-rule:nonzero;"/>
            <path d="M415.123,806.008C415.123,806.008 415.998,805.089 416.907,805.197C416.907,805.197 416.617,804.709 415.98,804.893C415.345,805.076 415.123,806.008 415.123,806.008Z" style="fill:rgb(117,69,59);fill-rule:nonzero;"/>
            <path d="M420.029,805.353C420.029,805.353 419.031,804.783 418.282,805.097C418.282,805.097 418.399,804.608 418.992,804.608C419.585,804.608 420.029,805.353 420.029,805.353Z" style="fill:rgb(117,69,59);fill-rule:nonzero;"/>
            <path d="M414.735,804.865L414.684,804.733C414.893,803.881 415.634,803.279 416.102,803.136L416.217,803.606C415.817,803.625 415.008,804.144 414.735,804.865Z" style="fill:rgb(141,27,57);fill-rule:nonzero;"/>
            <path d="M419.964,804.147C419.331,803.393 418.334,803.312 418.102,803.364L418.058,802.892C418.32,802.846 419.266,803.025 420.006,803.976L419.964,804.147Z" style="fill:rgb(141,27,57);fill-rule:nonzero;"/>
            <path d="M418.7,807.755L418.702,807.808C418.661,808.164 418.356,808.371 418.023,808.274C417.827,808.215 417.672,808.059 417.578,807.868C417.565,808.209 417.787,808.546 418.104,808.64C418.439,808.739 418.743,808.53 418.785,808.176C418.801,808.029 418.763,807.887 418.7,807.755Z" style="fill:rgb(225,124,82);fill-rule:nonzero;"/>
            <path d="M417.135,809.777L419.171,809.649C419.171,809.649 419.088,810.828 418.254,810.856C417.456,810.881 417.135,809.777 417.135,809.777Z" style="fill:rgb(85,24,52);fill-rule:nonzero;"/>
            <path d="M417.28,809.816L419.008,809.707C419.008,809.707 419.194,810.214 418.214,810.296C417.182,810.382 417.28,809.816 417.28,809.816Z" style="fill:rgb(252,234,233);fill-rule:nonzero;"/>
            <path d="M418.746,811.201C418.733,811.057 418.568,811.212 418.35,811.225C418.132,811.236 417.943,811.103 417.955,811.247C417.968,811.392 418.155,811.499 418.373,811.486C418.592,811.474 418.758,811.346 418.746,811.201Z" style="fill:rgb(229,146,111);fill-rule:nonzero;"/>
            <path d="M418.252,800.165C419.387,800.543 419.766,802.129 418.593,802.852C417.336,803.627 416.548,802.105 416.548,802.105C416.548,802.105 418.01,803.111 418.086,801.892C418.151,800.845 416.643,801.111 416.643,801.111L418.252,800.165Z" style="fill:rgb(141,27,57);fill-rule:nonzero;"/>
            <path d="M396.07,870.642C395.453,871.88 394.934,874.537 394.283,875.197C393.767,875.72 393.109,873.729 392.964,873.265C392.819,872.806 395.265,870.458 395.265,870.458L396.07,870.642Z" style="fill:rgb(244,154,103);fill-rule:nonzero;"/>
            <path d="M389.671,800.674L388.818,800.674L397.336,937.144L398.661,937.144L389.671,800.674Z" style="fill:rgb(245,220,98);fill-rule:nonzero;"/>
            <path d="M394.176,873.731C393.479,872.364 393.419,871.98 393.609,871.602C393.797,871.223 395.406,870.016 395.406,870.016C395.406,870.016 395.927,871.364 395.288,871.933C394.65,872.5 394.271,872.027 394.271,872.027C394.271,872.027 394.744,874.843 394.176,873.731Z" style="fill:rgb(247,188,133);fill-rule:nonzero;"/>
            <path d="M392.574,873.399C393.095,872.776 393.507,872.454 393.551,872.907C393.595,873.359 393.012,874.233 392.722,874.081C392.432,873.93 392.35,873.666 392.574,873.399Z" style="fill:rgb(247,188,133);fill-rule:nonzero;"/>
            <path d="M392.891,874.198C393.562,873.742 394.047,873.545 393.965,873.992C393.883,874.44 393.084,875.119 392.846,874.895C392.609,874.67 392.602,874.395 392.891,874.198Z" style="fill:rgb(247,188,133);fill-rule:nonzero;"/>
            <path d="M393.122,875.074C393.758,874.571 394.227,874.339 394.178,874.791C394.13,875.243 393.382,875.98 393.129,875.773C392.875,875.566 392.849,875.291 393.122,875.074Z" style="fill:rgb(247,188,133);fill-rule:nonzero;"/>
            <path d="M449.774,817.995C450.488,817.206 451.729,816.675 451.926,816.773C452.122,816.869 451.043,817.58 451.043,817.58L449.774,817.995Z" style="fill:rgb(244,154,103);fill-rule:nonzero;"/>
        </g>
        <g id="Helios">
        </g>
        <g id="Mutter">
        </g>
        <g id="Theresias">
        </g>
        <g id="Odysseus">
        </g>
    </g>
</svg>
