<?xml version="1.0" encoding="UTF-8" standalone="no"?>
<!DOCTYPE svg PUBLIC "-//W3C//DTD SVG 1.1//EN" "http://www.w3.org/Graphics/SVG/1.1/DTD/svg11.dtd">
<svg width="100%" height="100%" viewBox="0 0 224 609" version="1.1" xmlns="http://www.w3.org/2000/svg" xmlns:xlink="http://www.w3.org/1999/xlink" xml:space="preserve" xmlns:serif="http://www.serif.com/" style="fill-rule:evenodd;clip-rule:evenodd;stroke-linejoin:round;stroke-miterlimit:2;">
    <g transform="matrix(1,0,0,1,-2693,-331)">
        <g id="Zyklop">
        </g>
        <g id="Schaf">
        </g>
        <g id="Hermes-evil" serif:id="Hermes evil">
        </g>
        <g id="Hermes-nett" serif:id="Hermes nett">
        </g>
        <g id="Kirke-evil" serif:id="Kirke evil">
        </g>
        <g id="Kirke-nett" serif:id="Kirke nett">
        </g>
        <g id="Helios">
        </g>
        <g id="Mutter" transform="matrix(4.16667,0,0,4.16667,537.239,-2965.33)">
            <path d="M550.817,833.33C551.543,827.543 555.713,811.918 552.635,800.777C549.558,789.637 543.695,794.556 543.695,794.556C541.579,790.216 534.776,790.216 530.871,793.688C518.214,804.94 527.682,817.994 527.682,817.994C527.682,817.994 524.421,826.32 527.492,827.768C530.564,829.214 531.258,835.233 527.887,840.975C521.891,851.186 520.927,858.939 522.086,865.884C523.245,872.828 531.283,877.747 541.24,868.633L549.315,867.909C561.004,863.859 550.09,839.117 550.817,833.33Z" style="fill:rgb(82,121,144);fill-rule:nonzero;"/>
            <path d="M550.817,833.33C551.511,827.802 555.342,813.297 553,802.298C553.357,805.509 551.022,804.193 548.1,802.877C546.092,801.972 543.807,801.068 541.928,801.632C538.51,802.657 532.935,802.522 531.263,801.461C528.86,799.936 529.885,795.648 530.95,793.624L530.871,793.688C518.214,804.94 527.682,817.994 527.682,817.994C527.682,817.994 524.421,826.32 527.492,827.768C530.564,829.214 531.258,835.233 527.887,840.975C521.89,851.186 520.927,858.939 522.086,865.884C523.245,872.828 531.283,877.747 541.24,868.633L549.315,867.909C561.004,863.859 550.09,839.117 550.817,833.33Z" style="fill:rgb(76,109,128);fill-rule:nonzero;"/>
            <path d="M541.24,868.633L549.316,867.909C561.004,863.858 550.09,839.117 550.817,833.33C550.945,832.306 551.182,830.972 551.467,829.409C551.284,829.331 551.104,829.249 550.916,829.181C543.729,826.554 534.95,831.287 528.206,840.384C528.101,840.581 528.002,840.778 527.887,840.975C521.89,851.186 520.927,858.939 522.086,865.884C523.245,872.828 531.283,877.747 541.24,868.633Z" style="fill:rgb(78,113,134);fill-rule:nonzero;"/>
            <path d="M538.969,889.595C528.675,882.507 523.864,868.101 523.412,862.24L535.697,865.273C533.8,867.21 534.687,884.722 538.969,889.595Z" style="fill:rgb(78,113,134);fill-rule:nonzero;"/>
            <g id="Mutter-Arm-Links" serif:id="Mutter Arm Links" transform="matrix(0.972004,-0.234965,0.234965,0.972004,-182.729,150.073)">
                <g transform="matrix(-0.00126167,0.999999,-0.999999,-0.00126167,1378.93,309.995)">
                    <path d="M535.114,844.668C538.91,843.151 547.423,832.855 552.151,831.106L552.056,830.066C552.056,830.066 537.164,835.549 533.997,840.04C531.652,843.363 535.114,844.668 535.114,844.668Z" style="fill:rgb(247,188,133);fill-rule:nonzero;"/>
                </g>
                <g transform="matrix(-0.00126167,0.999999,-0.999999,-0.00126167,1378.93,309.995)">
                    <path d="M545.508,834.795C540.537,838.668 535.689,840.682 534.555,839.369C534.345,839.595 534.152,839.819 533.997,840.04C531.652,843.363 534.746,845.839 534.746,845.839C538.542,844.322 547.423,832.855 552.151,831.106L552.094,830.485C550.234,831.608 547.811,833.001 545.508,834.795Z" style="fill:rgb(244,154,103);fill-rule:nonzero;"/>
                </g>
                <g transform="matrix(-0.00126167,0.999999,-0.999999,-0.00126167,1378.93,309.995)">
                    <path d="M548.423,832.411C549.731,831.977 551.724,832.434 552.377,831.934C552.887,831.544 552.598,829.545 552.163,829.36C551.728,829.176 548.26,831.664 548.26,831.664L548.423,832.411Z" style="fill:rgb(247,188,133);fill-rule:nonzero;"/>
                </g>
                <g transform="matrix(-0.00126167,0.999999,-0.999999,-0.00126167,1378.93,309.995)">
                    <path d="M549.406,830.963C550.094,830 550.698,828.133 550.871,827.829C551.041,827.53 551.37,827.825 551.189,828.78C551.001,829.76 550.685,829.967 551.044,830.312C551.429,830.68 549.058,831.452 549.406,830.963Z" style="fill:rgb(247,188,133);fill-rule:nonzero;"/>
                </g>
                <g transform="matrix(-0.00126167,0.999999,-0.999999,-0.00126167,1378.93,309.995)">
                    <path d="M551.615,830.443C552.275,829.935 553.847,828.749 553.686,828.483C553.525,828.219 551.12,829.839 551.12,829.839L551.615,830.443Z" style="fill:rgb(247,188,133);fill-rule:nonzero;"/>
                </g>
                <g transform="matrix(-0.00126167,0.999999,-0.999999,-0.00126167,1378.93,309.995)">
                    <path d="M552.048,831.119C552.776,830.843 554.509,830.208 554.386,829.931C554.263,829.653 551.641,830.453 551.641,830.453L552.048,831.119Z" style="fill:rgb(247,188,133);fill-rule:nonzero;"/>
                </g>
                <g transform="matrix(-0.00126167,0.999999,-0.999999,-0.00126167,1378.93,309.995)">
                    <path d="M552.077,832.08C553.107,831.965 554.64,831.576 554.514,831.291C554.388,831.007 551.624,831.373 551.624,831.373L552.077,832.08Z" style="fill:rgb(247,188,133);fill-rule:nonzero;"/>
                </g>
            </g>
            <path d="M548.416,818.601C543.239,814.914 541.324,811.581 541.183,808.531C541.041,805.483 538.207,804.514 538.207,804.514C537.781,810.045 541.251,815.35 538.379,818.895L548.416,818.601Z" style="fill:rgb(247,188,133);fill-rule:nonzero;"/>
            <path d="M542.955,830.302C553.903,841.043 564.651,855.745 565.967,862.116C566.015,862.348 566.051,862.569 566.073,862.779C566.711,868.736 551.607,860.936 551.607,860.936C551.607,860.936 548.983,843.278 539.765,837.038C536.786,831.011 542.955,830.302 542.955,830.302Z" style="fill:rgb(179,179,179);fill-rule:nonzero;"/>
            <path d="M544.047,831.177C554.421,841.357 563.462,856.083 564.045,861.529C564.629,866.976 550.819,859.844 550.819,859.844C550.819,859.844 548.649,843.668 540.221,837.962C537.498,832.451 544.047,831.177 544.047,831.177Z" style="fill:rgb(179,179,179);fill-rule:nonzero;"/>
            <path d="M535.974,920.668C538.582,924.757 542.014,926.279 545.323,926.752C548.633,927.225 551.978,933.406 548.699,934.874L570.026,937.144C570.026,937.144 562.659,920.599 549.608,916.36C534.24,911.37 536.881,903.578 539.055,902.538L535.462,897.526L535.974,920.668Z" style="fill:rgb(140,140,140);fill-rule:nonzero;"/>
            <path d="M545.343,820.09C550.726,831.049 553.885,839.798 555.649,841.128C557.772,842.729 558.685,840.57 558.249,838.858C557.634,836.447 551.914,823.305 550.496,820.705C548.195,816.487 545.343,820.09 545.343,820.09Z" style="fill:rgb(247,188,133);fill-rule:nonzero;"/>
            <path d="M554.302,838.275C554.302,835.877 554.846,833.731 555.702,832.272C553.779,827.695 551.353,822.276 550.496,820.705C548.195,816.487 545.343,820.09 545.343,820.09C549.595,828.746 552.458,836.02 554.343,839.351C554.32,838.998 554.302,838.642 554.302,838.275Z" style="fill:rgb(244,154,103);fill-rule:nonzero;"/>
            <path d="M553.664,833.319C550.986,835.678 551.909,837.797 551.909,837.797C551.909,837.797 547.056,835.541 547.842,832.773C548.628,830.004 553.664,833.319 553.664,833.319Z" style="fill:rgb(238,209,153);fill-rule:nonzero;"/>
            <path d="M547.849,827.465L541.846,832.372C545.615,840.829 542.045,847.605 537.495,857.532C529.556,874.858 539.503,897.834 549.515,936.694L550.039,936.694C550.039,936.694 564.066,875.62 563.133,867.039C561.7,853.855 552.528,851.859 547.849,827.465Z" style="fill:rgb(247,188,133);fill-rule:nonzero;"/>
            <path d="M539.759,856.808C543.811,846.88 545.832,840.829 542.475,832.372L547.598,827.67L541.846,832.372C545.615,840.829 542.045,847.605 537.495,857.532C530.064,873.749 538.303,894.919 547.598,929.428C539.319,894.919 533.14,873.025 539.759,856.808Z" style="fill:rgb(244,154,103);fill-rule:nonzero;"/>
            <path d="M563.133,867.039C561.7,853.855 552.528,851.859 547.849,827.465L547.824,827.484C551.994,851.859 561.007,854.036 562.283,867.218C563.114,875.799 549.772,936.694 549.772,936.694L550.039,936.694C550.039,936.694 553.813,920.264 557.315,903.25C560.565,887.461 563.582,871.169 563.133,867.039Z" style="fill:rgb(244,154,103);fill-rule:nonzero;"/>
            <path d="M557.72,860.483C559.153,860.483 560.55,860.816 561.898,861.435C560.735,858.054 558.973,855.276 557.016,851.976C552.046,856.358 540.066,859.959 536.311,860.568C533.243,869.852 534.662,880.799 538.116,894.8C540.058,875.189 548.095,860.483 557.72,860.483Z" style="fill:rgb(244,154,103);fill-rule:nonzero;"/>
            <path d="M542.391,845.841C544.933,842.574 547.711,840.762 550.606,840.762C550.912,840.762 551.216,840.786 551.519,840.826C550.162,837.239 548.894,832.911 547.849,827.465L541.846,832.372C543.956,837.107 543.765,841.313 542.391,845.841Z" style="fill:rgb(244,154,103);fill-rule:nonzero;"/>
            <path d="M549.881,880.081L549.517,935.32L549.881,935.411L551.248,878.441L549.881,880.081Z" style="fill:rgb(244,154,103);fill-rule:nonzero;"/>
            <path d="M563.133,867.039C562.27,859.089 556.862,855.932 556.262,857.657C551.513,871.304 540.422,874.967 535.236,871.34C535.027,871.193 534.828,871.025 534.635,870.845C534.359,882.076 538.165,895.712 543.157,913.427C543.407,912.395 543.675,911.351 543.963,910.298C548.512,893.657 556.22,880.652 561.765,879.852C562.774,873.736 563.347,869.007 563.133,867.039Z" style="fill:rgb(244,154,103);fill-rule:nonzero;"/>
            <path d="M518.159,937.144L570.938,937.144L565.539,931.84C565.539,931.84 551.977,937.427 539.466,931.471C526.956,925.514 526.859,922.961 526.859,922.961C526.859,922.961 519.724,928.823 518.159,937.144Z" style="fill:rgb(179,179,179);fill-rule:nonzero;"/>
            <path d="M561.952,937.144L570.938,937.144C569.315,934.16 567.467,931.32 565.071,928.831C565.071,928.831 564.374,932.677 560.192,933.376C560.94,934.643 561.529,935.908 561.952,937.144Z" style="fill:rgb(153,153,153);fill-rule:nonzero;"/>
            <path d="M526.843,922.974C526.517,923.246 519.685,929.023 518.159,937.144L530.884,937.144C526.939,932.16 525.312,926.811 526.843,922.974Z" style="fill:rgb(140,140,140);fill-rule:nonzero;"/>
            <path d="M564.94,872.921C541.382,896.309 537.921,908.447 538.772,923.623C538.772,923.623 532.106,920.219 534.234,906.462C534.234,906.462 532.117,905.543 533.949,894.549C534.8,889.442 527.283,889.442 528.985,881.784C530.688,874.126 529.638,833.156 554.75,832.394C559.429,832.252 566.86,871.013 564.94,872.921Z" style="fill:rgb(179,179,179);fill-rule:nonzero;"/>
            <path d="M538.783,916.219C538.606,916.167 538.431,916.106 538.265,916.023C534.284,914.022 534.076,899.422 539.535,888.559C540.701,886.238 542.255,883.978 544.015,881.874C538.593,885.04 533.85,885.876 531.945,883.556C529.734,880.861 531.761,871.988 536.763,864.646C531.688,870.669 529.872,877.796 528.985,881.784C527.283,889.442 534.8,889.442 533.949,894.549C532.117,905.543 534.234,906.462 534.234,906.462C532.106,920.219 538.772,923.623 538.772,923.623C538.63,921.092 538.612,918.647 538.783,916.219Z" style="fill:rgb(153,153,153);fill-rule:nonzero;"/>
            <path d="M560.897,854.128C560.191,854.15 559.505,854.191 558.831,854.24C560.031,854.691 560.99,855.331 561.618,856.097C563.912,858.892 561.372,865.393 555.859,871.825C558.904,870.125 561.522,869.4 562.916,870.1C563.842,870.566 564.218,871.85 564.19,873.673C564.442,873.421 564.683,873.175 564.94,872.921C565.957,871.911 566.075,866.661 565.266,861.966C564.548,857.794 563.098,854.061 560.897,854.128Z" style="fill:rgb(153,153,153);fill-rule:nonzero;"/>
            <path d="M539.126,828.6C538.063,821.509 537.486,820.546 537.77,819.624C538.054,818.702 541.537,814.63 541.963,814.488C542.388,814.347 548.912,818.53 549.337,819.239C549.763,819.948 553.237,828.174 553.38,828.813C553.522,829.45 539.126,828.6 539.126,828.6Z" style="fill:rgb(247,188,133);fill-rule:nonzero;"/>
            <path d="M547.283,824.347C547.283,824.347 547.52,826.476 548.276,828.7L549.271,828.842L547.283,824.347Z" style="fill:rgb(244,154,103);fill-rule:nonzero;"/>
            <path d="M539.126,828.6C539.126,828.6 539.904,828.66 542.414,828.775C542.223,827.856 539.126,819.879 537.698,820.161C537.709,821.091 538.254,822.783 539.126,828.6Z" style="fill:rgb(244,154,103);fill-rule:nonzero;"/>
            <path d="M537.141,828.174C536.857,831.65 536.715,834.485 539.765,837.038C539.765,837.038 546.898,832.758 556.164,833.676C556.164,833.676 557.119,830.324 556.221,827.63C555.276,825.668 538.695,826.332 537.141,828.174Z" style="fill:rgb(179,179,179);fill-rule:nonzero;"/>
            <path d="M549.107,831.884C545.824,831.884 543.158,827.952 542.743,826.773C539.193,826.79 537.361,827.912 537.141,828.174C534.978,833.183 539.338,837.486 542.388,840.039C542.388,840.039 546.691,834.823 553.664,833.319C553.664,833.319 554.292,832.655 554.849,831.671C553.18,832.107 551.253,831.884 549.107,831.884Z" style="fill:rgb(153,153,153);fill-rule:nonzero;"/>
            <path d="M540.048,830.551L542.338,832.841C546.405,828.465 554.097,829.217 554.097,829.217C554.097,829.217 550.064,827.44 540.048,830.551Z" style="fill:rgb(153,153,153);fill-rule:nonzero;"/>
            <path d="M537.921,819.381C533.169,826.897 531.042,842.782 532.815,844.839C534.588,846.895 535.652,845.548 536.148,843.846C536.644,842.145 537.672,830.443 539.87,826.118C542.068,821.792 537.921,819.381 537.921,819.381Z" style="fill:rgb(247,188,133);fill-rule:nonzero;"/>
            <path d="M539.698,825.234C537.617,830.374 534.835,834.361 532.693,835.574C532.012,840.125 532.011,843.906 532.815,844.839C534.588,846.896 535.651,845.548 536.148,843.846C536.644,842.145 537.672,830.443 539.87,826.118C540.443,824.993 540.582,823.998 540.481,823.141C540.244,823.829 539.984,824.528 539.698,825.234Z" style="fill:rgb(244,154,103);fill-rule:nonzero;"/>
            <path d="M525.504,879.808C519.266,867.869 520.796,856.361 523.177,851.641L530.921,863.063C527.892,863.917 525.011,871.745 525.504,879.808Z" style="fill:rgb(78,113,134);fill-rule:nonzero;"/>
            <path d="M517.603,866.867C518,853.683 527.016,841.567 531.448,838.009L525.98,856.343C523.472,855.654 519.3,860.35 517.603,866.867Z" style="fill:rgb(78,113,134);fill-rule:nonzero;"/>
            <path d="M537.772,819.617C537.772,819.616 537.773,819.615 537.773,819.614C537.773,819.615 537.772,819.616 537.772,819.617ZM537.774,819.611C537.891,819.255 538.453,818.462 539.13,817.605C540.462,814.226 537.981,809.68 538.182,804.936C537.981,809.675 540.461,814.218 539.138,817.595C538.456,818.457 537.891,819.254 537.774,819.611ZM546.935,817.391C546.735,817.256 546.529,817.119 546.321,816.982C542.724,813.943 541.315,811.151 541.184,808.562C541.315,811.155 542.737,813.954 546.35,817C546.549,817.132 546.745,817.262 546.935,817.391ZM541.184,808.561C541.184,808.551 541.183,808.541 541.183,808.531C541.183,808.541 541.184,808.551 541.184,808.561ZM538.182,804.931C538.182,804.923 538.183,804.914 538.183,804.905C538.183,804.914 538.182,804.923 538.182,804.931ZM538.184,804.899C538.184,804.891 538.184,804.882 538.185,804.874C538.184,804.883 538.184,804.89 538.184,804.899ZM538.185,804.866C538.185,804.859 538.186,804.851 538.186,804.844C538.186,804.851 538.185,804.859 538.185,804.866ZM538.187,804.835C538.187,804.827 538.188,804.818 538.188,804.811C538.187,804.819 538.187,804.827 538.187,804.835ZM538.188,804.804C538.189,804.783 538.19,804.762 538.192,804.742C538.19,804.763 538.189,804.783 538.188,804.804ZM538.192,804.732C538.193,804.725 538.193,804.718 538.193,804.711C538.193,804.718 538.193,804.725 538.192,804.732ZM538.194,804.699C538.195,804.693 538.195,804.687 538.195,804.681C538.195,804.687 538.195,804.693 538.194,804.699ZM538.196,804.667C538.197,804.661 538.197,804.655 538.197,804.65C538.197,804.655 538.197,804.661 538.196,804.667ZM538.198,804.636C538.199,804.631 538.199,804.625 538.199,804.62C538.199,804.625 538.199,804.631 538.198,804.636ZM538.2,804.605C538.201,804.599 538.201,804.594 538.202,804.589C538.201,804.594 538.201,804.6 538.2,804.605ZM538.203,804.575C538.203,804.569 538.203,804.563 538.204,804.557C538.203,804.563 538.203,804.569 538.203,804.575ZM538.205,804.544C538.206,804.534 538.206,804.524 538.207,804.514C538.206,804.524 538.206,804.534 538.205,804.544Z" style="fill:rgb(139,27,46);fill-rule:nonzero;"/>
            <path d="M539.135,817.601C540.458,814.224 537.981,809.675 538.182,804.936L538.182,804.931C538.182,804.923 538.183,804.914 538.183,804.905C538.183,804.903 538.183,804.901 538.184,804.899C538.184,804.89 538.184,804.883 538.185,804.874L538.185,804.866C538.185,804.859 538.186,804.851 538.186,804.844C538.186,804.841 538.187,804.838 538.187,804.835C538.187,804.827 538.187,804.819 538.188,804.811L538.188,804.804C538.189,804.783 538.19,804.763 538.192,804.742L538.192,804.732C538.193,804.725 538.193,804.718 538.193,804.711C538.194,804.707 538.194,804.703 538.194,804.699C538.195,804.693 538.195,804.687 538.195,804.681C538.196,804.676 538.196,804.672 538.196,804.667C538.197,804.661 538.197,804.655 538.197,804.65C538.198,804.645 538.198,804.641 538.198,804.636C538.199,804.631 538.199,804.625 538.199,804.62C538.2,804.615 538.2,804.61 538.2,804.605C538.201,804.6 538.201,804.594 538.202,804.589C538.202,804.584 538.202,804.579 538.203,804.575C538.203,804.569 538.203,804.563 538.204,804.557C538.204,804.553 538.204,804.548 538.205,804.544C538.206,804.534 538.206,804.524 538.207,804.514C538.207,804.514 541.041,805.483 541.183,808.531C541.183,808.541 541.184,808.551 541.184,808.561L541.184,808.562C541.315,811.151 542.755,813.969 546.352,817.008C544.475,815.771 541.914,814.245 542.028,814.567C542.061,814.661 542.035,814.565 542.028,814.567C541.764,814.655 540.257,816.18 539.135,817.601Z" style="fill:rgb(211,93,51);fill-rule:nonzero;"/>
            <path d="M539.316,820.594C538.637,819.797 537.921,819.381 537.921,819.381C537.87,819.461 537.82,819.543 537.769,819.625L537.77,819.624C537.77,819.622 537.771,819.62 537.772,819.617C537.772,819.616 537.773,819.615 537.773,819.614C537.773,819.613 537.773,819.612 537.774,819.611C537.891,819.254 538.456,818.457 539.138,817.595C540.261,816.174 541.699,814.576 541.963,814.488C541.97,814.486 541.979,814.485 541.989,814.485C542.331,814.485 544.444,815.745 546.321,816.982C546.529,817.119 546.735,817.256 546.935,817.391C547.371,817.686 547.779,817.971 548.133,818.228C546.162,819.207 543.63,819.991 540.817,820.41C540.311,820.485 539.81,820.546 539.316,820.594Z" style="fill:rgb(211,93,51);fill-rule:nonzero;"/>
            <path d="M537.145,820.723C537.343,820.35 537.56,819.967 537.769,819.625C537.82,819.543 537.882,819.423 537.933,819.343C537.933,819.343 538.647,819.797 539.326,820.594C538.588,820.665 537.845,820.71 537.145,820.723Z" style="fill:rgb(211,93,51);fill-rule:nonzero;"/>
            <path d="M543.071,812.264C540.168,811.753 538.528,809.706 538.26,807.42C537.993,805.145 537.853,801.437 540.599,800.58C543.628,799.636 545.108,802.126 545.142,805.726C545.183,809.994 543.071,812.264 543.071,812.264Z" style="fill:rgb(247,188,133);fill-rule:nonzero;"/>
            <path d="M544.326,805.374C544.29,804.876 544.021,804.484 543.724,804.499C543.427,804.516 543.216,804.933 543.252,805.432C543.287,805.931 543.558,806.322 543.854,806.306C544.15,806.29 544.362,805.873 544.326,805.374Z" style="fill:rgb(117,69,59);fill-rule:nonzero;"/>
            <path d="M541.415,805.519C541.391,804.942 541.112,804.475 540.79,804.471C540.469,804.468 540.229,804.931 540.253,805.507C540.277,806.082 540.557,806.552 540.878,806.555C541.199,806.558 541.439,806.094 541.415,805.519Z" style="fill:rgb(117,69,59);fill-rule:nonzero;"/>
            <path d="M539.729,805.36C539.729,805.36 540.683,804.556 541.579,804.685C541.579,804.685 541.334,804.233 540.682,804.377C540.032,804.523 539.729,805.36 539.729,805.36Z" style="fill:rgb(117,69,59);fill-rule:nonzero;"/>
            <path d="M544.68,804.931C544.68,804.931 543.734,804.38 542.96,804.64C542.96,804.64 543.119,804.2 543.711,804.22C544.303,804.239 544.68,804.931 544.68,804.931Z" style="fill:rgb(117,69,59);fill-rule:nonzero;"/>
            <path d="M539.443,804.31L539.403,804.189C539.687,803.422 540.479,802.9 540.958,802.786L541.031,803.217C540.631,803.221 539.778,803.664 539.443,804.31Z" style="fill:rgb(78,113,134);fill-rule:nonzero;"/>
            <path d="M544.722,803.834C544.155,803.129 543.169,803.022 542.933,803.062L542.93,802.631C543.196,802.599 544.123,802.793 544.778,803.681L544.722,803.834Z" style="fill:rgb(78,113,134);fill-rule:nonzero;"/>
            <path d="M543.143,807.067L543.141,807.115C543.068,807.437 542.746,807.614 542.422,807.515C542.232,807.455 542.091,807.308 542.014,807.132C541.971,807.441 542.163,807.754 542.471,807.851C542.796,807.952 543.117,807.773 543.191,807.451C543.22,807.319 543.193,807.189 543.143,807.067Z" style="fill:rgb(225,124,82);fill-rule:nonzero;"/>
            <path d="M541.403,808.85L543.445,808.802C543.445,808.802 543.259,809.869 542.425,809.866C541.627,809.862 541.403,808.85 541.403,808.85Z" style="fill:rgb(85,24,52);fill-rule:nonzero;"/>
            <path d="M541.545,808.89L543.278,808.849C543.278,808.849 543.42,809.316 542.435,809.357C541.398,809.4 541.545,808.89 541.545,808.89Z" style="fill:rgb(252,234,233);fill-rule:nonzero;"/>
            <path d="M542.885,810.196C542.885,810.066 542.707,810.2 542.488,810.204C542.27,810.208 542.093,810.08 542.093,810.212C542.093,810.343 542.27,810.446 542.488,810.442C542.707,810.439 542.885,810.328 542.885,810.196Z" style="fill:rgb(229,146,111);fill-rule:nonzero;"/>
            <path d="M531.921,813.216C530.123,807.5 534.541,804.891 535.229,802.658C535.863,800.599 536.508,796.343 534.605,796.232C532.708,796.119 529.697,797.373 530.334,799.824C530.918,802.071 533.002,802.653 531.638,804.831C529.328,808.519 530.524,811.657 531.921,813.216Z" style="fill:rgb(82,121,144);fill-rule:nonzero;"/>
            <path d="M537.224,807.188C537.119,805.914 536.223,805.343 535.857,806.218C535.491,807.092 535.801,807.678 536.248,807.968C536.695,808.259 537.309,808.236 537.224,807.188Z" style="fill:rgb(247,188,133);fill-rule:nonzero;"/>
            <path d="M536.978,807.109C536.909,806.275 536.321,805.9 536.082,806.473C535.842,807.047 536.045,807.431 536.338,807.621C536.632,807.812 537.033,807.797 536.978,807.109Z" style="fill:rgb(225,124,82);fill-rule:nonzero;"/>
            <path d="M536.961,807.409C536.912,806.808 536.488,806.538 536.316,806.951C536.143,807.364 536.288,807.641 536.5,807.778C536.711,807.915 537.001,807.905 536.961,807.409Z" style="fill:rgb(247,188,133);fill-rule:nonzero;"/>
            <path d="M539.002,880.751C543.828,873.512 557.315,867.123 557.315,867.123C557.315,867.123 548.94,870.105 545.816,872.092C542.693,874.079 539.002,880.751 539.002,880.751Z" style="fill:rgb(153,153,153);fill-rule:nonzero;"/>
        </g>
        <g id="Theresias">
        </g>
        <g id="Odysseus">
        </g>
    </g>
</svg>
