<?xml version="1.0" encoding="UTF-8" standalone="no"?>
<!DOCTYPE svg PUBLIC "-//W3C//DTD SVG 1.1//EN" "http://www.w3.org/Graphics/SVG/1.1/DTD/svg11.dtd">
<svg width="100%" height="100%" viewBox="0 0 514 696" version="1.1" xmlns="http://www.w3.org/2000/svg" xmlns:xlink="http://www.w3.org/1999/xlink" xml:space="preserve" xmlns:serif="http://www.serif.com/" style="fill-rule:evenodd;clip-rule:evenodd;stroke-linejoin:round;stroke-miterlimit:2;">
    <g transform="matrix(1,0,0,1,-3883,-244)">
        <g id="Zyklop">
        </g>
        <g id="Schaf">
        </g>
        <g id="Hermes-evil" serif:id="Hermes evil">
        </g>
        <g id="Hermes-nett" serif:id="Hermes nett">
        </g>
        <g id="Kirke-evil" serif:id="Kirke evil">
        </g>
        <g id="Kirke-nett" serif:id="Kirke nett">
        </g>
        <g id="Helios">
        </g>
        <g id="Mutter">
        </g>
        <g id="Theresias">
        </g>
        <g id="Odysseus" transform="matrix(4.16667,0,0,4.16667,3332.16,-1610.2)">
            <path d="M232.345,553.349C233.055,555.193 233.718,556.992 233.718,556.992L242.235,556.755L240.342,552.118L232.345,553.349Z" style="fill:rgb(247,188,133);fill-rule:nonzero;"/>
            <path d="M233.292,553.254C238.781,557.039 240.721,557.323 242.945,557.323C245.169,557.323 247.475,559.123 248.529,560.731C249.189,561.737 251.089,560.094 251.013,558.943C250.978,558.411 248.269,556.365 246.577,553.833C245.546,552.291 242.034,551.42 240.899,549.326C240.504,548.599 233.292,553.254 233.292,553.254Z" style="fill:rgb(247,188,133);fill-rule:nonzero;"/>
            <path d="M185.286,522.426C180.46,528.814 176.147,542.802 176.147,542.802L180.601,543.08L185.286,522.426Z" style="fill:rgb(131,29,47);fill-rule:nonzero;"/>
            <path d="M138.672,539.983L135.197,541.081L139.351,554.21L142.825,553.11L138.672,539.983Z" style="fill:rgb(141,24,56);fill-rule:nonzero;"/>
            <path d="M143.464,552.805L139.223,554.147L152.45,601.599L158.101,606.442L159.939,599.23L143.464,552.805Z" style="fill:rgb(189,228,230);fill-rule:nonzero;"/>
            <path d="M143.574,552.923L139.223,554.147L152.45,601.599L158.101,606.442L142.995,559.309L144.531,555.911L143.574,552.923Z" style="fill:rgb(155,216,221);fill-rule:nonzero;"/>
            <path d="M140.574,552.036L135.615,553.606C134.4,553.989 134.172,555.639 135.259,556.305C135.861,556.673 136.669,556.846 137.731,556.509L145.212,554.143C146.005,553.892 146.641,553.377 147.056,552.727C147.794,551.569 146.613,550.126 145.304,550.54L140.574,552.036Z" style="fill:rgb(246,160,58);fill-rule:nonzero;"/>
            <path d="M145.166,552.601L136.665,555.29C136.252,555.421 135.878,555.491 135.536,555.522C135.633,555.658 135.75,555.785 135.91,555.884C136.444,556.211 137.161,556.363 138.104,556.066L144.745,553.964C145.45,553.741 146.015,553.285 146.383,552.707C146.556,552.436 146.608,552.148 146.572,551.876C146.166,552.178 145.697,552.432 145.166,552.601Z" style="fill:rgb(247,209,100);fill-rule:nonzero;"/>
            <path d="M144.756,552.024C144.756,552.533 145.17,552.946 145.679,552.946C146.189,552.946 146.602,552.533 146.602,552.024C146.602,551.514 146.189,551.101 145.679,551.101C145.17,551.101 144.756,551.514 144.756,552.024Z" style="fill:rgb(141,24,56);fill-rule:nonzero;"/>
            <path d="M135.352,555.005C135.352,555.514 135.765,555.927 136.275,555.927C136.784,555.927 137.197,555.514 137.197,555.005C137.197,554.495 136.784,554.082 136.275,554.082C135.765,554.082 135.352,554.495 135.352,555.005Z" style="fill:rgb(141,24,56);fill-rule:nonzero;"/>
            <path d="M140.291,545.1L138.672,539.983L135.197,541.081L137.727,549.075C138.137,546.921 139.115,545.34 140.291,545.1Z" style="fill:rgb(106,22,48);fill-rule:nonzero;"/>
            <path d="M134.331,541.951C134.816,543.483 136.451,544.332 137.984,543.848C139.516,543.362 140.365,541.728 139.88,540.195C139.396,538.663 137.76,537.814 136.228,538.299C134.695,538.783 133.846,540.419 134.331,541.951Z" style="fill:rgb(247,209,100);fill-rule:nonzero;"/>
            <path d="M135.957,541.437C136.158,542.071 136.835,542.423 137.469,542.222C138.104,542.022 138.455,541.344 138.255,540.71C138.054,540.075 137.377,539.724 136.742,539.924C136.108,540.125 135.756,540.802 135.957,541.437Z" style="fill:rgb(141,24,56);fill-rule:nonzero;"/>
            <path d="M135.908,552.885C137.831,553.847 143.447,552.817 150.877,544.919C150.877,544.919 146.074,537.689 145.021,538.369C141.905,540.386 135.848,538.474 133.258,542.938C132.63,544.02 135.908,552.885 135.908,552.885Z" style="fill:rgb(247,188,133);fill-rule:nonzero;"/>
            <path d="M147.123,548.427L145.268,549.928C145.268,549.928 142.286,544.293 141.913,539.357L144.283,538.49L147.123,548.427Z" style="fill:rgb(244,154,103);fill-rule:nonzero;"/>
            <path d="M250.605,581.02C253.062,566.927 249.524,555.503 239.539,555.503C229.554,555.503 222.031,566.927 219.574,581.02C217.117,595.111 220.655,606.535 230.64,606.535C240.625,606.535 248.147,595.111 250.605,581.02Z" style="fill:rgb(130,62,79);fill-rule:nonzero;"/>
            <path d="M248.596,581.114C250.84,568.245 247.609,557.813 238.49,557.813C229.372,557.813 222.502,568.245 220.258,581.114C218.014,593.983 221.245,604.416 230.363,604.416C239.482,604.416 246.352,593.983 248.596,581.114Z" style="fill:rgb(110,39,63);fill-rule:nonzero;"/>
            <path d="M238.49,557.813C229.372,557.813 222.502,568.245 220.258,581.114C220.047,582.327 219.884,583.519 219.77,584.682C222.841,574.668 228.922,567.276 236.597,567.276C244.857,567.276 248.285,575.834 247.191,587.01C247.769,585.127 248.24,583.151 248.596,581.114C250.84,568.245 247.609,557.813 238.49,557.813Z" style="fill:rgb(92,30,55);fill-rule:nonzero;"/>
            <path d="M240.432,570.06C242.695,575.28 237.858,584.224 233.925,589.608L233.579,589.189C240.347,577.42 238.432,569.892 238.432,569.892L240.432,570.06Z" style="fill:rgb(92,30,55);fill-rule:nonzero;"/>
            <path d="M234.975,569.583C237.238,574.805 232.398,583.823 228.464,589.207L228.118,588.825C234.887,577.057 232.975,569.416 232.975,569.416L234.975,569.583Z" style="fill:rgb(92,30,55);fill-rule:nonzero;"/>
            <path d="M232.961,569.39C227.85,573.933 227.188,583.254 227.85,589.027L228.499,589.217C228.783,576.913 234.948,569.579 234.948,569.579L232.961,569.39Z" style="fill:rgb(159,92,73);fill-rule:nonzero;"/>
            <path d="M238.402,569.816C233.292,574.358 232.63,583.681 233.292,589.453L233.941,589.643C234.224,577.339 240.39,570.005 240.39,570.005L238.402,569.816Z" style="fill:rgb(159,92,73);fill-rule:nonzero;"/>
            <path d="M174.366,487.389L172.741,521.856C165.992,526.499 159.886,541.108 147.14,547.551L143.101,539.389C156.516,519.017 151.274,497.8 174.366,487.389Z" style="fill:rgb(247,188,133);fill-rule:nonzero;"/>
            <path d="M145.946,546.185L147.14,547.551C159.886,541.108 166.966,528.038 173.716,523.395L171.634,502.858C165.388,511.943 159.776,535.129 145.946,546.185Z" style="fill:rgb(244,154,103);fill-rule:nonzero;"/>
            <path d="M144.52,537.117C145.017,540.596 148.447,546.629 148.447,546.629L155.924,539.72L146.044,534.301L144.52,537.117Z" style="fill:rgb(244,154,103);fill-rule:nonzero;"/>
            <path d="M240.891,552.598C234.701,528.285 227.145,488.386 211.405,485.371L210.074,524.21C217.557,530.648 228.495,545.594 233.233,554.289L240.891,552.598Z" style="fill:rgb(247,188,133);fill-rule:nonzero;"/>
            <path d="M235.636,553.758C235.194,551.608 234.688,549.424 234.112,547.215C228.569,525.939 214.459,510.571 210.768,503.331L210.074,524.21C217.557,530.648 228.495,545.594 233.233,554.289L235.636,553.758Z" style="fill:rgb(244,154,103);fill-rule:nonzero;"/>
            <path d="M223.615,526.755C221.628,514.83 221.77,493.465 221.77,493.465L220.137,492.969L216.517,518.876L223.615,526.755Z" style="fill:rgb(244,154,103);fill-rule:nonzero;"/>
            <path d="M222.538,496.054C222.896,494.923 221.924,493.244 220.369,492.306C218.813,491.366 217.262,491.523 216.904,492.654C216.546,493.786 217.517,495.464 219.072,496.402C220.628,497.342 222.18,497.186 222.538,496.054Z" style="fill:rgb(244,154,103);fill-rule:nonzero;"/>
            <path d="M200.263,558.564C212.831,584.644 226.735,606.535 226.735,606.535L227.379,606.498L208.057,547.159L200.263,558.564Z" style="fill:rgb(247,188,133);fill-rule:nonzero;"/>
            <path d="M217.332,581.836C217.954,581.646 218.582,581.511 219.212,581.417L208.057,547.159L200.263,558.564C204.697,567.765 209.297,576.443 213.395,583.825C214.574,582.955 215.889,582.275 217.332,581.836Z" style="fill:rgb(244,154,103);fill-rule:nonzero;"/>
            <path d="M188.842,551.924C178.541,578.816 166.1,606.154 166.1,606.154L165.474,606.116L179.066,544.128L188.842,551.924Z" style="fill:rgb(247,188,133);fill-rule:nonzero;"/>
            <path d="M178.328,578.028C181.709,569.971 185.395,560.923 188.842,551.924L179.066,544.128L171.989,576.403C174.081,576.751 176.205,577.29 178.328,578.028Z" style="fill:rgb(244,154,103);fill-rule:nonzero;"/>
            <path d="M170.877,517.387C174.284,528.174 178.401,538.963 178.117,545.209L204.805,539.531L213.891,512.417L192.029,507.874L170.877,517.387Z" style="fill:rgb(247,188,133);fill-rule:nonzero;"/>
            <path d="M179.868,544.837C179.839,544.351 179.82,543.86 179.82,543.364C179.82,533.407 186.015,525.099 193.307,525.099C199.085,525.099 203.708,530.405 205.498,537.464L213.891,512.417L192.455,502.764L170.877,517.387C174.284,528.174 178.401,538.963 178.117,545.209L179.868,544.837Z" style="fill:rgb(244,154,103);fill-rule:nonzero;"/>
            <path d="M199.766,525.902C199.766,525.902 191.225,536.976 178.898,540.737L179.608,542.016C187.841,541.944 203.386,529.097 203.386,529.097L199.766,525.902Z" style="fill:rgb(244,154,103);fill-rule:nonzero;"/>
            <path d="M211.951,485.634C198.752,479.169 185.582,480.556 173.149,488.142C167.328,494.956 166.299,509.613 170.274,523.241C170.274,523.241 184.33,524.335 192.705,518.94C192.705,518.94 192.709,510.7 193.165,505.461C193.622,510.637 196.206,519.139 196.206,519.139C204.621,523.825 216.091,522.426 216.091,522.426C220.085,508.461 217.798,491.956 211.951,485.634Z" style="fill:rgb(247,188,133);fill-rule:nonzero;"/>
            <path d="M170.782,523.017C166.816,509.418 168.481,505.035 168.514,498.932C167.117,506.125 167.565,515.052 170.026,523.489C170.026,523.489 184.47,524.59 192.845,519.195L192.707,518.926C184.256,523.812 170.782,523.017 170.782,523.017Z" style="fill:rgb(244,154,103);fill-rule:nonzero;"/>
            <path d="M215.736,522.117C215.736,522.117 203.099,522.797 194.673,518.414C194.707,518.668 194.513,518.947 194.513,518.947C202.929,523.633 216.304,522.78 216.304,522.78C218.656,514.559 218.756,505.331 217.247,497.843C216.194,492.616 219.597,508.617 215.736,522.117Z" style="fill:rgb(244,154,103);fill-rule:nonzero;"/>
            <path d="M219.048,491.123C219.048,491.123 207.242,518.403 196.643,523.702L206.462,526.14C215.358,518.19 221.13,493.867 221.13,493.867L219.048,491.123Z" style="fill:rgb(244,154,103);fill-rule:nonzero;"/>
            <path d="M174.71,559.334L173.929,565.084C173.929,565.084 198.346,577.079 217.652,575.731L216.446,570.833L174.71,559.334Z" style="fill:rgb(247,209,100);fill-rule:nonzero;"/>
            <path d="M175.056,563.095C186.944,568.679 200.679,571.765 215.286,573.672L215.795,575.819C216.419,575.803 217.038,575.774 217.652,575.731L216.446,570.833L174.71,559.334L173.929,565.084C173.929,565.084 174.215,565.224 174.746,565.471L175.056,563.095Z" style="fill:rgb(247,182,77);fill-rule:nonzero;"/>
            <path d="M192.351,564.194C192.89,566.521 193.746,569.419 195.099,572.891C198.843,573.904 202.824,574.771 206.816,575.297C204.921,571.869 202.969,568.988 201.117,566.609L192.351,564.194Z" style="fill:rgb(247,182,77);fill-rule:nonzero;"/>
            <path d="M174,561.156C174,561.156 200.566,571.611 217.02,572.182L209.358,545.02L208.033,543.599L207.748,542.557C215.666,538.215 222.172,509.483 220.777,491.119L219.929,490.553C219.929,490.553 209.99,531.39 176.697,542.56C176.697,542.56 174.781,548.9 174,561.156Z" style="fill:rgb(197,34,46);fill-rule:nonzero;"/>
            <path d="M220.777,491.119L219.929,490.553C219.929,490.553 219.05,494.37 216.876,499.983C219.19,499.023 219.904,502.824 220.229,508.256C220.938,502.239 221.169,496.272 220.777,491.119Z" style="fill:rgb(174,34,46);fill-rule:nonzero;"/>
            <path d="M176.748,543.475C198.18,544.287 209.922,528.948 215.522,515.775C215.522,515.775 212.966,534.099 198.927,542.382C190.812,547.17 176.748,543.475 176.748,543.475Z" style="fill:rgb(174,34,46);fill-rule:nonzero;"/>
            <path d="M208.033,543.599L207.748,542.557C209.926,541.362 212.732,538.035 214.077,533.58C202.56,540.013 184.574,544.34 176.697,542.56C176.065,542.608 176.159,542.835 176.101,542.981L176.541,543.23C176.408,543.572 176.186,543.888 175.99,544.467C175.96,544.556 175.595,544.581 175.564,544.676C174.606,547.596 174.154,553.137 174,561.156C174,561.156 174.825,561.436 175.515,561.722C176.844,551.936 182.232,548.376 189.971,548.262C196.359,548.167 209.774,557.939 215.659,572.11C216.119,572.142 217.49,572.237 217.937,572.253L209.358,545.02L208.033,543.599Z" style="fill:rgb(174,34,46);fill-rule:nonzero;"/>
            <path d="M208.067,542.374C208.067,542.374 201.923,544.916 195.294,545.067L195.582,545.878C200.81,546.062 208.188,543.765 208.188,543.765L208.067,542.374Z" style="fill:rgb(224,114,55);fill-rule:nonzero;"/>
            <path d="M176.462,543.163C176.462,543.163 184.631,545.187 192.868,544.955L192.872,545.792C186.369,546.277 175.98,544.442 175.98,544.442L176.462,543.163Z" style="fill:rgb(224,114,55);fill-rule:nonzero;"/>
            <path d="M197.968,470.373L185.759,472.421C185.617,477.815 182.376,481.541 178.543,485.729L204.38,482.89C199.093,481.186 197.968,470.373 197.968,470.373Z" style="fill:rgb(247,188,133);fill-rule:nonzero;"/>
            <path d="M234.357,606.535L226.359,606.535C226.359,606.535 225.321,604.121 226.556,603.788C227.79,603.454 234.357,606.535 234.357,606.535Z" style="fill:rgb(247,188,133);fill-rule:nonzero;"/>
            <path d="M157.835,606.535L166.597,606.535C166.597,606.535 167.734,604.121 166.382,603.788C165.03,603.454 157.835,606.535 157.835,606.535Z" style="fill:rgb(247,188,133);fill-rule:nonzero;"/>
            <path d="M222.456,493.252C222.456,491.736 221.312,490.381 219.901,490.224C218.489,490.067 217.345,491.169 217.345,492.685C217.345,494.2 218.489,495.556 219.901,495.713C221.312,495.87 222.456,494.768 222.456,493.252Z" style="fill:rgb(247,182,77);fill-rule:nonzero;"/>
            <path d="M196.998,545.103C196.998,544.26 195.933,543.577 194.62,543.577C193.307,543.577 192.242,544.26 192.242,545.103C192.242,545.945 193.307,546.629 194.62,546.629C195.933,546.629 196.998,545.945 196.998,545.103Z" style="fill:rgb(247,182,77);fill-rule:nonzero;"/>
            <path d="M196.443,545.458C196.443,544.983 195.61,545.352 194.584,545.352C193.558,545.352 192.726,544.983 192.726,545.458C192.726,545.933 193.558,546.317 194.584,546.317C195.61,546.317 196.443,545.933 196.443,545.458Z" style="fill:rgb(247,209,100);fill-rule:nonzero;"/>
            <path d="M188.953,488.757C184.221,487.716 176.555,487.432 176.177,489.041C175.798,490.65 188.953,488.757 188.953,488.757Z" style="fill:rgb(244,154,103);fill-rule:nonzero;"/>
            <path d="M195.765,488.72C199.743,487.087 206.388,485.829 206.951,487.373C207.514,488.917 195.765,488.72 195.765,488.72Z" style="fill:rgb(244,154,103);fill-rule:nonzero;"/>
            <path d="M177.145,520.653C177.052,520.072 175.96,519.642 174.707,519.692C173.453,519.742 172.513,520.257 172.606,520.838C172.7,521.421 173.792,521.85 175.045,521.799C176.298,521.749 177.239,521.236 177.145,520.653Z" style="fill:rgb(224,114,55);fill-rule:nonzero;"/>
            <path d="M180.256,485.69C180.08,485.69 179.922,485.66 179.78,485.593L181.38,485.417C180.949,485.589 180.575,485.69 180.256,485.69Z" style="fill:rgb(211,93,51);fill-rule:nonzero;"/>
            <path d="M179.232,484.956C180.381,483.635 181.363,482.318 182.165,480.959C182.165,480.959 182.166,480.96 182.166,480.961C181.363,482.319 180.381,483.635 179.233,484.956L179.232,484.956Z" style="fill:rgb(220,148,145);fill-rule:nonzero;"/>
            <path d="M179.228,484.962L179.228,484.961C179.229,484.959 179.23,484.958 179.232,484.956L179.233,484.956C179.231,484.958 179.23,484.959 179.228,484.962ZM203.059,483.21C202.876,483.21 202.655,483.172 202.401,483.107L203.593,482.976C203.49,483.14 203.309,483.21 203.059,483.21Z" style="fill:rgb(211,93,51);fill-rule:nonzero;"/>
            <path d="M203.674,482.591C203.666,482.59 203.659,482.588 203.651,482.586C203.3,482.404 202.969,482.181 202.657,481.923C202.975,482.184 203.313,482.409 203.674,482.591Z" style="fill:rgb(220,148,145);fill-rule:nonzero;"/>
            <path d="M203.692,482.607C203.678,482.6 203.665,482.593 203.651,482.586C203.659,482.588 203.666,482.59 203.674,482.591C203.68,482.595 203.686,482.598 203.692,482.601L203.692,482.607Z" style="fill:rgb(211,93,51);fill-rule:nonzero;"/>
            <path d="M179.78,485.593C179.55,485.484 179.366,485.281 179.228,484.962C179.23,484.959 179.231,484.958 179.233,484.956C180.381,483.635 181.363,482.319 182.166,480.961C183.505,478.696 185.586,474.953 185.864,472.234C187.842,471.623 188.761,472.499 191.039,472.183C192.953,471.916 195.15,471.805 197.029,471.805C197.378,471.805 197.716,471.809 198.039,471.816C198.656,474.416 199.827,479.592 202.657,481.923C202.969,482.181 203.3,482.404 203.651,482.586C203.665,482.593 203.678,482.6 203.692,482.607C203.684,482.762 203.651,482.884 203.593,482.976L202.401,483.107C201.678,482.921 200.682,482.51 199.496,482.098C197.893,481.543 195.943,480.987 193.847,480.987C193.343,480.987 192.831,481.019 192.313,481.091C187.23,481.798 183.576,484.537 181.38,485.417L179.78,485.593Z" style="fill:rgb(211,93,51);fill-rule:nonzero;"/>
            <path d="M191.461,557.134C191.461,557.134 191.161,560.642 193.269,567.628C196.664,568.607 200.247,569.543 203.79,570.313C197.486,560.884 191.461,557.134 191.461,557.134Z" style="fill:rgb(174,34,46);fill-rule:nonzero;"/>
            <path d="M199.127,548.829C204.947,553.514 210.768,561.747 211.478,560.044C212.187,558.341 208.935,554.115 205.799,551.952C203.813,550.582 199.127,548.829 199.127,548.829Z" style="fill:rgb(197,34,46);fill-rule:nonzero;"/>
            <path d="M221.982,492.729C222,491.752 221.168,490.803 220.123,490.608C219.078,490.414 218.215,491.048 218.197,492.025C218.179,493.002 219.011,493.951 220.056,494.146C221.102,494.34 221.964,493.705 221.982,492.729Z" style="fill:rgb(245,220,98);fill-rule:nonzero;"/>
            <path d="M142.316,538.233C142.812,541.711 146.957,549.326 146.957,549.326L155.616,543.293L145.254,534.634L142.316,538.233Z" style="fill:rgb(247,209,100);fill-rule:nonzero;"/>
            <path d="M152.874,541.202L145.295,534.868L142.562,538.215C142.723,539.34 143.295,540.931 143.971,542.526C144.933,542.82 145.979,542.986 147.076,542.986C149.324,542.986 151.361,542.306 152.874,541.202Z" style="fill:rgb(247,225,126);fill-rule:nonzero;"/>
            <path d="M193.117,527.985C193.07,530.351 192.739,533.663 192.739,533.663L193.922,532.433L193.117,527.985Z" style="fill:rgb(244,154,103);fill-rule:nonzero;"/>
            <path d="M188.385,534.089C190.657,534.089 193.117,532.765 193.117,532.765L193.212,531.155C192.282,532.462 190.666,533.437 188.385,534.089Z" style="fill:rgb(244,154,103);fill-rule:nonzero;"/>
            <path d="M241.678,549.989C240.089,552.758 232.533,555.544 232.533,555.544L226.783,546.571L239.049,544.104L241.678,549.989Z" style="fill:rgb(247,209,100);fill-rule:nonzero;"/>
            <path d="M229.959,546.074L238.94,544.268L241.38,549.904C240.872,550.788 239.66,551.849 238.163,552.661C235.26,551.299 230.928,547.581 229.959,546.074Z" style="fill:rgb(247,225,126);fill-rule:nonzero;"/>
        </g>
        <g id="Odysseus-Kopf" serif:id="Odysseus Kopf" transform="matrix(1,0,0,1,-6.28024,1.15445)">
            <g transform="matrix(4.96576,4.18261,-4.18261,4.96576,5907.78,-2173.16)">
                <path d="M41.732,480.262C39.854,482.061 36.763,482.719 36.763,482.719L36.209,481.666L35.996,482.546C35.996,482.546 32.561,484.89 29.548,482.672C26.536,480.453 27.641,478.354 27.641,478.354C27.641,478.354 25.598,476.575 26.591,474.787C27.585,472.998 29.605,471.526 29.605,471.526L30.937,471.606L29.636,470.827C29.636,470.827 28.42,469.162 29.39,466.862C30.36,464.563 32.245,464.293 32.245,464.293L33.076,464.47C33.076,464.47 31.387,462.14 33.222,460.783C35.058,459.427 38.468,460.65 38.468,460.65L38.815,461.308L39.076,460.112C39.076,460.112 40.719,458.681 42.44,458.975C44.162,459.269 45.661,461.587 45.661,461.587L45.315,462.332L46.572,462.151C46.572,462.151 49.886,465.407 47.511,470.171C45.136,474.935 41.732,480.262 41.732,480.262Z" style="fill:rgb(112,39,18);fill-rule:nonzero;"/>
            </g>
            <g transform="matrix(4.96576,4.18261,-4.18261,4.96576,5907.78,-2173.16)">
                <path d="M44.176,465.234L43.29,464.235L43.659,465.706C43.659,465.706 43.342,467.743 41.03,468.683C38.719,469.624 37.194,468.481 37.194,468.481L36.363,466.122C36.363,466.122 34.559,467.457 34.006,467.443C31.724,467.385 30.218,466.657 30.218,466.657L30.438,465.947L29.554,466.513C29.497,466.625 29.442,466.739 29.39,466.862C28.42,469.162 29.636,470.827 29.636,470.827L30.937,471.606L29.605,471.526C29.605,471.526 27.585,472.998 26.591,474.787C25.598,476.575 27.641,478.354 27.641,478.354C27.641,478.354 26.536,480.453 29.548,482.672C32.561,484.89 35.996,482.546 35.996,482.546L36.209,481.666L36.763,482.719C36.763,482.719 39.866,482.034 41.744,480.235C41.744,480.235 45.136,474.935 47.511,470.171C48.492,468.204 48.502,466.495 48.176,465.166C46.299,465.565 44.176,465.234 44.176,465.234Z" style="fill:rgb(94,35,18);fill-rule:nonzero;"/>
            </g>
            <g id="Odysseus-Ohr-Links" serif:id="Odysseus Ohr Links" transform="matrix(-1,0,0,1,8259.86,4.45203)">
                <g transform="matrix(-5.84672,0,0,5.84672,7140.35,-2352.33)">
                    <path d="M508.886,457.389C508.185,456.538 507.174,457.579 507.445,458.285C507.718,458.992 509.266,459.644 509.401,459.236C509.537,458.829 509.266,457.851 508.886,457.389Z" style="fill:rgb(247,188,133);fill-rule:nonzero;"/>
                </g>
                <g transform="matrix(-5.84672,0,0,5.84672,7140.35,-2352.33)">
                    <path d="M508.707,457.706C508.275,457.18 507.651,457.823 507.818,458.259C507.986,458.694 508.942,459.097 509.026,458.845C509.109,458.594 508.942,457.991 508.707,457.706Z" style="fill:rgb(225,124,82);fill-rule:nonzero;"/>
                </g>
                <g transform="matrix(-5.84672,0,0,5.84672,7140.35,-2352.33)">
                    <path d="M508.891,458.15C508.61,457.81 508.206,458.226 508.316,458.508C508.424,458.791 509.042,459.051 509.097,458.888C509.151,458.726 509.042,458.335 508.891,458.15Z" style="fill:rgb(247,188,133);fill-rule:nonzero;"/>
                </g>
            </g>
            <g id="Odysseus-Ohr-Rechts" serif:id="Odysseus Ohr Rechts" transform="matrix(1,0,0,1,-6.30453,-2.24994)">
                <g transform="matrix(-5.84672,0,0,5.84672,7140.35,-2352.33)">
                    <path d="M508.886,457.389C508.185,456.538 507.174,457.579 507.445,458.285C507.718,458.992 509.266,459.644 509.401,459.236C509.537,458.829 509.266,457.851 508.886,457.389Z" style="fill:rgb(247,188,133);fill-rule:nonzero;"/>
                </g>
                <g transform="matrix(-5.84672,0,0,5.84672,7140.35,-2352.33)">
                    <path d="M508.707,457.706C508.275,457.18 507.651,457.823 507.818,458.259C507.986,458.694 508.942,459.097 509.026,458.845C509.109,458.594 508.942,457.991 508.707,457.706Z" style="fill:rgb(225,124,82);fill-rule:nonzero;"/>
                </g>
                <g transform="matrix(-5.84672,0,0,5.84672,7140.35,-2352.33)">
                    <path d="M508.891,458.15C508.61,457.81 508.206,458.226 508.316,458.508C508.424,458.791 509.042,459.051 509.097,458.888C509.151,458.726 509.042,458.335 508.891,458.15Z" style="fill:rgb(247,188,133);fill-rule:nonzero;"/>
                </g>
            </g>
            <g transform="matrix(7.55725,0,0,6.99826,244.306,-2871.92)">
                <path d="M513.11,464.647C511.717,463.519 509.764,459.938 509.522,457.612C509.279,455.287 511.232,451.402 513.476,451.409C516.867,451.42 517.817,455.114 518.055,458.039C518.348,461.636 517.124,463.252 516.475,464.099C516.026,464.686 513.696,465.121 513.11,464.647Z" style="fill:rgb(247,188,133);fill-rule:nonzero;"/>
            </g>
            <g transform="matrix(4.16667,0,0,4.16667,2375.07,-3046.87)">
                <path d="M418.252,800.165C419.387,800.543 419.766,802.129 418.593,802.852C417.336,803.627 416.548,802.105 416.548,802.105C416.548,802.105 418.01,803.111 418.086,801.892C418.151,800.845 416.643,801.111 416.643,801.111L418.252,800.165Z" style="fill:rgb(94,35,18);fill-rule:nonzero;"/>
            </g>
            <g transform="matrix(1.13844,0,0,1,-569.996,-1.15445)">
                <g id="Bart">
                    <path d="M4139.44,356.019C4144.34,355.81 4146.69,352.22 4149.88,349.691C4153.51,346.809 4159.11,337.736 4161.22,338.731C4163.34,339.725 4162.48,350.573 4162.55,355.657C4162.61,360.193 4161.94,365.548 4161.65,369.237C4161.43,372.091 4162.64,375.571 4160.83,377.788C4158.13,381.095 4150.29,386.321 4145.44,389.077C4141.18,391.496 4136.32,394.247 4131.71,394.327C4127.11,394.408 4121.93,392.201 4117.8,389.563C4113.41,386.762 4108.29,380.46 4105.4,377.524C4103.65,375.753 4101.65,374.123 4100.45,371.945C4098.97,369.253 4095.97,364.214 4096.51,361.371C4097.05,358.529 4101.04,354.912 4103.69,354.891C4109.51,354.844 4113.43,358.475 4116.25,358.579C4119.83,358.71 4124.58,354.877 4128.45,354.45C4132.13,354.044 4136.11,356.162 4139.44,356.019Z" style="fill:rgb(94,35,18);"/>
                </g>
            </g>
            <g transform="matrix(6.99826,0,0,6.99826,530.643,-2870.99)">
                <path d="M516.749,457.284C516.653,456.725 516.289,456.3 515.935,456.335C515.581,456.372 515.37,456.856 515.468,457.417C515.563,457.978 515.927,458.402 516.28,458.365C516.633,458.329 516.844,457.845 516.749,457.284Z" style="fill:rgb(117,69,59);fill-rule:nonzero;"/>
            </g>
            <g transform="matrix(6.99826,0,0,6.99826,530.643,-2870.99)">
                <path d="M513.276,457.631C513.185,456.982 512.804,456.473 512.416,456.488C512.031,456.505 511.792,457.043 511.882,457.692C511.971,458.338 512.356,458.851 512.74,458.834C513.127,458.817 513.364,458.278 513.276,457.631Z" style="fill:rgb(117,69,59);fill-rule:nonzero;"/>
            </g>
            <g transform="matrix(6.99826,0,0,6.99826,530.643,-2870.99)">
                <path d="M511.237,457.559C511.237,457.559 512.296,456.59 513.385,456.68C513.385,456.68 513.042,456.185 512.276,456.389C511.514,456.594 511.237,457.559 511.237,457.559Z" style="fill:rgb(117,69,59);fill-rule:nonzero;"/>
            </g>
            <g transform="matrix(6.99826,0,0,6.99826,530.643,-2870.99)">
                <path d="M517.125,456.761C517.125,456.761 515.935,456.2 515.034,456.542C515.034,456.542 515.179,456.036 515.89,456.021C516.601,456.005 517.125,456.761 517.125,456.761Z" style="fill:rgb(117,69,59);fill-rule:nonzero;"/>
            </g>
            <g transform="matrix(6.84572,1.45318,-1.45318,6.84572,1270.59,-3545.04)">
                <path d="M510.785,456.392L510.725,456.257C510.984,455.375 511.878,454.736 512.44,454.577L512.573,455.058C512.094,455.088 511.118,455.642 510.785,456.392Z" style="fill:rgb(94,35,18);fill-rule:nonzero;"/>
            </g>
            <g transform="matrix(6.74091,-1.88037,1.88037,6.74091,-191.948,-1783.75)">
                <path d="M517.06,455.521C516.307,454.762 515.114,454.703 514.836,454.763L514.787,454.277C515.103,454.224 516.234,454.385 517.112,455.345L517.06,455.521Z" style="fill:rgb(94,35,18);fill-rule:nonzero;"/>
            </g>
            <g transform="matrix(4.16667,0,0,4.16667,3329.79,-1610.2)">
                <path d="M192.647,467.434C192.143,468.442 192.195,470.349 192.195,470.349C192.195,470.349 193.278,471.138 194.246,470.086C193.936,468.42 193.326,467.473 192.647,467.434Z" style="fill:rgb(244,154,103);fill-rule:nonzero;"/>
            </g>
            <g transform="matrix(4.16667,0,0,4.16667,3329.79,-1610.2)">
                <path d="M192.904,467.685C192.562,468.561 192.704,470.192 192.704,470.192C192.704,470.192 193.596,470.839 194.299,469.913C193.968,468.496 193.439,467.701 192.904,467.685Z" style="fill:rgb(247,188,133);fill-rule:nonzero;"/>
            </g>
        </g>
        <g id="Odysseus-Mund-2" serif:id="Odysseus Mund 2" transform="matrix(1,0,0,1,-0.453722,2.63549)">
            <g transform="matrix(8.71063,0,0,8.71063,-594.564,-6685.94)">
                <path d="M541.403,808.85L543.445,808.802C543.445,808.802 543.259,809.869 542.425,809.866C541.627,809.862 541.403,808.85 541.403,808.85Z" style="fill-rule:nonzero;stroke:black;stroke-width:0.11px;"/>
            </g>
            <g transform="matrix(8.71063,0,0,8.71063,-594.564,-6685.94)">
                <path d="M541.545,808.89L543.278,808.849C543.278,808.849 543.42,809.316 542.435,809.357C541.398,809.4 541.545,808.89 541.545,808.89Z" style="fill:rgb(252,234,233);fill-rule:nonzero;"/>
            </g>
        </g>
    </g>
</svg>
