<svg xmlns="http://www.w3.org/2000/svg" xmlns:xlink="http://www.w3.org/1999/xlink" width="1920" height="1080" viewBox="0 0 1920 1080">
  <defs>
    <linearGradient id="a" x1="957.099" y1="1130.553" x2="957.099" y2="-91.426" gradientUnits="userSpaceOnUse">
      <stop offset="0" stop-color="#cdf7fa"/>
      <stop offset="0.298" stop-color="#c9f4f8"/>
      <stop offset="0.597" stop-color="#bdecf1"/>
      <stop offset="0.894" stop-color="#a9dde5"/>
      <stop offset="1" stop-color="#a0d7e0"/>
    </linearGradient>
    <linearGradient id="b" data-name="Unbenannter Verlauf 154" x1="957.099" y1="1130.553" x2="957.099" y2="640.097" gradientUnits="userSpaceOnUse">
      <stop offset="0" stop-color="#52b8a1"/>
      <stop offset="0.221" stop-color="#4eb8a2"/>
      <stop offset="0.442" stop-color="#42b6a4"/>
      <stop offset="0.663" stop-color="#2eb4a8"/>
      <stop offset="0.884" stop-color="#12b2ad"/>
      <stop offset="1" stop-color="#00b0b1"/>
    </linearGradient>
  </defs>
  <rect x="-28.68" y="-91.426" width="1971.558" height="1221.979" fill="url(#a)"/>
  <path d="M1919.9,621.134s-55.19-27.152-80.006-20.629l-78.477,20.629s-68.783-43.707-108.2-44.431-85.136,44.431-85.136,44.431-85.307-20.7-114.144-22.216-110.978,22.216-110.978,22.216-22.717-18.249-44.8-19.042-42.6,19.042-42.6,19.042-51.8-10.779-74.211-14.282-79.4,14.282-79.4,14.282-68.7-14.746-88.782-17.455-97.543,17.455-97.543,17.455-66.381-26.183-91.654-23.8-73.206,23.8-73.206,23.8S675.311,603.886,639.8,608.11L530.281,621.134s-51.325-25.253-89.764-29.685S281,621.134,281,621.134s-102.029-16.527-121.246-16.6-88.3,16.6-88.3,16.6-25.5-15.869-33.5-17.455S-.255,621.134-.255,621.134v496.939H1919.9Z" fill="#10787b"/>
  <rect x="-28.68" y="640.097" width="1971.558" height="490.457" fill="url(#b)"/>
  <g>
    <path d="M1334.728,396.227c-255.006-11.131-440.34-1.356-440.34-1.356s265.966-58.308,301.082-58.308c0,0-55.135-95.052,161.077-120.433,173.287-20.342,323.68,17.633,369.259,56.957,49.871,43.026-44.559,51.272-44.559,51.272s92.7,2.713,136.736,29.832c0,0-188.019,2.712-230.414,16.272,0,0,84.193,61.347-266.045,53.21C1277.229,422.645,1371.648,397.839,1334.728,396.227Z" fill="#fff"/>
    <path d="M1587.569,370.463c42-13.433,226.913-16.22,230.36-16.271-165.544-30.59-447.481-7.03-488.443-3.155-43,4.068,70.159,17.628-6.79,17.628-63.444,0-334.078,19.2-427.115,25.944l-1.193.262s185.334-9.775,440.34,1.356c36.92,1.612-57.5,26.418-13.2,27.446C1671.762,431.81,1587.569,370.463,1587.569,370.463Z" fill="#9fd0de"/>
  </g>
  <g>
    <path d="M631.786,239.027c-173.447-7.571-299.5-.922-299.5-.922s219.19-52.668,243.075-52.668c0,0-51.426-44.978,95.634-62.241,27.194-89.612,276.018-12.22,196.487,66.949,23.882,1.806,63.049,1.845,93,20.291,0,0-127.884,1.844-156.72,11.067,0,0,57.265,41.726-180.954,36.192C592.677,257,656.9,240.124,631.786,239.027Z" fill="#fff"/>
    <path d="M803.76,221.5c28.567-9.137,154.338-11.032,156.683-11.067-112.6-20.807-304.362-4.782-332.222-2.146-29.248,2.767,47.72,11.99-4.619,11.99-43.152,0-227.228,13.062-290.509,17.647l-.812.178s126.058-6.649,299.5.922c25.112,1.1-39.109,17.968-8.98,18.668C861.025,263.229,803.76,221.5,803.76,221.5Z" fill="#9fd0de"/>
  </g>
  <g>
    <path d="M276.315,377.318c-120.963-5.28-208.877-.643-208.877-.643s126.162-27.658,142.82-27.658c0,0,.416-39.345,56.843-22.237-1.7-4.073,1.447-27.39,19.563-34.891,23.947-9.915,41.624,4.749,43.663,14.525,7.478-10.184,27.545-19.561,46.23-17.826,45.195,4.2,71.256,18.23,85.267,30.318,23.656,20.41-21.136,24.322-21.136,24.322s43.97,1.287,64.861,14.151c0,0-89.188,1.286-109.3,7.718,0,0,39.938,29.1-126.2,25.241C249.04,389.85,293.828,378.083,276.315,377.318Z" fill="#fff"/>
    <path d="M396.25,365.1c19.924-6.372,107.637-7.694,109.273-7.718-78.526-14.511-212.265-3.335-231.694-1.5-20.4,1.93,33.28,8.362-3.222,8.362-30.094,0-158.47,9.11-202.6,12.307l-.566.124s87.914-4.637,208.877.643c17.513.765-27.275,12.532-6.263,13.02C436.188,394.2,396.25,365.1,396.25,365.1Z" fill="#9fd0de"/>
  </g>
  <g>
    <g>
      <path d="M1950.485,738.4H1808.076c-46.152-.549-91.7.658-137.931,1.865-10.2.4-20.4-.4-30.593.4-81.582,4.023-166.563,11.264-244.066-10.459-20.4-5.634-41.7,1.638-64.132,5.662-46.229,8.849-94.272,12.44-143.221,8.416-99.938-8.448-193.757-17.7-294.374-3.217-36.712,5.23-70.7,0-104.7-8.448-23.115-6.035-48.949-3.219-74.1.4-61.186,9.254-121.013,16.9-182.879,10.461-53.028-5.633-103.337-4.426-154.994-2.409q-9.323.219-18.623.22c-43.431.041-86.9-3.022-130.667-2.895H-21.073v-5.25H223.385c1.646.008,3.174.013,4.753.022,39.133.547,78.231,3.991,117.323,3.96,7.819-.007,15.637-.152,23.456-.486a909.335,909.335,0,0,1,158.4,2.815c67.985,6.839,131.211-2.817,198.515-12.471,20.4-2.817,40.791-5.229,59.147-.8,72.064,18.1,144.128,6.035,217.551,1.206,50.309-3.62,98.578,2.818,148.207,9.655,67.985,9.655,103.564-4.567,167.469-15.025,19.036-3.22,64.359-2.274,82.035,2.554,76.823,22.126,161.124,16.093,242.706,11.667,27.194-1.609,54.388-1.609,81.582-2.817,27.874-1.205,55.747,0,83.543-.275h142.409Z" fill="#fff"/>
      <path d="M-21.073,738.4H121.336c46.152-.549,91.7.658,137.931,1.865,10.2.4,20.395-.4,30.593.4,81.582,4.023,166.563,11.264,244.066-10.459,20.395-5.634,44.869-4.829,67.3-.806,46.23,8.85,91.1,18.908,140.049,14.884,99.938-8.448,193.757-17.7,294.374-3.217,36.712,5.23,70.7,0,104.7-8.448,23.114-6.035,48.949-3.219,74.1.4,61.186,9.254,121.013,16.9,182.879,10.461,53.028-5.633,103.337-4.426,154.993-2.409q9.324.219,18.624.22c43.43.041,86.9-3.022,130.667-2.895h248.869v-5.25H1706.028c-1.647.008-3.175.013-4.754.022-39.133.547-78.231,3.991-117.324,3.96-7.818-.007-15.636-.152-23.455-.486a909.335,909.335,0,0,0-158.4,2.815c-67.985,6.839-131.211-2.817-198.516-12.471-20.395-2.817-40.79-5.229-59.146-.8-72.064,18.1-144.128,6.035-217.552,1.206-50.308-3.62-98.577,2.818-148.206,9.655-67.985,9.655-128.492-3.621-192.4-14.079-19.036-3.22-39.431-3.22-57.107,1.608-76.823,22.126-161.124,16.093-242.706,11.667-27.194-1.609-54.388-1.609-81.582-2.817-27.874-1.205-55.747,0-83.543-.275H-21.073Z" fill="#fff"/>
      <path d="M-21.073,774.225H121.336c46.152-.55,91.7.658,137.931,1.864,10.2.4,20.395-.4,30.593.4,81.582,4.023,166.563,11.264,244.066-10.46,20.395-5.633,44.869-4.828,67.3-.8,46.23,8.849,91.1,18.907,140.049,14.883,99.938-8.447,193.757-17.7,294.374-3.217,36.712,5.23,70.7,0,104.7-8.448,23.114-6.035,48.949-3.218,74.1.4,61.186,9.254,121.013,16.9,182.879,10.461,53.028-5.633,103.337-4.425,154.993-2.409q9.324.217,18.624.221c43.43.04,86.9-3.023,130.667-2.895h248.869v-5.25H1706.028c-1.647.007-3.175.012-4.754.02-39.133.548-78.231,3.993-117.324,3.961-7.818-.007-15.636-.152-23.455-.486a909.432,909.432,0,0,0-158.4,2.814c-67.985,6.84-131.211-2.816-198.516-12.471-20.395-2.816-40.79-5.228-59.146-.8-72.064,18.1-144.128,6.035-217.552,1.207-50.308-3.622-98.577,2.816-148.206,9.655-67.985,9.654-128.492-3.622-192.4-14.079-19.036-3.221-39.431-3.221-57.107,1.607-76.823,22.126-161.124,16.093-242.706,11.666-27.194-1.609-54.388-1.609-81.582-2.816-27.874-1.205-55.747,0-83.543-.274H-21.073Z" fill="#fff"/>
    </g>
    <g>
      <path d="M1950.485,786.764H1808.076c-46.152-.549-91.7.657-137.931,1.865-10.2.4-20.4-.4-30.593.4-81.582,4.024-166.563,11.264-244.066-10.459-20.4-5.633-44.869-4.829-67.305-.8-46.229,8.85-91.1,18.907-140.048,14.884-99.938-8.448-193.757-17.7-294.374-3.218-36.712,5.231-70.7,0-104.7-8.447-23.115-6.036-48.949-3.219-74.1.4-61.186,9.254-121.013,16.9-182.879,10.462-53.028-5.633-103.337-4.427-154.994-2.409q-9.323.217-18.623.22c-43.431.04-86.9-3.023-130.667-2.895H-21.073v-5.25H223.385c1.646.007,3.174.012,4.753.021,39.133.547,78.231,3.992,117.324,3.96,7.818-.006,15.636-.152,23.455-.486a909.433,909.433,0,0,1,158.4,2.815c67.985,6.84,131.211-2.816,198.515-12.471,20.4-2.817,40.791-5.229,59.147-.8,72.064,18.1,144.128,6.036,217.551,1.207,50.309-3.621,98.578,2.817,148.207,9.655,67.985,9.654,128.491-3.621,192.4-14.079,19.036-3.22,39.431-3.22,57.107,1.608,76.823,22.125,161.124,16.092,242.706,11.666,27.194-1.609,54.388-1.609,81.582-2.816,27.874-1.205,55.747,0,83.543-.275h142.409Z" fill="#fff"/>
      <path d="M-21.073,786.764H121.336c46.152-.549,91.7.657,137.931,1.865,10.2.4,20.395-.4,30.593.4,81.582,4.024,166.563,11.264,244.066-10.459,20.395-5.633,44.869-4.829,67.3-.8,46.23,8.85,91.1,18.907,140.049,14.884,99.938-8.448,193.757-17.7,294.374-3.218,36.712,5.231,70.7,0,104.7-8.447,23.114-6.036,48.949-3.219,74.1.4,61.186,9.254,121.013,16.9,182.879,10.462,53.028-5.633,103.337-4.427,154.993-2.409q9.324.217,18.624.22c43.43.04,86.9-3.023,130.667-2.895h248.869v-5.25H1706.028c-1.647.007-3.175.012-4.754.021-39.133.547-78.231,3.992-117.324,3.96-7.818-.006-15.636-.152-23.455-.486a909.433,909.433,0,0,0-158.4,2.815c-67.985,6.84-131.211-2.816-198.516-12.471-20.395-2.817-40.79-5.229-59.146-.8-72.064,18.1-144.128,6.036-217.552,1.207-50.308-3.621-98.577,2.817-148.206,9.655-67.985,9.654-128.492-3.621-192.4-14.079-19.036-3.22-39.431-3.22-57.107,1.608-76.823,22.125-161.124,16.092-242.706,11.666C259.267,783,232.073,783,204.879,781.789c-27.874-1.205-55.747,0-83.543-.275H-21.073Z" fill="#fff"/>
      <path d="M-21.073,822.591H121.336c46.152-.549,91.7.658,137.931,1.864,10.2.4,20.395-.4,30.593.4,81.582,4.024,166.563,11.264,244.066-10.459,20.395-5.634,44.869-4.828,67.3-.8,46.23,8.85,91.1,18.907,140.049,14.884,99.938-8.448,193.757-17.7,294.374-3.217,36.712,5.23,70.7,0,104.7-8.448,23.114-6.036,48.949-3.219,74.1.4,61.186,9.254,121.013,16.9,182.879,10.461,53.028-5.632,103.337-4.425,154.993-2.409q9.324.219,18.624.221c43.43.04,86.9-3.023,130.667-2.895h248.869v-5.25H1706.028c-1.647.007-3.175.012-4.754.021-39.133.548-78.231,3.992-117.324,3.961-7.818-.008-15.636-.152-23.455-.487a909.335,909.335,0,0,0-158.4,2.815c-67.985,6.84-131.211-2.816-198.516-12.471-20.395-2.817-40.79-5.229-59.146-.8-72.064,18.1-144.128,6.035-217.552,1.207-50.308-3.621-98.577,2.817-148.206,9.655-67.985,9.655-128.492-3.621-192.4-14.079-19.036-3.221-39.431-3.221-57.107,1.607-76.823,22.127-161.124,16.093-242.706,11.667-27.194-1.609-54.388-1.609-81.582-2.816-27.874-1.206-55.747,0-83.543-.275H-21.073Z" fill="#fff"/>
    </g>
  </g>
  <g>
    <g>
      <polygon points="1920 1083.896 0.511 1083.896 0.511 797.122 213.787 727.861 500.003 849.599 928.614 701.219 1341.656 856.084 1728.4 716.935 1920 797.122 1920 1083.896" fill="#b5ba4f"/>
      <path d="M928.614,701.219s-103.508,66.423-66.83,85.291,292.08,234.824,343.039,297.386h504.413S1304.117,778.162,928.614,701.219Z" fill="#869144"/>
    </g>
    <path d="M1728.4,716.935s-15.852,85.833,10.623,104.7S1878.638,806.62,1920,797.122C1920,797.122,1804.738,740.126,1728.4,716.935Z" fill="#869144"/>
    <path d="M213.787,727.861s-21.422,17.022,12.634,33.491c46.332,22.406-16.358,124.19,51.8,131.206C335.018,898.405,500,849.6,500,849.6S289.243,741.618,213.787,727.861Z" fill="#869144"/>
  </g>
</svg>
