<svg xmlns="http://www.w3.org/2000/svg" xmlns:xlink="http://www.w3.org/1999/xlink" width="1920" height="1080" viewBox="0 0 1920 1080">
  <defs>
    <linearGradient id="a" data-name="Unbenannter Verlauf 788" x1="1076.525" y1="1077.297" x2="1076.525" y2="-7.299" gradientUnits="userSpaceOnUse">
      <stop offset="0.448" stop-color="#b7b7bd"/>
      <stop offset="0.608" stop-color="#bfc0c4"/>
      <stop offset="1" stop-color="#ced1d2"/>
    </linearGradient>
    <linearGradient id="b" x1="1076.525" y1="1022.995" x2="1076.525" y2="907.863" gradientUnits="userSpaceOnUse">
      <stop offset="0.273" stop-color="#00a1ef"/>
      <stop offset="0.366" stop-color="#07a4ef"/>
      <stop offset="0.502" stop-color="#1babee"/>
      <stop offset="0.665" stop-color="#3bb7ec"/>
      <stop offset="0.847" stop-color="#67c7e9"/>
      <stop offset="1" stop-color="#92d7e7"/>
    </linearGradient>
  </defs>
  <g>
    <rect x="-190.368" y="-7.299" width="2533.787" height="1084.596" fill="url(#a)"/>
    <polygon points="2512.671 530.837 2446.778 484.228 2446.463 482.857 2428.727 405.213 2422.773 399.611 2385.831 364.862 2293.897 388.4 2238.419 460.692 2150.32 516.55 2090.705 595.786 2088.801 593.669 2088.297 593.108 2107.718 447.887 2113.567 404.145 2090.866 348.741 2090.866 206.996 2090.862 206.996 2019.674 198.599 1745.004 572.717 1737.327 530.837 1671.433 484.228 1671.119 482.857 1653.383 405.213 1647.428 399.611 1610.486 364.862 1518.552 388.4 1463.074 460.692 1374.976 516.55 1254.939 663.109 1232.261 637.89 1231.929 637.52 1244.715 541.911 1248.565 513.113 1267.953 469.481 1296.618 344.486 1284.595 312.707 1186.625 383.316 1009.487 619.336 978.311 584.667 977.771 584.066 988.122 489.936 972.857 463.782 1004.797 381.961 1046.049 232.202 914.517 263.98 852.074 321.746 778.193 339.902 573.518 611.941 557.088 593.669 556.583 593.108 576.003 447.887 581.853 404.145 559.152 348.741 573.641 153.002 506.488 157.239 226.727 554.814 241.026 447.887 246.876 404.145 224.175 348.741 224.175 206.996 224.171 206.996 131.334 200.642 -144.411 479.451 -205.37 1058.514 2570.142 1058.514 2570.142 568.202 2512.671 530.837" fill="#a3a3a3"/>
    <polygon points="2276.998 670.276 2276.756 669.28 2263.093 612.94 2258.506 608.876 2230.048 583.662 2159.228 600.741 2116.492 653.197 2048.626 693.729 2001.949 743.073 2017.547 629.842 2022.37 595.868 2003.651 552.834 2003.651 442.741 2003.648 442.741 1944.791 442.741 1683.821 770.269 1670.942 704.096 1620.182 670.276 1619.941 669.28 1606.277 612.94 1601.691 608.876 1573.233 583.662 1502.413 600.741 1438.444 644.105 1395.028 691.806 1387.383 652.524 1317.858 606.203 1317.528 604.839 1298.815 527.673 1292.531 522.106 1253.555 487.572 1156.555 510.964 1098.02 582.81 1005.067 638.324 985.28 663.097 985.35 662.502 972.764 642.188 999.101 578.637 990.736 522.088 939.671 505.21 905.689 505.235 873.166 531.868 812.246 545.97 754.132 579.291 723.05 549.091 735.676 480.697 681.513 487.052 603.494 551.791 575.446 574.76 522.907 586.922 448.907 679.566 455.967 629.842 460.79 595.868 442.071 552.834 437.917 474.406 429.867 457.461 383.212 442.741 98.775 799.722 74.455 769.838 74.151 769.517 80.006 719.358 71.371 705.422 89.44 661.822 83.701 623.025 48.667 611.446 25.354 611.463 3.041 629.735 -38.754 639.409 -106.138 686.042 -190.368 709.1 -190.368 1022.995 2343.419 1022.995 2343.419 709.1 2276.998 670.276" fill="#544f50"/>
    <polygon points="356.998 666.529 356.756 665.534 343.093 609.194 338.506 605.13 310.048 579.916 239.228 596.995 196.492 649.451 128.626 689.982 81.949 739.326 97.547 626.096 102.37 592.122 83.651 549.088 83.651 438.994 83.648 438.994 24.792 438.994 -236.179 766.523 -249.058 700.349 -299.818 666.529 -300.059 665.534 -313.723 609.194 -318.309 605.13 -346.767 579.916 -417.587 596.995 -481.556 640.359 -524.972 688.06 -532.617 648.777 -602.142 602.456 -602.472 601.092 -621.185 523.926 -627.469 518.359 -666.445 483.826 -763.445 507.218 -821.98 579.064 -914.933 634.578 -934.72 659.35 -934.65 658.756 -947.236 638.442 -920.899 574.891 -929.264 518.342 -980.329 501.464 -1014.311 501.488 -1046.834 528.122 -1107.754 542.223 -1165.868 575.545 -1196.95 545.345 -1184.324 476.951 -1238.487 483.306 -1316.506 548.045 -1344.554 571.013 -1397.093 583.175 -1471.092 675.819 -1464.033 626.096 -1459.21 592.122 -1477.929 549.088 -1482.083 470.66 -1490.133 453.715 -1536.788 438.994 -1821.225 795.976 -1845.544 766.092 -1845.849 765.771 -1839.994 715.612 -1848.629 701.675 -1830.56 658.075 -1836.299 619.279 -1871.333 607.7 -1894.646 607.716 -1916.959 625.988 -1958.754 635.663 -2026.138 682.296 -2110.368 705.354 -2110.368 1019.249 423.419 1019.249 423.419 705.354 356.998 666.529" fill="#544f50"/>
    <g>
      <g>
        <g>
          <g>
            <polygon points="1934.445 836.744 1945.056 810.061 1970.967 781.473 1973.55 707.145 2111.214 449.853 2052.358 449.853 1732.951 907.863 1800.206 907.863 1846.443 907.863 1894.504 855.802 1934.445 836.744" fill="#e6e7e8"/>
            <polygon points="2067.033 824.378 2125.112 663.625 2129.935 624.808 2111.217 575.64 2111.217 449.853 2111.214 449.853 1973.55 707.145 1970.967 781.473 1945.056 810.061 1934.445 836.744 1894.504 855.802 1846.443 907.863 1962.836 907.863 1976.689 907.863 2018.072 844.367 2067.033 824.378" fill="#929497"/>
          </g>
          <polygon points="1950.716 737.638 1950.716 767.179 1933.399 780.52 1912.528 811.014 1922.082 765.273 1950.716 737.638" fill="#929497"/>
        </g>
        <g>
          <g>
            <polygon points="14.699 836.744 25.309 810.061 51.22 781.473 53.804 707.145 191.468 449.853 132.611 449.853 -186.795 907.863 -119.54 907.863 -73.304 907.863 -25.242 855.802 14.699 836.744" fill="#e6e7e8"/>
            <polygon points="218.171 826.988 189.768 792.996 189.352 792.497 205.366 663.625 147.286 824.378 98.325 844.367 56.943 907.863 248.735 907.863 218.171 826.988" fill="#6d6e70"/>
            <polygon points="147.286 824.378 205.366 663.625 210.189 624.808 191.471 575.64 191.471 449.853 191.468 449.853 53.804 707.145 51.22 781.473 25.309 810.061 14.699 836.744 -25.242 855.802 -73.304 907.863 43.089 907.863 56.943 907.863 98.325 844.367 147.286 824.378" fill="#929497"/>
          </g>
          <polygon points="30.97 737.638 30.97 767.179 13.653 780.52 -7.218 811.014 2.336 765.273 30.97 737.638" fill="#929497"/>
          <polygon points="68.443 743.594 68.443 712.624 84.514 680.525 84.514 714.292 68.443 743.594" fill="#e6e7e8"/>
          <path d="M108.823,818.638c1.252,0,27.132-6.671,27.967-10.482S157.66,764.8,157.66,764.8s-27.967,13.817-29.219,17.629S108.823,818.638,108.823,818.638Z" fill="#6d6e70"/>
        </g>
        <g>
          <g>
            <polygon points="284.458 855.018 302.234 824.303 310.405 802.329 346.449 766.178 428.698 723.207 498.76 640.886 470.432 612.208 399.932 631.633 357.389 691.294 289.831 737.393 170.656 907.863 207.642 907.863 256.502 863.342 284.458 855.018" fill="#e6e7e8"/>
            <polygon points="567.699 749.185 517.169 710.72 516.928 709.587 503.327 745.361 478.637 818.438 450.984 855.018 383.463 907.863 594.728 907.863 567.699 749.185" fill="#6d6e70"/>
            <polygon points="478.637 818.438 503.327 745.361 516.928 709.587 503.327 645.508 498.76 640.886 428.698 723.207 346.449 766.178 310.405 802.329 302.234 824.303 284.458 855.018 256.502 863.342 207.642 907.863 383.463 907.863 450.984 855.018 478.637 818.438" fill="#929497"/>
          </g>
          <path d="M261.971,851.318l15.268-5.454,6.114-10.906,1.912-15.364-5.16.946s-15.287,17.908-15.1,20.307S261.971,851.318,261.971,851.318Z" fill="#929497"/>
          <polygon points="406.617 722.166 423.939 715.576 437.917 695.111 422.267 704.822 406.617 722.166" fill="#929497"/>
          <path d="M299.45,806.225l-3.444,11.793-4.863,6.244s-.81-9.018.811-10.407S299.45,806.225,299.45,806.225Z" fill="#929497"/>
          <polygon points="459.493 830.737 472.255 811.485 475.598 792.234 464.051 803.681 461.62 816.168 459.493 830.737" fill="#6d6e70"/>
          <polygon points="520.434 737.606 514.053 760.036 547.617 751.997 520.434 737.606" fill="#929497"/>
        </g>
        <g>
          <g>
            <polygon points="1469.628 851.039 1488.741 818.011 1497.527 794.382 1536.287 755.51 1624.727 709.303 1700.066 620.783 1669.604 589.947 1593.796 610.835 1548.05 674.988 1475.404 724.559 1347.256 907.863 1387.027 907.863 1439.565 859.99 1469.628 851.039" fill="#e6e7e8"/>
            <polygon points="1774.194 737.237 1719.859 695.875 1719.6 694.658 1704.975 733.126 1678.426 811.705 1648.691 851.039 1576.086 907.863 1803.259 907.863 1774.194 737.237" fill="#6d6e70"/>
            <polygon points="1678.426 811.705 1704.975 733.126 1719.6 694.658 1704.975 625.755 1700.066 620.783 1624.727 709.303 1536.287 755.51 1497.527 794.382 1488.741 818.011 1469.628 851.039 1439.565 859.99 1387.027 907.863 1576.086 907.863 1648.691 851.039 1678.426 811.705" fill="#929497"/>
          </g>
          <path d="M1445.448,847.06l16.416-5.864,6.575-11.728,2.055-16.519-5.548,1.017s-16.437,19.256-16.232,21.836S1445.448,847.06,1445.448,847.06Z" fill="#929497"/>
          <polygon points="1600.984 708.185 1619.61 701.098 1634.641 679.091 1617.813 689.535 1600.984 708.185" fill="#929497"/>
          <path d="M1485.748,798.572l-3.7,12.682-5.227,6.713s-.873-9.7.871-11.189S1485.748,798.572,1485.748,798.572Z" fill="#929497"/>
          <polygon points="1657.841 824.928 1671.565 804.228 1675.158 783.528 1662.742 795.836 1660.128 809.264 1657.841 824.928" fill="#6d6e70"/>
          <polygon points="1723.37 724.787 1716.509 748.905 1752.601 740.261 1723.37 724.787" fill="#929497"/>
        </g>
        <g>
          <g>
            <polygon points="1136.298 817.151 1104.44 779.023 1063.255 813.437 1006.055 813.437 939.919 907.863 1170.579 907.863 1136.298 817.151" fill="#6d6e70"/>
            <path d="M1006.055,585.764,1065.02,502.4l-35.637.03-34.106,31.911-63.888,16.9L682.07,907.863h75.437c25.785-39.417,56.955-79.9,96.944-140.08,3.9-5.875,43.735-21.866,47.526-27.569,5.559-8.363,5.449-49.7,10.649-57.511,31.625-47.543,38.436-66.7,38.436-66.7Z" fill="#e6e7e8"/>
            <path d="M1063.255,813.437l41.185-34.414-.467-.559,8.95-87.6-13.2-24.34,27.62-76.146-8.771-67.756L1065.02,502.4l-58.965,83.366L951.062,616s-14.273,21.4-35.462,53.236c-10.3,15.475-12.583,51.683-25.31,70.826-9.648,14.513-29.41,11.451-39.6,26.8-35.032,52.766-71.082,107.213-93.184,141H939.919l66.136-94.426Z" fill="#929497"/>
          </g>
          <polygon points="1055.25 776.889 1038.323 796.539 1060.917 796.539 1084.088 775.926 1055.25 776.889" fill="#6d6e70"/>
          <path d="M895.374,688.224s-7.1,34.775-14.432,43.143-32.528,21.962-28.862,12.812S893.06,670.537,895.374,688.224Z" fill="#929497"/>
          <path d="M977.552,586.209s14.8-2.223,23.763-11.562,21.037-23.122,13.635-20.454S979.889,573.759,977.552,586.209Z" fill="#929497"/>
          <path d="M993.524,855.236s19.088-29.35,20.256-29.35h15.194S1013.78,854.558,993.524,855.236Z" fill="#929497"/>
        </g>
        <g>
          <g>
            <polygon points="1347.401 848.519 1326.559 823.576 1299.616 846.089 1262.195 846.089 1218.929 907.863 1369.827 907.863 1347.401 848.519" fill="#6d6e70"/>
            <path d="M1262.2,697.145l38.576-54.539-23.314.019L1255.145,663.5l-41.8,11.054L1050.243,907.863h49.351c16.868-25.787,37.261-52.269,63.422-91.64,2.552-3.844,28.611-14.306,31.092-18.037,3.637-5.471,3.564-32.511,6.966-37.623,20.69-31.1,25.144-43.637,25.144-43.637Z" fill="#e6e7e8"/>
            <path d="M1299.616,846.089l26.943-22.513-.305-.367,5.855-57.308-8.635-15.924,18.07-49.814-5.74-44.327-35.033-13.23L1262.2,697.145l-35.977,19.781s-9.337,14-23.2,34.828c-6.741,10.125-8.232,33.811-16.559,46.335-6.312,9.495-19.239,7.492-25.9,17.532-22.918,34.519-46.5,70.138-60.962,92.242h119.335l43.266-61.774Z" fill="#929497"/>
          </g>
          <polygon points="1294.379 822.179 1283.305 835.034 1298.087 835.034 1313.244 821.55 1294.379 822.179" fill="#6d6e70"/>
          <path d="M1189.787,764.174s-4.645,22.751-9.44,28.225-21.281,14.368-18.882,8.381S1188.273,752.6,1189.787,764.174Z" fill="#929497"/>
          <path d="M1243.548,697.436s9.685-1.455,15.547-7.564,13.762-15.127,8.92-13.381S1245.078,689.291,1243.548,697.436Z" fill="#929497"/>
          <path d="M1254,873.434s12.488-19.2,13.253-19.2h9.939S1267.25,872.991,1254,873.434Z" fill="#929497"/>
        </g>
      </g>
      <rect x="-190.368" y="907.863" width="2533.787" height="115.132" fill="url(#b)"/>
    </g>
    <g>
      <g>
        <g>
          <polygon points="297.959 17.163 290.127 26.34 271.002 36.173 269.095 61.738 167.478 150.233 210.923 150.233 446.692 -7.299 397.048 -7.299 362.919 -7.299 327.443 10.608 297.959 17.163" fill="#fff"/>
          <polygon points="147.767 20.518 168.732 32.209 169.039 32.381 157.218 76.706 200.091 21.416 236.231 14.541 266.777 -7.299 125.206 -7.299 147.767 20.518" fill="#6d6e70"/>
          <polygon points="200.091 21.416 157.218 76.706 153.658 90.057 167.476 106.969 167.476 150.233 167.478 150.233 269.095 61.738 271.002 36.173 290.127 26.34 297.959 17.163 327.443 10.608 362.919 -7.299 277.003 -7.299 266.777 -7.299 236.231 14.541 200.091 21.416" fill="#929497"/>
        </g>
        <polygon points="285.95 51.25 285.95 41.09 298.732 36.5 314.138 26.012 307.085 41.745 285.95 51.25" fill="#929497"/>
        <polygon points="258.288 49.201 258.288 59.853 246.426 70.893 246.426 59.28 258.288 49.201" fill="#e6e7e8"/>
        <path d="M228.482,23.39c-.924,0-20.028,2.295-20.644,3.605s-15.4,14.914-15.4,14.914S213.077,37.156,214,35.845,228.482,23.39,228.482,23.39Z" fill="#6d6e70"/>
      </g>
      <g>
        <g>
          <polygon points="1600.668 21.768 1575.949 38.662 1564.587 50.748 1514.464 70.632 1400.089 94.267 1302.661 139.544 1342.055 155.318 1440.091 144.634 1499.251 111.818 1593.197 86.463 1758.922 -7.299 1707.488 -7.299 1639.545 17.189 1600.668 21.768" fill="#fff"/>
          <polygon points="1206.795 79.978 1277.062 101.135 1277.398 101.757 1296.311 82.082 1330.645 41.887 1369.098 21.768 1462.993 -7.299 1169.209 -7.299 1206.795 79.978" fill="#6d6e70"/>
          <polygon points="1330.645 41.887 1296.311 82.082 1277.398 101.757 1296.311 137.002 1302.661 139.544 1400.089 94.267 1514.464 70.632 1564.587 50.748 1575.949 38.662 1600.668 21.768 1639.545 17.189 1707.488 -7.299 1462.993 -7.299 1369.098 21.768 1330.645 41.887" fill="#929497"/>
        </g>
        <path d="M1631.938,23.8l-21.23,3-8.5,6-2.659,8.45,7.175-.521s21.258-9.85,20.994-11.169S1631.938,23.8,1631.938,23.8Z" fill="#929497"/>
        <polygon points="1430.795 94.839 1406.708 98.464 1387.268 109.72 1409.033 104.378 1430.795 94.839" fill="#929497"/>
        <path d="M1579.823,48.605l4.787-6.487,6.762-3.434s1.125,4.96-1.128,5.723S1579.823,48.605,1579.823,48.605Z" fill="#929497"/>
        <polygon points="1357.266 35.123 1339.519 45.711 1334.871 56.3 1350.928 50.004 1354.308 43.135 1357.266 35.123" fill="#6d6e70"/>
        <polygon points="1272.521 86.347 1281.395 74.009 1234.72 78.432 1272.521 86.347" fill="#929497"/>
      </g>
      <g>
        <g>
          <polygon points="788.878 16.029 766.301 29.586 755.922 39.286 710.141 55.242 605.675 74.21 516.685 110.548 552.667 123.206 642.211 114.631 696.246 88.297 782.055 67.947 933.422 -7.299 886.444 -7.299 824.387 12.354 788.878 16.029" fill="#fff"/>
          <polygon points="429.125 62.744 493.307 79.723 493.612 80.222 510.887 64.431 542.246 32.175 577.369 16.029 663.129 -7.299 394.795 -7.299 429.125 62.744" fill="#6d6e70"/>
          <polygon points="542.246 32.175 510.887 64.431 493.612 80.222 510.887 108.508 516.685 110.548 605.675 74.21 710.141 55.242 755.922 39.286 766.301 29.586 788.878 16.029 824.387 12.354 886.444 -7.299 663.129 -7.299 577.369 16.029 542.246 32.175" fill="#929497"/>
        </g>
        <path d="M817.439,17.662l-19.391,2.405-7.767,4.816-2.427,6.781,6.554-.417s19.416-7.906,19.173-8.964S817.439,17.662,817.439,17.662Z" fill="#929497"/>
        <polygon points="633.72 74.67 611.72 77.579 593.964 86.613 613.842 82.325 633.72 74.67" fill="#929497"/>
        <path d="M769.837,37.565l4.374-5.2,6.176-2.757s1.029,3.981-1.03,4.594S769.837,37.565,769.837,37.565Z" fill="#929497"/>
        <polygon points="566.561 26.747 550.351 35.243 546.106 43.741 560.773 38.689 563.86 33.176 566.561 26.747" fill="#6d6e70"/>
        <polygon points="489.158 67.854 497.263 57.954 454.632 61.502 489.158 67.854" fill="#929497"/>
      </g>
      <g>
        <g>
          <polygon points="908.036 22.453 935.435 34.958 970.855 23.671 1020.049 23.671 1076.928 -7.299 878.554 -7.299 908.036 22.453" fill="#6d6e70"/>
          <path d="M1020.049,98.342l-50.711,27.342,30.648-.01,29.333-10.466,54.945-5.542L1298.686-7.3h-64.879c-22.175,12.928-48.982,26.205-83.373,45.943-3.358,1.927-37.615,7.172-40.874,9.042-4.782,2.743-4.687,16.3-9.159,18.862-27.2,15.593-33.056,21.876-33.056,21.876Z" fill="#fff"/>
          <path d="M970.855,23.671l-35.42,11.287.4.183-7.7,28.731,11.351,7.983L915.737,96.829l7.543,22.222,46.058,6.633,50.711-27.342,47.3-9.918s12.274-7.02,30.5-17.46c8.861-5.075,10.821-16.951,21.767-23.229,8.3-4.76,25.294-3.756,34.056-8.789C1183.8,21.64,1214.8,3.783,1233.807-7.3H1076.928l-56.879,30.97Z" fill="#929497"/>
        </g>
        <polygon points="977.74 35.658 992.297 29.213 972.866 29.213 952.939 35.973 977.74 35.658" fill="#6d6e70"/>
        <path d="M1115.238,64.738s6.108-11.406,12.412-14.15,27.975-7.2,24.822-4.2S1117.228,70.538,1115.238,64.738Z" fill="#929497"/>
        <path d="M1044.562,98.2s-12.731.729-20.436,3.792-18.093,7.584-11.726,6.708S1042.552,102.279,1044.562,98.2Z" fill="#929497"/>
        <path d="M1030.827,9.962s-16.418,9.625-17.422,9.625h-13.067A58.623,58.623,0,0,1,1030.827,9.962Z" fill="#929497"/>
      </g>
      <g>
        <g>
          <polygon points="1727.902 22.453 1750.326 34.958 1779.314 23.671 1819.576 23.671 1866.127 -7.299 1703.772 -7.299 1727.902 22.453" fill="#6d6e70"/>
          <path d="M1819.576,98.342l-41.5,27.342,25.082-.01,24.008-10.466,44.968-5.542L2047.618-7.3h-53.1c-18.149,12.928-40.09,26.205-68.236,45.943-2.748,1.927-30.785,7.172-33.453,9.042-3.912,2.743-3.835,16.3-7.5,18.862-22.26,15.593-27.053,21.876-27.053,21.876Z" fill="#fff"/>
          <path d="M1779.314,23.671l-28.988,11.287.329.183-6.3,28.731,9.291,7.983L1734.2,96.829l6.174,22.222,37.7,6.633,41.5-27.342,38.708-9.918s10.046-7.02,24.961-17.46c7.251-5.075,8.856-16.951,17.813-23.229,6.792-4.76,20.7-3.756,27.873-8.789,24.66-17.306,50.034-35.163,65.591-46.245H1866.127l-46.551,30.97Z" fill="#929497"/>
        </g>
        <polygon points="1784.949 35.658 1796.863 29.213 1780.96 29.213 1764.651 35.973 1784.949 35.658" fill="#6d6e70"/>
        <path d="M1897.48,64.738s5-11.406,10.159-14.15,22.9-7.2,20.316-4.2S1899.108,70.538,1897.48,64.738Z" fill="#929497"/>
        <path d="M1839.638,98.2s-10.419.729-16.726,3.792-14.807,7.584-9.6,6.708S1837.993,102.279,1839.638,98.2Z" fill="#929497"/>
        <path d="M1828.4,9.962s-13.436,9.625-14.259,9.625h-10.693S1814.138,10.185,1828.4,9.962Z" fill="#929497"/>
      </g>
      <g>
        <g>
          <path d="M-100.424,98.342l-41.5,27.342,25.082-.01,24.008-10.466,44.968-5.542L127.618-7.3h-53.1C56.373,5.629,34.432,18.906,6.286,38.644,3.538,40.571-24.5,45.816-27.167,47.686c-3.912,2.743-3.835,16.3-7.5,18.862-22.26,15.593-27.053,21.876-27.053,21.876Z" fill="#fff"/>
          <path d="M-140.686,23.671l-28.988,11.287.329.183-6.3,28.731,9.291,7.983L-185.8,96.829l6.174,22.222,37.7,6.633,41.5-27.342,38.708-9.918s10.046-7.02,24.961-17.46C-29.5,65.889-27.9,54.013-18.942,47.735c6.792-4.76,20.7-3.756,27.873-8.789C33.591,21.64,58.965,3.783,74.522-7.3h-128.4l-46.551,30.97Z" fill="#929497"/>
        </g>
        <path d="M-22.52,64.738s5-11.406,10.159-14.15,22.9-7.2,20.316-4.2S-20.892,70.538-22.52,64.738Z" fill="#929497"/>
      </g>
    </g>
    <g>
      <g>
        <rect x="-58.623" y="905.446" width="1983.319" height="171.851" fill="#d6c2ad"/>
        <path d="M1924.7,993.074h-188.45c-74.949,0-137.892-27.148-172.755-3.627-44.545,33.6-154.939,47.04-205.3,33.6-67.787-16.8-200.455-50.211-301.166-50.211s-286.64,55.36-373.794,55.36-134.605-30.351-299.229-43.791c-91.027-6.721-57.316,18.673-148.879,8.86-5.783,0-82.563-.192-200.549-.192h-93.2V860.359H82.429c33.982,0,74.009,26.045,97.251,12.605,32.924-13.44,52.291-28,85.216-14.558,60.039,23.519,118.143-10.082,176.245,0,36.8,6.718,77.47,6.718,116.2,0,23.241-6.721,44.546,10.079,65.85,6.718,31.1-5.533,62.2-5.94,93.306-4.972q3.333.1,6.665.226c10.425-1.972,16.234,14.828,22.045,14.828,36.8,6.719,73.6-13.439,109.814-14.9,1.743-.627,3.486-1.371,5.229-2.192,13.946-6.561,27.889-17.85,41.834-9.787,15.495,10.082,30.988,30.239,46.483,26.882a189.213,189.213,0,0,1,54.228-14.7c1.971-.2,3.939-.385,5.99-.434,28.873,8.412,57.924,8.412,88.911-5.028,9.684-3.36,21.305,3.361,30.99,3.361,15.492,3.361,32.924-16.8,50.355-6.721,15.493,6.721,29.051,13.439,44.546,13.439,27.113,6.721,52.292,3.361,79.406,0,7.747,0,15.495-6.718,23.24-6.718,44.061-5.881,88.124,8.818,133.482-.919,2.178-.456,4.36-.969,6.587-1.523,67.165,9.16,138.824,12.521,204.675,12.521,48.419,0,90.55,10.092,122.31,10.092s43.836-18.218,75.033-18.218H1924.7Z" fill="#f4edcb"/>
        <g>
          <path d="M787.08,890.054c10.424-1.973,16.235,14.827,22.044,14.827,36.8,6.719,73.6-13.439,109.816-14.9,1.743-.627,3.485-1.371,5.228-2.192,1.524-.715,3.048-1.5,4.572-2.294-8.883-6.075-17.767-15.153-26.651-20.933-13.945-8.063-27.888,3.227-41.834,9.787-1.743.821-3.486,1.566-5.229,2.192-22.6.914-45.42,9.1-68.328,13.5C786.825,890.044,786.952,890.051,787.08,890.054Z" fill="#ddd08e"/>
          <path d="M1012.484,904.881a189.331,189.331,0,0,1,54.23-14.7c1.971-.2,3.94-.384,5.99-.434,28.871,8.412,57.923,8.412,88.911-5.028,9.684-3.36,21.305,3.361,30.987,3.361,8.582,1.861,17.759-3.485,27.2-6.922-13.944-.977-26.545-7.072-40.755-13.239-17.431-10.078-34.863,10.082-50.355,6.722-9.685,0-21.306-6.722-30.99-3.362-30.987,13.44-60.038,13.44-88.911,5.028-2.051.051-4.019.23-5.99.434a191.7,191.7,0,0,0-30.2,6.071C985.892,893.339,999.188,907.767,1012.484,904.881Z" fill="#ddd08e"/>
          <path d="M1287.5,894.8c27.116,6.72,52.293,3.36,79.409,0,7.745,0,15.493-6.719,23.24-6.719,44.061-5.881,88.122,8.818,133.481-.919,2.179-.456,4.361-.969,6.588-1.522,67.164,9.16,138.824,12.52,204.674,12.52,48.419,0,90.551,10.092,122.31,10.092,29.064,0,37.956-17.837,67.491-17.837V876.6h-56.371c-31.2,0-43.272,18.214-75.033,18.214s-73.891-10.089-122.31-10.089c-65.851,0-137.51-3.36-204.675-12.52-2.227.555-4.409,1.067-6.587,1.522-45.358,9.738-89.421-4.962-133.482.92-7.745,0-15.493,6.718-23.24,6.718-17.6,2.183-34.383,4.345-51.409,3.767C1263.658,890.379,1274.954,894.8,1287.5,894.8Z" fill="#ddd08e"/>
          <path d="M328.809,888.081c60.04,23.519,118.142-10.079,176.245,0,36.8,6.719,77.47,6.719,116.206,0,23.24-6.721,44.545,10.079,65.849,6.719a365.335,365.335,0,0,1,54.514-5.166c-4.779-4.274-10.153-14.593-18.456-13.02q-3.333-.123-6.665-.226c-31.1-.968-62.2-.562-93.306,4.972-21.3,3.36-42.609-13.44-65.85-6.718-38.735,6.718-79.406,6.718-116.2,0-43.418-7.536-86.834,9.318-131.06,8.506A69.674,69.674,0,0,1,328.809,888.081Z" fill="#ddd08e"/>
          <path d="M243.592,902.64c23.1-9.426,39.533-19.367,58.646-19.846a124.589,124.589,0,0,1-37.342-8.152c-32.925-13.44-52.292,1.12-85.216,14.558a29.155,29.155,0,0,1-11.663,3.611C196.175,899.132,225.161,913.3,243.592,902.64Z" fill="#ddd08e"/>
          <path d="M142.99,890.035c-19.269-4.75-40.921-13.44-60.561-13.44H-58.623v13.44Z" fill="#ddd08e"/>
        </g>
        <path d="M1562.508,971.457c-51.811,7.532-153.956,36.527-204.312,23.084-67.787-16.8-200.455-35.147-301.166-35.147s-286.64,55.363-373.794,55.363S550.41,985.229,384.007,970.966c-122.55-10.5-170.513,7.186-188.421,7.186-5.782,0-43.021,1.482-161.007,1.482h-93.2v16.8h93.2c122.492,0,171.044.6,184.571.6,55.3,2.258,74.8,7.535,165.825,14.254,164.625,13.438,211.107,42.005,298.261,42.005s271.146-45.609,371.857-45.609,242.1,8.723,309.882,25.523c50.356,13.44,174.916-22.971,209.733-32.456s70.9-4.315,161.538-4.315H1924.7v-16.8h-188.45C1661.3,979.634,1614.318,963.925,1562.508,971.457Z" fill="#b29c88"/>
        <path d="M1905.329,939.224c-47.774,0-151.067,8.4-191.739,10.269s-108.459-10.269-132.668-13.63-110.9,32.069-146.73,39.779-160.85-12.664-233.763-38.778-260.894-11.425-297.694,0-169.8,53.2-230.474,50.345-252.424-56-279.539-59.364-76.219,7.211-95.869,6.788c-24.761-.533-108.173,36.824-156.194,18.412-30.225-11.589-98-13.821-129.477-13.821h-69.8v43.948h93.2c117.986,0,143.9-1.393,185.7-5.02,26.216-10.879,72.7-10.369,163.726-3.648,164.624,13.44,212.075,43.791,299.229,43.791s273.081-55.363,373.794-55.363,233.379,18.347,301.166,35.147c50.356,13.439,151.533,8.334,198.5-14.906,45.869-18.411,104.6,0,179.549,0H1924.7V939.224Z" fill="#ddd08e"/>
        <polygon points="-21.26 1034.387 -15.207 1044.466 -2.86 1041.525 10.213 1020.107 2.708 1018.295 -18.596 1024.304 -21.26 1034.387" fill="#e5d3bd"/>
        <polygon points="-8.509 1054.087 12.795 1049.365 30.226 1051.728 40.555 1062.078 16.024 1070.586 1.819 1062.078 -8.509 1054.087" fill="#c7b29e"/>
        <polygon points="12.472 1028.197 7.308 1038.167 16.024 1041.525 16.024 1034.862 12.472 1028.197" fill="#c7b29e"/>
        <polygon points="4.24 1004.567 -10.769 1007.682 -14.965 1012.965 -0.279 1012.965 4.24 1004.567" fill="#c7b29e"/>
        <polygon points="13.118 1007.682 11.666 1012.965 26.675 1039.425 36.602 1039.425 51.611 1034.862 54.274 1008.764 37.328 1004.567 13.118 1007.682" fill="#e5d3bd"/>
        <polygon points="73.157 1012.965 62.183 1021.998 66.379 1031.826 74.449 1034.862 79.613 1028.197 73.157 1012.965" fill="#c7b29e"/>
        <polygon points="104.307 1020.944 97.529 1029.647 104.307 1045.161 108.826 1047.261 121.738 1033.934 114.637 1018.702 104.307 1020.944" fill="#c7b29e"/>
        <path d="M106.329,1054.432s13.522,9.553,13.348,11.358-6.066,3.3-6.673,3.907-12.57-4.661-12.57-4.661l1.561-6.768Z" fill="#c7b29e"/>
        <polygon points="1175.897 1041.033 1170.733 1051.003 1179.449 1054.363 1179.449 1047.698 1175.897 1041.033" fill="#c7b29e"/>
        <polygon points="1202.689 1033.271 1191.715 1042.299 1195.91 1052.132 1203.981 1055.168 1209.146 1048.502 1202.689 1033.271" fill="#c7b29e"/>
        <polygon points="1241.426 1039.115 1234.647 1047.82 1241.426 1063.333 1245.944 1065.434 1258.858 1052.105 1251.755 1036.875 1241.426 1039.115" fill="#c7b29e"/>
        <path d="M1272.689,1045.894l20.488,15.324,17.806,10.259,9.268-17.138-12.44-20.945s-13.172.1-14.148,0-6.828,1.584-6.828,1.584Z" fill="#c7b29e"/>
        <polygon points="1585.322 1055.716 1597.492 1050.308 1607.666 1050.926 1614.003 1058.54 1600.094 1067.254 1591.578 1061.418 1585.322 1055.716" fill="#c7b29e"/>
        <polygon points="1598.458 1033.139 1593.733 1043.74 1602.566 1045.975 1602.285 1039.33 1598.458 1033.139" fill="#c7b29e"/>
        <polygon points="1576.253 1055.112 1570.517 1057.252 1572.658 1061.89 1574.866 1062.451 1578.898 1058.352 1576.253 1055.112" fill="#c7b29e"/>
        <path d="M1627.417,1051.914l16.627,13.191,5.744-13.624s-3.441-6.523-3.887-6.381-12.055-.195-12.055-.195Z" fill="#c7b29e"/>
        <polygon points="1426.289 1060.059 1432.754 1069.334 1444.942 1064.824 1457.068 1041.786 1449.506 1040.942 1428.515 1049.662 1426.289 1060.059" fill="#c7b29e"/>
        <polygon points="1335.988 1064.635 1342.453 1073.909 1354.641 1069.397 1366.767 1046.36 1359.205 1045.517 1338.214 1054.237 1335.988 1064.635" fill="#c7b29e"/>
        <polygon points="1324.435 1042.035 1326.861 1045.517 1331.435 1043.823 1335.988 1035.176 1333.148 1034.857 1325.269 1038.132 1324.435 1042.035" fill="#c7b29e"/>
        <polygon points="1325.307 1058.198 1328.227 1060.24 1332.292 1056.216 1335.115 1045.586 1332.356 1046.77 1325.42 1054.04 1325.307 1058.198" fill="#c7b29e"/>
        <polygon points="1468.055 1039.1 1489.021 1029.786 1506.544 1030.849 1517.459 1043.964 1493.502 1058.976 1478.83 1048.927 1468.055 1039.1" fill="#e5d3bd"/>
        <polygon points="1368.443 1052.929 1389.472 1045.12 1406.964 1045.434 1417.739 1055.256 1393.663 1067.558 1379.107 1060.214 1368.443 1052.929" fill="#e5d3bd"/>
        <polygon points="1534.289 1020.808 1529.564 1031.412 1538.399 1033.648 1538.116 1026.998 1534.289 1020.808" fill="#c7b29e"/>
        <polygon points="1462.803 1059.938 1457.068 1062.081 1459.209 1066.718 1461.417 1067.279 1465.449 1063.181 1462.803 1059.938" fill="#c7b29e"/>
        <path d="M1520.369,1050.358l26.8,21.264,9.258-21.967s-5.545-10.512-6.265-10.282-19.432-.315-19.432-.315Z" fill="#e5d3bd"/>
        <polygon points="1658.33 1010.176 1647.77 1020.589 1652.371 1029.854 1660.55 1031.847 1665.417 1024.537 1658.33 1010.176" fill="#c7b29e"/>
        <polygon points="1610.22 995.577 1599.663 1005.992 1604.263 1015.256 1612.442 1017.248 1617.308 1009.94 1610.22 995.577" fill="#c7b29e"/>
        <polygon points="1624.341 1019.867 1612.273 1022.26 1614.411 1033.914 1621.483 1041.309 1627.613 1037.902 1624.341 1019.867" fill="#c7b29e"/>
        <polygon points="1636.606 1009.146 1624.539 1011.537 1626.677 1023.196 1633.749 1030.589 1639.878 1027.18 1636.606 1009.146" fill="#c7b29e"/>
        <path d="M1699.208,1025.393l21.234,12.747,18.323,8.009,8.575-18.407-13.392-19.435s-13.225,1.8-14.211,1.824-6.788,2.475-6.788,2.475Z" fill="#e5d3bd"/>
        <path d="M1675.4,1030.927s25.865,14.51,25.688,17.9-11,7.587-12.083,8.851-23.709-5.661-23.709-5.661l2.36-12.935Z" fill="#c7b29e"/>
        <polygon points="1918.121 1046.362 1918.197 1055.627 1899.49 1050.557 1889.494 1027.245 1895.603 1026.589 1918.036 1035.982 1918.121 1046.362" fill="#c7b29e"/>
        <polygon points="1862.286 1050.814 1841.319 1041.496 1823.797 1042.559 1812.881 1055.678 1836.838 1070.689 1851.51 1060.636 1862.286 1050.814" fill="#c7b29e"/>
        <polygon points="1886.897 1035.03 1891.622 1045.631 1882.787 1047.865 1883.071 1041.216 1886.897 1035.03" fill="#c7b29e"/>
        <polygon points="1908.342 1057.097 1919.702 1059.783 1919.757 1064.413 1909.435 1064.476 1906.456 1060.242 1908.342 1057.097" fill="#c7b29e"/>
        <path d="M1884.892,1016.029l-26.8,21.264-9.258-21.966s5.546-10.513,6.264-10.283,19.433-.314,19.433-.314Z" fill="#c7b29e"/>
        <polygon points="1827.025 1012.066 1837.583 1022.48 1832.983 1031.744 1824.805 1033.737 1819.938 1026.428 1827.025 1012.066" fill="#e5d3bd"/>
        <polygon points="1807.935 1011.863 1814.324 1021.413 1806.904 1036.018 1802.31 1037.531 1789.999 1022.588 1797.729 1008.302 1807.935 1011.863" fill="#e5d3bd"/>
        <path d="M1788.1,1040.233l-17.982,10.8-15.519,6.78-7.261-15.591,11.341-16.456s11.2,1.528,12.034,1.544a46.38,46.38,0,0,1,5.749,2.1Z" fill="#c7b29e"/>
        <path d="M1786.829,1045.661s-16.671,9.351-16.556,11.538,7.091,4.891,7.787,5.7,15.281-3.646,15.281-3.646l-1.522-8.337Z" fill="#c7b29e"/>
        <polygon points="177.258 1012.15 170.964 1020 185.005 1035.678 189.363 1027.142 177.258 1012.15" fill="#c7b29e"/>
        <polygon points="198.078 1036.067 192.268 1045.589 201.467 1052.864 207.278 1044.186 198.078 1036.067" fill="#c7b29e"/>
        <polygon points="199.773 1008.88 199.773 1018.676 232.698 1047.514 257.392 1030.717 260.297 1016.227 222.045 1010.438 199.773 1008.88" fill="#c7b29e"/>
        <polygon points="215.428 1058.185 223.659 1066.863 215.428 1070.228 211.555 1060.706 215.428 1058.185" fill="#c7b29e"/>
        <polygon points="236.936 1053.527 234.942 1060.88 232.698 1065.205 243.169 1065.205 246.909 1056.915 244.665 1045.307 237.934 1046.969 236.936 1053.527" fill="#c7b29e"/>
        <polygon points="287.169 1025.701 278.453 1025.701 280.713 1040.263 287.169 1040.263 290.72 1037.037 287.169 1025.701" fill="#c7b29e"/>
        <polygon points="273.611 1047.135 264.573 1054.417 264.573 1063.376 271.351 1063.376 273.611 1057.076 273.611 1047.135" fill="#c7b29e"/>
        <path d="M394.591,1037.048s-16.5,9.413-16.73,12.159.9,8.236,1.13,10,8.818,11.179,8.818,11.179H407.7s11.077-10.982,11.982-11.179,0-20.2,0-20.2l-14.243-1.962-6.483,7.062Z" fill="#c7b29e"/>
        <polygon points="396.596 1021.929 402.834 1028.079 410.153 1025 410.153 1018.568 396.596 1021.929" fill="#b29c88"/>
        <path d="M361.606,1057.366s5.819,9.89,6.518,9.386-4.889,5.554-4.889,5.554l-6.75-2.018v-7.268Z" fill="#c7b29e"/>
        <path d="M287.007,1050.869c1.937,1.18,11.621,9.154,11.621,9.154h15.18l2.251,4.9-5.811,2.8h-21.3l-11.3-8.431,6.778-8.426Z" fill="#c7b29e"/>
        <polygon points="433.343 1063.046 443.889 1047.435 458.624 1032.024 469.613 1027.677 475.357 1037.65 475.357 1050.004 464.119 1064.408 452.131 1067.193 438.644 1070.354 433.343 1063.046" fill="#e5d3bd"/>
        <path d="M529.586,1053.976v14.993l12.912,3.914s10.33-14,11.62-14.558-2.9-13.439-2.9-13.439H533.137Z" fill="#e5d3bd"/>
        <path d="M568.967,1058.884s8.716,11.207,10.329,8.4,13.235-13.759,13.235-13.759H579.3Z" fill="#e5d3bd"/>
        <path d="M607.7,1059.729s4.843,13.44,6.133,14,10.007-7,10.007-7-4.841-12.046-6.133-12.6S607.7,1059.729,607.7,1059.729Z" fill="#c7b29e"/>
        <polygon points="750.377 1055.969 762.642 1065.047 772.004 1055.969 750.377 1055.969" fill="#c7b29e"/>
        <path d="M851.088,1048.8l9.037,20.1s18.723-.508,19.691-1.623,29.374-28,29.374-28L868.519,1046Z" fill="#c7b29e"/>
        <path d="M939.959,1034s-17.754,12.7-17.754,15.59,6.214,19.057,6.214,19.057h10.208l33.953-9.237,3.106-28.875-16.644-6.469Z" fill="#c7b29e"/>
        <path d="M981.536,1063.618l-5.095,2.062s-1.7,4.584,0,4.911,8.3,0,8.3,0S983.7,1062.742,981.536,1063.618Z" fill="#c7b29e"/>
        <path d="M995.043,1058.987l1.322-17.68,11.7-3.928,8.871,10.805s.754,20.946-.944,21.113-13.021,4.421-13.021,4.421Z" fill="#e5d3bd"/>
        <polygon points="967.938 1022.49 983.433 1028.197 998.928 1022.49 967.938 1022.49" fill="#c7b29e"/>
        <polygon points="1014.663 1030.887 1032.579 1046.986 1056.303 1038.939 1060.419 1022.49 1040.81 1018.427 1025.558 1022.49 1014.663 1030.887" fill="#c7b29e"/>
        <path d="M1018.053,1018.427l-7.264,6.915-2.421-2.852s-2.905-5.744-2.178-6.164,11.863-3.361,11.863-3.361Z" fill="#c7b29e"/>
        <g>
          <path d="M40.555,1040.6l25.824,17.546,10.168-14.758s-5.084-7.972-5.811-7.875-19.367-2-19.367-2Z" fill="#c7b29e"/>
          <path d="M125.736,1037.12l27.113,14.443,23.564,9.669,12.267-16.151-16.462-19.742s-17.433.1-18.724,0-9.037,1.5-9.037,1.5Z" fill="#c7b29e"/>
          <polygon points="1142.165 1035.477 1148.217 1042.654 1160.565 1040.562 1173.638 1025.307 1166.133 1024.017 1144.828 1028.299 1142.165 1035.477" fill="#c7b29e"/>
          <polygon points="1152.817 1044.65 1147.007 1045.648 1148.944 1049.137 1151.123 1049.735 1155.318 1047.192 1152.817 1044.65" fill="#c7b29e"/>
          <polygon points="1134.419 1047.172 1123.446 1053.601 1127.64 1060.604 1135.712 1062.766 1140.875 1058.019 1134.419 1047.172" fill="#c7b29e"/>
          <polygon points="1154.108 1054.966 1143.133 1061.398 1147.329 1068.398 1155.399 1070.561 1160.565 1065.814 1154.108 1054.966" fill="#c7b29e"/>
          <polygon points="1565.082 1032.917 1571.546 1039.524 1583.735 1036.311 1595.861 1019.903 1588.299 1019.303 1567.307 1025.514 1565.082 1032.917" fill="#c7b29e"/>
          <polygon points="1677.42 1008.948 1671.031 1015.75 1678.451 1026.151 1683.045 1027.228 1695.355 1016.587 1687.626 1006.415 1677.42 1008.948" fill="#c7b29e"/>
          <path d="M314.607,1021.45c-1.615,0-11.944,19.145-11.944,19.145s7.425,15.951,17.755,17.945,33.892-.4,36.474-1.994,6.779-25.125,6.456-26.322-2.259-8.374-16.785-8.774S314.607,1021.45,314.607,1021.45Z" fill="#c7b29e"/>
          <path d="M361.411,1021.272l10.975,8.952,11.621-8.952s-6.134-8.194-7.747-7.8S361.411,1021.272,361.411,1021.272Z" fill="#c7b29e"/>
          <path d="M507.313,1030.224c-2.259.8-12.589-1.6-12.589,1.991s2.583,12.963,2.583,12.963l23.241,4.588V1037Z" fill="#c7b29e"/>
          <polygon points="494.724 1053.751 510.864 1059.297 494.724 1063.925 487.301 1062.129 494.724 1053.751" fill="#c7b29e"/>
          <path d="M1053.4,1035.308c-.726-1.5-22.756,9.711-22.756,9.711s2.663,15.415,3.39,15.415,17.187,7.35,19.366,6.664,26.147-5.767,26.147-5.767l-11.137-18.247-10.652-4.784Z" fill="#c7b29e"/>
        </g>
        <path d="M1088.716,1022.49s-11.487,14.153-11.11,15.133,9.039,17.968,9.039,17.968,14.121,12.415,17.323,11.434,17.7-22.24,17.7-22.24l-16.761-20.077Z" fill="#c7b29e"/>
        <polygon points="1082.935 1022.49 1071.556 1039.845 1064.777 1034.807 1072.524 1012.965 1082.935 1014.646 1082.935 1022.49" fill="#c7b29e"/>
        <path d="M613.513,962.565s96.838,26.882,189.8-16.8C803.315,945.764,681.3,969.286,613.513,962.565Z" fill="#ddd08e"/>
        <path d="M1366.294,948.805s67.786,33.6,116.2-10.079C1483.183,938.726,1432.033,962.224,1366.294,948.805Z" fill="#ddd08e"/>
        <path d="M1729.236,933.242c0,4.226-14.454,7.644-32.282,7.644s-32.278-3.418-32.278-7.644,14.453-7.635,32.278-7.635S1729.236,929.017,1729.236,933.242Z" fill="#ddd08e"/>
        <path d="M133.607,935.978s19.733,9.141,48.784,9.141S148.86,962.891,133.607,935.978Z" fill="#ddd08e"/>
      </g>
      <g>
        <path d="M1670.458,932.028s1.385-14.907,3.773-18.4,1.717-7.763,3.648-10.512c3.138-4.471,2.011-1.3,4.1-4.657l6.183-9.945s4.316-2.892,6.706-2.983c7.964-.3,12.994,46.5,12.994,46.5Z" fill="#929497"/>
        <path d="M1678.175,920.4c3.222-3.1,2.56-8.812,4.8-11.623,1.331-1.673,3.913-.062,6-3.419s1.834-4.845,4.715-9.883c1.493-2.611,4.277-1.86,6.72-2.385-1.628-4.58-3.447-8.7-5.5-8.618a20.607,20.607,0,0,0-7.112,2.238c-.9.559-4.2,7.272-6.287,10.63s-2.622,1.416-4.4,5.492c-2.631,6.036-1.172,6.307-3.558,9.8s-3.092,19.394-3.092,19.394h4.7C1675.8,927.756,1676.83,921.7,1678.175,920.4Z" fill="#e6e7e8"/>
        <path d="M1704.372,908.781s-1.174,6.838-2.589,9.075-3.693.063-5.423,2.548-1.257,4.849-3.615,6.59-2.594,1.552-4.323.559c-1.871-1.075-4.252,3.334-4.42,4.475h23.859S1706.612,920.4,1704.372,908.781Z" fill="#6d6e70"/>
        <path d="M1689.575,899.581s-1.414,4.6-2.357,4.848-2.62.994-2.934,0S1687.337,900.007,1689.575,899.581Z" fill="#929497"/>
        <path d="M1697.5,895.666c-.315-1.587,1.846-.84,2.553,0s1.258,4.381,1.258,4.381a4.383,4.383,0,0,1-1.907-2.192C1699.111,896.6,1697.814,897.251,1697.5,895.666Z" fill="#6d6e70"/>
        <path d="M1693.565,921.991c.347.2-.835,2.759-2.52,3.379-.457.169-1.193.818-1.3-.411a2.833,2.833,0,0,1,1.5-2.463A4.61,4.61,0,0,1,1693.565,921.991Z" fill="#6d6e70"/>
      </g>
      <g>
        <path d="M688.5,964.634s1.385-14.907,3.772-18.4,1.718-7.763,3.648-10.512c3.139-4.471,2.012-1.3,4.1-4.657l6.183-9.945s4.317-2.892,6.707-2.983c7.963-.3,12.994,46.5,12.994,46.5Z" fill="#929497"/>
        <path d="M696.219,953.01c3.221-3.1,2.56-8.811,4.8-11.623,1.33-1.673,3.913-.062,6-3.419s1.834-4.845,4.715-9.883c1.493-2.611,4.277-1.86,6.719-2.385-1.628-4.58-3.447-8.7-5.5-8.618a20.593,20.593,0,0,0-7.112,2.238c-.9.559-4.2,7.272-6.288,10.63s-2.621,1.416-4.4,5.492c-2.631,6.036-1.171,6.307-3.558,9.8s-3.091,19.394-3.091,19.394h4.7C693.846,960.362,694.874,954.305,696.219,953.01Z" fill="#e6e7e8"/>
        <path d="M722.416,941.387s-1.175,6.838-2.589,9.075-3.694.063-5.423,2.548-1.257,4.849-3.615,6.59-2.594,1.552-4.323.56c-1.871-1.076-4.252,3.333-4.42,4.474h23.859S724.655,953.01,722.416,941.387Z" fill="#6d6e70"/>
        <path d="M707.619,932.187s-1.415,4.6-2.357,4.848-2.621.994-2.935,0S705.38,932.613,707.619,932.187Z" fill="#929497"/>
        <path d="M715.544,928.271c-.315-1.586,1.846-.839,2.553,0s1.259,4.382,1.259,4.382a4.383,4.383,0,0,1-1.907-2.192C717.154,929.2,715.857,929.857,715.544,928.271Z" fill="#6d6e70"/>
        <path d="M711.609,954.6c.347.2-.835,2.759-2.521,3.379-.456.169-1.193.818-1.3-.411a2.834,2.834,0,0,1,1.5-2.463A4.61,4.61,0,0,1,711.609,954.6Z" fill="#6d6e70"/>
      </g>
      <ellipse cx="651.59" cy="944.034" rx="26.026" ry="6.496" fill="#ddd08e"/>
      <g>
        <path d="M631.849,944.177s1.109-11.935,3.021-14.73,1.375-6.215,2.92-8.416c2.513-3.58,1.611-1.04,3.282-3.728s4.951-7.962,4.951-7.962,3.455-2.316,5.368-2.389c6.377-.244,10.4,37.225,10.4,37.225Z" fill="#929497"/>
        <path d="M638.027,934.871c2.58-2.484,2.05-7.055,3.843-9.306,1.064-1.339,3.132-.05,4.8-2.737s1.468-3.88,3.775-7.913c1.2-2.09,3.424-1.489,5.379-1.909-1.3-3.667-2.759-6.962-4.4-6.9a16.5,16.5,0,0,0-5.694,1.793c-.724.447-3.364,5.822-5.034,8.511s-2.1,1.133-3.522,4.4c-2.107,4.832-.938,5.049-2.849,7.845s-2.475,15.526-2.475,15.526h3.761C636.128,940.757,636.951,935.908,638.027,934.871Z" fill="#e6e7e8"/>
        <path d="M659,925.565s-.941,5.474-2.073,7.266-2.958.05-4.342,2.04-1.007,3.883-2.894,5.276-2.077,1.243-3.461.448c-1.5-.861-3.4,2.669-3.539,3.582h19.1S660.794,934.871,659,925.565Z" fill="#6d6e70"/>
        <path d="M647.155,918.2s-1.132,3.684-1.888,3.882-2.1.8-2.349,0S645.362,918.54,647.155,918.2Z" fill="#929497"/>
        <path d="M653.5,915.065c-.252-1.27,1.478-.672,2.044,0s1.007,3.507,1.007,3.507a3.508,3.508,0,0,1-1.526-1.754C654.789,915.812,653.751,916.334,653.5,915.065Z" fill="#6d6e70"/>
        <path d="M650.349,936.142c.278.155-.668,2.208-2.017,2.7-.366.135-.956.654-1.045-.329a2.268,2.268,0,0,1,1.2-1.972A3.689,3.689,0,0,1,650.349,936.142Z" fill="#6d6e70"/>
      </g>
      <path d="M147.488,917.567c0,2.808-13.369,5.085-29.86,5.085s-29.859-2.277-29.859-5.085,13.368-5.085,29.859-5.085S147.488,914.759,147.488,917.567Z" fill="#ddd08e"/>
      <g>
        <path d="M91.964,917.081s1.385-14.907,3.773-18.4,1.717-7.763,3.648-10.512c3.138-4.471,2.012-1.3,4.1-4.657l6.183-9.945s4.316-2.892,6.706-2.983c7.964-.3,12.994,46.5,12.994,46.5Z" fill="#929497"/>
        <path d="M99.681,905.457c3.222-3.1,2.561-8.811,4.8-11.623,1.33-1.673,3.912-.062,6-3.419s1.834-4.845,4.716-9.883c1.492-2.611,4.277-1.86,6.719-2.385-1.628-4.58-3.447-8.7-5.5-8.618a20.6,20.6,0,0,0-7.113,2.238c-.9.559-4.2,7.272-6.287,10.63s-2.621,1.416-4.4,5.492c-2.631,6.036-1.171,6.307-3.558,9.8s-3.092,19.394-3.092,19.394h4.7C97.308,912.809,98.336,906.752,99.681,905.457Z" fill="#e6e7e8"/>
        <path d="M125.878,893.834s-1.174,6.838-2.589,9.075-3.693.063-5.423,2.548-1.257,4.849-3.615,6.59-2.593,1.552-4.323.56c-1.871-1.076-4.252,3.333-4.42,4.474h23.859S128.117,905.457,125.878,893.834Z" fill="#6d6e70"/>
        <path d="M111.082,884.634s-1.415,4.6-2.358,4.848-2.62.994-2.935,0S108.843,885.06,111.082,884.634Z" fill="#929497"/>
        <path d="M119.006,880.719c-.314-1.587,1.847-.84,2.554,0s1.258,4.381,1.258,4.381a4.388,4.388,0,0,1-1.907-2.192C120.617,881.651,119.32,882.3,119.006,880.719Z" fill="#6d6e70"/>
        <path d="M115.071,907.044c.348.2-.835,2.759-2.52,3.379-.457.169-1.193.818-1.3-.411a2.835,2.835,0,0,1,1.5-2.463A4.612,4.612,0,0,1,115.071,907.044Z" fill="#6d6e70"/>
      </g>
    </g>
  </g>
</svg>
