<svg xmlns="http://www.w3.org/2000/svg" xmlns:xlink="http://www.w3.org/1999/xlink" width="1920" height="1080" viewBox="0 0 1920 1080">
  <defs>
    <linearGradient id="a" data-name="Unbenannter Verlauf 788" x1="1071.83" y1="1084.34" x2="1071.83" y2="-0.255" gradientUnits="userSpaceOnUse">
      <stop offset="0.448" stop-color="#b7b7bd"/>
      <stop offset="0.608" stop-color="#bfc0c4"/>
      <stop offset="1" stop-color="#ced1d2"/>
    </linearGradient>
    <linearGradient id="b" x1="1071.83" y1="1084.34" x2="1071.83" y2="969.209" gradientUnits="userSpaceOnUse">
      <stop offset="0.273" stop-color="#00a1ef"/>
      <stop offset="0.366" stop-color="#07a4ef"/>
      <stop offset="0.502" stop-color="#1babee"/>
      <stop offset="0.665" stop-color="#3bb7ec"/>
      <stop offset="0.847" stop-color="#67c7e9"/>
      <stop offset="1" stop-color="#92d7e7"/>
    </linearGradient>
  </defs>
  <g>
    <rect x="-195.064" y="-0.255" width="2533.787" height="1084.596" fill="url(#a)"/>
    <polygon points="2507.975 556.663 2442.082 510.054 2441.767 508.683 2424.032 431.039 2418.077 425.437 2381.135 390.688 2289.201 414.226 2233.724 486.518 2145.625 542.376 2086.009 621.612 2084.106 619.495 2083.601 618.934 2103.022 473.713 2108.872 429.971 2086.17 374.567 2086.17 232.822 2086.166 232.822 2014.979 224.426 1740.309 598.543 1732.631 556.663 1666.737 510.054 1666.423 508.683 1648.687 431.039 1642.733 425.437 1605.79 390.688 1513.857 414.226 1458.378 486.518 1370.281 542.376 1250.243 688.935 1227.566 663.716 1227.234 663.346 1240.02 567.737 1243.87 538.939 1263.258 495.307 1291.922 370.312 1279.9 338.533 1181.929 409.142 1004.791 645.163 973.615 610.493 973.075 609.892 983.426 515.762 968.162 489.609 1000.102 407.787 1041.354 258.028 909.822 289.806 847.378 347.572 773.498 365.728 568.822 637.767 552.392 619.495 551.888 618.934 571.308 473.713 577.157 429.971 554.457 374.567 568.945 178.828 501.793 183.065 222.031 580.64 236.331 473.713 242.18 429.971 219.479 374.567 219.479 232.822 219.476 232.822 126.638 226.468 -149.106 505.277 -210.065 1084.34 2565.447 1084.34 2565.447 594.028 2507.975 556.663" fill="#a3a3a3"/>
    <polygon points="2272.302 731.621 2272.061 730.625 2258.397 674.286 2253.811 670.221 2225.353 645.007 2154.533 662.087 2111.796 714.543 2043.93 755.074 1997.254 804.418 2012.851 691.188 2017.675 657.213 1998.955 614.18 1998.955 504.086 1998.952 504.086 1940.096 504.086 1679.126 831.615 1666.247 765.441 1615.487 731.621 1615.245 730.625 1601.581 674.286 1596.995 670.221 1568.538 645.007 1497.717 662.087 1433.749 705.451 1390.332 753.152 1382.687 713.869 1313.163 667.548 1312.832 666.184 1294.119 589.018 1287.836 583.451 1248.86 548.918 1151.859 572.31 1093.324 644.156 1000.371 699.669 980.585 724.442 980.655 723.848 968.068 703.534 994.405 639.982 986.041 583.434 934.975 566.555 900.994 566.58 868.471 593.213 807.55 607.315 749.437 640.636 718.354 610.437 730.981 542.043 676.818 548.398 598.798 613.136 570.75 636.105 518.211 648.267 444.212 740.911 451.271 691.188 456.095 657.213 437.376 614.18 433.221 535.752 425.171 518.806 378.516 504.086 94.079 861.067 69.76 831.184 69.455 830.862 75.31 780.704 66.675 766.767 84.744 723.167 79.006 684.371 43.971 672.791 20.658 672.808 -1.655 691.08 -43.45 700.755 -110.833 747.387 -195.064 770.446 -195.064 1084.34 2338.723 1084.34 2338.723 770.446 2272.302 731.621" fill="#544f50"/>
    <polygon points="352.302 727.875 352.061 726.879 338.397 670.539 333.811 666.475 305.353 641.261 234.533 658.34 191.796 710.796 123.93 751.328 77.254 800.672 92.851 687.441 97.675 653.467 78.955 610.433 78.955 500.34 78.952 500.34 20.096 500.34 -240.874 827.868 -253.753 761.695 -304.513 727.875 -304.755 726.879 -318.419 670.539 -323.005 666.475 -351.462 641.261 -422.283 658.34 -486.251 701.704 -529.668 749.405 -537.313 710.123 -606.837 663.802 -607.168 662.438 -625.881 585.272 -632.164 579.705 -671.14 545.171 -768.141 568.563 -826.676 640.409 -919.629 695.923 -939.415 720.696 -939.345 720.101 -951.932 699.787 -925.595 636.236 -933.959 579.688 -985.025 562.809 -1019.006 562.834 -1051.529 589.467 -1112.45 603.569 -1170.563 636.89 -1201.646 606.69 -1189.019 538.296 -1243.182 544.651 -1321.202 609.39 -1349.25 632.359 -1401.789 644.521 -1475.788 737.165 -1468.729 687.441 -1463.905 653.467 -1482.624 610.433 -1486.779 532.005 -1494.829 515.06 -1541.484 500.34 -1825.921 857.321 -1850.24 827.437 -1850.545 827.116 -1844.69 776.958 -1853.325 763.021 -1835.256 719.421 -1840.994 680.624 -1876.029 669.045 -1899.342 669.062 -1921.655 687.334 -1963.45 697.008 -2030.833 743.641 -2115.064 766.7 -2115.064 1080.594 418.723 1080.594 418.723 766.7 352.302 727.875" fill="#544f50"/>
    <g>
      <g>
        <g>
          <g>
            <polygon points="1929.749 898.089 1940.36 871.407 1966.271 842.819 1968.855 768.49 2106.519 511.198 2047.662 511.198 1728.255 969.209 1795.51 969.209 1841.747 969.209 1889.808 917.147 1929.749 898.089" fill="#e6e7e8"/>
            <polygon points="2062.337 885.723 2120.417 724.97 2125.24 686.153 2106.521 636.986 2106.521 511.198 2106.519 511.198 1968.855 768.49 1966.271 842.819 1940.36 871.407 1929.749 898.089 1889.808 917.147 1841.747 969.209 1958.14 969.209 1971.994 969.209 2013.376 905.712 2062.337 885.723" fill="#929497"/>
          </g>
          <polygon points="1946.021 798.984 1946.021 828.525 1928.704 841.866 1907.833 872.36 1917.386 826.619 1946.021 798.984" fill="#929497"/>
        </g>
        <g>
          <g>
            <polygon points="10.003 898.089 20.614 871.407 46.524 842.819 49.108 768.49 186.772 511.198 127.916 511.198 -191.491 969.209 -124.236 969.209 -77.999 969.209 -29.938 917.147 10.003 898.089" fill="#e6e7e8"/>
            <polygon points="213.476 888.334 185.073 854.341 184.656 853.843 200.671 724.97 142.59 885.723 93.63 905.712 52.247 969.209 244.039 969.209 213.476 888.334" fill="#6d6e70"/>
            <polygon points="142.59 885.723 200.671 724.97 205.494 686.153 186.775 636.986 186.775 511.198 186.772 511.198 49.108 768.49 46.524 842.819 20.614 871.407 10.003 898.089 -29.938 917.147 -77.999 969.209 38.394 969.209 52.247 969.209 93.63 905.712 142.59 885.723" fill="#929497"/>
          </g>
          <polygon points="26.274 798.984 26.274 828.525 8.957 841.866 -11.913 872.36 -2.36 826.619 26.274 798.984" fill="#929497"/>
          <polygon points="63.747 804.939 63.747 773.97 79.818 741.871 79.818 775.637 63.747 804.939" fill="#e6e7e8"/>
          <path d="M104.127,879.983c1.253,0,27.132-6.67,27.967-10.482s20.871-43.359,20.871-43.359S125,839.96,123.745,843.772,104.127,879.983,104.127,879.983Z" fill="#6d6e70"/>
        </g>
        <g>
          <g>
            <polygon points="279.763 916.363 297.538 885.648 305.709 863.674 341.754 827.523 424.002 784.552 494.065 702.231 465.737 673.553 395.237 692.979 352.693 752.64 285.135 798.739 165.96 969.209 202.946 969.209 251.806 924.688 279.763 916.363" fill="#e6e7e8"/>
            <polygon points="563.003 810.53 512.473 772.065 512.232 770.933 498.631 806.706 473.941 879.784 446.288 916.363 378.767 969.209 590.032 969.209 563.003 810.53" fill="#6d6e70"/>
            <polygon points="473.941 879.784 498.631 806.706 512.232 770.933 498.631 706.853 494.065 702.231 424.002 784.552 341.754 827.523 305.709 863.674 297.538 885.648 279.763 916.363 251.806 924.688 202.946 969.209 378.767 969.209 446.288 916.363 473.941 879.784" fill="#929497"/>
          </g>
          <path d="M257.276,912.663l15.267-5.453,6.115-10.907,1.911-15.364-5.16.947s-15.287,17.908-15.1,20.307S257.276,912.663,257.276,912.663Z" fill="#929497"/>
          <polygon points="401.922 783.512 419.243 776.922 433.221 756.456 417.572 766.168 401.922 783.512" fill="#929497"/>
          <path d="M294.754,867.57l-3.444,11.794-4.862,6.243s-.81-9.018.81-10.406S294.754,867.57,294.754,867.57Z" fill="#929497"/>
          <polygon points="454.797 892.082 467.56 872.831 470.902 853.579 459.355 865.026 456.924 877.514 454.797 892.082" fill="#6d6e70"/>
          <polygon points="515.738 798.951 509.357 821.381 542.921 813.343 515.738 798.951" fill="#929497"/>
        </g>
        <g>
          <g>
            <polygon points="1464.932 912.384 1484.045 879.357 1492.832 855.727 1531.591 816.855 1620.031 770.649 1695.371 682.129 1664.908 651.292 1589.101 672.18 1543.354 736.334 1470.709 785.904 1342.561 969.209 1382.332 969.209 1434.87 921.335 1464.932 912.384" fill="#e6e7e8"/>
            <polygon points="1769.499 798.582 1715.163 757.221 1714.904 756.004 1700.279 794.472 1673.73 873.05 1643.995 912.384 1571.391 969.209 1798.563 969.209 1769.499 798.582" fill="#6d6e70"/>
            <polygon points="1673.73 873.05 1700.279 794.472 1714.904 756.004 1700.279 687.1 1695.371 682.129 1620.031 770.649 1531.591 816.855 1492.832 855.727 1484.045 879.357 1464.932 912.384 1434.87 921.335 1382.332 969.209 1571.391 969.209 1643.995 912.384 1673.73 873.05" fill="#929497"/>
          </g>
          <path d="M1440.752,908.405l16.416-5.864,6.575-11.728,2.056-16.519-5.549,1.017s-16.437,19.256-16.232,21.836S1440.752,908.405,1440.752,908.405Z" fill="#929497"/>
          <polygon points="1596.288 769.53 1614.914 762.443 1629.945 740.437 1613.117 750.88 1596.288 769.53" fill="#929497"/>
          <path d="M1481.052,859.917l-3.7,12.682-5.227,6.714s-.872-9.7.871-11.19S1481.052,859.917,1481.052,859.917Z" fill="#929497"/>
          <polygon points="1653.145 886.274 1666.869 865.573 1670.463 844.873 1658.047 857.182 1655.432 870.609 1653.145 886.274" fill="#6d6e70"/>
          <polygon points="1718.674 786.132 1711.813 810.251 1747.905 801.607 1718.674 786.132" fill="#929497"/>
        </g>
        <g>
          <g>
            <polygon points="1131.602 878.496 1099.744 840.369 1058.56 874.782 1001.36 874.782 935.223 969.209 1165.883 969.209 1131.602 878.496" fill="#6d6e70"/>
            <path d="M1001.36,647.109l58.965-83.365-35.637.029-34.107,31.911-63.887,16.9L677.375,969.209h75.436c25.785-39.418,56.955-79.9,96.944-140.08,3.9-5.875,43.736-21.867,47.526-27.569,5.56-8.363,5.45-49.7,10.649-57.511,31.625-47.543,38.436-66.7,38.436-66.7Z" fill="#e6e7e8"/>
            <path d="M1058.56,874.782l41.184-34.413-.467-.56,8.951-87.6-13.2-24.339,27.619-76.147-8.771-67.756-53.552-20.222-58.965,83.365-54.994,30.239s-14.272,21.4-35.461,53.237c-10.3,15.474-12.583,51.682-25.31,70.825-9.649,14.514-29.41,11.451-39.6,26.8-35.033,52.767-71.082,107.213-93.185,141H935.223l66.137-94.427Z" fill="#929497"/>
          </g>
          <polygon points="1050.554 838.235 1033.627 857.884 1056.222 857.884 1079.392 837.272 1050.554 838.235" fill="#6d6e70"/>
          <path d="M890.678,749.569s-7.1,34.776-14.432,43.144-32.528,21.962-28.861,12.812S888.364,731.883,890.678,749.569Z" fill="#929497"/>
          <path d="M972.856,647.554s14.8-2.223,23.764-11.562,21.036-23.122,13.634-20.454S975.194,635.105,972.856,647.554Z" fill="#929497"/>
          <path d="M988.828,916.581s19.089-29.349,20.257-29.349h15.193S1009.085,915.9,988.828,916.581Z" fill="#929497"/>
        </g>
        <g>
          <g>
            <polygon points="1342.705 909.864 1321.863 884.922 1294.92 907.435 1257.499 907.435 1214.234 969.209 1365.132 969.209 1342.705 909.864" fill="#6d6e70"/>
            <path d="M1257.5,758.49l38.576-54.538-23.314.019-22.312,20.877-41.8,11.053L1045.547,969.209H1094.9c16.867-25.787,37.26-52.27,63.421-91.641,2.553-3.844,28.611-14.306,31.092-18.036,3.637-5.471,3.564-32.511,6.966-37.624,20.69-31.1,25.145-43.636,25.145-43.636Z" fill="#e6e7e8"/>
            <path d="M1294.92,907.435l26.943-22.513-.305-.367,5.855-57.309-8.635-15.923,18.07-49.815-5.739-44.326-35.034-13.23L1257.5,758.49l-35.976,19.782s-9.337,14-23.2,34.828c-6.741,10.124-8.232,33.811-16.558,46.335-6.313,9.494-19.24,7.491-25.906,17.531-22.918,34.52-46.5,70.139-60.961,92.243h119.335l43.265-61.774Z" fill="#929497"/>
          </g>
          <polygon points="1289.684 883.525 1278.609 896.38 1293.392 896.38 1308.548 882.895 1289.684 883.525" fill="#6d6e70"/>
          <path d="M1185.091,825.52s-4.645,22.75-9.44,28.224-21.28,14.368-18.882,8.382S1183.578,813.949,1185.091,825.52Z" fill="#929497"/>
          <path d="M1238.853,758.781s9.684-1.454,15.546-7.564,13.762-15.127,8.92-13.381S1240.383,750.637,1238.853,758.781Z" fill="#929497"/>
          <path d="M1249.3,934.779s12.488-19.2,13.253-19.2h9.938S1262.555,934.336,1249.3,934.779Z" fill="#929497"/>
        </g>
      </g>
      <rect x="-195.064" y="969.209" width="2533.787" height="115.132" fill="url(#b)"/>
    </g>
    <g>
      <g>
        <g>
          <polygon points="293.264 24.206 285.432 33.384 266.306 43.216 264.399 68.781 162.782 157.276 206.227 157.276 441.997 -0.255 392.352 -0.255 358.223 -0.255 322.747 17.651 293.264 24.206" fill="#fff"/>
          <polygon points="143.071 27.562 164.036 39.253 164.343 39.424 152.523 83.75 195.395 28.46 231.535 21.585 262.082 -0.255 120.511 -0.255 143.071 27.562" fill="#6d6e70"/>
          <polygon points="195.395 28.46 152.523 83.75 148.962 97.101 162.78 114.012 162.78 157.276 162.782 157.276 264.399 68.781 266.306 43.216 285.432 33.384 293.264 24.206 322.747 17.651 358.223 -0.255 272.308 -0.255 262.082 -0.255 231.535 21.585 195.395 28.46" fill="#929497"/>
        </g>
        <polygon points="281.254 58.293 281.254 48.133 294.036 43.544 309.442 33.056 302.39 48.788 281.254 58.293" fill="#929497"/>
        <polygon points="253.593 56.244 253.593 66.897 241.73 77.937 241.73 66.324 253.593 56.244" fill="#e6e7e8"/>
        <path d="M223.787,30.434c-.925,0-20.028,2.294-20.644,3.605s-15.406,14.913-15.406,14.913,20.644-4.752,21.568-6.064S223.787,30.434,223.787,30.434Z" fill="#6d6e70"/>
      </g>
      <g>
        <g>
          <polygon points="1595.972 28.811 1571.254 45.705 1559.891 57.791 1509.768 77.676 1395.394 101.31 1297.965 146.587 1337.359 162.361 1435.395 151.677 1494.555 118.862 1588.501 93.507 1754.226 -0.255 1702.792 -0.255 1634.849 24.233 1595.972 28.811" fill="#fff"/>
          <polygon points="1202.099 87.022 1272.367 108.178 1272.702 108.8 1291.616 89.125 1325.949 48.93 1364.403 28.811 1458.297 -0.255 1164.513 -0.255 1202.099 87.022" fill="#6d6e70"/>
          <polygon points="1325.949 48.93 1291.616 89.125 1272.702 108.8 1291.616 144.046 1297.965 146.587 1395.394 101.31 1509.768 77.676 1559.891 57.791 1571.254 45.705 1595.972 28.811 1634.849 24.233 1702.792 -0.255 1458.297 -0.255 1364.403 28.811 1325.949 48.93" fill="#929497"/>
        </g>
        <path d="M1627.243,30.846l-21.231,3-8.5,6-2.658,8.451,7.175-.522s21.258-9.849,20.993-11.168S1627.243,30.846,1627.243,30.846Z" fill="#929497"/>
        <polygon points="1426.1 101.883 1402.012 105.507 1382.572 116.764 1404.337 111.422 1426.1 101.883" fill="#929497"/>
        <path d="M1575.127,55.648l4.788-6.487,6.761-3.433s1.126,4.96-1.128,5.723S1575.127,55.648,1575.127,55.648Z" fill="#929497"/>
        <polygon points="1352.57 42.166 1334.824 52.754 1330.175 63.344 1346.233 57.047 1349.613 50.179 1352.57 42.166" fill="#6d6e70"/>
        <polygon points="1267.826 93.39 1276.699 81.052 1230.024 85.475 1267.826 93.39" fill="#929497"/>
      </g>
      <g>
        <g>
          <polygon points="784.182 23.072 761.606 36.63 751.227 46.329 705.445 62.286 600.979 81.254 511.99 117.591 547.971 130.249 637.516 121.675 691.55 95.341 777.359 74.991 928.727 -0.255 881.749 -0.255 819.692 19.397 784.182 23.072" fill="#fff"/>
          <polygon points="424.429 69.788 488.611 86.766 488.916 87.265 506.191 71.475 537.55 39.218 572.673 23.072 658.433 -0.255 390.1 -0.255 424.429 69.788" fill="#6d6e70"/>
          <polygon points="537.55 39.218 506.191 71.475 488.916 87.265 506.191 115.551 511.99 117.591 600.979 81.254 705.445 62.286 751.227 46.329 761.606 36.63 784.182 23.072 819.692 19.397 881.749 -0.255 658.433 -0.255 572.673 23.072 537.55 39.218" fill="#929497"/>
        </g>
        <path d="M812.743,24.705l-19.39,2.406-7.767,4.815-2.428,6.781,6.554-.417s19.417-7.9,19.173-8.964S812.743,24.705,812.743,24.705Z" fill="#929497"/>
        <polygon points="629.025 81.714 607.025 84.622 589.269 93.656 609.147 89.368 629.025 81.714" fill="#929497"/>
        <path d="M765.141,44.609l4.374-5.206,6.176-2.756s1.029,3.981-1.03,4.593S765.141,44.609,765.141,44.609Z" fill="#929497"/>
        <polygon points="561.865 33.79 545.655 42.287 541.41 50.784 556.077 45.732 559.164 40.219 561.865 33.79" fill="#6d6e70"/>
        <polygon points="484.462 74.897 492.567 64.998 449.937 68.546 484.462 74.897" fill="#929497"/>
      </g>
      <g>
        <g>
          <polygon points="903.341 29.496 930.74 42.001 966.159 30.715 1015.353 30.715 1072.232 -0.255 873.858 -0.255 903.341 29.496" fill="#6d6e70"/>
          <path d="M1015.353,105.385l-50.711,27.342,30.648-.01,29.333-10.465,54.945-5.542L1293.99-.255h-64.878c-22.175,12.928-48.982,26.205-83.374,45.943-3.358,1.926-37.615,7.171-40.874,9.041-4.781,2.743-4.687,16.3-9.159,18.863-27.2,15.592-33.056,21.876-33.056,21.876Z" fill="#fff"/>
          <path d="M966.159,30.715,930.74,42l.4.184-7.7,28.731L934.8,78.9l-23.754,24.973,7.544,22.223,46.057,6.632,50.711-27.342,47.3-9.917s12.275-7.02,30.5-17.46c8.861-5.075,10.822-16.951,21.768-23.23,8.3-4.76,25.293-3.756,34.055-8.789C1179.1,28.683,1210.1,10.826,1229.112-.255h-156.88l-56.879,30.97Z" fill="#929497"/>
        </g>
        <polygon points="973.045 42.701 987.602 36.257 968.17 36.257 948.243 43.016 973.045 42.701" fill="#6d6e70"/>
        <path d="M1110.542,71.781s6.108-11.405,12.412-14.15,27.975-7.2,24.822-4.2S1112.532,77.582,1110.542,71.781Z" fill="#929497"/>
        <path d="M1039.866,105.24s-12.73.728-20.436,3.791-18.092,7.584-11.726,6.709S1037.856,109.322,1039.866,105.24Z" fill="#929497"/>
        <path d="M1026.131,17.005s-16.417,9.626-17.422,9.626H995.643A58.614,58.614,0,0,1,1026.131,17.005Z" fill="#929497"/>
      </g>
      <g>
        <g>
          <polygon points="1723.206 29.496 1745.63 42.001 1774.619 30.715 1814.88 30.715 1861.431 -0.255 1699.077 -0.255 1723.206 29.496" fill="#6d6e70"/>
          <path d="M1814.88,105.385l-41.5,27.342,25.082-.01,24.008-10.465,44.968-5.542L2042.923-.255h-53.1c-18.149,12.928-40.09,26.205-68.235,45.943-2.749,1.926-30.786,7.171-33.453,9.041-3.912,2.743-3.836,16.3-7.5,18.863-22.261,15.592-27.053,21.876-27.053,21.876Z" fill="#fff"/>
          <path d="M1774.619,30.715,1745.63,42l.329.184-6.3,28.731,9.292,7.983-19.441,24.973,6.173,22.223,37.695,6.632,41.5-27.342,38.709-9.917s10.045-7.02,24.96-17.46c7.251-5.075,8.856-16.951,17.814-23.23,6.791-4.76,20.7-3.756,27.872-8.789,24.66-17.306,50.034-35.163,65.591-46.244H1861.431l-46.551,30.97Z" fill="#929497"/>
        </g>
        <polygon points="1780.253 42.701 1792.168 36.257 1776.265 36.257 1759.955 43.016 1780.253 42.701" fill="#6d6e70"/>
        <path d="M1892.784,71.781s5-11.405,10.16-14.15,22.895-7.2,20.315-4.2S1894.413,77.582,1892.784,71.781Z" fill="#929497"/>
        <path d="M1834.942,105.24s-10.419.728-16.725,3.791-14.808,7.584-9.6,6.709S1833.3,109.322,1834.942,105.24Z" fill="#929497"/>
        <path d="M1823.7,17.005s-13.437,9.626-14.259,9.626h-10.694S1809.443,17.228,1823.7,17.005Z" fill="#929497"/>
      </g>
      <g>
        <g>
          <path d="M-105.12,105.385l-41.5,27.342,25.082-.01,24.008-10.465,44.968-5.542L122.922-.255h-53.1C51.677,12.673,29.736,25.95,1.591,45.688c-2.749,1.926-30.786,7.171-33.453,9.041-3.912,2.743-3.836,16.3-7.5,18.863C-61.619,89.184-66.411,95.468-66.411,95.468Z" fill="#fff"/>
          <path d="M-145.381,30.715-174.37,42l.329.184-6.3,28.731,9.292,7.983-19.441,24.973,6.173,22.223,37.7,6.632,41.5-27.342,38.709-9.917s10.045-7.02,24.96-17.46c7.251-5.075,8.856-16.951,17.814-23.23,6.791-4.76,20.7-3.756,27.872-8.789C28.9,28.683,54.269,10.826,69.826-.255H-58.569l-46.551,30.97Z" fill="#929497"/>
        </g>
        <path d="M-27.216,71.781s5-11.405,10.16-14.15,22.9-7.2,20.315-4.2S-25.587,77.582-27.216,71.781Z" fill="#929497"/>
      </g>
    </g>
    <g>
      <g>
        <rect x="-63.319" y="968.992" width="1983.319" height="115.348" fill="#d6c2ad"/>
        <path d="M1920,1027.809H1731.55c-74.948,0-137.892-18.222-172.755-2.434-44.545,22.553-154.939,31.574-205.3,22.553-67.787-11.277-200.454-33.7-301.166-33.7s-286.64,37.158-373.794,37.158-134.6-20.372-299.229-29.393c-91.027-4.511-57.315,12.534-148.879,5.947-5.782,0-82.563-.129-200.549-.129h-93.2v-89.08H77.733c33.983,0,74.01,17.482,97.251,8.461,32.924-9.021,52.292-18.792,85.217-9.772,60.039,15.787,118.142-6.766,176.244,0a500.647,500.647,0,0,0,116.206,0c23.241-4.511,44.545,6.766,65.849,4.51,31.1-3.714,62.205-3.987,93.307-3.337q3.332.069,6.664.151c10.425-1.324,16.234,9.953,22.045,9.953,36.8,4.51,73.6-9.02,109.814-10,1.743-.421,3.486-.921,5.229-1.471,13.946-4.4,27.89-11.982,41.834-6.569,15.5,6.766,30.989,20.3,46.483,18.043a265.679,265.679,0,0,1,54.228-9.866c1.971-.137,3.94-.258,5.991-.291,28.872,5.646,57.923,5.646,88.911-3.375,9.684-2.256,21.3,2.255,30.989,2.255,15.493,2.257,32.924-11.276,50.356-4.511,15.493,4.511,29.05,9.021,44.545,9.021,27.114,4.511,52.293,2.256,79.406,0,7.748,0,15.5-4.51,23.241-4.51,44.061-3.947,88.124,5.92,133.482-.616,2.177-.306,4.36-.65,6.586-1.023,67.165,6.149,138.824,8.4,204.675,8.4,48.419,0,90.551,6.773,122.31,6.773s43.836-12.228,75.033-12.228H1920Z" fill="#f4edcb"/>
        <g>
          <path d="M782.384,958.661c10.425-1.324,16.235,9.952,22.045,9.952,36.8,4.51,73.6-9.02,109.815-10,1.743-.42,3.485-.92,5.228-1.471,1.525-.48,3.048-1,4.573-1.54-8.884-4.078-17.768-10.171-26.652-14.05-13.944-5.412-27.888,2.166-41.834,6.569-1.743.551-3.486,1.051-5.229,1.471-22.6.613-45.42,6.109-68.328,9.063C782.13,958.654,782.256,958.659,782.384,958.661Z" fill="#ddd08e"/>
          <path d="M1007.789,968.613a265.825,265.825,0,0,1,54.229-9.866c1.971-.137,3.94-.257,5.99-.291,28.871,5.646,57.924,5.646,88.911-3.375,9.684-2.256,21.3,2.256,30.988,2.256,8.581,1.249,17.758-2.339,27.2-4.646-13.944-.656-26.545-4.747-40.755-8.886-17.432-6.765-34.863,6.767-50.356,4.511-9.684,0-21.3-4.511-30.989-2.256-30.988,9.021-60.039,9.021-88.911,3.375-2.051.034-4.02.154-5.991.291a276.34,276.34,0,0,0-30.2,4.075C981.2,960.866,994.493,970.55,1007.789,968.613Z" fill="#ddd08e"/>
          <path d="M1282.808,961.846c27.115,4.511,52.292,2.256,79.408,0,7.746,0,15.493-4.509,23.24-4.509,44.061-3.948,88.122,5.919,133.481-.617,2.179-.306,4.361-.65,6.588-1.022,67.165,6.148,138.824,8.4,204.675,8.4,48.419,0,90.55,6.774,122.31,6.774,29.063,0,37.955-11.973,67.49-11.973v-9.276h-56.371c-31.2,0-43.272,12.226-75.033,12.226s-73.891-6.772-122.31-6.772c-65.851,0-137.51-2.256-204.675-8.4-2.226.373-4.409.717-6.586,1.022-45.358,6.536-89.421-3.33-133.482.617-7.746,0-15.493,4.509-23.241,4.509-17.6,1.466-34.382,2.917-51.409,2.529C1258.962,958.879,1270.258,961.846,1282.808,961.846Z" fill="#ddd08e"/>
          <path d="M324.114,957.337c60.039,15.786,118.142-6.765,176.245,0a500.748,500.748,0,0,0,116.2,0c23.24-4.512,44.546,6.765,65.85,4.509a540.2,540.2,0,0,1,54.513-3.467c-4.779-2.868-10.152-9.794-18.456-8.739q-3.332-.082-6.664-.151c-31.1-.651-62.205-.378-93.307,3.336-21.3,2.256-42.608-9.02-65.849-4.509a500.757,500.757,0,0,1-116.206,0c-43.417-5.058-86.834,6.255-131.06,5.71A98.215,98.215,0,0,1,324.114,957.337Z" fill="#ddd08e"/>
          <path d="M238.9,967.109c23.1-6.327,39.533-13,58.646-13.321a178.074,178.074,0,0,1-37.342-5.472c-32.925-9.021-52.293.752-85.217,9.772a40.075,40.075,0,0,1-11.662,2.423C191.48,964.754,220.465,974.261,238.9,967.109Z" fill="#ddd08e"/>
          <path d="M138.295,958.648c-19.27-3.188-40.922-9.021-60.562-9.021H-63.319v9.021Z" fill="#ddd08e"/>
        </g>
        <path d="M1557.812,1013.3c-51.81,5.055-153.956,24.517-204.312,15.494-67.787-11.277-200.454-23.591-301.166-23.591s-286.64,37.16-373.794,37.16-132.825-19.82-299.229-29.393c-122.549-7.05-170.513,4.824-188.421,4.824-5.782,0-43.021.994-161.007.994h-93.2v11.277h93.2c122.492,0,171.044.4,184.571.4,55.3,1.516,74.8,5.057,165.826,9.567,164.624,9.02,211.106,28.194,298.26,28.194s271.147-30.613,371.857-30.613,242.1,5.855,309.882,17.132c50.356,9.021,174.916-15.419,209.733-21.785s70.9-2.9,161.538-2.9H1920v-11.277H1731.55C1656.6,1018.788,1609.622,1008.244,1557.812,1013.3Z" fill="#b29c88"/>
        <path d="M1900.634,991.665c-47.774,0-151.068,5.637-191.74,6.892s-108.459-6.892-132.668-9.149-110.9,21.526-146.729,26.7-160.85-8.5-233.764-26.027-260.894-7.669-297.694,0-169.8,35.706-230.474,33.791-252.424-37.589-279.539-39.845-76.219,4.84-95.868,4.556c-24.762-.358-108.174,24.717-156.2,12.358-30.225-7.779-98-9.276-129.477-9.276H-63.319v29.5h93.2c117.986,0,143.9-.935,185.7-3.369,26.217-7.3,72.7-6.96,163.726-2.449,164.625,9.021,212.075,29.393,299.229,29.393s273.082-37.16,373.794-37.16,233.379,12.314,301.166,23.591c50.356,9.02,151.533,5.593,198.5-10.005,45.869-12.358,104.6,0,179.549,0H1920v-29.5Z" fill="#ddd08e"/>
        <polygon points="-25.955 1055.539 -19.903 1062.304 -7.555 1060.33 5.517 1045.954 -1.988 1044.738 -23.292 1048.771 -25.955 1055.539" fill="#e5d3bd"/>
        <polygon points="-13.205 1068.762 8.1 1065.592 25.53 1067.178 35.859 1074.125 11.328 1079.836 -2.876 1074.125 -13.205 1068.762" fill="#c7b29e"/>
        <polygon points="7.776 1051.384 2.612 1058.076 11.328 1060.33 11.328 1055.858 7.776 1051.384" fill="#c7b29e"/>
        <polygon points="8.423 1037.614 6.97 1041.16 21.98 1058.92 31.906 1058.92 46.915 1055.858 49.579 1038.341 32.632 1035.523 8.423 1037.614" fill="#e5d3bd"/>
        <polygon points="68.462 1041.16 57.487 1047.223 61.684 1053.82 69.753 1055.858 74.918 1051.384 68.462 1041.16" fill="#c7b29e"/>
        <polygon points="99.611 1046.516 92.833 1052.358 99.611 1062.771 104.131 1064.18 117.042 1055.234 109.941 1045.011 99.611 1046.516" fill="#c7b29e"/>
        <path d="M101.633,1068.993s13.522,6.412,13.349,7.624-6.066,2.217-6.674,2.622-12.569-3.128-12.569-3.128l1.56-4.543Z" fill="#c7b29e"/>
        <polygon points="1171.201 1059.999 1166.037 1066.692 1174.753 1068.947 1174.753 1064.473 1171.201 1059.999" fill="#c7b29e"/>
        <polygon points="1197.994 1054.79 1187.019 1060.85 1191.215 1067.449 1199.286 1069.487 1204.451 1065.013 1197.994 1054.79" fill="#c7b29e"/>
        <polygon points="1236.73 1058.713 1229.951 1064.555 1236.73 1074.968 1241.249 1076.378 1254.162 1067.431 1247.059 1057.209 1236.73 1058.713" fill="#c7b29e"/>
        <path d="M1267.993,1063.262l20.488,10.286,17.806,6.886,9.268-11.5-12.44-14.059s-13.172.068-14.148,0-6.828,1.064-6.828,1.064Z" fill="#c7b29e"/>
        <polygon points="1580.626 1069.855 1592.797 1066.225 1602.97 1066.64 1609.307 1071.75 1595.399 1077.599 1586.882 1073.683 1580.626 1069.855" fill="#c7b29e"/>
        <polygon points="1593.762 1054.701 1589.038 1061.816 1597.87 1063.317 1597.589 1058.857 1593.762 1054.701" fill="#c7b29e"/>
        <polygon points="1571.557 1069.45 1565.822 1070.886 1567.963 1073.999 1570.171 1074.375 1574.203 1071.624 1571.557 1069.45" fill="#c7b29e"/>
        <path d="M1622.721,1067.3l16.627,8.854,5.744-9.145s-3.44-4.378-3.887-4.283-12.055-.131-12.055-.131Z" fill="#c7b29e"/>
        <polygon points="1421.593 1072.77 1428.058 1078.996 1440.247 1075.968 1452.373 1060.505 1444.81 1059.939 1423.819 1065.792 1421.593 1072.77" fill="#c7b29e"/>
        <polygon points="1331.292 1075.842 1337.757 1082.066 1349.945 1079.038 1362.071 1063.575 1354.509 1063.009 1333.518 1068.862 1331.292 1075.842" fill="#c7b29e"/>
        <polygon points="1319.739 1060.672 1322.166 1063.009 1326.739 1061.872 1331.292 1056.068 1328.453 1055.854 1320.573 1058.053 1319.739 1060.672" fill="#c7b29e"/>
        <polygon points="1320.611 1071.521 1323.531 1072.892 1327.596 1070.191 1330.42 1063.056 1327.66 1063.851 1320.725 1068.73 1320.611 1071.521" fill="#c7b29e"/>
        <polygon points="1463.359 1058.702 1484.326 1052.451 1501.848 1053.164 1512.763 1061.967 1488.806 1072.043 1474.135 1065.298 1463.359 1058.702" fill="#e5d3bd"/>
        <polygon points="1363.747 1067.985 1384.776 1062.743 1402.268 1062.954 1413.043 1069.546 1388.968 1077.803 1374.411 1072.874 1363.747 1067.985" fill="#e5d3bd"/>
        <polygon points="1529.593 1046.425 1524.869 1053.542 1533.704 1055.043 1533.42 1050.579 1529.593 1046.425" fill="#c7b29e"/>
        <polygon points="1458.107 1072.689 1452.373 1074.127 1454.514 1077.24 1456.721 1077.616 1460.754 1074.866 1458.107 1072.689" fill="#c7b29e"/>
        <path d="M1515.673,1066.259l26.8,14.272,9.258-14.744s-5.545-7.056-6.264-6.9-19.433-.212-19.433-.212Z" fill="#e5d3bd"/>
        <polygon points="1653.634 1039.288 1643.074 1046.278 1647.676 1052.496 1655.854 1053.834 1660.721 1048.928 1653.634 1039.288" fill="#c7b29e"/>
        <polygon points="1605.525 1029.489 1594.967 1036.48 1599.567 1042.698 1607.746 1044.035 1612.613 1039.13 1605.525 1029.489" fill="#c7b29e"/>
        <polygon points="1619.645 1045.793 1607.577 1047.399 1609.715 1055.221 1616.787 1060.185 1622.917 1057.898 1619.645 1045.793" fill="#c7b29e"/>
        <polygon points="1631.91 1038.597 1619.844 1040.202 1621.981 1048.027 1629.053 1052.99 1635.183 1050.701 1631.91 1038.597" fill="#c7b29e"/>
        <path d="M1694.512,1049.5l21.234,8.556,18.324,5.375,8.574-12.355-13.392-13.044s-13.225,1.21-14.21,1.224-6.788,1.661-6.788,1.661Z" fill="#e5d3bd"/>
        <path d="M1670.7,1053.217s25.866,9.739,25.688,12.017-11,5.092-12.082,5.94-23.71-3.8-23.71-3.8l2.361-8.682Z" fill="#c7b29e"/>
        <polygon points="1913.425 1063.577 1913.501 1069.795 1894.795 1066.392 1884.798 1050.745 1890.908 1050.305 1913.34 1056.609 1913.425 1063.577" fill="#c7b29e"/>
        <polygon points="1857.59 1066.565 1836.623 1060.31 1819.101 1061.024 1808.186 1069.83 1832.143 1079.905 1846.814 1073.158 1857.59 1066.565" fill="#c7b29e"/>
        <polygon points="1882.201 1055.97 1886.926 1063.086 1878.091 1064.586 1878.375 1060.123 1882.201 1055.97" fill="#c7b29e"/>
        <polygon points="1903.647 1070.782 1915.007 1072.585 1915.061 1075.693 1904.74 1075.735 1901.761 1072.893 1903.647 1070.782" fill="#c7b29e"/>
        <path d="M1880.2,1043.217l-26.8,14.272-9.259-14.743s5.546-7.057,6.265-6.9,19.432-.211,19.432-.211Z" fill="#c7b29e"/>
        <polygon points="1822.33 1040.557 1832.888 1047.546 1828.288 1053.765 1820.109 1055.103 1815.243 1050.196 1822.33 1040.557" fill="#e5d3bd"/>
        <polygon points="1803.239 1040.42 1809.629 1046.831 1802.209 1056.634 1797.614 1057.649 1785.303 1047.62 1793.033 1038.03 1803.239 1040.42" fill="#e5d3bd"/>
        <path d="M1783.407,1059.463l-17.983,7.247-15.518,4.551-7.262-10.465,11.341-11.046s11.2,1.026,12.035,1.037,5.749,1.406,5.749,1.406Z" fill="#c7b29e"/>
        <path d="M1782.133,1063.106s-16.67,6.276-16.556,7.744,7.091,3.283,7.787,3.828,15.281-2.447,15.281-2.447l-1.522-5.6Z" fill="#c7b29e"/>
        <polygon points="172.562 1040.613 166.269 1045.882 180.31 1056.405 184.668 1050.676 172.562 1040.613" fill="#c7b29e"/>
        <polygon points="193.382 1056.667 187.572 1063.058 196.771 1067.941 202.582 1062.116 193.382 1056.667" fill="#c7b29e"/>
        <polygon points="195.077 1038.418 195.077 1044.994 228.002 1064.35 252.696 1053.075 255.601 1043.35 217.35 1039.464 195.077 1038.418" fill="#c7b29e"/>
        <polygon points="210.732 1071.512 218.964 1077.337 210.732 1079.595 206.859 1073.205 210.732 1071.512" fill="#c7b29e"/>
        <polygon points="232.241 1068.386 230.246 1073.321 228.002 1076.224 238.474 1076.224 242.214 1070.66 239.969 1062.869 233.238 1063.984 232.241 1068.386" fill="#c7b29e"/>
        <polygon points="282.473 1049.709 273.758 1049.709 276.017 1059.483 282.473 1059.483 286.024 1057.318 282.473 1049.709" fill="#c7b29e"/>
        <polygon points="268.916 1064.095 259.877 1068.983 259.877 1074.997 266.656 1074.997 268.916 1070.768 268.916 1064.095" fill="#c7b29e"/>
        <path d="M389.9,1057.325s-16.5,6.318-16.729,8.161.9,5.529,1.13,6.713,8.817,7.5,8.817,7.5h19.895s11.077-7.371,11.982-7.5,0-13.557,0-13.557l-14.243-1.317-6.483,4.74Z" fill="#c7b29e"/>
        <polygon points="391.9 1047.177 398.138 1051.305 405.458 1049.238 405.458 1044.921 391.9 1047.177" fill="#b29c88"/>
        <path d="M356.91,1070.963s5.82,6.638,6.518,6.3-4.888,3.727-4.888,3.727l-6.75-1.354v-4.879Z" fill="#c7b29e"/>
        <path d="M282.312,1066.6c1.937.792,11.621,6.144,11.621,6.144h15.179l2.251,3.291-5.81,1.879h-21.3l-11.3-5.659,6.778-5.655Z" fill="#c7b29e"/>
        <polygon points="428.648 1074.775 439.193 1064.297 453.928 1053.953 464.917 1051.035 470.661 1057.729 470.661 1066.021 459.423 1075.689 447.435 1077.558 433.948 1079.68 428.648 1074.775" fill="#e5d3bd"/>
        <path d="M524.89,1068.687v10.064l12.913,2.627s10.329-9.395,11.62-9.772-2.9-9.02-2.9-9.02H528.441Z" fill="#e5d3bd"/>
        <path d="M564.272,1071.981s8.715,7.523,10.329,5.642,13.234-9.235,13.234-9.235H574.6Z" fill="#e5d3bd"/>
        <path d="M603.006,1072.549s4.843,9.021,6.133,9.4,10.007-4.7,10.007-4.7-4.841-8.085-6.133-8.459S603.006,1072.549,603.006,1072.549Z" fill="#c7b29e"/>
        <polygon points="745.681 1070.025 757.947 1076.118 767.308 1070.025 745.681 1070.025" fill="#c7b29e"/>
        <path d="M846.392,1065.213l9.038,13.492s18.722-.341,19.691-1.089,29.374-18.792,29.374-18.792l-40.672,4.51Z" fill="#c7b29e"/>
        <path d="M935.263,1055.279s-17.753,8.525-17.753,10.464,6.213,12.791,6.213,12.791h10.209l33.952-6.2,3.107-19.381-16.644-4.342Z" fill="#c7b29e"/>
        <path d="M976.841,1075.159l-5.1,1.384s-1.7,3.077,0,3.3,8.3,0,8.3,0S979,1074.571,976.841,1075.159Z" fill="#c7b29e"/>
        <path d="M990.348,1072.051l1.321-11.867,11.7-2.637,8.871,7.252s.755,14.059-.944,14.172-13.02,2.967-13.02,2.967Z" fill="#e5d3bd"/>
        <polygon points="963.243 1047.553 978.737 1051.384 994.233 1047.553 963.243 1047.553" fill="#c7b29e"/>
        <polygon points="1009.968 1053.19 1027.883 1063.995 1051.608 1058.594 1055.723 1047.553 1036.115 1044.826 1020.862 1047.553 1009.968 1053.19" fill="#c7b29e"/>
        <path d="M1013.357,1044.826l-7.263,4.642-2.421-1.915s-2.9-3.855-2.179-4.137,11.863-2.256,11.863-2.256Z" fill="#c7b29e"/>
        <g>
          <path d="M35.859,1059.706l25.825,11.777,10.167-9.906s-5.084-5.351-5.81-5.285-19.368-1.34-19.368-1.34Z" fill="#c7b29e"/>
          <path d="M121.04,1057.374l27.114,9.693,23.563,6.491,12.267-10.841-16.462-13.251s-17.432.066-18.723,0-9.038,1-9.038,1Z" fill="#c7b29e"/>
          <polygon points="1137.469 1056.27 1143.522 1061.088 1155.869 1059.684 1168.943 1049.444 1161.437 1048.578 1140.132 1051.452 1137.469 1056.27" fill="#c7b29e"/>
          <polygon points="1148.122 1062.427 1142.311 1063.098 1144.248 1065.439 1146.427 1065.841 1150.623 1064.134 1148.122 1062.427" fill="#c7b29e"/>
          <polygon points="1129.724 1064.12 1118.75 1068.436 1122.945 1073.136 1131.016 1074.587 1136.18 1071.401 1129.724 1064.12" fill="#c7b29e"/>
          <polygon points="1149.412 1069.352 1138.437 1073.669 1142.633 1078.367 1150.703 1079.819 1155.869 1076.633 1149.412 1069.352" fill="#c7b29e"/>
          <polygon points="1560.386 1054.552 1566.851 1058.987 1579.039 1056.83 1591.165 1045.817 1583.604 1045.414 1562.612 1049.583 1560.386 1054.552" fill="#c7b29e"/>
          <polygon points="1672.724 1038.464 1666.335 1043.03 1673.755 1050.011 1678.35 1050.734 1690.659 1043.591 1682.93 1036.764 1672.724 1038.464" fill="#c7b29e"/>
          <path d="M309.912,1046.856c-1.615,0-11.945,12.85-11.945,12.85s7.426,10.707,17.755,12.044,33.892-.266,36.475-1.337,6.779-16.865,6.456-17.669-2.259-5.62-16.785-5.888S309.912,1046.856,309.912,1046.856Z" fill="#c7b29e"/>
          <path d="M356.716,1046.736l10.974,6.008,11.621-6.008s-6.134-5.5-7.747-5.233S356.716,1046.736,356.716,1046.736Z" fill="#c7b29e"/>
          <path d="M502.617,1052.744c-2.258.534-12.588-1.07-12.588,1.337s2.583,8.7,2.583,8.7l23.241,3.079v-8.567Z" fill="#c7b29e"/>
          <polygon points="490.029 1068.536 506.168 1072.259 490.029 1075.365 482.605 1074.16 490.029 1068.536" fill="#c7b29e"/>
          <path d="M1048.7,1056.157c-.726-1-22.756,6.518-22.756,6.518s2.664,10.347,3.39,10.347,17.187,4.933,19.366,4.473,26.148-3.871,26.148-3.871l-11.137-12.248-10.653-3.211Z" fill="#c7b29e"/>
        </g>
        <path d="M1084.02,1047.553s-11.486,9.5-11.11,10.158,9.039,12.06,9.039,12.06,14.122,8.333,17.323,7.675,17.7-14.928,17.7-14.928l-16.76-13.476Z" fill="#c7b29e"/>
        <polygon points="1078.239 1047.553 1066.86 1059.202 1060.081 1055.821 1067.829 1041.16 1078.239 1042.289 1078.239 1047.553" fill="#c7b29e"/>
        <path d="M608.817,1007.331s96.838,18.044,189.8-11.277C798.619,996.054,676.6,1011.843,608.817,1007.331Z" fill="#ddd08e"/>
        <path d="M1361.6,998.1s67.785,22.552,116.2-6.766C1478.488,991.33,1427.337,1007.1,1361.6,998.1Z" fill="#ddd08e"/>
        <path d="M1724.54,987.649c0,2.837-14.454,5.131-32.282,5.131s-32.278-2.294-32.278-5.131,14.454-5.125,32.278-5.125S1724.54,984.814,1724.54,987.649Z" fill="#ddd08e"/>
        <path d="M128.912,989.486s19.732,6.135,48.784,6.135S144.164,1007.55,128.912,989.486Z" fill="#ddd08e"/>
      </g>
      <g>
        <path d="M1665.762,986.834s1.386-10,3.773-12.349,1.717-5.21,3.648-7.055c3.138-3,2.012-.873,4.1-3.126s6.183-6.675,6.183-6.675,4.316-1.941,6.706-2c7.964-.2,12.994,31.207,12.994,31.207Z" fill="#929497"/>
        <path d="M1673.479,979.032c3.222-2.082,2.561-5.914,4.8-7.8,1.33-1.123,3.913-.042,6-2.295s1.834-3.252,4.716-6.634c1.492-1.752,4.277-1.248,6.719-1.6-1.628-3.074-3.447-5.837-5.5-5.785a28.247,28.247,0,0,0-7.112,1.5c-.9.376-4.2,4.881-6.288,7.135s-2.621.951-4.4,3.687c-2.631,4.051-1.171,4.233-3.558,6.576s-3.092,13.017-3.092,13.017h4.7C1671.106,983.967,1672.134,979.9,1673.479,979.032Z" fill="#e6e7e8"/>
        <path d="M1699.677,971.231s-1.175,4.589-2.59,6.091-3.693.042-5.423,1.71-1.257,3.255-3.614,4.423-2.594,1.042-4.324.376c-1.871-.722-4.252,2.238-4.42,3h23.859A151,151,0,0,0,1699.677,971.231Z" fill="#6d6e70"/>
        <path d="M1684.88,965.056s-1.415,3.087-2.358,3.254-2.62.667-2.934,0S1682.641,965.342,1684.88,965.056Z" fill="#929497"/>
        <path d="M1692.805,962.428c-.315-1.065,1.846-.564,2.553,0s1.258,2.941,1.258,2.941-1.611-.626-1.906-1.472S1693.118,963.492,1692.805,962.428Z" fill="#6d6e70"/>
        <path d="M1688.869,980.1c.348.13-.835,1.851-2.52,2.268-.456.113-1.193.549-1.3-.276s.984-1.476,1.5-1.654A6.573,6.573,0,0,1,1688.869,980.1Z" fill="#6d6e70"/>
      </g>
      <g>
        <path d="M683.806,1008.72s1.385-10.006,3.773-12.349,1.717-5.21,3.647-7.056c3.139-3,2.013-.872,4.1-3.126l6.183-6.675s4.316-1.941,6.706-2c7.964-.2,12.994,31.208,12.994,31.208Z" fill="#929497"/>
        <path d="M691.523,1000.918c3.222-2.083,2.56-5.914,4.8-7.8,1.33-1.122,3.912-.041,6-2.295s1.834-3.252,4.716-6.633c1.492-1.752,4.277-1.248,6.718-1.6-1.627-3.074-3.446-5.836-5.5-5.785a28.2,28.2,0,0,0-7.113,1.5c-.9.375-4.2,4.881-6.287,7.135s-2.621.95-4.4,3.686c-2.631,4.052-1.172,4.234-3.559,6.577s-3.091,13.017-3.091,13.017h4.7C689.15,1005.852,690.178,1001.787,691.523,1000.918Z" fill="#e6e7e8"/>
        <path d="M717.72,993.116s-1.174,4.59-2.589,6.092-3.694.042-5.423,1.71-1.257,3.255-3.615,4.423-2.593,1.042-4.323.376c-1.871-.722-4.252,2.237-4.42,3h23.859A151.2,151.2,0,0,0,717.72,993.116Z" fill="#6d6e70"/>
        <path d="M702.924,986.941s-1.415,3.088-2.358,3.254-2.62.668-2.935,0S700.685,987.227,702.924,986.941Z" fill="#929497"/>
        <path d="M710.848,984.313c-.314-1.065,1.847-.563,2.554,0s1.258,2.941,1.258,2.941-1.612-.625-1.907-1.471S711.162,985.377,710.848,984.313Z" fill="#6d6e70"/>
        <path d="M706.913,1001.983c.348.131-.835,1.852-2.52,2.268-.457.113-1.193.549-1.3-.276s.984-1.476,1.5-1.653A6.575,6.575,0,0,1,706.913,1001.983Z" fill="#6d6e70"/>
      </g>
      <ellipse cx="646.894" cy="994.893" rx="26.026" ry="4.36" fill="#ddd08e"/>
      <g>
        <path d="M627.153,994.989s1.11-8.011,3.021-9.887,1.375-4.171,2.92-5.649c2.513-2.4,1.612-.7,3.283-2.5l4.95-5.345A19.744,19.744,0,0,1,646.7,970c6.376-.163,10.4,24.986,10.4,24.986Z" fill="#929497"/>
        <path d="M633.332,988.743c2.579-1.667,2.05-4.735,3.842-6.247,1.065-.9,3.132-.033,4.8-1.837s1.468-2.6,3.775-5.311c1.2-1.4,3.424-1,5.38-1.281-1.3-2.461-2.76-4.673-4.4-4.632a22.645,22.645,0,0,0-5.695,1.2c-.724.3-3.364,3.908-5.034,5.713s-2.1.76-3.522,2.951c-2.106,3.244-.937,3.389-2.849,5.266s-2.475,10.421-2.475,10.421h3.762C631.432,992.693,632.255,989.439,633.332,988.743Z" fill="#e6e7e8"/>
        <path d="M654.306,982.5s-.94,3.675-2.073,4.877-2.957.034-4.342,1.37-1.007,2.606-2.894,3.541-2.076.834-3.461.3c-1.5-.578-3.4,1.791-3.539,2.4h19.1A120.905,120.905,0,0,0,654.306,982.5Z" fill="#6d6e70"/>
        <path d="M642.459,977.553s-1.132,2.472-1.887,2.605-2.1.534-2.35,0S640.667,977.782,642.459,977.553Z" fill="#929497"/>
        <path d="M648.8,975.449c-.252-.853,1.478-.451,2.045,0a6.211,6.211,0,0,1,1.007,2.354s-1.29-.5-1.527-1.178S649.055,976.3,648.8,975.449Z" fill="#6d6e70"/>
        <path d="M645.654,989.6c.278.1-.669,1.482-2.018,1.816-.366.09-.955.439-1.045-.221s.788-1.182,1.2-1.324A5.259,5.259,0,0,1,645.654,989.6Z" fill="#6d6e70"/>
      </g>
      <path d="M142.792,977.128c0,1.885-13.368,3.413-29.859,3.413s-29.86-1.528-29.86-3.413,13.369-3.413,29.86-3.413S142.792,975.243,142.792,977.128Z" fill="#ddd08e"/>
      <g>
        <path d="M87.268,976.8s1.386-10.006,3.773-12.349,1.718-5.21,3.648-7.056c3.138-3,2.012-.872,4.1-3.126l6.183-6.675s4.317-1.941,6.706-2c7.964-.2,12.995,31.208,12.995,31.208Z" fill="#929497"/>
        <path d="M94.985,969c3.222-2.083,2.561-5.915,4.8-7.8,1.33-1.123,3.912-.041,6-2.295s1.833-3.252,4.715-6.633c1.493-1.753,4.277-1.248,6.719-1.6-1.628-3.074-3.447-5.836-5.5-5.785a28.215,28.215,0,0,0-7.113,1.5c-.9.375-4.2,4.881-6.287,7.135s-2.621.95-4.4,3.686c-2.631,4.052-1.171,4.234-3.558,6.577S87.268,976.8,87.268,976.8h4.7C92.613,973.934,93.641,969.869,94.985,969Z" fill="#e6e7e8"/>
        <path d="M121.183,961.2s-1.175,4.59-2.59,6.092-3.693.042-5.422,1.71-1.258,3.255-3.615,4.423-2.594,1.042-4.323.376c-1.871-.722-4.253,2.237-4.421,3h23.86A151.2,151.2,0,0,0,121.183,961.2Z" fill="#6d6e70"/>
        <path d="M106.386,955.023s-1.415,3.088-2.358,3.254-2.62.668-2.934,0S104.147,955.309,106.386,955.023Z" fill="#929497"/>
        <path d="M114.311,952.4c-.315-1.065,1.846-.563,2.553,0s1.258,2.941,1.258,2.941-1.611-.625-1.906-1.471S114.624,953.459,114.311,952.4Z" fill="#6d6e70"/>
        <path d="M110.376,970.065c.347.131-.836,1.852-2.521,2.268-.457.113-1.193.549-1.3-.276s.984-1.476,1.5-1.653A6.581,6.581,0,0,1,110.376,970.065Z" fill="#6d6e70"/>
      </g>
    </g>
  </g>
</svg>
