<?xml version="1.0" encoding="UTF-8" standalone="no"?>
<!DOCTYPE svg PUBLIC "-//W3C//DTD SVG 1.1//EN" "http://www.w3.org/Graphics/SVG/1.1/DTD/svg11.dtd">
<svg width="100%" height="100%" viewBox="0 0 1920 1080" version="1.1" xmlns="http://www.w3.org/2000/svg" xmlns:xlink="http://www.w3.org/1999/xlink" xml:space="preserve" xmlns:serif="http://www.serif.com/" style="fill-rule:evenodd;clip-rule:evenodd;stroke-linejoin:round;stroke-miterlimit:2;">
    <g transform="matrix(0.556099,0,0,0.702977,-276.885,-983.467)">
        <g id="Layer-1" serif:id="Layer 1">
            <g>
                <g transform="matrix(-1536,-6.84989e-15,-6.84989e-15,1536,3060.92,2167)">
                    <rect x="-0.833" y="-0.5" width="2.667" height="1" style="fill:url(#_Linear1);"/>
                </g>
                <g transform="matrix(1,0,0,1,4256.1,2399.92)">
                    <path d="M0,-212.207L-97.242,-278.214L-97.707,-280.156L-123.881,-390.115L-132.668,-398.049L-187.186,-447.26L-322.858,-413.925L-404.73,-311.546L-534.744,-232.439L-622.723,-120.226L-625.531,-123.224L-626.275,-124.019L-597.615,-329.681L-588.982,-391.627L-622.484,-470.091L-622.484,-670.829L-727.824,-670.829L-1132.89,-152.896L-1144.23,-212.207L-1241.47,-278.214L-1241.93,-280.156L-1268.11,-390.115L-1276.89,-398.049L-1331.41,-447.26L-1467.08,-413.925L-1548.96,-311.546L-1678.97,-232.439L-1856.12,-24.884L-1889.58,-60.599L-1890.07,-61.122L-1871.2,-196.523L-1865.52,-237.307L-1836.91,-299.099L-1794.61,-476.116L-1812.35,-521.121L-1956.93,-421.125L-2218.34,-86.874L-2264.35,-135.973L-2265.15,-136.824L-2249.88,-270.131L-2272.4,-307.169L-2225.26,-423.044L-2164.39,-635.133L-2358.5,-590.128L-2450.65,-508.32L-2559.68,-482.607L-2861.73,-97.348L-2885.98,-123.224L-2886.72,-124.019L-2858.06,-329.681L-2849.43,-391.627L-2882.93,-470.091L-2861.55,-747.295L-2960.65,-741.295L-3373.51,-178.25L-3352.41,-329.681L-3343.78,-391.627L-3377.28,-470.091L-3377.28,-670.829L-3482.62,-670.829L-4011.19,-159.29L-4011.19,535.088L84.814,535.088L84.814,-159.29L0,-212.207Z" style="fill:rgb(187,189,191);fill-rule:nonzero;"/>
                </g>
                <g transform="matrix(1,0,0,1,4233.54,2612.77)">
                    <path d="M0,-177.286L-0.391,-178.696L-22.479,-258.484L-29.893,-264.24L-75.896,-299.948L-190.381,-275.761L-259.467,-201.473L-369.176,-144.072L-444.631,-74.191L-419.416,-234.548L-411.619,-282.662L-441.88,-343.606L-441.88,-499.52L-537.029,-499.52L-958.901,-35.676L-979.721,-129.39L-1061.78,-177.286L-1062.17,-178.696L-1084.26,-258.484L-1091.67,-264.24L-1137.67,-299.948L-1252.16,-275.761L-1355.57,-214.349L-1425.75,-146.795L-1438.11,-202.427L-1550.5,-268.026L-1551.03,-269.958L-1581.29,-379.24L-1591.44,-387.124L-1654.45,-436.03L-1811.26,-402.902L-1905.88,-301.154L-2056.14,-222.536L-2088.13,-187.453L-2088.02,-188.295L-2108.36,-217.063L-2065.79,-307.064L-2079.31,-387.148L-2161.86,-411.052L-2216.79,-411.016L-2269.37,-373.299L-2367.85,-353.328L-2461.79,-306.139L-2512.04,-348.907L-2491.63,-445.766L-2579.18,-436.766L-2705.31,-345.084L-2750.65,-312.556L-2835.58,-295.332L-2955.2,-164.13L-2943.79,-234.548L-2936,-282.662L-2966.26,-343.606L-2972.97,-454.676L-2985.99,-478.674L-3061.41,-499.52L-3521.21,6.035L-3560.53,-36.286L-3561.02,-36.741L-3551.55,-107.775L-3565.51,-127.513L-3536.3,-189.259L-3545.58,-244.202L-3602.21,-260.6L-3639.9,-260.577L-3675.97,-234.7L-3743.54,-220.999L-3852.46,-154.958L-3988.63,-122.303L-3988.63,322.234L107.373,322.234L107.373,-122.303L0,-177.286Z" style="fill:rgb(35,31,32);fill-rule:nonzero;"/>
                </g>
                <g transform="matrix(1,0,0,1,3679.79,2224.04)">
                    <path d="M0,447.193L17.153,409.406L59.039,368.92L63.216,263.656L285.757,-100.72L190.612,-100.72L-325.726,547.913L-142.261,547.913L-64.567,474.183L0,447.193Z" style="fill:rgb(230,231,232);fill-rule:nonzero;"/>
                </g>
                <g transform="matrix(1,0,0,1,4008.71,2540.6)">
                    <path d="M0,116.819L-45.916,68.679L-46.588,67.973L-20.701,-114.535L-114.59,113.122L-193.738,141.43L-260.635,231.354L49.407,231.354L0,116.819Z" style="fill:rgb(109,110,112);fill-rule:nonzero;"/>
                </g>
                <g transform="matrix(1,0,0,1,3894.12,2241.55)">
                    <path d="M0,412.168L93.889,184.511L101.686,129.538L71.426,59.907L71.426,-118.232L71.422,-118.232L-151.119,246.144L-155.296,351.407L-197.182,391.894L-214.335,429.681L-278.902,456.671L-356.596,530.4L-146.045,530.4L-79.148,440.477L0,412.168Z" style="fill:rgb(146,148,151);fill-rule:nonzero;"/>
                </g>
                <g transform="matrix(1,0,0,1,3706.09,2634.8)">
                    <path d="M0,-103.915L0,-62.079L-27.994,-43.186L-61.733,0L-46.289,-64.778L0,-103.915Z" style="fill:rgb(146,148,151);fill-rule:nonzero;"/>
                </g>
                <g transform="matrix(0,-1,-1,0,3824.32,2507.65)">
                    <path d="M-31.669,57.649L12.19,57.649L57.649,31.669L9.83,31.669L-31.669,57.649Z" style="fill:rgb(230,231,232);fill-rule:nonzero;"/>
                </g>
                <g transform="matrix(0.694709,0.719291,0.719291,-0.694709,3816.58,2605.56)">
                    <path d="M39.474,-16.754C40.879,-15.299 63.148,21.356 60.203,26.078C57.258,30.799 39.474,93.003 39.474,93.003C39.474,93.003 22.141,46.89 24.618,41.683C27.095,36.477 39.474,-16.754 39.474,-16.754" style="fill:rgb(109,110,112);fill-rule:nonzero;"/>
                </g>
                <g transform="matrix(1,0,0,1,576.419,2224.04)">
                    <path d="M0,447.193L17.152,409.406L59.038,368.92L63.215,263.656L285.756,-100.72L190.611,-100.72L-325.726,547.913L-142.261,547.913L-64.567,474.183L0,447.193Z" style="fill:rgb(230,231,232);fill-rule:nonzero;"/>
                </g>
                <g transform="matrix(1,0,0,1,905.343,2540.6)">
                    <path d="M0,116.819L-45.915,68.679L-46.588,67.973L-20.7,-114.535L-114.59,113.122L-193.737,141.43L-260.635,231.354L49.407,231.354L0,116.819Z" style="fill:rgb(109,110,112);fill-rule:nonzero;"/>
                </g>
                <g transform="matrix(1,0,0,1,790.753,2241.55)">
                    <path d="M0,412.168L93.89,184.511L101.687,129.538L71.427,59.907L71.427,-118.232L71.422,-118.232L-151.119,246.144L-155.296,351.407L-197.182,391.894L-214.334,429.681L-278.901,456.671L-356.595,530.4L-146.045,530.4L-79.147,440.477L0,412.168Z" style="fill:rgb(146,148,151);fill-rule:nonzero;"/>
                </g>
                <g transform="matrix(1,0,0,1,602.722,2634.8)">
                    <path d="M0,-103.915L0,-62.079L-27.994,-43.186L-61.732,0L-46.288,-64.778L0,-103.915Z" style="fill:rgb(146,148,151);fill-rule:nonzero;"/>
                </g>
                <g transform="matrix(0,-1,-1,0,720.947,2507.65)">
                    <path d="M-31.669,57.648L12.19,57.648L57.648,31.669L9.829,31.669L-31.669,57.648Z" style="fill:rgb(230,231,232);fill-rule:nonzero;"/>
                </g>
                <g transform="matrix(0.694705,0.719295,0.719295,-0.694705,713.204,2605.56)">
                    <path d="M39.474,-16.754C40.88,-15.298 63.149,21.356 60.204,26.078C57.259,30.799 39.474,93.003 39.474,93.003C39.474,93.003 22.142,46.89 24.619,41.683C27.096,36.477 39.474,-16.754 39.474,-16.754" style="fill:rgb(109,110,112);fill-rule:nonzero;"/>
                </g>
                <g transform="matrix(1,0,0,1,1012.5,2428.09)">
                    <path d="M0,269.026L28.735,225.528L41.944,194.408L100.212,143.212L233.171,82.356L346.431,-34.227L300.637,-74.84L186.67,-47.33L117.896,37.162L8.685,102.447L-183.968,343.866L-124.178,343.866L-45.193,280.815L0,269.026Z" style="fill:rgb(230,231,232);fill-rule:nonzero;"/>
                </g>
                <g transform="matrix(1,0,0,1,1470.37,2715.88)">
                    <path d="M0,-168.642L-81.685,-223.117L-82.073,-224.72L-104.061,-174.058L-143.974,-70.566L-188.676,-18.762L-297.827,56.078L43.694,56.078L0,-168.642Z" style="fill:rgb(109,110,112);fill-rule:nonzero;"/>
                </g>
                <g transform="matrix(1,0,0,1,1326.4,2520.51)">
                    <path d="M0,124.805L39.913,21.313L61.9,-29.349L39.913,-120.098L32.531,-126.644L-80.729,-10.061L-213.688,50.794L-271.955,101.991L-285.164,133.111L-313.899,176.609L-359.093,188.398L-438.077,251.449L-153.854,251.449L-44.702,176.609L0,124.805Z" style="fill:rgb(146,148,151);fill-rule:nonzero;"/>
                </g>
                <g transform="matrix(1,0,0,1,976.148,2646.95)">
                    <path d="M0,44.927L24.681,37.204L34.565,21.758L37.655,0L29.314,1.34C29.314,1.34 4.602,26.701 4.91,30.099C5.22,33.496 0,44.927 0,44.927" style="fill:rgb(146,148,151);fill-rule:nonzero;"/>
                </g>
                <g transform="matrix(0.94869,-0.316207,-0.316207,-0.94869,1217.33,2515.99)">
                    <path d="M-4.76,8.983L24.756,8.983L55.358,29.333L27.008,24.286L-4.76,8.983Z" style="fill:rgb(146,148,151);fill-rule:nonzero;"/>
                </g>
                <g transform="matrix(-0.316211,0.948689,0.948689,0.316211,1039.15,2651.81)">
                    <path d="M-21.815,-9.82L-4.21,-9.82L6.664,-14.482C6.664,-14.482 -5.039,-19.762 -7.731,-17.898C-10.423,-16.034 -21.815,-9.82 -21.815,-9.82" style="fill:rgb(146,148,151);fill-rule:nonzero;"/>
                </g>
                <g transform="matrix(1,0,0,1,1295.45,2608.2)">
                    <path d="M0,54.527L20.632,27.263L26.035,0L7.368,16.211L3.438,33.895L0,54.527Z" style="fill:rgb(109,110,112);fill-rule:nonzero;"/>
                </g>
                <g transform="matrix(1,0,0,1,1393.97,2562.6)">
                    <path d="M0,-31.766L-10.315,0L43.943,-11.385L0,-31.766Z" style="fill:rgb(146,148,151);fill-rule:nonzero;"/>
                </g>
                <g transform="matrix(1,0,0,1,2928.39,2402.2)">
                    <path d="M0,289.283L30.896,242.51L45.101,209.046L107.758,153.995L250.726,88.557L372.516,-36.804L323.271,-80.475L200.725,-50.893L126.773,39.961L9.338,110.162L-197.82,369.758L-133.528,369.758L-48.598,301.959L0,289.283Z" style="fill:rgb(230,231,232);fill-rule:nonzero;"/>
                </g>
                <g transform="matrix(1,0,0,1,3420.74,2711.65)">
                    <path d="M0,-181.341L-87.836,-239.917L-88.255,-241.641L-111.896,-187.162L-154.814,-75.88L-202.883,-20.175L-320.252,60.3L46.984,60.3L0,-181.341Z" style="fill:rgb(109,110,112);fill-rule:nonzero;"/>
                </g>
                <g transform="matrix(1,0,0,1,3265.92,2501.57)">
                    <path d="M0,134.202L42.918,22.92L66.56,-31.559L42.918,-129.14L34.982,-136.18L-86.808,-10.819L-229.775,54.619L-292.433,109.67L-306.637,143.134L-337.533,189.907L-386.131,202.583L-471.062,270.382L-165.438,270.382L-48.068,189.907L0,134.202Z" style="fill:rgb(146,148,151);fill-rule:nonzero;"/>
                </g>
                <g transform="matrix(1,0,0,1,2889.3,2637.54)">
                    <path d="M0,48.308L26.537,40.004L37.166,23.395L40.488,0L31.52,1.441C31.52,1.441 4.947,28.711 5.279,32.365C5.609,36.018 0,48.308 0,48.308" style="fill:rgb(146,148,151);fill-rule:nonzero;"/>
                </g>
                <g transform="matrix(0.948686,-0.316218,-0.316218,-0.948686,3148.64,2496.72)">
                    <path d="M-5.118,9.66L26.619,9.66L59.526,31.542L29.042,26.114L-5.118,9.66Z" style="fill:rgb(146,148,151);fill-rule:nonzero;"/>
                </g>
                <g transform="matrix(-0.316244,0.948678,0.948678,0.316244,2957.05,2642.77)">
                    <path d="M-23.459,-10.56L-4.527,-10.56L7.165,-15.57C7.165,-15.57 -5.419,-21.252 -8.314,-19.245C-11.208,-17.242 -23.459,-10.56 -23.459,-10.56" style="fill:rgb(146,148,151);fill-rule:nonzero;"/>
                </g>
                <g transform="matrix(1,0,0,1,3232.64,2595.87)">
                    <path d="M0,58.632L22.186,29.316L27.995,0L7.924,17.432L3.697,36.447L0,58.632Z" style="fill:rgb(109,110,112);fill-rule:nonzero;"/>
                </g>
                <g transform="matrix(1,0,0,1,3338.58,2546.84)">
                    <path d="M0,-34.156L-11.092,0L47.253,-12.241L0,-34.156Z" style="fill:rgb(146,148,151);fill-rule:nonzero;"/>
                </g>
                <g transform="matrix(1,0,0,1,2389.54,2717.96)">
                    <path d="M0,-74.471L-51.5,-128.467L-118.077,-79.731L-210.544,-79.731L-317.457,53.996L55.417,53.996L0,-74.471Z" style="fill:rgb(109,110,112);fill-rule:nonzero;"/>
                </g>
                <g transform="matrix(1,0,0,1,2179,2653.89)">
                    <path d="M0,-338.094L95.32,-456.156L37.711,-456.115L-17.424,-410.922L-120.702,-386.992L-523.739,118.062L-401.792,118.062C-360.109,62.239 -309.721,4.911 -245.077,-80.319C-238.766,-88.639 -174.375,-111.286 -168.249,-119.362C-159.261,-131.205 -159.439,-189.741 -151.034,-200.809C-99.91,-268.139 -88.9,-295.27 -88.9,-295.27L0,-338.094Z" style="fill:rgb(230,231,232);fill-rule:nonzero;"/>
                </g>
                <g transform="matrix(1,0,0,1,2271.47,2331.46)">
                    <path d="M0,306.764L66.577,258.028L65.822,257.236L80.291,133.175L58.954,98.705L103.603,-9.132L89.424,-105.089L2.854,-133.727L-92.467,-15.666L-181.367,27.159C-181.367,27.159 -204.439,57.47 -238.692,102.552C-255.347,124.467 -259.033,175.744 -279.607,202.855C-295.205,223.409 -327.15,219.072 -343.621,240.806C-400.252,315.534 -458.529,392.641 -494.258,440.491L-199.379,440.491L-92.467,306.764L0,306.764Z" style="fill:rgb(146,148,151);fill-rule:nonzero;"/>
                </g>
                <g transform="matrix(-0.701124,0.713039,0.713039,0.701124,2284.34,2602.11)">
                    <path d="M6.942,-29.375L45.97,-29.375L20.361,-3.331L-26.715,2.91L6.942,-29.375Z" style="fill:rgb(109,110,112);fill-rule:nonzero;"/>
                </g>
                <g transform="matrix(1,0,0,1,2000.08,2528.06)">
                    <path d="M0,-67.154C0,-67.154 -11.479,-17.905 -23.33,-6.054C-35.181,5.793 -75.913,25.048 -69.986,12.09C-64.063,-0.87 -3.74,-92.202 0,-67.154" style="fill:rgb(146,148,151);fill-rule:nonzero;"/>
                </g>
                <g transform="matrix(1,0,0,1,2132.92,2267.31)">
                    <path d="M0,49.119C0,49.119 23.931,45.972 38.415,32.745C52.897,19.521 72.421,0 60.456,3.778C48.491,7.556 3.778,31.488 0,49.119" style="fill:rgb(146,148,151);fill-rule:nonzero;"/>
                </g>
                <g transform="matrix(1,0,0,1,2158.74,2655.86)">
                    <path d="M0,41.564C0,41.564 30.857,0 32.746,0L57.307,0C57.307,0 32.746,40.604 0,41.564" style="fill:rgb(146,148,151);fill-rule:nonzero;"/>
                </g>
                <g transform="matrix(1,0,0,1,2730.8,2736.63)">
                    <path d="M0,-48.721L-33.691,-84.044L-77.247,-52.161L-137.739,-52.161L-207.681,35.323L36.254,35.323L0,-48.721Z" style="fill:rgb(109,110,112);fill-rule:nonzero;"/>
                </g>
                <g transform="matrix(1,0,0,1,2593.06,2694.72)">
                    <path d="M0,-221.182L62.359,-298.419L24.672,-298.392L-11.397,-268.827L-78.963,-253.172L-342.632,77.237L-262.853,77.237C-235.585,40.717 -202.619,3.213 -160.328,-52.544C-156.202,-57.988 -114.077,-72.804 -110.066,-78.087C-104.188,-85.835 -104.306,-124.129 -98.806,-131.369C-65.359,-175.417 -58.158,-193.167 -58.158,-193.167L0,-221.182Z" style="fill:rgb(230,231,232);fill-rule:nonzero;"/>
                </g>
                <g transform="matrix(1,0,0,1,2653.55,2483.78)">
                    <path d="M0,200.688L43.556,168.805L43.063,168.286L52.527,87.125L38.568,64.575L67.779,-5.972L58.501,-68.748L1.867,-87.484L-60.492,-10.247L-118.65,17.768C-118.65,17.768 -133.744,37.599 -156.152,67.091C-167.049,81.429 -169.459,114.974 -182.92,132.71C-193.124,146.157 -214.021,143.32 -224.798,157.539C-261.846,206.425 -299.97,256.869 -323.345,288.172L-130.434,288.172L-60.492,200.688L0,200.688Z" style="fill:rgb(146,148,151);fill-rule:nonzero;"/>
                </g>
                <g transform="matrix(-0.701148,0.713016,0.713016,0.701148,2661.97,2660.84)">
                    <path d="M4.54,-19.216L30.072,-19.216L13.318,-2.178L-17.478,1.903L4.54,-19.216Z" style="fill:rgb(109,110,112);fill-rule:nonzero;"/>
                </g>
                <g transform="matrix(1,0,0,1,2476.01,2612.4)">
                    <path d="M0,-43.933C0,-43.933 -7.509,-11.713 -15.261,-3.961C-23.015,3.79 -49.661,16.386 -45.784,7.909C-41.909,-0.57 -2.446,-60.319 0,-43.933" style="fill:rgb(146,148,151);fill-rule:nonzero;"/>
                </g>
                <g transform="matrix(1,0,0,1,2562.92,2441.81)">
                    <path d="M0,32.135C0,32.135 15.655,30.075 25.132,21.423C34.606,12.772 47.379,0 39.552,2.473C31.724,4.944 2.474,20.601 0,32.135" style="fill:rgb(146,148,151);fill-rule:nonzero;"/>
                </g>
                <g transform="matrix(1,0,0,1,2579.81,2696)">
                    <path d="M0,27.191C0,27.191 20.188,0 21.424,0L37.49,0C37.49,0 21.424,26.563 0,27.191" style="fill:rgb(146,148,151);fill-rule:nonzero;"/>
                </g>
                <g transform="matrix(163.049,0,0,-163.049,2211.39,2853.48)">
                    <rect x="-12.061" y="-0.5" width="25.121" height="1" style="fill:url(#_Linear2);"/>
                </g>
                <g transform="matrix(1,0,0,1,552.58,1587.46)">
                    <path d="M0,-153.81L-13.948,-140.813L-48.01,-126.888L-51.406,-90.683L-232.379,34.643L-155.007,34.643L264.884,-188.453L115.688,-188.453L52.508,-163.093L0,-153.81Z" style="fill:white;fill-rule:nonzero;"/>
                </g>
                <g transform="matrix(1,0,0,1,285.096,1478.58)">
                    <path d="M0,-40.178L37.338,-23.621L37.885,-23.378L16.833,39.395L93.186,-38.907L157.549,-48.643L211.95,-79.573L-40.179,-79.573L0,-40.178Z" style="fill:rgb(109,110,112);fill-rule:nonzero;"/>
                </g>
                <g transform="matrix(1,0,0,1,378.282,1581.43)">
                    <path d="M0,-141.764L-76.353,-63.462L-82.693,-44.555L-58.085,-20.605L-58.085,40.666L-58.081,40.666L122.892,-84.66L126.288,-120.866L160.35,-134.79L174.298,-147.787L226.806,-157.071L289.986,-182.43L118.765,-182.43L64.363,-151.5L0,-141.764Z" style="fill:rgb(146,148,151);fill-rule:nonzero;"/>
                </g>
                <g transform="matrix(1,0,0,1,531.191,1446.18)">
                    <path d="M0,35.741L0,21.352L22.765,14.853L50.201,0L37.642,22.28L0,35.741Z" style="fill:rgb(146,148,151);fill-rule:nonzero;"/>
                </g>
                <g transform="matrix(1,0,0,1,2872.62,1588.14)">
                    <path d="M0,-147.969L-44.021,-124.044L-64.258,-106.928L-153.523,-78.768L-357.217,-45.296L-530.73,18.825L-460.572,41.164L-285.977,26.033L-180.616,-20.44L-13.305,-56.348L281.841,-189.133L190.24,-189.133L69.238,-154.453L0,-147.969Z" style="fill:white;fill-rule:nonzero;"/>
                </g>
                <g transform="matrix(1,0,0,1,2171.16,1429.85)">
                    <path d="M0,92.759L125.142,122.721L125.739,123.602L159.423,95.738L220.569,38.814L289.052,10.321L456.272,-30.843L-66.938,-30.843L0,92.759Z" style="fill:rgb(109,110,112);fill-rule:nonzero;"/>
                </g>
                <g transform="matrix(1,0,0,1,2391.73,1537.31)">
                    <path d="M0,-68.646L-61.146,-11.722L-94.83,16.142L-61.146,66.056L-49.838,69.656L123.676,5.535L327.369,-27.937L416.635,-56.097L436.871,-73.213L480.893,-97.138L550.131,-103.623L671.133,-138.302L235.703,-138.302L68.482,-97.138L0,-68.646Z" style="fill:rgb(146,148,151);fill-rule:nonzero;"/>
                </g>
                <g transform="matrix(1,0,0,1,2928.31,1467.76)">
                    <path d="M0,-24.712L-37.811,-20.465L-52.954,-11.968L-57.688,0L-44.91,-0.738C-44.91,-0.738 -7.051,-14.688 -7.521,-16.556C-7.995,-18.425 0,-24.712 0,-24.712" style="fill:rgb(146,148,151);fill-rule:nonzero;"/>
                </g>
                <g transform="matrix(-0.992917,0.118808,0.118808,0.992917,2494.09,1569.25)">
                    <path d="M-78.497,-16.394L-35.293,-16.394L0.977,-4.68L-38.409,-7.586L-78.497,-16.394Z" style="fill:rgb(146,148,151);fill-rule:nonzero;"/>
                </g>
                <g transform="matrix(0.680246,-0.732984,-0.732984,-0.680246,2844.25,1484.2)">
                    <path d="M-1.54,10.519L10.994,10.519L22.749,4.999C22.749,4.999 18.963,-1.248 15.442,0.958C11.919,3.163 -1.54,10.519 -1.54,10.519" style="fill:rgb(146,148,151);fill-rule:nonzero;"/>
                </g>
                <g transform="matrix(1,0,0,1,2439.14,1489.07)">
                    <path d="M0,-29.991L-31.605,-14.996L-39.885,0L-11.287,-8.917L-5.268,-18.643L0,-29.991Z" style="fill:rgb(109,110,112);fill-rule:nonzero;"/>
                </g>
                <g transform="matrix(1,0,0,1,2288.21,1514.15)">
                    <path d="M0,17.473L15.803,0L-67.322,6.264L0,17.473Z" style="fill:rgb(146,148,151);fill-rule:nonzero;"/>
                </g>
                <g transform="matrix(1,0,0,1,1426.87,1550.79)">
                    <path d="M0,-118.748L-40.207,-99.548L-58.691,-85.811L-140.226,-63.214L-326.272,-36.352L-484.757,15.109L-420.676,33.036L-261.203,20.893L-164.971,-16.401L-12.151,-45.221L257.425,-151.784L173.76,-151.784L63.24,-123.952L0,-118.748Z" style="fill:white;fill-rule:nonzero;"/>
                </g>
                <g transform="matrix(1,0,0,1,786.177,1423.76)">
                    <path d="M0,74.442L114.304,98.487L114.847,99.194L145.612,76.832L201.461,31.15L264.013,8.284L416.746,-24.752L-61.139,-24.752L0,74.442Z" style="fill:rgb(109,110,112);fill-rule:nonzero;"/>
                </g>
                <g transform="matrix(1,0,0,1,987.638,1509.99)">
                    <path d="M0,-55.089L-55.849,-9.407L-86.614,12.955L-55.849,53.014L-45.521,55.902L112.963,4.441L299.01,-22.421L380.544,-45.019L399.028,-58.755L439.235,-77.955L502.476,-83.159L612.995,-110.991L215.285,-110.991L62.552,-77.955L0,-55.089Z" style="fill:rgb(146,148,151);fill-rule:nonzero;"/>
                </g>
                <g transform="matrix(1,0,0,1,1477.74,1454.18)">
                    <path d="M0,-19.83L-34.534,-16.423L-48.366,-9.603L-52.689,0L-41.018,-0.591C-41.018,-0.591 -6.438,-11.786 -6.871,-13.285C-7.302,-14.785 0,-19.83 0,-19.83" style="fill:rgb(146,148,151);fill-rule:nonzero;"/>
                </g>
                <g transform="matrix(-0.994519,0.104551,0.104551,0.994519,1080.82,1535.65)">
                    <path d="M-71.493,-13.165L-32.096,-13.165L0.69,-3.748L-35.153,-6.085L-71.493,-13.165Z" style="fill:rgb(146,148,151);fill-rule:nonzero;"/>
                </g>
                <g transform="matrix(0.726325,-0.687351,-0.687351,-0.726325,1399.66,1468.08)">
                    <path d="M-1.053,8.63L9.672,8.63L20.344,3.904C20.344,3.904 17.8,-1.449 14.54,0.442C11.282,2.33 -1.053,8.63 -1.053,8.63" style="fill:rgb(146,148,151);fill-rule:nonzero;"/>
                </g>
                <g transform="matrix(1,0,0,1,1030.94,1471.28)">
                    <path d="M0,-24.067L-28.869,-12.034L-36.43,0L-10.309,-7.155L-4.811,-14.962L0,-24.067Z" style="fill:rgb(109,110,112);fill-rule:nonzero;"/>
                </g>
                <g transform="matrix(1,0,0,1,893.092,1491.41)">
                    <path d="M0,14.02L14.435,0L-61.488,5.025L0,14.02Z" style="fill:rgb(146,148,151);fill-rule:nonzero;"/>
                </g>
                <g transform="matrix(1,0,0,1,1639.09,1416.71)">
                    <path d="M0,24.424L48.796,42.134L111.876,26.15L199.487,26.15L300.785,-17.71L-52.507,-17.71L0,24.424Z" style="fill:rgb(109,110,112);fill-rule:nonzero;"/>
                </g>
                <g transform="matrix(1,0,0,1,1838.57,1437.73)">
                    <path d="M0,110.885L-90.313,149.607L-35.731,149.593L16.509,134.772L114.362,126.923L496.234,-38.722L380.69,-38.722C341.198,-20.414 293.457,-1.611 232.207,26.342C226.227,29.071 165.218,36.498 159.413,39.147C150.897,43.031 151.065,62.23 143.102,65.86C94.662,87.942 84.231,96.84 84.231,96.84L0,110.885Z" style="fill:white;fill-rule:nonzero;"/>
                </g>
                <g transform="matrix(1,0,0,1,1750.96,1543.47)">
                    <path d="M0,-100.611L-63.08,-84.627L-62.364,-84.367L-76.074,-43.678L-55.858,-32.373L-98.162,2.994L-84.728,34.466L-2.702,43.859L87.611,5.137L171.843,-8.908C171.843,-8.908 193.702,-18.849 226.157,-33.634C241.938,-40.822 245.43,-57.64 264.924,-66.532C279.701,-73.273 309.97,-71.851 325.574,-78.979C379.232,-103.488 434.45,-128.777 468.301,-144.47L188.909,-144.47L87.611,-100.611L0,-100.611Z" style="fill:rgb(146,148,151);fill-rule:nonzero;"/>
                </g>
                <g transform="matrix(0.943253,-0.332076,-0.332076,-0.943253,1764.15,1456.56)">
                    <path d="M-1.959,-2.783L25.526,-2.783L-7.118,8.709L-43.771,11.464L-1.959,-2.783Z" style="fill:rgb(109,110,112);fill-rule:nonzero;"/>
                </g>
                <g transform="matrix(1,0,0,1,2008.1,1479)">
                    <path d="M0,22.025C0,22.025 10.878,5.873 22.104,1.986C33.334,-1.901 71.927,-8.215 66.312,-3.965C60.699,0.285 3.544,30.24 0,22.025" style="fill:rgb(146,148,151);fill-rule:nonzero;"/>
                </g>
                <g transform="matrix(1,0,0,1,1882.23,1564.51)">
                    <path d="M0,-16.11C0,-16.11 -22.673,-15.078 -36.396,-10.74C-50.119,-6.403 -68.617,0 -57.279,-1.24C-45.943,-2.478 -3.58,-10.328 0,-16.11" style="fill:rgb(146,148,151);fill-rule:nonzero;"/>
                </g>
                <g transform="matrix(1,0,0,1,1857.77,1437.08)">
                    <path d="M0,-13.632C0,-13.632 -29.239,0 -31.028,0L-54.299,0C-54.299,0 -31.028,-13.317 0,-13.632" style="fill:rgb(146,148,151);fill-rule:nonzero;"/>
                </g>
                <g transform="matrix(1,0,0,1,4135.08,1561.73)">
                    <path d="M0,-127.312L-32.15,-106.727L-46.93,-92L-112.125,-67.772L-260.889,-38.973L-387.617,16.197L-336.378,35.417L-208.859,22.398L-131.912,-17.586L-9.717,-48.482L205.842,-162.729L138.943,-162.729L50.568,-132.891L0,-127.312Z" style="fill:white;fill-rule:nonzero;"/>
                </g>
                <g transform="matrix(1,0,0,1,3622.77,1425.54)">
                    <path d="M0,79.809L91.396,105.588L91.831,106.346L116.431,82.372L161.091,33.395L211.108,8.88L333.234,-26.537L-48.888,-26.537L0,79.809Z" style="fill:rgb(109,110,112);fill-rule:nonzero;"/>
                </g>
                <g transform="matrix(1,0,0,1,3783.86,1518)">
                    <path d="M0,-59.062L-44.66,-10.085L-69.26,13.889L-44.66,56.834L-36.4,59.932L90.328,4.762L239.092,-24.037L304.287,-48.265L319.066,-62.992L351.217,-83.577L401.785,-89.156L490.16,-118.994L172.144,-118.994L50.018,-83.577L0,-59.062Z" style="fill:rgb(146,148,151);fill-rule:nonzero;"/>
                </g>
                <g transform="matrix(-0.990208,0.139603,0.139603,0.990208,3859.05,1545.45)">
                    <path d="M-57.601,-14.093L-25.961,-14.093L0.989,-4.04L-27.95,-6.535L-57.601,-14.093Z" style="fill:rgb(146,148,151);fill-rule:nonzero;"/>
                </g>
                <g transform="matrix(1,0,0,1,3818.49,1476.5)">
                    <path d="M0,-25.805L-23.083,-12.903L-29.13,0L-8.243,-7.672L-3.849,-16.041L0,-25.805Z" style="fill:rgb(109,110,112);fill-rule:nonzero;"/>
                </g>
                <g transform="matrix(1,0,0,1,3708.26,1498.08)">
                    <path d="M0,15.033L11.541,0L-49.17,5.388L0,15.033Z" style="fill:rgb(146,148,151);fill-rule:nonzero;"/>
                </g>
                <g transform="matrix(1,0,0,1,3099.21,1416.71)">
                    <path d="M0,24.424L39.936,42.134L91.563,26.15L163.266,26.15L246.17,-17.71L-42.973,-17.71L0,24.424Z" style="fill:rgb(109,110,112);fill-rule:nonzero;"/>
                </g>
                <g transform="matrix(1,0,0,1,3262.48,1437.73)">
                    <path d="M0,110.885L-73.914,149.607L-29.244,149.593L13.512,134.772L93.598,126.923L406.129,-38.722L311.567,-38.722C279.246,-20.414 240.17,-1.611 190.045,26.342C185.15,29.071 135.218,36.498 130.467,39.147C123.5,43.031 123.637,62.23 117.117,65.86C77.473,87.942 68.938,96.84 68.938,96.84L0,110.885Z" style="fill:white;fill-rule:nonzero;"/>
                </g>
                <g transform="matrix(1,0,0,1,3190.78,1543.47)">
                    <path d="M0,-100.611L-51.627,-84.627L-51.041,-84.367L-62.263,-43.678L-45.715,-32.373L-80.338,2.994L-69.344,34.466L-2.211,43.859L71.703,5.137L140.641,-8.908C140.641,-8.908 158.531,-18.849 185.094,-33.634C198.008,-40.822 200.865,-57.64 216.818,-66.532C228.914,-73.273 253.688,-71.851 266.458,-78.979C310.375,-103.488 355.564,-128.777 383.271,-144.47L154.607,-144.47L71.703,-100.611L0,-100.611Z" style="fill:rgb(146,148,151);fill-rule:nonzero;"/>
                </g>
                <g transform="matrix(0.918625,-0.395131,-0.395131,-0.918625,3201.92,1456.54)">
                    <path d="M-2.323,-2.596L20.776,-2.596L-5.242,8.595L-35.706,11.277L-2.323,-2.596Z" style="fill:rgb(109,110,112);fill-rule:nonzero;"/>
                </g>
                <g transform="matrix(1,0,0,1,3401.22,1479)">
                    <path d="M0,22.025C0,22.025 8.906,5.873 18.094,1.986C27.285,-1.901 58.869,-8.215 54.274,-3.965C49.682,0.285 2.9,30.24 0,22.025" style="fill:rgb(146,148,151);fill-rule:nonzero;"/>
                </g>
                <g transform="matrix(1,0,0,1,3298.21,1564.51)">
                    <path d="M0,-16.11C0,-16.11 -18.556,-15.078 -29.787,-10.74C-41.019,-6.403 -56.158,0 -46.879,-1.24C-37.601,-2.478 -2.929,-10.328 0,-16.11" style="fill:rgb(146,148,151);fill-rule:nonzero;"/>
                </g>
                <g transform="matrix(1,0,0,1,3278.19,1437.08)">
                    <path d="M0,-13.632C0,-13.632 -23.93,0 -25.395,0L-44.439,0C-44.439,0 -25.395,-13.317 0,-13.632" style="fill:rgb(146,148,151);fill-rule:nonzero;"/>
                </g>
                <g transform="matrix(-1,0,0,1,4585.84,-2118.79)">
                    <rect x="244.918" y="4890.44" width="4096" height="163.355" style="fill:rgb(214,194,173);"/>
                </g>
                <g transform="matrix(1,0,0,1,4340.92,2750.95)">
                    <path d="M0,103.991L-389.191,103.991C-543.977,103.991 -673.97,78.185 -745.97,100.544C-837.965,132.483 -1065.95,145.259 -1169.95,132.483C-1309.94,116.513 -1583.93,84.755 -1791.93,84.755C-1999.92,84.755 -2383.9,137.378 -2563.89,137.378C-2743.89,137.378 -2841.88,108.527 -3181.87,95.752C-3369.86,89.363 -3300.24,113.502 -3489.34,104.174C-3501.28,104.174 -3659.85,103.991 -3903.52,103.991L-4096,103.991L-4096,-22.163L-3804.7,-22.163C-3734.51,-22.163 -3651.85,2.595 -3603.85,-10.181C-3535.86,-22.956 -3495.86,-36.794 -3427.86,-24.02C-3303.87,-1.663 -3183.87,-33.603 -3063.88,-24.02C-2987.88,-17.633 -2903.88,-17.633 -2823.88,-24.02C-2775.89,-30.408 -2731.89,-14.439 -2687.89,-17.633C-2623.66,-22.893 -2559.42,-23.28 -2495.19,-22.36C-2490.6,-22.294 -2486.01,-22.223 -2481.43,-22.145C-2459.9,-24.02 -2447.9,-8.05 -2435.9,-8.05C-2359.9,-1.663 -2283.91,-20.824 -2209.11,-22.216C-2205.51,-22.812 -2201.91,-23.52 -2198.31,-24.3C-2169.51,-30.536 -2140.71,-41.268 -2111.91,-33.603C-2079.91,-24.02 -2047.91,-4.859 -2015.91,-8.05C-1975.92,-16.036 -1939.92,-20.03 -1903.92,-22.023C-1899.85,-22.216 -1895.79,-22.388 -1891.55,-22.435C-1831.92,-14.439 -1771.93,-14.439 -1707.93,-27.214C-1687.93,-30.408 -1663.93,-24.02 -1643.93,-24.02C-1611.93,-20.824 -1575.93,-39.989 -1539.93,-30.408C-1507.94,-24.02 -1479.94,-17.633 -1447.94,-17.633C-1391.94,-11.244 -1339.94,-14.439 -1283.94,-17.633C-1267.94,-17.633 -1251.94,-24.02 -1235.95,-24.02C-1144.95,-29.61 -1053.95,-15.637 -960.278,-24.893C-955.782,-25.326 -951.274,-25.814 -946.676,-26.341C-807.965,-17.633 -659.974,-14.439 -523.977,-14.439C-423.98,-14.439 -336.969,-4.846 -271.379,-4.846C-205.785,-4.846 -180.848,-22.163 -116.418,-22.163L0,-22.163L0,103.991Z" style="fill:rgb(244,237,203);fill-rule:nonzero;"/>
                </g>
                <g transform="matrix(1,0,0,1,1991.48,2745.6)">
                    <path d="M0,11.419C21.529,9.543 33.529,25.513 45.527,25.513C121.525,31.899 197.522,12.738 272.321,11.347C275.92,10.751 279.518,10.043 283.118,9.263C286.266,8.583 289.413,7.841 292.561,7.082C274.215,1.308 255.868,-7.321 237.52,-12.815C208.721,-20.48 179.924,-9.748 151.124,-3.513C147.524,-2.732 143.924,-2.024 140.324,-1.429C93.656,-0.56 46.521,7.223 -0.789,11.406C-0.525,11.409 -0.264,11.416 0,11.419" style="fill:rgb(221,208,142);fill-rule:nonzero;"/>
                </g>
                <g transform="matrix(1,0,0,1,2457,2729.14)">
                    <path d="M0,41.971C40,33.985 75.996,29.994 111.996,27.998C116.066,27.805 120.133,27.634 124.367,27.586C183.992,35.582 243.992,35.582 307.988,22.807C327.988,19.613 351.988,26.001 371.984,26.001C389.707,27.771 408.66,22.689 428.156,19.422C399.359,18.493 373.335,12.7 343.988,6.837C307.988,-2.743 271.988,16.421 239.992,13.227C219.992,13.227 195.992,6.837 175.992,10.032C111.996,22.807 52,22.807 -7.629,14.811C-11.864,14.859 -15.93,15.03 -20,15.223C-40.536,16.362 -61.099,18.184 -82.379,20.994C-54.918,30.999 -27.459,44.714 0,41.971" style="fill:rgb(221,208,142);fill-rule:nonzero;"/>
                </g>
                <g transform="matrix(1,0,0,1,3024.97,2749.56)">
                    <path d="M0,11.965C56,18.354 107.996,15.159 163.996,11.965C179.992,11.965 195.992,5.578 211.992,5.578C302.987,-0.012 393.983,13.961 487.66,4.705C492.16,4.272 496.667,3.784 501.266,3.258C639.976,11.965 787.969,15.159 923.965,15.159C1023.96,15.159 1110.97,24.752 1176.56,24.752C1236.59,24.752 1254.95,7.797 1315.94,7.797L1315.94,-5.34L1199.53,-5.34C1135.1,-5.34 1110.16,11.974 1044.57,11.974C978.977,11.974 891.965,2.384 791.969,2.384C655.972,2.384 507.98,-0.81 369.27,-9.517C364.671,-8.99 360.163,-8.503 355.667,-8.07C261.992,1.186 170.992,-12.787 79.996,-7.196C64,-7.196 48,-0.81 32,-0.81C-4.348,1.265 -39.008,3.32 -74.172,2.771C-49.246,7.763 -25.918,11.965 0,11.965" style="fill:rgb(221,208,142);fill-rule:nonzero;"/>
                </g>
                <g transform="matrix(1,0,0,1,1045.05,2757.56)">
                    <path d="M0,-2.418C123.996,19.938 243.99,-11.998 363.986,-2.418C439.982,3.969 523.979,3.969 603.977,-2.418C651.973,-8.807 695.973,7.163 739.971,3.969C777.498,0.895 815.025,-0.483 852.553,-0.941C842.684,-5.004 831.586,-14.813 814.438,-13.317C809.85,-13.396 805.262,-13.468 800.674,-13.532C736.441,-14.453 672.207,-14.066 607.975,-8.807C563.977,-5.612 519.979,-21.582 471.98,-15.192C391.984,-8.807 307.988,-8.807 231.99,-15.192C142.323,-22.356 52.658,-6.335 -38.679,-7.106C-26.625,-6.485 -13.919,-5.032 0,-2.418" style="fill:rgb(221,208,142);fill-rule:nonzero;"/>
                </g>
                <g transform="matrix(1,0,0,1,869.061,2739.72)">
                    <path d="M0,29.261C47.698,20.301 81.645,10.851 121.117,10.396C95.56,9.588 69.867,7.311 43.998,2.647C-24,-10.129 -63.998,3.711 -131.994,16.486C-139.275,18.422 -147.365,19.49 -156.079,19.917C-97.927,25.926 -38.065,39.39 0,29.261" style="fill:rgb(221,208,142);fill-rule:nonzero;"/>
                </g>
                <g transform="matrix(0.0306668,-0.99953,-0.99953,-0.0306668,465.875,2542.72)">
                    <path d="M-208.189,-201.899C-204.897,-161.984 -198.012,-117.034 -199.256,-76.494L-208.189,214.674L-220.958,214.283L-208.189,-201.899Z" style="fill:rgb(221,208,142);fill-rule:nonzero;"/>
                </g>
                <g transform="matrix(1,0,0,1,3592.92,2900.72)">
                    <path d="M0,-66.321C-107,-59.162 -317.953,-31.6 -421.949,-44.379C-561.945,-60.348 -835.934,-77.788 -1043.93,-77.788C-1251.92,-77.788 -1635.9,-25.162 -1815.89,-25.162C-1995.89,-25.162 -2090.21,-53.23 -2433.87,-66.788C-2686.96,-76.772 -2786.02,-59.957 -2823,-59.957C-2834.94,-59.957 -2911.85,-58.549 -3155.52,-58.549L-3348,-58.549L-3348,-42.579L-3155.52,-42.579C-2902.54,-42.579 -2802.27,-42.01 -2774.34,-42.01C-2660.12,-39.864 -2619.86,-34.848 -2431.87,-28.462C-2091.88,-15.687 -1995.89,11.467 -1815.89,11.467C-1635.9,11.467 -1255.91,-31.887 -1047.93,-31.887C-839.934,-31.887 -547.945,-23.595 -407.949,-7.626C-303.953,5.15 -46.708,-29.462 25.196,-38.477C97.101,-47.494 171.622,-42.579 358.809,-42.579L748,-42.579L748,-58.549L358.809,-58.549C204.023,-58.549 107,-73.481 0,-66.321" style="fill:rgb(178,156,136);fill-rule:nonzero;"/>
                </g>
                <g transform="matrix(1,0,0,1,4300.92,2851.85)">
                    <path d="M0,-48.092C-98.664,-48.092 -311.988,-40.109 -395.984,-38.331C-479.98,-36.552 -619.978,-48.092 -669.974,-51.287C-719.974,-54.482 -899.008,-20.803 -973.004,-13.475C-1047,-6.144 -1305.19,-25.512 -1455.78,-50.335C-1606.36,-75.162 -1994.58,-61.196 -2070.58,-50.335C-2146.58,-39.476 -2421.25,0.231 -2546.56,-2.48C-2671.88,-5.191 -3067.88,-55.714 -3123.88,-58.908C-3179.87,-62.1 -3281.28,-52.054 -3321.87,-52.456C-3373,-52.963 -3545.27,-17.452 -3644.44,-34.954C-3706.86,-45.971 -3846.84,-48.092 -3911.84,-48.092L-4056,-48.092L-4056,-6.317L-3863.52,-6.317C-3619.85,-6.317 -3566.34,-7.641 -3480,-11.088C-3425.86,-21.43 -3329.87,-20.945 -3141.87,-14.556C-2801.89,-1.78 -2703.89,27.07 -2523.9,27.07C-2343.91,27.07 -1959.92,-25.556 -1751.93,-25.556C-1543.94,-25.556 -1269.95,-8.116 -1129.95,7.853C-1025.96,20.628 -817.004,15.775 -720.004,-6.316C-625.274,-23.817 -503.98,-6.317 -349.195,-6.317L39.996,-6.317L39.996,-48.092L0,-48.092Z" style="fill:rgb(221,208,142);fill-rule:nonzero;"/>
                </g>
                <g transform="matrix(1,0,0,1,517.075,2894.67)">
                    <path d="M0,-20.814L-22.665,-12.228L-13.998,-2.885L2.667,0L13.333,-6.335L0,-20.814Z" style="fill:rgb(199,178,158);fill-rule:nonzero;"/>
                </g>
                <g transform="matrix(1,0,0,1,581.405,2904.32)">
                    <path d="M0,-22.886L-13.998,-14.613L0,0.135L9.334,2.131L36,-10.538L21.334,-25.017L0,-22.886Z" style="fill:rgb(199,178,158);fill-rule:nonzero;"/>
                </g>
                <g transform="matrix(1,0,0,1,585.581,2928.35)">
                    <path d="M0,-15.083C0,-15.083 27.927,-6.003 27.568,-4.287C27.211,-2.573 15.041,-1.146 13.786,-0.573C12.531,0 -12.173,-5.003 -12.173,-5.003L-8.95,-11.437L0,-15.083Z" style="fill:rgb(199,178,158);fill-rule:nonzero;"/>
                </g>
                <g transform="matrix(-0.747479,0.664286,0.664286,0.747479,2795.78,2912.71)">
                    <path d="M-7.118,-9.966L7.149,-9.966L-4.183,4.379L-8.392,-0.357L-7.118,-9.966Z" style="fill:rgb(199,178,158);fill-rule:nonzero;"/>
                </g>
                <g transform="matrix(1,0,0,1,2849.81,2913.97)">
                    <path d="M0,-20.814L-22.665,-12.232L-14,-2.885L2.668,0L13.335,-6.335L0,-20.814Z" style="fill:rgb(199,178,158);fill-rule:nonzero;"/>
                </g>
                <g transform="matrix(1,0,0,1,2929.81,2921.6)">
                    <path d="M0,-22.888L-14,-14.614L0,0.133L9.332,2.13L36.001,-10.54L21.332,-25.018L0,-22.888Z" style="fill:rgb(199,178,158);fill-rule:nonzero;"/>
                </g>
                <g transform="matrix(1,0,0,1,2994.38,2917.49)">
                    <path d="M0,-12.339L42.313,2.227L79.086,11.979L98.227,-4.312L72.535,-24.221C72.535,-24.221 45.332,-24.125 43.316,-24.221C41.303,-24.318 29.215,-22.715 29.215,-22.715L0,-12.339Z" style="fill:rgb(199,178,158);fill-rule:nonzero;"/>
                </g>
                <g transform="matrix(1,0,0,1,3640.04,2920.32)">
                    <path d="M0,-5.826L25.135,-10.967L46.146,-10.38L59.232,-3.142L30.508,5.141L12.919,-0.406L0,-5.826Z" style="fill:rgb(199,178,158);fill-rule:nonzero;"/>
                </g>
                <g transform="matrix(-0.69568,0.718352,0.718352,0.69568,3670.47,2903.83)">
                    <path d="M-5.463,-9.887L8.563,-9.887L-2.6,4.695L-6.733,-0.116L-5.463,-9.887Z" style="fill:rgb(199,178,158);fill-rule:nonzero;"/>
                </g>
                <g transform="matrix(1,0,0,1,3621.3,2920.89)">
                    <path d="M0,-6.976L-11.845,-4.942L-7.423,-0.534L-2.863,0L5.464,-3.897L0,-6.976Z" style="fill:rgb(199,178,158);fill-rule:nonzero;"/>
                </g>
                <g transform="matrix(1,0,0,1,3726.97,2916.75)">
                    <path d="M0,-5.876L34.338,6.663L46.201,-6.288C46.201,-6.288 39.096,-12.488 38.174,-12.354C37.254,-12.219 13.277,-12.539 13.277,-12.539L0,-5.876Z" style="fill:rgb(199,178,158);fill-rule:nonzero;"/>
                </g>
                <g transform="matrix(1,0,0,1,3311.6,2909.26)">
                    <path d="M0,9.356L13.352,18.172L38.523,13.885L63.566,-8.014L47.948,-8.816L4.598,-0.527L0,9.356Z" style="fill:rgb(199,178,158);fill-rule:nonzero;"/>
                </g>
                <g transform="matrix(1,0,0,1,3125.1,2913.61)">
                    <path d="M0,9.358L13.352,18.173L38.523,13.884L63.566,-8.013L47.948,-8.815L4.598,-0.526L0,9.358Z" style="fill:rgb(199,178,158);fill-rule:nonzero;"/>
                </g>
                <g transform="matrix(1,0,0,1,3101.24,2897.97)">
                    <path d="M0,3.513L5.012,6.823L14.457,5.212L23.859,-3.008L17.995,-3.31L1.723,-0.197L0,3.513Z" style="fill:rgb(199,178,158);fill-rule:nonzero;"/>
                </g>
                <g transform="matrix(1,0,0,1,3103.04,2906.8)">
                    <path d="M0,10.049L6.031,11.989L14.426,8.164L20.257,-1.94L14.559,-0.814L0.234,6.096L0,10.049Z" style="fill:rgb(199,178,158);fill-rule:nonzero;"/>
                </g>
                <g transform="matrix(1,0,0,1,3397.85,2908.73)">
                    <path d="M0,-10.04L43.301,-18.894L79.488,-17.883L102.031,-5.417L52.555,8.854L22.254,-0.699L0,-10.04Z" style="fill:rgb(229,211,189);fill-rule:nonzero;"/>
                </g>
                <g transform="matrix(1,0,0,1,3192.13,2918.32)">
                    <path d="M0,-6.482L43.43,-13.905L79.555,-13.607L101.807,-4.27L52.086,7.423L22.023,0.443L0,-6.482Z" style="fill:rgb(229,211,189);fill-rule:nonzero;"/>
                </g>
                <g transform="matrix(-0.695501,0.718525,0.718525,0.695501,3537.95,2892.11)">
                    <path d="M-5.46,-9.891L8.569,-9.891L-2.594,4.697L-6.728,-0.12L-5.46,-9.891Z" style="fill:rgb(199,178,158);fill-rule:nonzero;"/>
                </g>
                <g transform="matrix(1,0,0,1,3387.01,2925.48)">
                    <path d="M0,-6.979L-11.844,-4.942L-7.422,-0.534L-2.863,0L5.465,-3.896L0,-6.979Z" style="fill:rgb(199,178,158);fill-rule:nonzero;"/>
                </g>
                <g transform="matrix(1,0,0,1,3505.89,2918.87)">
                    <path d="M0,-9.472L55.352,10.741L74.472,-10.14C74.472,-10.14 63.02,-20.132 61.534,-19.913C60.051,-19.695 21.401,-20.213 21.401,-20.213L0,-9.472Z" style="fill:rgb(229,211,189);fill-rule:nonzero;"/>
                </g>
                <g transform="matrix(1,0,0,1,3790.81,2891.8)">
                    <path d="M0,-20.6L-21.809,-10.702L-12.306,-1.895L4.585,0L14.636,-6.949L0,-20.6Z" style="fill:rgb(199,178,158);fill-rule:nonzero;"/>
                </g>
                <g transform="matrix(1,0,0,1,3691.46,2877.92)">
                    <path d="M0,-20.6L-21.804,-10.701L-12.304,-1.894L4.587,0L14.638,-6.948L0,-20.6Z" style="fill:rgb(199,178,158);fill-rule:nonzero;"/>
                </g>
                <g transform="matrix(1,0,0,1,3720.62,2900.79)">
                    <path d="M0,-20.382L-24.923,-18.108L-20.508,-7.029L-5.902,0L6.758,-3.238L0,-20.382Z" style="fill:rgb(199,178,158);fill-rule:nonzero;"/>
                </g>
                <g transform="matrix(1,0,0,1,3745.95,2890.6)">
                    <path d="M0,-20.384L-24.921,-18.111L-20.507,-7.029L-5.901,0L6.758,-3.241L0,-20.384Z" style="fill:rgb(199,178,158);fill-rule:nonzero;"/>
                </g>
                <g transform="matrix(1,0,0,1,3875.23,2889.15)">
                    <path d="M0,-3.488L43.854,8.629L81.695,16.241L99.404,-1.256L71.746,-19.729C71.746,-19.729 44.434,-18.015 42.398,-17.996C40.369,-17.974 28.38,-15.643 28.38,-15.643L0,-3.488Z" style="fill:rgb(229,211,189);fill-rule:nonzero;"/>
                </g>
                <g transform="matrix(1,0,0,1,3826.07,2917.56)">
                    <path d="M0,-26.633C0,-26.633 53.418,-12.841 53.051,-9.614C52.681,-6.389 30.328,-2.403 28.098,-1.201C25.867,0 -20.867,-6.582 -20.867,-6.582L-15.992,-18.878L0,-26.633Z" style="fill:rgb(199,178,158);fill-rule:nonzero;"/>
                </g>
                <g transform="matrix(-0.867248,0.497877,0.497877,0.867248,748.839,2890.97)">
                    <path d="M5.638,-23.868L20.625,-23.868L2.897,3.494L-8.948,0.938L5.638,-23.868Z" style="fill:rgb(199,178,158);fill-rule:nonzero;"/>
                </g>
                <g transform="matrix(-0.79832,0.602233,0.602233,0.79832,786.167,2908.06)">
                    <path d="M1.488,-16.465L16.517,-16.465L5.516,0.497L-9.032,1.139L1.488,-16.465Z" style="fill:rgb(199,178,158);fill-rule:nonzero;"/>
                </g>
                <g transform="matrix(1,0,0,1,778.564,2906.69)">
                    <path d="M0,-36.725L0,-27.412L67.998,0L118.996,-15.967L124.996,-29.741L45.998,-35.244L0,-36.725Z" style="fill:rgb(199,178,158);fill-rule:nonzero;"/>
                </g>
                <g transform="matrix(0.899677,0.436555,0.436555,-0.899677,813.845,2915.45)">
                    <path d="M-2.047,-2.539L16.849,-2.539L2.95,-12.838L-8.197,-8.186L-2.047,-2.539Z" style="fill:rgb(199,178,158);fill-rule:nonzero;"/>
                </g>
                <g transform="matrix(1,0,0,1,855.315,2915.7)">
                    <path d="M0,-3.288L-4.119,3.701L-8.753,7.813L12.873,7.813L20.597,-0.067L15.962,-11.101L2.06,-9.522L0,-3.288Z" style="fill:rgb(199,178,158);fill-rule:nonzero;"/>
                </g>
                <g transform="matrix(1,0,0,1,959.057,2899.8)">
                    <path d="M0,-13.842L-18,-13.842L-13.334,0L0,0L7.333,-3.067L0,-13.842Z" style="fill:rgb(199,178,158);fill-rule:nonzero;"/>
                </g>
                <g transform="matrix(1,0,0,1,931.057,2921.77)">
                    <path d="M0,-15.438L-18.667,-8.516L-18.667,0L-4.667,0L0,-5.989L0,-15.438Z" style="fill:rgb(199,178,158);fill-rule:nonzero;"/>
                </g>
                <g transform="matrix(1,0,0,1,1180.91,2928.43)">
                    <path d="M0,-31.69C0,-31.69 -34.082,-22.743 -34.55,-20.132C-35.018,-17.523 -32.685,-12.303 -32.216,-10.626C-31.748,-8.947 -14.006,0 -14.006,0L27.081,0C27.081,0 49.958,-10.439 51.827,-10.626C53.695,-10.81 51.827,-29.826 51.827,-29.826L22.412,-31.69L9.023,-24.977L0,-31.69Z" style="fill:rgb(199,178,158);fill-rule:nonzero;"/>
                </g>
                <g transform="matrix(0.91063,0.413222,0.413222,-0.91063,1186.85,2876.71)">
                    <path d="M0.703,-5.904L14.851,-5.904L27.407,3.008L24.881,8.575L0.703,-5.904Z" style="fill:rgb(178,156,136);fill-rule:nonzero;"/>
                </g>
                <g transform="matrix(1,0,0,1,1112.79,2930.26)">
                    <path d="M0,-14.201C0,-14.201 12.019,-4.801 13.461,-5.279C14.902,-5.759 3.365,0 3.365,0L-10.575,-1.918L-10.575,-8.827L0,-14.201Z" style="fill:rgb(199,178,158);fill-rule:nonzero;"/>
                </g>
                <g transform="matrix(1,0,0,1,958.723,2925.9)">
                    <path d="M0,-16.023C4,-14.902 24,-7.322 24,-7.322L55.35,-7.322L59.998,-2.661L47.998,0L4,0L-19.331,-8.014L-5.333,-16.023L0,-16.023Z" style="fill:rgb(199,178,158);fill-rule:nonzero;"/>
                </g>
                <g transform="matrix(1,0,0,1,1260.94,2894.78)">
                    <path d="M0,26.673L21.778,11.834L52.21,-2.815L74.904,-6.947L86.768,2.533L86.768,14.277L63.558,27.968L38.8,30.615L10.946,33.62L0,26.673Z" style="fill:rgb(229,211,189);fill-rule:nonzero;"/>
                </g>
                <g transform="matrix(1,0,0,1,1459.7,2922.17)">
                    <path d="M0,-9.332L0,4.92L26.668,8.641C26.668,8.641 48,-4.664 50.666,-5.198C53.332,-5.731 44.668,-17.973 44.668,-17.973L7.334,-17.973L0,-9.332Z" style="fill:rgb(229,211,189);fill-rule:nonzero;"/>
                </g>
                <g transform="matrix(0.104007,0.994577,0.994577,-0.104007,1565.6,2895.79)">
                    <path d="M19.034,-26.693C19.034,-26.693 31.502,-9.898 29.199,-6.307C26.895,-2.716 19.034,22.237 19.034,22.237L16.192,-4.947L19.034,-26.693Z" style="fill:rgb(229,211,189);fill-rule:nonzero;"/>
                </g>
                <g transform="matrix(-0.195794,0.980645,0.980645,0.195794,1644.88,2906.74)">
                    <path d="M16.012,-21.119C16.012,-21.119 26.582,-8.81 26.584,-6.093C26.586,-3.374 16.012,12.87 16.012,12.87C16.012,12.87 6.742,0.824 6.744,-1.896C6.747,-4.616 16.012,-21.119 16.012,-21.119" style="fill:rgb(199,178,158);fill-rule:nonzero;"/>
                </g>
                <g transform="matrix(1,0,0,1,1915.69,2923.36)">
                    <path d="M0,-8.629L25.33,0L44.664,-8.629L0,-8.629Z" style="fill:rgb(199,178,158);fill-rule:nonzero;"/>
                </g>
                <g transform="matrix(1,0,0,1,2123.68,2917.97)">
                    <path d="M0,-10.059L18.665,9.048C18.665,9.048 57.331,8.565 59.331,7.505C61.331,6.444 119.995,-19.107 119.995,-19.107L35.999,-12.72L0,-10.059Z" style="fill:rgb(199,178,158);fill-rule:nonzero;"/>
                </g>
                <g transform="matrix(1,0,0,1,2307.21,2917.34)">
                    <path d="M0,-23.491C0,-23.491 -36.665,-11.419 -36.665,-8.672C-36.665,-5.925 -23.833,9.443 -23.833,9.443L-2.75,9.443L67.37,0.662L73.785,-26.785L39.412,-32.934L0,-23.491Z" style="fill:rgb(199,178,158);fill-rule:nonzero;"/>
                </g>
                <g transform="matrix(-0.983093,0.18311,0.18311,0.983093,2386.3,2928.73)">
                    <path d="M-7.902,-5.378L2.802,-5.378C2.802,-5.378 7.048,-1.737 3.657,-0.788C0.267,0.16 -13.201,2.352 -13.201,2.352C-13.201,2.352 -12.441,-5.379 -7.902,-5.378" style="fill:rgb(199,178,158);fill-rule:nonzero;"/>
                </g>
                <g transform="matrix(1,0,0,1,2420.98,2911.06)">
                    <path d="M0,6.538L2.729,-10.269L26.891,-14.002L45.211,-3.732C45.211,-3.732 46.77,16.179 43.262,16.338C39.754,16.497 16.371,20.54 16.371,20.54L0,6.538Z" style="fill:rgb(229,211,189);fill-rule:nonzero;"/>
                </g>
                <g transform="matrix(1,0,0,1,2365,2888.33)">
                    <path d="M0,-5.425L32,0L64.001,-5.425L0,-5.425Z" style="fill:rgb(199,178,158);fill-rule:nonzero;"/>
                </g>
                <g transform="matrix(1,0,0,1,2461.5,2894.35)">
                    <path d="M0,-3.458L37,11.845L85.996,4.195L94.496,-11.44L54,-15.303L22.5,-11.44L0,-3.458Z" style="fill:rgb(199,178,158);fill-rule:nonzero;"/>
                </g>
                <g transform="matrix(1,0,0,1,2468.5,2880.42)">
                    <path d="M0,-1.382L-15,5.191L-20,2.48C-20,2.48 -26,-2.98 -24.5,-3.379C-23,-3.778 0,-6.573 0,-6.573L0,-1.382Z" style="fill:rgb(199,178,158);fill-rule:nonzero;"/>
                </g>
                <g transform="matrix(1,0,0,1,449.744,2910.06)">
                    <path d="M0,-9.948L53.333,6.731L74.331,-7.298C74.331,-7.298 63.831,-14.876 62.331,-14.783C60.831,-14.689 22.333,-16.679 22.333,-16.679L0,-9.948Z" style="fill:rgb(199,178,158);fill-rule:nonzero;"/>
                </g>
                <g transform="matrix(1,0,0,1,625.661,2908.44)">
                    <path d="M0,-11.63L55.996,2.099L104.66,11.29L129.994,-4.063L95.996,-22.829C95.996,-22.829 59.994,-22.735 57.328,-22.829C54.662,-22.92 38.664,-21.407 38.664,-21.407L0,-11.63Z" style="fill:rgb(199,178,158);fill-rule:nonzero;"/>
                </g>
                <g transform="matrix(1,0,0,1,2724.82,2891.18)">
                    <path d="M0,4.072L12.5,10.894L38,8.906L65,-5.595L49.5,-6.822L5.5,-2.751L0,4.072Z" style="fill:rgb(199,178,158);fill-rule:nonzero;"/>
                </g>
                <g transform="matrix(1,0,0,1,2746.82,2908.8)">
                    <path d="M0,-4.834L-12,-3.885L-8,-0.568L-3.5,0L5.165,-2.417L0,-4.834Z" style="fill:rgb(199,178,158);fill-rule:nonzero;"/>
                </g>
                <g transform="matrix(1,0,0,1,2708.82,2921.19)">
                    <path d="M0,-14.823L-22.663,-8.712L-14,-2.055L2.669,0L13.333,-4.512L0,-14.823Z" style="fill:rgb(199,178,158);fill-rule:nonzero;"/>
                </g>
                <g transform="matrix(1,0,0,1,2749.48,2928.6)">
                    <path d="M0,-14.823L-22.665,-8.71L-14,-2.055L2.667,0L13.335,-4.511L0,-14.823Z" style="fill:rgb(199,178,158);fill-rule:nonzero;"/>
                </g>
                <g transform="matrix(1,0,0,1,3598.23,2886.16)">
                    <path d="M0,6.661L13.351,12.941L38.522,9.887L63.566,-5.71L47.949,-6.28L4.597,-0.376L0,6.661Z" style="fill:rgb(199,178,158);fill-rule:nonzero;"/>
                </g>
                <g transform="matrix(1,0,0,1,3830.24,2885)">
                    <path d="M0,-14.968L-13.195,-8.502L2.129,1.385L11.617,2.408L37.039,-7.707L21.077,-17.376L0,-14.968Z" style="fill:rgb(199,178,158);fill-rule:nonzero;"/>
                </g>
                <g transform="matrix(1,0,0,1,1015.72,2918.69)">
                    <path d="M0,-36.772C-3.335,-36.772 -24.668,-18.574 -24.668,-18.574C-24.668,-18.574 -9.333,-3.411 12,-1.516C33.33,0.38 81.994,-1.893 87.328,-3.411C92.661,-4.928 101.328,-27.294 100.661,-28.432C99.996,-29.567 95.996,-36.392 65.996,-36.772C35.998,-37.152 0,-36.772 0,-36.772" style="fill:rgb(199,178,158);fill-rule:nonzero;"/>
                </g>
                <g transform="matrix(0.936198,0.351472,0.351472,-0.936198,1114,2873.57)">
                    <path d="M1.362,-8.224L25.572,-8.224L45.05,8.178C45.05,8.178 30.452,11.017 27.466,9.492C24.479,7.967 1.362,-8.224 1.362,-8.224" style="fill:rgb(199,178,158);fill-rule:nonzero;"/>
                </g>
                <g transform="matrix(1,0,0,1,1413.7,2907.32)">
                    <path d="M0,-17.059C-4.664,-16.303 -25.998,-18.576 -25.998,-15.166C-25.998,-11.753 -20.664,-2.844 -20.664,-2.844L27.334,1.517L27.334,-10.616L0,-17.059Z" style="fill:rgb(199,178,158);fill-rule:nonzero;"/>
                </g>
                <g transform="matrix(0.987726,0.156195,0.156195,-0.987726,1388.57,2911.27)">
                    <path d="M-0.645,-1.465L33.101,-1.465L0.866,-11.017L-14.545,-11.726L-0.645,-1.465Z" style="fill:rgb(199,178,158);fill-rule:nonzero;"/>
                </g>
                <g transform="matrix(1,0,0,1,2541.49,2924.54)">
                    <path d="M0,-29.448C-1.5,-30.87 -46.996,-20.218 -46.996,-20.218C-46.996,-20.218 -41.496,-5.564 -39.996,-5.564C-38.496,-5.564 -4.5,1.422 0,0.771C4.5,0.12 54,-4.712 54,-4.712L31,-22.056L9,-26.604L0,-29.448Z" style="fill:rgb(199,178,158);fill-rule:nonzero;"/>
                </g>
                <g transform="matrix(1,0,0,1,2614.43,2926.17)">
                    <path d="M0,-43.266C0,-43.266 -23.723,-29.813 -22.945,-28.881C-22.168,-27.951 -4.277,-11.801 -4.277,-11.801C-4.277,-11.801 24.887,0 31.498,-0.932C38.109,-1.865 68.057,-22.073 68.057,-22.073L33.443,-41.158L0,-43.266Z" style="fill:rgb(199,178,158);fill-rule:nonzero;"/>
                </g>
                <g transform="matrix(1,0,0,1,2602.49,2890.35)">
                    <path d="M0,-7.443L-23.5,9.054L-37.5,4.265L-21.5,-16.497L0,-14.899L0,-7.443Z" style="fill:rgb(199,178,158);fill-rule:nonzero;"/>
                </g>
                <g transform="matrix(1,0,0,1,1633.03,2835.53)">
                    <path d="M0,-9.584C0,-9.584 199.992,15.97 391.984,-25.554C391.984,-25.554 139.994,-3.194 0,-9.584" style="fill:rgb(221,208,142);fill-rule:nonzero;"/>
                </g>
                <g transform="matrix(1,0,0,1,3187.69,2835.22)">
                    <path d="M0,-22.358C0,-22.358 139.992,9.581 239.987,-31.939C241.402,-31.939 135.766,-9.602 0,-22.358" style="fill:rgb(221,208,142);fill-rule:nonzero;"/>
                </g>
                <g transform="matrix(0,-1,-1,0,3870.58,2731.41)">
                    <path d="M-66.662,-66.671C-70.68,-66.671 -73.929,-36.819 -73.929,-0.001C-73.929,36.811 -70.68,66.662 -66.662,66.662C-62.646,66.662 -59.404,36.811 -59.404,-0.001C-59.404,-36.819 -62.646,-66.671 -66.662,-66.671" style="fill:rgb(221,208,142);fill-rule:nonzero;"/>
                </g>
                <g transform="matrix(1,0,0,1,641.917,2826.25)">
                    <path d="M0,-25.583C0,-25.583 40.752,-16.894 100.75,-16.894C160.746,-16.894 31.5,0 0,-25.583" style="fill:rgb(221,208,142);fill-rule:nonzero;"/>
                </g>
                <g transform="matrix(1,0,0,1,3815.86,2752.43)">
                    <path d="M0,44.485C0,44.485 2.861,30.315 7.793,26.997C12.721,23.676 11.339,19.618 15.326,17.005C21.807,12.755 19.48,15.769 23.791,12.578C28.1,9.387 36.561,3.125 36.561,3.125C36.561,3.125 45.475,0.376 50.41,0.289C66.857,0 77.246,44.485 77.246,44.485L0,44.485Z" style="fill:rgb(146,148,151);fill-rule:nonzero;"/>
                </g>
                <g transform="matrix(1,0,0,1,3831.8,2762.69)">
                    <path d="M0,23.177C6.654,20.228 5.288,14.801 9.91,12.128C12.658,10.538 17.991,12.07 22.301,8.878C26.611,5.687 26.088,4.273 32.039,-0.516C35.122,-2.998 40.872,-2.284 45.916,-2.783C42.555,-7.136 38.797,-11.049 34.555,-10.975C29.621,-10.887 21.732,-9.38 19.866,-8.847C18,-8.316 11.189,-1.935 6.881,1.257C2.57,4.448 1.468,2.603 -2.203,6.478C-7.637,12.215 -4.623,12.473 -9.552,15.791C-14.482,19.111 -15.938,34.226 -15.938,34.226L-6.234,34.226C-4.9,30.165 -2.777,24.407 0,23.177" style="fill:rgb(230,231,232);fill-rule:nonzero;"/>
                </g>
                <g transform="matrix(1,0,0,1,3885.9,2796.92)">
                    <path d="M0,-22.098C0,-22.098 -2.426,-15.598 -5.348,-13.471C-8.27,-11.343 -12.975,-13.411 -16.547,-11.049C-20.117,-8.685 -19.144,-6.44 -24.012,-4.785C-28.882,-3.131 -29.369,-3.31 -32.94,-4.253C-36.805,-5.276 -41.723,-1.084 -42.069,0L7.205,0C7.205,0 4.625,-11.049 0,-22.098" style="fill:rgb(109,110,112);fill-rule:nonzero;"/>
                </g>
                <g transform="matrix(1,0,0,1,3855.34,2771.63)">
                    <path d="M0,-5.554C0,-5.554 -2.922,-1.181 -4.869,-0.946C-6.816,-0.708 -10.279,0 -10.929,-0.946C-11.578,-1.889 -4.623,-5.149 0,-5.554" style="fill:rgb(146,148,151);fill-rule:nonzero;"/>
                </g>
                <g transform="matrix(-0.467712,0.883881,0.883881,0.467712,3878.18,2761.11)">
                    <path d="M4.125,-5.141C3.096,-6.421 1.636,-2.144 1.659,-0.481C1.68,1.184 4.125,3.764 4.125,3.764C4.125,3.764 4.898,0.408 4.124,-0.691C3.353,-1.786 5.155,-3.865 4.125,-5.141" style="fill:rgb(109,110,112);fill-rule:nonzero;"/>
                </g>
                <g transform="matrix(-0.336404,-0.941718,-0.941718,0.336404,3856.84,2786.43)">
                    <path d="M-3.16,-6.03C-3.576,-6.644 -5.049,-3.523 -4.434,-0.049C-4.268,0.893 -4.337,2.533 -3.16,2.356C-1.987,2.181 -1.874,-0.26 -1.997,-1.35C-2.121,-2.439 -2.743,-5.416 -3.16,-6.03" style="fill:rgb(109,110,112);fill-rule:nonzero;"/>
                </g>
                <g transform="matrix(1,0,0,1,1787.9,2783.42)">
                    <path d="M0,44.485C0,44.485 2.861,30.315 7.792,26.997C12.721,23.676 11.339,19.618 15.325,17.005C21.807,12.755 19.48,15.769 23.791,12.578C28.1,9.387 36.561,3.125 36.561,3.125C36.561,3.125 45.475,0.376 50.41,0.289C66.857,0 77.246,44.485 77.246,44.485L0,44.485Z" style="fill:rgb(146,148,151);fill-rule:nonzero;"/>
                </g>
                <g transform="matrix(1,0,0,1,1803.84,2793.68)">
                    <path d="M0,23.177C6.653,20.228 5.288,14.801 9.91,12.128C12.657,10.538 17.99,12.07 22.301,8.878C26.61,5.687 26.088,4.273 32.039,-0.516C35.122,-2.998 40.872,-2.284 45.915,-2.783C42.554,-7.136 38.797,-11.049 34.555,-10.975C29.62,-10.887 21.731,-9.38 19.865,-8.847C17.999,-8.316 11.189,-1.935 6.881,1.257C2.57,4.448 1.468,2.603 -2.204,6.478C-7.638,12.215 -4.623,12.473 -9.553,15.791C-14.482,19.111 -15.938,34.226 -15.938,34.226L-6.235,34.226C-4.9,30.165 -2.777,24.407 0,23.177" style="fill:rgb(230,231,232);fill-rule:nonzero;"/>
                </g>
                <g transform="matrix(1,0,0,1,1857.94,2827.91)">
                    <path d="M0,-22.098C0,-22.098 -2.426,-15.598 -5.348,-13.471C-8.27,-11.343 -12.976,-13.411 -16.547,-11.049C-20.117,-8.685 -19.144,-6.44 -24.013,-4.785C-28.882,-3.131 -29.369,-3.31 -32.94,-4.253C-36.805,-5.276 -41.723,-1.084 -42.069,0L7.205,0C7.205,0 4.624,-11.049 0,-22.098" style="fill:rgb(109,110,112);fill-rule:nonzero;"/>
                </g>
                <g transform="matrix(1,0,0,1,1827.38,2802.62)">
                    <path d="M0,-5.554C0,-5.554 -2.922,-1.181 -4.869,-0.946C-6.816,-0.708 -10.28,0 -10.93,-0.946C-11.579,-1.889 -4.624,-5.149 0,-5.554" style="fill:rgb(146,148,151);fill-rule:nonzero;"/>
                </g>
                <g transform="matrix(-0.467666,0.883905,0.883905,0.467666,1850.22,2792.1)">
                    <path d="M4.126,-5.142C3.097,-6.421 1.638,-2.145 1.66,-0.481C1.681,1.183 4.126,3.764 4.126,3.764C4.126,3.764 4.899,0.408 4.125,-0.691C3.355,-1.787 5.156,-3.865 4.126,-5.142" style="fill:rgb(109,110,112);fill-rule:nonzero;"/>
                </g>
                <g transform="matrix(-0.336367,-0.941731,-0.941731,0.336367,1828.88,2817.42)">
                    <path d="M-3.161,-6.03C-3.576,-6.644 -5.05,-3.524 -4.435,-0.048C-4.268,0.894 -4.338,2.534 -3.161,2.356C-1.988,2.182 -1.875,-0.26 -1.998,-1.351C-2.121,-2.44 -2.744,-5.417 -3.161,-6.03" style="fill:rgb(109,110,112);fill-rule:nonzero;"/>
                </g>
                <g transform="matrix(0,-1,-1,0,1711.67,2754.58)">
                    <path d="M-53.75,-53.75C-57.16,-53.75 -59.925,-29.686 -59.925,0C-59.925,29.686 -57.16,53.75 -53.75,53.75C-50.339,53.75 -47.575,29.686 -47.575,0C-47.575,-29.686 -50.339,-53.75 -53.75,-53.75" style="fill:rgb(221,208,142);fill-rule:nonzero;"/>
                </g>
                <g transform="matrix(1,0,0,1,1670.9,2772.85)">
                    <path d="M0,35.616C0,35.616 2.291,24.271 6.238,21.614C10.185,18.956 9.078,15.707 12.27,13.614C17.459,10.212 15.597,12.626 19.048,10.07C22.497,7.516 29.271,2.502 29.271,2.502C29.271,2.502 36.408,0.301 40.359,0.231C53.527,0 61.845,35.616 61.845,35.616L0,35.616Z" style="fill:rgb(146,148,151);fill-rule:nonzero;"/>
                </g>
                <g transform="matrix(1,0,0,1,1683.66,2781.06)">
                    <path d="M0,18.556C5.327,16.195 4.233,11.85 7.935,9.709C10.134,8.437 14.403,9.662 17.854,7.108C21.305,4.553 20.887,3.42 25.651,-0.414C28.119,-2.4 32.723,-1.829 36.761,-2.228C34.069,-5.714 31.062,-8.846 27.665,-8.788C23.715,-8.717 17.398,-7.509 15.904,-7.084C14.41,-6.659 8.958,-1.549 5.509,1.006C2.058,3.561 1.175,2.083 -1.765,5.186C-6.115,9.78 -3.701,9.986 -7.648,12.643C-11.595,15.3 -12.76,27.402 -12.76,27.402L-4.992,27.402C-3.924,24.151 -2.224,19.541 0,18.556" style="fill:rgb(230,231,232);fill-rule:nonzero;"/>
                </g>
                <g transform="matrix(1,0,0,1,1726.98,2808.46)">
                    <path d="M0,-17.692C0,-17.692 -1.942,-12.488 -4.281,-10.785C-6.621,-9.081 -10.389,-10.737 -13.248,-8.845C-16.106,-6.953 -15.327,-5.155 -19.225,-3.831C-23.123,-2.506 -23.514,-2.649 -26.373,-3.405C-29.467,-4.223 -33.404,-0.868 -33.682,0L5.769,0C5.769,0 3.702,-8.845 0,-17.692" style="fill:rgb(109,110,112);fill-rule:nonzero;"/>
                </g>
                <g transform="matrix(1,0,0,1,1702.51,2788.22)">
                    <path d="M0,-4.446C0,-4.446 -2.339,-0.945 -3.898,-0.757C-5.457,-0.566 -8.23,0 -8.751,-0.757C-9.271,-1.511 -3.702,-4.122 0,-4.446" style="fill:rgb(146,148,151);fill-rule:nonzero;"/>
                </g>
                <g transform="matrix(-0.46763,0.883924,0.883924,0.46763,1720.8,2779.8)">
                    <path d="M3.302,-4.116C2.479,-5.141 1.31,-1.716 1.328,-0.384C1.345,0.949 3.302,3.014 3.302,3.014C3.302,3.014 3.921,0.327 3.302,-0.553C2.684,-1.43 4.126,-3.094 3.302,-4.116" style="fill:rgb(109,110,112);fill-rule:nonzero;"/>
                </g>
                <g transform="matrix(-0.336393,-0.941722,-0.941722,0.336393,1703.71,2800.07)">
                    <path d="M-2.531,-4.829C-2.863,-5.32 -4.043,-2.822 -3.551,-0.04C-3.417,0.715 -3.473,2.028 -2.531,1.887C-1.592,1.746 -1.502,-0.209 -1.601,-1.081C-1.699,-1.954 -2.199,-4.337 -2.531,-4.829" style="fill:rgb(109,110,112);fill-rule:nonzero;"/>
                </g>
                <g transform="matrix(0,-1,-1,0,608.917,2721.5)">
                    <path d="M-61.667,-61.668C-64.337,-61.668 -66.501,-34.059 -66.501,-0.001C-66.501,34.057 -64.337,61.667 -61.667,61.667C-58.998,61.667 -56.834,34.057 -56.834,-0.001C-56.834,-34.059 -58.998,-61.668 -61.667,-61.668" style="fill:rgb(221,208,142);fill-rule:nonzero;"/>
                </g>
                <g transform="matrix(1,0,0,1,555.915,2738.22)">
                    <path d="M0,44.485C0,44.485 2.861,30.315 7.792,26.997C12.721,23.676 11.339,19.618 15.325,17.005C21.807,12.755 19.48,15.769 23.791,12.578C28.1,9.387 36.561,3.125 36.561,3.125C36.561,3.125 45.475,0.376 50.41,0.289C66.857,0 77.246,44.485 77.246,44.485L0,44.485Z" style="fill:rgb(146,148,151);fill-rule:nonzero;"/>
                </g>
                <g transform="matrix(1,0,0,1,571.852,2748.48)">
                    <path d="M0,23.177C6.653,20.228 5.288,14.801 9.91,12.128C12.657,10.538 17.99,12.07 22.301,8.878C26.61,5.687 26.088,4.273 32.039,-0.516C35.122,-2.998 40.872,-2.284 45.915,-2.783C42.554,-7.136 38.797,-11.049 34.555,-10.975C29.62,-10.887 21.731,-9.38 19.865,-8.847C17.999,-8.316 11.189,-1.935 6.881,1.257C2.57,4.448 1.468,2.603 -2.204,6.478C-7.638,12.215 -4.623,12.473 -9.553,15.791C-14.482,19.111 -15.938,34.226 -15.938,34.226L-6.235,34.226C-4.9,30.165 -2.777,24.407 0,23.177" style="fill:rgb(230,231,232);fill-rule:nonzero;"/>
                </g>
                <g transform="matrix(1,0,0,1,625.956,2782.71)">
                    <path d="M0,-22.098C0,-22.098 -2.426,-15.598 -5.348,-13.471C-8.27,-11.343 -12.976,-13.411 -16.547,-11.049C-20.117,-8.685 -19.144,-6.44 -24.013,-4.785C-28.882,-3.131 -29.369,-3.31 -32.94,-4.253C-36.805,-5.276 -41.723,-1.084 -42.069,0L7.205,0C7.205,0 4.624,-11.049 0,-22.098" style="fill:rgb(109,110,112);fill-rule:nonzero;"/>
                </g>
                <g transform="matrix(1,0,0,1,595.397,2757.42)">
                    <path d="M0,-5.554C0,-5.554 -2.922,-1.181 -4.869,-0.946C-6.816,-0.708 -10.28,0 -10.93,-0.946C-11.579,-1.889 -4.624,-5.149 0,-5.554" style="fill:rgb(146,148,151);fill-rule:nonzero;"/>
                </g>
                <g transform="matrix(-0.467666,0.883905,0.883905,0.467666,618.238,2746.9)">
                    <path d="M4.126,-5.142C3.097,-6.421 1.638,-2.145 1.66,-0.481C1.681,1.183 4.126,3.764 4.126,3.764C4.126,3.764 4.899,0.408 4.125,-0.691C3.355,-1.787 5.156,-3.865 4.126,-5.142" style="fill:rgb(109,110,112);fill-rule:nonzero;"/>
                </g>
                <g transform="matrix(-0.336367,-0.941731,-0.941731,0.336367,596.894,2772.22)">
                    <path d="M-3.161,-6.03C-3.576,-6.644 -5.05,-3.524 -4.435,-0.048C-4.268,0.894 -4.338,2.534 -3.161,2.356C-1.988,2.182 -1.875,-0.26 -1.998,-1.351C-2.121,-2.44 -2.744,-5.417 -3.161,-6.03" style="fill:rgb(109,110,112);fill-rule:nonzero;"/>
                </g>
            </g>
        </g>
    </g>
    <defs>
        <linearGradient id="_Linear1" x1="0" y1="0" x2="1" y2="0" gradientUnits="userSpaceOnUse" gradientTransform="matrix(3.97135e-08,-1,-1,-3.97135e-08,0.5,0.5)"><stop offset="0" style="stop-color:rgb(187,189,191);stop-opacity:1"/><stop offset="0.45" style="stop-color:rgb(187,189,191);stop-opacity:1"/><stop offset="1" style="stop-color:rgb(230,231,232);stop-opacity:1"/></linearGradient>
        <linearGradient id="_Linear2" x1="0" y1="0" x2="1" y2="0" gradientUnits="userSpaceOnUse" gradientTransform="matrix(0,1,1,0,0.500006,-0.500006)"><stop offset="0" style="stop-color:rgb(0,161,239);stop-opacity:1"/><stop offset="0.27" style="stop-color:rgb(0,161,239);stop-opacity:1"/><stop offset="1" style="stop-color:rgb(146,215,231);stop-opacity:1"/></linearGradient>
    </defs>
</svg>
