<svg xmlns="http://www.w3.org/2000/svg" xmlns:xlink="http://www.w3.org/1999/xlink" width="2560" height="1600" viewBox="0 0 2560 1600">
  <defs>
    <linearGradient id="a" data-name="Unbenannter Verlauf 788" x1="1692.596" y1="1610.894" x2="1692.596" y2="3.404" gradientUnits="userSpaceOnUse">
      <stop offset="0.448" stop-color="#b7b7bd"/>
      <stop offset="0.608" stop-color="#bfc0c4"/>
      <stop offset="1" stop-color="#ced1d2"/>
    </linearGradient>
    <linearGradient id="b" x1="1692.596" y1="1610.894" x2="1692.596" y2="1440.256" gradientUnits="userSpaceOnUse">
      <stop offset="0.273" stop-color="#00a1ef"/>
      <stop offset="0.366" stop-color="#07a4ef"/>
      <stop offset="0.502" stop-color="#1babee"/>
      <stop offset="0.665" stop-color="#3bb7ec"/>
      <stop offset="0.847" stop-color="#67c7e9"/>
      <stop offset="1" stop-color="#92d7e7"/>
    </linearGradient>
  </defs>
  <g>
    <rect x="-423.49" y="3.404" width="4232.171" height="1607.489" fill="url(#a)"/>
    <polygon points="3721.047 828.818 3620.572 759.739 3620.092 757.706 3593.048 642.629 3583.968 634.326 3527.639 582.825 3387.455 617.711 3302.861 724.855 3168.525 807.644 3077.622 925.08 3074.72 921.943 3073.951 921.111 3103.564 705.877 3112.484 641.047 3077.868 558.931 3077.868 348.85 3077.862 348.85 2969.026 348.85 2550.49 890.889 2538.783 828.818 2438.306 759.739 2437.828 757.706 2410.783 642.629 2401.704 634.326 2345.373 582.825 2205.19 617.711 2120.595 724.855 1986.261 807.644 1803.226 1024.86 1768.646 987.482 1768.14 986.935 1787.636 845.231 1793.507 802.55 1823.07 737.882 1866.778 552.625 1848.446 505.526 1699.059 610.176 1428.955 959.984 1381.416 908.6 1380.593 907.709 1396.376 768.198 1373.101 729.436 1421.804 608.168 1484.705 386.208 1284.142 433.307 1188.927 518.923 1076.272 545.832 764.178 949.023 739.125 921.943 738.356 921.111 767.968 705.877 776.887 641.047 742.273 558.931 764.365 268.825 661.969 275.105 235.382 864.355 257.187 705.877 266.105 641.047 231.491 558.931 231.491 348.85 231.486 348.85 122.649 348.85 -423.49 884.198 -423.49 1610.894 3808.681 1610.894 3808.681 884.198 3721.047 828.818" fill="#a3a3a3"/>
    <polygon points="3697.738 1088.125 3697.335 1086.649 3674.513 1003.148 3666.852 997.124 3619.319 959.754 3501.028 985.067 3429.646 1062.813 3316.289 1122.885 3238.326 1196.018 3264.379 1028.198 3272.435 977.845 3241.168 914.064 3241.168 750.893 3241.163 750.893 3142.856 750.893 2706.959 1236.327 2685.447 1138.25 2600.663 1088.125 2600.259 1086.649 2577.437 1003.148 2569.776 997.124 2522.244 959.754 2403.953 985.067 2297.107 1049.338 2224.589 1120.036 2211.82 1061.814 2095.693 993.162 2095.141 991.14 2063.884 876.772 2053.389 868.521 1988.288 817.338 1826.268 852.008 1728.498 958.492 1573.239 1040.769 1540.189 1077.485 1540.306 1076.604 1519.283 1046.497 1563.274 952.307 1549.303 868.495 1464.008 843.48 1407.249 843.516 1352.926 882.99 1251.171 903.89 1154.104 953.276 1102.188 908.516 1123.278 807.149 1032.809 816.568 902.493 912.518 855.645 946.56 767.89 964.585 644.289 1101.894 656.08 1028.198 664.137 977.845 632.871 914.064 625.932 797.825 612.486 772.71 534.558 750.893 59.464 1279.979 18.844 1235.688 18.334 1235.211 28.115 1160.871 13.692 1140.215 43.872 1075.595 34.287 1018.095 -24.23 1000.933 -63.171 1000.958 -100.439 1028.039 -170.25 1042.378 -282.8 1111.493 -423.49 1145.668 -423.49 1610.894 3808.681 1610.894 3808.681 1145.668 3697.738 1088.125" fill="#544f50"/>
    <g>
      <g>
        <g>
          <g>
            <polygon points="-80.967 1334.849 -63.244 1295.303 -19.966 1252.932 -15.651 1142.769 214.289 761.434 115.981 761.434 -417.521 1440.256 -305.186 1440.256 -227.957 1440.256 -147.681 1363.095 -80.967 1334.849" fill="#e6e7e8"/>
            <polygon points="258.892 1320.39 211.45 1270.01 210.755 1269.271 237.503 1078.268 140.492 1316.521 58.714 1346.147 -10.408 1440.256 309.942 1440.256 258.892 1320.39" fill="#6d6e70"/>
            <polygon points="140.492 1316.521 237.503 1078.268 245.559 1020.737 214.294 947.865 214.294 761.434 214.289 761.434 -15.651 1142.769 -19.966 1252.932 -63.244 1295.303 -80.967 1334.849 -147.681 1363.095 -227.957 1440.256 -33.547 1440.256 -10.408 1440.256 58.714 1346.147 140.492 1316.521" fill="#929497"/>
          </g>
          <polygon points="8.801 1196.791 8.801 1150.89 35.644 1103.316 35.644 1153.361 8.801 1196.791" fill="#e6e7e8"/>
          <path d="M76.248,1308.014c2.091,0,45.318-9.886,46.713-15.536s34.859-64.262,34.859-64.262-46.712,20.479-48.8,26.129S76.248,1308.014,76.248,1308.014Z" fill="#6d6e70"/>
        </g>
        <g>
          <g>
            <polygon points="369.61 1361.933 399.301 1316.41 412.949 1283.842 473.154 1230.263 610.533 1166.575 727.558 1044.566 680.242 1002.062 562.486 1030.853 491.426 1119.277 378.584 1187.601 179.527 1440.256 241.304 1440.256 322.915 1374.271 369.61 1361.933" fill="#e6e7e8"/>
            <polygon points="842.705 1205.077 758.305 1148.067 757.904 1146.389 735.185 1199.409 693.945 1307.718 647.757 1361.933 534.977 1440.256 887.852 1440.256 842.705 1205.077" fill="#6d6e70"/>
            <polygon points="693.945 1307.718 735.185 1199.409 757.904 1146.389 735.185 1051.416 727.558 1044.566 610.533 1166.575 473.154 1230.263 412.949 1283.842 399.301 1316.41 369.61 1361.933 322.915 1374.271 241.304 1440.256 534.977 1440.256 647.757 1361.933 693.945 1307.718" fill="#929497"/>
          </g>
          <path d="M332.05,1356.449l25.5-8.082,10.213-16.165,3.192-22.771-8.618,1.4s-25.534,26.542-25.215,30.1S332.05,1356.449,332.05,1356.449Z" fill="#929497"/>
          <polygon points="573.652 1165.033 602.584 1155.265 625.932 1124.933 599.792 1139.327 573.652 1165.033" fill="#929497"/>
          <path d="M394.65,1289.616,388.9,1307.1l-8.122,9.253s-1.353-13.366,1.354-15.423S394.65,1289.616,394.65,1289.616Z" fill="#929497"/>
          <polygon points="661.969 1325.946 683.287 1297.413 688.87 1268.881 669.582 1285.846 665.522 1304.354 661.969 1325.946" fill="#6d6e70"/>
          <polygon points="763.759 1187.916 753.101 1221.16 809.163 1209.245 763.759 1187.916" fill="#929497"/>
        </g>
        <g>
          <g>
            <polygon points="2349.193 1356.036 2381.116 1307.086 2395.793 1272.064 2460.533 1214.451 2608.254 1145.968 2734.092 1014.772 2683.211 969.069 2556.59 1000.028 2480.181 1095.11 2358.841 1168.578 2144.796 1440.256 2211.225 1440.256 2298.979 1369.302 2349.193 1356.036" fill="#e6e7e8"/>
            <polygon points="2857.908 1187.369 2767.152 1126.066 2766.719 1124.263 2742.292 1181.277 2697.947 1297.738 2648.281 1356.036 2527.01 1440.256 2906.455 1440.256 2857.908 1187.369" fill="#6d6e70"/>
            <polygon points="2697.947 1297.738 2742.292 1181.277 2766.719 1124.263 2742.292 1022.14 2734.092 1014.772 2608.254 1145.968 2460.533 1214.451 2395.793 1272.064 2381.116 1307.086 2349.193 1356.036 2298.979 1369.302 2211.225 1440.256 2527.01 1440.256 2648.281 1356.036 2697.947 1297.738" fill="#929497"/>
          </g>
          <path d="M2308.8,1350.138l27.42-8.69,10.982-17.383,3.433-24.483-9.267,1.507s-27.456,28.54-27.113,32.364S2308.8,1350.138,2308.8,1350.138Z" fill="#929497"/>
          <path d="M2376.118,1278.274l-6.187,18.8-8.731,9.95s-1.457-14.373,1.455-16.584S2376.118,1278.274,2376.118,1278.274Z" fill="#929497"/>
        </g>
        <g>
          <g>
            <polygon points="1792.433 1305.81 1739.221 1249.301 1670.431 1300.306 1574.89 1300.306 1464.423 1440.256 1849.693 1440.256 1792.433 1305.81" fill="#6d6e70"/>
            <path d="M1574.89,962.869l98.489-123.556-59.525.043-56.967,47.295L1450.176,911.7l-416.437,528.561h126c43.068-58.421,95.131-118.418,161.925-207.614,6.52-8.707,73.051-32.409,79.382-40.86,9.286-12.395,9.1-73.656,17.787-85.238,52.824-70.464,64.2-98.857,64.2-98.857Z" fill="#e6e7e8"/>
            <path d="M1670.431,1300.306l68.79-51.005-.78-.829,14.95-129.835-22.046-36.074,46.132-112.856-14.65-100.423-89.448-29.971L1574.89,962.869l-91.856,44.818s-23.839,31.722-59.231,78.9c-17.209,22.935-21.017,76.6-42.275,104.971-16.116,21.511-49.123,16.972-66.142,39.718-58.514,78.2-118.728,158.9-155.645,208.978h304.682l110.467-139.95Z" fill="#929497"/>
          </g>
          <polygon points="1657.059 1246.138 1628.786 1275.261 1666.526 1275.261 1705.227 1244.711 1657.059 1246.138" fill="#6d6e70"/>
          <path d="M1390.019,1114.726s-11.861,51.541-24.105,63.944-54.332,32.55-48.208,18.989S1386.155,1088.513,1390.019,1114.726Z" fill="#929497"/>
          <path d="M1527.281,963.528s24.726-3.294,39.692-17.136,35.136-34.269,22.774-30.315S1531.185,945.077,1527.281,963.528Z" fill="#929497"/>
          <path d="M1553.959,1362.256s31.883-43.5,33.834-43.5h25.377S1587.793,1361.251,1553.959,1362.256Z" fill="#929497"/>
        </g>
        <g>
          <g>
            <polygon points="2145.037 1352.301 2110.226 1315.333 2065.222 1348.7 2002.719 1348.7 1930.452 1440.256 2182.496 1440.256 2145.037 1352.301" fill="#6d6e70"/>
            <path d="M2002.719,1127.948l64.432-80.832-38.94.028-37.269,30.942-69.811,16.383L1648.7,1440.256h82.432c28.174-38.219,62.236-77.47,105.933-135.821,4.263-5.7,47.788-21.2,51.932-26.732,6.075-8.109,5.952-48.185,11.635-55.762,34.558-46.1,42-64.674,42-64.674Z" fill="#e6e7e8"/>
            <path d="M2065.222,1348.7l45-33.367-.51-.543,9.779-84.938-14.423-23.6,30.183-73.831-9.587-65.7-58.517-19.608-64.432,80.832-60.092,29.319s-15.6,20.754-38.749,51.618c-11.258,15.006-13.749,50.112-27.657,68.674-10.543,14.072-32.136,11.1-43.27,25.983-38.28,51.162-77.671,103.953-101.823,136.714h199.324l72.267-91.556Z" fill="#929497"/>
          </g>
          <polygon points="2056.476 1313.263 2037.978 1332.315 2062.669 1332.315 2087.986 1312.33 2056.476 1313.263" fill="#6d6e70"/>
          <path d="M1881.776,1227.293s-7.759,33.719-15.768,41.832-35.545,21.3-31.539,12.423S1879.248,1210.145,1881.776,1227.293Z" fill="#929497"/>
          <path d="M1971.573,1128.379s16.176-2.155,25.967-11.21,22.987-22.42,14.9-19.832S1974.129,1116.308,1971.573,1128.379Z" fill="#929497"/>
          <path d="M1989.026,1389.228s20.859-28.457,22.136-28.457h16.6S2011.162,1388.571,1989.026,1389.228Z" fill="#929497"/>
        </g>
      </g>
      <rect x="-423.49" y="1440.256" width="4232.171" height="170.638" fill="url(#b)"/>
    </g>
    <g>
      <g>
        <polygon points="-105.599 39.659 -120.011 53.261 -155.205 67.834 -158.715 105.724 -345.704 236.883 -265.759 236.883 168.09 3.404 76.738 3.404 13.935 3.404 -51.346 29.944 -105.599 39.659" fill="#fff"/>
        <polygon points="-285.692 45.963 -364.583 127.909 -371.134 147.696 -345.708 172.761 -345.708 236.883 -345.704 236.883 -158.715 105.724 -155.205 67.834 -120.011 53.261 -105.599 39.659 -51.346 29.944 13.935 3.404 -144.161 3.404 -162.979 3.404 -219.189 35.774 -285.692 45.963" fill="#929497"/>
      </g>
      <g>
        <g>
          <polygon points="2291.569 46.484 2246.084 71.523 2225.175 89.435 2132.942 118.906 1922.477 153.936 1743.195 221.041 1815.685 244.42 1996.085 228.585 2104.948 179.949 2277.822 142.37 2582.78 3.404 2488.134 3.404 2363.109 39.698 2291.569 46.484" fill="#fff"/>
          <polygon points="1566.787 132.759 1696.089 164.115 1696.707 165.037 1731.51 135.876 1794.689 76.303 1865.449 46.484 2038.228 3.404 1497.623 3.404 1566.787 132.759" fill="#6d6e70"/>
          <polygon points="1794.689 76.303 1731.51 135.876 1696.707 165.037 1731.51 217.274 1743.195 221.041 1922.477 153.936 2132.942 118.906 2225.175 89.435 2246.084 71.523 2291.569 46.484 2363.109 39.698 2488.134 3.404 2038.228 3.404 1865.449 46.484 1794.689 76.303" fill="#929497"/>
        </g>
        <path d="M2349.112,49.5l-39.068,4.445L2294.4,62.838l-4.891,12.524,13.2-.772s39.118-14.6,38.631-16.554S2349.112,49.5,2349.112,49.5Z" fill="#929497"/>
        <polygon points="1978.98 154.784 1934.656 160.156 1898.884 176.839 1938.934 168.922 1978.98 154.784" fill="#929497"/>
        <path d="M2253.212,86.259l8.81-9.614,12.442-5.089s2.071,7.352-2.075,8.482S2253.212,86.259,2253.212,86.259Z" fill="#929497"/>
        <polygon points="1843.676 66.278 1811.019 81.971 1802.465 97.665 1832.013 88.333 1838.233 78.153 1843.676 66.278" fill="#6d6e70"/>
        <polygon points="1687.733 142.197 1704.062 123.911 1618.173 130.466 1687.733 142.197" fill="#929497"/>
      </g>
      <g>
        <g>
          <polygon points="797.76 37.978 756.216 58.072 737.118 72.447 652.873 96.097 460.641 124.209 296.888 178.066 363.099 196.827 527.873 184.118 627.305 145.088 785.205 114.927 1063.743 3.404 977.297 3.404 863.103 32.532 797.76 37.978" fill="#fff"/>
          <polygon points="135.764 107.215 253.868 132.379 254.429 133.119 286.217 109.716 343.923 61.908 408.554 37.978 566.365 3.404 72.593 3.404 135.764 107.215" fill="#6d6e70"/>
          <polygon points="343.923 61.908 286.217 109.716 254.429 133.119 286.217 175.042 296.888 178.066 460.641 124.209 652.873 96.097 737.118 72.447 756.216 58.072 797.76 37.978 863.103 32.532 977.297 3.404 566.365 3.404 408.554 37.978 343.923 61.908" fill="#929497"/>
        </g>
        <path d="M850.317,40.4l-35.682,3.566L800.343,51.1l-4.467,10.05,12.06-.618s35.73-11.717,35.282-13.285S850.317,40.4,850.317,40.4Z" fill="#929497"/>
        <polygon points="512.249 124.891 471.765 129.202 439.092 142.591 475.67 136.236 512.249 124.891" fill="#929497"/>
        <path d="M762.723,69.9l8.049-7.716L782.136,58.1s1.893,5.9-1.9,6.808S762.723,69.9,762.723,69.9Z" fill="#929497"/>
        <polygon points="388.666 53.863 358.837 66.456 351.025 79.051 378.015 71.562 383.695 63.392 388.666 53.863" fill="#6d6e70"/>
        <polygon points="246.234 114.789 261.148 100.117 182.701 105.375 246.234 114.789" fill="#929497"/>
      </g>
      <g>
        <g>
          <polygon points="1017.029 47.499 1067.447 66.033 1132.624 49.305 1223.148 49.305 1327.814 3.404 962.777 3.404 1017.029 47.499" fill="#6d6e70"/>
          <path d="M1223.148,159.975,1129.832,200.5l56.4-.015,53.977-15.511,101.106-8.214L1735.879,3.4H1616.494c-40.8,19.161-90.133,38.839-153.419,68.093-6.179,2.856-69.216,10.629-75.214,13.4-8.8,4.065-8.625,24.157-16.854,27.956-50.05,23.11-60.827,32.422-60.827,32.422Z" fill="#fff"/>
          <path d="M1132.624,49.305l-65.177,16.728.74.272-14.166,42.582,20.888,11.832-43.71,37.014,13.881,32.936,84.752,9.83,93.316-40.524,87.032-14.7s22.586-10.4,56.12-25.877c16.306-7.522,19.913-25.123,40.055-34.429,15.269-7.055,46.544-5.567,62.667-13.026,55.442-25.65,112.5-52.116,147.472-68.54h-288.68l-104.666,45.9Z" fill="#929497"/>
        </g>
        <polygon points="1145.295 67.071 1172.081 57.519 1136.324 57.519 1099.656 67.538 1145.295 67.071" fill="#6d6e70"/>
        <path d="M1398.309,110.17s11.24-16.9,22.84-20.972,51.478-10.676,45.676-6.228S1401.971,118.767,1398.309,110.17Z" fill="#929497"/>
        <path d="M1268.256,159.759s-23.427,1.08-37.606,5.62-33.293,11.24-21.578,9.942S1264.557,165.81,1268.256,159.759Z" fill="#929497"/>
        <path d="M1242.982,28.986s-30.212,14.267-32.06,14.267h-24.044A125.309,125.309,0,0,1,1242.982,28.986Z" fill="#929497"/>
      </g>
      <g>
        <polygon points="2525.698 47.499 2566.961 66.033 2620.304 49.305 2694.391 49.305 2780.052 3.404 2481.297 3.404 2525.698 47.499" fill="#6d6e70"/>
        <path d="M2620.3,49.305l-53.343,16.728.606.272-11.595,42.582,17.1,11.832L2537.3,157.733l11.359,32.936,69.365,9.83,76.371-40.524,71.23-14.7s18.485-10.4,45.931-25.877c13.343-7.522,16.3-25.123,32.779-34.429,12.5-7.055,38.095-5.567,51.29-13.026,45.377-25.65,92.068-52.116,120.7-68.54H2780.052l-85.661,45.9Z" fill="#929497"/>
      </g>
    </g>
    <g>
      <g>
        <rect x="-423.49" y="1439.935" width="4232.171" height="170.958" fill="#d6c2ad"/>
        <path d="M3808.681,1527.108h-402.13c-159.931,0-294.246-27.007-368.639-3.608-95.054,33.426-330.621,46.8-438.075,33.426-144.65-16.713-427.747-49.95-642.654-49.95s-611.656,55.073-797.632,55.073-287.23-30.194-638.519-43.564c-194.242-6.686-122.305,18.576-317.691,8.814-12.339,0-176.18-.191-427.947-.191H-423.49V1395.082H-122.5c72.515,0,157.928,25.91,207.522,12.54,70.257-13.37,111.584-27.852,181.843-14.483,128.116,23.4,252.1-10.029,376.085,0,78.525,6.684,165.313,6.684,247.969,0,49.593-6.686,95.054,10.027,140.515,6.684,66.368-5.5,132.737-5.909,199.105-4.946q7.111.1,14.222.224c22.245-1.962,34.642,14.751,47.04,14.751,78.523,6.684,157.048-13.369,234.331-14.825,3.72-.624,7.439-1.365,11.158-2.181,29.759-6.527,59.513-17.758,89.269-9.736,33.064,10.029,66.126,30.082,99.19,26.742a795.2,795.2,0,0,1,115.716-14.623c4.206-.2,8.406-.382,12.782-.431,61.612,8.368,123.6,8.368,189.726-5,20.665-3.343,45.463,3.343,66.127,3.343,33.06,3.344,70.257-16.713,107.454-6.686,33.06,6.686,61.991,13.37,95.054,13.37,57.858,6.686,111.587,3.343,169.444,0,16.532,0,33.064-6.684,49.592-6.684,94.021-5.85,188.047,8.773,284.836-.913,4.645-.454,9.3-.964,14.054-1.516,143.323,9.113,296.234,12.456,436.752,12.456,103.321,0,193.225,10.039,261,10.039s93.541-18.123,160.113-18.123h120.288Z" fill="#f4edcb"/>
        <g>
          <path d="M1381.142,1424.623c22.245-1.963,34.644,14.75,47.041,14.75,78.524,6.684,157.047-13.369,234.333-14.825,3.719-.624,7.436-1.365,11.156-2.181,3.253-.712,6.5-1.488,9.757-2.282-18.956-6.044-37.913-15.074-56.871-20.824-29.756-8.022-59.51,3.21-89.269,9.736-3.719.816-7.438,1.557-11.158,2.181-48.219.908-96.921,9.054-145.8,13.432C1380.6,1424.613,1380.869,1424.62,1381.142,1424.623Z" fill="#ddd08e"/>
          <path d="M1862.129,1439.373a795.69,795.69,0,0,1,115.719-14.623c4.206-.2,8.407-.381,12.783-.431,61.607,8.368,123.6,8.368,189.725-5,20.665-3.343,45.463,3.343,66.124,3.343,18.311,1.852,37.895-3.467,58.039-6.885-29.754-.972-56.644-7.036-86.966-13.171-37.2-10.026-74.394,10.03-107.454,6.687-20.664,0-45.462-6.687-66.127-3.344-66.124,13.37-128.114,13.37-189.726,5-4.376.05-8.576.229-12.782.431-21.219,1.192-42.465,3.1-64.453,6.04C1805.385,1427.891,1833.757,1442.244,1862.129,1439.373Z" fill="#ddd08e"/>
          <path d="M2448.988,1429.344c57.861,6.686,111.586,3.343,169.448,0,16.528,0,33.059-6.684,49.591-6.684,94.021-5.85,188.042,8.773,284.833-.914,4.649-.453,9.306-.963,14.058-1.514,143.321,9.112,296.234,12.455,436.751,12.455,103.321,0,193.225,10.039,261,10.039,62.018,0,80.992-17.744,144.016-17.744v-13.748H3688.393c-66.572,0-92.338,18.119-160.113,18.119s-157.674-10.036-261-10.036c-140.518,0-293.429-3.343-436.752-12.455-4.751.552-9.409,1.062-14.054,1.514-96.789,9.687-190.815-4.936-284.836.915-16.528,0-33.06,6.683-49.592,6.683-37.556,2.172-73.368,4.323-109.7,3.748C2398.1,1424.946,2422.208,1429.344,2448.988,1429.344Z" fill="#ddd08e"/>
          <path d="M403.246,1422.66c128.119,23.4,252.1-10.026,376.087,0,78.523,6.684,165.311,6.684,247.969,0,49.592-6.686,95.054,10.027,140.515,6.684,38.775-3.216,77.55-4.659,116.325-5.139-10.2-4.251-21.664-14.516-39.382-12.952q-7.111-.121-14.222-.224c-66.368-.964-132.737-.559-199.1,4.945-45.461,3.343-90.922-13.37-140.515-6.683-82.656,6.683-169.444,6.683-247.969,0-92.648-7.5-185.294,9.27-279.667,8.462A294.264,294.264,0,0,1,403.246,1422.66Z" fill="#ddd08e"/>
          <path d="M221.4,1437.144c49.284-9.377,84.359-19.267,125.144-19.743a537.646,537.646,0,0,1-79.683-8.11c-70.259-13.37-111.586,1.114-181.843,14.483a118.809,118.809,0,0,1-24.886,3.591C120.221,1433.654,182.072,1447.744,221.4,1437.144Z" fill="#ddd08e"/>
          <path d="M6.731,1424.6c-41.119-4.725-87.323-13.37-129.232-13.37H-423.49v13.37Z" fill="#ddd08e"/>
        </g>
        <path d="M3035.814,1505.6c-110.557,7.492-328.523,36.336-435.977,22.963-144.65-16.713-427.747-34.964-642.654-34.964s-611.656,55.076-797.632,55.076-283.434-29.375-638.519-43.564c-261.507-10.449-363.855,7.149-402.068,7.149-12.339,0-91.8,1.474-343.57,1.474H-423.49v16.713h198.884c261.382,0,364.987.6,393.852.6,118.012,2.246,159.611,7.495,353.853,14.179,351.289,13.369,450.476,41.787,636.452,41.787s578.6-45.372,793.5-45.372,516.6,8.678,661.253,25.391c107.453,13.37,373.25-22.852,447.545-32.288s151.294-4.292,344.7-4.292h402.13v-16.713h-402.13C3246.62,1513.738,3146.371,1498.11,3035.814,1505.6Z" fill="#b29c88"/>
        <path d="M3767.355,1473.538c-101.944,0-322.36,8.355-409.148,10.215s-231.44-10.215-283.1-13.559-236.649,31.9-313.1,39.572-343.235-12.6-498.824-38.576-556.716-11.365-635.244,0-362.326,52.92-491.8,50.083-538.644-55.712-596.5-59.055-162.644,7.174-204.573,6.753c-52.838-.531-230.829,36.633-333.3,18.316-64.5-11.529-209.131-13.749-276.29-13.749H-423.49v43.72h198.884c251.767,0,307.062-1.386,396.265-4.994,55.944-10.823,155.131-10.315,349.373-3.629,351.289,13.37,452.543,43.563,638.519,43.563s582.724-55.075,797.632-55.075,498,18.251,642.654,34.964c107.454,13.369,323.353,8.291,423.578-14.828,97.879-18.316,223.2,0,383.136,0h402.13v-43.72Z" fill="#ddd08e"/>
        <polygon points="2210.833 1574.818 2199.813 1584.736 2218.412 1588.079 2218.412 1581.448 2210.833 1574.818" fill="#c7b29e"/>
        <polygon points="2268.004 1567.096 2244.586 1576.078 2253.539 1585.859 2270.761 1588.879 2281.783 1582.249 2268.004 1567.096" fill="#c7b29e"/>
        <polygon points="2350.663 1572.911 2336.197 1581.57 2350.663 1597.002 2360.305 1599.092 2387.861 1585.833 2372.704 1570.681 2350.663 1572.911" fill="#c7b29e"/>
        <path d="M2417.375,1579.654l43.719,15.244,38,10.206,19.777-17.049-26.546-20.836s-28.107.1-30.19,0-14.57,1.576-14.57,1.576Z" fill="#c7b29e"/>
        <polygon points="2552.447 1598.297 2566.243 1607.523 2592.251 1603.034 2618.127 1580.118 2601.99 1579.279 2557.198 1587.954 2552.447 1598.297" fill="#c7b29e"/>
        <polygon points="2527.795 1575.815 2532.973 1579.279 2542.732 1577.593 2552.447 1568.991 2546.388 1568.674 2529.575 1571.932 2527.795 1575.815" fill="#c7b29e"/>
        <polygon points="2529.655 1591.894 2535.887 1593.925 2544.561 1589.922 2550.586 1579.347 2544.698 1580.526 2529.898 1587.757 2529.655 1591.894" fill="#c7b29e"/>
        <polygon points="79.854 1546.085 66.424 1553.894 96.386 1569.491 105.685 1560.999 79.854 1546.085" fill="#c7b29e"/>
        <polygon points="124.28 1569.878 111.883 1579.35 131.513 1586.588 143.912 1577.955 124.28 1569.878" fill="#c7b29e"/>
        <polygon points="127.898 1542.832 127.898 1552.578 198.156 1581.265 250.85 1564.556 257.049 1550.141 175.425 1544.382 127.898 1542.832" fill="#c7b29e"/>
        <polygon points="161.304 1591.881 178.869 1600.514 161.304 1603.861 153.04 1594.389 161.304 1591.881" fill="#c7b29e"/>
        <polygon points="207.2 1587.247 202.944 1594.562 198.156 1598.865 220.501 1598.865 228.482 1590.618 223.693 1579.07 209.328 1580.723 207.2 1587.247" fill="#c7b29e"/>
        <polygon points="314.391 1559.566 295.793 1559.566 300.614 1574.052 314.391 1574.052 321.968 1570.843 314.391 1559.566" fill="#c7b29e"/>
        <polygon points="285.46 1580.888 266.173 1588.132 266.173 1597.045 280.638 1597.045 285.46 1590.777 285.46 1580.888" fill="#c7b29e"/>
        <path d="M543.616,1570.854s-35.215,9.364-35.7,12.1,1.927,8.193,2.411,9.949,18.816,11.121,18.816,11.121H571.6s23.637-10.926,25.568-11.121,0-20.094,0-20.094l-30.393-1.951-13.833,7.025Z" fill="#c7b29e"/>
        <polygon points="547.895 1555.813 561.206 1561.931 576.825 1558.868 576.825 1552.47 547.895 1555.813" fill="#b29c88"/>
        <path d="M473.23,1591.067s12.419,9.837,13.909,9.337-10.431,5.525-10.431,5.525l-14.4-2.008v-7.23Z" fill="#c7b29e"/>
        <path d="M314.046,1584.6c4.133,1.174,24.8,9.106,24.8,9.106h32.392l4.8,4.879-12.4,2.785H318.179l-24.106-8.388,14.463-8.382Z" fill="#c7b29e"/>
        <polygon points="626.31 1596.716 648.813 1581.187 680.256 1565.856 703.705 1561.531 715.962 1571.453 715.962 1583.743 691.981 1598.071 666.4 1600.842 637.62 1603.987 626.31 1596.716" fill="#e5d3bd"/>
        <path d="M831.68,1587.694v14.915l27.554,3.894s22.041-13.924,24.8-14.483-6.2-13.369-6.2-13.369H839.257Z" fill="#e5d3bd"/>
        <path d="M915.716,1592.576s18.6,11.149,22.041,8.361S966,1587.25,966,1587.25h-28.24Z" fill="#e5d3bd"/>
        <path d="M998.371,1593.417s10.335,13.37,13.087,13.928,21.353-6.963,21.353-6.963-10.33-11.983-13.087-12.538S998.371,1593.417,998.371,1593.417Z" fill="#c7b29e"/>
        <polygon points="1302.823 1589.677 1328.995 1598.707 1348.972 1589.677 1302.823 1589.677" fill="#c7b29e"/>
        <path d="M1517.727,1582.545l19.286,20s39.951-.506,42.018-1.615,62.681-27.851,62.681-27.851l-86.789,6.684Z" fill="#c7b29e"/>
        <path d="M1707.368,1567.822s-37.884,12.634-37.884,15.509,13.259,18.957,13.259,18.957h21.784l72.451-9.189,6.628-28.724-35.516-6.436Z" fill="#c7b29e"/>
        <path d="M1796.09,1597.286l-10.873,2.051s-3.624,4.56,0,4.886,17.718,0,17.718,0S1800.7,1596.415,1796.09,1597.286Z" fill="#c7b29e"/>
        <path d="M1824.912,1592.679l2.82-17.589,24.964-3.907,18.93,10.749s1.61,20.837-2.014,21-27.785,4.4-27.785,4.4Z" fill="#e5d3bd"/>
        <polygon points="1767.073 1556.371 1800.137 1562.049 1833.202 1556.371 1767.073 1556.371" fill="#c7b29e"/>
        <polygon points="1866.778 1564.725 1905.008 1580.74 1955.633 1572.735 1964.416 1556.371 1922.574 1552.329 1890.026 1556.371 1866.778 1564.725" fill="#c7b29e"/>
        <path d="M1874.011,1552.329l-15.5,6.879-5.166-2.837s-6.2-5.714-4.649-6.132,25.314-3.343,25.314-3.343Z" fill="#c7b29e"/>
        <g>
          <path d="M-30.089,1570.926l57.858,14.367,50.282,9.619,26.176-16.067L69.1,1559.205s-37.2.1-39.954,0-19.284,1.488-19.284,1.488Z" fill="#c7b29e"/>
          <polygon points="2138.852 1569.291 2151.767 1576.43 2178.115 1574.35 2206.013 1559.174 2189.997 1557.89 2144.535 1562.15 2138.852 1569.291" fill="#c7b29e"/>
          <polygon points="2161.583 1578.416 2149.184 1579.41 2153.317 1582.88 2157.967 1583.475 2166.92 1580.946 2161.583 1578.416" fill="#c7b29e"/>
          <polygon points="2122.324 1580.925 2098.907 1587.321 2107.858 1594.287 2125.082 1596.438 2136.1 1591.716 2122.324 1580.925" fill="#c7b29e"/>
          <polygon points="2164.337 1588.679 2140.918 1595.077 2149.871 1602.041 2167.092 1604.192 2178.115 1599.471 2164.337 1588.679" fill="#c7b29e"/>
          <path d="M372.941,1555.337c-3.446,0-25.488,19.045-25.488,19.045s15.845,15.869,37.887,17.852,72.321-.395,77.833-1.983,14.465-24.995,13.776-26.186-4.82-8.33-35.818-8.728S372.941,1555.337,372.941,1555.337Z" fill="#c7b29e"/>
          <path d="M472.816,1555.16l23.418,8.9,24.8-8.9s-13.09-8.151-16.532-7.756S472.816,1555.16,472.816,1555.16Z" fill="#c7b29e"/>
          <path d="M784.152,1564.065c-4.819.791-26.862-1.587-26.862,1.981s5.511,12.895,5.511,12.895l49.594,4.565v-12.7Z" fill="#c7b29e"/>
          <polygon points="757.29 1587.47 791.73 1592.987 757.29 1597.591 741.448 1595.805 757.29 1587.47" fill="#c7b29e"/>
          <path d="M1949.434,1569.123c-1.55-1.488-48.559,9.66-48.559,9.66s5.683,15.335,7.233,15.335,36.676,7.312,41.326,6.63,55.8-5.737,55.8-5.737l-23.764-18.152-22.732-4.76Z" fill="#c7b29e"/>
        </g>
        <path d="M2024.8,1556.371s-24.511,14.08-23.708,15.054,19.289,17.876,19.289,17.876,30.133,12.35,36.964,11.375,37.774-22.125,37.774-22.125l-35.764-19.973Z" fill="#c7b29e"/>
        <polygon points="2012.462 1556.371 1988.181 1573.636 1973.715 1568.624 1990.247 1546.896 2012.462 1548.568 2012.462 1556.371" fill="#c7b29e"/>
        <path d="M1010.77,1496.757s206.641,26.743,405.016-16.713C1415.786,1480.044,1155.418,1503.444,1010.77,1496.757Z" fill="#ddd08e"/>
        <path d="M-13.291,1470.308s42.106,9.094,104.1,9.094S19.256,1497.082-13.291,1470.308Z" fill="#ddd08e"/>
      </g>
      <g>
        <path d="M1170.788,1498.816s2.956-14.83,8.051-18.3,3.665-7.722,7.783-10.457c6.7-4.448,4.294-1.293,8.748-4.633s13.194-9.893,13.194-9.893,9.21-2.877,14.31-2.968c16.994-.3,27.728,46.254,27.728,46.254Z" fill="#929497"/>
        <path d="M1187.255,1487.252c6.875-3.086,5.464-8.765,10.24-11.563,2.838-1.663,8.348-.061,12.8-3.4s3.913-4.82,10.062-9.832c3.186-2.6,9.127-1.85,14.338-2.372-3.474-4.556-7.355-8.65-11.738-8.573a83.5,83.5,0,0,0-15.178,2.226c-1.929.556-8.964,7.234-13.416,10.575s-5.593,1.409-9.387,5.464c-5.615,6-2.5,6.274-7.593,9.747s-6.6,19.293-6.6,19.293h10.024C1182.192,1494.566,1184.385,1488.54,1187.255,1487.252Z" fill="#e6e7e8"/>
        <path d="M1243.157,1475.689s-2.506,6.8-5.525,9.029-7.882.062-11.572,2.534-2.683,4.824-7.714,6.556-5.534,1.544-9.224.557c-3.993-1.07-9.074,3.316-9.433,4.451H1250.6A167.042,167.042,0,0,0,1243.157,1475.689Z" fill="#6d6e70"/>
        <path d="M1211.583,1466.537s-3.019,4.577-5.031,4.823-5.591.989-6.262,0S1206.805,1466.961,1211.583,1466.537Z" fill="#929497"/>
        <path d="M1228.493,1462.642c-.671-1.578,3.94-.835,5.449,0s2.685,4.359,2.685,4.359-3.439-.927-4.069-2.181S1229.162,1464.219,1228.493,1462.642Z" fill="#6d6e70"/>
        <path d="M1220.1,1488.831c.742.194-1.782,2.745-5.378,3.362-.975.167-2.546.813-2.783-.409s2.1-2.188,3.2-2.451A19.837,19.837,0,0,1,1220.1,1488.831Z" fill="#6d6e70"/>
      </g>
      <ellipse cx="1092.022" cy="1478.323" rx="55.537" ry="6.462" fill="#ddd08e"/>
      <g>
        <path d="M1049.9,1478.465s2.367-11.873,6.446-14.654,2.934-6.182,6.232-8.372c5.361-3.561,3.437-1.034,7-3.709l10.564-7.92s7.374-2.3,11.456-2.377c13.606-.242,22.2,37.032,22.2,37.032Z" fill="#929497"/>
        <path d="M1063.082,1469.208c5.5-2.472,4.374-7.018,8.2-9.259,2.273-1.331,6.684-.049,10.25-2.722s3.133-3.859,8.056-7.872c2.55-2.079,7.307-1.481,11.479-1.9-2.781-3.647-5.889-6.926-9.4-6.865a66.864,66.864,0,0,0-12.152,1.784c-1.544.444-7.177,5.792-10.741,8.466s-4.478,1.127-7.515,4.374c-4.5,4.808-2,5.024-6.08,7.8s-5.281,15.446-5.281,15.446h8.026C1059.028,1475.063,1060.785,1470.239,1063.082,1469.208Z" fill="#e6e7e8"/>
        <path d="M1107.839,1459.949s-2.007,5.447-4.424,7.229-6.311.05-9.265,2.03-2.148,3.862-6.175,5.248-4.432,1.236-7.386.445c-3.2-.856-7.265,2.656-7.552,3.564H1113.8A133.808,133.808,0,0,0,1107.839,1459.949Z" fill="#6d6e70"/>
        <path d="M1082.559,1452.622s-2.416,3.664-4.028,3.862-4.476.792-5.014,0S1078.734,1452.962,1082.559,1452.622Z" fill="#929497"/>
        <path d="M1096.1,1449.5c-.537-1.263,3.155-.668,4.363,0s2.149,3.489,2.149,3.489-2.753-.742-3.257-1.745S1096.633,1450.767,1096.1,1449.5Z" fill="#6d6e70"/>
        <path d="M1089.375,1470.472c.594.154-1.426,2.2-4.305,2.691-.781.134-2.038.651-2.229-.327s1.681-1.752,2.565-1.962A15.839,15.839,0,0,1,1089.375,1470.472Z" fill="#6d6e70"/>
      </g>
      <path d="M16.329,1451.993c0,2.794-28.528,5.059-63.718,5.059s-63.717-2.265-63.717-5.059,28.528-5.058,63.717-5.058S16.329,1449.2,16.329,1451.993Z" fill="#ddd08e"/>
    </g>
  </g>
</svg>
