<svg xmlns="http://www.w3.org/2000/svg" xmlns:xlink="http://www.w3.org/1999/xlink" width="2560" height="1600" viewBox="0 0 2560 1600">
  <defs>
    <linearGradient id="a" data-name="Unbenannter Verlauf 689" x1="1413.864" y1="1608.851" x2="1413.864" y2="-35.706" gradientUnits="userSpaceOnUse">
      <stop offset="0.255" stop-color="#fff"/>
      <stop offset="0.356" stop-color="#fbfcfa"/>
      <stop offset="0.479" stop-color="#f0f4eb"/>
      <stop offset="0.614" stop-color="#dee7d2"/>
      <stop offset="0.756" stop-color="#c4d5b0"/>
      <stop offset="0.904" stop-color="#a3bd85"/>
      <stop offset="1" stop-color="#8bac64"/>
    </linearGradient>
  </defs>
  <g>
    <rect x="-1773.261" y="-35.706" width="6374.251" height="1644.557" fill="url(#a)"/>
    <path d="M4386.04,962.127C4227,518.913,4249.821-35.706,4249.821-35.706H4188.1c-40.053,234.55,20.988,712.6,81.225,997.833H3710c-25.106-455.1,151.824-997.833,151.824-997.833h-94.384S3540.352,401.056,3200.38,567.221c108.579-295.713,271.095-602.927,271.095-602.927H3397.74C3238.212,161.95,3057.151,684.73,2973.011,962.127h-107.15c-55.677-167.1-86.627-344.926-103.6-501.242,123.655-128.806,286.849-383.8,331.849-496.591h-58.344s-118.7,232.969-282.265,403.593c-16.722-208.816-10.764-403.593-10.764-403.593h-66.608c-19.213,106.5-18.725,327.816-3.611,481.731-70.383,62.5-149.852,119.179-236.674,159.319,19.561-280.508,135.575-641.05,135.575-641.05h-52.933c-105.781,203.678-187.54,764.063-191.669,997.833H603.221C601.17,741.781,568.076,181.686,455.173-35.706H391.7s174.834,586.788,75.249,997.833H118.006C6.255,916.439-123.962,853.7-253.589,770.1c94.043-162.592,322.8-580.829,334.238-805.807H-11.458s-77.73,464.945-344.228,735.24C-567.658,542.428-778.111,258.587-872.7-35.706h-92.065s86.733,700.623,711.86,997.833h-908.65C-1291.1,817.952-1561.8,412.594-1510.742-35.706h-76.2c-.059,16.781-50.064,710.438,153.936,997.833h-340.253v646.724H4600.99V962.127ZM3132.96,777.511c104.092-88.977,399.9-348.927,566.168-567.542-57.779,222.3-84.853,524.873-97.519,752.158H3092.045C3102.505,900.036,3116.516,838.143,3132.96,777.511Zm-700.6-5.848c44.65-38.377,143.725-125.3,250.735-230.681,18.194,147.033,44.493,295.955,69.352,421.145H2452.82C2440.739,899.626,2434.414,835.465,2432.362,771.663Z" fill="#9fa58e"/>
  </g>
  <path d="M-1773.261-41.876V202.037a71.964,71.964,0,0,0,37.9-10.73,65.862,65.862,0,0,0,65.219,56.784,65.847,65.847,0,0,0,65.65-60.876,55.246,55.246,0,0,0,8.157.606,54.631,54.631,0,0,0,31.411-9.886,67.806,67.806,0,0,0,66.252,53.426,67.712,67.712,0,0,0,56.925-31,64.808,64.808,0,0,0,53.444,28.1,64.849,64.849,0,0,0,56.855-33.635c17.716,64.576,48.417,198.28,15.59,250.248-38.1,60.315-180.85,162.5-218.48,188.842-81.563-52.253-166.316-59.251-238.808-59.251v81.226c248.638,0,275.937,462.4,276.841,648.794h-276.96v298H4600.99v-298H4324.149c.2-42.155,1.759-98.415,6.919-160.263,9.189-62.5,20.136-134.293,32.478-210.392,36.559-149.172,106.135-278.139,237.444-278.139V574.66c-67.988,0-131.583,23.681-185.47,64.244,30.692-159.139,65.19-310.57,100.533-413.738a65.074,65.074,0,0,0,40.255-38.606,71.991,71.991,0,0,0,44.682,15.477V-41.876ZM3894.928,231.361a67.721,67.721,0,0,0,56.929-31,64.885,64.885,0,0,0,114.125-13.8,72.27,72.27,0,0,0,82.585,4.747,65.842,65.842,0,0,0,130.87-4.092,55.239,55.239,0,0,0,8.155.606,54.618,54.618,0,0,0,31.41-9.886,67.769,67.769,0,0,0,117.966,29.434c-54.7,240.488-167.352,703.992-221.1,695.311-54.222-8.758-280.792-483.187-391.635-721.955,1.526-.864,3.011-1.79,4.442-2.79A67.806,67.806,0,0,0,3894.928,231.361Zm-202.807,8.8a65.809,65.809,0,0,0,79.4-12.943c28.83,57.082,62.868,135.02,96.457,236.491-53.17-8.108-156.608-28.349-211.542-68.933-13.2-9.755-23.562-22.682-31.67-37.376C3635.634,334.266,3663.715,277.064,3692.121,240.16Zm-71.784-38.123a71.957,71.957,0,0,0,37.9-10.73,65.469,65.469,0,0,0,9.446,25.906l-61.465,90.58c-10.026-41.388-10.153-84.772-9.065-109.575a72.064,72.064,0,0,0,23.178,3.819Zm-158.809-1.68a64.9,64.9,0,0,0,79.8,22.514c3.316,48.819,16.482,143.867,68.065,208.946,40.768,51.436,208.009,111.571,293.719,139.81,64.561,201.307,166.609,547.679,129,733.053H3796.148c-148.442-225.95-414.464-689.237-388.375-1073.4A67.728,67.728,0,0,0,3461.528,200.357Zm-821.845,1.68a71.948,71.948,0,0,0,37.9-10.73,65.843,65.843,0,0,0,130.872-4.092,55.225,55.225,0,0,0,8.154.606,54.624,54.624,0,0,0,31.411-9.886A67.782,67.782,0,0,0,2971.2,200.357a64.884,64.884,0,0,0,114.124-13.8,72.27,72.27,0,0,0,82.585,4.747,65.872,65.872,0,0,0,58,56.375c63.11,199.273,199.041,692.987,128.239,1057H822.717c-33.3-89.084-85.517-247.388-84.167-361.146,373.034,73.65,845.341,182.861,1165.076,10.606,77.011-41.49,173.848-267.238,249.474-475.795,72.005-14.2,211.872-44.455,242.171-70.692,27.763-24.04,103.888-120.081,150.645-180.244A64.975,64.975,0,0,0,2595,186.56,71.992,71.992,0,0,0,2639.683,202.037ZM618.752,920.829c16.88,84.712,34.611,232.942-3.346,383.851H-72.98C-23.147,1186.313,71.939,1009.448,220.764,922.2,299.11,876.263,442.654,889.5,618.752,920.829ZM2318.129,187.215a55.236,55.236,0,0,0,8.154.606,54.625,54.625,0,0,0,31.412-9.886,67.782,67.782,0,0,0,123.181,22.422,65.243,65.243,0,0,0,11.014,12.263c-34.982,44.124-98.259,116.757-151.5,138.887-57.722,23.991-116.565,30.1-153.594,31.231,17.189-50.116,32.614-97.127,45.613-137.777a65.848,65.848,0,0,0,85.72-57.746Zm-555.977,60.876a65.849,65.849,0,0,0,65.651-60.876,55.215,55.215,0,0,0,8.154.606,54.63,54.63,0,0,0,31.413-9.886,67.781,67.781,0,0,0,123.18,22.422,64.884,64.884,0,0,0,114.124-13.8,72.242,72.242,0,0,0,23.734,12.383c-43.777,109.225-112.125,275.186-175.315,409.453-70.761-63.9-171.906-124.066-221.56-181.7-32.223-37.4-33.243-139.906-28.863-216.229A65.83,65.83,0,0,0,1762.152,248.091ZM1124.018,186.56a72.27,72.27,0,0,0,82.585,4.747,65.842,65.842,0,0,0,130.871-4.092,55.225,55.225,0,0,0,8.154.606,54.619,54.619,0,0,0,31.411-9.886,67.782,67.782,0,0,0,123.181,22.422,64.884,64.884,0,0,0,114.124-13.8,72.671,72.671,0,0,0,9.028,6.056c-7.9,93.008-5.624,226.832,57.083,305.836,40.5,51.026,136.947,185.8,192.841,264.449-15.5,25.869-29.38,45.481-40.86,56.529-142.539,137.186-537.818,48.015-921.6-32.212C909.648,731.906,896.153,675.844,874.2,620.6c60.008-63.868,154.515-166.583,165.613-191.556,17.69-39.807,43.251-149.106,56.7-209.7A65.12,65.12,0,0,0,1124.018,186.56Zm-490.326,0a72.27,72.27,0,0,0,82.585,4.747,65.842,65.842,0,0,0,130.87-4.092,55.229,55.229,0,0,0,8.155.606,54.624,54.624,0,0,0,31.411-9.886,67.782,67.782,0,0,0,123.181,22.422,64.93,64.93,0,0,0,39.015,26.457c-17.39,43.945-46.992,114.692-78.487,171.96-31.755,57.741-107.721,96.172-149.707,113.8C757.634,405.3,670.79,305.49,591.308,225.828A65.043,65.043,0,0,0,633.692,186.56Zm-832.847,61.531a65.849,65.849,0,0,0,65.65-60.876,55.239,55.239,0,0,0,8.155.606,54.637,54.637,0,0,0,31.413-9.886,67.8,67.8,0,0,0,66.25,53.426,67.719,67.719,0,0,0,56.928-31,64.884,64.884,0,0,0,114.124-13.8,72.27,72.27,0,0,0,82.585,4.747,65.842,65.842,0,0,0,130.871-4.092,55.225,55.225,0,0,0,8.154.606,54.627,54.627,0,0,0,31.412-9.886,67.763,67.763,0,0,0,109.979,37.41c205.942,218.774,240.379,432.93,242.986,539.02-152.346-29.631-296.615-52.283-415.16-52.242-22.19-47-25.056-98.663-23.229-135.229a401.446,401.446,0,0,1,5.984-51.534A52.386,52.386,0,0,0,401.8,460.438a52.43,52.43,0,0,0,54.591-31.609,52.456,52.456,0,0,0-7.279-53.009,52.681,52.681,0,0,0-26.331-17.679c8.88-19.839,4.038-34.9-1.734-44.147-9.732-15.6-29.718-26.078-49.73-26.078a49.118,49.118,0,0,0-22.636,5.245c-11.916-21.641-31.754-34.01-54.707-34.01a61.8,61.8,0,0,0-37.6,12.763,57.284,57.284,0,0,0-21.052,32.768,34.563,34.563,0,0,0-12.913-2.5,37.19,37.19,0,0,0-27.137,12.2,38.022,38.022,0,0,0-10.152,27.71,52.4,52.4,0,0,0-5.552,94.9,58.2,58.2,0,0,0,52.4,83.477,57.764,57.764,0,0,0,28.734-7.575c9.735,43.917,4.315,91.792-2.717,126.454a498.221,498.221,0,0,1-19.269,68.8q-19.935,2.808-38.276,7.024c-302.672,70.053-542.423,411.791-648.98,589.5H-671.289l-111.88-264.7c106.512-27.933,411.842-143.953,443.346-357.283,19.933-134.974,47.429-347.5,65.02-486.079a72.028,72.028,0,0,0,10.429-5.311A65.857,65.857,0,0,0-199.155,248.091Zm-752.259-47.734a64.8,64.8,0,0,0,53.442,28.1,64.9,64.9,0,0,0,60.682-41.9,71.989,71.989,0,0,0,44.682,15.477h0a71.951,71.951,0,0,0,37.9-10.73,65.863,65.863,0,0,0,65.221,56.784,65.852,65.852,0,0,0,65.653-60.876,55.168,55.168,0,0,0,8.152.606,54.609,54.609,0,0,0,31.41-9.886,67.809,67.809,0,0,0,66.253,53.426,67.722,67.722,0,0,0,56.93-31,64.8,64.8,0,0,0,53.444,28.1,64.539,64.539,0,0,0,35.084-10.3c-12.554,161.9-45.488,353.164-100.248,454.671C-534.965,788.048-865.33,876.166-865.33,876.166c-124.934-178.6-148.926-455.032-148.454-645.031,1.8.143,3.608.226,5.44.226A67.723,67.723,0,0,0-951.414,200.357Zm-461.99,554.88c-4.244-6.22-8.529-12.2-12.843-18.007,66.87-76.7,188.257-220.853,199.094-268.542,10.6-46.63-2.771-181.538-11.576-257.054a65.827,65.827,0,0,0,58.918,36.457,65.805,65.805,0,0,0,58.535-35.725c-4.692,66.175-7.332,142.638-3.753,217.81,8.049,169.054,147.79,710.482,190.982,874.5H-1217.8C-1238.709,1195.2-1299.679,921.921-1413.4,755.237Z" fill="#475e47"/>
  <g>
    <path d="M3322.183,1026.119c140.121-112.449,187.081-321.775,211.6-469.279,27.292-164.186,288.747-581.324,288.747-581.324l-92.122-.395s-119.933,329.967-218.435,340.913S3118.4-29.277,3118.4-29.277h-93.692s225.4,245.593,302.32,339.838c90.547,110.947,110.927,173.919,75.5,295.535-44.421,152.479-221.847,204.356-325.55,258.278-68.783-27.747-141.3-41.758-216.1-35.033a523.685,523.685,0,0,0-145.427,34.541c-123.909-90.236-480.565-255.12-489.792-427.445C2214.98,237.084,2343.518-3.369,2343.518-3.369L2201.143-4.495s-90.83,255.457-106.42,429.986c-19.488,218.159,211.448,574.5,285.638,724.76-97.595,140.389-143.6,273.391-143.6,273.391l301.127,1.473s104.715-424.973,334.175-414.027,514.1,431.84,514.1,431.84h262.628S3519.5,1205.931,3322.183,1026.119Zm-881.318,45.067C2383.453,965.6,2275.83,827.7,2358.423,783.964c43.343-22.952,193.323,60.8,273.481,121.023C2557.188,949.43,2493.679,1008.656,2440.865,1071.186Z" fill="#a87c4f"/>
    <g>
      <path d="M2300.469-2.639C2265.985,65.443,2178.24,276.5,2178.24,430.693c0,204.866,491.5,419.989,510.5,414.825-141.739-93.16-454.447-247.864-463.08-409.081C2214.98,237.084,2343.518-3.369,2343.518-3.369Z" fill="#825737"/>
      <path d="M2455.892,1424.715l81.993.4s85.257-392.014,324.008-414.223C2596.005,987.95,2459.507,1410.331,2455.892,1424.715Z" fill="#825737"/>
    </g>
    <path d="M2440.865,1071.186C2383.453,965.6,2275.83,827.7,2358.423,783.964c43.343-22.952,193.323,60.8,273.481,121.023C2557.188,949.43,2493.679,1008.656,2440.865,1071.186Z" fill="none" stroke="#754c28" stroke-width="9"/>
    <path d="M2393.51,1368.775s168.288-414.05,468.383-401.542" fill="none" stroke="#8a5d3b" stroke-linecap="round" stroke-linejoin="round" stroke-width="12"/>
    <g>
      <line x1="2563.404" y1="1022.884" x2="2524.184" y2="1062.562" fill="none" stroke="#8a5d3b" stroke-linecap="round" stroke-linejoin="round" stroke-width="12"/>
      <path d="M2483.138,1110.45s-92.824,106.448-142.08,240.533" fill="none" stroke="#8a5d3b" stroke-linecap="round" stroke-linejoin="round" stroke-width="12"/>
    </g>
    <path d="M2205.046,122.505s-74.693,226.945-70.132,344.611c1.876,48.4,28.63,90.353,51.663,121.77" fill="none" stroke="#8a5d3b" stroke-linecap="round" stroke-linejoin="round" stroke-width="12"/>
    <line x1="2205.046" y1="617.163" x2="2225.444" y2="646.58" fill="none" stroke="#8a5d3b" stroke-linecap="round" stroke-linejoin="round" stroke-width="12"/>
    <path d="M2244.6,674.439l71.07,85.7s46.369-81.408,312.033,110.143" fill="none" stroke="#8a5d3b" stroke-linecap="round" stroke-linejoin="round" stroke-width="12"/>
    <path d="M2315.669,956.134s-54.652-95.428-19.078-172.048" fill="none" stroke="#8a5d3b" stroke-linecap="round" stroke-linejoin="round" stroke-width="12"/>
    <path d="M2154.3,606.9s20.137,57,86.495,144.074" fill="none" stroke="#8a5d3b" stroke-linecap="round" stroke-linejoin="round" stroke-width="12"/>
    <line x1="2328.934" y1="975.181" x2="2341.058" y2="996.161" fill="none" stroke="#8a5d3b" stroke-linecap="round" stroke-linejoin="round" stroke-width="12"/>
    <line x1="2352.917" y1="1022.884" x2="2402.172" y2="1105.617" fill="none" stroke="#8a5d3b" stroke-linecap="round" stroke-linejoin="round" stroke-width="12"/>
  </g>
  <g>
    <g>
      <path d="M689.152-22.485S447.372,458.391,320.042,823.38c-67.26,192.8,23.154,572.441,23.154,572.441l-65.118,11.37S197.143,972.845,163.164,964.05s-574.69,489.439-574.69,489.439l-103.8,6.969s737.251-688.009,792.56-816.951C379.4,405.335,468.057-14.367,468.057-14.367Z" fill="#a87c4f"/>
      <g>
        <path d="M-472.689,1457.6l61.163-4.107S-20.856,1093.511,117.2,990.928C111.54,977.5-472.689,1457.6-472.689,1457.6Z" fill="#825737"/>
        <path d="M689.152-22.485l-221.1,8.118s-.135.637-.4,1.874l160.332-5.886S407.237,455.773,282.835,830.031c-79.819,240.131,60.361,565.79,60.361,565.79S252.782,1016.18,320.042,823.38C447.372,458.391,689.152-22.485,689.152-22.485Z" fill="#825737"/>
      </g>
      <path d="M560.342,21.806s-73.991,185.867-177,466.442" fill="none" stroke="#8a5d3b" stroke-linecap="round" stroke-linejoin="round" stroke-width="12"/>
      <line x1="361.744" y1="531" x2="348.686" y2="563.488" fill="none" stroke="#8a5d3b" stroke-linecap="round" stroke-linejoin="round" stroke-width="12"/>
      <path d="M220.853,1033.553S193.625,932.7,169.876,926.912C141.511,920,20.421,1023.58,20.421,1023.58" fill="none" stroke="#8a5d3b" stroke-linecap="round" stroke-linejoin="round" stroke-width="12"/>
      <path d="M45.133,956.746c68.892-64.849,159.99-157.493,159.99-157.493" fill="none" stroke="#8a5d3b" stroke-linecap="round" stroke-linejoin="round" stroke-width="12"/>
      <polyline points="228.56 768.953 291.804 689.081 336.423 591.078" fill="none" stroke="#8a5d3b" stroke-linecap="round" stroke-linejoin="round" stroke-width="12"/>
      <path d="M286.875,745.31s-64.086,108.55-67.4,137.432c-1.6,13.952,5.2,61.95,5.2,61.95" fill="none" stroke="#8a5d3b" stroke-linecap="round" stroke-linejoin="round" stroke-width="12"/>
    </g>
    <path d="M772.779-25.191s-8.188,444.24-8.357,632.1-336.163,834.463-336.163,834.463L641,1452.054S759.889,971.624,972.835,943.9s457.874,480.632,457.874,480.632l224.178-10.886S1167.546,753.325,1124.131,593.09s61.085-618.281,61.085-618.281Z" fill="#a87c4f"/>
    <g>
      <path d="M1124.131,593.09c-43.414-160.235,61.085-618.281,61.085-618.281H1089.86s-66.183,365.29-9.036,630.493c39.622,183.867,488.242,808.344,488.242,808.344h85.821S1167.546,753.325,1124.131,593.09Z" fill="#825737"/>
      <path d="M562.013,1446.652l78.985,5.4s118.678-497.2,344.946-509.187C961.671,933.983,751.23,883.024,562.013,1446.652Z" fill="#825737"/>
    </g>
    <path d="M545.532,1373.977S734.883,873.355,956.543,896.838" fill="none" stroke="#8a5d3b" stroke-linecap="round" stroke-linejoin="round" stroke-width="12"/>
    <line x1="545.532" y1="1285.415" x2="598.659" y2="1175.868" fill="none" stroke="#8a5d3b" stroke-linecap="round" stroke-linejoin="round" stroke-width="12"/>
    <path d="M627.763,1112.326s140.847-251.4,159.4-386.774" fill="none" stroke="#8a5d3b" stroke-linecap="round" stroke-linejoin="round" stroke-width="12"/>
    <path d="M1023.677,896.037s99.443,14.9,170.279,118.214" fill="none" stroke="#8a5d3b" stroke-linecap="round" stroke-linejoin="round" stroke-width="12"/>
    <path d="M1193.956,961.761s160.2,182.336,276.534,402.486" fill="none" stroke="#8a5d3b" stroke-linecap="round" stroke-linejoin="round" stroke-width="12"/>
    <path d="M1163.758,925.846s-82.934-73.21-191.391-84.26" fill="none" stroke="#8a5d3b" stroke-linecap="round" stroke-linejoin="round" stroke-width="12"/>
    <path d="M1035.878,18.1s-84.078,378.7-40.647,541.7S1019.816,766.3,992.345,784.1c-25.6,16.586-88.545,24.193-123.509-47.5-29.507-60.5-32.693-188.783-9.99-264.295,24.161-80.358,78.407-86.458,79.434-41.574,2.319,101.431,25.645,187.178,39.536,243.249,15.62,63.06-30.492,109.4-62.664,51.569-19.98-35.915-24.52-107.64-24.52-107.64" fill="none" stroke="#8a5d3b" stroke-linecap="round" stroke-linejoin="round" stroke-width="12"/>
    <line x1="890.632" y1="575.447" x2="890.632" y2="551.504" fill="none" stroke="#8a5d3b" stroke-linecap="round" stroke-linejoin="round" stroke-width="12"/>
    <line x1="799.238" y1="650.885" x2="799.678" y2="584.939" fill="none" stroke="#8a5d3b" stroke-linecap="round" stroke-linejoin="round" stroke-width="12"/>
    <path d="M954.391,39.738s-38.8,185.771-44.015,282.464c0,0-86.77,9.67-110.7,158.854" fill="none" stroke="#8a5d3b" stroke-linecap="round" stroke-linejoin="round" stroke-width="12"/>
    <path d="M860.209,18.1s-25.883,170.827-23.158,242.3" fill="none" stroke="#8a5d3b" stroke-linecap="round" stroke-linejoin="round" stroke-width="12"/>
    <path d="M830.239,758.7s-23.974,100.036-56.26,152.237c0,0,65.8-72.119,144.806-69.357" fill="none" stroke="#8a5d3b" stroke-linecap="round" stroke-linejoin="round" stroke-width="12"/>
    <path d="M1068.063,747.654s27.812,47.612,64.593,87.169" fill="none" stroke="#8a5d3b" stroke-linecap="round" stroke-linejoin="round" stroke-width="12"/>
    <g>
      <path d="M1372.165-8.045s273.45,463.6,424.943,819.24c80.023,187.862,15.242,572.707,15.242,572.707l65.735,6.982s51.657-438.793,84.971-449.843,606.186,449.843,606.186,449.843H2673.27s-781.681-637.078-845.5-762.025C1709.877,398.065,1593.307-14.756,1593.307-14.756Z" fill="#a87c4f"/>
      <g>
        <path d="M1812.35,1383.9l65.735,6.982s34.706-294.81,65.571-407.218C1901.854,1083.912,1812.35,1383.9,1812.35,1383.9Z" fill="#825737"/>
        <path d="M1827.766,628.859C1709.877,398.065,1593.307-14.756,1593.307-14.756l-65.933,2.869c10.52,36.84,135.687,432.791,269.539,662.772,70.531,121.182,836.852,740,836.852,740h39.505S1891.589,753.806,1827.766,628.859Z" fill="#825737"/>
      </g>
      <path d="M1458.464,18.1s97.23,215.7,220.14,462.961" fill="none" stroke="#8a5d3b" stroke-linecap="round" stroke-linejoin="round" stroke-width="12"/>
      <line x1="1704.795" y1="536.309" x2="1729.315" y2="590.181" fill="none" stroke="#8a5d3b" stroke-linecap="round" stroke-linejoin="round" stroke-width="12"/>
      <path d="M1767.458,667.536s75.5,136.6,92.632,216.179c15.381,71.429,22.1,270.309-12.98,430.5" fill="none" stroke="#8a5d3b" stroke-linecap="round" stroke-linejoin="round" stroke-width="12"/>
      <path d="M1901.854,1014.251s15.987-116.493,39.3-123.86c27.837-8.8,168.316,100.484,168.316,100.484" fill="none" stroke="#8a5d3b" stroke-linecap="round" stroke-linejoin="round" stroke-width="12"/>
      <line x1="2139.803" y1="1014.251" x2="2177.946" y2="1044.181" fill="none" stroke="#8a5d3b" stroke-linecap="round" stroke-linejoin="round" stroke-width="12"/>
      <line x1="1919.347" y1="851.254" x2="1865.198" y2="779.424" fill="none" stroke="#8a5d3b" stroke-linecap="round" stroke-linejoin="round" stroke-width="12"/>
      <line x1="1845.786" y1="753.87" x2="1829.099" y2="733.15" fill="none" stroke="#8a5d3b" stroke-linecap="round" stroke-linejoin="round" stroke-width="12"/>
    </g>
  </g>
  <g>
    <path d="M821.018,1469.525s97.247-236.288,33.917-409.749H971.146s-67.17,231.892,34.94,409.749Z" fill="#a87c4f"/>
    <path d="M971.146,1059.776H950.229s-67.173,231.892,34.939,409.749h20.918C903.976,1291.668,971.146,1059.776,971.146,1059.776Z" fill="#825737"/>
    <path d="M947.532,1088.958s-25.493,15.473-59.484,11.725c-1.8,7.01-7.981,17.334-15.708,25.958,0,0-5.346-44.508-10.617-51.914Z" fill="#825737"/>
    <path d="M875.308,1469.525s19.714-162.2,14.694-264.63c-.878-17.926,2.288-19.144,5.02-19.395,3.106-.28,4.5,9.13,4.518,20.278.114,108.226-12.762,263.747-12.762,263.747Z" fill="#93673f"/>
    <g>
      <path d="M915.765,1120.7c.385,5.329-10.631,47.482-3.725,180.585.555,10.667,6.617,6.437,7.286-1.635s-5.4-116.646,5.154-174.758c1.328-7.3-.5-12.581-2.841-11.763S915.38,1115.373,915.765,1120.7Z" fill="#93673f"/>
      <path d="M921.577,1336.983c.361,5.124-.91,9.387-2.841,9.522s-3.788-3.906-4.148-9.029.911-9.387,2.841-9.524S921.214,1331.858,921.577,1336.983Z" fill="#93673f"/>
      <path d="M925.493,1361.54c.3,4.2-.733,7.7-2.3,7.81s-3.071-3.207-3.368-7.407.733-7.695,2.3-7.811S925.2,1357.34,925.493,1361.54Z" fill="#93673f"/>
    </g>
  </g>
  <g>
    <path d="M-12.413,1427.87S51.966,1156.6,24.132,1044.685c-9.6-38.614-82.672-21.337-112.043-57.315-28.527-34.938-12.428-133.037-12.428-133.037l27.279.592s-4.5,89.033,10.335,99.086c28.211,19.123,78.443,16.029,91.271,14.226,10.127-56.928,8.992-132.2,8.992-132.2l70.136,10.794s-4.858,136.072,33.509,163.051c23.657,16.636,85.782,22.244,108.562,10.221,9.9-10.167,13.067-41.707,11.69-95.032,28.773-.9,27.874,3.691,27.874,3.691s2.3,97.312-17.084,116.823c-21.339,21.473-60.011,19.3-108.2,19.3-78.009,0-11.988,362.983-11.988,362.983Z" fill="#a87c4f"/>
    <g>
      <path d="M82.3,842.648c-.05,35.276-2.277,95.013,52.628,162.484-30.852-36.2-28.154-158.3-28.154-158.3Z" fill="#825737"/>
      <path d="M288.411,928.761s-3-2.395-13.038-2.341c4.021,27.756,2.624,92.911-12.141,107.77-21.337,21.48-96.813,7.195-116.893,16.34-54.218,24.687-41.037,302.841-31.52,377.34h36.314s-62.792-362.054,12.888-362.983c48.19-.591,86.865,2.17,108.2-19.3C291.607,1026.073,288.411,928.761,288.411,928.761Z" fill="#825737"/>
    </g>
    <path d="M45.481,1427.87s20.336-167.346,15.161-273.019c-.906-18.5,2.358-19.751,5.175-20.01,3.211-.289,4.649,9.42,4.661,20.921.121,111.657-13.165,272.108-13.165,272.108Z" fill="#93673f"/>
    <path d="M-102.726,946.612s15.578,30.622,28.166,38.714c15.61,10.039,95.575,26.214,103.106,39.273,6.4,11.089,5.553,66.834,5.553,66.834s-7.667-48.079-20.54-60.84c-16.935-16.789-69.985-16.039-91.266-32.828C-100.047,980.145-102.726,946.612-102.726,946.612Z" fill="#825737"/>
    <path d="M98.684,1064.339c.007,5.51-14.389,48.093-16.937,185.578-.2,11.016,6.344,7.106,7.617-1.158s2.9-120.44,17.983-179.475c1.9-7.418.4-12.984-2.069-12.31S98.671,1058.831,98.684,1064.339Z" fill="#93673f"/>
    <path d="M68.559,1093.848c0,6.952-2.369,12.587-5.289,12.587s-5.29-5.635-5.29-12.587,2.37-12.592,5.29-12.592S68.559,1086.9,68.559,1093.848Z" fill="#93673f"/>
    <path d="M-78.757,950.854s4.2,12.59,14.686,17.383,67.137,15.59,69.239,16.49,5.4,6-2.7,6-62.607-12.477-71.6-18.211c-6.778-4.318-16.511-16.478-18.021-21.657C-89.585,942.5-78.757,950.854-78.757,950.854Z" fill="#93673f"/>
    <path d="M59.778,864.818s-7.915,71.7-6.955,94.427c.9,21.288,11,10.795,9.546,0s5.29-87.682,5.29-87.682Z" fill="#93673f"/>
    <ellipse cx="80.024" cy="985.224" rx="5.171" ry="16.292" fill="#93673f"/>
  </g>
  <g>
    <path d="M429.31,837.892c20.918-73.078-37.864-164.133-117.568-156.216,51.03-65.99-42.879-204.365-160.75-166.911A94.059,94.059,0,0,0,71.385,470.87c-36.7,0-113.638,15.765-138.291,100.1C-173.438,561.913-212.147,650.82-202.75,682.8a76.563,76.563,0,0,0-13.133-1.151,76.075,76.075,0,0,0-76.07,76.084c0,2.427.125,4.827.349,7.2a81.154,81.154,0,0,0-61.048,78.621,81.126,81.126,0,0,0,81.115,81.131,80.808,80.808,0,0,0,55.426-21.918c66.688,28.382,141.958,3.756,194.431-48.474a115.794,115.794,0,0,0,42.512,8.029q4.6,0,9.114-.356a85.795,85.795,0,0,0,120.8,46.259,108.995,108.995,0,0,0,110.407,54.842,82.7,82.7,0,0,0,122,14.5A74.031,74.031,0,1,0,429.31,837.892Z" fill="#8baa1d"/>
    <g>
      <path d="M431.145,782.445c-9.366-47.57-53.59-108.357-119.4-100.769C371.443,703.786,408.508,747.174,431.145,782.445Z" fill="#e3f991"/>
      <path d="M-47.31,607.558C-25.73,523.919,33,515.836,71.568,515.836c35.213,0,66.124,17.518,83.651,43.893,76.392-23.1,143.2,20.688,170.615,73.121-3.545-67.509-81.711-147.677-174.842-118.085A94.059,94.059,0,0,0,71.385,470.87c-36.7,0-113.638,15.765-138.291,100.1-97.989-8.332-138.595,66.215-137.161,103.118C-184.247,641.673-128.292,591.37-47.31,607.558Z" fill="#b5d13f"/>
    </g>
    <path d="M414.207,930.442a73.7,73.7,0,0,1-31.054-6.832,82.7,82.7,0,0,1-122-14.5,110.193,110.193,0,0,1-15.224,1.062,108.919,108.919,0,0,1-95.183-55.907,85.8,85.8,0,0,1-120.8-46.26q-4.511.35-9.114.354a115.854,115.854,0,0,1-42.512-8.027c-52.473,52.232-127.743,76.86-194.431,48.472a80.8,80.8,0,0,1-55.426,21.92,81.141,81.141,0,0,1-76.516-54.159,80.972,80.972,0,0,0-4.6,26.988,81.126,81.126,0,0,0,81.115,81.131,80.808,80.808,0,0,0,55.426-21.918c66.688,28.382,141.958,3.756,194.431-48.474a115.794,115.794,0,0,0,42.512,8.029q4.6,0,9.114-.356a85.795,85.795,0,0,0,120.8,46.259,108.995,108.995,0,0,0,110.407,54.842,82.7,82.7,0,0,0,122,14.5,74.031,74.031,0,0,0,99.979-94.186A74.027,74.027,0,0,1,414.207,930.442Z" fill="#71890e"/>
    <g>
      <path d="M.511,585.953s-9.928-15.865-.218-21.238C11.1,558.732,17.37,574.19,17.37,574.19s.761-27.048,16.912-23.8c18.2,3.654,1.55,32.726,1.55,32.726s1.262-18.005-4.393-18.38S19.454,586.7,19.454,586.7,9.394,570.5,5.573,572.413.511,585.953.511,585.953Z" fill="#71890e"/>
      <path d="M202.36,755.829s-2.761-18.508,8.286-19.555c12.3-1.168,11.869,15.509,11.869,15.509s11.5-24.486,25.013-15.063c15.227,10.621-11.652,30.62-11.652,30.62s8.349-16.006,3.313-18.6-19.761,15.35-19.761,15.35-2.753-18.866-7.015-18.645S202.36,755.829,202.36,755.829Z" fill="#71890e"/>
      <path d="M379.848,868.4s1.765-18.637,12.739-17c12.222,1.828,7.8,17.911,7.8,17.911s17.047-21,27.9-8.609c12.229,13.971-18.667,26.92-18.667,26.92s11.948-13.526,7.686-17.261-22.868,10.152-22.868,10.152,1.858-18.977-2.333-19.789S379.848,868.4,379.848,868.4Z" fill="#71890e"/>
      <path d="M306.3,742.5s1.768-18.638,12.74-17c12.221,1.826,7.8,17.911,7.8,17.911s17.045-21.009,27.9-8.609c12.228,13.966-18.666,26.918-18.666,26.918s11.948-13.528,7.686-17.26-22.869,10.153-22.869,10.153,1.857-18.979-2.332-19.791S306.3,742.5,306.3,742.5Z" fill="#71890e"/>
    </g>
  </g>
  <g>
    <path d="M1516.624,1343.774s66.471-280.082,37.732-395.631c-9.917-39.868-85.357-22.03-115.682-59.176-29.454-36.074-12.831-137.358-12.831-137.358l28.166.611s-4.647,91.925,10.67,102.3c29.127,19.744,80.991,16.549,94.234,14.688,10.457-58.777,9.284-136.495,9.284-136.495l72.415,11.145s-5.018,140.492,34.6,168.346c24.424,17.177,88.568,22.967,112.089,10.553,10.225-10.5,13.49-43.061,12.07-98.117,29.707-.926,28.779,3.81,28.779,3.81s2.372,100.472-17.641,120.617c-22.03,22.171-61.958,19.93-111.716,19.93-80.544,0-12.379,374.773-12.379,374.773Z" fill="#a87c4f"/>
    <g>
      <path d="M1614.415,739.544c-.053,36.422-2.352,98.1,54.338,167.761-31.855-37.376-29.071-163.443-29.071-163.443Z" fill="#825737"/>
      <path d="M1827.219,828.454s-3.1-2.473-13.462-2.417c4.151,28.658,2.71,95.928-12.535,111.27-22.029,22.178-99.958,7.429-120.69,16.871-55.977,25.489-42.368,312.677-32.545,389.6h37.5S1620.65,969.961,1698.79,969c49.755-.609,89.686,2.241,111.716-19.93C1830.519,928.926,1827.219,828.454,1827.219,828.454Z" fill="#825737"/>
    </g>
    <path d="M1576.4,1343.774s21-172.782,15.653-281.886c-.937-19.1,2.434-20.393,5.344-20.66,3.315-.3,4.8,9.725,4.812,21.6.125,115.283-13.592,280.946-13.592,280.946Z" fill="#93673f"/>
    <path d="M1423.377,846.885s16.084,31.617,29.082,39.971c16.118,10.365,98.68,27.066,106.454,40.548,6.6,11.45,5.735,69.005,5.735,69.005s-7.917-49.64-21.208-62.815c-17.485-17.335-72.259-16.56-94.229-33.9C1426.144,881.507,1423.377,846.885,1423.377,846.885Z" fill="#825737"/>
    <path d="M1631.329,968.436c.009,5.688-14.855,49.654-17.487,191.6-.208,11.374,6.551,7.337,7.866-1.195s2.994-124.352,18.566-185.3c1.96-7.659.415-13.406-2.135-12.71S1631.317,962.749,1631.329,968.436Z" fill="#93673f"/>
    <path d="M1600.226,998.9c0,7.177-2.447,13-5.46,13s-5.462-5.819-5.462-13,2.447-13,5.462-13S1600.226,991.724,1600.226,998.9Z" fill="#93673f"/>
    <path d="M1448.125,851.264s4.334,13,15.162,17.948,69.318,16.1,71.49,17.026,5.57,6.189-2.787,6.189-64.64-12.881-73.922-18.8c-7-4.458-17.046-17.013-18.607-22.361C1436.946,842.634,1448.125,851.264,1448.125,851.264Z" fill="#93673f"/>
    <path d="M1591.161,762.434s-8.172,74.026-7.181,97.494c.928,21.98,11.357,11.145,9.856,0S1599.3,769.4,1599.3,769.4Z" fill="#93673f"/>
    <path d="M1617.4,886.751c0,9.291-2.39,16.822-5.339,16.822s-5.339-7.531-5.339-16.822,2.39-16.822,5.339-16.822S1617.4,877.458,1617.4,886.751Z" fill="#93673f"/>
  </g>
  <g>
    <path d="M2014.808,757.421c21.6-75.451-39.1-169.464-121.389-161.29,52.69-68.134-44.27-211-165.97-172.332a97.114,97.114,0,0,0-82.192-45.321c-37.9,0-117.33,16.277-142.784,103.351-109.99-9.351-149.957,82.444-140.256,115.463a78.5,78.5,0,0,0-92.1,77.367c0,2.506.13,4.984.362,7.437a83.766,83.766,0,1,0,77.943,142.311c68.856,29.3,146.568,3.878,200.748-50.048a119.566,119.566,0,0,0,43.893,8.289q4.749,0,9.409-.367a88.584,88.584,0,0,0,124.719,47.762,112.53,112.53,0,0,0,113.992,56.622,85.389,85.389,0,0,0,125.969,14.973,76.435,76.435,0,1,0,47.656-144.217Z" fill="#8baa1d"/>
    <g>
      <path d="M2016.7,700.173c-9.67-49.115-55.332-111.877-123.283-104.042C1955.061,618.959,1993.329,663.756,2016.7,700.173Z" fill="#e3f991"/>
      <path d="M1362.217,597.292c-2.513-.246-10.976-1.188-13.56-1.188-42.142,0-79.4,31.21-78.445,84.836C1291.073,628.479,1317.3,608.515,1362.217,597.292Z" fill="#b5d13f"/>
      <path d="M1522.708,519.606c22.28-86.356,82.916-94.7,122.738-94.7,36.357,0,68.271,18.087,86.368,45.32,78.873-23.85,147.855,21.359,176.156,75.5-3.659-69.7-84.364-152.474-180.521-121.92a97.114,97.114,0,0,0-82.192-45.321c-37.9,0-117.33,16.277-142.784,103.351-101.172-8.6-143.1,68.366-141.614,106.467C1381.324,554.829,1439.1,502.891,1522.708,519.606Z" fill="#b5d13f"/>
    </g>
    <path d="M1999.213,852.976a76.066,76.066,0,0,1-32.061-7.054,85.391,85.391,0,0,1-125.969-14.965,113.7,113.7,0,0,1-15.718,1.1,112.455,112.455,0,0,1-98.274-57.723,88.587,88.587,0,0,1-124.719-47.762q-4.656.361-9.409.366a119.627,119.627,0,0,1-43.893-8.288c-54.18,53.929-131.892,79.356-200.748,50.047A83.73,83.73,0,0,1,1212.2,735.406a83.748,83.748,0,0,0,136.226,89c68.856,29.3,146.568,3.878,200.748-50.048a119.566,119.566,0,0,0,43.893,8.289q4.749,0,9.409-.367a88.584,88.584,0,0,0,124.719,47.762,112.53,112.53,0,0,0,113.992,56.622,85.389,85.389,0,0,0,125.969,14.973,76.433,76.433,0,0,0,103.224-97.244A76.429,76.429,0,0,1,1999.213,852.976Z" fill="#71890e"/>
    <g>
      <path d="M1314.867,689.087s-13.274-14.045-4.538-21.457c9.732-8.255,19.215,6.124,19.215,6.124s-4.725-27.533,12.288-27.533c19.166,0,8.214,32.812,8.214,32.812s-2.383-18.48-8.183-17.705S1334.194,686,1334.194,686s-13.475-14.351-16.955-11.646S1314.867,689.087,1314.867,689.087Z" fill="#71890e"/>
      <path d="M1410.014,704.341s-17.742-7.659-12.646-17.92c5.68-11.43,20.066-1.968,20.066-1.968s-15.212-23.426.411-30.144c17.606-7.578,20.51,26.895,20.51,26.895s-9.491-16.04-14.51-13.038,2.7,25.7,2.7,25.7-18.049-7.861-20.177-4S1410.014,704.341,1410.014,704.341Z" fill="#71890e"/>
      <path d="M1572.081,497.3s-10.251-16.38-.226-21.928c11.162-6.177,17.633,9.783,17.633,9.783s.784-27.926,17.461-24.577c18.794,3.773,1.6,33.789,1.6,33.789s1.3-18.589-4.533-18.976-12.376,22.683-12.376,22.683-10.386-16.725-14.333-14.753S1572.081,497.3,1572.081,497.3Z" fill="#71890e"/>
      <path d="M1780.487,672.693s-2.851-19.11,8.555-20.191c12.7-1.2,12.254,16.013,12.254,16.013s11.871-25.281,25.824-15.552c15.722,10.965-12.031,31.615-12.031,31.615s8.622-16.527,3.422-19.208-20.4,15.848-20.4,15.848-2.842-19.479-7.242-19.251S1780.487,672.693,1780.487,672.693Z" fill="#71890e"/>
      <path d="M1963.739,788.918s1.82-19.241,13.152-17.551c12.618,1.888,8.049,18.493,8.049,18.493s17.6-21.687,28.8-8.889c12.627,14.425-19.273,27.795-19.273,27.795s12.336-13.966,7.936-17.821-23.612,10.481-23.612,10.481,1.919-19.593-2.408-20.432S1963.739,788.918,1963.739,788.918Z" fill="#71890e"/>
      <path d="M1887.8,658.931s1.828-19.244,13.156-17.55c12.618,1.886,8.051,18.493,8.051,18.493s17.6-21.691,28.8-8.888c12.625,14.419-19.271,27.792-19.271,27.792s12.337-13.967,7.936-17.821-23.612,10.483-23.612,10.483,1.916-19.6-2.407-20.433S1887.8,658.931,1887.8,658.931Z" fill="#71890e"/>
    </g>
  </g>
  <g>
    <path d="M2589.9,1460.827s54.089-227.91,30.7-321.935c-8.069-32.442-69.457-17.927-94.134-48.153-23.967-29.354-10.44-111.772-10.44-111.772l22.919.5s-3.781,74.8,8.683,83.247c23.7,16.066,65.9,13.466,76.68,11.952,8.509-47.829,7.555-111.07,7.555-111.07l58.925,9.069s-4.082,114.322,28.153,136.988c19.875,13.977,72.07,18.689,91.21,8.587,8.32-8.542,10.977-35.04,9.821-79.841,24.173-.753,23.418,3.1,23.418,3.1s1.931,81.758-14.354,98.15c-17.927,18.041-50.417,16.218-90.907,16.218-65.54,0-10.073,304.962-10.073,304.962Z" fill="#a87c4f"/>
    <path d="M2514.018,1056.5s13.088,25.727,23.664,32.525c13.116,8.435,80.3,22.024,86.625,33,5.374,9.317,4.666,56.151,4.666,56.151s-6.442-40.393-17.257-51.114c-14.227-14.106-58.8-13.475-76.676-27.581C2516.269,1084.668,2514.018,1056.5,2514.018,1056.5Z" fill="#825737"/>
    <path d="M2534.156,1060.059s3.526,10.578,12.338,14.605,56.406,13.1,58.173,13.854,4.532,5.036-2.268,5.036-52.6-10.482-60.152-15.3c-5.694-3.628-13.871-13.844-15.141-18.2C2525.059,1053.036,2534.156,1060.059,2534.156,1060.059Z" fill="#93673f"/>
  </g>
  <g>
    <path d="M3024.339,997.947c17.574-61.4-31.812-137.9-98.777-131.246,42.875-55.442-36.024-171.7-135.054-140.231a79.026,79.026,0,0,0-66.882-36.878c-30.837,0-95.474,13.244-116.187,84.1-89.5-7.609-122.023,67.087-114.129,93.955a63.878,63.878,0,0,0-74.945,62.955c0,2.04.106,4.056.3,6.052a68.163,68.163,0,1,0,63.424,115.8c56.029,23.846,119.266,3.156,163.354-40.726a97.274,97.274,0,0,0,35.716,6.746q3.866,0,7.657-.3a72.081,72.081,0,0,0,101.487,38.865,91.565,91.565,0,0,0,92.758,46.075,69.484,69.484,0,0,0,102.5,12.184,62.2,62.2,0,1,0,38.779-117.353Z" fill="#8baa1d"/>
    <g>
      <path d="M2493.31,867.646c-2.045-.2-8.932-.966-11.034-.966-34.292,0-64.612,25.4-63.834,69.032C2435.418,893.023,2456.761,876.778,2493.31,867.646Z" fill="#b5d13f"/>
      <path d="M2623.905,804.431c18.13-70.27,67.471-77.061,99.875-77.061,29.585,0,55.554,14.718,70.28,36.877,64.181-19.407,120.313,17.381,143.342,61.433-2.977-56.718-68.649-124.072-146.894-99.21a79.026,79.026,0,0,0-66.882-36.878c-30.837,0-95.474,13.244-116.187,84.1-82.326-7-116.44,55.631-115.235,86.635C2508.857,833.093,2555.867,790.83,2623.905,804.431Z" fill="#b5d13f"/>
    </g>
    <path d="M3011.649,1075.7a61.908,61.908,0,0,1-26.089-5.74,69.484,69.484,0,0,1-102.5-12.178,92.594,92.594,0,0,1-12.79.892,91.506,91.506,0,0,1-79.968-46.97,72.085,72.085,0,0,1-101.487-38.866q-3.789.294-7.657.3a97.334,97.334,0,0,1-35.716-6.744c-44.088,43.883-107.325,64.574-163.354,40.724a68.132,68.132,0,0,1-110.85-27.086,68.147,68.147,0,0,0,110.85,72.422c56.029,23.846,119.266,3.156,163.354-40.726a97.274,97.274,0,0,0,35.716,6.746q3.866,0,7.657-.3a72.081,72.081,0,0,0,101.487,38.865,91.565,91.565,0,0,0,92.758,46.075,69.484,69.484,0,0,0,102.5,12.184,62.2,62.2,0,0,0,84-79.13A62.192,62.192,0,0,1,3011.649,1075.7Z" fill="#71890e"/>
    <g>
      <path d="M2454.779,942.342s-10.8-11.429-3.692-17.461c7.919-6.716,15.636,4.984,15.636,4.984s-3.846-22.4,10-22.4c15.6,0,6.684,26.7,6.684,26.7s-1.939-15.038-6.658-14.408-6.241,20.074-6.241,20.074-10.965-11.678-13.8-9.477S2454.779,942.342,2454.779,942.342Z" fill="#71890e"/>
      <path d="M2532.2,954.755s-14.437-6.232-10.29-14.582c4.622-9.3,16.328-1.6,16.328-1.6s-12.378-19.062.334-24.529c14.326-6.166,16.69,21.885,16.69,21.885s-7.723-13.052-11.807-10.609,2.2,20.911,2.2,20.911-14.686-6.4-16.418-3.255S2532.2,954.755,2532.2,954.755Z" fill="#71890e"/>
    </g>
  </g>
  <g>
    <path d="M1867.834,1471.467s82.685-200.9,28.839-348.382h98.806s-57.111,197.162,29.707,348.382Z" fill="#a87c4f"/>
    <path d="M1995.479,1123.085H1977.7s-57.113,197.162,29.706,348.382h17.785C1938.368,1320.247,1995.479,1123.085,1995.479,1123.085Z" fill="#825737"/>
    <path d="M1975.4,1147.9a87.334,87.334,0,0,1-50.577,9.969c-1.528,5.961-6.786,14.739-13.355,22.071,0,0-4.546-37.843-9.026-44.139Z" fill="#825737"/>
    <path d="M1914,1471.467s16.761-137.911,12.492-225c-.746-15.242,1.946-16.277,4.269-16.49,2.641-.238,3.829,7.763,3.842,17.241.1,92.017-10.852,224.246-10.852,224.246Z" fill="#93673f"/>
    <g>
      <path d="M1948.392,1174.88c.328,4.531-9.039,40.372-3.167,153.539.472,9.07,5.627,5.474,6.2-1.39s-4.6-99.176,4.383-148.584c1.129-6.209-.423-10.7-2.416-10S1948.065,1170.355,1948.392,1174.88Z" fill="#93673f"/>
      <path d="M1953.334,1358.775c.307,4.357-.773,7.982-2.414,8.1s-3.222-3.322-3.528-7.677.774-7.982,2.415-8.1S1953.027,1354.418,1953.334,1358.775Z" fill="#93673f"/>
      <path d="M1956.662,1379.654c.253,3.573-.622,6.547-1.954,6.641s-2.611-2.727-2.864-6.3.624-6.542,1.954-6.641S1956.411,1376.083,1956.662,1379.654Z" fill="#93673f"/>
    </g>
  </g>
  <g>
    <path d="M2147.861,922.976c37.882-77.453-57.706-128.223-110.546-97.467-43.857-84.485-155.289-60.647-170.329,17.788-36.832-17.659-79.318,13.47-75.967,55.14a77.317,77.317,0,0,0-7.63,142.109,86.175,86.175,0,0,0,137.988,100.227,86.392,86.392,0,0,0,62.554,10.7,77.3,77.3,0,0,0,131.523-77.388,77.3,77.3,0,0,0,32.407-151.108Z" fill="#8baa1d"/>
    <path d="M1809.653,925.447c-3.352-41.672,33.811-66.082,70.643-48.423,15.04-78.436,113.162-92.754,157.019-8.269,43.551-27.307,113.949,25.317,80.6,81.641,29.642-4.446,49.463-1.112,78.234,7.894a77.411,77.411,0,0,0-48.291-35.8c37.882-77.458-57.706-128.227-110.546-97.464-43.857-84.488-155.289-60.649-170.329,17.785-36.832-17.66-79.318,13.465-75.967,55.136a77.394,77.394,0,0,0-47.79,94.558C1750.17,968.911,1768.649,922.481,1809.653,925.447Z" fill="#b5d13f"/>
    <path d="M2200.809,968.4c-11.729,27.742-39.416,85.017-111.049,68.715,7.409,39.525-20.009,107.466-105.829,69.4a86.371,86.371,0,0,1-62.554-10.7,85.889,85.889,0,0,1-61.673,26c-37.167,0-79.2-30.852-80.929-71.339a86.171,86.171,0,0,0,142.6,89.8,86.387,86.387,0,0,0,62.554,10.7,77.3,77.3,0,0,0,131.523-77.391,77.3,77.3,0,0,0,85.529-105.623C2200.926,968.114,2200.871,968.256,2200.809,968.4Z" fill="#71890e"/>
    <g>
      <path d="M2056.906,924.8s-2.277-15.258,6.826-16.12c10.141-.962,9.784,12.781,9.784,12.781s9.477-20.179,20.612-12.41c12.55,8.754-9.6,25.234-9.6,25.234s6.879-13.191,2.731-15.333-16.285,12.651-16.285,12.651-2.271-15.553-5.784-15.365S2056.906,924.8,2056.906,924.8Z" fill="#71890e"/>
      <path d="M2098.229,979.914s-2.274-15.258,6.829-16.123c10.138-.958,9.782,12.781,9.782,12.781s9.477-20.179,20.612-12.411c12.55,8.755-9.6,25.235-9.6,25.235s6.879-13.188,2.731-15.333-16.285,12.652-16.285,12.652-2.269-15.551-5.782-15.366S2098.229,979.914,2098.229,979.914Z" fill="#71890e"/>
      <path d="M1895.813,1081.527s2.275-15.257-6.826-16.12c-10.14-.96-9.784,12.78-9.784,12.78s-9.478-20.178-20.615-12.409c-12.546,8.75,9.6,25.232,9.6,25.232s-6.879-13.19-2.731-15.328,16.286,12.647,16.286,12.647,2.269-15.549,5.784-15.367S1895.813,1081.527,1895.813,1081.527Z" fill="#71890e"/>
      <path d="M1854.489,1038.024s2.275-15.258-6.828-16.122c-10.139-.956-9.781,12.782-9.781,12.782s-9.478-20.18-20.614-12.409c-12.549,8.751,9.6,25.23,9.6,25.23s-6.88-13.186-2.731-15.329,16.286,12.651,16.286,12.651,2.269-15.551,5.782-15.37S1854.489,1038.024,1854.489,1038.024Z" fill="#71890e"/>
      <path d="M1904.483,916.514s2.274-15.254-6.828-16.118c-10.141-.961-9.781,12.78-9.781,12.78s-9.479-20.18-20.613-12.411c-12.55,8.752,9.6,25.237,9.6,25.237s-6.879-13.195-2.731-15.334,16.286,12.649,16.286,12.649,2.268-15.549,5.783-15.366S1904.483,916.514,1904.483,916.514Z" fill="#71890e"/>
    </g>
  </g>
  <g>
    <path d="M1115.866,839.856c41.108-84.05-62.621-139.144-119.961-105.769-47.592-91.68-168.516-65.813-184.836,19.3C771.1,734.227,725,768.008,728.632,813.227a83.9,83.9,0,0,0-8.281,154.212A93.515,93.515,0,0,0,870.093,1076.2a93.747,93.747,0,0,0,67.881,11.609,83.881,83.881,0,0,0,142.725-83.978,83.971,83.971,0,0,0,92.625-49.819,83.945,83.945,0,0,0-57.458-114.159Z" fill="#8baa1d"/>
    <path d="M748.853,842.536c-3.638-45.22,36.69-71.709,76.659-52.547,16.321-85.115,122.8-100.654,170.393-8.973,47.261-29.632,123.654,27.474,87.467,88.6,32.167-4.825,53.677-1.207,84.9,8.566a84,84,0,0,0-52.4-38.846c41.108-84.056-62.621-139.149-119.961-105.766-47.592-91.684-168.516-65.814-184.836,19.3C771.1,733.7,725,767.476,728.632,812.7a83.989,83.989,0,0,0-51.861,102.612C684.3,889.7,704.356,839.318,748.853,842.536Z" fill="#b5d13f"/>
    <path d="M1173.324,889.145c-12.729,30.105-42.773,92.258-120.508,74.567,8.04,42.892-21.712,116.619-114.842,75.315a93.717,93.717,0,0,1-67.881-11.612,93.209,93.209,0,0,1-66.926,28.219c-40.333,0-85.945-33.479-87.822-77.415a93.511,93.511,0,0,0,154.748,97.453,93.755,93.755,0,0,0,67.881,11.611A83.882,83.882,0,0,0,1080.7,1003.3a83.89,83.89,0,0,0,92.814-114.62C1173.45,888.838,1173.391,888.992,1173.324,889.145Z" fill="#71890e"/>
    <g>
      <path d="M1017.164,841.836s-2.471-16.558,7.408-17.493c11-1.044,10.617,13.869,10.617,13.869s10.284-21.9,22.367-13.467c13.619,9.5-10.419,27.384-10.419,27.384s7.465-14.314,2.964-16.639-17.673,13.729-17.673,13.729-2.464-16.878-6.276-16.674S1017.164,841.836,1017.164,841.836Z" fill="#71890e"/>
      <path d="M1062.007,901.643s-2.467-16.557,7.41-17.5c11-1.04,10.616,13.87,10.616,13.87s10.283-21.9,22.367-13.469c13.619,9.5-10.42,27.385-10.42,27.385s7.465-14.312,2.964-16.639-17.673,13.73-17.673,13.73-2.461-16.877-6.274-16.676S1062.007,901.643,1062.007,901.643Z" fill="#71890e"/>
      <path d="M842.351,1011.911s2.469-16.557-7.407-17.493c-11-1.043-10.617,13.868-10.617,13.868s-10.286-21.9-22.372-13.466c-13.614,9.5,10.423,27.38,10.423,27.38s-7.465-14.313-2.964-16.632,17.672,13.724,17.672,13.724,2.463-16.874,6.278-16.676S842.351,1011.911,842.351,1011.911Z" fill="#71890e"/>
      <path d="M797.507,964.7s2.469-16.557-7.409-17.5c-11-1.038-10.615,13.871-10.615,13.871s-10.285-21.9-22.369-13.466c-13.618,9.5,10.42,27.378,10.42,27.378s-7.466-14.308-2.963-16.634,17.672,13.728,17.672,13.728,2.463-16.875,6.274-16.678S797.507,964.7,797.507,964.7Z" fill="#71890e"/>
      <path d="M851.759,832.843s2.468-16.554-7.41-17.491c-11-1.043-10.614,13.868-10.614,13.868s-10.285-21.9-22.368-13.468c-13.619,9.5,10.419,27.387,10.419,27.387s-7.465-14.319-2.964-16.64S836.5,840.226,836.5,840.226s2.461-16.874,6.276-16.676S851.759,832.843,851.759,832.843Z" fill="#71890e"/>
    </g>
  </g>
  <rect x="-1769.176" y="1358.919" width="6374.251" height="48.707" fill="#475e3b"/>
  <rect x="-1769.176" y="1372.126" width="6374.251" height="298.001" fill="#57744b"/>
  <g>
    <ellipse cx="1129.133" cy="1563.06" rx="426.345" ry="66.35" fill="#475e3b"/>
    <g>
      <path d="M1840.809,1499.509c0,19.865-103.469,35.966-231.1,35.966s-231.1-16.1-231.1-35.966,103.469-35.964,231.1-35.964S1840.809,1479.647,1840.809,1499.509Z" fill="#475e3b"/>
      <path d="M2441.263,1535.474c0,19.865-103.468,35.966-231.1,35.966s-231.1-16.1-231.1-35.966,103.47-35.965,231.1-35.965S2441.263,1515.612,2441.263,1535.474Z" fill="#475e3b"/>
      <path d="M2728.373,1607.318c0,12.89-67.145,23.339-149.971,23.339s-149.972-10.449-149.972-23.339,67.144-23.339,149.972-23.339S2728.373,1594.428,2728.373,1607.318Z" fill="#475e3b"/>
      <ellipse cx="-45.632" cy="1450.771" rx="228.794" ry="35.606" fill="#475e3b"/>
      <path d="M448.773,1546.761c0,14.6-76.061,26.438-169.888,26.438S109,1561.362,109,1546.761s76.06-26.439,169.887-26.439S448.773,1532.159,448.773,1546.761Z" fill="#475e3b"/>
      <g>
        <path d="M283.378,1439.517c0-6.489-6.721-11.74-15.014-11.74H234.992c-8.287,0-15.013,5.251-15.013,11.74h0c0,6.484,6.726,11.742,15.013,11.742h33.372c8.293,0,15.014-5.258,15.014-11.742Z" fill="#475e3b"/>
        <path d="M357.173,1465.28c0-4.053-4.194-7.328-9.371-7.328H326.974c-5.173,0-9.372,3.275-9.372,7.328h0c0,4.046,4.2,7.328,9.372,7.328H347.8c5.177,0,9.371-3.282,9.371-7.328Z" fill="#475e3b"/>
        <path d="M423.749,1429.457c0-4.935-5.107-8.924-11.414-8.924H386.97c-6.3,0-11.414,3.989-11.414,8.924h0c0,4.926,5.112,8.927,11.414,8.927h25.365c6.307,0,11.414-4,11.414-8.927Z" fill="#475e3b"/>
      </g>
    </g>
  </g>
  <g>
    <path d="M1049.927,1438.948c1.948-2.038,4.858-1.151,7.333-3.2s14.84-.65,19.343.371,30.65-1.057,33.156,1.665c1.667,1.813-12.782,5.558-19.264,5.558-3.384,0-7.595,1.3-12.411,1.058-6.455-.322-8.265-.219-13.892-1.244S1047.982,1440.982,1049.927,1438.948Z" fill="#3d5131"/>
    <path d="M1076.083,1438.948c-11.114,0-24.049-7.622-12.379-15.957s13.205-6.852,23.21-4.075,13.557,4.031,14.208,9.075C1102.263,1436.84,1087.2,1438.948,1076.083,1438.948Z" fill="#dbe3ec"/>
    <path d="M1100.823,1426.575c-2.292,6.315-15.026,7.926-24.74,7.926-6.867,0-14.418-2.91-16.446-7.1-1.605,3.471-2.964,6.748-2.115,10.427,2.264,1.924,11.84,3.01,20.379,3.01,13.359,0,20.288-.692,23.478-2.73,1.367-3.611.277-5.982-.257-10.12A9.106,9.106,0,0,0,1100.823,1426.575Z" fill="#9898b7"/>
    <path d="M1075.433,1428.626c-.271-.059,10.1-.765,12.874-2.051s8.891-.82,6.022.569S1078.489,1429.273,1075.433,1428.626Z" fill="#c5d9e3"/>
    <path d="M1073.767,1425.293s-7.5.922-7.41-.835,1.759-.371,5.651-.554S1076.623,1425.07,1073.767,1425.293Z" fill="#c5d9e3"/>
    <path d="M1106.611,1446.179c1.242-1.3,3.1-.736,4.676-2.041s9.46-.416,12.332.237,19.54-.673,21.138,1.063c1.062,1.153-8.149,3.543-12.282,3.543-2.157,0-4.842.827-7.912.672a53.366,53.366,0,0,1-8.858-.792C1112.119,1448.21,1105.373,1447.476,1106.611,1446.179Z" fill="#3d5131"/>
    <path d="M1123.288,1446.179c-7.085,0-15.332-4.86-7.892-10.177s8.418-4.368,14.8-2.6,8.643,2.57,9.058,5.787C1139.978,1444.834,1130.373,1446.179,1123.288,1446.179Z" fill="#dbe3ec"/>
    <path d="M1139.061,1438.288c-1.462,4.028-9.581,5.055-15.773,5.055-4.378,0-9.192-1.854-10.485-4.525-1.024,2.213-1.891,4.3-1.349,6.648,1.443,1.226,7.547,1.919,12.992,1.919,8.517,0,12.935-.442,14.968-1.742.872-2.3.177-3.813-.164-6.45A5.966,5.966,0,0,0,1139.061,1438.288Z" fill="#9898b7"/>
    <path d="M1122.873,1439.6c-.172-.037,6.436-.488,8.208-1.308s5.668-.522,3.838.365S1124.82,1440.009,1122.873,1439.6Z" fill="#c5d9e3"/>
    <path d="M1121.811,1437.472s-4.784.589-4.724-.532,1.12-.237,3.6-.354S1123.633,1437.328,1121.811,1437.472Z" fill="#c5d9e3"/>
  </g>
  <g>
    <path d="M797.3,1576.609c2.617-2.736,6.527-1.544,9.855-4.295s19.938-.874,25.989.5,41.18-1.421,44.55,2.239c2.238,2.434-17.177,7.468-25.884,7.468-4.548,0-10.205,1.744-16.677,1.422-8.672-.432-11.106-.3-18.667-1.674S794.688,1579.346,797.3,1576.609Z" fill="#3d5131"/>
    <path d="M832.442,1576.609c-14.932,0-32.312-10.24-16.63-21.439s17.742-9.207,31.184-5.473,18.216,5.415,19.089,12.192C867.62,1573.779,847.376,1576.609,832.442,1576.609Z" fill="#dbe3ec"/>
    <path d="M865.683,1559.985c-3.077,8.488-20.189,10.652-33.241,10.652-9.225,0-19.37-3.909-22.1-9.538-2.155,4.665-3.983,9.068-2.842,14.013,3.04,2.582,15.908,4.044,27.38,4.044,17.953,0,27.263-.931,31.55-3.671,1.836-4.853.371-8.035-.348-13.6A12.173,12.173,0,0,0,865.683,1559.985Z" fill="#9898b7"/>
    <path d="M831.569,1562.741c-.363-.078,13.567-1.029,17.3-2.756s11.944-1.1,8.089.764S835.675,1563.61,831.569,1562.741Z" fill="#c5d9e3"/>
    <path d="M829.33,1558.262s-10.08,1.243-9.957-1.122,2.364-.5,7.594-.743S833.168,1557.963,829.33,1558.262Z" fill="#c5d9e3"/>
  </g>
  <g>
    <path d="M2342.273,1491.13c4-4.19,9.985-2.365,15.074-6.571s30.5-1.342,39.759.76,63.008-2.171,68.163,3.426c3.426,3.725-26.274,11.424-39.6,11.424-6.957,0-15.612,2.667-25.512,2.174-13.271-.66-16.991-.448-28.559-2.556S2338.274,1495.316,2342.273,1491.13Z" fill="#3d5131"/>
    <path d="M2396.041,1491.13c-22.848,0-49.438-15.667-25.45-32.8s27.152-14.085,47.715-8.373,27.872,8.285,29.207,18.655C2449.858,1486.8,2418.887,1491.13,2396.041,1491.13Z" fill="#dbe3ec"/>
    <path d="M2446.9,1465.7c-4.709,12.985-30.883,16.293-50.857,16.293-14.116,0-29.64-5.982-33.8-14.588-3.3,7.136-6.1,13.87-4.35,21.437,4.652,3.948,24.337,6.187,41.886,6.187,27.466,0,41.712-1.424,48.27-5.615,2.808-7.426.568-12.294-.53-20.8A18.488,18.488,0,0,0,2446.9,1465.7Z" fill="#9898b7"/>
    <path d="M2394.706,1469.913c-.558-.117,20.754-1.576,26.466-4.216s18.276-1.684,12.372,1.17S2400.988,1471.245,2394.706,1469.913Z" fill="#c5d9e3"/>
    <path d="M2391.279,1463.058s-15.423,1.9-15.231-1.714,3.616-.761,11.614-1.141S2397.154,1462.6,2391.279,1463.058Z" fill="#c5d9e3"/>
    <path d="M2282.084,1484.439c2.026-2.123,5.062-1.2,7.642-3.331s15.472-.679,20.165.385,31.949-1.1,34.562,1.738c1.739,1.89-13.322,5.8-20.083,5.8-3.523,0-7.915,1.351-12.935,1.1-6.73-.335-8.618-.223-14.481-1.293S2280.054,1486.563,2282.084,1484.439Z" fill="#3d5131"/>
    <path d="M2309.346,1484.439c-11.586,0-25.066-7.944-12.9-16.633s13.768-7.145,24.2-4.245,14.132,4.2,14.811,9.46C2336.641,1482.244,2320.934,1484.439,2309.346,1484.439Z" fill="#dbe3ec"/>
    <path d="M2335.139,1471.545c-2.388,6.583-15.664,8.262-25.793,8.262-7.154,0-15.028-3.037-17.141-7.4-1.673,3.619-3.092,7.03-2.2,10.869,2.358,2,12.337,3.14,21.241,3.14,13.927,0,21.15-.724,24.476-2.849,1.422-3.765.289-6.235-.268-10.547A9.83,9.83,0,0,0,2335.139,1471.545Z" fill="#9898b7"/>
    <path d="M2308.671,1473.681c-.285-.06,10.523-.8,13.421-2.136s9.268-.858,6.277.591S2311.857,1474.356,2308.671,1473.681Z" fill="#c5d9e3"/>
    <path d="M2306.936,1470.205s-7.824.963-7.727-.87,1.837-.385,5.889-.578S2309.912,1469.972,2306.936,1470.205Z" fill="#c5d9e3"/>
  </g>
  <g>
    <path d="M1726.97,1498.708c2.533-2.65,6.316-1.5,9.535-4.159s19.295-.847,25.153.48,39.854-1.371,43.115,2.169c2.165,2.356-16.622,7.227-25.051,7.227-4.4,0-9.877,1.686-16.139,1.375-8.393-.417-10.749-.285-18.066-1.617S1724.441,1501.354,1726.97,1498.708Z" fill="#3d5131"/>
    <path d="M1760.981,1498.708c-14.452,0-31.271-9.91-16.1-20.752s17.173-8.909,30.183-5.3,17.627,5.242,18.474,11.8C1795.026,1495.966,1775.433,1498.708,1760.981,1498.708Z" fill="#dbe3ec"/>
    <path d="M1793.151,1482.619c-2.978,8.213-19.538,10.307-32.17,10.307-8.929,0-18.749-3.783-21.386-9.228-2.084,4.513-3.854,8.772-2.749,13.558,2.943,2.5,15.395,3.914,26.5,3.914,17.372,0,26.384-.9,30.532-3.552,1.778-4.695.358-7.776-.335-13.158A11.4,11.4,0,0,0,1793.151,1482.619Z" fill="#9898b7"/>
    <path d="M1760.137,1485.284c-.354-.074,13.13-1,16.74-2.665s11.561-1.068,7.831.738S1764.111,1486.128,1760.137,1485.284Z" fill="#c5d9e3"/>
    <path d="M1757.971,1480.949s-9.758,1.2-9.637-1.085,2.286-.48,7.349-.72S1761.683,1480.662,1757.971,1480.949Z" fill="#c5d9e3"/>
    <path d="M1668.007,1513.038c1.6-1.678,4-.946,6.044-2.635s12.237-.535,15.952.306,25.275-.87,27.344,1.375c1.372,1.492-10.542,4.581-15.888,4.581-2.791,0-6.262,1.071-10.236.874-5.321-.264-6.815-.18-11.458-1.025S1666.4,1514.72,1668.007,1513.038Z" fill="#3d5131"/>
    <path d="M1689.575,1513.038c-9.166,0-19.834-6.283-10.209-13.158s10.893-5.651,19.14-3.359,11.182,3.325,11.718,7.483C1711.165,1511.3,1698.74,1513.038,1689.575,1513.038Z" fill="#dbe3ec"/>
    <path d="M1709.977,1502.836c-1.888,5.209-12.392,6.539-20.4,6.539-5.665,0-11.89-2.4-13.561-5.854-1.326,2.866-2.447,5.564-1.745,8.6,1.865,1.584,9.764,2.482,16.8,2.482,11.02,0,16.736-.571,19.364-2.253,1.128-2.975.229-4.932-.211-8.346A7.587,7.587,0,0,0,1709.977,1502.836Z" fill="#9898b7"/>
    <path d="M1689.04,1504.527c-.225-.048,8.323-.629,10.616-1.691s7.331-.676,4.965.471S1691.559,1505.063,1689.04,1504.527Z" fill="#c5d9e3"/>
    <path d="M1687.665,1501.782s-6.19.76-6.113-.691,1.454-.306,4.664-.459S1690.019,1501.6,1687.665,1501.782Z" fill="#c5d9e3"/>
  </g>
  <path d="M506.189,1499.725s22.462-5.016,31.6,11.345c-.956-8.924,1.7-34.209,21.886-44.408,0,0-12.962,21.248-5.95,44.62,0,0,9.986-50.144,52.694-48.657,0,0-35.7,21.248-36.333,49.4,0,0,29.959-36.652,67.567-18.8,0,0-30.6,2.55-49.719,19.76,0,0,24.222-1.912,33.783,10.836,0,0-34.421-5.736-42.07,7.012,0,0-2.1-4.591-5.451-4.591-1.637,0-3.592,4.591-5.715,4.591-3.52,0-7.728-4.449-11.838-4.449-2.618,0-5.1,4.449-7.65,4.449-2.282,0-4.648-4.29-6.692-4.29-2.437,0-4.486,4.29-6.318,4.29C530.138,1508.732,506.189,1499.725,506.189,1499.725Z" fill="#475e3b"/>
  <path d="M1543.974,1625.761s19.1-4.267,26.875,9.649c-.813-7.589,1.447-29.1,18.615-37.77,0,0-11.024,18.072-5.061,37.951,0,0,8.495-42.649,44.818-41.385,0,0-30.36,18.072-30.9,42.016,0,0,25.482-31.173,57.469-15.993,0,0-26.023,2.169-42.288,16.807,0,0,20.6-1.627,28.734,9.217,0,0-29.276-4.879-35.783,5.963,0,0-1.78-3.9-4.636-3.9-1.392,0-3.055,3.9-4.86,3.9-2.993,0-6.574-3.784-10.07-3.784-2.226,0-4.337,3.784-6.506,3.784-1.941,0-3.953-3.649-5.692-3.649-2.071,0-3.814,3.649-5.373,3.649C1564.343,1633.422,1543.974,1625.761,1543.974,1625.761Z" fill="#475e3b"/>
  <path d="M1680.6,1601.25s15.847-3.539,22.293,8.006c-.673-6.3,1.2-24.137,15.443-31.333,0,0-9.146,14.992-4.2,31.483,0,0,7.046-35.38,37.18-34.333,0,0-25.186,14.992-25.637,34.857,0,0,21.14-25.86,47.675-13.269,0,0-21.588,1.8-35.081,13.943,0,0,17.091-1.35,23.837,7.646,0,0-24.287-4.046-29.683,4.947,0,0-1.479-3.24-3.847-3.24-1.155,0-2.535,3.24-4.032,3.24-2.484,0-5.452-3.138-8.353-3.138-1.848,0-3.6,3.138-5.4,3.138-1.611,0-3.279-3.028-4.721-3.028-1.719,0-3.165,3.028-4.457,3.028C1697.5,1607.606,1680.6,1601.25,1680.6,1601.25Z" fill="#475e3b"/>
  <path d="M1830.934,1448.711s9.882-2.207,13.9,4.991c-.421-3.927.748-15.052,9.629-19.539,0,0-5.7,9.349-2.618,19.632,0,0,4.394-22.062,23.183-21.407,0,0-15.7,9.347-15.985,21.735,0,0,13.182-16.126,29.727-8.274,0,0-13.46,1.121-21.874,8.694,0,0,10.657-.841,14.864,4.768,0,0-15.145-2.524-18.509,3.085,0,0-.923-2.021-2.4-2.021-.721,0-1.58,2.021-2.514,2.021-1.548,0-3.4-1.959-5.209-1.959-1.152,0-2.244,1.959-3.366,1.959-1,0-2.044-1.888-2.944-1.888-1.072,0-1.974,1.888-2.78,1.888C1841.471,1452.674,1830.934,1448.711,1830.934,1448.711Z" fill="#475e3b"/>
  <path d="M1904.875,1446.779s9.882-2.208,13.9,4.991c-.42-3.927.749-15.052,9.629-19.539,0,0-5.7,9.349-2.618,19.632,0,0,4.395-22.062,23.184-21.407,0,0-15.7,9.347-15.986,21.735,0,0,13.182-16.127,29.728-8.275,0,0-13.461,1.122-21.874,8.7,0,0,10.657-.841,14.863,4.767,0,0-15.145-2.523-18.509,3.085,0,0-.922-2.02-2.4-2.02-.721,0-1.58,2.02-2.513,2.02-1.549,0-3.4-1.958-5.209-1.958-1.153,0-2.245,1.958-3.367,1.958-1,0-2.044-1.887-2.944-1.887-1.072,0-1.973,1.887-2.78,1.887C1915.412,1450.741,1904.875,1446.779,1904.875,1446.779Z" fill="#475e3b"/>
  <path d="M629.025,1474.493s14.054-3.139,19.77,7.1c-.6-5.584,1.063-21.4,13.693-27.785,0,0-8.11,13.3-3.722,27.917,0,0,6.247-31.373,32.968-30.443,0,0-22.333,13.293-22.732,30.908,0,0,18.745-22.932,42.274-11.765,0,0-19.143,1.6-31.108,12.364,0,0,15.156-1.2,21.138,6.779,0,0-21.536-3.589-26.322,4.387,0,0-1.311-2.872-3.41-2.872-1.024,0-2.248,2.872-3.576,2.872-2.2,0-4.835-2.783-7.407-2.783-1.638,0-3.191,2.783-4.787,2.783-1.427,0-2.907-2.684-4.186-2.684-1.525,0-2.807,2.684-3.953,2.684C644.009,1480.129,629.025,1474.493,629.025,1474.493Z" fill="#475e3b"/>
  <g>
    <path d="M59.7,1345.378c1.177,0,2.336.08,3.489.176a41.6,41.6,0,0,1,33.866-24.722,54.637,54.637,0,0,1,105.967-15.488,38.139,38.139,0,0,1,6.4-2.168,51.386,51.386,0,0,1,99.431,11.829,44.788,44.788,0,0,1,63.782,40.634c0,1.108-.086,2.193-.166,3.28H29.059A41.418,41.418,0,0,1,59.7,1345.378Z" fill="#b07e09"/>
    <path d="M49.694,1352.765H371.723a11.849,11.849,0,0,1,.909,4.515,11.253,11.253,0,0,1-.166,1.639H29.059A58.865,58.865,0,0,1,49.694,1352.765Z" fill="#996407"/>
    <path d="M371.251,1358.919a44.875,44.875,0,0,0-43.479-33.784c-6.77,0-17.92-.941-23.676,1.746-2.8-25.756-19.848-43.327-46.35-43.327a51.4,51.4,0,0,0-48.327,33.98,38.316,38.316,0,0,0-6.4,2.167,54.68,54.68,0,0,0-51.412-36.147c-29.179,0-45.209,23.441-46.813,52.216-15-1.669-34.679,10.1-41.1,23.149H29.059a41.418,41.418,0,0,1,30.64-13.541c1.177,0,2.336.08,3.489.176a41.6,41.6,0,0,1,33.866-24.722,54.637,54.637,0,0,1,105.967-15.488,38.139,38.139,0,0,1,6.4-2.168,51.386,51.386,0,0,1,99.431,11.829,44.788,44.788,0,0,1,63.782,40.634c0,1.108-.086,2.193-.166,3.28Z" fill="#996407"/>
    <path d="M59.7,1345.378c1.177,0,2.336.08,3.489.176a41.6,41.6,0,0,1,33.866-24.722,54.637,54.637,0,0,1,105.967-15.488,38.139,38.139,0,0,1,6.4-2.168,51.386,51.386,0,0,1,99.431,11.829,44.788,44.788,0,0,1,63.782,40.634c0,1.108-.086,2.193-.166,3.28H29.059A41.418,41.418,0,0,1,59.7,1345.378Z" fill="none" stroke="#754c28" stroke-width="3.218"/>
    <path d="M127.963,1307.887c2.348-1.712,6.456-.006,9.17,3.812a13.349,13.349,0,0,1,1.054,1.757c-.279-3.177.928-5.871,2.9-6.212,2.153-.373,4.4,2.208,5.013,5.761a9.1,9.1,0,0,1-.342,4.708,8.489,8.489,0,0,0-.084-2.332c-.516-2.977-2.394-5.132-4.2-4.823-1.632.28-2.638,2.49-2.435,5.112a9.57,9.57,0,0,1,.316,1.77,9.453,9.453,0,0,1-.641-1.451,10.67,10.67,0,0,0-.762-1.241c-2.273-3.2-5.709-4.626-7.679-3.193s-1.721,5.188.552,8.385a11.667,11.667,0,0,0,.774.965,12.529,12.529,0,0,1-2.979-3C125.907,1314.085,125.611,1309.6,127.963,1307.887Z" fill="#996407"/>
    <path d="M220.933,1324.078c2.349-1.713,6.456-.006,9.17,3.812a13.222,13.222,0,0,1,1.053,1.756c-.278-3.176.93-5.87,2.9-6.212,2.153-.372,4.4,2.208,5.013,5.761a9.082,9.082,0,0,1-.342,4.708,8.483,8.483,0,0,0-.084-2.331c-.516-2.977-2.394-5.132-4.2-4.825-1.633.282-2.638,2.49-2.437,5.112a9.512,9.512,0,0,1,.317,1.772,9.44,9.44,0,0,1-.64-1.451,10.608,10.608,0,0,0-.763-1.242c-2.273-3.2-5.71-4.625-7.678-3.192s-1.721,5.188.551,8.383a11,11,0,0,0,.775.967,12.538,12.538,0,0,1-2.98-3C218.878,1330.276,218.582,1325.791,220.933,1324.078Z" fill="#996407"/>
    <path d="M233.836,1297.5c2.349-1.712,6.456-.006,9.17,3.812a13.2,13.2,0,0,1,1.054,1.757c-.279-3.177.929-5.871,2.9-6.211,2.153-.372,4.4,2.207,5.014,5.76a9.084,9.084,0,0,1-.343,4.708,8.489,8.489,0,0,0-.084-2.332c-.515-2.977-2.394-5.132-4.2-4.823-1.633.28-2.638,2.49-2.436,5.111a9.6,9.6,0,0,1,.317,1.771,9.553,9.553,0,0,1-.642-1.451,10.831,10.831,0,0,0-.761-1.241c-2.274-3.2-5.71-4.625-7.679-3.193s-1.721,5.188.552,8.385a11.32,11.32,0,0,0,.774.966,12.556,12.556,0,0,1-2.98-3C231.781,1303.7,231.485,1299.212,233.836,1297.5Z" fill="#996407"/>
    <path d="M182.784,1313.74c-1.991-2.119-6.343-1.2-9.718,2.045a13.483,13.483,0,0,0-1.362,1.53c.862-3.07.175-5.941-1.7-6.642-2.048-.765-4.734,1.354-6,4.731a9.069,9.069,0,0,0-.536,4.69,8.5,8.5,0,0,1,.514-2.276c1.059-2.828,3.3-4.6,5.017-3.96,1.552.577,2.131,2.934,1.447,5.473a9.667,9.667,0,0,0-.64,1.682,9.415,9.415,0,0,0,.9-1.306,10.946,10.946,0,0,1,.98-1.082c2.827-2.718,6.468-3.483,8.137-1.711s.729,5.417-2.1,8.138a11.834,11.834,0,0,1-.939.8,12.532,12.532,0,0,0,3.485-2.4C183.654,1320.21,184.776,1315.859,182.784,1313.74Z" fill="#996407"/>
    <path d="M288.647,1301.94c-1.99-2.119-6.343-1.2-9.718,2.045a13.491,13.491,0,0,0-1.361,1.531c.862-3.071.175-5.941-1.7-6.642-2.047-.766-4.733,1.353-6,4.731a9.084,9.084,0,0,0-.536,4.689,8.577,8.577,0,0,1,.514-2.276c1.06-2.828,3.305-4.6,5.018-3.96,1.552.577,2.131,2.935,1.447,5.473a9.667,9.667,0,0,0-.64,1.682,9.41,9.41,0,0,0,.9-1.306,10.946,10.946,0,0,1,.981-1.082c2.826-2.718,6.468-3.483,8.136-1.71s.73,5.417-2.1,8.137a11.834,11.834,0,0,1-.939.8,12.547,12.547,0,0,0,3.485-2.4C289.518,1308.41,290.639,1304.059,288.647,1301.94Z" fill="#996407"/>
  </g>
  <g>
    <g>
      <path d="M109.689,1338.621c1.78,0,3.53.12,5.273.266a62.85,62.85,0,0,1,51.164-37.35,82.545,82.545,0,0,1,160.094-23.4,57.651,57.651,0,0,1,9.666-3.275,77.635,77.635,0,0,1,150.22,17.871,67.664,67.664,0,0,1,96.36,61.39c0,1.674-.13,3.312-.25,4.955H63.4A62.578,62.578,0,0,1,109.689,1338.621Z" fill="#8baa1d"/>
      <path d="M94.575,1349.78H581.092a17.922,17.922,0,0,1,1.374,6.822,17.112,17.112,0,0,1-.25,2.476H63.4C71.618,1354.59,82.391,1351.3,94.575,1349.78Z" fill="#71890e"/>
      <path d="M580.38,1359.078a67.8,67.8,0,0,0-65.688-51.041c-10.228,0-27.073-1.421-35.769,2.638-4.231-38.912-29.986-65.458-70.025-65.458a77.654,77.654,0,0,0-73.012,51.337,57.738,57.738,0,0,0-9.666,3.274,82.611,82.611,0,0,0-77.674-54.611c-44.082,0-68.3,35.415-70.723,78.887-22.665-2.519-52.393,15.253-62.1,34.974H63.4a62.578,62.578,0,0,1,46.29-20.457c1.78,0,3.53.12,5.273.266a62.85,62.85,0,0,1,51.164-37.35,82.545,82.545,0,0,1,160.094-23.4,57.651,57.651,0,0,1,9.666-3.275,77.635,77.635,0,0,1,150.22,17.871,67.664,67.664,0,0,1,96.36,61.39c0,1.674-.13,3.312-.25,4.955Z" fill="#71890e"/>
      <path d="M212.823,1281.979c3.548-2.585,9.753-.008,13.853,5.76a20.128,20.128,0,0,1,1.593,2.653c-.422-4.8,1.4-8.869,4.381-9.385,3.253-.562,6.647,3.338,7.574,8.7a13.738,13.738,0,0,1-.517,7.112,12.831,12.831,0,0,0-.127-3.522c-.779-4.5-3.617-7.755-6.341-7.287-2.465.422-3.985,3.761-3.678,7.722a14.531,14.531,0,0,1,.477,2.674,14.292,14.292,0,0,1-.968-2.19,15.862,15.862,0,0,0-1.151-1.876c-3.435-4.83-8.626-6.989-11.6-4.824s-2.6,7.837.835,12.667a17.039,17.039,0,0,0,1.169,1.459,18.919,18.919,0,0,1-4.5-4.535C209.717,1291.344,209.27,1284.568,212.823,1281.979Z" fill="#71890e"/>
      <path d="M353.28,1306.44c3.549-2.588,9.754-.008,13.854,5.76a19.718,19.718,0,0,1,1.591,2.652c-.419-4.8,1.406-8.868,4.383-9.384,3.254-.563,6.647,3.335,7.575,8.7a13.74,13.74,0,0,1-.517,7.113,12.832,12.832,0,0,0-.127-3.522c-.78-4.5-3.616-7.753-6.34-7.289-2.467.426-3.985,3.762-3.681,7.724a14.3,14.3,0,0,1,.479,2.676,14.209,14.209,0,0,1-.968-2.192,16.118,16.118,0,0,0-1.152-1.876c-3.435-4.83-8.627-6.988-11.6-4.823s-2.6,7.838.833,12.666a16.629,16.629,0,0,0,1.17,1.459,18.961,18.961,0,0,1-4.5-4.536C350.176,1315.8,349.729,1309.028,353.28,1306.44Z" fill="#71890e"/>
      <path d="M372.776,1266.286c3.547-2.587,9.752-.01,13.853,5.758a20.256,20.256,0,0,1,1.593,2.655c-.422-4.8,1.4-8.871,4.38-9.384,3.254-.562,6.647,3.335,7.576,8.7a13.743,13.743,0,0,1-.518,7.111,12.832,12.832,0,0,0-.127-3.522c-.779-4.5-3.617-7.753-6.341-7.287-2.464.423-3.984,3.762-3.679,7.724a14.336,14.336,0,0,1,.477,2.674,14.5,14.5,0,0,1-.967-2.192,16.276,16.276,0,0,0-1.152-1.875c-3.435-4.829-8.625-6.988-11.6-4.824s-2.6,7.838.835,12.668a17.235,17.235,0,0,0,1.169,1.459,18.926,18.926,0,0,1-4.5-4.537C369.67,1275.649,369.223,1268.874,372.776,1266.286Z" fill="#71890e"/>
      <path d="M295.647,1290.822c-3.01-3.2-9.585-1.819-14.683,3.09a20.294,20.294,0,0,0-2.058,2.311c1.3-4.637.264-8.975-2.564-10.033-3.093-1.157-7.151,2.044-9.057,7.146a13.717,13.717,0,0,0-.81,7.086,12.872,12.872,0,0,1,.777-3.438c1.6-4.273,4.993-6.952,7.58-5.984,2.345.872,3.22,4.433,2.186,8.269a14.551,14.551,0,0,0-.966,2.541,14.2,14.2,0,0,0,1.356-1.972,16.807,16.807,0,0,1,1.481-1.636c4.271-4.105,9.774-5.262,12.294-2.584s1.1,8.184-3.168,12.294c-.461.439-.938.84-1.42,1.215a18.926,18.926,0,0,0,5.263-3.625C296.961,1300.6,298.656,1294.023,295.647,1290.822Z" fill="#71890e"/>
      <path d="M455.584,1273c-3.009-3.2-9.584-1.819-14.682,3.09a20.031,20.031,0,0,0-2.058,2.311c1.3-4.639.264-8.975-2.565-10.035-3.092-1.157-7.15,2.044-9.057,7.148a13.718,13.718,0,0,0-.809,7.085,12.8,12.8,0,0,1,.777-3.439c1.6-4.272,4.993-6.95,7.579-5.982,2.346.87,3.221,4.433,2.186,8.268a14.6,14.6,0,0,0-.965,2.541,14.271,14.271,0,0,0,1.356-1.973,16.535,16.535,0,0,1,1.481-1.634c4.271-4.107,9.773-5.264,12.293-2.586s1.1,8.184-3.168,12.294a18.061,18.061,0,0,1-1.419,1.215,18.956,18.956,0,0,0,5.266-3.624C456.9,1282.769,458.594,1276.2,455.584,1273Z" fill="#71890e"/>
    </g>
    <g>
      <path d="M2349.762,1338.621c-1.78,0-3.53.12-5.273.266a62.85,62.85,0,0,0-51.164-37.35,82.545,82.545,0,0,0-160.094-23.4,57.651,57.651,0,0,0-9.666-3.275,77.635,77.635,0,0,0-150.22,17.871,67.664,67.664,0,0,0-96.36,61.39c0,1.674.13,3.312.25,4.955h518.817A62.578,62.578,0,0,0,2349.762,1338.621Z" fill="#8baa1d"/>
      <path d="M2364.876,1349.78H1878.359a17.9,17.9,0,0,0-1.374,6.822,17.112,17.112,0,0,0,.25,2.476h518.817C2387.832,1354.59,2377.06,1351.3,2364.876,1349.78Z" fill="#71890e"/>
      <path d="M1879.071,1359.078a67.8,67.8,0,0,1,65.688-51.041c10.228,0,27.073-1.421,35.769,2.638,4.231-38.912,29.986-65.458,70.025-65.458a77.654,77.654,0,0,1,73.012,51.337,57.738,57.738,0,0,1,9.666,3.274,82.611,82.611,0,0,1,77.674-54.611c44.082,0,68.3,35.415,70.723,78.887,22.665-2.519,52.393,15.253,62.1,34.974h52.323a62.578,62.578,0,0,0-46.29-20.457c-1.78,0-3.53.12-5.273.266a62.85,62.85,0,0,0-51.164-37.35,82.545,82.545,0,0,0-160.094-23.4,57.651,57.651,0,0,0-9.666-3.275,77.635,77.635,0,0,0-150.22,17.871,67.664,67.664,0,0,0-96.36,61.39c0,1.674.13,3.312.25,4.955Z" fill="#71890e"/>
      <path d="M2246.628,1281.979c-3.548-2.585-9.753-.008-13.853,5.76a20.128,20.128,0,0,0-1.593,2.653c.422-4.8-1.4-8.869-4.381-9.385-3.253-.562-6.647,3.338-7.574,8.7a13.727,13.727,0,0,0,.517,7.112,12.792,12.792,0,0,1,.127-3.522c.779-4.5,3.617-7.755,6.341-7.287,2.465.422,3.985,3.761,3.678,7.722a14.531,14.531,0,0,0-.477,2.674,14.292,14.292,0,0,0,.968-2.19,15.862,15.862,0,0,1,1.151-1.876c3.435-4.83,8.626-6.989,11.6-4.824s2.6,7.837-.835,12.667a17.039,17.039,0,0,1-1.169,1.459,18.919,18.919,0,0,0,4.5-4.535C2249.733,1291.344,2250.181,1284.568,2246.628,1281.979Z" fill="#71890e"/>
      <path d="M2106.171,1306.44c-3.549-2.588-9.754-.008-13.854,5.76a19.718,19.718,0,0,0-1.591,2.652c.419-4.8-1.406-8.868-4.383-9.384-3.254-.563-6.647,3.335-7.575,8.7a13.729,13.729,0,0,0,.517,7.113,12.793,12.793,0,0,1,.127-3.522c.78-4.5,3.616-7.753,6.34-7.289,2.467.426,3.985,3.762,3.681,7.724a14.3,14.3,0,0,0-.479,2.676,14.209,14.209,0,0,0,.968-2.192,16.118,16.118,0,0,1,1.152-1.876c3.435-4.83,8.627-6.988,11.6-4.823s2.6,7.838-.834,12.666a16.438,16.438,0,0,1-1.169,1.459,18.961,18.961,0,0,0,4.5-4.536C2109.275,1315.8,2109.722,1309.028,2106.171,1306.44Z" fill="#71890e"/>
      <path d="M2086.675,1266.286c-3.547-2.587-9.752-.01-13.853,5.758a20.256,20.256,0,0,0-1.593,2.655c.422-4.8-1.4-8.871-4.38-9.384-3.254-.562-6.647,3.335-7.576,8.7a13.743,13.743,0,0,0,.518,7.111,12.832,12.832,0,0,1,.127-3.522c.779-4.5,3.617-7.753,6.341-7.287,2.464.423,3.984,3.762,3.679,7.724a14.423,14.423,0,0,0-.478,2.674,14.4,14.4,0,0,0,.968-2.192,16.276,16.276,0,0,1,1.152-1.875c3.435-4.829,8.625-6.988,11.6-4.824s2.6,7.838-.835,12.668a17.235,17.235,0,0,1-1.169,1.459,18.926,18.926,0,0,0,4.5-4.537C2089.78,1275.649,2090.228,1268.874,2086.675,1266.286Z" fill="#71890e"/>
      <path d="M2163.8,1290.822c3.01-3.2,9.585-1.819,14.683,3.09a20.294,20.294,0,0,1,2.058,2.311c-1.3-4.637-.264-8.975,2.564-10.033,3.093-1.157,7.151,2.044,9.057,7.146a13.717,13.717,0,0,1,.81,7.086,12.837,12.837,0,0,0-.778-3.438c-1.6-4.273-4.992-6.952-7.579-5.984-2.345.872-3.22,4.433-2.186,8.269a14.466,14.466,0,0,1,.965,2.541,14.283,14.283,0,0,1-1.355-1.972,16.807,16.807,0,0,0-1.481-1.636c-4.271-4.105-9.774-5.262-12.294-2.584s-1.1,8.184,3.168,12.294a18.51,18.51,0,0,0,1.42,1.215,18.944,18.944,0,0,1-5.264-3.625C2162.49,1300.6,2160.8,1294.023,2163.8,1290.822Z" fill="#71890e"/>
      <path d="M2003.867,1273c3.009-3.2,9.584-1.819,14.682,3.09a20.031,20.031,0,0,1,2.058,2.311c-1.3-4.639-.264-8.975,2.565-10.035,3.092-1.157,7.15,2.044,9.057,7.148a13.718,13.718,0,0,1,.809,7.085,12.841,12.841,0,0,0-.777-3.439c-1.6-4.272-4.993-6.95-7.579-5.982-2.346.87-3.221,4.433-2.186,8.268a14.6,14.6,0,0,1,.965,2.541,14.271,14.271,0,0,1-1.356-1.973,16.535,16.535,0,0,0-1.481-1.634c-4.271-4.107-9.773-5.264-12.293-2.586s-1.1,8.184,3.168,12.294a18.061,18.061,0,0,0,1.419,1.215,18.956,18.956,0,0,1-5.266-3.624C2002.552,1282.769,2000.857,1276.2,2003.867,1273Z" fill="#71890e"/>
    </g>
    <g>
      <path d="M765.347,1338.621c1.78,0,3.53.12,5.273.266a62.85,62.85,0,0,1,51.164-37.35,82.545,82.545,0,0,1,160.094-23.4,57.651,57.651,0,0,1,9.666-3.275,77.635,77.635,0,0,1,150.22,17.871,67.664,67.664,0,0,1,96.36,61.39c0,1.674-.13,3.312-.25,4.955H719.057A62.578,62.578,0,0,1,765.347,1338.621Z" fill="#8baa1d"/>
      <path d="M750.233,1349.78H1236.75a17.922,17.922,0,0,1,1.374,6.822,17.112,17.112,0,0,1-.25,2.476H719.057C727.276,1354.59,738.049,1351.3,750.233,1349.78Z" fill="#71890e"/>
      <path d="M1236.038,1359.078a67.8,67.8,0,0,0-65.688-51.041c-10.228,0-27.073-1.421-35.769,2.638-4.231-38.912-29.986-65.458-70.025-65.458a77.653,77.653,0,0,0-73.012,51.337,57.738,57.738,0,0,0-9.666,3.274,82.612,82.612,0,0,0-77.674-54.611c-44.082,0-68.3,35.415-70.723,78.887-22.665-2.519-52.393,15.253-62.1,34.974H719.057a62.578,62.578,0,0,1,46.29-20.457c1.78,0,3.53.12,5.273.266a62.85,62.85,0,0,1,51.164-37.35,82.545,82.545,0,0,1,160.094-23.4,57.651,57.651,0,0,1,9.666-3.275,77.635,77.635,0,0,1,150.22,17.871,67.664,67.664,0,0,1,96.36,61.39c0,1.674-.13,3.312-.25,4.955Z" fill="#71890e"/>
      <path d="M868.481,1281.979c3.548-2.585,9.753-.008,13.853,5.76a20.128,20.128,0,0,1,1.593,2.653c-.422-4.8,1.4-8.869,4.381-9.385,3.253-.562,6.647,3.338,7.574,8.7a13.738,13.738,0,0,1-.517,7.112,12.831,12.831,0,0,0-.127-3.522c-.779-4.5-3.617-7.755-6.341-7.287-2.465.422-3.985,3.761-3.678,7.722a14.531,14.531,0,0,1,.477,2.674,14.292,14.292,0,0,1-.968-2.19,15.862,15.862,0,0,0-1.151-1.876c-3.435-4.83-8.626-6.989-11.6-4.824s-2.6,7.837.835,12.667a17.039,17.039,0,0,0,1.169,1.459,18.919,18.919,0,0,1-4.5-4.535C865.375,1291.344,864.928,1284.568,868.481,1281.979Z" fill="#71890e"/>
      <path d="M1008.938,1306.44c3.549-2.588,9.754-.008,13.854,5.76a19.718,19.718,0,0,1,1.591,2.652c-.419-4.8,1.406-8.868,4.383-9.384,3.254-.563,6.647,3.335,7.575,8.7a13.74,13.74,0,0,1-.517,7.113,12.832,12.832,0,0,0-.127-3.522c-.78-4.5-3.616-7.753-6.34-7.289-2.467.426-3.985,3.762-3.681,7.724a14.293,14.293,0,0,1,.478,2.676,14.206,14.206,0,0,1-.967-2.192,16.118,16.118,0,0,0-1.152-1.876c-3.435-4.83-8.627-6.988-11.6-4.823s-2.6,7.838.833,12.666a16.629,16.629,0,0,0,1.17,1.459,18.961,18.961,0,0,1-4.5-4.536C1005.834,1315.8,1005.387,1309.028,1008.938,1306.44Z" fill="#71890e"/>
      <path d="M1028.434,1266.286c3.547-2.587,9.752-.01,13.853,5.758a20.138,20.138,0,0,1,1.592,2.655c-.421-4.8,1.405-8.871,4.381-9.384,3.254-.562,6.647,3.335,7.576,8.7a13.732,13.732,0,0,1-.519,7.111,12.791,12.791,0,0,0-.126-3.522c-.779-4.5-3.617-7.753-6.341-7.287-2.465.423-3.985,3.762-3.679,7.724a14.419,14.419,0,0,1,.477,2.674,14.6,14.6,0,0,1-.968-2.192,16.128,16.128,0,0,0-1.151-1.875c-3.435-4.829-8.625-6.988-11.6-4.824s-2.6,7.838.835,12.668a17.235,17.235,0,0,0,1.169,1.459,18.926,18.926,0,0,1-4.5-4.537C1025.328,1275.649,1024.881,1268.874,1028.434,1266.286Z" fill="#71890e"/>
      <path d="M951.305,1290.822c-3.01-3.2-9.585-1.819-14.683,3.09a20.294,20.294,0,0,0-2.058,2.311c1.3-4.637.264-8.975-2.564-10.033-3.093-1.157-7.151,2.044-9.058,7.146a13.726,13.726,0,0,0-.809,7.086,12.872,12.872,0,0,1,.777-3.438c1.6-4.273,4.993-6.952,7.579-5.984,2.346.872,3.221,4.433,2.186,8.269a14.625,14.625,0,0,0-.965,2.541,14.2,14.2,0,0,0,1.356-1.972,16.679,16.679,0,0,1,1.481-1.636c4.271-4.105,9.774-5.262,12.294-2.584s1.1,8.184-3.168,12.294c-.461.439-.938.84-1.42,1.215a18.926,18.926,0,0,0,5.263-3.625C952.619,1300.6,954.314,1294.023,951.305,1290.822Z" fill="#71890e"/>
      <path d="M1111.242,1273c-3.009-3.2-9.584-1.819-14.682,3.09a20.031,20.031,0,0,0-2.058,2.311c1.3-4.639.264-8.975-2.565-10.035-3.092-1.157-7.15,2.044-9.057,7.148a13.718,13.718,0,0,0-.809,7.085,12.8,12.8,0,0,1,.777-3.439c1.6-4.272,4.992-6.95,7.579-5.982,2.346.87,3.221,4.433,2.186,8.268a14.6,14.6,0,0,0-.965,2.541,14.271,14.271,0,0,0,1.356-1.973,16.535,16.535,0,0,1,1.481-1.634c4.271-4.107,9.773-5.264,12.293-2.586s1.1,8.184-3.168,12.294a18.061,18.061,0,0,1-1.419,1.215,18.956,18.956,0,0,0,5.266-3.624C1112.556,1282.769,1114.252,1276.2,1111.242,1273Z" fill="#71890e"/>
    </g>
    <g>
      <path d="M1390.645,1342.11c1.476,0,2.928.1,4.373.22a52.131,52.131,0,0,1,42.439-30.981,68.469,68.469,0,0,1,132.794-19.41,47.905,47.905,0,0,1,8.018-2.716,64.4,64.4,0,0,1,124.6,14.824,56.126,56.126,0,0,1,79.928,50.921c0,1.388-.108,2.747-.208,4.11H1352.248A51.907,51.907,0,0,1,1390.645,1342.11Z" fill="#8baa1d"/>
      <path d="M1378.108,1351.365H1781.66a14.861,14.861,0,0,1,1.14,5.659,14.127,14.127,0,0,1-.208,2.054H1352.248C1359.066,1355.355,1368,1352.624,1378.108,1351.365Z" fill="#71890e"/>
      <path d="M1781.07,1359.078a56.238,56.238,0,0,0-54.487-42.337c-8.484,0-22.456-1.179-29.669,2.188-3.51-32.276-24.873-54.3-58.084-54.3a64.411,64.411,0,0,0-60.561,42.582,47.815,47.815,0,0,0-8.018,2.716,68.523,68.523,0,0,0-64.429-45.3c-36.565,0-56.653,29.375-58.662,65.434-18.8-2.09-43.459,12.652-51.511,29.01h-43.4a51.907,51.907,0,0,1,38.4-16.968c1.476,0,2.928.1,4.373.22a52.131,52.131,0,0,1,42.439-30.981,68.469,68.469,0,0,1,132.794-19.41,47.905,47.905,0,0,1,8.018-2.716,64.4,64.4,0,0,1,124.6,14.824,56.126,56.126,0,0,1,79.928,50.921c0,1.388-.108,2.747-.208,4.11Z" fill="#71890e"/>
      <path d="M1476.191,1295.127c2.943-2.145,8.09-.007,11.491,4.777a16.569,16.569,0,0,1,1.321,2.2c-.349-3.981,1.164-7.357,3.634-7.785,2.7-.466,5.514,2.769,6.283,7.221a11.4,11.4,0,0,1-.429,5.9,10.643,10.643,0,0,0-.105-2.922c-.647-3.73-3-6.432-5.26-6.044-2.045.351-3.306,3.12-3.051,6.4a12.053,12.053,0,0,1,.4,2.219,11.949,11.949,0,0,1-.8-1.817,12.976,12.976,0,0,0-.954-1.556c-2.849-4.006-7.155-5.8-9.623-4s-2.156,6.5.692,10.507a13.8,13.8,0,0,0,.97,1.21,15.656,15.656,0,0,1-3.734-3.761C1473.615,1302.894,1473.244,1297.274,1476.191,1295.127Z" fill="#71890e"/>
      <path d="M1592.7,1315.417c2.943-2.147,8.09-.007,11.491,4.777a16.269,16.269,0,0,1,1.319,2.2c-.347-3.981,1.167-7.356,3.636-7.784,2.7-.467,5.514,2.766,6.283,7.219a11.388,11.388,0,0,1-.429,5.9,10.605,10.605,0,0,0-.105-2.922c-.647-3.73-3-6.43-5.258-6.045-2.047.353-3.306,3.12-3.054,6.406a11.9,11.9,0,0,1,.4,2.22,11.807,11.807,0,0,1-.8-1.818,13.415,13.415,0,0,0-.955-1.556c-2.849-4.007-7.156-5.8-9.622-4s-2.156,6.5.691,10.506a13.513,13.513,0,0,0,.97,1.21,15.734,15.734,0,0,1-3.734-3.762C1590.122,1323.183,1589.751,1317.563,1592.7,1315.417Z" fill="#71890e"/>
      <path d="M1608.868,1282.109c2.942-2.145,8.089-.008,11.491,4.777a16.742,16.742,0,0,1,1.32,2.2c-.349-3.982,1.166-7.358,3.634-7.784,2.7-.466,5.514,2.766,6.284,7.219a11.4,11.4,0,0,1-.43,5.9,10.644,10.644,0,0,0-.105-2.922c-.646-3.73-3-6.431-5.26-6.044-2.044.35-3.3,3.12-3.051,6.406a12.043,12.043,0,0,1,.4,2.218,11.959,11.959,0,0,1-.8-1.818,13.662,13.662,0,0,0-.955-1.555c-2.849-4.006-7.154-5.8-9.623-4s-2.157,6.5.692,10.507a13.812,13.812,0,0,0,.971,1.21,15.7,15.7,0,0,1-3.734-3.762C1606.292,1289.876,1605.92,1284.256,1608.868,1282.109Z" fill="#71890e"/>
      <path d="M1544.891,1302.462c-2.5-2.656-7.95-1.509-12.178,2.563a16.765,16.765,0,0,0-1.708,1.917c1.081-3.847.219-7.445-2.127-8.323-2.565-.959-5.931,1.7-7.512,5.928a11.382,11.382,0,0,0-.672,5.877,10.659,10.659,0,0,1,.645-2.851c1.327-3.545,4.141-5.767,6.287-4.964,1.946.724,2.671,3.678,1.813,6.859a12.167,12.167,0,0,0-.8,2.107,11.794,11.794,0,0,0,1.125-1.635,13.707,13.707,0,0,1,1.229-1.357c3.542-3.4,8.106-4.365,10.2-2.143s.914,6.788-2.627,10.2a15.425,15.425,0,0,1-1.178,1.008,15.731,15.731,0,0,0,4.366-3.007C1545.981,1310.57,1547.387,1305.117,1544.891,1302.462Z" fill="#71890e"/>
      <path d="M1677.555,1287.675c-2.5-2.655-7.95-1.509-12.179,2.563a16.659,16.659,0,0,0-1.707,1.917c1.081-3.848.219-7.445-2.127-8.323-2.565-.96-5.931,1.695-7.513,5.929a11.376,11.376,0,0,0-.671,5.877,10.672,10.672,0,0,1,.645-2.853c1.326-3.544,4.141-5.765,6.286-4.962,1.946.722,2.672,3.677,1.814,6.858a12.035,12.035,0,0,0-.8,2.108,11.938,11.938,0,0,0,1.125-1.637,13.689,13.689,0,0,1,1.228-1.355c3.543-3.407,8.107-4.366,10.2-2.145s.914,6.789-2.628,10.2a14.591,14.591,0,0,1-1.177,1.008,15.707,15.707,0,0,0,4.368-3.006C1678.645,1295.782,1680.051,1290.33,1677.555,1287.675Z" fill="#71890e"/>
    </g>
    <g>
      <path d="M223.141,1343.959c-1.315,0-2.609.089-3.9.2a46.448,46.448,0,0,0-37.813-27.6,61.006,61.006,0,0,0-118.319-17.295,42.711,42.711,0,0,0-7.144-2.42A57.391,57.391,0,0,0,2.008,1258.9a57.415,57.415,0,0,0-57.062,51.147,49.782,49.782,0,0,0-21.127-4.72,50.089,50.089,0,0,0-50.089,50.091c0,1.237.1,2.448.185,3.662H257.352A46.248,46.248,0,0,0,223.141,1343.959Z" fill="#8baa1d"/>
      <path d="M234.311,1352.206H-125.254a13.247,13.247,0,0,0-1.016,5.042,12.751,12.751,0,0,0,.185,1.83H257.352C251.277,1355.761,243.316,1353.327,234.311,1352.206Z" fill="#71890e"/>
      <path d="M-124.728,1359.078a50.108,50.108,0,0,1,48.547-37.723c7.56,0,20.009-1.05,26.436,1.95,3.127-28.758,22.161-48.377,51.753-48.377a57.392,57.392,0,0,1,53.96,37.941,42.711,42.711,0,0,1,7.144,2.42,61.053,61.053,0,0,1,57.406-40.361c32.579,0,50.477,26.173,52.268,58.3,16.75-1.862,38.721,11.273,45.9,25.848h38.67a46.248,46.248,0,0,0-34.211-15.119c-1.315,0-2.609.089-3.9.2a46.448,46.448,0,0,0-37.813-27.6,61.006,61.006,0,0,0-118.319-17.295,42.711,42.711,0,0,0-7.144-2.42A57.391,57.391,0,0,0,2.008,1258.9a57.415,57.415,0,0,0-57.062,51.147,49.782,49.782,0,0,0-21.127-4.72,50.089,50.089,0,0,0-50.089,50.091c0,1.237.1,2.448.185,3.662Z" fill="#71890e"/>
      <path d="M146.919,1302.1c-2.623-1.91-7.208-.006-10.239,4.257a14.971,14.971,0,0,0-1.177,1.961c.312-3.547-1.037-6.555-3.238-6.936-2.4-.415-4.912,2.466-5.6,6.434a10.149,10.149,0,0,0,.382,5.256,9.458,9.458,0,0,1,.094-2.6c.576-3.324,2.673-5.731,4.686-5.385,1.822.312,2.945,2.78,2.719,5.707a10.689,10.689,0,0,0-.353,1.976,10.561,10.561,0,0,0,.715-1.618,11.744,11.744,0,0,1,.851-1.387c2.538-3.569,6.375-5.165,8.574-3.565s1.921,5.792-.617,9.362a12.765,12.765,0,0,1-.863,1.078,13.99,13.99,0,0,0,3.326-3.352C149.214,1309.018,149.545,1304.011,146.919,1302.1Z" fill="#71890e"/>
      <path d="M43.112,1320.176c-2.623-1.913-7.208-.007-10.238,4.257a14.4,14.4,0,0,0-1.176,1.96c.309-3.547-1.039-6.554-3.24-6.936-2.4-.416-4.912,2.465-5.6,6.432a10.161,10.161,0,0,0,.382,5.257,9.49,9.49,0,0,1,.094-2.6c.577-3.324,2.672-5.73,4.686-5.387,1.823.315,2.945,2.78,2.72,5.708a10.645,10.645,0,0,0-.354,1.978,10.534,10.534,0,0,0,.716-1.62,11.9,11.9,0,0,1,.851-1.386c2.538-3.57,6.376-5.165,8.573-3.565s1.921,5.793-.615,9.361a12.128,12.128,0,0,1-.864,1.078,13.99,13.99,0,0,0,3.326-3.352C45.406,1327.1,45.737,1322.088,43.112,1320.176Z" fill="#71890e"/>
      <path d="M28.7,1290.5c-2.622-1.912-7.208-.007-10.239,4.256a14.972,14.972,0,0,0-1.176,1.962c.311-3.548-1.038-6.556-3.238-6.936-2.4-.415-4.913,2.465-5.6,6.432a10.157,10.157,0,0,0,.383,5.256,9.491,9.491,0,0,1,.094-2.6c.575-3.324,2.673-5.73,4.686-5.386,1.822.313,2.945,2.781,2.719,5.709a10.773,10.773,0,0,0-.353,1.976,10.686,10.686,0,0,0,.716-1.62,11.918,11.918,0,0,1,.851-1.385c2.538-3.57,6.374-5.165,8.573-3.565s1.922,5.792-.616,9.361a12.8,12.8,0,0,1-.865,1.079,14,14,0,0,0,3.327-3.353C31,1297.419,31.33,1292.411,28.7,1290.5Z" fill="#71890e"/>
      <path d="M85.707,1308.633c2.224-2.366,7.083-1.345,10.851,2.283a14.859,14.859,0,0,1,1.521,1.709c-.963-3.428-.195-6.634,1.9-7.416,2.285-.855,5.284,1.511,6.693,5.282a10.141,10.141,0,0,1,.6,5.236,9.475,9.475,0,0,0-.575-2.54c-1.182-3.159-3.69-5.138-5.6-4.423-1.734.645-2.381,3.277-1.616,6.111a10.76,10.76,0,0,1,.713,1.878,10.554,10.554,0,0,1-1-1.457,12.4,12.4,0,0,0-1.094-1.209c-3.157-3.034-7.224-3.889-9.086-1.909s-.814,6.048,2.341,9.085a13.581,13.581,0,0,0,1.05.9,13.994,13.994,0,0,1-3.89-2.679C84.736,1315.857,83.483,1311,85.707,1308.633Z" fill="#71890e"/>
    </g>
    <g>
      <path d="M2612.764,1343.959c-1.316,0-2.609.089-3.9.2a46.449,46.449,0,0,0-37.813-27.6,61.006,61.006,0,0,0-118.319-17.295,42.692,42.692,0,0,0-7.145-2.42,57.376,57.376,0,0,0-111.021,13.208,50.008,50.008,0,0,0-71.216,45.371c0,1.237.1,2.448.185,3.662h383.437A46.248,46.248,0,0,0,2612.764,1343.959Z" fill="#8baa1d"/>
      <path d="M2623.934,1352.206H2264.369a13.247,13.247,0,0,0-1.016,5.042,12.751,12.751,0,0,0,.185,1.83h383.437C2640.9,1355.761,2632.939,1353.327,2623.934,1352.206Z" fill="#71890e"/>
      <path d="M2264.9,1359.078a50.107,50.107,0,0,1,48.547-37.723c7.56,0,20.009-1.05,26.435,1.95,3.128-28.758,22.162-48.377,51.754-48.377a57.389,57.389,0,0,1,53.959,37.941,42.692,42.692,0,0,1,7.145,2.42,61.053,61.053,0,0,1,57.4-40.361c32.58,0,50.478,26.173,52.269,58.3,16.75-1.862,38.721,11.273,45.9,25.848h38.67a46.248,46.248,0,0,0-34.211-15.119c-1.316,0-2.609.089-3.9.2a46.449,46.449,0,0,0-37.813-27.6,61.006,61.006,0,0,0-118.319-17.295,42.692,42.692,0,0,0-7.145-2.42,57.376,57.376,0,0,0-111.021,13.208,50.008,50.008,0,0,0-71.216,45.371c0,1.237.1,2.448.185,3.662Z" fill="#71890e"/>
      <path d="M2536.542,1302.1c-2.623-1.91-7.209-.006-10.239,4.257a14.971,14.971,0,0,0-1.177,1.961c.312-3.547-1.037-6.555-3.238-6.936-2.4-.415-4.912,2.466-5.6,6.434a10.149,10.149,0,0,0,.381,5.256,9.537,9.537,0,0,1,.094-2.6c.577-3.324,2.674-5.731,4.687-5.385,1.822.312,2.945,2.78,2.718,5.707a10.858,10.858,0,0,0-.353,1.976,10.467,10.467,0,0,0,.716-1.618,11.744,11.744,0,0,1,.851-1.387c2.538-3.569,6.375-5.165,8.574-3.565s1.921,5.792-.617,9.362a12.577,12.577,0,0,1-.864,1.078,13.975,13.975,0,0,0,3.327-3.352C2538.837,1309.018,2539.168,1304.011,2536.542,1302.1Z" fill="#71890e"/>
      <path d="M2432.735,1320.176c-2.623-1.913-7.209-.007-10.238,4.257a14.4,14.4,0,0,0-1.176,1.96c.309-3.547-1.039-6.554-3.24-6.936-2.405-.416-4.912,2.465-5.6,6.432a10.151,10.151,0,0,0,.382,5.257,9.49,9.49,0,0,1,.094-2.6c.576-3.324,2.672-5.73,4.685-5.387,1.824.315,2.946,2.78,2.721,5.708a10.645,10.645,0,0,0-.354,1.978,10.534,10.534,0,0,0,.716-1.62,11.763,11.763,0,0,1,.851-1.386c2.538-3.57,6.376-5.165,8.573-3.565s1.921,5.793-.615,9.361a12.136,12.136,0,0,1-.865,1.078,13.975,13.975,0,0,0,3.327-3.352C2435.029,1327.1,2435.36,1322.088,2432.735,1320.176Z" fill="#71890e"/>
      <path d="M2418.327,1290.5c-2.622-1.912-7.208-.007-10.239,4.256a14.972,14.972,0,0,0-1.176,1.962c.311-3.548-1.039-6.556-3.238-6.936-2.405-.415-4.913,2.465-5.6,6.432a10.157,10.157,0,0,0,.383,5.256,9.452,9.452,0,0,1,.094-2.6c.575-3.324,2.673-5.73,4.686-5.386,1.821.313,2.945,2.781,2.719,5.709a1.072,1.072,0,1,0,.363.356,11.918,11.918,0,0,1,.851-1.385c2.538-3.57,6.374-5.165,8.573-3.565s1.922,5.792-.617,9.361a12.593,12.593,0,0,1-.864,1.079,14,14,0,0,0,3.327-3.353C2420.622,1297.419,2420.953,1292.411,2418.327,1290.5Z" fill="#71890e"/>
      <path d="M2475.33,1308.633c2.224-2.366,7.083-1.345,10.851,2.283a14.859,14.859,0,0,1,1.521,1.709c-.963-3.428-.2-6.634,1.895-7.416,2.286-.855,5.285,1.511,6.694,5.282a10.129,10.129,0,0,1,.6,5.236,9.434,9.434,0,0,0-.574-2.54c-1.182-3.159-3.69-5.138-5.6-4.423-1.734.645-2.381,3.277-1.616,6.111a10.76,10.76,0,0,1,.713,1.878,10.467,10.467,0,0,1-1-1.457,12.535,12.535,0,0,0-1.094-1.209c-3.157-3.034-7.224-3.889-9.086-1.909s-.814,6.048,2.341,9.085a13.581,13.581,0,0,0,1.05.9,13.994,13.994,0,0,1-3.89-2.679C2474.359,1315.857,2473.106,1311,2475.33,1308.633Z" fill="#71890e"/>
      <path d="M2357.127,1295.458c2.224-2.366,7.083-1.345,10.851,2.284a14.862,14.862,0,0,1,1.521,1.708c-.963-3.429-.2-6.634,1.895-7.417,2.286-.855,5.285,1.511,6.694,5.283a10.14,10.14,0,0,1,.6,5.237,9.489,9.489,0,0,0-.575-2.542c-1.181-3.158-3.689-5.137-5.6-4.422-1.734.644-2.38,3.277-1.616,6.111a10.736,10.736,0,0,1,.714,1.878,10.538,10.538,0,0,1-1-1.458,12.408,12.408,0,0,0-1.1-1.208c-3.156-3.035-7.223-3.89-9.085-1.91s-.814,6.048,2.341,9.085a13.143,13.143,0,0,0,1.049.9,13.991,13.991,0,0,1-3.892-2.678C2356.155,1302.681,2354.9,1297.824,2357.127,1295.458Z" fill="#71890e"/>
    </g>
  </g>
</svg>
