<svg xmlns="http://www.w3.org/2000/svg" xmlns:xlink="http://www.w3.org/1999/xlink" width="1920" height="1080" viewBox="0 0 1920 1080">
  <defs>
    <linearGradient id="a" data-name="Unbenannter Verlauf 689" x1="959.883" y1="1047.032" x2="959.883" y2="-19.751" gradientUnits="userSpaceOnUse">
      <stop offset="0.255" stop-color="#fff"/>
      <stop offset="0.356" stop-color="#fbfcfa"/>
      <stop offset="0.479" stop-color="#f0f4eb"/>
      <stop offset="0.614" stop-color="#dee7d2"/>
      <stop offset="0.756" stop-color="#c4d5b0"/>
      <stop offset="0.904" stop-color="#a3bd85"/>
      <stop offset="1" stop-color="#8bac64"/>
    </linearGradient>
  </defs>
  <g>
    <rect x="-1107.524" y="-19.751" width="4134.815" height="1066.782" fill="url(#a)"/>
    <path d="M2659.092,652.029C2555.927,364.527,2570.73,4.76,2570.73,4.76H2530.7c-25.981,152.147,13.614,462.242,52.688,647.269H1672.991c-36.117-108.4-56.193-223.745-67.2-325.144C1686,243.332,1791.859,77.927,1821.049,4.76H1783.2s-77,151.121-183.1,261.8c-10.847-135.453-6.982-261.8-6.982-261.8h-43.208c-12.462,69.084-12.146,212.646-2.342,312.486-45.655,40.542-97.205,77.309-153.524,103.346C1406.738,238.634,1481.993,4.76,1481.993,4.76h-34.337C1379.039,136.88,1326,500.388,1323.326,652.029H205.273c-1.33-142.933-22.8-506.252-96.035-647.269H68.064s113.41,380.634,48.812,647.269h916.656c-72.49-29.637-156.959-70.336-241.044-124.563,61-105.469,217.285-368.507,224.7-514.445H957.444S899.13,306.358,726.259,481.691C588.759,379.78,452.243,195.66,390.884,4.76H331.163s56.262,454.476,461.766,647.269H-939.494C-1023.528,558.506-1199.124,295.56-1166,4.76h-49.43c-.039,10.885-32.475,460.843,99.854,647.269H-1336.29v419.513H2798.524V652.029Zm-1267.3-123.55c28.963-24.894,93.23-81.277,162.645-149.636,11.8,95.376,28.862,191.978,44.987,273.186H1405.061C1397.224,611.486,1393.122,569.866,1391.791,528.479Z" fill="#9fa58e"/>
  </g>
  <path d="M-983.437-25.8v158.22a47.2,47.2,0,0,0,24.747-6.96A42.909,42.909,0,0,0-916.109,162.3a42.877,42.877,0,0,0,42.861-39.488,36.378,36.378,0,0,0,5.326.393,35.83,35.83,0,0,0,20.508-6.413,44.2,44.2,0,0,0,43.255,34.656,44.279,44.279,0,0,0,37.165-20.111A42.39,42.39,0,0,0-732.1,149.562a42.383,42.383,0,0,0,37.12-21.819c11.566,41.89,31.61,128.62,10.178,162.33-24.875,39.125-118.074,105.409-142.642,122.5-53.251-33.895-108.585-38.434-155.914-38.434v52.689c162.332,0,180.155,299.946,180.745,420.856H-983.437v193.306h4161.65V847.681H2997.468c.133-27.345,1.148-63.839,4.517-103.958,6-40.546,13.146-87.113,21.2-136.477,23.868-96.763,69.294-180.421,155.023-180.421V374.136c-44.388,0-85.908,15.361-121.09,41.673,20.038-103.23,42.561-201.459,65.636-268.382a42.365,42.365,0,0,0,26.282-25.042,47.2,47.2,0,0,0,29.172,10.039V-25.8ZM2717.236,151.446a44.284,44.284,0,0,0,37.168-20.111,42.486,42.486,0,0,0,74.511-8.95,47.435,47.435,0,0,0,53.918,3.079,43.017,43.017,0,0,0,85.443-2.654,36.361,36.361,0,0,0,5.324.393,35.825,35.825,0,0,0,20.508-6.413,44.352,44.352,0,0,0,77.018,19.093c-35.716,156-109.262,456.662-144.352,451.031-35.4-5.682-183.324-313.431-255.692-468.314,1-.56,1.966-1.161,2.9-1.81A44.2,44.2,0,0,0,2717.236,151.446Zm-132.409,5.708a43.179,43.179,0,0,0,51.839-8.4c18.822,37.028,41.045,87.584,62.975,153.406-34.714-5.26-102.247-18.39-138.112-44.715-8.622-6.328-15.384-14.713-20.678-24.245C2547.947,218.2,2566.28,181.092,2584.827,157.154Zm-46.867-24.73a47.2,47.2,0,0,0,24.746-6.96,42.29,42.29,0,0,0,6.167,16.8l-40.13,58.758c-6.545-26.848-6.628-54.99-5.918-71.079a47.318,47.318,0,0,0,15.133,2.477Zm-103.684-1.089a42.554,42.554,0,0,0,52.1,14.6c2.165,31.668,10.761,93.322,44.438,135.538,26.617,33.365,135.807,72.373,191.765,90.691,42.151,130.583,108.776,355.266,84.222,475.513H2652.744c-96.916-146.568-270.6-447.091-253.564-696.288A44.278,44.278,0,0,0,2434.276,131.335Zm-536.57,1.089a47.2,47.2,0,0,0,24.745-6.96,43.018,43.018,0,0,0,85.444-2.654,36.371,36.371,0,0,0,5.324.393,35.828,35.828,0,0,0,20.508-6.413,44.354,44.354,0,0,0,80.423,14.545,42.484,42.484,0,0,0,74.509-8.95,47.436,47.436,0,0,0,53.919,3.079,42.877,42.877,0,0,0,37.865,36.569c41.2,129.263,129.95,449.523,83.725,685.648H711.437c-21.744-57.787-55.833-160.475-54.951-234.266,243.548,47.774,551.91,118.617,760.66,6.879,50.279-26.913,113.5-173.35,162.878-308.635,47.01-9.208,138.328-28.837,158.109-45.856,18.126-15.595,67.827-77.894,98.354-116.92a42.355,42.355,0,0,0,32.046-26.5A47.2,47.2,0,0,0,1897.706,132.424ZM578.272,598.687c11.02,54.95,22.6,151.1-2.185,248.994H155.234c0-116.7,66.032-191.51,163.2-248.108C369.582,569.778,463.3,578.366,578.272,598.687Zm1109.5-475.877a36.371,36.371,0,0,0,5.324.393,35.831,35.831,0,0,0,20.509-6.413,44.354,44.354,0,0,0,80.423,14.545,42.394,42.394,0,0,0,7.19,7.954c-22.839,28.623-64.151,75.738-98.912,90.092-37.685,15.563-76.1,19.529-100.279,20.259,11.223-32.509,21.293-63,29.78-89.372a43.049,43.049,0,0,0,55.965-37.458ZM1324.78,162.3a42.878,42.878,0,0,0,42.862-39.488,36.351,36.351,0,0,0,5.324.393,35.831,35.831,0,0,0,20.509-6.413,44.353,44.353,0,0,0,80.422,14.545,42.485,42.485,0,0,0,74.51-8.95,47.262,47.262,0,0,0,15.5,8.032c-28.581,70.852-73.2,178.506-114.46,265.6-46.2-41.449-112.235-80.478-144.653-117.862-21.038-24.261-21.7-90.754-18.844-140.262A43,43,0,0,0,1324.78,162.3ZM908.152,122.385a47.435,47.435,0,0,0,53.918,3.079,43.018,43.018,0,0,0,85.444-2.654,36.351,36.351,0,0,0,5.324.393,35.82,35.82,0,0,0,20.507-6.413,44.354,44.354,0,0,0,80.423,14.545,42.485,42.485,0,0,0,74.51-8.95,47.617,47.617,0,0,0,5.894,3.928c-5.157,60.332-3.671,147.141,37.269,198.388,26.443,33.1,89.41,120.527,125.9,171.542-10.122,16.78-19.182,29.5-26.677,36.669-93.062,88.989-351.133,31.146-601.7-20.9-.775-35.879-9.586-72.245-23.92-108.083,39.179-41.43,100.88-108.058,108.126-124.258,11.55-25.821,28.238-96.721,37.021-136.029A42.314,42.314,0,0,0,908.152,122.385Zm-320.127,0a47.436,47.436,0,0,0,53.919,3.079,43.017,43.017,0,0,0,85.443-2.654,36.361,36.361,0,0,0,5.324.393,35.825,35.825,0,0,0,20.508-6.413,44.354,44.354,0,0,0,80.423,14.545A42.407,42.407,0,0,0,859.114,148.5c-11.353,28.506-30.68,74.4-51.243,111.546-20.732,37.455-70.329,62.384-97.741,73.818-41.185-69.588-97.884-134.329-149.777-186A42.357,42.357,0,0,0,588.025,122.385ZM44.273,162.3A42.878,42.878,0,0,0,87.134,122.81a36.371,36.371,0,0,0,5.324.393,35.836,35.836,0,0,0,20.51-6.413,44.352,44.352,0,0,0,80.421,14.545,42.485,42.485,0,0,0,74.51-8.95,47.435,47.435,0,0,0,53.918,3.079,43.018,43.018,0,0,0,85.444-2.654,36.347,36.347,0,0,0,5.323.393,35.829,35.829,0,0,0,20.509-6.413,44.353,44.353,0,0,0,71.8,24.267C639.353,282.97,661.836,421.888,663.538,490.706c-99.464-19.221-193.655-33.915-271.051-33.889-14.488-30.488-16.359-64-15.166-87.719a258.806,258.806,0,0,1,3.906-33.429,34.229,34.229,0,0,0,57.009-25.3,33.693,33.693,0,0,0-1.61-10.331,34.645,34.645,0,0,0,4.135.247,34.153,34.153,0,0,0,31.507-20.75,33.85,33.85,0,0,0-4.752-34.386,34.414,34.414,0,0,0-17.191-11.468c5.8-12.869,2.636-22.636-1.133-28.637-6.354-10.118-19.4-16.916-32.468-16.916a32.235,32.235,0,0,0-14.779,3.4c-7.779-14.038-20.731-22.061-35.717-22.061a40.514,40.514,0,0,0-24.545,8.279,37.135,37.135,0,0,0-13.745,21.256,22.671,22.671,0,0,0-8.43-1.625,24.835,24.835,0,0,0-24.346,25.89,34.092,34.092,0,0,0-21.648,31.618,33.709,33.709,0,0,0,5.325,18.217,34.219,34.219,0,0,0,12.7,11.727,37.937,37.937,0,0,0,52.972,49.236c6.356,28.488,2.817,59.543-1.774,82.027a321.456,321.456,0,0,1-12.581,44.632q-13.014,1.822-24.989,4.556C107.555,510.728,7.149,695.234,7.149,847.681H-263.976l-73.045-171.7c69.54-18.12,268.885-93.379,289.454-231.76C-34.553,356.662-16.6,218.8-5.117,128.909a47.135,47.135,0,0,0,6.809-3.445A42.906,42.906,0,0,0,44.273,162.3Zm-491.138-30.963a42.383,42.383,0,0,0,34.891,18.227,42.363,42.363,0,0,0,39.618-27.177,47.193,47.193,0,0,0,29.173,10.039h0a47.2,47.2,0,0,0,24.746-6.96A42.91,42.91,0,0,0-275.854,162.3a42.88,42.88,0,0,0,42.863-39.488,36.327,36.327,0,0,0,5.323.393,35.817,35.817,0,0,0,20.507-6.413,44.206,44.206,0,0,0,43.255,34.656,44.284,44.284,0,0,0,37.169-20.111,42.386,42.386,0,0,0,34.893,18.227,42.333,42.333,0,0,0,22.906-6.685c-8.2,105.024-29.7,229.089-65.451,294.934-40.584,74.744-256.274,131.9-256.274,131.9C-472.23,453.862-487.894,274.547-487.586,151.3c1.172.093,2.355.146,3.552.146A44.287,44.287,0,0,0-446.865,131.335ZM-748.492,491.271c-2.771-4.035-5.568-7.916-8.385-11.681,43.659-49.754,122.91-143.261,129.985-174.2,6.918-30.248-1.809-117.759-7.557-166.744A43,43,0,0,0-595.982,162.3a43,43,0,0,0,38.216-23.173c-3.063,42.926-4.787,92.525-2.45,141.288,5.255,109.66,96.49,460.871,124.689,567.268H-620.783C-634.436,776.665-674.243,599.4-748.492,491.271Z" fill="#475e47"/>
  <g>
    <path d="M164.056,640.432c90.893-72.943,121.355-208.727,137.26-304.409,17.7-106.5,187.3-377.09,187.3-377.09l-59.757-.257s-77.8,214.042-141.694,221.142S31.866-44.176,31.866-44.176H-28.909S117.3,115.133,167.2,176.268c58.735,71.969,71.955,112.817,48.972,191.706C187.355,466.883,72.264,500.535,4.994,535.512c-44.618-18-91.657-27.087-140.178-22.725a339.733,339.733,0,0,0-94.334,22.406C-309.895,476.66-541.249,369.7-547.234,257.92-554.159,128.6-470.779-27.37-470.779-27.37l-92.355-.731s-58.92,165.709-69.033,278.921C-644.808,392.334-495,623.481-446.88,720.953-510.188,812.02-540.032,898.3-540.032,898.3l195.333.956s67.927-275.669,216.771-268.569S205.553,910.806,205.553,910.806h170.36S292.047,757.072,164.056,640.432Zm-571.689,29.234c-37.242-68.492-107.054-157.943-53.478-186.313,28.116-14.889,125.4,39.442,177.4,78.5C-332.177,590.686-373.374,629.105-407.633,669.666Z" fill="#a87c4f"/>
    <g>
      <path d="M254.55,172.025c-80.127-36.614-222.684-216.2-222.684-216.2H4.353S135.581,125.758,254.55,172.025Z" fill="#825737"/>
      <path d="M164.056,640.432c90.893-72.943,121.355-208.727,137.26-304.409,17.7-106.5,187.3-377.09,187.3-377.09l-14-.06S316.933,192.619,289.716,329.3C262.655,465.193,201.7,567.489,110.8,640.432,238.8,757.072,322.662,910.806,322.662,910.806h53.251S292.047,757.072,164.056,640.432Z" fill="#825737"/>
    </g>
    <path d="M-55.236,620.112s166.04,77.214,273.4,261.4" fill="none" stroke="#8a5d3b" stroke-linecap="round" stroke-linejoin="round" stroke-width="12"/>
    <path d="M258.081,870.946S179.051,750.81,110.8,693.776" fill="none" stroke="#8a5d3b" stroke-linecap="round" stroke-linejoin="round" stroke-width="12"/>
    <path d="M48.233,641.484s116.957-76.058,177.7-186.9" fill="none" stroke="#8a5d3b" stroke-linecap="round" stroke-linejoin="round" stroke-width="12"/>
    <line x1="261.315" y1="373.674" x2="271.373" y2="339.948" fill="none" stroke="#8a5d3b" stroke-linecap="round" stroke-linejoin="round" stroke-width="12"/>
    <path d="M228.772,387.283s28.766-71.267,13.608-123.07c-18.447-63.044-55.776-96.122-62.508-102.954" fill="none" stroke="#8a5d3b" stroke-linecap="round" stroke-linejoin="round" stroke-width="12"/>
    <path d="M247.637,187.294s26.94,18.946,51.841,12.721c17.751-4.438,31.951-27.99,31.951-27.99" fill="none" stroke="#8a5d3b" stroke-linecap="round" stroke-linejoin="round" stroke-width="12"/>
    <path d="M308.354,225.161s-18.821,37.868-31.892,89.64" fill="none" stroke="#8a5d3b" stroke-linecap="round" stroke-linejoin="round" stroke-width="12"/>
    <path d="M162.651,490.088S110.8,534.464,21.978,580.764c0,0-160.616-113.308-329.115,36.269" fill="none" stroke="#8a5d3b" stroke-linecap="round" stroke-linejoin="round" stroke-width="12"/>
    <path d="M-82.158,580.764s48.222,5.918,99.7,39.348" fill="none" stroke="#8a5d3b" stroke-linecap="round" stroke-linejoin="round" stroke-width="12"/>
    <line x1="184.442" y1="468.344" x2="198.596" y2="454.587" fill="none" stroke="#8a5d3b" stroke-linecap="round" stroke-linejoin="round" stroke-width="12"/>
  </g>
  <g>
    <path d="M2084.056,640.432c90.893-72.943,121.355-208.727,137.26-304.409,17.7-106.5,187.3-377.09,187.3-377.09l-59.757-.257s-77.8,214.042-141.694,221.142-255.3-223.994-255.3-223.994h-60.775S2037.3,115.133,2087.2,176.268c58.735,71.969,71.956,112.817,48.973,191.706-28.816,98.909-143.907,132.561-211.177,167.538-44.618-18-91.657-27.087-140.178-22.725a339.733,339.733,0,0,0-94.334,22.406c-80.377-58.533-311.731-165.49-317.716-277.273-6.925-129.315,76.455-285.29,76.455-285.29l-92.355-.731s-58.919,165.709-69.032,278.921C1275.192,392.334,1425,623.481,1473.12,720.953c-63.308,91.067-93.152,177.342-93.152,177.342l195.333.956s67.927-275.669,216.771-268.569,333.481,280.124,333.481,280.124h170.36S2212.047,757.072,2084.056,640.432Zm-571.689,29.234c-37.242-68.492-107.054-157.943-53.478-186.313,28.116-14.889,125.4,39.442,177.4,78.5C1587.823,590.686,1546.626,629.105,1512.367,669.666Z" fill="#a87c4f"/>
    <g>
      <path d="M1421.3-26.9c-22.369,44.163-79.287,181.071-79.287,281.091,0,132.892,318.824,272.437,331.145,269.087C1581.212,462.85,1378.366,362.5,1372.766,257.92c-6.925-129.315,76.455-285.29,76.455-285.29Z" fill="#825737"/>
      <path d="M1522.115,898.991l53.186.26s55.305-254.29,210.176-268.7C1613,615.673,1524.459,889.661,1522.115,898.991Z" fill="#825737"/>
    </g>
    <path d="M1481.649,862.705s109.164-268.584,303.828-260.47" fill="none" stroke="#8a5d3b" stroke-linecap="round" stroke-linejoin="round" stroke-width="12"/>
    <line x1="1820.002" y1="605.727" x2="1837.842" y2="609.401" fill="none" stroke="#8a5d3b" stroke-linecap="round" stroke-linejoin="round" stroke-width="12"/>
    <path d="M1864.764,620.112s166.04,77.214,273.4,261.4" fill="none" stroke="#8a5d3b" stroke-linecap="round" stroke-linejoin="round" stroke-width="12"/>
    <g>
      <path d="M2082.651,490.088s-51.847,44.376-140.673,90.676c0,0-160.616-113.308-329.115,36.269" fill="none" stroke="#8a5d3b" stroke-linecap="round" stroke-linejoin="round" stroke-width="12"/>
      <line x1="1591.855" y1="638.334" x2="1566.414" y2="664.072" fill="none" stroke="#8a5d3b" stroke-linecap="round" stroke-linejoin="round" stroke-width="12"/>
      <path d="M1539.788,695.135s-60.212,69.051-92.163,156.028" fill="none" stroke="#8a5d3b" stroke-linecap="round" stroke-linejoin="round" stroke-width="12"/>
    </g>
    <path d="M1837.842,580.764s48.222,5.918,99.7,39.348" fill="none" stroke="#8a5d3b" stroke-linecap="round" stroke-linejoin="round" stroke-width="12"/>
    <path d="M1359.4,54.281s-48.451,147.213-45.492,223.54c1.217,31.4,18.571,58.61,33.512,78.99" fill="none" stroke="#8a5d3b" stroke-linecap="round" stroke-linejoin="round" stroke-width="12"/>
    <line x1="1359.397" y1="375.153" x2="1372.629" y2="394.235" fill="none" stroke="#8a5d3b" stroke-linecap="round" stroke-linejoin="round" stroke-width="12"/>
    <path d="M1385.054,412.306l46.1,55.594s30.079-52.807,202.409,71.447" fill="none" stroke="#8a5d3b" stroke-linecap="round" stroke-linejoin="round" stroke-width="12"/>
    <path d="M1431.155,595.035s-35.45-61.9-12.375-111.6" fill="none" stroke="#8a5d3b" stroke-linecap="round" stroke-linejoin="round" stroke-width="12"/>
    <path d="M1326.477,368.5s13.063,36.976,56.108,93.457" fill="none" stroke="#8a5d3b" stroke-linecap="round" stroke-linejoin="round" stroke-width="12"/>
    <line x1="1439.76" y1="607.39" x2="1447.625" y2="620.999" fill="none" stroke="#8a5d3b" stroke-linecap="round" stroke-linejoin="round" stroke-width="12"/>
    <line x1="1455.317" y1="638.334" x2="1487.268" y2="692" fill="none" stroke="#8a5d3b" stroke-linecap="round" stroke-linejoin="round" stroke-width="12"/>
  </g>
  <path d="M544.027-12.93s-5.311,288.167-5.421,410.029-218.06,541.3-218.06,541.3l138,6.927S535.666,633.679,673.8,615.7,970.81,927.469,970.81,927.469l145.418-7.062S800.1,492.073,771.94,388.133,811.565-12.93,811.565-12.93Z" fill="#a87c4f"/>
  <g>
    <path d="M771.94,388.133C743.779,284.193,811.565-12.93,811.565-12.93H749.71s-42.932,236.954-5.862,408.985c25.7,119.27,316.711,524.352,316.711,524.352h55.669S800.1,492.073,771.94,388.133Z" fill="#825737"/>
    <path d="M407.309,941.817l51.235,3.5S535.528,622.8,682.3,615.025C666.557,609.262,530.049,576.206,407.309,941.817Z" fill="#825737"/>
  </g>
  <path d="M396.618,894.675S519.445,569.934,663.23,585.167" fill="none" stroke="#8a5d3b" stroke-linecap="round" stroke-linejoin="round" stroke-width="12"/>
  <line x1="396.618" y1="837.227" x2="431.08" y2="766.166" fill="none" stroke="#8a5d3b" stroke-linecap="round" stroke-linejoin="round" stroke-width="12"/>
  <path d="M449.959,724.948s91.364-163.078,103.4-250.89" fill="none" stroke="#8a5d3b" stroke-linecap="round" stroke-linejoin="round" stroke-width="12"/>
  <path d="M706.778,584.647s64.507,9.668,110.456,76.683" fill="none" stroke="#8a5d3b" stroke-linecap="round" stroke-linejoin="round" stroke-width="12"/>
  <path d="M817.234,627.28s103.92,118.277,179.381,261.083" fill="none" stroke="#8a5d3b" stroke-linecap="round" stroke-linejoin="round" stroke-width="12"/>
  <path d="M797.646,603.983s-53.8-47.489-124.151-54.657" fill="none" stroke="#8a5d3b" stroke-linecap="round" stroke-linejoin="round" stroke-width="12"/>
  <path d="M714.693,15.149S660.154,260.8,688.326,366.533s15.948,133.959-1.872,145.505c-16.6,10.76-57.437,15.694-80.117-30.812-19.14-39.247-21.207-122.458-6.48-171.441,15.672-52.126,50.861-56.083,51.526-26.968,1.5,65.8,16.636,121.417,25.646,157.789,10.133,40.906-19.779,70.965-40.648,33.452-12.96-23.3-15.9-69.824-15.9-69.824" fill="none" stroke="#8a5d3b" stroke-linecap="round" stroke-linejoin="round" stroke-width="12"/>
  <line x1="620.476" y1="376.688" x2="620.476" y2="361.157" fill="none" stroke="#8a5d3b" stroke-linecap="round" stroke-linejoin="round" stroke-width="12"/>
  <line x1="561.19" y1="425.623" x2="561.476" y2="382.846" fill="none" stroke="#8a5d3b" stroke-linecap="round" stroke-linejoin="round" stroke-width="12"/>
  <path d="M661.834,29.188s-25.168,120.5-28.551,183.227c0,0-56.285,6.272-71.807,103.044" fill="none" stroke="#8a5d3b" stroke-linecap="round" stroke-linejoin="round" stroke-width="12"/>
  <path d="M600.741,15.149s-16.79,110.811-15.022,157.174" fill="none" stroke="#8a5d3b" stroke-linecap="round" stroke-linejoin="round" stroke-width="12"/>
  <path d="M581.3,495.563s-15.552,64.891-36.494,98.752c0,0,42.68-46.782,93.931-44.99" fill="none" stroke="#8a5d3b" stroke-linecap="round" stroke-linejoin="round" stroke-width="12"/>
  <path d="M735.57,488.4s18.042,30.885,41.9,56.544" fill="none" stroke="#8a5d3b" stroke-linecap="round" stroke-linejoin="round" stroke-width="12"/>
  <g>
    <path d="M932.833-1.808s177.381,300.726,275.65,531.42c51.91,121.861,9.888,371.5,9.888,371.5l42.64,4.529s33.509-284.634,55.119-291.8,393.217,291.8,393.217,291.8h67.481s-507.057-413.256-548.457-494.307c-76.472-149.71-152.088-417.5-152.088-417.5Z" fill="#a87c4f"/>
    <g>
      <path d="M1218.371,901.113l42.64,4.529s22.513-191.236,42.534-264.152C1276.429,706.517,1218.371,901.113,1218.371,901.113Z" fill="#825737"/>
      <path d="M1228.371,411.335c-76.472-149.71-152.088-417.5-152.088-417.5L1033.514-4.3c6.824,23.9,88.016,280.741,174.843,429.923,45.752,78.608,542.845,480.019,542.845,480.019h25.626S1269.771,492.386,1228.371,411.335Z" fill="#825737"/>
    </g>
    <path d="M988.814,15.149s63.07,139.92,142.8,300.31" fill="none" stroke="#8a5d3b" stroke-linecap="round" stroke-linejoin="round" stroke-width="12"/>
    <line x1="1148.602" y1="351.301" x2="1164.508" y2="386.246" fill="none" stroke="#8a5d3b" stroke-linecap="round" stroke-linejoin="round" stroke-width="12"/>
    <path d="M1189.25,436.424s48.974,88.612,60.088,140.23c9.978,46.334,14.335,175.343-8.419,279.254" fill="none" stroke="#8a5d3b" stroke-linecap="round" stroke-linejoin="round" stroke-width="12"/>
    <path d="M1276.429,661.33s10.371-75.567,25.492-80.345c18.056-5.707,109.182,65.181,109.182,65.181" fill="none" stroke="#8a5d3b" stroke-linecap="round" stroke-linejoin="round" stroke-width="12"/>
    <line x1="1430.781" y1="661.33" x2="1455.523" y2="680.744" fill="none" stroke="#8a5d3b" stroke-linecap="round" stroke-linejoin="round" stroke-width="12"/>
    <line x1="1287.777" y1="555.597" x2="1252.652" y2="509.003" fill="none" stroke="#8a5d3b" stroke-linecap="round" stroke-linejoin="round" stroke-width="12"/>
    <line x1="1240.06" y1="492.427" x2="1229.235" y2="478.986" fill="none" stroke="#8a5d3b" stroke-linecap="round" stroke-linejoin="round" stroke-width="12"/>
  </g>
  <g>
    <path d="M575.318,956.655s63.083-153.275,22-265.794H672.7s-43.572,150.422,22.664,265.794Z" fill="#a87c4f"/>
    <path d="M672.7,690.861H659.134S615.561,841.283,681.8,956.655h13.568C629.131,841.283,672.7,690.861,672.7,690.861Z" fill="#825737"/>
    <path d="M657.385,709.79A66.631,66.631,0,0,1,618.8,717.4c-1.166,4.547-5.177,11.244-10.189,16.838,0,0-3.468-28.871-6.887-33.675Z" fill="#825737"/>
    <path d="M610.535,956.655S623.323,851.437,620.067,785c-.57-11.629,1.484-12.419,3.256-12.581,2.015-.182,2.922,5.922,2.931,13.153.074,70.2-8.278,171.087-8.278,171.087Z" fill="#93673f"/>
    <g>
      <path d="M636.779,730.377c.249,3.457-6.9,30.8-2.417,117.141.36,6.92,4.293,4.176,4.727-1.061s-3.506-75.665,3.343-113.361c.862-4.736-.322-8.161-1.843-7.63S636.529,726.925,636.779,730.377Z" fill="#93673f"/>
      <path d="M640.549,870.677c.234,3.324-.591,6.09-1.843,6.178s-2.457-2.535-2.691-5.858.591-6.089,1.843-6.178S640.314,867.353,640.549,870.677Z" fill="#93673f"/>
      <path d="M643.089,886.607c.192,2.726-.476,5-1.492,5.066s-1.992-2.08-2.185-4.8.476-4.991,1.49-5.066S642.9,883.882,643.089,886.607Z" fill="#93673f"/>
    </g>
  </g>
  <g>
    <path d="M1026.541,875.083s43.118-181.682,24.476-256.636c-6.433-25.861-55.369-14.29-75.041-38.386-19.106-23.4-8.323-89.1-8.323-89.1l18.271.4s-3.015,59.629,6.921,66.362c18.894,12.807,52.537,10.735,61.128,9.528,6.782-38.128,6.022-88.541,6.022-88.541l46.973,7.229s-3.254,91.134,22.443,109.2c15.843,11.142,57.452,14.9,72.709,6.845,6.633-6.808,8.75-27.932,7.829-63.646,19.27-.6,18.668,2.472,18.668,2.472s1.539,65.173-11.442,78.241c-14.291,14.382-40.191,12.928-72.468,12.928-52.247,0-8.03,243.106-8.03,243.106Z" fill="#a87c4f"/>
    <g>
      <path d="M1089.975,483.134c-.034,23.626-1.525,63.634,35.248,108.823-20.663-24.245-18.858-106.022-18.858-106.022Z" fill="#825737"/>
      <path d="M1228.016,540.808s-2.011-1.6-8.733-1.568c2.693,18.589,1.758,62.226-8.131,72.178-14.289,14.386-64.84,4.819-78.288,10.944-36.311,16.534-27.484,202.826-21.111,252.721h24.322s-42.055-242.483,8.632-243.106c32.275-.395,58.177,1.454,72.468-12.928C1230.156,605.981,1228.016,540.808,1228.016,540.808Z" fill="#825737"/>
    </g>
    <path d="M1065.315,875.083S1078.936,763,1075.469,692.23c-.608-12.387,1.579-13.228,3.467-13.4,2.15-.194,3.113,6.308,3.121,14.011.081,74.782-8.817,182.243-8.817,182.243Z" fill="#93673f"/>
    <path d="M966.054,552.763s10.433,20.51,18.864,25.929c10.456,6.724,64.011,17.557,69.055,26.3,4.284,7.427,3.719,44.762,3.719,44.762s-5.135-32.2-13.757-40.747c-11.341-11.244-46.872-10.742-61.124-21.986C967.848,575.222,966.054,552.763,966.054,552.763Z" fill="#825737"/>
    <path d="M1100.947,631.61c.006,3.69-9.636,32.21-11.344,124.289-.134,7.378,4.25,4.76,5.1-.775s1.942-80.664,12.044-120.2c1.271-4.968.269-8.7-1.386-8.244S1100.939,627.921,1100.947,631.61Z" fill="#93673f"/>
    <path d="M1080.771,651.374c0,4.655-1.587,8.43-3.542,8.43s-3.543-3.775-3.543-8.43,1.588-8.434,3.543-8.434S1080.771,646.717,1080.771,651.374Z" fill="#93673f"/>
    <path d="M982.107,555.6s2.811,8.433,9.836,11.643,44.964,10.441,46.373,11.044,3.613,4.015-1.808,4.015-41.93-8.356-47.951-12.2c-4.539-2.892-11.058-11.036-12.07-14.5C974.856,550.006,982.107,555.6,982.107,555.6Z" fill="#93673f"/>
    <path d="M1074.891,497.982s-5.3,48.019-4.658,63.242c.6,14.258,7.366,7.23,6.393,0s3.543-58.724,3.543-58.724Z" fill="#93673f"/>
    <path d="M1091.913,578.624c0,6.027-1.551,10.911-3.463,10.911s-3.463-4.884-3.463-10.911,1.55-10.912,3.463-10.912S1091.913,572.6,1091.913,578.624Z" fill="#93673f"/>
  </g>
  <g>
    <path d="M1349.7,494.73c14.009-48.943-25.36-109.926-78.742-104.624,34.178-44.2-28.717-136.873-107.661-111.788a63,63,0,0,0-53.316-29.4c-24.582,0-76.108,10.558-92.62,67.041-71.348-6.066-97.273,53.479-90.98,74.9a50.916,50.916,0,0,0-59.743,50.186c0,1.625.084,3.233.235,4.824a54.337,54.337,0,1,0,50.559,92.313c44.665,19.009,95.076,2.516,130.221-32.465a77.53,77.53,0,0,0,28.471,5.378q3.083,0,6.1-.239a57.461,57.461,0,0,0,80.9,30.982,72.994,72.994,0,0,0,73.944,36.73,55.387,55.387,0,0,0,81.712,9.712,49.582,49.582,0,1,0,30.914-93.55Z" fill="#8baa1d"/>
    <g>
      <path d="M1350.929,457.6c-6.273-31.86-35.893-72.571-79.971-67.489C1310.943,404.914,1335.767,433.973,1350.929,457.6Z" fill="#e3f991"/>
      <path d="M926.381,390.859c-1.63-.16-7.12-.771-8.8-.771-27.336,0-51.506,20.245-50.886,55.031C880.232,411.089,897.246,398.139,926.381,390.859Z" fill="#b5d13f"/>
      <path d="M1030.487,340.466c14.453-56.017,53.786-61.431,79.617-61.431,23.584,0,44.286,11.733,56.025,29.4,51.163-15.471,95.91,13.855,114.268,48.972-2.374-45.214-54.725-98.906-117.1-79.087a63,63,0,0,0-53.316-29.4c-24.582,0-76.108,10.558-92.62,67.041-65.627-5.58-92.822,44.347-91.861,69.063C938.775,363.314,976.25,329.624,1030.487,340.466Z" fill="#b5d13f"/>
    </g>
    <path d="M1339.584,556.715a49.351,49.351,0,0,1-20.8-4.576,55.391,55.391,0,0,1-81.712-9.708,73.77,73.77,0,0,1-10.2.711A72.947,72.947,0,0,1,1163.13,505.7a57.464,57.464,0,0,1-80.9-30.982q-3.02.234-6.1.237a77.591,77.591,0,0,1-28.471-5.376c-35.145,34.982-85.556,51.477-130.221,32.464a54.312,54.312,0,0,1-88.366-21.592,54.324,54.324,0,0,0,88.366,57.732c44.665,19.009,95.076,2.516,130.221-32.465a77.53,77.53,0,0,0,28.471,5.378q3.083,0,6.1-.239a57.461,57.461,0,0,0,80.9,30.982,72.994,72.994,0,0,0,73.944,36.73,55.387,55.387,0,0,0,81.712,9.712,49.581,49.581,0,0,0,66.96-63.08A49.578,49.578,0,0,1,1339.584,556.715Z" fill="#71890e"/>
    <g>
      <path d="M895.666,450.4s-8.61-9.111-2.944-13.919c6.313-5.354,12.465,3.973,12.465,3.973s-3.066-17.86,7.97-17.86c12.433,0,5.329,21.284,5.329,21.284s-1.546-11.988-5.308-11.485-4.975,16-4.975,16-8.741-9.309-11-7.555S895.666,450.4,895.666,450.4Z" fill="#71890e"/>
      <path d="M957.386,460.3s-11.509-4.968-8.2-11.624c3.684-7.415,13.016-1.277,13.016-1.277s-9.868-15.2.266-19.554c11.421-4.915,13.3,17.446,13.3,17.446s-6.157-10.4-9.413-8.457S968.11,453.5,968.11,453.5s-11.707-5.1-13.088-2.594S957.386,460.3,957.386,460.3Z" fill="#71890e"/>
      <path d="M1062.514,326s-6.649-10.625-.147-14.224c7.241-4.007,11.439,6.346,11.439,6.346s.508-18.115,11.326-15.942c12.191,2.447,1.038,21.918,1.038,21.918s.846-12.059-2.941-12.31S1075.2,326.5,1075.2,326.5s-6.737-10.849-9.3-9.57S1062.514,326,1062.514,326Z" fill="#71890e"/>
      <path d="M1197.7,439.769s-1.849-12.4,5.549-13.1c8.24-.782,7.949,10.388,7.949,10.388s7.7-16.4,16.752-10.089c10.2,7.113-7.8,20.508-7.8,20.508s5.592-10.72,2.219-12.46-13.235,10.28-13.235,10.28-1.843-12.635-4.7-12.487S1197.7,439.769,1197.7,439.769Z" fill="#71890e"/>
      <path d="M1316.573,515.162s1.181-12.481,8.531-11.385c8.185,1.224,5.221,12,5.221,12s11.418-14.068,18.685-5.766c8.191,9.357-12.5,18.03-12.5,18.03s8-9.06,5.148-11.561-15.316,6.8-15.316,6.8,1.245-12.709-1.562-13.253S1316.573,515.162,1316.573,515.162Z" fill="#71890e"/>
      <path d="M1267.315,430.842s1.185-12.482,8.533-11.384c8.185,1.224,5.223,12,5.223,12s11.415-14.07,18.683-5.766c8.189,9.354-12.5,18.029-12.5,18.029s8-9.06,5.148-11.56-15.317,6.8-15.317,6.8,1.243-12.711-1.562-13.255S1267.315,430.842,1267.315,430.842Z" fill="#71890e"/>
    </g>
  </g>
  <g>
    <path d="M1736.746,932.629s35.086-147.839,19.917-208.831c-5.235-21.044-45.056-11.629-61.063-31.236-15.546-19.041-6.772-72.5-6.772-72.5l14.867.323s-2.453,48.521,5.632,54c15.375,10.422,42.751,8.735,49.741,7.753,5.519-31.025,4.9-72.048,4.9-72.048l38.223,5.883s-2.648,74.157,18.262,88.86c12.892,9.067,46.75,12.123,59.165,5.57,5.4-5.54,7.121-22.729,6.371-51.79,15.681-.489,15.191,2.011,15.191,2.011s1.252,53.033-9.311,63.667c-11.629,11.7-32.7,10.52-58.969,10.52-42.515,0-6.534,197.821-6.534,197.821Z" fill="#a87c4f"/>
    <g>
      <path d="M1788.364,613.691c-.028,19.225-1.241,51.78,28.682,88.551-16.814-19.729-15.345-86.272-15.345-86.272Z" fill="#825737"/>
      <path d="M1900.691,660.621s-1.636-1.3-7.105-1.276c2.191,15.127,1.43,50.635-6.617,58.733-11.628,11.707-52.762,3.921-63.705,8.9-29.548,13.455-22.364,165.045-17.179,205.646h19.792s-34.222-197.315,7.024-197.821c26.263-.322,47.34,1.183,58.969-10.52C1902.433,713.654,1900.691,660.621,1900.691,660.621Z" fill="#825737"/>
    </g>
    <path d="M1768.3,932.629s11.083-91.2,8.262-148.792c-.494-10.079,1.285-10.764,2.821-10.9,1.75-.158,2.533,5.133,2.54,11.4.066,60.852-7.174,148.3-7.174,148.3Z" fill="#93673f"/>
    <path d="M1687.527,670.35s8.489,16.688,15.35,21.1c8.508,5.471,52.087,14.286,56.191,21.4,3.486,6.044,3.027,36.424,3.027,36.424s-4.179-26.2-11.195-33.157c-9.228-9.15-38.141-8.741-49.738-17.891C1688.987,688.624,1687.527,670.35,1687.527,670.35Z" fill="#825737"/>
    <path d="M1797.292,734.509c.005,3-7.841,26.21-9.23,101.137-.11,6,3.458,3.873,4.152-.63s1.58-65.639,9.8-97.812c1.034-4.043.219-7.076-1.127-6.709S1797.286,731.507,1797.292,734.509Z" fill="#93673f"/>
    <path d="M1780.874,750.591c0,3.789-1.291,6.86-2.882,6.86s-2.883-3.071-2.883-6.86,1.292-6.862,2.883-6.862S1780.874,746.8,1780.874,750.591Z" fill="#93673f"/>
    <path d="M1700.589,672.661s2.288,6.862,8,9.474,36.589,8.5,37.735,8.987,2.94,3.267-1.471,3.267-34.12-6.8-39.019-9.925c-3.694-2.353-9-8.98-9.822-11.8C1694.689,668.106,1700.589,672.661,1700.589,672.661Z" fill="#93673f"/>
    <path d="M1776.09,625.773s-4.314,39.074-3.79,51.461c.489,11.6,5.994,5.883,5.2,0s2.883-47.785,2.883-47.785Z" fill="#93673f"/>
    <path d="M1789.941,691.392c0,4.9-1.262,8.88-2.818,8.88s-2.818-3.975-2.818-8.88,1.261-8.879,2.818-8.879S1789.941,686.487,1789.941,691.392Z" fill="#93673f"/>
  </g>
  <g>
    <path d="M1992.3,618.073c11.4-39.827-20.636-89.451-64.074-85.136,27.811-35.964-23.368-111.376-87.607-90.964a51.259,51.259,0,0,0-43.384-23.923c-20,0-61.932,8.592-75.367,54.554-58.058-4.936-79.154,43.517-74.033,60.946a41.434,41.434,0,0,0-48.615,40.837c0,1.323.069,2.631.191,3.926a44.216,44.216,0,1,0,41.142,75.118c36.345,15.468,77.365,2.047,105.963-26.418a63.106,63.106,0,0,0,23.169,4.376q2.506,0,4.966-.194a46.758,46.758,0,0,0,65.832,25.21,59.395,59.395,0,0,0,60.17,29.888,45.073,45.073,0,0,0,66.492,7.9,40.346,40.346,0,1,0,25.155-76.124Z" fill="#8baa1d"/>
    <g>
      <path d="M1647.837,533.55c-1.327-.13-5.794-.627-7.158-.627-22.244,0-41.912,16.474-41.407,44.78C1610.284,550.011,1624.128,539.474,1647.837,533.55Z" fill="#b5d13f"/>
      <path d="M1732.55,492.544c11.761-45.583,43.767-49.988,64.787-49.988a54.54,54.54,0,0,1,45.589,23.922c41.632-12.589,78.044,11.274,92.982,39.849-1.931-36.791-44.531-80.482-95.287-64.354a51.259,51.259,0,0,0-43.384-23.923c-20,0-61.932,8.592-75.367,54.554-53.4-4.541-75.533,36.086-74.751,56.2C1657.922,511.136,1688.416,483.721,1732.55,492.544Z" fill="#b5d13f"/>
    </g>
    <path d="M1984.07,668.511a40.17,40.17,0,0,1-16.923-3.723,45.074,45.074,0,0,1-66.492-7.9,60.078,60.078,0,0,1-8.3.579A59.359,59.359,0,0,1,1840.485,627a46.76,46.76,0,0,1-65.832-25.211q-2.457.19-4.966.193a63.166,63.166,0,0,1-23.169-4.374c-28.6,28.465-69.618,41.887-105.963,26.416a44.2,44.2,0,0,1-71.906-17.57,44.206,44.206,0,0,0,71.906,46.979c36.345,15.468,77.365,2.047,105.963-26.418a63.106,63.106,0,0,0,23.169,4.376q2.506,0,4.966-.194a46.758,46.758,0,0,0,65.832,25.21,59.395,59.395,0,0,0,60.17,29.888,45.073,45.073,0,0,0,66.492,7.9,40.344,40.344,0,0,0,54.486-51.33A40.342,40.342,0,0,1,1984.07,668.511Z" fill="#71890e"/>
    <g>
      <path d="M1622.843,582s-7.007-7.413-2.395-11.326c5.137-4.357,10.142,3.233,10.142,3.233s-2.494-14.533,6.486-14.533c10.117,0,4.336,17.319,4.336,17.319s-1.258-9.755-4.319-9.346-4.048,13.021-4.048,13.021-7.113-7.575-8.95-6.147S1622.843,582,1622.843,582Z" fill="#71890e"/>
      <path d="M1673.066,590.055s-9.365-4.043-6.675-9.459c3-6.033,10.591-1.039,10.591-1.039s-8.029-12.365.217-15.911c9.293-4,10.827,14.2,10.827,14.2s-5.01-8.466-7.66-6.882,1.427,13.564,1.427,13.564-9.527-4.149-10.65-2.111S1673.066,590.055,1673.066,590.055Z" fill="#71890e"/>
      <path d="M1758.612,480.769s-5.411-8.646-.12-11.574c5.892-3.261,9.308,5.164,9.308,5.164s.414-14.741,9.217-12.973c9.919,1.991.844,17.835.844,17.835s.688-9.812-2.394-10.016-6.532,11.973-6.532,11.973-5.482-8.829-7.566-7.788S1758.612,480.769,1758.612,480.769Z" fill="#71890e"/>
      <path d="M1868.617,573.349s-1.5-10.087,4.516-10.657c6.7-.636,6.468,8.453,6.468,8.453s6.266-13.345,13.631-8.21c8.3,5.788-6.35,16.688-6.35,16.688s4.551-8.723,1.806-10.139-10.77,8.365-10.77,8.365-1.5-10.281-3.823-10.161S1868.617,573.349,1868.617,573.349Z" fill="#71890e"/>
    </g>
  </g>
  <g>
    <path d="M72.3,618.073c11.4-39.827-20.636-89.451-64.074-85.136,27.811-35.964-23.368-111.376-87.607-90.964a51.259,51.259,0,0,0-43.384-23.923c-20,0-61.932,8.592-75.367,54.554-58.058-4.936-79.154,43.517-74.034,60.946a41.749,41.749,0,0,0-7.157-.627,41.46,41.46,0,0,0-41.457,41.464c0,1.323.069,2.631.191,3.926a44.228,44.228,0,0,0-33.27,42.848,44.212,44.212,0,0,0,44.207,44.215,44.04,44.04,0,0,0,30.2-11.945c36.345,15.468,77.365,2.047,105.963-26.418a63.106,63.106,0,0,0,23.169,4.376q2.506,0,4.966-.194a46.764,46.764,0,0,0,43.9,30.671,46.523,46.523,0,0,0,21.929-5.461,59.358,59.358,0,0,0,51.873,30.47,59.613,59.613,0,0,0,8.3-.582,45.073,45.073,0,0,0,66.492,7.9A40.346,40.346,0,1,0,72.3,618.073Z" fill="#8baa1d"/>
    <g>
      <path d="M73.3,587.855C68.2,561.93,44.1,528.8,8.228,532.937,40.765,544.987,60.964,568.632,73.3,587.855Z" fill="#e3f991"/>
      <path d="M-187.45,492.544c11.761-45.583,43.767-49.988,64.787-49.988a54.54,54.54,0,0,1,45.589,23.922C-35.442,453.889.97,477.752,15.908,506.327c-1.931-36.791-44.531-80.482-95.287-64.354a51.259,51.259,0,0,0-43.384-23.923c-20,0-61.932,8.592-75.367,54.554-53.4-4.541-75.533,36.086-74.751,56.2C-262.078,511.136-231.584,483.721-187.45,492.544Z" fill="#b5d13f"/>
    </g>
    <path d="M64.07,668.511a40.17,40.17,0,0,1-16.923-3.723,45.074,45.074,0,0,1-66.492-7.9,60.078,60.078,0,0,1-8.3.579A59.359,59.359,0,0,1-79.515,627a46.534,46.534,0,0,1-21.929,5.46,46.762,46.762,0,0,1-43.9-30.671q-2.457.19-4.966.193a63.166,63.166,0,0,1-23.169-4.374c-28.6,28.465-69.618,41.887-105.963,26.416a44.036,44.036,0,0,1-30.2,11.946,44.221,44.221,0,0,1-41.7-29.516,44.131,44.131,0,0,0-2.506,14.709,44.212,44.212,0,0,0,44.207,44.215,44.04,44.04,0,0,0,30.2-11.945c36.345,15.468,77.365,2.047,105.963-26.418a63.106,63.106,0,0,0,23.169,4.376q2.506,0,4.966-.194a46.764,46.764,0,0,0,43.9,30.671,46.523,46.523,0,0,0,21.929-5.461,59.358,59.358,0,0,0,51.873,30.47,59.613,59.613,0,0,0,8.3-.582,45.073,45.073,0,0,0,66.492,7.9,40.344,40.344,0,0,0,54.486-51.33A40.342,40.342,0,0,1,64.07,668.511Z" fill="#71890e"/>
    <g>
      <path d="M45.345,634.7s.961-10.156,6.943-9.264c6.66,1,4.248,9.761,4.248,9.761s9.291-11.447,15.2-4.691c6.665,7.614-10.174,14.671-10.174,14.671s6.512-7.372,4.19-9.407S53.293,641.3,53.293,641.3s1.013-10.342-1.271-10.784S45.345,634.7,45.345,634.7Z" fill="#71890e"/>
      <path d="M5.263,566.085s.965-10.157,6.944-9.263c6.66,1,4.249,9.761,4.249,9.761s9.29-11.449,15.2-4.692c6.664,7.612-10.172,14.671-10.172,14.671s6.512-7.373,4.189-9.407-12.463,5.533-12.463,5.533,1.011-10.343-1.271-10.785S5.263,566.085,5.263,566.085Z" fill="#71890e"/>
    </g>
  </g>
  <g>
    <path d="M1211.468,919.106s53.635-130.319,18.707-225.987h64.093s-37.046,127.894,19.27,225.987Z" fill="#a87c4f"/>
    <path d="M1294.268,693.119h-11.536S1245.684,821.013,1302,919.106h11.536C1257.222,821.013,1294.268,693.119,1294.268,693.119Z" fill="#825737"/>
    <path d="M1281.245,709.213a56.652,56.652,0,0,1-32.807,6.467c-.992,3.866-4.4,9.56-8.664,14.316,0,0-2.948-24.547-5.855-28.631Z" fill="#825737"/>
    <path d="M1241.411,919.106s10.873-89.46,8.1-145.95c-.484-9.887,1.262-10.559,2.769-10.7,1.713-.155,2.484,5.035,2.492,11.184.063,59.689-7.039,145.463-7.039,145.463Z" fill="#93673f"/>
    <g>
      <path d="M1263.724,726.717c.213,2.939-5.863,26.188-2.055,99.6.307,5.884,3.651,3.55,4.019-.9s-2.98-64.332,2.843-96.383c.732-4.027-.274-6.939-1.567-6.487S1263.512,723.782,1263.724,726.717Z" fill="#93673f"/>
      <path d="M1266.93,846.005c.2,2.826-.5,5.178-1.566,5.252s-2.09-2.155-2.289-4.98.5-5.177,1.567-5.253S1266.73,843.179,1266.93,846.005Z" fill="#93673f"/>
      <path d="M1269.089,859.549c.164,2.318-.4,4.247-1.268,4.308s-1.694-1.769-1.858-4.086.4-4.244,1.268-4.307S1268.926,857.232,1269.089,859.549Z" fill="#93673f"/>
    </g>
  </g>
  <g>
    <path d="M1393.115,563.314c24.572-50.242-37.433-83.175-71.709-63.225-28.449-54.8-100.732-39.34-110.488,11.538-23.892-11.454-51.451,8.738-49.278,35.769a50.154,50.154,0,0,0-4.949,92.182,55.9,55.9,0,0,0,89.509,65.015,56.039,56.039,0,0,0,40.577,6.94,50.142,50.142,0,0,0,85.316-50.2,50.143,50.143,0,0,0,21.022-98.019Z" fill="#8baa1d"/>
    <path d="M1173.727,564.916c-2.174-27.031,21.933-42.866,45.825-31.411,9.756-50.879,73.405-60.167,101.854-5.364,28.251-17.713,73.916,16.423,52.285,52.959,19.228-2.884,32.086-.721,50.749,5.12A50.219,50.219,0,0,0,1393.115,563c24.572-50.246-37.433-83.178-71.709-63.223-28.449-54.805-100.732-39.341-110.488,11.537-23.892-11.456-51.451,8.734-49.278,35.765a50.2,50.2,0,0,0-31,61.337C1135.142,593.11,1147.129,562.992,1173.727,564.916Z" fill="#b5d13f"/>
    <path d="M1427.461,592.777c-7.609,18-25.569,55.148-72.035,44.573,4.806,25.64-12.979,69.711-68.649,45.02a56.022,56.022,0,0,1-40.577-6.94A55.716,55.716,0,0,1,1206.2,692.3c-24.11,0-51.375-20.012-52.5-46.275a55.9,55.9,0,0,0,92.5,58.253,56.034,56.034,0,0,0,40.577,6.941,50.142,50.142,0,0,0,85.316-50.2,50.144,50.144,0,0,0,55.48-68.515C1427.536,592.593,1427.5,592.685,1427.461,592.777Z" fill="#71890e"/>
    <g>
      <path d="M1334.114,564.5s-1.477-9.9,4.428-10.456c6.578-.624,6.347,8.29,6.347,8.29s6.147-13.089,13.37-8.05c8.141,5.679-6.228,16.369-6.228,16.369s4.462-8.557,1.771-9.946-10.564,8.206-10.564,8.206-1.473-10.089-3.751-9.967S1334.114,564.5,1334.114,564.5Z" fill="#71890e"/>
      <path d="M1360.92,600.247s-1.475-9.9,4.429-10.458c6.577-.622,6.346,8.291,6.346,8.291s6.147-13.09,13.37-8.051c8.141,5.679-6.229,16.369-6.229,16.369s4.463-8.555,1.772-9.946-10.564,8.207-10.564,8.207-1.471-10.088-3.75-9.968S1360.92,600.247,1360.92,600.247Z" fill="#71890e"/>
      <path d="M1229.617,666.161s1.476-9.9-4.427-10.456c-6.578-.623-6.347,8.29-6.347,8.29s-6.148-13.089-13.373-8.05c-8.138,5.676,6.23,16.367,6.23,16.367s-4.462-8.555-1.771-9.942,10.564,8.2,10.564,8.2,1.472-10.087,3.752-9.968S1229.617,666.161,1229.617,666.161Z" fill="#71890e"/>
      <path d="M1202.812,637.942s1.475-9.9-4.43-10.458c-6.577-.62-6.345,8.291-6.345,8.291s-6.148-13.09-13.371-8.049c-8.14,5.676,6.229,16.366,6.229,16.366s-4.463-8.553-1.772-9.944,10.564,8.207,10.564,8.207,1.472-10.087,3.751-9.97S1202.812,637.942,1202.812,637.942Z" fill="#71890e"/>
      <path d="M1235.241,559.122s1.475-9.9-4.429-10.456c-6.578-.623-6.345,8.29-6.345,8.29s-6.148-13.09-13.371-8.051c-8.141,5.678,6.229,16.371,6.229,16.371s-4.463-8.559-1.772-9.947,10.564,8.206,10.564,8.206,1.471-10.087,3.751-9.968S1235.241,559.122,1235.241,559.122Z" fill="#71890e"/>
    </g>
  </g>
  <g>
    <path d="M766.579,548.2c26.666-54.521-40.62-90.259-77.816-68.609-30.872-59.472-109.311-42.692-119.9,12.521-25.927-12.431-55.834,9.482-53.475,38.814a54.426,54.426,0,0,0-5.371,100.034,60.66,60.66,0,0,0,97.133,70.552,60.822,60.822,0,0,0,44.033,7.531,54.412,54.412,0,0,0,92.582-54.475A54.414,54.414,0,0,0,766.579,548.2Z" fill="#8baa1d"/>
    <path d="M528.507,549.943c-2.36-29.334,23.8-46.517,49.727-34.086,10.587-55.213,79.657-65.292,110.529-5.821,30.657-19.222,80.212,17.822,56.738,57.469,20.866-3.129,34.819-.782,55.071,5.557a54.492,54.492,0,0,0-33.993-25.2c26.666-54.525-40.62-90.262-77.816-68.607-30.872-59.473-109.311-42.692-119.9,12.519-25.927-12.431-55.834,9.478-53.475,38.812a54.478,54.478,0,0,0-33.64,66.561C486.635,580.538,499.643,547.855,528.507,549.943Z" fill="#b5d13f"/>
    <path d="M803.851,580.177c-8.257,19.528-27.746,59.845-78.171,48.369,5.216,27.823-14.084,75.648-74.495,48.855a60.8,60.8,0,0,1-44.033-7.532,60.459,60.459,0,0,1-43.413,18.3c-26.163,0-55.75-21.716-56.968-50.217a60.658,60.658,0,0,0,100.381,63.216,60.806,60.806,0,0,0,44.033,7.531,54.412,54.412,0,0,0,92.582-54.476,54.417,54.417,0,0,0,60.206-74.351C803.933,579.977,803.894,580.077,803.851,580.177Z" fill="#71890e"/>
    <g>
      <path d="M702.553,549.488s-1.6-10.74,4.806-11.347c7.138-.677,6.887,9,6.887,9s6.671-14.2,14.509-8.735c8.834,6.162-6.759,17.763-6.759,17.763s4.842-9.285,1.923-10.793-11.464,8.905-11.464,8.905-1.6-10.948-4.071-10.816S702.553,549.488,702.553,549.488Z" fill="#71890e"/>
      <path d="M731.642,588.283s-1.6-10.74,4.807-11.349c7.137-.674,6.886,9,6.886,9s6.671-14.2,14.509-8.736c8.834,6.162-6.759,17.763-6.759,17.763s4.842-9.283,1.922-10.793-11.463,8.906-11.463,8.906-1.6-10.947-4.07-10.817S731.642,588.283,731.642,588.283Z" fill="#71890e"/>
      <path d="M589.157,659.811s1.6-10.739-4.805-11.347c-7.138-.676-6.887,9-6.887,9s-6.672-14.2-14.512-8.735c-8.831,6.159,6.761,17.761,6.761,17.761s-4.842-9.284-1.923-10.789,11.464,8.9,11.464,8.9,1.6-10.945,4.072-10.817S589.157,659.811,589.157,659.811Z" fill="#71890e"/>
      <path d="M560.068,629.188s1.6-10.74-4.807-11.348c-7.137-.673-6.885,9-6.885,9s-6.672-14.2-14.511-8.734c-8.833,6.159,6.76,17.759,6.76,17.759s-4.843-9.282-1.922-10.79,11.463,8.9,11.463,8.9,1.6-10.946,4.07-10.819S560.068,629.188,560.068,629.188Z" fill="#71890e"/>
      <path d="M595.26,543.655s1.6-10.738-4.807-11.346c-7.138-.677-6.885,9-6.885,9s-6.672-14.2-14.51-8.737c-8.834,6.162,6.759,17.766,6.759,17.766s-4.842-9.289-1.923-10.795,11.464,8.9,11.464,8.9,1.6-10.945,4.071-10.817S595.26,543.655,595.26,543.655Z" fill="#71890e"/>
    </g>
  </g>
  <rect x="-1104.875" y="884.907" width="4134.815" height="31.595" fill="#475e3b"/>
  <rect x="-1104.875" y="893.474" width="4134.815" height="193.306" fill="#57744b"/>
  <g>
    <ellipse cx="775.185" cy="1017.328" rx="276.559" ry="43.039" fill="#475e3b"/>
    <g>
      <path d="M1236.831,976.1c0,12.886-67.117,23.331-149.911,23.331S937.009,988.99,937.009,976.1s67.118-23.329,149.911-23.329S1236.831,963.22,1236.831,976.1Z" fill="#475e3b"/>
      <path d="M1626.331,999.434c0,12.886-67.118,23.33-149.912,23.33s-149.911-10.444-149.911-23.33,67.118-23.33,149.911-23.33S1626.331,986.55,1626.331,999.434Z" fill="#475e3b"/>
      <path d="M1812.572,1046.037c0,8.362-43.556,15.14-97.283,15.14s-97.283-6.778-97.283-15.14,43.554-15.139,97.283-15.139S1812.572,1037.676,1812.572,1046.037Z" fill="#475e3b"/>
      <ellipse cx="13.145" cy="944.489" rx="148.413" ry="23.097" fill="#475e3b"/>
      <ellipse cx="1933.145" cy="944.489" rx="148.413" ry="23.097" fill="#475e3b"/>
      <path d="M333.853,1006.755c0,9.472-49.339,17.15-110.2,17.15s-110.2-7.678-110.2-17.15,49.339-17.15,110.2-17.15S333.853,997.283,333.853,1006.755Z" fill="#475e3b"/>
      <g>
        <path d="M226.565,937.189c0-4.209-4.359-7.616-9.739-7.616H195.178c-5.375,0-9.738,3.407-9.738,7.616h0c0,4.206,4.363,7.617,9.738,7.617h21.648c5.38,0,9.739-3.411,9.739-7.617Z" fill="#475e3b"/>
        <path d="M274.434,953.9c0-2.63-2.72-4.754-6.078-4.754H254.845c-3.356,0-6.08,2.124-6.08,4.754h0c0,2.624,2.724,4.753,6.08,4.753h13.511c3.358,0,6.078-2.129,6.078-4.753Z" fill="#475e3b"/>
        <path d="M317.621,930.663c0-3.2-3.313-5.788-7.4-5.788H293.763c-4.088,0-7.4,2.587-7.4,5.788h0c0,3.195,3.316,5.791,7.4,5.791h16.454c4.091,0,7.4-2.6,7.4-5.791Z" fill="#475e3b"/>
      </g>
    </g>
  </g>
  <g>
    <path d="M723.806,936.82c1.264-1.322,3.151-.747,4.757-2.075s9.626-.422,12.547.241,19.882-.686,21.508,1.08c1.081,1.176-8.292,3.605-12.5,3.605-2.194,0-4.926.842-8.05.687a54.451,54.451,0,0,1-9.011-.807C729.409,938.888,722.544,938.139,723.806,936.82Z" fill="#3d5131"/>
    <path d="M740.773,936.82c-7.21,0-15.6-4.944-8.03-10.351s8.566-4.445,15.056-2.643,8.793,2.615,9.216,5.886C757.755,935.452,747.982,936.82,740.773,936.82Z" fill="#dbe3ec"/>
    <path d="M756.821,928.794c-1.487,4.1-9.747,5.141-16.048,5.141-4.454,0-9.353-1.887-10.668-4.6-1.041,2.251-1.923,4.377-1.372,6.763,1.468,1.248,7.68,1.953,13.219,1.953,8.666,0,13.161-.449,15.23-1.771.886-2.343.179-3.881-.167-6.565A5.893,5.893,0,0,0,756.821,928.794Z" fill="#9898b7"/>
    <path d="M740.351,930.124c-.176-.038,6.55-.5,8.351-1.33s5.767-.532,3.906.369S742.334,930.544,740.351,930.124Z" fill="#c5d9e3"/>
    <path d="M739.271,927.962s-4.867.6-4.807-.542,1.141-.24,3.666-.359S741.123,927.818,739.271,927.962Z" fill="#c5d9e3"/>
    <path d="M760.575,941.51c.806-.844,2.01-.477,3.034-1.324s6.137-.269,8,.154,12.676-.436,13.712.69c.689.747-5.286,2.3-7.967,2.3-1.4,0-3.141.536-5.133.436a34.633,34.633,0,0,1-5.745-.514C764.148,942.828,759.773,942.352,760.575,941.51Z" fill="#3d5131"/>
    <path d="M771.394,941.51c-4.6,0-9.946-3.152-5.12-6.6s5.461-2.834,9.6-1.684,5.606,1.667,5.876,3.754C782.22,940.638,775.989,941.51,771.394,941.51Z" fill="#dbe3ec"/>
    <path d="M781.625,936.392c-.948,2.612-6.215,3.278-10.231,3.278-2.84,0-5.963-1.2-6.8-2.934a6.558,6.558,0,0,0-.875,4.312c.936.795,4.9,1.245,8.428,1.245,5.525,0,8.39-.287,9.709-1.13.566-1.493.115-2.474-.106-4.184A3.748,3.748,0,0,0,781.625,936.392Z" fill="#9898b7"/>
    <path d="M771.124,937.24c-.111-.024,4.175-.316,5.324-.848s3.677-.339,2.491.236S772.388,937.508,771.124,937.24Z" fill="#c5d9e3"/>
    <path d="M770.435,935.863s-3.1.382-3.064-.346.727-.153,2.337-.229S771.617,935.769,770.435,935.863Z" fill="#c5d9e3"/>
  </g>
  <g>
    <path d="M559.932,1026.117c1.7-1.775,4.234-1,6.393-2.786s12.933-.567,16.858.322,26.712-.921,28.9,1.453c1.452,1.579-11.142,4.844-16.79,4.844-2.95,0-6.619,1.131-10.817.922-5.626-.28-7.205-.191-12.109-1.085S558.239,1027.892,559.932,1026.117Z" fill="#3d5131"/>
    <path d="M582.729,1026.117c-9.686,0-20.96-6.642-10.787-13.907s11.508-5.972,20.228-3.55,11.816,3.513,12.383,7.908C605.548,1024.281,592.416,1026.117,582.729,1026.117Z" fill="#dbe3ec"/>
    <path d="M604.292,1015.333c-2,5.506-13.1,6.91-21.563,6.91-5.984,0-12.565-2.536-14.334-6.187-1.4,3.026-2.583,5.882-1.843,9.09,1.972,1.675,10.319,2.623,17.761,2.623,11.645,0,17.685-.6,20.465-2.381,1.191-3.148.241-5.212-.225-8.82A8,8,0,0,0,604.292,1015.333Z" fill="#9898b7"/>
    <path d="M582.163,1017.121c-.236-.05,8.8-.667,11.223-1.788s7.747-.715,5.246.5S584.826,1017.685,582.163,1017.121Z" fill="#c5d9e3"/>
    <path d="M580.711,1014.216s-6.539.806-6.459-.728,1.533-.322,4.925-.482S583.2,1014.022,580.711,1014.216Z" fill="#c5d9e3"/>
  </g>
  <g>
    <path d="M1562.118,970.669c2.594-2.718,6.477-1.534,9.778-4.263s19.788-.87,25.791.494,40.872-1.409,44.215,2.222c2.223,2.416-17.043,7.41-25.689,7.41-4.512,0-10.127,1.73-16.549,1.41-8.609-.428-11.022-.29-18.526-1.658S1559.524,973.384,1562.118,970.669Z" fill="#3d5131"/>
    <path d="M1597,970.669c-14.821,0-32.069-10.163-16.509-21.278s17.613-9.137,30.952-5.432,18.08,5.375,18.946,12.1C1631.906,967.861,1611.816,970.669,1597,970.669Z" fill="#dbe3ec"/>
    <path d="M1629.986,954.171c-3.055,8.423-20.033,10.569-32.99,10.569-9.156,0-19.227-3.88-21.927-9.463-2.142,4.629-3.958,9-2.822,13.906,3.017,2.56,15.786,4.013,27.17,4.013,17.816,0,27.057-.924,31.312-3.642,1.821-4.817.368-7.975-.344-13.493A12.06,12.06,0,0,0,1629.986,954.171Z" fill="#9898b7"/>
    <path d="M1596.13,956.906c-.362-.076,13.463-1.023,17.168-2.735s11.855-1.092,8.026.759S1600.205,957.77,1596.13,956.906Z" fill="#c5d9e3"/>
    <path d="M1593.907,952.459s-10,1.235-9.88-1.112,2.346-.493,7.534-.74S1597.718,952.164,1593.907,952.459Z" fill="#c5d9e3"/>
    <path d="M1523.075,966.329c1.315-1.377,3.283-.776,4.958-2.161s10.035-.441,13.08.25,20.724-.714,22.419,1.127c1.128,1.226-8.642,3.759-13.027,3.759-2.285,0-5.134.877-8.391.712a56.461,56.461,0,0,1-9.393-.838C1528.914,968.486,1521.759,967.706,1523.075,966.329Z" fill="#3d5131"/>
    <path d="M1540.759,966.329c-7.515,0-16.26-5.154-8.369-10.79s8.931-4.634,15.7-2.753,9.167,2.724,9.607,6.136C1558.465,964.905,1548.276,966.329,1540.759,966.329Z" fill="#dbe3ec"/>
    <path d="M1557.491,957.965c-1.549,4.27-10.161,5.359-16.732,5.359-4.64,0-9.748-1.97-11.118-4.8-1.086,2.348-2.007,4.561-1.43,7.051,1.53,1.3,8,2.037,13.779,2.037,9.034,0,13.719-.47,15.877-1.849.922-2.442.188-4.044-.174-6.841A6.5,6.5,0,0,0,1557.491,957.965Z" fill="#9898b7"/>
    <path d="M1540.322,959.35c-.185-.038,6.825-.518,8.705-1.385s6.012-.557,4.072.383S1542.388,959.788,1540.322,959.35Z" fill="#c5d9e3"/>
    <path d="M1539.2,957.1s-5.075.624-5.012-.565,1.191-.249,3.82-.375S1541.127,956.945,1539.2,957.1Z" fill="#c5d9e3"/>
  </g>
  <g>
    <path d="M1162.987,975.584c1.643-1.718,4.1-.97,6.185-2.7s12.516-.55,16.316.311,25.853-.889,27.968,1.407c1.4,1.528-10.782,4.688-16.251,4.688-2.854,0-6.406,1.094-10.468.892-5.445-.27-6.973-.185-11.719-1.049S1161.346,977.3,1162.987,975.584Z" fill="#3d5131"/>
    <path d="M1185.049,975.584c-9.374,0-20.285-6.428-10.442-13.46s11.14-5.78,19.579-3.436,11.434,3.4,11.984,7.654C1207.133,973.806,1194.423,975.584,1185.049,975.584Z" fill="#dbe3ec"/>
    <path d="M1205.917,965.148c-1.932,5.328-12.674,6.686-20.868,6.686-5.792,0-12.162-2.454-13.873-5.986-1.352,2.928-2.5,5.69-1.783,8.8,1.909,1.62,9.987,2.539,17.189,2.539,11.269,0,17.114-.583,19.8-2.3,1.153-3.046.232-5.045-.217-8.536A7.393,7.393,0,0,0,1205.917,965.148Z" fill="#9898b7"/>
    <path d="M1184.5,966.877c-.229-.048,8.517-.646,10.859-1.729s7.5-.693,5.08.479S1187.079,967.425,1184.5,966.877Z" fill="#c5d9e3"/>
    <path d="M1183.1,964.065s-6.33.78-6.251-.7,1.483-.311,4.767-.467S1185.5,963.878,1183.1,964.065Z" fill="#c5d9e3"/>
    <path d="M1124.739,984.88c1.038-1.088,2.6-.613,3.921-1.709s7.937-.348,10.347.2,16.4-.564,17.738.892c.89.968-6.839,2.972-10.307,2.972-1.81,0-4.062.694-6.639.567a44.768,44.768,0,0,1-7.433-.665C1129.357,986.588,1123.7,985.971,1124.739,984.88Z" fill="#3d5131"/>
    <path d="M1138.729,984.88c-5.945,0-12.865-4.075-6.622-8.535s7.067-3.666,12.416-2.179,7.254,2.156,7.6,4.854C1152.734,983.754,1144.675,984.88,1138.729,984.88Z" fill="#dbe3ec"/>
    <path d="M1151.964,978.262c-1.225,3.379-8.039,4.242-13.235,4.242-3.674,0-7.712-1.557-8.8-3.8-.86,1.859-1.588,3.61-1.132,5.579,1.21,1.027,6.334,1.611,10.9,1.611,7.149,0,10.856-.371,12.561-1.462.732-1.93.149-3.2-.137-5.414A5.014,5.014,0,0,0,1151.964,978.262Z" fill="#9898b7"/>
    <path d="M1138.383,979.359c-.146-.031,5.4-.408,6.886-1.1s4.755-.438,3.221.306S1140.017,979.707,1138.383,979.359Z" fill="#c5d9e3"/>
    <path d="M1137.49,977.578s-4.015.494-3.965-.448.943-.2,3.025-.3S1139.018,977.458,1137.49,977.578Z" fill="#c5d9e3"/>
  </g>
  <path d="M371.1,976.244s14.571-3.254,20.5,7.36c-.62-5.789,1.1-22.191,14.2-28.807,0,0-8.408,13.783-3.86,28.944,0,0,6.478-32.527,34.181-31.563,0,0-23.155,13.783-23.568,32.045,0,0,19.434-23.775,43.829-12.2,0,0-19.847,1.654-32.252,12.818,0,0,15.713-1.24,21.915,7.029,0,0-22.328-3.721-27.29,4.549,0,0-1.359-2.979-3.536-2.979-1.061,0-2.33,2.979-3.707,2.979-2.283,0-5.013-2.887-7.679-2.887-1.7,0-3.309,2.887-4.962,2.887-1.481,0-3.015-2.783-4.342-2.783-1.58,0-2.909,2.783-4.1,2.783C386.632,982.087,371.1,976.244,371.1,976.244Z" fill="#475e3b"/>
  <path d="M1044.282,1058s12.392-2.767,17.433,6.26c-.527-4.923.939-18.874,12.075-24.5,0,0-7.151,11.722-3.283,24.617,0,0,5.51-27.665,29.072-26.846,0,0-19.693,11.723-20.045,27.255,0,0,16.529-20.221,37.278-10.374,0,0-16.881,1.407-27.431,10.9,0,0,13.364-1.056,18.639,5.978,0,0-18.991-3.165-23.211,3.868,0,0-1.155-2.533-3.008-2.533-.9,0-1.982,2.533-3.153,2.533-1.941,0-4.263-2.455-6.531-2.455-1.444,0-2.814,2.455-4.221,2.455-1.259,0-2.564-2.367-3.692-2.367-1.344,0-2.474,2.367-3.485,2.367C1057.495,1062.97,1044.282,1058,1044.282,1058Z" fill="#475e3b"/>
  <path d="M1132.907,1042.1s10.28-2.3,14.462,5.193c-.437-4.084.778-15.657,10.017-20.325,0,0-5.932,9.725-2.723,20.422,0,0,4.571-22.95,24.117-22.27,0,0-16.337,9.724-16.629,22.61,0,0,13.712-16.774,30.925-8.607,0,0-14,1.167-22.756,9.045,0,0,11.087-.876,15.462,4.959,0,0-15.754-2.624-19.254,3.21,0,0-.96-2.1-2.5-2.1-.749,0-1.644,2.1-2.615,2.1-1.611,0-3.537-2.036-5.418-2.036-1.2,0-2.335,2.036-3.5,2.036-1.045,0-2.127-1.964-3.062-1.964-1.116,0-2.053,1.964-2.892,1.964C1143.869,1046.224,1132.907,1042.1,1132.907,1042.1Z" fill="#475e3b"/>
  <path d="M1230.425,943.153s6.411-1.432,9.019,3.237c-.273-2.547.485-9.763,6.245-12.674,0,0-3.7,6.064-1.7,12.735,0,0,2.851-14.311,15.039-13.887,0,0-10.187,6.064-10.37,14.1,0,0,8.551-10.46,19.284-5.367,0,0-8.732.728-14.189,5.64,0,0,6.913-.546,9.641,3.092,0,0-9.824-1.637-12.006,2,0,0-.6-1.311-1.556-1.311-.468,0-1.025,1.311-1.631,1.311-1,0-2.206-1.271-3.379-1.271-.747,0-1.456,1.271-2.183,1.271-.651,0-1.326-1.225-1.91-1.225-.695,0-1.28,1.225-1.8,1.225C1237.261,945.723,1230.425,943.153,1230.425,943.153Z" fill="#475e3b"/>
  <path d="M1278.389,941.9s6.411-1.432,9.018,3.238c-.273-2.547.486-9.764,6.246-12.674,0,0-3.7,6.064-1.7,12.734,0,0,2.851-14.311,15.039-13.886,0,0-10.187,6.063-10.37,14.1,0,0,8.551-10.461,19.284-5.367,0,0-8.732.727-14.189,5.64,0,0,6.912-.546,9.641,3.092,0,0-9.824-1.637-12.006,2,0,0-.6-1.311-1.556-1.311-.468,0-1.025,1.311-1.631,1.311-1,0-2.206-1.27-3.379-1.27-.747,0-1.456,1.27-2.183,1.27-.651,0-1.326-1.224-1.91-1.224-.7,0-1.28,1.224-1.8,1.224C1285.224,944.47,1278.389,941.9,1278.389,941.9Z" fill="#475e3b"/>
  <path d="M450.778,959.877s9.116-2.036,12.824,4.605c-.388-3.622.69-13.884,8.882-18.024,0,0-5.26,8.624-2.414,18.109,0,0,4.052-20.351,21.386-19.747,0,0-14.488,8.623-14.746,20.049,0,0,12.159-14.875,27.422-7.631,0,0-12.418,1.034-20.179,8.02,0,0,9.831-.777,13.712,4.4,0,0-13.97-2.328-17.075,2.846,0,0-.85-1.863-2.212-1.863-.664,0-1.458,1.863-2.32,1.863-1.428,0-3.136-1.806-4.8-1.806-1.063,0-2.07,1.806-3.105,1.806-.926,0-1.886-1.741-2.716-1.741-.989,0-1.82,1.741-2.564,1.741C460.5,963.533,450.778,959.877,450.778,959.877Z" fill="#475e3b"/>
  <g>
    <path d="M81.47,876.123c.764,0,1.515.052,2.264.114A26.983,26.983,0,0,1,105.7,860.2a35.442,35.442,0,0,1,68.739-10.047,24.744,24.744,0,0,1,4.15-1.406,33.333,33.333,0,0,1,64.5,7.673,29.053,29.053,0,0,1,41.374,26.359c0,.718-.056,1.422-.108,2.127H61.6A26.867,26.867,0,0,1,81.47,876.123Z" fill="#b07e09"/>
    <path d="M74.98,880.915H283.872a7.691,7.691,0,0,1,.59,2.929,7.294,7.294,0,0,1-.108,1.063H61.6A38.2,38.2,0,0,1,74.98,880.915Z" fill="#996407"/>
    <path d="M283.566,884.907a29.11,29.11,0,0,0-28.2-21.915c-4.391,0-11.624-.61-15.357,1.132-1.817-16.707-12.876-28.1-30.067-28.1a33.341,33.341,0,0,0-31.348,22.042,24.832,24.832,0,0,0-4.15,1.4,35.47,35.47,0,0,0-33.35-23.447c-18.928,0-29.326,15.205-30.366,33.871-9.732-1.083-22.5,6.548-26.664,15.016H61.6a26.867,26.867,0,0,1,19.875-8.784c.764,0,1.515.052,2.264.114A26.983,26.983,0,0,1,105.7,860.2a35.442,35.442,0,0,1,68.739-10.047,24.744,24.744,0,0,1,4.15-1.406,33.333,33.333,0,0,1,64.5,7.673,29.053,29.053,0,0,1,41.374,26.359c0,.718-.056,1.422-.108,2.127Z" fill="#996407"/>
    <path d="M81.47,876.123c.764,0,1.515.052,2.264.114A26.983,26.983,0,0,1,105.7,860.2a35.442,35.442,0,0,1,68.739-10.047,24.744,24.744,0,0,1,4.15-1.406,33.333,33.333,0,0,1,64.5,7.673,29.053,29.053,0,0,1,41.374,26.359c0,.718-.056,1.422-.108,2.127H61.6A26.867,26.867,0,0,1,81.47,876.123Z" fill="none" stroke="#754c28" stroke-width="3.218"/>
    <path d="M125.751,851.8c1.524-1.11,4.188,0,5.949,2.473a8.667,8.667,0,0,1,.683,1.139c-.181-2.061.6-3.808,1.881-4.03,1.4-.241,2.854,1.433,3.253,3.738a5.891,5.891,0,0,1-.223,3.053,5.48,5.48,0,0,0-.054-1.512c-.335-1.931-1.553-3.329-2.722-3.129-1.059.182-1.712,1.615-1.58,3.316a6.173,6.173,0,0,1,.205,1.148,6.153,6.153,0,0,1-.416-.94,6.67,6.67,0,0,0-.494-.8c-1.475-2.074-3.7-3-4.981-2.072s-1.116,3.365.358,5.439a7.312,7.312,0,0,0,.5.626,8.124,8.124,0,0,1-1.933-1.947C124.418,855.824,124.226,852.915,125.751,851.8Z" fill="#996407"/>
    <path d="M186.059,862.307c1.523-1.112,4.187,0,5.948,2.472a8.517,8.517,0,0,1,.683,1.139c-.18-2.06.6-3.808,1.882-4.029,1.4-.241,2.854,1.432,3.252,3.737a5.9,5.9,0,0,1-.222,3.054,5.488,5.488,0,0,0-.055-1.513c-.334-1.931-1.552-3.328-2.722-3.129-1.059.183-1.711,1.615-1.58,3.316a6.169,6.169,0,0,1,.2,1.149,6.206,6.206,0,0,1-.415-.941,6.987,6.987,0,0,0-.5-.806c-1.474-2.074-3.7-3-4.98-2.07s-1.116,3.365.357,5.438a7.337,7.337,0,0,0,.5.627,8.148,8.148,0,0,1-1.933-1.948C184.726,866.327,184.534,863.418,186.059,862.307Z" fill="#996407"/>
    <path d="M194.429,845.065c1.523-1.11,4.188,0,5.948,2.473a8.578,8.578,0,0,1,.684,1.14c-.181-2.061.6-3.809,1.881-4.029,1.4-.242,2.854,1.432,3.252,3.737a5.893,5.893,0,0,1-.222,3.053,5.527,5.527,0,0,0-.055-1.513c-.334-1.931-1.553-3.328-2.722-3.128-1.059.182-1.711,1.615-1.58,3.316a6.246,6.246,0,0,1,.206,1.148,6.068,6.068,0,0,1-.416-.941,7.2,7.2,0,0,0-.494-.805c-1.475-2.074-3.7-3-4.982-2.071s-1.116,3.365.359,5.439a7.273,7.273,0,0,0,.5.626,8.124,8.124,0,0,1-1.933-1.947C193.1,849.086,192.9,846.177,194.429,845.065Z" fill="#996407"/>
    <path d="M161.312,855.6c-1.291-1.374-4.114-.781-6.3,1.327a8.826,8.826,0,0,0-.883.993c.56-1.992.114-3.854-1.1-4.309-1.328-.5-3.07.878-3.889,3.069a5.887,5.887,0,0,0-.347,3.042,5.547,5.547,0,0,1,.333-1.476c.687-1.835,2.144-2.985,3.255-2.569,1.007.374,1.382,1.9.938,3.55a6.274,6.274,0,0,0-.415,1.091,5.989,5.989,0,0,0,.583-.847,7.138,7.138,0,0,1,.636-.7c1.834-1.763,4.2-2.259,5.278-1.109s.473,3.513-1.36,5.278a7.74,7.74,0,0,1-.61.522,8.147,8.147,0,0,0,2.261-1.556C161.877,859.8,162.6,856.975,161.312,855.6Z" fill="#996407"/>
    <path d="M229.983,847.946c-1.291-1.374-4.114-.781-6.3,1.327a8.818,8.818,0,0,0-.883.992c.56-1.991.114-3.853-1.1-4.308-1.328-.5-3.07.878-3.889,3.069a5.885,5.885,0,0,0-.347,3.042,5.538,5.538,0,0,1,.333-1.476c.687-1.835,2.144-2.985,3.255-2.569,1.007.374,1.382,1.9.939,3.55a6.2,6.2,0,0,0-.416,1.091,6.047,6.047,0,0,0,.583-.847,6.918,6.918,0,0,1,.636-.7c1.834-1.763,4.2-2.26,5.278-1.109s.473,3.513-1.36,5.278a7.74,7.74,0,0,1-.61.522,8.13,8.13,0,0,0,2.261-1.557C230.548,852.143,231.275,849.321,229.983,847.946Z" fill="#996407"/>
  </g>
  <g>
    <g>
      <path d="M113.9,871.74c1.154,0,2.29.078,3.42.173a40.766,40.766,0,0,1,33.189-24.228,53.545,53.545,0,0,1,103.849-15.18,37.485,37.485,0,0,1,6.27-2.124,50.36,50.36,0,0,1,97.444,11.593A43.891,43.891,0,0,1,420.576,881.8c0,1.086-.085,2.148-.162,3.214H83.87A40.593,40.593,0,0,1,113.9,871.74Z" fill="#8baa1d"/>
      <path d="M104.094,878.979H419.685a11.612,11.612,0,0,1,.891,4.425,11.219,11.219,0,0,1-.162,1.606H83.87A57.729,57.729,0,0,1,104.094,878.979Z" fill="#71890e"/>
      <path d="M419.223,885.01a43.979,43.979,0,0,0-42.61-33.109c-6.635,0-17.562-.922-23.2,1.711-2.745-25.241-19.452-42.46-45.424-42.46a50.371,50.371,0,0,0-47.361,33.3,37.482,37.482,0,0,0-6.27,2.123,53.588,53.588,0,0,0-50.386-35.424c-28.595,0-44.3,22.972-45.876,51.172-14.7-1.635-33.986,9.893-40.283,22.686H83.87A40.593,40.593,0,0,1,113.9,871.74c1.154,0,2.29.078,3.42.173a40.766,40.766,0,0,1,33.189-24.228,53.545,53.545,0,0,1,103.849-15.18,37.485,37.485,0,0,1,6.27-2.124,50.36,50.36,0,0,1,97.444,11.593A43.891,43.891,0,0,1,420.576,881.8c0,1.086-.085,2.148-.162,3.214Z" fill="#71890e"/>
      <path d="M180.8,835c2.3-1.677,6.327,0,8.986,3.736a12.992,12.992,0,0,1,1.033,1.722c-.273-3.114.91-5.754,2.842-6.089,2.111-.364,4.312,2.165,4.913,5.647a8.915,8.915,0,0,1-.335,4.614,8.341,8.341,0,0,0-.082-2.285c-.506-2.918-2.347-5.03-4.113-4.727-1.6.274-2.586,2.44-2.387,5.009a9.345,9.345,0,0,1,.31,1.735,9.3,9.3,0,0,1-.628-1.421,10.311,10.311,0,0,0-.747-1.217c-2.228-3.133-5.595-4.534-7.525-3.129s-1.687,5.084.541,8.217a11.009,11.009,0,0,0,.758.946,12.271,12.271,0,0,1-2.92-2.942C178.783,841.072,178.493,836.678,180.8,835Z" fill="#71890e"/>
      <path d="M271.909,850.865c2.3-1.678,6.327,0,8.987,3.737a12.8,12.8,0,0,1,1.032,1.72c-.272-3.113.911-5.752,2.843-6.087,2.111-.365,4.312,2.163,4.913,5.645a8.9,8.9,0,0,1-.335,4.614,8.3,8.3,0,0,0-.082-2.285c-.506-2.917-2.346-5.029-4.113-4.728-1.6.277-2.585,2.441-2.388,5.011a9.267,9.267,0,0,1,.311,1.735,9.258,9.258,0,0,1-.628-1.422,10.6,10.6,0,0,0-.747-1.216c-2.228-3.133-5.6-4.533-7.525-3.129s-1.686,5.084.54,8.216a10.589,10.589,0,0,0,.759.947,12.294,12.294,0,0,1-2.92-2.943C269.9,856.939,269.605,852.544,271.909,850.865Z" fill="#71890e"/>
      <path d="M284.555,824.818c2.3-1.678,6.326-.006,8.987,3.736a13.21,13.21,0,0,1,1.033,1.722c-.274-3.114.911-5.755,2.841-6.088,2.111-.364,4.312,2.164,4.915,5.646a8.92,8.92,0,0,1-.337,4.613,8.3,8.3,0,0,0-.082-2.285c-.5-2.918-2.346-5.029-4.113-4.727-1.6.274-2.585,2.44-2.386,5.01a9.424,9.424,0,0,1,.309,1.735,9.456,9.456,0,0,1-.628-1.422,10.412,10.412,0,0,0-.747-1.216c-2.228-3.133-5.594-4.533-7.525-3.129s-1.687,5.084.541,8.217a11.214,11.214,0,0,0,.759.946,12.258,12.258,0,0,1-2.92-2.943C282.541,830.892,282.25,826.5,284.555,824.818Z" fill="#71890e"/>
      <path d="M234.524,840.734c-1.953-2.076-6.218-1.18-9.525,2a13.148,13.148,0,0,0-1.335,1.5c.846-3.008.172-5.822-1.663-6.509-2.006-.75-4.639,1.326-5.875,4.636a8.891,8.891,0,0,0-.525,4.6,8.35,8.35,0,0,1,.5-2.23c1.037-2.772,3.238-4.509,4.916-3.881,1.522.565,2.089,2.876,1.418,5.363a9.491,9.491,0,0,0-.626,1.649,9.182,9.182,0,0,0,.88-1.28,10.75,10.75,0,0,1,.961-1.06c2.77-2.663,6.339-3.414,7.974-1.676s.714,5.308-2.055,7.974a11.947,11.947,0,0,1-.921.788,12.3,12.3,0,0,0,3.414-2.351C235.376,847.075,236.476,842.811,234.524,840.734Z" fill="#71890e"/>
      <path d="M338.271,829.171c-1.952-2.077-6.217-1.18-9.524,2a13.053,13.053,0,0,0-1.335,1.5c.845-3.009.171-5.822-1.664-6.509-2.006-.751-4.638,1.326-5.875,4.637a8.909,8.909,0,0,0-.525,4.6,8.305,8.305,0,0,1,.5-2.231c1.037-2.771,3.238-4.509,4.916-3.881,1.522.565,2.089,2.876,1.418,5.364a9.372,9.372,0,0,0-.626,1.648,9.3,9.3,0,0,0,.879-1.28,10.762,10.762,0,0,1,.961-1.06c2.77-2.664,6.34-3.414,7.974-1.677s.715,5.309-2.055,7.974a11.565,11.565,0,0,1-.921.789,12.3,12.3,0,0,0,3.417-2.351C339.124,835.51,340.223,831.247,338.271,829.171Z" fill="#71890e"/>
    </g>
    <g>
      <path d="M1566.976,871.74c-1.154,0-2.29.078-3.42.173a40.767,40.767,0,0,0-33.189-24.228,53.545,53.545,0,0,0-103.849-15.18,37.516,37.516,0,0,0-6.27-2.124,50.36,50.36,0,0,0-97.444,11.593A43.892,43.892,0,0,0,1260.3,881.8c0,1.086.085,2.148.163,3.214H1597A40.591,40.591,0,0,0,1566.976,871.74Z" fill="#8baa1d"/>
      <path d="M1576.78,878.979H1261.189a11.613,11.613,0,0,0-.892,4.425,11.078,11.078,0,0,0,.163,1.606H1597A57.716,57.716,0,0,0,1576.78,878.979Z" fill="#71890e"/>
      <path d="M1261.651,885.01a43.979,43.979,0,0,1,42.61-33.109c6.635,0,17.561-.922,23.2,1.711,2.745-25.241,19.452-42.46,45.424-42.46a50.371,50.371,0,0,1,47.361,33.3,37.513,37.513,0,0,1,6.27,2.123,53.588,53.588,0,0,1,50.385-35.424c28.6,0,44.305,22.972,45.876,51.172,14.7-1.635,33.986,9.893,40.284,22.686H1597a40.591,40.591,0,0,0-30.027-13.27c-1.154,0-2.29.078-3.42.173a40.767,40.767,0,0,0-33.189-24.228,53.545,53.545,0,0,0-103.849-15.18,37.516,37.516,0,0,0-6.27-2.124,50.36,50.36,0,0,0-97.444,11.593A43.892,43.892,0,0,0,1260.3,881.8c0,1.086.085,2.148.163,3.214Z" fill="#71890e"/>
      <path d="M1500.076,835c-2.3-1.677-6.327,0-8.987,3.736a12.983,12.983,0,0,0-1.032,1.722c.273-3.114-.911-5.754-2.842-6.089-2.111-.364-4.312,2.165-4.914,5.647a8.915,8.915,0,0,0,.336,4.614,8.3,8.3,0,0,1,.082-2.285c.506-2.918,2.346-5.03,4.113-4.727,1.6.274,2.585,2.44,2.386,5.009a9.424,9.424,0,0,0-.309,1.735,9.3,9.3,0,0,0,.628-1.421,10.3,10.3,0,0,1,.746-1.217c2.229-3.133,5.6-4.534,7.526-3.129s1.686,5.084-.541,8.217a11.409,11.409,0,0,1-.758.946,12.267,12.267,0,0,0,2.919-2.942C1502.09,841.072,1502.381,836.678,1500.076,835Z" fill="#71890e"/>
      <path d="M1408.965,850.865c-2.3-1.678-6.328,0-8.987,3.737a12.8,12.8,0,0,0-1.032,1.72c.272-3.113-.912-5.752-2.843-6.087-2.111-.365-4.312,2.163-4.914,5.645a8.9,8.9,0,0,0,.336,4.614,8.3,8.3,0,0,1,.082-2.285c.506-2.917,2.345-5.029,4.112-4.728,1.6.277,2.586,2.441,2.388,5.011a9.345,9.345,0,0,0-.31,1.735,9.258,9.258,0,0,0,.628-1.422,10.33,10.33,0,0,1,.747-1.216c2.228-3.133,5.6-4.533,7.525-3.129s1.686,5.084-.541,8.216a10.761,10.761,0,0,1-.758.947,12.312,12.312,0,0,0,2.92-2.943C1410.978,856.939,1411.268,852.544,1408.965,850.865Z" fill="#71890e"/>
      <path d="M1396.318,824.818c-2.3-1.678-6.326-.006-8.986,3.736a13.1,13.1,0,0,0-1.033,1.722c.273-3.114-.911-5.755-2.841-6.088-2.111-.364-4.312,2.164-4.915,5.646a8.909,8.909,0,0,0,.337,4.613,8.3,8.3,0,0,1,.082-2.285c.505-2.918,2.346-5.029,4.113-4.727,1.6.274,2.585,2.44,2.386,5.01a9.34,9.34,0,0,0-.309,1.735,9.456,9.456,0,0,0,.628-1.422,10.54,10.54,0,0,1,.746-1.216c2.229-3.133,5.6-4.533,7.526-3.129s1.686,5.084-.542,8.217a11.205,11.205,0,0,1-.758.946,12.276,12.276,0,0,0,2.92-2.943C1398.333,830.892,1398.623,826.5,1396.318,824.818Z" fill="#71890e"/>
      <path d="M1446.35,840.734c1.952-2.076,6.217-1.18,9.524,2a13.053,13.053,0,0,1,1.335,1.5c-.845-3.008-.171-5.822,1.664-6.509,2.006-.75,4.638,1.326,5.875,4.636a8.891,8.891,0,0,1,.525,4.6,8.35,8.35,0,0,0-.5-2.23c-1.038-2.772-3.239-4.509-4.917-3.881-1.521.565-2.089,2.876-1.418,5.363a9.411,9.411,0,0,1,.626,1.649,9.265,9.265,0,0,1-.879-1.28,10.877,10.877,0,0,0-.961-1.06c-2.77-2.663-6.34-3.414-7.974-1.676s-.715,5.308,2.055,7.974a11.761,11.761,0,0,0,.921.788,12.318,12.318,0,0,1-3.415-2.351C1445.5,847.075,1444.4,842.811,1446.35,840.734Z" fill="#71890e"/>
      <path d="M1342.6,829.171c1.952-2.077,6.217-1.18,9.524,2a13.053,13.053,0,0,1,1.335,1.5c-.845-3.009-.172-5.822,1.663-6.509,2.006-.751,4.639,1.326,5.875,4.637a8.888,8.888,0,0,1,.525,4.6,8.3,8.3,0,0,0-.5-2.231c-1.037-2.771-3.238-4.509-4.916-3.881-1.522.565-2.089,2.876-1.418,5.364a9.372,9.372,0,0,1,.626,1.648,9.3,9.3,0,0,1-.88-1.28,10.75,10.75,0,0,0-.96-1.06c-2.771-2.664-6.34-3.414-7.975-1.677s-.714,5.309,2.055,7.974a11.745,11.745,0,0,0,.921.789,12.294,12.294,0,0,1-3.416-2.351C1341.75,835.51,1340.651,831.247,1342.6,829.171Z" fill="#71890e"/>
    </g>
    <g>
      <path d="M539.206,871.74c1.155,0,2.29.078,3.421.173a40.765,40.765,0,0,1,33.188-24.228,53.545,53.545,0,0,1,103.849-15.18,37.5,37.5,0,0,1,6.271-2.124,50.359,50.359,0,0,1,97.443,11.593A43.892,43.892,0,0,1,845.885,881.8c0,1.086-.085,2.148-.162,3.214H509.179A40.593,40.593,0,0,1,539.206,871.74Z" fill="#8baa1d"/>
      <path d="M529.4,878.979H844.994a11.631,11.631,0,0,1,.891,4.425,11.219,11.219,0,0,1-.162,1.606H509.179A57.729,57.729,0,0,1,529.4,878.979Z" fill="#71890e"/>
      <path d="M844.532,885.01A43.98,43.98,0,0,0,801.921,851.9c-6.634,0-17.561-.922-23.2,1.711-2.745-25.241-19.451-42.46-45.424-42.46a50.37,50.37,0,0,0-47.36,33.3,37.493,37.493,0,0,0-6.271,2.123,53.586,53.586,0,0,0-50.385-35.424c-28.6,0-44.3,22.972-45.876,51.172-14.7-1.635-33.986,9.893-40.283,22.686H509.179a40.593,40.593,0,0,1,30.027-13.27c1.155,0,2.29.078,3.421.173a40.765,40.765,0,0,1,33.188-24.228,53.545,53.545,0,0,1,103.849-15.18,37.5,37.5,0,0,1,6.271-2.124,50.359,50.359,0,0,1,97.443,11.593A43.892,43.892,0,0,1,845.885,881.8c0,1.086-.085,2.148-.162,3.214Z" fill="#71890e"/>
      <path d="M606.106,835c2.3-1.677,6.327,0,8.987,3.736a13.1,13.1,0,0,1,1.033,1.722c-.273-3.114.91-5.754,2.842-6.089,2.11-.364,4.312,2.165,4.913,5.647a8.915,8.915,0,0,1-.335,4.614,8.343,8.343,0,0,0-.083-2.285c-.5-2.918-2.346-5.03-4.113-4.727-1.6.274-2.585,2.44-2.386,5.009a9.428,9.428,0,0,1,.31,1.735,9.3,9.3,0,0,1-.629-1.421,10.17,10.17,0,0,0-.746-1.217c-2.228-3.133-5.6-4.534-7.526-3.129s-1.686,5.084.542,8.217a11.009,11.009,0,0,0,.758.946,12.271,12.271,0,0,1-2.92-2.942C604.092,841.072,603.8,836.678,606.106,835Z" fill="#71890e"/>
      <path d="M697.218,850.865c2.3-1.678,6.327,0,8.986,3.737a12.589,12.589,0,0,1,1.032,1.72c-.271-3.113.912-5.752,2.844-6.087,2.11-.365,4.311,2.163,4.913,5.645a8.912,8.912,0,0,1-.335,4.614,8.305,8.305,0,0,0-.083-2.285c-.506-2.917-2.345-5.029-4.112-4.728-1.6.277-2.585,2.441-2.388,5.011a9.183,9.183,0,0,1,.31,1.735,9.16,9.16,0,0,1-.627-1.422,10.6,10.6,0,0,0-.747-1.216c-2.228-3.133-5.6-4.533-7.525-3.129s-1.686,5.084.54,8.216a10.589,10.589,0,0,0,.759.947,12.294,12.294,0,0,1-2.92-2.943C695.2,856.939,694.914,852.544,697.218,850.865Z" fill="#71890e"/>
      <path d="M709.864,824.818c2.3-1.678,6.326-.006,8.986,3.736a12.992,12.992,0,0,1,1.033,1.722c-.273-3.114.911-5.755,2.842-6.088,2.111-.364,4.312,2.164,4.914,5.646a8.92,8.92,0,0,1-.336,4.613,8.3,8.3,0,0,0-.082-2.285c-.5-2.918-2.347-5.029-4.114-4.727-1.6.274-2.584,2.44-2.386,5.01a9.428,9.428,0,0,1,.31,1.735,9.456,9.456,0,0,1-.628-1.422,10.691,10.691,0,0,0-.747-1.216c-2.228-3.133-5.595-4.533-7.525-3.129s-1.687,5.084.541,8.217a11.018,11.018,0,0,0,.759.946,12.239,12.239,0,0,1-2.92-2.943C707.85,830.892,707.559,826.5,709.864,824.818Z" fill="#71890e"/>
      <path d="M659.832,840.734c-1.952-2.076-6.217-1.18-9.524,2a13.053,13.053,0,0,0-1.335,1.5c.845-3.008.171-5.822-1.663-6.509-2.007-.75-4.639,1.326-5.876,4.636a8.913,8.913,0,0,0-.525,4.6,8.315,8.315,0,0,1,.5-2.23c1.037-2.772,3.238-4.509,4.916-3.881,1.522.565,2.089,2.876,1.418,5.363a9.411,9.411,0,0,0-.626,1.649,9.093,9.093,0,0,0,.879-1.28,10.877,10.877,0,0,1,.961-1.06c2.771-2.663,6.34-3.414,7.975-1.676s.714,5.308-2.055,7.974a11.947,11.947,0,0,1-.921.788,12.314,12.314,0,0,0,3.414-2.351C660.685,847.075,661.784,842.811,659.832,840.734Z" fill="#71890e"/>
      <path d="M763.58,829.171c-1.952-2.077-6.217-1.18-9.524,2a13.053,13.053,0,0,0-1.335,1.5c.845-3.009.171-5.822-1.664-6.509-2.006-.751-4.638,1.326-5.875,4.637a8.888,8.888,0,0,0-.525,4.6,8.34,8.34,0,0,1,.5-2.231c1.038-2.771,3.239-4.509,4.916-3.881,1.522.565,2.09,2.876,1.419,5.364a9.458,9.458,0,0,0-.627,1.648,9.3,9.3,0,0,0,.88-1.28,10.762,10.762,0,0,1,.961-1.06c2.77-2.664,6.34-3.414,7.974-1.677s.714,5.309-2.055,7.974a11.565,11.565,0,0,1-.921.789,12.279,12.279,0,0,0,3.416-2.351C764.432,835.51,765.532,831.247,763.58,829.171Z" fill="#71890e"/>
    </g>
    <g>
      <path d="M944.821,874c.958,0,1.9.065,2.837.143a33.816,33.816,0,0,1,27.529-20.1,44.414,44.414,0,0,1,86.14-12.591,31.053,31.053,0,0,1,5.2-1.762,41.772,41.772,0,0,1,80.827,9.616,36.407,36.407,0,0,1,51.847,33.031c0,.9-.07,1.782-.134,2.666H919.914A33.673,33.673,0,0,1,944.821,874Z" fill="#8baa1d"/>
      <path d="M936.689,880.007h261.774a9.641,9.641,0,0,1,.739,3.671,9.277,9.277,0,0,1-.134,1.332H919.914A47.873,47.873,0,0,1,936.689,880.007Z" fill="#71890e"/>
      <path d="M1198.08,885.01a36.48,36.48,0,0,0-35.344-27.463c-5.5,0-14.567-.765-19.246,1.419-2.277-20.936-16.134-35.219-37.678-35.219a41.781,41.781,0,0,0-39.284,27.622,31.05,31.05,0,0,0-5.2,1.761,44.449,44.449,0,0,0-41.793-29.383c-23.719,0-36.749,19.054-38.053,42.445-12.2-1.356-28.19,8.207-33.414,18.818H919.914A33.673,33.673,0,0,1,944.821,874c.958,0,1.9.065,2.837.143a33.816,33.816,0,0,1,27.529-20.1,44.414,44.414,0,0,1,86.14-12.591,31.053,31.053,0,0,1,5.2-1.762,41.772,41.772,0,0,1,80.827,9.616,36.407,36.407,0,0,1,51.847,33.031c0,.9-.07,1.782-.134,2.666Z" fill="#71890e"/>
      <path d="M1000.313,843.526c1.909-1.391,5.248,0,7.454,3.1a10.786,10.786,0,0,1,.857,1.427c-.227-2.582.755-4.772,2.357-5.05,1.751-.3,3.577,1.8,4.075,4.684a7.4,7.4,0,0,1-.278,3.827,6.865,6.865,0,0,0-.068-1.895c-.42-2.42-1.946-4.173-3.412-3.921-1.326.227-2.144,2.024-1.979,4.155a7.877,7.877,0,0,1,.257,1.439,7.584,7.584,0,0,1-.521-1.179,8.5,8.5,0,0,0-.62-1.009c-1.848-2.6-4.641-3.761-6.242-2.6s-1.4,4.217.449,6.816a9.154,9.154,0,0,0,.629.785,10.187,10.187,0,0,1-2.422-2.44C998.642,848.565,998.4,844.92,1000.313,843.526Z" fill="#71890e"/>
      <path d="M1075.887,856.688c1.91-1.392,5.248,0,7.454,3.1a10.505,10.505,0,0,1,.856,1.427c-.225-2.582.757-4.771,2.358-5.049,1.751-.3,3.577,1.794,4.076,4.683a7.4,7.4,0,0,1-.278,3.827,6.9,6.9,0,0,0-.068-1.895c-.42-2.42-1.946-4.172-3.411-3.922-1.328.229-2.145,2.024-1.981,4.156a7.644,7.644,0,0,1,.257,1.439,7.581,7.581,0,0,1-.52-1.179,8.72,8.72,0,0,0-.62-1.009c-1.848-2.6-4.642-3.76-6.242-2.6s-1.4,4.217.448,6.815a9.163,9.163,0,0,0,.63.785,10.192,10.192,0,0,1-2.422-2.441C1074.217,861.726,1073.976,858.081,1075.887,856.688Z" fill="#71890e"/>
      <path d="M1086.377,835.083c1.909-1.392,5.247-.006,7.454,3.1a10.852,10.852,0,0,1,.856,1.428c-.226-2.583.756-4.773,2.357-5.049,1.751-.3,3.577,1.794,4.077,4.683a7.4,7.4,0,0,1-.279,3.826,6.946,6.946,0,0,0-.068-1.895c-.419-2.42-1.947-4.171-3.412-3.921-1.326.228-2.144,2.024-1.979,4.156a7.8,7.8,0,0,1,.256,1.439,7.923,7.923,0,0,1-.521-1.179,8.574,8.574,0,0,0-.619-1.009c-1.848-2.6-4.641-3.76-6.242-2.6s-1.4,4.217.449,6.816a9.154,9.154,0,0,0,.629.785,10.192,10.192,0,0,1-2.422-2.441C1084.706,840.12,1084.465,836.475,1086.377,835.083Z" fill="#71890e"/>
      <path d="M1044.877,848.285c-1.619-1.723-5.157-.979-7.9,1.662a10.822,10.822,0,0,0-1.108,1.244c.7-2.5.143-4.829-1.379-5.4-1.664-.622-3.848,1.1-4.874,3.845a7.392,7.392,0,0,0-.435,3.813,6.9,6.9,0,0,1,.418-1.85c.861-2.3,2.686-3.741,4.078-3.22,1.262.469,1.733,2.386,1.176,4.449a7.917,7.917,0,0,0-.519,1.367,7.649,7.649,0,0,0,.73-1.061,8.923,8.923,0,0,1,.8-.88c2.3-2.208,5.258-2.831,6.614-1.39s.593,4.4-1.7,6.615a10.017,10.017,0,0,1-.763.654,10.222,10.222,0,0,0,2.832-1.951C1045.584,853.544,1046.5,850.007,1044.877,848.285Z" fill="#71890e"/>
      <path d="M1130.932,838.693c-1.619-1.723-5.157-.979-7.9,1.662a10.992,10.992,0,0,0-1.107,1.244c.7-2.5.142-4.829-1.38-5.4-1.664-.623-3.847,1.1-4.873,3.846a7.365,7.365,0,0,0-.435,3.812,6.91,6.91,0,0,1,.418-1.851c.86-2.3,2.686-3.739,4.078-3.218,1.262.468,1.733,2.385,1.176,4.449a7.7,7.7,0,0,0-.519,1.367,7.689,7.689,0,0,0,.729-1.062,8.914,8.914,0,0,1,.8-.879c2.3-2.21,5.259-2.832,6.615-1.391s.592,4.4-1.7,6.614a9.6,9.6,0,0,1-.764.654,10.2,10.2,0,0,0,2.834-1.95C1131.64,843.951,1132.552,840.415,1130.932,838.693Z" fill="#71890e"/>
    </g>
    <g>
      <path d="M187.491,875.2c-.853,0-1.693.057-2.528.127a30.129,30.129,0,0,0-24.528-17.906,39.573,39.573,0,0,0-76.751-11.218,27.736,27.736,0,0,0-4.634-1.57A37.219,37.219,0,0,0,7.033,853.2a32.3,32.3,0,0,0-13.7-3.062,32.491,32.491,0,0,0-32.492,32.492c0,.8.063,1.588.12,2.376H209.683A30,30,0,0,0,187.491,875.2Z" fill="#8baa1d"/>
      <path d="M194.737,880.552H-38.5a8.6,8.6,0,0,0-.659,3.271,8.274,8.274,0,0,0,.12,1.187H209.683A42.67,42.67,0,0,0,194.737,880.552Z" fill="#71890e"/>
      <path d="M-38.163,885.01A32.5,32.5,0,0,1-6.671,860.541c4.9,0,12.979-.682,17.147,1.264,2.029-18.654,14.376-31.381,33.571-31.381a37.228,37.228,0,0,1,35,24.612,27.642,27.642,0,0,1,4.634,1.569,39.6,39.6,0,0,1,37.238-26.181c21.133,0,32.743,16.978,33.905,37.819,10.865-1.208,25.117,7.313,29.772,16.767h25.084a30,30,0,0,0-22.192-9.807c-.853,0-1.693.057-2.528.127a30.129,30.129,0,0,0-24.528-17.906,39.573,39.573,0,0,0-76.751-11.218,27.736,27.736,0,0,0-4.634-1.57A37.219,37.219,0,0,0,7.033,853.2a32.3,32.3,0,0,0-13.7-3.062,32.491,32.491,0,0,0-32.492,32.492c0,.8.063,1.588.12,2.376Z" fill="#71890e"/>
      <path d="M138.048,848.048c-1.7-1.239-4.676,0-6.642,2.762a9.473,9.473,0,0,0-.763,1.272c.2-2.3-.673-4.253-2.1-4.5-1.559-.269-3.186,1.6-3.631,4.174a6.593,6.593,0,0,0,.248,3.409,6.146,6.146,0,0,1,.061-1.689c.374-2.156,1.734-3.717,3.04-3.493,1.182.2,1.91,1.8,1.763,3.7a6.984,6.984,0,0,0-.229,1.282,6.842,6.842,0,0,0,.465-1.05,7.638,7.638,0,0,1,.551-.9c1.647-2.316,4.136-3.351,5.562-2.313s1.247,3.757-.4,6.073a8.157,8.157,0,0,1-.56.7,9.076,9.076,0,0,0,2.158-2.174C139.536,852.538,139.751,849.289,138.048,848.048Z" fill="#71890e"/>
      <path d="M70.711,859.775c-1.7-1.241-4.676,0-6.642,2.762a9.351,9.351,0,0,0-.762,1.271c.2-2.3-.674-4.252-2.1-4.5-1.56-.27-3.186,1.6-3.631,4.172a6.583,6.583,0,0,0,.248,3.41,6.1,6.1,0,0,1,.061-1.688c.374-2.156,1.733-3.717,3.039-3.494,1.183.2,1.911,1.8,1.765,3.7a6.834,6.834,0,0,0-.23,1.283,6.663,6.663,0,0,0,.464-1.051,7.816,7.816,0,0,1,.552-.9c1.647-2.315,4.136-3.35,5.562-2.312s1.246,3.757-.4,6.072a7.682,7.682,0,0,1-.56.7,9.076,9.076,0,0,0,2.158-2.174C72.2,864.264,72.414,861.016,70.711,859.775Z" fill="#71890e"/>
      <path d="M61.365,840.525c-1.7-1.241-4.676,0-6.642,2.76a9.718,9.718,0,0,0-.763,1.273c.2-2.3-.674-4.253-2.1-4.5-1.56-.269-3.187,1.6-3.632,4.172a6.6,6.6,0,0,0,.248,3.41,6.184,6.184,0,0,1,.061-1.689c.373-2.156,1.734-3.717,3.04-3.493,1.181.2,1.91,1.8,1.763,3.7a6.9,6.9,0,0,0-.228,1.282,6.983,6.983,0,0,0,.464-1.05,7.678,7.678,0,0,1,.552-.9c1.646-2.315,4.135-3.35,5.561-2.313s1.247,3.758-.4,6.073a8.157,8.157,0,0,1-.56.7,9.076,9.076,0,0,0,2.158-2.174C62.853,845.013,63.068,841.765,61.365,840.525Z" fill="#71890e"/>
      <path d="M98.341,852.288c1.443-1.535,4.6-.872,7.039,1.481a9.739,9.739,0,0,1,.987,1.108c-.625-2.223-.127-4.3,1.229-4.81,1.483-.555,3.428.98,4.342,3.426a6.573,6.573,0,0,1,.388,3.4,6.119,6.119,0,0,0-.373-1.648c-.766-2.049-2.393-3.333-3.633-2.869-1.125.418-1.544,2.125-1.048,3.964a7.035,7.035,0,0,1,.463,1.218,6.777,6.777,0,0,1-.65-.945,8.083,8.083,0,0,0-.71-.784c-2.048-1.968-4.686-2.523-5.894-1.239s-.528,3.923,1.519,5.893a8.73,8.73,0,0,0,.681.583,9.077,9.077,0,0,1-2.524-1.738C97.711,856.974,96.9,853.822,98.341,852.288Z" fill="#71890e"/>
      <path d="M21.665,843.741c1.443-1.534,4.6-.872,7.039,1.482a9.56,9.56,0,0,1,.987,1.108c-.625-2.224-.127-4.3,1.229-4.811,1.483-.555,3.428.98,4.343,3.427a6.579,6.579,0,0,1,.388,3.4,6.165,6.165,0,0,0-.373-1.648c-.767-2.048-2.393-3.332-3.634-2.868-1.124.417-1.544,2.125-1.048,3.964a6.925,6.925,0,0,1,.463,1.218,6.937,6.937,0,0,1-.65-.946,7.955,7.955,0,0,0-.71-.784c-2.047-1.968-4.685-2.523-5.893-1.239s-.528,3.923,1.518,5.894a8.683,8.683,0,0,0,.681.582,9.07,9.07,0,0,1-2.525-1.737C21.035,848.427,20.223,845.276,21.665,843.741Z" fill="#71890e"/>
    </g>
    <g>
      <path d="M2107.491,875.2c-.853,0-1.693.057-2.528.127a30.129,30.129,0,0,0-24.528-17.906,39.573,39.573,0,0,0-76.751-11.218,27.736,27.736,0,0,0-4.634-1.57,37.219,37.219,0,0,0-72.017,8.568,32.438,32.438,0,0,0-46.2,29.43c0,.8.063,1.588.12,2.376h248.726A30,30,0,0,0,2107.491,875.2Z" fill="#8baa1d"/>
      <path d="M2114.737,880.552H1881.5a8.6,8.6,0,0,0-.659,3.271,8.274,8.274,0,0,0,.12,1.187h248.726A42.67,42.67,0,0,0,2114.737,880.552Z" fill="#71890e"/>
      <path d="M1881.837,885.01a32.5,32.5,0,0,1,31.492-24.469c4.9,0,12.979-.682,17.147,1.264,2.029-18.654,14.376-31.381,33.571-31.381a37.228,37.228,0,0,1,35,24.612,27.642,27.642,0,0,1,4.634,1.569,39.6,39.6,0,0,1,37.238-26.181c21.133,0,32.743,16.978,33.905,37.819,10.865-1.208,25.117,7.313,29.772,16.767h25.084a30,30,0,0,0-22.192-9.807c-.853,0-1.693.057-2.528.127a30.129,30.129,0,0,0-24.528-17.906,39.573,39.573,0,0,0-76.751-11.218,27.736,27.736,0,0,0-4.634-1.57,37.219,37.219,0,0,0-72.017,8.568,32.438,32.438,0,0,0-46.2,29.43c0,.8.063,1.588.12,2.376Z" fill="#71890e"/>
    </g>
    <g>
      <path d="M1737.579,875.2c-.853,0-1.693.057-2.528.127a30.131,30.131,0,0,0-24.529-17.906,39.572,39.572,0,0,0-76.75-11.218,27.767,27.767,0,0,0-4.634-1.57,37.219,37.219,0,0,0-72.017,8.568,32.438,32.438,0,0,0-46.2,29.43c0,.8.063,1.588.12,2.376h248.726A30,30,0,0,0,1737.579,875.2Z" fill="#8baa1d"/>
      <path d="M1744.824,880.552h-233.24a8.6,8.6,0,0,0-.659,3.271,8.274,8.274,0,0,0,.12,1.187h248.726A42.669,42.669,0,0,0,1744.824,880.552Z" fill="#71890e"/>
      <path d="M1511.925,885.01a32.5,32.5,0,0,1,31.492-24.469c4.9,0,12.979-.682,17.147,1.264,2.029-18.654,14.376-31.381,33.571-31.381a37.229,37.229,0,0,1,35,24.612,27.673,27.673,0,0,1,4.634,1.569,39.6,39.6,0,0,1,37.238-26.181c21.133,0,32.743,16.978,33.9,37.819,10.865-1.208,25.117,7.313,29.771,16.767h25.085a30,30,0,0,0-22.192-9.807c-.853,0-1.693.057-2.528.127a30.131,30.131,0,0,0-24.529-17.906,39.572,39.572,0,0,0-76.75-11.218,27.767,27.767,0,0,0-4.634-1.57,37.219,37.219,0,0,0-72.017,8.568,32.438,32.438,0,0,0-46.2,29.43c0,.8.063,1.588.12,2.376Z" fill="#71890e"/>
      <path d="M1688.135,848.048c-1.7-1.239-4.675,0-6.641,2.762a9.473,9.473,0,0,0-.763,1.272c.2-2.3-.673-4.253-2.1-4.5-1.56-.269-3.187,1.6-3.631,4.174a6.582,6.582,0,0,0,.248,3.409,6.107,6.107,0,0,1,.061-1.689c.373-2.156,1.734-3.717,3.039-3.493,1.182.2,1.911,1.8,1.764,3.7a6.984,6.984,0,0,0-.229,1.282,6.842,6.842,0,0,0,.465-1.05,7.507,7.507,0,0,1,.551-.9c1.647-2.316,4.136-3.351,5.562-2.313s1.246,3.757-.4,6.073a8.157,8.157,0,0,1-.56.7,9.076,9.076,0,0,0,2.158-2.174C1689.624,852.538,1689.839,849.289,1688.135,848.048Z" fill="#71890e"/>
      <path d="M1620.8,859.775c-1.7-1.241-4.676,0-6.642,2.762a9.351,9.351,0,0,0-.762,1.271c.2-2.3-.674-4.252-2.1-4.5-1.56-.27-3.187,1.6-3.631,4.172a6.573,6.573,0,0,0,.248,3.41,6.136,6.136,0,0,1,.06-1.688c.374-2.156,1.734-3.717,3.04-3.494,1.182.2,1.911,1.8,1.765,3.7a6.834,6.834,0,0,0-.23,1.283,6.663,6.663,0,0,0,.464-1.051,7.816,7.816,0,0,1,.552-.9c1.647-2.315,4.136-3.35,5.562-2.312s1.246,3.757-.4,6.072a7.857,7.857,0,0,1-.56.7,9.076,9.076,0,0,0,2.158-2.174C1622.287,864.264,1622.5,861.016,1620.8,859.775Z" fill="#71890e"/>
      <path d="M1611.453,840.525c-1.7-1.241-4.676,0-6.642,2.76a9.718,9.718,0,0,0-.763,1.273c.2-2.3-.674-4.253-2.1-4.5-1.561-.269-3.187,1.6-3.633,4.172a6.594,6.594,0,0,0,.249,3.41,6.105,6.105,0,0,1,.061-1.689c.373-2.156,1.734-3.717,3.04-3.493,1.181.2,1.91,1.8,1.763,3.7a6.9,6.9,0,0,0-.228,1.282,6.983,6.983,0,0,0,.464-1.05,7.678,7.678,0,0,1,.552-.9c1.646-2.315,4.134-3.35,5.561-2.313s1.247,3.758-.4,6.073a7.976,7.976,0,0,1-.561.7,9.061,9.061,0,0,0,2.159-2.174C1612.941,845.013,1613.156,841.765,1611.453,840.525Z" fill="#71890e"/>
      <path d="M1648.429,852.288c1.443-1.535,4.595-.872,7.039,1.481a9.836,9.836,0,0,1,.987,1.108c-.625-2.223-.127-4.3,1.229-4.81,1.483-.555,3.428.98,4.342,3.426a6.584,6.584,0,0,1,.388,3.4,6.119,6.119,0,0,0-.373-1.648c-.766-2.049-2.393-3.333-3.633-2.869-1.125.418-1.544,2.125-1.048,3.964a7.035,7.035,0,0,1,.463,1.218,6.777,6.777,0,0,1-.65-.945,7.968,7.968,0,0,0-.711-.784c-2.047-1.968-4.685-2.523-5.893-1.239s-.528,3.923,1.519,5.893a8.718,8.718,0,0,0,.68.583,9.073,9.073,0,0,1-2.523-1.738C1647.8,856.974,1646.986,853.822,1648.429,852.288Z" fill="#71890e"/>
      <path d="M1571.753,843.741c1.443-1.534,4.6-.872,7.039,1.482a9.56,9.56,0,0,1,.987,1.108c-.625-2.224-.127-4.3,1.229-4.811,1.483-.555,3.428.98,4.342,3.427a6.558,6.558,0,0,1,.388,3.4,6.162,6.162,0,0,0-.372-1.648c-.767-2.048-2.394-3.332-3.634-2.868-1.124.417-1.544,2.125-1.048,3.964a.7.7,0,1,1-.187.272,7.955,7.955,0,0,0-.71-.784c-2.048-1.968-4.686-2.523-5.894-1.239s-.528,3.923,1.519,5.894a8.5,8.5,0,0,0,.681.582,9.07,9.07,0,0,1-2.525-1.737C1571.123,848.427,1570.311,845.276,1571.753,843.741Z" fill="#71890e"/>
    </g>
  </g>
</svg>
