<svg xmlns="http://www.w3.org/2000/svg" xmlns:xlink="http://www.w3.org/1999/xlink" width="1920" height="1080" viewBox="0 0 1920 1080">
  <defs>
    <linearGradient id="a" data-name="Unbenannter Verlauf 441" x1="952.521" y1="1067.23" x2="952.521" y2="0.448" gradientUnits="userSpaceOnUse">
      <stop offset="0.255" stop-color="#fff"/>
      <stop offset="0.433" stop-color="#fafafc"/>
      <stop offset="0.65" stop-color="#ebedf5"/>
      <stop offset="0.885" stop-color="#d3d6e9"/>
      <stop offset="1" stop-color="#c4c9e2"/>
    </linearGradient>
    <linearGradient id="b" data-name="Unbenannter Verlauf 378" x1="-1115.386" y1="533.839" x2="3020.429" y2="533.839" gradientUnits="userSpaceOnUse">
      <stop offset="0" stop-color="#fcedd0"/>
      <stop offset="0.083" stop-color="#f8e9cc"/>
      <stop offset="0.636" stop-color="#dfd0b7"/>
      <stop offset="0.802" stop-color="#eadbc0"/>
      <stop offset="1" stop-color="#fcedd0"/>
    </linearGradient>
    <linearGradient id="c" x1="1029.737" y1="571.417" x2="1047.202" y2="571.417" xlink:href="#b"/>
    <linearGradient id="d" x1="1049.96" y1="575.094" x2="1074.78" y2="575.094" xlink:href="#b"/>
    <linearGradient id="e" x1="1078.457" y1="576.932" x2="1101.438" y2="576.932" xlink:href="#b"/>
    <linearGradient id="f" x1="1103.277" y1="568.659" x2="1118.904" y2="568.659" xlink:href="#b"/>
    <linearGradient id="g" x1="340.867" y1="542.068" x2="358.333" y2="542.068" xlink:href="#b"/>
    <linearGradient id="h" x1="361.09" y1="545.745" x2="385.91" y2="545.745" xlink:href="#b"/>
    <linearGradient id="i" x1="389.587" y1="547.584" x2="412.568" y2="547.584" xlink:href="#b"/>
    <linearGradient id="j" x1="414.407" y1="539.311" x2="430.034" y2="539.311" xlink:href="#b"/>
    <linearGradient id="k" x1="1374.172" y1="571.486" x2="1391.637" y2="571.486" xlink:href="#b"/>
    <linearGradient id="l" x1="1394.395" y1="575.163" x2="1419.215" y2="575.163" xlink:href="#b"/>
    <linearGradient id="m" x1="1422.892" y1="577.002" x2="1445.873" y2="577.002" xlink:href="#b"/>
    <linearGradient id="n" x1="1447.712" y1="568.729" x2="1463.339" y2="568.729" xlink:href="#b"/>
    <linearGradient id="o" x1="1718.606" y1="555.917" x2="1736.072" y2="555.917" xlink:href="#b"/>
    <linearGradient id="p" x1="1738.83" y1="559.594" x2="1763.65" y2="559.594" xlink:href="#b"/>
    <linearGradient id="q" x1="1767.327" y1="561.433" x2="1790.308" y2="561.433" xlink:href="#b"/>
    <linearGradient id="r" x1="1792.147" y1="553.16" x2="1807.774" y2="553.16" xlink:href="#b"/>
    <linearGradient id="s" x1="685.302" y1="534.379" x2="702.767" y2="534.379" xlink:href="#b"/>
    <linearGradient id="t" x1="705.525" y1="538.056" x2="730.345" y2="538.056" xlink:href="#b"/>
    <linearGradient id="u" x1="734.022" y1="539.895" x2="757.003" y2="539.895" xlink:href="#b"/>
    <linearGradient id="v" x1="758.842" y1="531.622" x2="774.469" y2="531.622" xlink:href="#b"/>
  </defs>
  <rect x="-1114.886" y="0.448" width="4134.815" height="1066.782" stroke-miterlimit="10" fill="url(#a)" stroke="url(#b)"/>
  <path d="M917.133,924.3c-84.979-43.877-184-104.133-282.571-184.416C706.074,583.736,889.281,194.306,897.978-21.755H827.937s-68.36,434.286-271.013,693.869C395.735,521.234,235.7,248.643,163.77-33.986H93.761S159.716,638.869,635.08,924.3H-1395.8c-98.511-138.461-304.358-527.754-265.529-958.286h-57.946c-.046,16.116-38.07,682.281,117.057,958.286H-1860.96v621.092H2986.2V924.3H2822.744C2701.805,498.651,2719.158-33.986,2719.158-33.986h-46.932c-30.457,225.254,15.96,684.353,61.766,958.286H1666.757c-42.338-160.482-65.874-331.256-78.781-481.377,94.031-123.7,218.128-368.585,252.347-476.909h-44.366s-90.261,223.735-214.642,387.6c-12.716-200.539-8.185-387.6-8.185-387.6h-50.651c-14.61,102.279-14.239,314.823-2.746,462.638-53.521,60.022-113.952,114.456-179.973,153.005,14.874-269.391,103.1-615.643,103.1-615.643H1402.6c-80.438,195.605-142.61,733.78-145.749,958.286m80.26-182.916c33.953-36.856,109.292-120.332,190.665-221.538,13.836,141.205,33.834,284.225,52.738,404.454H1352.669C1343.482,864.276,1338.673,802.658,1337.113,741.384Z" fill="#9fa58e"/>
  <path d="M-1084.356-129.058V48.161a43.517,43.517,0,0,0,24.747-7.8c2.888,23.3,20.845,41.257,42.58,41.257,22.652,0,41.2-19.5,42.862-44.231a32.431,32.431,0,0,0,5.326.441,33.242,33.242,0,0,0,20.507-7.183c4.3,22.188,22.031,38.817,43.255,38.817,15.587,0,29.281-8.975,37.166-22.526,7.642,12.33,20.416,20.416,34.893,20.416,16,0,29.912-9.875,37.119-24.439,11.567,46.92,31.611,144.065,10.179,181.823C-810.6,268.564-903.8,342.808-928.365,361.948c-53.251-37.965-108.585-43.05-155.914-43.05v59.016c162.332,0,180.155,335.966,180.746,471.394h-180.823v216.519H3077.293V849.308H2896.548c.134-30.628,1.149-71.5,4.517-116.442,6-45.414,13.147-97.573,21.2-152.864,23.869-108.384,69.294-202.088,155.023-202.088V318.9c-44.388,0-85.908,17.206-121.09,46.678,20.039-115.626,42.562-225.651,65.636-300.61,12.1-4.467,21.781-14.838,26.282-28.049a44.1,44.1,0,0,0,29.172,11.244V-129.058ZM2616.317,69.467c15.587,0,29.282-8.975,37.167-22.526,7.642,12.33,20.416,20.416,34.893,20.416,18.11,0,33.558-12.651,39.618-30.44a44.1,44.1,0,0,0,29.172,11.244,43.517,43.517,0,0,0,24.747-7.8c2.888,23.3,20.845,41.257,42.581,41.257,22.65,0,41.2-19.5,42.862-44.231a32.407,32.407,0,0,0,5.324.441,33.235,33.235,0,0,0,20.507-7.183c4.3,22.188,22.031,38.817,43.255,38.817,13.539,0,25.647-6.773,33.763-17.432-35.716,174.732-109.262,511.5-144.351,505.193-35.4-6.364-183.325-351.069-255.693-524.551q1.5-.942,2.9-2.027C2577.365,52.838,2595.093,69.467,2616.317,69.467Zm-132.41,6.394a39.406,39.406,0,0,0,20.461,5.762c12.386,0,23.536-5.838,31.378-15.166,18.823,41.474,41.045,98.1,62.975,171.827-34.714-5.891-102.247-20.6-138.112-50.085-8.621-7.088-15.383-16.48-20.677-27.156C2447.028,144.235,2465.361,102.674,2483.907,75.861Zm-46.866-27.7a43.514,43.514,0,0,0,24.746-7.8,51.055,51.055,0,0,0,6.167,18.822L2427.824,125c-6.546-30.071-6.629-61.593-5.918-79.614a42.738,42.738,0,0,0,15.132,2.774Zm-103.685-1.22c7.642,12.33,20.416,20.416,34.893,20.416a38.573,38.573,0,0,0,17.2-4.058c2.166,35.47,10.761,104.529,44.439,151.814,26.617,37.372,135.806,81.064,191.765,101.582,42.15,146.263,108.776,397.927,84.221,532.613H2551.825c-96.916-164.168-270.6-500.778-253.564-779.9C2312.984,68.651,2325.822,59.888,2333.356,46.941Zm-536.57,1.22a43.509,43.509,0,0,0,24.746-7.8c2.888,23.3,20.846,41.257,42.582,41.257,22.65,0,41.2-19.5,42.862-44.231a32.407,32.407,0,0,0,5.324.441,33.237,33.237,0,0,0,20.507-7.183c4.3,22.188,22.031,38.817,43.255,38.817,15.588,0,29.282-8.975,37.168-22.526,7.641,12.33,20.416,20.416,34.892,20.416,18.11,0,33.558-12.651,39.618-30.44a44.1,44.1,0,0,0,29.172,11.244,43.514,43.514,0,0,0,24.747-7.8c2.675,21.593,18.294,38.582,37.864,40.96,41.2,144.785,129.951,503.5,83.726,767.982H610.517c-21.744-64.725-55.832-179.744-54.951-262.4,243.548,53.511,551.91,132.861,760.66,7.705,50.28-30.145,113.5-194.167,162.878-345.7,47.011-10.314,138.328-32.3,158.11-51.363,18.126-17.467,67.826-87.247,98.354-130.96,14.756-2.965,26.85-14.43,32.046-29.679A44.1,44.1,0,0,0,1796.786,48.161ZM477.352,570.414c11.021,61.549,22.6,169.248-2.185,278.894H54.315c0-130.716,66.031-214.506,163.2-277.9C268.663,538.034,362.381,547.654,477.352,570.414Zm1109.5-533.022a32.416,32.416,0,0,0,5.324.441,33.24,33.24,0,0,0,20.508-7.183c4.3,22.188,22.03,38.817,43.254,38.817,15.589,0,29.283-8.975,37.169-22.526a46.147,46.147,0,0,0,7.19,8.91c-22.838,32.059-64.151,84.832-98.911,100.911-37.686,17.431-76.1,21.873-100.28,22.691,11.223-36.413,21.294-70.569,29.781-100.1a38.975,38.975,0,0,0,13.1,2.274C1566.638,81.623,1585.184,62.127,1586.849,37.392ZM1223.86,81.623c22.652,0,41.2-19.5,42.863-44.231a32.4,32.4,0,0,0,5.323.441,33.241,33.241,0,0,0,20.509-7.183c4.3,22.188,22.03,38.817,43.254,38.817,15.588,0,29.282-8.975,37.168-22.526,7.641,12.33,20.415,20.416,34.892,20.416,18.111,0,33.558-12.651,39.618-30.44a45.721,45.721,0,0,0,15.5,9c-28.581,79.36-73.2,199.942-114.46,297.5-46.2-46.427-112.235-90.143-144.653-132.016-21.039-27.175-21.7-101.651-18.845-157.105C1191.926,70.446,1206.715,81.623,1223.86,81.623ZM807.232,36.917A44.1,44.1,0,0,0,836.4,48.161a43.512,43.512,0,0,0,24.747-7.8c2.888,23.3,20.846,41.257,42.581,41.257,22.651,0,41.2-19.5,42.862-44.231a32.416,32.416,0,0,0,5.324.441,33.236,33.236,0,0,0,20.508-7.183c4.3,22.188,22.031,38.817,43.254,38.817,15.589,0,29.283-8.975,37.169-22.526,7.641,12.33,20.415,20.416,34.892,20.416,18.111,0,33.557-12.651,39.618-30.44a47.462,47.462,0,0,0,5.894,4.4c-5.158,67.577-3.672,164.81,37.268,222.211,26.443,37.075,89.411,135,125.9,192.141-10.121,18.8-19.182,33.046-26.677,41.073-93.061,99.675-351.133,34.886-601.7-23.4-.775-40.188-9.585-80.921-23.919-121.062,39.178-46.4,100.88-121.035,108.126-139.179,11.55-28.923,28.238-108.336,37.021-152.364A46.423,46.423,0,0,0,807.232,36.917Zm-320.126,0a44.1,44.1,0,0,0,29.172,11.244,43.509,43.509,0,0,0,24.746-7.8c2.889,23.3,20.846,41.257,42.582,41.257,22.65,0,41.2-19.5,42.862-44.231a32.407,32.407,0,0,0,5.324.441A33.24,33.24,0,0,0,652.3,30.65c4.3,22.188,22.03,38.817,43.254,38.817,15.588,0,29.282-8.975,37.168-22.526a42.573,42.573,0,0,0,25.472,19.223c-11.353,31.929-30.68,83.331-51.242,124.941-20.733,41.952-70.33,69.875-97.741,82.683-41.185-77.945-97.884-150.461-149.777-208.341C472.182,61.283,482.434,50.63,487.106,36.917ZM-56.647,81.623c22.65,0,41.2-19.5,42.862-44.231a32.425,32.425,0,0,0,5.324.441A33.245,33.245,0,0,0,12.048,30.65C16.35,52.838,34.077,69.467,55.3,69.467c15.587,0,29.281-8.975,37.167-22.526,7.641,12.33,20.416,20.416,34.892,20.416,18.111,0,33.558-12.651,39.618-30.44a44.1,44.1,0,0,0,29.172,11.244,43.512,43.512,0,0,0,24.747-7.8c2.888,23.3,20.846,41.257,42.581,41.257,22.651,0,41.2-19.5,42.862-44.231a32.416,32.416,0,0,0,5.324.441,33.24,33.24,0,0,0,20.508-7.183c4.3,22.188,22.031,38.817,43.255,38.817a41.492,41.492,0,0,0,28.549-11.636C538.433,216.785,560.916,372.385,562.618,449.467c-99.463-21.53-193.655-37.988-271.051-37.958-14.487-34.15-16.359-71.686-15.166-98.253a323.232,323.232,0,0,1,3.907-37.444,32.2,32.2,0,0,0,22.815,9.725c18.855,0,34.193-17.072,34.193-38.058a41.943,41.943,0,0,0-1.609-11.571,31.089,31.089,0,0,0,4.134.276c13.774,0,26.141-9.122,31.507-23.242a41.552,41.552,0,0,0,2.687-14.816,40.412,40.412,0,0,0-7.439-23.7,34.449,34.449,0,0,0-17.191-12.845c5.8-14.414,2.636-25.355-1.132-32.076a38.235,38.235,0,0,0-32.468-18.947,29.439,29.439,0,0,0-14.779,3.81c-7.78-15.723-20.732-24.71-35.718-24.71a37.775,37.775,0,0,0-24.544,9.273,42.332,42.332,0,0,0-13.745,23.808,20.589,20.589,0,0,0-8.431-1.819c-6.589,0-13.047,3.23-17.717,8.866a29.508,29.508,0,0,0-6.628,20.132c-12.989,5.7-21.649,19.8-21.649,35.416a41.141,41.141,0,0,0,5.325,20.4,36.068,36.068,0,0,0,12.7,13.135,46.421,46.421,0,0,0-3.77,18.376c0,23.311,17.038,42.276,37.981,42.276a34.789,34.789,0,0,0,18.76-5.5c6.356,31.909,2.817,66.693-1.774,91.878a393.958,393.958,0,0,1-12.58,49.991q-13.016,2.041-24.99,5.1C6.635,471.893-93.771,678.555-93.771,849.308H-364.9l-73.045-192.322c69.54-20.3,268.885-104.592,289.454-259.591,13.014-98.069,30.966-252.487,42.451-353.17a45.6,45.6,0,0,0,6.809-3.859C-96.34,63.67-78.383,81.623-56.647,81.623ZM-547.785,46.941c7.641,12.33,20.415,20.416,34.891,20.416,18.112,0,33.559-12.651,39.619-30.44A44.1,44.1,0,0,0-444.1,48.161h0a43.5,43.5,0,0,0,24.745-7.8c2.889,23.3,20.848,41.257,42.582,41.257,22.652,0,41.2-19.5,42.864-44.231a32.383,32.383,0,0,0,5.322.441A33.231,33.231,0,0,0-308.08,30.65c4.3,22.188,22.03,38.817,43.255,38.817,15.588,0,29.283-8.975,37.169-22.526,7.64,12.33,20.414,20.416,34.892,20.416a39.108,39.108,0,0,0,22.906-7.487c-8.2,117.635-29.7,256.6-65.45,330.35-40.584,83.719-256.274,147.743-256.274,147.743C-573.15,408.2-588.814,207.351-588.506,69.3c1.173.1,2.356.163,3.552.163C-569.367,69.467-555.671,60.492-547.785,46.941ZM-849.411,450.1c-2.771-4.519-5.569-8.867-8.385-13.084,43.658-55.729,122.91-160.465,129.985-195.114,6.918-33.88-1.809-131.9-7.558-186.768,7.051,15.7,21.622,26.489,38.467,26.489,16.653,0,31.078-10.546,38.216-25.957-3.063,48.081-4.786,103.637-2.449,158.255,5.255,122.829,96.489,516.214,124.688,635.387H-721.7C-735.355,769.764-775.162,571.207-849.411,450.1Z" fill="#576d4d"/>
  <g>
    <path d="M1136.8,575.761c90.892-72.943,121.354-208.727,137.26-304.409,17.7-106.5,187.3-377.09,187.3-377.09l-59.758-.256s-77.8,214.041-141.693,221.141-255.3-223.994-255.3-223.994H943.838S1090.052,50.463,1139.945,111.6c58.736,71.969,71.956,112.817,48.973,191.706-28.815,98.909-143.907,132.561-211.176,167.538-44.618-18-91.657-27.087-140.178-22.724a339.712,339.712,0,0,0-94.335,22.4C662.852,411.989,431.5,305.032,425.513,193.25,418.589,63.934,501.968-92.041,501.968-92.041l-92.355-.731S350.694,72.937,340.581,186.15C327.94,327.663,477.742,558.811,525.867,656.283c-63.307,91.067-93.151,177.341-93.151,177.341l195.333.956S695.975,558.911,844.82,566.011,1178.3,846.135,1178.3,846.135h170.36S1264.8,692.4,1136.8,575.761ZM565.114,605C527.873,536.5,458.061,447.052,511.636,418.682c28.116-14.889,125.405,39.442,177.4,78.5C640.571,526.015,599.373,564.434,565.114,605Z" fill="#a87c4f"/>
    <g>
      <path d="M1227.3,107.355c-80.128-36.614-222.684-216.2-222.684-216.2H977.1S1108.329,61.087,1227.3,107.355Z" fill="#825737"/>
      <path d="M474.043-91.568C451.675-47.4,394.757,89.5,394.757,189.524c0,132.891,318.823,272.436,331.145,269.086-91.943-60.431-294.789-160.783-300.389-265.36C418.589,63.934,501.968-92.041,501.968-92.041Z" fill="#825737"/>
      <path d="M1136.8,575.761c90.892-72.943,121.354-208.727,137.26-304.409,17.7-106.5,187.3-377.09,187.3-377.09l-14-.06s-157.687,233.746-184.9,370.425c-27.061,135.895-88.018,238.191-178.911,311.134,127.991,116.64,211.857,270.374,211.857,270.374h53.252S1264.8,692.4,1136.8,575.761Z" fill="#825737"/>
      <path d="M574.862,834.32l53.187.26s55.3-254.289,210.176-268.7C665.75,551,577.207,824.99,574.862,834.32Z" fill="#825737"/>
    </g>
    <path d="M534.4,798.034S643.561,529.45,838.225,537.564" fill="none" stroke="#8a5d3b" stroke-linecap="round" stroke-linejoin="round" stroke-width="12"/>
    <line x1="872.749" y1="541.057" x2="890.589" y2="544.73" fill="none" stroke="#8a5d3b" stroke-linecap="round" stroke-linejoin="round" stroke-width="12"/>
    <path d="M917.511,555.441s166.041,77.214,273.4,261.4" fill="none" stroke="#8a5d3b" stroke-linecap="round" stroke-linejoin="round" stroke-width="12"/>
    <path d="M1230.829,806.275s-79.03-120.136-147.277-177.17" fill="none" stroke="#8a5d3b" stroke-linecap="round" stroke-linejoin="round" stroke-width="12"/>
    <path d="M1020.98,576.813s116.957-76.057,177.7-186.9" fill="none" stroke="#8a5d3b" stroke-linecap="round" stroke-linejoin="round" stroke-width="12"/>
    <line x1="1234.062" y1="309.003" x2="1244.121" y2="275.277" fill="none" stroke="#8a5d3b" stroke-linecap="round" stroke-linejoin="round" stroke-width="12"/>
    <path d="M1201.519,322.612s28.766-71.267,13.609-123.07c-18.447-63.044-55.777-96.122-62.508-102.954" fill="none" stroke="#8a5d3b" stroke-linecap="round" stroke-linejoin="round" stroke-width="12"/>
    <path d="M1220.385,122.623s26.939,18.946,51.841,12.721c17.751-4.438,31.951-27.989,31.951-27.989" fill="none" stroke="#8a5d3b" stroke-linecap="round" stroke-linejoin="round" stroke-width="12"/>
    <path d="M1281.1,160.49s-18.821,37.868-31.892,89.64" fill="none" stroke="#8a5d3b" stroke-linecap="round" stroke-linejoin="round" stroke-width="12"/>
    <g>
      <path d="M1135.4,425.417s-51.847,44.377-140.674,90.676c0,0-160.615-113.308-329.115,36.269" fill="none" stroke="#8a5d3b" stroke-linecap="round" stroke-linejoin="round" stroke-width="12"/>
      <line x1="644.603" y1="573.663" x2="619.162" y2="599.401" fill="none" stroke="#8a5d3b" stroke-linecap="round" stroke-linejoin="round" stroke-width="12"/>
      <path d="M592.536,630.465s-60.213,69.05-92.163,156.028" fill="none" stroke="#8a5d3b" stroke-linecap="round" stroke-linejoin="round" stroke-width="12"/>
    </g>
    <path d="M890.589,516.093s48.222,5.918,99.7,39.348" fill="none" stroke="#8a5d3b" stroke-linecap="round" stroke-linejoin="round" stroke-width="12"/>
    <line x1="1157.19" y1="403.674" x2="1171.343" y2="389.916" fill="none" stroke="#8a5d3b" stroke-linecap="round" stroke-linejoin="round" stroke-width="12"/>
    <path d="M412.145-10.39s-48.452,147.213-45.493,223.541c1.217,31.4,18.572,58.609,33.512,78.989" fill="none" stroke="#8a5d3b" stroke-linecap="round" stroke-linejoin="round" stroke-width="12"/>
    <line x1="412.145" y1="310.482" x2="425.376" y2="329.564" fill="none" stroke="#8a5d3b" stroke-linecap="round" stroke-linejoin="round" stroke-width="12"/>
    <path d="M437.8,347.635l46.1,55.594s30.079-52.807,202.408,71.447" fill="none" stroke="#8a5d3b" stroke-linecap="round" stroke-linejoin="round" stroke-width="12"/>
    <path d="M483.9,530.364s-35.451-61.9-12.375-111.6" fill="none" stroke="#8a5d3b" stroke-linecap="round" stroke-linejoin="round" stroke-width="12"/>
    <path d="M379.225,303.826s13.062,36.976,56.108,93.457" fill="none" stroke="#8a5d3b" stroke-linecap="round" stroke-linejoin="round" stroke-width="12"/>
    <line x1="492.508" y1="542.719" x2="500.373" y2="556.328" fill="none" stroke="#8a5d3b" stroke-linecap="round" stroke-linejoin="round" stroke-width="12"/>
    <line x1="508.065" y1="573.663" x2="540.016" y2="627.33" fill="none" stroke="#8a5d3b" stroke-linecap="round" stroke-linejoin="round" stroke-width="12"/>
  </g>
  <g>
    <path d="M1545.88-19.41s177.38,300.725,275.65,531.42c51.909,121.861,9.887,371.5,9.887,371.5l42.64,4.529s33.509-284.633,55.119-291.8,393.217,291.8,393.217,291.8h67.481s-507.057-413.256-548.457-494.306c-76.472-149.71-152.088-417.5-152.088-417.5Z" fill="#a87c4f"/>
    <g>
      <path d="M1831.417,883.51l42.64,4.529s22.514-191.235,42.535-264.151C1889.476,688.914,1831.417,883.51,1831.417,883.51Z" fill="#825737"/>
      <path d="M1841.417,393.733c-76.472-149.71-152.088-417.5-152.088-417.5L1646.56-21.9c6.825,23.9,88.017,280.74,174.844,429.923,45.751,78.608,542.844,480.018,542.844,480.018h25.626S1882.817,474.783,1841.417,393.733Z" fill="#825737"/>
    </g>
    <path d="M1601.86-2.454s63.071,139.92,142.8,300.311" fill="none" stroke="#8a5d3b" stroke-linecap="round" stroke-linejoin="round" stroke-width="12"/>
    <line x1="1761.649" y1="333.698" x2="1777.554" y2="368.644" fill="none" stroke="#8a5d3b" stroke-linecap="round" stroke-linejoin="round" stroke-width="12"/>
    <path d="M1802.3,418.822s48.974,88.612,60.089,140.23c9.977,46.334,14.335,175.342-8.42,279.254" fill="none" stroke="#8a5d3b" stroke-linecap="round" stroke-linejoin="round" stroke-width="12"/>
    <path d="M1889.476,643.727s10.37-75.566,25.491-80.345c18.057-5.706,109.182,65.182,109.182,65.182" fill="none" stroke="#8a5d3b" stroke-linecap="round" stroke-linejoin="round" stroke-width="12"/>
    <line x1="1900.823" y1="537.995" x2="1865.698" y2="491.401" fill="none" stroke="#8a5d3b" stroke-linecap="round" stroke-linejoin="round" stroke-width="12"/>
    <line x1="1853.106" y1="474.824" x2="1842.281" y2="461.384" fill="none" stroke="#8a5d3b" stroke-linecap="round" stroke-linejoin="round" stroke-width="12"/>
  </g>
  <g>
    <path d="M-374.12-19.41S-196.74,281.315-98.47,512.01c51.909,121.861,9.887,371.5,9.887,371.5l42.64,4.529s33.509-284.633,55.119-291.8,393.217,291.8,393.217,291.8h67.481S-37.183,474.783-78.583,393.733c-76.472-149.71-152.088-417.5-152.088-417.5Z" fill="#a87c4f"/>
    <path d="M-78.583,393.733c-76.472-149.71-152.088-417.5-152.088-417.5L-273.44-21.9C-266.615,2-185.423,258.838-98.6,408.021c45.751,78.608,542.844,480.018,542.844,480.018h25.626S-37.183,474.783-78.583,393.733Z" fill="#825737"/>
    <path d="M-30.524,643.727s10.37-75.566,25.491-80.345c18.057-5.706,109.182,65.182,109.182,65.182" fill="none" stroke="#8a5d3b" stroke-linecap="round" stroke-linejoin="round" stroke-width="12"/>
    <line x1="123.828" y1="643.727" x2="148.57" y2="663.142" fill="none" stroke="#8a5d3b" stroke-linecap="round" stroke-linejoin="round" stroke-width="12"/>
  </g>
  <rect x="1657.427" y="261.154" width="77.743" height="581.087" fill="#fcedd0"/>
  <g>
    <g>
      <rect x="377.297" y="267.325" width="1403.926" height="575.372" fill="#dbc8a9"/>
      <g>
        <polygon points="1718.229 792.487 1718.229 774.902 1699.554 751.095 1694.988 783.39 1704.12 792.487 1718.229 792.487" fill="#c7b29e"/>
        <polygon points="1718.175 761.936 1704.188 745.759 1708.004 735.835 1717.116 729.583 1718.175 737.673 1718.175 761.936" fill="#c7b29e"/>
        <polygon points="1688.21 765.782 1682.158 755.703 1669.81 758.644 1656.738 780.061 1664.243 781.874 1685.547 775.865 1688.21 765.782" fill="#e5d3bd"/>
        <polygon points="1656.162 725.034 1667.428 721.672 1667.642 708.981 1650.139 691.002 1646.521 697.823 1647.055 719.952 1656.162 725.034" fill="#e5d3bd"/>
        <polygon points="1675.46 746.082 1654.155 750.803 1636.725 748.441 1626.396 738.091 1650.927 729.583 1665.131 738.091 1675.46 746.082" fill="#c7b29e"/>
        <polygon points="1654.479 771.972 1659.643 762.002 1650.927 758.644 1650.927 765.307 1654.479 771.972" fill="#c7b29e"/>
        <polygon points="1662.71 795.602 1677.72 792.487 1681.915 787.204 1667.23 787.204 1662.71 795.602" fill="#c7b29e"/>
        <polygon points="1680.261 748.484 1686.071 747.081 1684.135 742.182 1681.956 741.342 1677.76 744.913 1680.261 748.484" fill="#c7b29e"/>
        <polygon points="1653.832 800.147 1655.285 794.863 1640.275 768.404 1630.349 768.404 1615.34 772.966 1612.676 799.064 1629.623 803.262 1653.832 800.147" fill="#e5d3bd"/>
        <polygon points="1405.913 728.158 1410.768 730.697 1439.808 721.635 1441.911 711.935 1440.633 696.299 1415.692 688.166 1407.999 703.838 1405.913 728.158" fill="#e5d3bd"/>
        <polygon points="1137.104 697.545 1134.957 693.96 1112.463 688.29 1107.232 693.761 1101.838 704.439 1114.819 719.66 1126.063 712.531 1137.104 697.545" fill="#e5d3bd"/>
        <polygon points="1618.598 733.508 1620.051 728.225 1605.041 701.765 1595.115 701.765 1580.106 706.328 1577.442 732.426 1594.389 736.623 1618.598 733.508" fill="#e5d3bd"/>
        <polygon points="1719.705 719.211 1721.157 713.927 1706.148 687.468 1696.221 687.468 1681.212 692.03 1678.549 718.128 1695.495 722.326 1719.705 719.211" fill="#e5d3bd"/>
        <polygon points="1593.793 787.204 1604.768 778.171 1600.571 768.342 1592.502 765.307 1587.337 771.972 1593.793 787.204" fill="#c7b29e"/>
        <polygon points="1562.644 779.225 1569.422 770.521 1562.644 755.007 1558.124 752.908 1545.213 766.235 1552.314 781.467 1562.644 779.225" fill="#c7b29e"/>
        <polygon points="1560.346 719.48 1567.124 710.777 1560.346 695.263 1555.827 693.163 1542.915 706.491 1550.016 721.722 1560.346 719.48" fill="#c7b29e"/>
        <path d="M1560.622,745.737s-13.522-9.553-13.349-11.358,6.066-3.3,6.674-3.907,12.569,4.66,12.569,4.66l-1.56,6.769Z" fill="#c7b29e"/>
        <polygon points="1488.161 792.615 1494.454 784.765 1480.413 769.087 1476.055 777.623 1488.161 792.615" fill="#c7b29e"/>
        <polygon points="1632.927 728.275 1639.22 720.425 1625.179 704.746 1620.821 713.282 1632.927 728.275" fill="#c7b29e"/>
        <polygon points="1468.873 764.102 1474.683 754.58 1465.484 747.304 1459.673 755.982 1468.873 764.102" fill="#c7b29e"/>
        <polygon points="1467.178 791.289 1467.178 781.492 1434.253 752.655 1409.559 769.452 1406.654 783.942 1444.905 789.731 1467.178 791.289" fill="#c7b29e"/>
        <polygon points="1342.295 709.195 1347.69 717.373 1391.054 723.31 1402.414 695.69 1396.859 681.996 1361.743 698.23 1342.295 709.195" fill="#c7b29e"/>
        <polygon points="1451.523 741.984 1443.291 733.306 1451.523 729.941 1455.396 739.463 1451.523 741.984" fill="#c7b29e"/>
        <polygon points="1430.014 746.642 1432.009 739.289 1434.253 734.964 1423.781 734.964 1420.041 743.254 1422.285 754.862 1429.017 753.2 1430.014 746.642" fill="#c7b29e"/>
        <polygon points="1482.205 725.064 1484.199 717.711 1486.443 713.386 1475.972 713.386 1472.232 721.676 1474.476 733.284 1481.208 731.622 1482.205 725.064" fill="#c7b29e"/>
        <polygon points="1387.952 774.468 1396.667 774.468 1394.408 759.906 1387.952 759.906 1384.401 763.132 1387.952 774.468" fill="#c7b29e"/>
        <polygon points="1400.999 753.034 1410.038 745.752 1410.038 736.793 1403.259 736.793 1400.999 743.093 1400.999 753.034" fill="#c7b29e"/>
        <path d="M1126.828,807.546s16.5-9.413,16.729-12.159-.9-8.236-1.13-10-8.817-11.179-8.817-11.179h-19.895s-11.077,10.983-11.982,11.179,0,20.2,0,20.2l14.243,1.961,6.483-7.062Z" fill="#c7b29e"/>
        <polygon points="1368.415 784.277 1362.177 778.127 1354.857 781.207 1354.857 787.638 1368.415 784.277" fill="#b29c88"/>
        <path d="M1373.083,779.392s-5.819-9.889-6.518-9.386,4.889-5.553,4.889-5.553l6.75,2.017v7.269Z" fill="#c7b29e"/>
        <path d="M1379.943,749.3c-1.937-1.179-11.621-9.153-11.621-9.153h-15.18l-2.25-4.9,5.81-2.8h21.3l11.3,8.431-6.777,8.425Z" fill="#c7b29e"/>
        <polygon points="1403.65 792.272 1393.105 807.883 1378.369 823.294 1367.38 827.641 1361.636 817.667 1361.636 805.313 1372.875 790.91 1384.863 788.125 1398.349 784.964 1403.65 792.272" fill="#e5d3bd"/>
        <polygon points="1366.3 754.374 1355.755 769.984 1341.02 785.396 1330.031 789.742 1324.287 779.769 1324.287 767.415 1335.525 753.011 1347.513 750.226 1361 747.065 1366.3 754.374" fill="#e5d3bd"/>
        <polygon points="1535.143 746.403 1516.753 742.317 1497.012 734.259 1488.939 725.63 1496.111 716.628 1507.605 712.098 1525.126 717.272 1532.113 727.404 1539.999 738.792 1535.143 746.403" fill="#e5d3bd"/>
        <path d="M1092.939,776.831V761.838l-12.912-3.914s-10.33,14-11.62,14.558,2.9,13.439,2.9,13.439h18.077Z" fill="#e5d3bd"/>
        <path d="M1071.674,748.248s13.189,5.256,13.162,2.023,4.454-18.564,4.454-18.564l-11.415,6.7Z" fill="#e5d3bd"/>
        <path d="M1119.5,762.908s-4.843-13.44-6.133-14-10.007,7-10.007,7,4.841,12.046,6.133,12.6S1119.5,762.908,1119.5,762.908Z" fill="#c7b29e"/>
        <g>
          <path d="M1626.4,759.574l-25.825-17.546L1590.4,756.786s5.084,7.972,5.81,7.874,19.368,2,19.368,2Z" fill="#c7b29e"/>
          <path d="M1541.215,763.048,1514.1,748.606l-23.563-9.669-12.267,16.151,16.462,19.742s17.432-.1,18.723,0,9.038-1.5,9.038-1.5Z" fill="#c7b29e"/>
          <path d="M947.732,805.248c1.4-.81.735-22.554.735-22.554s-14.423-10.078-24.36-6.623-29.124,17.338-30.558,20.015,6.734,25.138,7.613,26.011,6.154,6.112,18.922-.826S947.732,805.248,947.732,805.248Z" fill="#c7b29e"/>
          <path d="M992.518,766.13l-10.975-8.951-11.621,8.951s6.135,8.2,7.748,7.8S992.518,766.13,992.518,766.13Z" fill="#c7b29e"/>
          <path d="M1133.757,744.965l-10.975-8.951-11.621,8.951s6.135,8.194,7.748,7.8S1133.757,744.965,1133.757,744.965Z" fill="#c7b29e"/>
          <path d="M976.319,803.137c2.258-.8,12.588,1.6,12.588-1.991s-2.583-12.964-2.583-12.964l-23.241-4.588v12.764Z" fill="#c7b29e"/>
          <path d="M1147.459,726.859c.539-2.333,8.091-9.775,5.063-11.7s-12.33-4.764-12.33-4.764l-16.325,17.167,10.778,6.838Z" fill="#c7b29e"/>
          <polygon points="923.562 769.803 906.989 773.875 918.056 761.248 925.271 758.74 923.562 769.803" fill="#c7b29e"/>
          <polygon points="1141.189 763.402 1124.616 767.473 1135.683 754.846 1142.898 752.339 1141.189 763.402" fill="#c7b29e"/>
        </g>
        <g>
          <polygon points="1576.582 809.714 1585.245 806.097 1586.959 793.691 1576.336 776.639 1572.85 783.41 1570.535 805.018 1576.582 809.714" fill="#c7b29e"/>
          <polygon points="1511.918 702.396 1518.244 709.136 1530.497 706.176 1542.961 690.023 1535.413 689.266 1514.297 695.041 1511.918 702.396" fill="#c7b29e"/>
          <polygon points="1611.963 684.336 1605.434 691.004 1612.637 701.557 1617.208 702.728 1629.736 692.345 1622.219 682.015 1611.963 684.336" fill="#c7b29e"/>
          <path d="M1539.018,783.028c-.695-1.51-22.952,9.237-22.952,9.237s2.343,15.467,3.069,15.482,17.031,7.705,19.224,7.065,26.261-5.225,26.261-5.225l-10.756-18.473-10.551-5Z" fill="#c7b29e"/>
        </g>
      </g>
      <g>
        <polygon points="433.432 794.019 433.432 776.434 452.108 752.627 456.673 784.922 447.542 794.019 433.432 794.019" fill="#c7b29e"/>
        <polygon points="433.486 763.468 447.473 747.291 443.658 737.367 434.545 731.114 433.486 739.205 433.486 763.468" fill="#c7b29e"/>
        <polygon points="463.451 767.314 469.504 757.235 481.851 760.176 494.924 781.593 487.418 783.406 466.114 777.397 463.451 767.314" fill="#e5d3bd"/>
        <polygon points="585.883 825.374 574.616 822.012 574.402 809.321 591.905 791.342 595.523 798.163 594.989 820.292 585.883 825.374" fill="#e5d3bd"/>
        <polygon points="779.414 813.374 768.148 810.012 767.934 797.321 785.437 779.342 789.055 786.163 788.521 808.292 779.414 813.374" fill="#e5d3bd"/>
        <polygon points="1022.729 700.882 1022.377 712.633 1010.168 716.104 988.293 703.812 993.954 698.562 1015.477 693.388 1022.729 700.882" fill="#e5d3bd"/>
        <polygon points="476.202 747.614 497.506 752.335 514.936 749.973 525.266 739.623 500.734 731.114 486.53 739.623 476.202 747.614" fill="#c7b29e"/>
        <polygon points="508.414 776.243 503.25 766.272 511.965 762.915 511.965 769.577 508.414 776.243" fill="#c7b29e"/>
        <polygon points="488.951 797.134 473.941 794.019 469.746 788.735 484.431 788.735 488.951 797.134" fill="#c7b29e"/>
        <polygon points="471.4 750.016 465.59 748.613 467.527 743.714 469.705 742.874 473.901 746.445 471.4 750.016" fill="#c7b29e"/>
        <polygon points="501.659 816.998 500.206 811.714 515.216 785.255 525.142 785.255 540.151 789.817 542.815 815.915 525.868 820.113 501.659 816.998" fill="#e5d3bd"/>
        <polygon points="673.36 700.694 676.176 695.993 705.673 688.558 712.533 695.733 719.607 709.735 702.584 729.694 687.839 720.346 673.36 700.694" fill="#e5d3bd"/>
        <polygon points="835.513 695.658 838.514 700.243 832.33 730.028 822.881 733.068 807.195 733.322 796.667 709.295 811.513 700.108 835.513 695.658" fill="#e5d3bd"/>
        <polygon points="533.063 735.04 531.61 729.757 546.62 703.297 556.546 703.297 571.556 707.86 574.219 733.958 557.272 738.155 533.063 735.04" fill="#e5d3bd"/>
        <polygon points="431.957 720.743 430.504 715.459 445.513 689 455.44 689 470.449 693.562 473.112 719.66 456.166 723.857 431.957 720.743" fill="#e5d3bd"/>
        <polygon points="565.527 797.161 554.553 788.129 558.75 778.3 566.819 775.264 571.983 781.929 565.527 797.161" fill="#c7b29e"/>
        <polygon points="589.017 780.757 582.239 772.053 589.017 756.539 593.537 754.439 606.449 767.767 599.347 782.999 589.017 780.757" fill="#c7b29e"/>
        <polygon points="591.315 721.012 584.537 712.309 591.315 696.795 595.835 694.695 608.746 708.023 601.645 723.254 591.315 721.012" fill="#c7b29e"/>
        <polygon points="903.315 729.693 896.537 720.989 903.315 705.476 907.835 703.376 920.746 716.703 913.645 731.935 903.315 729.693" fill="#c7b29e"/>
        <polygon points="485.946 701.081 494.512 694.13 510.159 700.596 512.349 705.073 499.283 718.249 483.912 711.454 485.946 701.081" fill="#c7b29e"/>
        <path d="M591.039,747.268s13.522-9.552,13.349-11.357-6.066-3.3-6.674-3.907-12.569,4.66-12.569,4.66l1.56,6.768Z" fill="#c7b29e"/>
        <polygon points="616.011 808.7 609.717 800.85 623.758 785.172 628.116 793.708 616.011 808.7" fill="#c7b29e"/>
        <polygon points="518.734 729.807 512.441 721.957 526.482 706.278 530.84 714.814 518.734 729.807" fill="#c7b29e"/>
        <polygon points="682.788 765.633 676.978 756.112 686.178 748.836 691.988 757.514 682.788 765.633" fill="#c7b29e"/>
        <polygon points="806.363 803.421 800.553 793.899 809.752 786.624 815.562 795.302 806.363 803.421" fill="#c7b29e"/>
        <polygon points="869.171 727.336 863.361 717.814 872.56 710.538 878.371 719.216 869.171 727.336" fill="#c7b29e"/>
        <polygon points="684.483 792.821 684.483 783.024 717.408 754.187 742.102 770.984 745.007 785.474 706.756 791.263 684.483 792.821" fill="#c7b29e"/>
        <polygon points="783.324 713.791 777.929 721.968 734.565 727.906 723.204 700.286 728.759 686.591 763.875 702.826 783.324 713.791" fill="#c7b29e"/>
        <polygon points="700.138 743.516 708.37 734.838 700.138 731.473 696.266 740.994 700.138 743.516" fill="#c7b29e"/>
        <polygon points="721.647 748.174 719.652 740.821 717.408 736.496 727.88 736.496 731.62 744.785 729.376 756.393 722.644 754.732 721.647 748.174" fill="#c7b29e"/>
        <polygon points="669.456 726.596 667.462 719.243 665.218 714.918 675.69 714.918 679.429 723.208 677.185 734.816 670.454 733.154 669.456 726.596" fill="#c7b29e"/>
        <polygon points="771.88 775.999 763.164 775.999 765.423 761.438 771.88 761.438 775.43 764.664 771.88 775.999" fill="#c7b29e"/>
        <polygon points="758.322 754.566 749.283 747.284 749.283 738.324 756.062 738.324 758.322 744.625 758.322 754.566" fill="#c7b29e"/>
        <path d="M879.3,764.652s-16.5-9.412-16.729-12.158.9-8.237,1.13-10,8.817-11.178,8.817-11.178h19.895S903.491,742.3,904.4,742.492s0,20.2,0,20.2l-14.243,1.961-6.483-7.062Z" fill="#c7b29e"/>
        <path d="M846.316,744.334s5.82-9.889,6.518-9.385-4.888-5.554-4.888-5.554l-6.75,2.017v7.269Z" fill="#c7b29e"/>
        <path d="M771.718,750.831c1.937-1.179,11.621-9.153,11.621-9.153h15.18l2.25-4.9-5.81-2.8h-21.3l-11.3,8.431,6.778,8.425Z" fill="#c7b29e"/>
        <path d="M963.207,733.47c1.937-1.18,11.621-9.154,11.621-9.154h15.18l2.251-4.9-5.811-2.8h-21.3l-11.3,8.431,6.778,8.426Z" fill="#c7b29e"/>
        <polygon points="918.054 738.655 928.599 754.266 943.334 769.677 954.323 774.024 960.068 764.05 960.068 751.696 948.829 737.293 936.841 734.508 923.354 731.347 918.054 738.655" fill="#e5d3bd"/>
        <polygon points="616.518 747.935 634.908 743.849 654.649 735.791 662.722 727.162 655.55 718.16 644.057 713.63 626.535 718.804 619.548 728.936 611.662 740.324 616.518 747.935" fill="#e5d3bd"/>
        <path d="M830.5,809.558,824.36,795.88l10.178-8.858s15.154,8.541,16.562,8.525S853.953,809,853.953,809l-16.493,7.4Z" fill="#e5d3bd"/>
        <path d="M1053.678,742.817s8.715-11.207,10.329-8.4,13.234,13.759,13.234,13.759h-13.234Z" fill="#e5d3bd"/>
        <path d="M1092.413,741.972s4.843-13.44,6.133-14,10.006,7,10.006,7-4.841,12.046-6.133,12.6S1092.413,741.972,1092.413,741.972Z" fill="#c7b29e"/>
        <g>
          <path d="M529.1,762.638l25.825-17.546,10.167,14.758s-5.084,7.972-5.81,7.874-19.368,2-19.368,2Z" fill="#c7b29e"/>
          <path d="M618.872,768.41l27.113-14.442,23.564-9.67,12.267,16.151-16.462,19.743s-17.433-.1-18.724,0-9.037-1.5-9.037-1.5Z" fill="#c7b29e"/>
          <path d="M803.148,781.783c-1.615,0-11.945-19.145-11.945-19.145s7.425-15.952,17.755-17.945,33.892.4,36.475,1.993,6.779,25.126,6.456,26.323-2.259,8.374-16.786,8.774S803.148,781.783,803.148,781.783Z" fill="#c7b29e"/>
          <path d="M864.505,783.492l10.975-8.951,11.621,8.951s-6.135,8.194-7.748,7.8S864.505,783.492,864.505,783.492Z" fill="#c7b29e"/>
          <path d="M1018.1,761.065c-2.259-.8-12.589,1.6-12.589-1.991s2.583-12.963,2.583-12.963l23.241-4.588v12.764Z" fill="#c7b29e"/>
          <polygon points="983.265 749.482 999.404 743.936 983.265 739.308 975.841 741.104 983.265 749.482" fill="#c7b29e"/>
        </g>
        <g>
          <polygon points="966.498 706.576 960.596 713.877 948.208 712.042 934.821 697.061 942.298 695.615 963.687 699.455 966.498 706.576" fill="#c7b29e"/>
          <polygon points="856.856 693.392 862.665 698.845 860.336 709.215 846.817 719.606 846.062 713.187 850.652 695.325 856.856 693.392" fill="#c7b29e"/>
          <polygon points="937.779 719.876 943.609 720.754 941.745 724.282 939.579 724.925 935.331 722.47 937.779 719.876" fill="#c7b29e"/>
          <polygon points="1002.132 719.636 1013.238 725.839 1009.188 732.925 1001.164 735.254 995.901 730.616 1002.132 719.636" fill="#c7b29e"/>
          <polygon points="658.637 702.396 652.311 709.136 640.058 706.176 627.594 690.023 635.142 689.266 656.258 695.041 658.637 702.396" fill="#c7b29e"/>
          <polygon points="545.825 680.762 552.354 687.43 545.152 697.982 540.581 699.154 528.053 688.77 535.569 678.44 545.825 680.762" fill="#c7b29e"/>
          <path d="M1031.061,760.8c.7-1.511,22.953,9.237,22.953,9.237s-2.343,15.467-3.069,15.482-17.032,7.7-19.224,7.065-26.262-5.225-26.262-5.225l10.756-18.473,10.552-5Z" fill="#c7b29e"/>
        </g>
      </g>
    </g>
    <g>
      <ellipse cx="1245.927" cy="689.266" rx="99.367" ry="163.421" fill="#c4b399" stroke="#e2cdb3" stroke-miterlimit="10" stroke-width="12"/>
      <polyline points="1345.293 700.806 1345.293 809.994 1146.56 811.691 1146.56 700.806" fill="#c4b399" stroke="#e2cdb3" stroke-miterlimit="10" stroke-width="12"/>
    </g>
    <g>
      <rect x="1028.515" y="276.69" width="87.845" height="581.087" fill="#fcedd0"/>
      <rect x="1029.737" y="279.095" width="17.466" height="584.644" fill="url(#c)"/>
      <rect x="1049.96" y="282.772" width="24.82" height="584.644" fill="url(#d)"/>
      <rect x="1078.457" y="284.61" width="22.981" height="584.644" fill="url(#e)"/>
      <rect x="1103.277" y="276.337" width="15.627" height="584.644" fill="url(#f)"/>
    </g>
    <g>
      <rect x="339.645" y="247.341" width="87.845" height="581.087" fill="#fcedd0"/>
      <rect x="340.867" y="249.746" width="17.466" height="584.644" fill="url(#g)"/>
      <rect x="361.09" y="253.423" width="24.82" height="584.644" fill="url(#h)"/>
      <rect x="389.587" y="255.262" width="22.981" height="584.644" fill="url(#i)"/>
      <rect x="414.407" y="246.988" width="15.627" height="584.644" fill="url(#j)"/>
    </g>
    <g>
      <rect x="1372.95" y="276.759" width="87.845" height="581.087" fill="#fcedd0"/>
      <rect x="1374.172" y="279.164" width="17.466" height="584.644" fill="url(#k)"/>
      <rect x="1394.395" y="282.841" width="24.82" height="584.644" fill="url(#l)"/>
      <rect x="1422.892" y="284.68" width="22.981" height="584.644" fill="url(#m)"/>
      <rect x="1447.712" y="276.407" width="15.627" height="584.644" fill="url(#n)"/>
    </g>
    <g>
      <rect x="1717.385" y="261.19" width="87.845" height="581.087" fill="#fcedd0"/>
      <rect x="1718.606" y="263.595" width="17.466" height="584.644" fill="url(#o)"/>
      <rect x="1738.83" y="267.272" width="24.82" height="584.644" fill="url(#p)"/>
      <rect x="1767.327" y="269.111" width="22.981" height="584.644" fill="url(#q)"/>
      <rect x="1792.147" y="260.837" width="15.627" height="584.644" fill="url(#r)"/>
    </g>
    <g>
      <rect x="684.08" y="239.653" width="87.845" height="581.087" fill="#fcedd0"/>
      <rect x="685.302" y="242.057" width="17.466" height="584.644" fill="url(#s)"/>
      <rect x="705.525" y="245.734" width="24.82" height="584.644" fill="url(#t)"/>
      <rect x="734.022" y="247.573" width="22.981" height="584.644" fill="url(#u)"/>
      <rect x="758.842" y="239.3" width="15.627" height="584.644" fill="url(#v)"/>
    </g>
    <rect x="298.669" y="795.155" width="1549.718" height="176.992" fill="#ddccaf"/>
    <rect x="255.649" y="825.924" width="1632.742" height="183.5" fill="#ead9be"/>
    <rect x="303.88" y="186.684" width="1533.957" height="100.124" fill="#fcedd0"/>
    <rect x="284.476" y="237.237" width="1564.085" height="26.043" fill="#ead9be"/>
    <rect x="272.221" y="211.194" width="1590.128" height="26.043" fill="#fcedd0"/>
    <rect x="259.009" y="183.62" width="1615.404" height="30.147" fill="#ddccaf"/>
    <rect x="230.994" y="856.969" width="1692.631" height="193.306" fill="#fcedd0"/>
  </g>
  <rect x="-1135.29" y="881.033" width="4134.815" height="206.403" fill="#57744b"/>
  <g>
    <ellipse cx="745.099" cy="1018.605" rx="276.559" ry="43.039" fill="#475e3b"/>
    <g>
      <path d="M1206.745,977.381c0,12.886-67.117,23.331-149.911,23.331s-149.912-10.445-149.912-23.331,67.118-23.329,149.912-23.329S1206.745,964.5,1206.745,977.381Z" fill="#475e3b"/>
      <path d="M1596.244,1000.711c0,12.886-67.117,23.33-149.911,23.33s-149.911-10.444-149.911-23.33,67.118-23.33,149.911-23.33S1596.244,987.827,1596.244,1000.711Z" fill="#475e3b"/>
      <path d="M1782.486,1047.314c0,8.362-43.556,15.14-97.283,15.14s-97.283-6.778-97.283-15.14,43.554-15.139,97.283-15.139S1782.486,1038.953,1782.486,1047.314Z" fill="#475e3b"/>
      <ellipse cx="-16.941" cy="945.766" rx="148.413" ry="23.097" fill="#475e3b"/>
      <ellipse cx="1903.059" cy="945.766" rx="148.413" ry="23.097" fill="#475e3b"/>
      <path d="M303.767,1008.032c0,9.472-49.339,17.15-110.2,17.15s-110.2-7.678-110.2-17.15,49.339-17.15,110.2-17.15S303.767,998.56,303.767,1008.032Z" fill="#475e3b"/>
      <g>
        <path d="M196.479,938.466c0-4.209-4.36-7.616-9.739-7.616H165.092c-5.375,0-9.738,3.407-9.738,7.616h0c0,4.206,4.363,7.617,9.738,7.617H186.74c5.379,0,9.739-3.411,9.739-7.617Z" fill="#475e3b"/>
        <path d="M244.348,955.178c0-2.63-2.721-4.754-6.079-4.754h-13.51c-3.356,0-6.08,2.124-6.08,4.754h0c0,2.625,2.724,4.753,6.08,4.753h13.51c3.358,0,6.079-2.128,6.079-4.753Z" fill="#475e3b"/>
        <path d="M287.534,931.94c0-3.2-3.312-5.788-7.4-5.788H263.677c-4.088,0-7.4,2.587-7.4,5.788h0c0,3.195,3.316,5.791,7.4,5.791H280.13c4.092,0,7.4-2.6,7.4-5.791Z" fill="#475e3b"/>
      </g>
    </g>
  </g>
  <g>
    <path d="M1532.032,971.946c2.594-2.718,6.477-1.534,9.778-4.263s19.788-.87,25.791.494,40.872-1.409,44.215,2.222c2.223,2.416-17.043,7.41-25.689,7.41-4.513,0-10.127,1.73-16.549,1.41-8.609-.428-11.022-.29-18.526-1.657S1529.438,974.662,1532.032,971.946Z" fill="#3d5131"/>
    <path d="M1566.91,971.946c-14.821,0-32.069-10.163-16.509-21.278s17.613-9.137,30.952-5.432,18.08,5.375,18.945,12.1C1601.82,969.138,1581.73,971.946,1566.91,971.946Z" fill="#dbe3ec"/>
    <path d="M1599.9,955.448c-3.055,8.423-20.033,10.569-32.99,10.569-9.157,0-19.227-3.88-21.928-9.463-2.141,4.629-3.957,9-2.821,13.906,3.017,2.56,15.786,4.013,27.17,4.013,17.816,0,27.057-.924,31.311-3.642,1.822-4.817.369-7.975-.344-13.493A11.949,11.949,0,0,0,1599.9,955.448Z" fill="#9898b7"/>
    <path d="M1566.044,958.183c-.362-.076,13.462-1.023,17.168-2.735s11.855-1.092,8.025.759S1570.119,959.047,1566.044,958.183Z" fill="#c5d9e3"/>
    <path d="M1563.821,953.736s-10,1.235-9.88-1.112,2.346-.493,7.534-.739S1567.632,953.441,1563.821,953.736Z" fill="#c5d9e3"/>
    <path d="M1492.989,967.606c1.314-1.377,3.283-.776,4.957-2.161s10.036-.441,13.081.25,20.724-.714,22.419,1.127c1.128,1.226-8.642,3.759-13.027,3.759-2.285,0-5.135.877-8.391.712a56.484,56.484,0,0,1-9.394-.838C1498.828,969.763,1491.672,968.983,1492.989,967.606Z" fill="#3d5131"/>
    <path d="M1510.673,967.606c-7.515,0-16.26-5.154-8.37-10.79s8.931-4.634,15.7-2.753,9.166,2.724,9.607,6.136C1528.379,966.182,1518.19,967.606,1510.673,967.606Z" fill="#dbe3ec"/>
    <path d="M1527.405,959.242c-1.549,4.27-10.161,5.359-16.732,5.359-4.64,0-9.748-1.97-11.119-4.8-1.085,2.348-2.006,4.561-1.429,7.051,1.53,1.3,8,2.037,13.779,2.037,9.033,0,13.719-.47,15.877-1.849.922-2.442.187-4.044-.174-6.841A6.5,6.5,0,0,0,1527.405,959.242Z" fill="#9898b7"/>
    <path d="M1510.235,960.627c-.184-.038,6.826-.518,8.706-1.385s6.012-.557,4.072.383S1512.3,961.065,1510.235,960.627Z" fill="#c5d9e3"/>
    <path d="M1509.11,958.373s-5.075.624-5.012-.565,1.191-.249,3.82-.375S1511.041,958.222,1509.11,958.373Z" fill="#c5d9e3"/>
  </g>
  <path d="M341.011,977.521s14.57-3.254,20.5,7.36c-.62-5.789,1.1-22.191,14.2-28.807,0,0-8.407,13.783-3.859,28.944,0,0,6.478-32.527,34.181-31.563,0,0-23.155,13.783-23.568,32.045,0,0,19.433-23.775,43.829-12.2,0,0-19.847,1.654-32.252,12.818,0,0,15.713-1.24,21.915,7.029,0,0-22.328-3.721-27.29,4.549,0,0-1.359-2.979-3.536-2.979-1.062,0-2.33,2.979-3.707,2.979-2.283,0-5.013-2.887-7.679-2.887-1.7,0-3.309,2.887-4.963,2.887-1.48,0-3.014-2.783-4.341-2.783-1.58,0-2.909,2.783-4.1,2.783C356.546,983.364,341.011,977.521,341.011,977.521Z" fill="#475e3b"/>
  <path d="M1014.2,1059.277s12.392-2.767,17.433,6.26c-.527-4.923.938-18.874,12.075-24.5,0,0-7.151,11.722-3.283,24.617,0,0,5.51-27.665,29.072-26.846,0,0-19.693,11.723-20.046,27.256,0,0,16.53-20.221,37.279-10.375,0,0-16.881,1.407-27.431,10.9,0,0,13.364-1.056,18.639,5.978,0,0-18.991-3.165-23.211,3.868,0,0-1.155-2.533-3.008-2.533-.9,0-1.982,2.533-3.153,2.533-1.941,0-4.264-2.454-6.531-2.454-1.444,0-2.814,2.454-4.221,2.454-1.259,0-2.564-2.367-3.692-2.367-1.344,0-2.475,2.367-3.486,2.367C1027.408,1064.247,1014.2,1059.277,1014.2,1059.277Z" fill="#475e3b"/>
  <path d="M1102.821,1043.378s10.28-2.295,14.462,5.193c-.437-4.084.778-15.657,10.017-20.325,0,0-5.933,9.725-2.723,20.422,0,0,4.571-22.95,24.117-22.27,0,0-16.337,9.725-16.629,22.61,0,0,13.712-16.774,30.925-8.607,0,0-14,1.167-22.756,9.045,0,0,11.087-.876,15.462,4.959,0,0-15.754-2.624-19.254,3.21,0,0-.96-2.1-2.5-2.1-.749,0-1.644,2.1-2.616,2.1-1.611,0-3.536-2.036-5.418-2.036-1.2,0-2.334,2.036-3.5,2.036-1.045,0-2.127-1.964-3.063-1.964-1.115,0-2.052,1.964-2.891,1.964C1113.783,1047.5,1102.821,1043.378,1102.821,1043.378Z" fill="#475e3b"/>
  <path d="M1200.339,944.43s6.411-1.432,9.018,3.237c-.273-2.547.486-9.763,6.246-12.674,0,0-3.7,6.064-1.7,12.735,0,0,2.851-14.311,15.039-13.886,0,0-10.187,6.063-10.37,14.1,0,0,8.551-10.46,19.284-5.367,0,0-8.732.728-14.189,5.64,0,0,6.912-.546,9.641,3.092,0,0-9.824-1.637-12.006,2,0,0-.6-1.311-1.556-1.311-.468,0-1.025,1.311-1.631,1.311-1,0-2.206-1.271-3.379-1.271-.748,0-1.456,1.271-2.183,1.271-.651,0-1.327-1.225-1.91-1.225-.7,0-1.28,1.225-1.8,1.225C1207.174,947,1200.339,944.43,1200.339,944.43Z" fill="#475e3b"/>
  <g>
    <g>
      <path d="M1567.212,878.209s50.729-123.259,17.693-213.745h60.621s-35.039,120.966,18.226,213.745Z" fill="#a87c4f"/>
      <path d="M1645.526,664.464h-10.912s-35.04,120.966,18.226,213.745h10.912C1610.487,785.43,1645.526,664.464,1645.526,664.464Z" fill="#825737"/>
      <path d="M1633.208,679.687a53.586,53.586,0,0,1-31.03,6.116c-.938,3.657-4.163,9.042-8.194,13.541,0,0-2.789-23.218-5.538-27.081Z" fill="#825737"/>
      <path d="M1595.532,878.209s10.284-84.614,7.665-138.044c-.458-9.351,1.194-9.986,2.619-10.117,1.62-.146,2.349,4.763,2.357,10.578.059,56.456-6.657,137.583-6.657,137.583Z" fill="#93673f"/>
      <g>
        <path d="M1616.637,696.242c.2,2.78-5.546,24.769-1.944,94.2.29,5.565,3.452,3.358,3.8-.853s-2.819-60.848,2.689-91.162c.693-3.809-.259-6.563-1.482-6.136S1616.436,693.466,1616.637,696.242Z" fill="#93673f"/>
        <path d="M1619.668,809.068c.189,2.673-.475,4.9-1.481,4.968s-1.977-2.038-2.164-4.71.475-4.9,1.482-4.969S1619.479,806.4,1619.668,809.068Z" fill="#93673f"/>
        <path d="M1621.711,821.878c.155,2.192-.382,4.017-1.2,4.075s-1.6-1.673-1.757-3.865.383-4.013,1.2-4.074S1621.556,819.687,1621.711,821.878Z" fill="#93673f"/>
      </g>
    </g>
    <g>
      <path d="M1721.019,549.743c21.444-43.844-32.666-72.584-62.578-55.174-24.826-47.825-87.906-34.331-96.419,10.07-20.85-10-44.9,7.625-43,31.213a43.768,43.768,0,0,0-4.32,80.445,48.782,48.782,0,0,0,78.113,56.736,48.905,48.905,0,0,0,35.41,6.056,43.756,43.756,0,0,0,74.452-43.807,43.759,43.759,0,0,0,18.345-85.539Z" fill="#8baa1d"/>
      <path d="M1529.567,551.142c-1.9-23.59,19.14-37.408,39.989-27.411,8.514-44.4,64.059-52.506,88.885-4.681,24.654-15.458,64.5,14.331,45.627,46.215,16.78-2.517,28-.629,44.287,4.468a43.822,43.822,0,0,0-27.336-20.264c21.444-43.847-32.666-72.586-62.578-55.172-24.826-47.827-87.906-34.332-96.419,10.068-20.85-10-44.9,7.622-43,31.211a43.809,43.809,0,0,0-27.053,53.527C1495.9,575.746,1506.356,549.463,1529.567,551.142Z" fill="#b5d13f"/>
      <path d="M1750.991,575.455c-6.639,15.7-22.312,48.126-62.862,38.9,4.194,22.374-11.326,60.834-59.907,39.287a48.884,48.884,0,0,1-35.41-6.057A48.622,48.622,0,0,1,1557.9,662.3c-21.04,0-44.833-17.464-45.812-40.383a48.78,48.78,0,0,0,80.724,50.836,48.9,48.9,0,0,0,35.41,6.057A43.757,43.757,0,0,0,1702.674,635a43.76,43.76,0,0,0,48.416-59.791C1751.057,575.295,1751.026,575.375,1750.991,575.455Z" fill="#71890e"/>
      <g>
        <path d="M1669.531,550.776s-1.289-8.637,3.864-9.125c5.741-.544,5.539,7.235,5.539,7.235s5.364-11.423,11.667-7.025c7.1,4.955-5.435,14.285-5.435,14.285s3.894-7.468,1.546-8.68-9.219,7.161-9.219,7.161-1.285-8.8-3.273-8.7S1669.531,550.776,1669.531,550.776Z" fill="#71890e"/>
        <path d="M1692.923,581.974s-1.287-8.637,3.866-9.127c5.739-.542,5.537,7.236,5.537,7.236s5.365-11.423,11.668-7.026c7.1,4.956-5.435,14.285-5.435,14.285s3.894-7.466,1.546-8.68-9.219,7.162-9.219,7.162-1.284-8.8-3.273-8.7S1692.923,581.974,1692.923,581.974Z" fill="#71890e"/>
        <path d="M1578.34,639.5s1.288-8.637-3.864-9.125c-5.74-.544-5.538,7.235-5.538,7.235s-5.365-11.423-11.67-7.025c-7.1,4.953,5.437,14.283,5.437,14.283s-3.894-7.466-1.546-8.677,9.219,7.16,9.219,7.16,1.284-8.8,3.274-8.7S1578.34,639.5,1578.34,639.5Z" fill="#71890e"/>
        <path d="M1554.948,614.869s1.288-8.637-3.866-9.126c-5.739-.542-5.537,7.235-5.537,7.235s-5.365-11.423-11.669-7.024c-7.1,4.953,5.436,14.282,5.436,14.282s-3.894-7.464-1.546-8.677,9.219,7.161,9.219,7.161,1.285-8.8,3.273-8.7S1554.948,614.869,1554.948,614.869Z" fill="#71890e"/>
        <path d="M1583.248,546.085s1.287-8.635-3.865-9.124c-5.74-.544-5.537,7.234-5.537,7.234s-5.365-11.423-11.669-7.025c-7.1,4.954,5.436,14.286,5.436,14.286s-3.894-7.469-1.546-8.68,9.218,7.16,9.218,7.16,1.284-8.8,3.274-8.7S1583.248,546.085,1583.248,546.085Z" fill="#71890e"/>
      </g>
    </g>
  </g>
  <g>
    <g>
      <path d="M103.442,881.7s36.532-153.932,20.738-217.438c-5.451-21.911-46.913-12.107-63.579-32.522-16.188-19.826-7.052-75.492-7.052-75.492l15.48.336S66.475,607.1,74.893,612.8c16.008,10.851,44.512,9.1,51.791,8.072,5.747-32.3,5.1-75.017,5.1-75.017l39.8,6.125S168.828,629.2,190.6,644.508c13.423,9.44,48.677,12.623,61.6,5.8,5.619-5.769,7.414-23.666,6.633-53.926,16.327-.508,15.817,2.094,15.817,2.094s1.3,55.22-9.695,66.292c-12.108,12.185-34.052,10.953-61.4,10.953-44.267,0-6.8,205.974-6.8,205.974Z" fill="#a87c4f"/>
      <g>
        <path d="M157.187,549.612c-.029,20.017-1.292,53.915,29.864,92.2-17.507-20.541-15.977-89.828-15.977-89.828Z" fill="#825737"/>
        <path d="M274.144,598.476s-1.7-1.358-7.4-1.328c2.282,15.75,1.49,52.722-6.889,61.154-12.107,12.189-54.936,4.083-66.33,9.272C162.76,681.583,170.24,839.421,175.639,881.7h20.607s-35.632-205.446,7.314-205.974c27.345-.335,49.291,1.232,61.4-10.953C275.958,653.7,274.144,598.476,274.144,598.476Z" fill="#825737"/>
      </g>
      <path d="M136.294,881.7s11.54-94.96,8.6-154.924c-.515-10.5,1.338-11.208,2.937-11.354,1.822-.165,2.638,5.345,2.645,11.871.068,63.359-7.47,154.407-7.47,154.407Z" fill="#93673f"/>
      <path d="M52.194,608.606s8.839,17.377,15.983,21.969c8.859,5.7,54.234,14.875,58.507,22.285,3.63,6.292,3.151,37.924,3.151,37.924s-4.351-27.282-11.655-34.523c-9.61-9.527-39.713-9.1-51.788-18.628C53.714,627.634,52.194,608.606,52.194,608.606Z" fill="#825737"/>
      <path d="M166.484,675.41c0,3.127-8.165,27.29-9.612,105.306-.113,6.251,3.6,4.032,4.324-.657s1.645-68.344,10.2-101.843c1.077-4.209.228-7.368-1.174-6.985S166.477,672.285,166.484,675.41Z" fill="#93673f"/>
      <path d="M149.389,692.155c0,3.945-1.344,7.143-3,7.143s-3-3.2-3-7.143,1.346-7.145,3-7.145S149.389,688.21,149.389,692.155Z" fill="#93673f"/>
      <path d="M65.8,611.013s2.382,7.145,8.333,9.864,38.1,8.847,39.291,9.358,3.061,3.4-1.532,3.4S76.361,626.557,71.26,623.3c-3.846-2.451-9.369-9.351-10.227-12.29C59.651,606.27,65.8,611.013,65.8,611.013Z" fill="#93673f"/>
      <path d="M144.407,562.192s-4.491,40.685-3.946,53.583c.51,12.08,6.241,6.125,5.416,0s3-49.755,3-49.755Z" fill="#93673f"/>
      <path d="M158.829,630.517c0,5.106-1.313,9.245-2.934,9.245s-2.934-4.139-2.934-9.245,1.313-9.245,2.934-9.245S158.829,625.409,158.829,630.517Z" fill="#93673f"/>
    </g>
    <g>
      <path d="M377.242,559.437c11.87-41.468-21.486-93.137-66.715-88.645,28.958-37.445-24.33-115.966-91.216-94.713a53.377,53.377,0,0,0-45.173-24.908c-20.828,0-64.484,8.946-78.473,56.8-60.451-5.14-82.416,45.311-77.085,63.458a43.14,43.14,0,0,0-50.618,42.52c0,1.378.072,2.74.2,4.088A46.05,46.05,0,0,0-66.48,562.652,46.034,46.034,0,0,0-20.451,608.69,45.853,45.853,0,0,0,11,596.252c37.842,16.106,80.553,2.132,110.33-27.506a65.708,65.708,0,0,0,24.123,4.556q2.612,0,5.172-.2a48.684,48.684,0,0,0,68.545,26.25,61.843,61.843,0,0,0,62.65,31.119,46.928,46.928,0,0,0,69.232,8.229,42.008,42.008,0,1,0,26.191-79.261Z" fill="#8baa1d"/>
      <g>
        <path d="M378.284,527.974c-5.315-26.994-30.411-61.487-67.757-57.182C344.406,483.339,365.438,507.959,378.284,527.974Z" fill="#e3f991"/>
        <path d="M18.58,471.431c-1.381-.135-6.032-.653-7.452-.653-23.161,0-43.639,17.153-43.114,46.625C-20.52,488.571-6.1,477.6,18.58,471.431Z" fill="#b5d13f"/>
        <path d="M106.786,428.735c12.245-47.461,45.57-52.048,67.456-52.048a56.787,56.787,0,0,1,47.468,24.907c43.348-13.107,81.261,11.739,96.815,41.492-2.011-38.307-46.367-83.8-99.214-67.007a53.377,53.377,0,0,0-45.173-24.908c-20.828,0-64.484,8.946-78.473,56.8-55.6-4.728-78.645,37.573-77.831,58.514C29.081,448.093,60.832,419.548,106.786,428.735Z" fill="#b5d13f"/>
      </g>
      <path d="M368.672,611.954a41.814,41.814,0,0,1-17.621-3.877,46.929,46.929,0,0,1-69.232-8.225,62.513,62.513,0,0,1-8.639.6,61.806,61.806,0,0,1-54.011-31.724,48.689,48.689,0,0,1-68.545-26.25q-2.559.2-5.172.2a65.748,65.748,0,0,1-24.123-4.555C91.552,567.766,48.841,581.741,11,565.632a45.858,45.858,0,0,1-31.45,12.438,46.045,46.045,0,0,1-43.42-30.732,45.944,45.944,0,0,0-2.609,15.314A46.034,46.034,0,0,0-20.451,608.69,45.853,45.853,0,0,0,11,596.252c37.842,16.106,80.553,2.132,110.33-27.506a65.708,65.708,0,0,0,24.123,4.556q2.612,0,5.172-.2a48.684,48.684,0,0,0,68.545,26.25,61.843,61.843,0,0,0,62.65,31.119,46.928,46.928,0,0,0,69.232,8.229,42.008,42.008,0,0,0,56.732-53.445A42.006,42.006,0,0,1,368.672,611.954Z" fill="#71890e"/>
      <g>
        <path d="M-7.443,521.881s-7.295-7.719-2.494-11.793c5.349-4.537,10.56,3.366,10.56,3.366s-2.6-15.132,6.754-15.132c10.533,0,4.514,18.033,4.514,18.033s-1.31-10.156-4.5-9.731-4.215,13.558-4.215,13.558-7.406-7.887-9.319-6.4S-7.443,521.881-7.443,521.881Z" fill="#71890e"/>
        <path d="M44.85,530.265s-9.752-4.21-6.951-9.849c3.122-6.282,11.028-1.082,11.028-1.082s-8.36-12.875.226-16.567c9.676-4.165,11.273,14.781,11.273,14.781s-5.217-8.815-7.975-7.165,1.485,14.123,1.485,14.123-9.919-4.32-11.089-2.2S44.85,530.265,44.85,530.265Z" fill="#71890e"/>
        <path d="M133.921,416.475s-5.634-9-.125-12.052c6.136-3.395,9.692,5.377,9.692,5.377s.431-15.348,9.6-13.507c10.328,2.073.878,18.57.878,18.57s.717-10.217-2.492-10.429-6.8,12.466-6.8,12.466-5.708-9.192-7.877-8.108S133.921,416.475,133.921,416.475Z" fill="#71890e"/>
        <path d="M248.46,512.871s-1.567-10.5,4.7-11.1c6.981-.663,6.735,8.8,6.735,8.8s6.524-13.895,14.193-8.548c8.64,6.027-6.612,17.376-6.612,17.376s4.738-9.083,1.88-10.557-11.213,8.71-11.213,8.71-1.562-10.706-3.981-10.58S248.46,512.871,248.46,512.871Z" fill="#71890e"/>
        <path d="M349.175,576.748s1-10.575,7.228-9.646c6.935,1.037,4.424,10.164,4.424,10.164s9.674-11.92,15.831-4.886c6.94,7.928-10.592,15.276-10.592,15.276s6.78-7.675,4.361-9.794-12.977,5.76-12.977,5.76,1.055-10.768-1.323-11.229S349.175,576.748,349.175,576.748Z" fill="#71890e"/>
        <path d="M307.441,505.307s1-10.576,7.23-9.645c6.935,1.037,4.424,10.164,4.424,10.164s9.672-11.922,15.83-4.885c6.938,7.924-10.592,15.274-10.592,15.274s6.781-7.676,4.362-9.794-12.977,5.761-12.977,5.761,1.053-10.769-1.323-11.23S307.441,505.307,307.441,505.307Z" fill="#71890e"/>
      </g>
    </g>
  </g>
  <path d="M1248.3,943.176s6.411-1.431,9.018,3.238c-.273-2.547.486-9.764,6.246-12.674,0,0-3.7,6.064-1.7,12.735,0,0,2.85-14.312,15.038-13.887,0,0-10.186,6.063-10.369,14.1,0,0,8.551-10.461,19.284-5.367,0,0-8.732.727-14.19,5.64,0,0,6.913-.546,9.642,3.092,0,0-9.824-1.637-12.006,2,0,0-.6-1.31-1.556-1.31-.468,0-1.025,1.31-1.631,1.31-1,0-2.206-1.27-3.379-1.27-.748,0-1.456,1.27-2.184,1.27-.651,0-1.326-1.224-1.909-1.224-.7,0-1.281,1.224-1.8,1.224C1255.138,945.747,1248.3,943.176,1248.3,943.176Z" fill="#475e3b"/>
  <path d="M420.692,961.154s9.116-2.036,12.824,4.605c-.388-3.622.69-13.884,8.882-18.024,0,0-5.26,8.624-2.415,18.109,0,0,4.053-20.351,21.386-19.747,0,0-14.487,8.623-14.746,20.049,0,0,12.16-14.875,27.423-7.631,0,0-12.418,1.034-20.179,8.02,0,0,9.831-.777,13.711,4.4,0,0-13.969-2.328-17.074,2.846,0,0-.85-1.863-2.212-1.863-.665,0-1.458,1.863-2.32,1.863-1.428,0-3.136-1.806-4.8-1.806-1.063,0-2.071,1.806-3.105,1.806-.926,0-1.887-1.741-2.716-1.741-.989,0-1.821,1.741-2.564,1.741C430.412,964.81,420.692,961.154,420.692,961.154Z" fill="#475e3b"/>
  <g>
    <g>
      <path d="M76.311,868.535c1.154,0,2.29.077,3.42.172a40.768,40.768,0,0,1,33.189-24.228A53.545,53.545,0,0,1,216.769,829.3a37.367,37.367,0,0,1,6.27-2.125,50.36,50.36,0,0,1,97.444,11.593,43.893,43.893,0,0,1,62.506,39.822c0,1.086-.085,2.149-.162,3.214H46.283A40.592,40.592,0,0,1,76.311,868.535Z" fill="#8baa1d"/>
      <path d="M66.506,875.773H382.1a11.635,11.635,0,0,1,.891,4.425,11.2,11.2,0,0,1-.162,1.606H46.283A57.729,57.729,0,0,1,66.506,875.773Z" fill="#71890e"/>
      <path d="M381.636,881.8a43.979,43.979,0,0,0-42.61-33.109c-6.635,0-17.562-.922-23.2,1.711-2.745-25.241-19.451-42.46-45.423-42.46a50.371,50.371,0,0,0-47.361,33.3,37.452,37.452,0,0,0-6.27,2.123,53.588,53.588,0,0,0-50.386-35.424c-28.595,0-44.3,22.972-45.876,51.172-14.7-1.635-33.986,9.894-40.283,22.686H46.283a40.592,40.592,0,0,1,30.028-13.269c1.154,0,2.29.077,3.42.172a40.768,40.768,0,0,1,33.189-24.228A53.545,53.545,0,0,1,216.769,829.3a37.367,37.367,0,0,1,6.27-2.125,50.36,50.36,0,0,1,97.444,11.593,43.893,43.893,0,0,1,62.506,39.822c0,1.086-.085,2.149-.162,3.214Z" fill="#71890e"/>
      <path d="M143.211,831.792c2.3-1.677,6.326,0,8.986,3.737a12.982,12.982,0,0,1,1.033,1.721c-.273-3.113.91-5.754,2.842-6.088,2.11-.365,4.312,2.165,4.913,5.647a8.911,8.911,0,0,1-.335,4.613,8.3,8.3,0,0,0-.083-2.285c-.5-2.918-2.346-5.03-4.113-4.727-1.6.274-2.585,2.44-2.386,5.009a9.428,9.428,0,0,1,.31,1.735,9.2,9.2,0,0,1-.628-1.421,10.311,10.311,0,0,0-.747-1.217c-2.228-3.133-5.595-4.534-7.525-3.129s-1.687,5.084.541,8.217a11.009,11.009,0,0,0,.758.946,12.252,12.252,0,0,1-2.92-2.942C141.2,837.867,140.906,833.472,143.211,831.792Z" fill="#71890e"/>
      <path d="M234.322,847.66c2.3-1.679,6.327-.006,8.986,3.736a12.589,12.589,0,0,1,1.032,1.72c-.271-3.113.912-5.752,2.844-6.087,2.111-.365,4.312,2.163,4.913,5.645a8.912,8.912,0,0,1-.335,4.614A8.345,8.345,0,0,0,251.68,855c-.506-2.917-2.346-5.029-4.113-4.727-1.6.276-2.585,2.44-2.388,5.01a9.267,9.267,0,0,1,.311,1.735,9.2,9.2,0,0,1-.628-1.421,10.529,10.529,0,0,0-.747-1.217c-2.228-3.133-5.6-4.533-7.525-3.129s-1.686,5.084.54,8.216a10.589,10.589,0,0,0,.759.947,12.294,12.294,0,0,1-2.92-2.943C232.309,853.733,232.018,849.338,234.322,847.66Z" fill="#71890e"/>
      <path d="M246.968,821.612c2.3-1.678,6.326-.006,8.987,3.736a13.091,13.091,0,0,1,1.032,1.722c-.273-3.114.912-5.754,2.842-6.087,2.111-.365,4.312,2.163,4.914,5.645a8.91,8.91,0,0,1-.336,4.613,8.3,8.3,0,0,0-.082-2.285c-.5-2.917-2.346-5.029-4.113-4.727-1.6.274-2.585,2.44-2.387,5.01a9.443,9.443,0,0,1,.31,1.735,9.456,9.456,0,0,1-.628-1.422,10.55,10.55,0,0,0-.747-1.216c-2.228-3.133-5.595-4.533-7.525-3.129s-1.687,5.084.541,8.217a11.056,11.056,0,0,0,.759.946,12.271,12.271,0,0,1-2.92-2.942C244.954,827.686,244.663,823.291,246.968,821.612Z" fill="#71890e"/>
      <path d="M196.936,837.528c-1.952-2.076-6.217-1.179-9.524,2a13.148,13.148,0,0,0-1.335,1.5c.845-3.008.172-5.822-1.663-6.508-2.006-.751-4.639,1.326-5.875,4.635a8.891,8.891,0,0,0-.525,4.6,8.3,8.3,0,0,1,.5-2.229c1.037-2.773,3.238-4.51,4.916-3.882,1.522.565,2.089,2.876,1.418,5.364a9.4,9.4,0,0,0-.626,1.648,9.23,9.23,0,0,0,.88-1.279,10.759,10.759,0,0,1,.96-1.061c2.771-2.663,6.34-3.414,7.975-1.676s.714,5.308-2.055,7.974a11.947,11.947,0,0,1-.921.788,12.278,12.278,0,0,0,3.414-2.351C197.789,843.869,198.888,839.605,196.936,837.528Z" fill="#71890e"/>
      <path d="M300.684,825.965c-1.952-2.077-6.217-1.18-9.524,2a13.053,13.053,0,0,0-1.335,1.5c.845-3.009.171-5.822-1.664-6.509-2.006-.75-4.638,1.326-5.875,4.637a8.9,8.9,0,0,0-.525,4.6,8.34,8.34,0,0,1,.5-2.231c1.038-2.771,3.239-4.509,4.917-3.881,1.522.565,2.089,2.876,1.418,5.364a9.4,9.4,0,0,0-.626,1.648,9.325,9.325,0,0,0,.879-1.28,10.877,10.877,0,0,1,.961-1.06c2.77-2.664,6.34-3.414,7.974-1.677s.715,5.309-2.055,7.974a11.565,11.565,0,0,1-.921.789,12.279,12.279,0,0,0,3.416-2.351C301.536,832.3,302.636,828.041,300.684,825.965Z" fill="#71890e"/>
    </g>
    <g>
      <path d="M501.619,868.535c1.154,0,2.29.077,3.421.172a40.766,40.766,0,0,1,33.188-24.228A53.545,53.545,0,0,1,642.077,829.3a37.409,37.409,0,0,1,6.271-2.125,50.359,50.359,0,0,1,97.443,11.593A43.894,43.894,0,0,1,808.3,878.59c0,1.086-.085,2.149-.163,3.214H471.592A40.592,40.592,0,0,1,501.619,868.535Z" fill="#8baa1d"/>
      <path d="M491.815,875.773H807.407a11.635,11.635,0,0,1,.891,4.425,11.064,11.064,0,0,1-.163,1.606H471.592A57.729,57.729,0,0,1,491.815,875.773Z" fill="#71890e"/>
      <path d="M806.945,881.8A43.981,43.981,0,0,0,764.334,848.7c-6.634,0-17.561-.922-23.2,1.711-2.745-25.241-19.451-42.46-45.424-42.46a50.37,50.37,0,0,0-47.36,33.3,37.493,37.493,0,0,0-6.271,2.123,53.586,53.586,0,0,0-50.385-35.424c-28.6,0-44.305,22.972-45.876,51.172-14.7-1.635-33.986,9.894-40.283,22.686H471.592a40.592,40.592,0,0,1,30.027-13.269c1.154,0,2.29.077,3.421.172a40.766,40.766,0,0,1,33.188-24.228A53.545,53.545,0,0,1,642.077,829.3a37.409,37.409,0,0,1,6.271-2.125,50.359,50.359,0,0,1,97.443,11.593A43.894,43.894,0,0,1,808.3,878.59c0,1.086-.085,2.149-.163,3.214Z" fill="#71890e"/>
      <path d="M568.519,831.792c2.3-1.677,6.327,0,8.987,3.737a13.09,13.09,0,0,1,1.033,1.721c-.274-3.113.91-5.754,2.842-6.088,2.11-.365,4.312,2.165,4.913,5.647a8.911,8.911,0,0,1-.335,4.613,8.343,8.343,0,0,0-.083-2.285c-.5-2.918-2.346-5.03-4.113-4.727-1.6.274-2.585,2.44-2.386,5.009a9.513,9.513,0,0,1,.31,1.735,9.3,9.3,0,0,1-.629-1.421,10.17,10.17,0,0,0-.746-1.217c-2.228-3.133-5.6-4.534-7.526-3.129s-1.686,5.084.542,8.217a11.009,11.009,0,0,0,.758.946,12.252,12.252,0,0,1-2.92-2.942C566.505,837.867,566.215,833.472,568.519,831.792Z" fill="#71890e"/>
      <path d="M659.631,847.66c2.3-1.679,6.327-.006,8.986,3.736a12.691,12.691,0,0,1,1.032,1.72c-.271-3.113.912-5.752,2.843-6.087,2.111-.365,4.312,2.163,4.914,5.645a8.9,8.9,0,0,1-.336,4.614,8.306,8.306,0,0,0-.082-2.285c-.506-2.917-2.345-5.029-4.112-4.727-1.6.276-2.586,2.44-2.388,5.01a9.183,9.183,0,0,1,.31,1.735,9.107,9.107,0,0,1-.627-1.421,10.529,10.529,0,0,0-.747-1.217c-2.229-3.133-5.6-4.533-7.526-3.129s-1.686,5.084.541,8.216a10.761,10.761,0,0,0,.758.947,12.331,12.331,0,0,1-2.92-2.943C657.617,853.733,657.327,849.338,659.631,847.66Z" fill="#71890e"/>
      <path d="M672.277,821.612c2.3-1.678,6.326-.006,8.986,3.736a12.992,12.992,0,0,1,1.033,1.722c-.273-3.114.911-5.754,2.842-6.087,2.111-.365,4.312,2.163,4.914,5.645a8.92,8.92,0,0,1-.336,4.613,8.342,8.342,0,0,0-.082-2.285c-.506-2.917-2.347-5.029-4.114-4.727-1.6.274-2.584,2.44-2.386,5.01a9.443,9.443,0,0,1,.31,1.735,9.356,9.356,0,0,1-.628-1.422,10.691,10.691,0,0,0-.747-1.216c-2.228-3.133-5.595-4.533-7.525-3.129s-1.687,5.084.541,8.217a10.866,10.866,0,0,0,.759.946,12.253,12.253,0,0,1-2.92-2.942C670.262,827.686,669.972,823.291,672.277,821.612Z" fill="#71890e"/>
      <path d="M622.245,837.528c-1.952-2.076-6.217-1.179-9.524,2a13.053,13.053,0,0,0-1.335,1.5c.845-3.008.171-5.822-1.664-6.508-2.006-.751-4.638,1.326-5.875,4.635a8.913,8.913,0,0,0-.525,4.6,8.3,8.3,0,0,1,.5-2.229c1.037-2.773,3.238-4.51,4.916-3.882,1.522.565,2.089,2.876,1.418,5.364a9.4,9.4,0,0,0-.626,1.648,9.14,9.14,0,0,0,.879-1.279,10.771,10.771,0,0,1,.961-1.061c2.77-2.663,6.34-3.414,7.974-1.676s.715,5.308-2.054,7.974a11.773,11.773,0,0,1-.922.788,12.3,12.3,0,0,0,3.415-2.351C623.1,843.869,624.2,839.605,622.245,837.528Z" fill="#71890e"/>
      <path d="M725.993,825.965c-1.953-2.077-6.218-1.18-9.524,2a13.159,13.159,0,0,0-1.336,1.5c.846-3.009.172-5.822-1.663-6.509-2.006-.75-4.638,1.326-5.875,4.637a8.889,8.889,0,0,0-.525,4.6,8.34,8.34,0,0,1,.5-2.231c1.037-2.771,3.239-4.509,4.916-3.881,1.522.565,2.089,2.876,1.418,5.364a9.482,9.482,0,0,0-.626,1.648,9.242,9.242,0,0,0,.88-1.28,10.877,10.877,0,0,1,.961-1.06c2.77-2.664,6.339-3.414,7.974-1.677s.714,5.309-2.055,7.974a11.745,11.745,0,0,1-.921.789,12.279,12.279,0,0,0,3.416-2.351C726.845,832.3,727.945,828.041,725.993,825.965Z" fill="#71890e"/>
    </g>
    <g>
      <path d="M1523.784,871.017c.938,0,1.861.063,2.78.14a33.139,33.139,0,0,1,26.979-19.7,43.527,43.527,0,0,1,84.419-12.339,30.479,30.479,0,0,1,5.1-1.727,40.938,40.938,0,0,1,79.213,9.424,35.679,35.679,0,0,1,50.812,32.371c0,.883-.069,1.747-.132,2.613H1499.374A33,33,0,0,1,1523.784,871.017Z" fill="#8baa1d"/>
      <path d="M1515.814,876.9h256.545a9.455,9.455,0,0,1,.725,3.6,9.06,9.06,0,0,1-.132,1.3H1499.374A46.935,46.935,0,0,1,1515.814,876.9Z" fill="#71890e"/>
      <path d="M1771.984,881.8a35.752,35.752,0,0,0-34.638-26.914c-5.394,0-14.276-.75-18.862,1.391-2.231-20.519-15.812-34.517-36.925-34.517a40.948,40.948,0,0,0-38.5,27.071,30.476,30.476,0,0,0-5.1,1.726,43.56,43.56,0,0,0-40.958-28.8c-23.245,0-36.015,18.675-37.293,41.6-11.951-1.328-27.627,8.043-32.746,18.442h-27.591a33,33,0,0,1,24.41-10.787c.938,0,1.861.063,2.78.14a33.139,33.139,0,0,1,26.979-19.7,43.527,43.527,0,0,1,84.419-12.339,30.479,30.479,0,0,1,5.1-1.727,40.938,40.938,0,0,1,79.213,9.424,35.679,35.679,0,0,1,50.812,32.371c0,.883-.069,1.747-.132,2.613Z" fill="#71890e"/>
      <path d="M1578.167,841.149c1.871-1.363,5.143,0,7.305,3.038a10.62,10.62,0,0,1,.84,1.4c-.223-2.531.74-4.677,2.31-4.949,1.715-.3,3.5,1.76,3.994,4.59a7.246,7.246,0,0,1-.273,3.75,6.745,6.745,0,0,0-.067-1.857c-.411-2.372-1.907-4.089-3.343-3.843-1.3.223-2.1,1.984-1.94,4.072a7.662,7.662,0,0,1,.252,1.41,7.466,7.466,0,0,1-.511-1.155,8.291,8.291,0,0,0-.607-.989c-1.811-2.547-4.548-3.685-6.117-2.544s-1.371,4.133.44,6.68a8.747,8.747,0,0,0,.616.769,9.984,9.984,0,0,1-2.374-2.391C1576.529,846.087,1576.293,842.515,1578.167,841.149Z" fill="#71890e"/>
      <path d="M1652.232,854.048c1.871-1.365,5.143,0,7.305,3.037a10.4,10.4,0,0,1,.839,1.4c-.221-2.531.741-4.677,2.311-4.949,1.716-.3,3.505,1.759,3.994,4.589a7.237,7.237,0,0,1-.273,3.751,6.743,6.743,0,0,0-.066-1.857c-.412-2.372-1.907-4.088-3.343-3.844-1.3.225-2.1,1.984-1.941,4.073a.766.766,0,1,1-.259.255,8.591,8.591,0,0,0-.607-.989c-1.811-2.547-4.549-3.685-6.117-2.543s-1.37,4.133.439,6.679a8.829,8.829,0,0,0,.617.769,9.989,9.989,0,0,1-2.374-2.392C1650.6,858.985,1650.359,855.413,1652.232,854.048Z" fill="#71890e"/>
      <path d="M1662.512,832.874c1.87-1.364,5.142,0,7.305,3.037a10.633,10.633,0,0,1,.839,1.4c-.222-2.531.741-4.677,2.31-4.948,1.716-.3,3.506,1.759,4,4.589a7.245,7.245,0,0,1-.273,3.75,6.745,6.745,0,0,0-.067-1.857c-.411-2.372-1.907-4.088-3.344-3.843-1.3.223-2.1,1.984-1.939,4.073a.765.765,0,1,1-.259.254,8.666,8.666,0,0,0-.607-.988c-1.812-2.547-4.548-3.685-6.118-2.544s-1.371,4.133.44,6.68a8.944,8.944,0,0,0,.617.769,9.989,9.989,0,0,1-2.374-2.392C1660.874,837.811,1660.638,834.239,1662.512,832.874Z" fill="#71890e"/>
      <path d="M1621.841,845.812c-1.587-1.688-5.054-.959-7.743,1.63a10.644,10.644,0,0,0-1.085,1.218c.687-2.445.14-4.732-1.352-5.29-1.631-.61-3.771,1.078-4.776,3.768a7.241,7.241,0,0,0-.427,3.736,6.759,6.759,0,0,1,.41-1.812c.844-2.254,2.633-3.666,4-3.156,1.237.46,1.7,2.338,1.152,4.36a7.682,7.682,0,0,0-.508,1.34,7.46,7.46,0,0,0,.714-1.04,8.942,8.942,0,0,1,.781-.862c2.252-2.165,5.154-2.775,6.483-1.363s.581,4.316-1.671,6.483a9.847,9.847,0,0,1-.748.641,9.986,9.986,0,0,0,2.775-1.912C1622.534,850.967,1623.428,847.5,1621.841,845.812Z" fill="#71890e"/>
      <path d="M1706.177,836.412c-1.586-1.688-5.054-.959-7.742,1.629a10.738,10.738,0,0,0-1.085,1.219c.687-2.446.139-4.732-1.352-5.291-1.631-.61-3.771,1.078-4.776,3.769a7.229,7.229,0,0,0-.427,3.736,6.774,6.774,0,0,1,.41-1.813c.843-2.253,2.632-3.665,4-3.155,1.237.459,1.7,2.338,1.153,4.36a7.708,7.708,0,0,0-.509,1.34,7.535,7.535,0,0,0,.715-1.041,8.8,8.8,0,0,1,.781-.861c2.252-2.166,5.154-2.776,6.483-1.363s.58,4.315-1.671,6.482a9.425,9.425,0,0,1-.749.641,9.983,9.983,0,0,0,2.777-1.911C1706.87,841.566,1707.764,838.1,1706.177,836.412Z" fill="#71890e"/>
    </g>
    <g>
      <path d="M694.644,873.578c.715,0,1.419.048,2.12.107a25.271,25.271,0,0,1,20.574-15.019,33.193,33.193,0,0,1,64.377-9.41,23.25,23.25,0,0,1,3.888-1.317,31.218,31.218,0,0,1,60.406,7.186,27.21,27.21,0,0,1,38.749,24.687c0,.673-.053,1.332-.1,1.992H676.029A25.167,25.167,0,0,1,694.644,873.578Z" fill="#8baa1d"/>
      <path d="M688.566,878.065H884.205a7.2,7.2,0,0,1,.553,2.744,6.9,6.9,0,0,1-.1,1H676.029A35.786,35.786,0,0,1,688.566,878.065Z" fill="#71890e"/>
      <path d="M883.919,881.8A27.263,27.263,0,0,0,857.5,861.279c-4.113,0-10.886-.571-14.383,1.061-1.7-15.647-12.058-26.322-28.159-26.322A31.226,31.226,0,0,0,785.6,856.662a23.338,23.338,0,0,0-3.888,1.316,33.22,33.22,0,0,0-31.234-21.96c-17.726,0-27.465,14.241-28.439,31.723-9.114-1.014-21.069,6.133-24.972,14.063H676.029a25.167,25.167,0,0,1,18.615-8.226c.715,0,1.419.048,2.12.107a25.271,25.271,0,0,1,20.574-15.019,33.193,33.193,0,0,1,64.377-9.41,23.25,23.25,0,0,1,3.888-1.317,31.218,31.218,0,0,1,60.406,7.186,27.21,27.21,0,0,1,38.749,24.687c0,.673-.053,1.332-.1,1.992Z" fill="#71890e"/>
      <path d="M736.116,850.8c1.427-1.04,3.922,0,5.571,2.316a8.077,8.077,0,0,1,.64,1.067c-.169-1.93.564-3.566,1.762-3.774,1.308-.226,2.673,1.342,3.046,3.5a5.525,5.525,0,0,1-.208,2.86,5.176,5.176,0,0,0-.051-1.417c-.314-1.808-1.455-3.118-2.55-2.93-.991.17-1.6,1.512-1.479,3.105a5.87,5.87,0,0,1,.192,1.075,5.793,5.793,0,0,1-.39-.88,6.421,6.421,0,0,0-.462-.755c-1.382-1.942-3.469-2.81-4.666-1.94s-1.045,3.152.336,5.094a6.709,6.709,0,0,0,.47.587,7.594,7.594,0,0,1-1.81-1.824C734.867,854.567,734.687,851.842,736.116,850.8Z" fill="#71890e"/>
      <path d="M792.6,860.637c1.427-1.04,3.922,0,5.571,2.317a7.9,7.9,0,0,1,.64,1.066c-.169-1.93.565-3.566,1.762-3.773,1.309-.227,2.673,1.341,3.046,3.5a5.511,5.511,0,0,1-.208,2.86,5.132,5.132,0,0,0-.051-1.416c-.313-1.808-1.454-3.118-2.549-2.931-.992.171-1.6,1.513-1.48,3.106a5.768,5.768,0,0,1,.192,1.076,5.792,5.792,0,0,1-.389-.881,6.6,6.6,0,0,0-.463-.755c-1.381-1.942-3.469-2.81-4.665-1.939s-1.045,3.152.335,5.093a6.746,6.746,0,0,0,.47.587,7.63,7.63,0,0,1-1.81-1.824C791.349,864.4,791.169,861.678,792.6,860.637Z" fill="#71890e"/>
      <path d="M800.437,844.49c1.426-1.04,3.921,0,5.571,2.316a8.13,8.13,0,0,1,.64,1.068c-.17-1.931.565-3.568,1.761-3.774,1.309-.226,2.673,1.341,3.047,3.5a5.53,5.53,0,0,1-.209,2.859,5.132,5.132,0,0,0-.051-1.416c-.313-1.809-1.454-3.118-2.55-2.93-.991.17-1.6,1.512-1.479,3.1a5.866,5.866,0,0,1,.192,1.076,5.749,5.749,0,0,1-.389-.881,6.5,6.5,0,0,0-.463-.754c-1.381-1.942-3.468-2.81-4.665-1.94s-1.046,3.151.336,5.094a6.693,6.693,0,0,0,.47.586,7.594,7.594,0,0,1-1.81-1.824C799.188,848.255,799.008,845.531,800.437,844.49Z" fill="#71890e"/>
      <path d="M769.421,854.357c-1.21-1.287-3.854-.731-5.9,1.243a7.994,7.994,0,0,0-.827.929c.524-1.865.106-3.609-1.032-4.035-1.243-.465-2.875.822-3.642,2.874a5.516,5.516,0,0,0-.325,2.849,5.168,5.168,0,0,1,.312-1.382c.644-1.719,2.008-2.8,3.048-2.406.943.35,1.295,1.782.879,3.325a5.921,5.921,0,0,0-.388,1.021,5.646,5.646,0,0,0,.545-.793,6.738,6.738,0,0,1,.6-.657c1.717-1.651,3.93-2.116,4.943-1.039s.443,3.291-1.274,4.943a7.18,7.18,0,0,1-.571.489,7.614,7.614,0,0,0,2.117-1.458C769.95,858.288,770.631,855.644,769.421,854.357Z" fill="#71890e"/>
      <path d="M833.736,847.189c-1.21-1.288-3.854-.732-5.9,1.242a8.182,8.182,0,0,0-.828.929c.524-1.865.106-3.609-1.031-4.035-1.244-.465-2.876.822-3.642,2.875a5.514,5.514,0,0,0-.326,2.849,5.178,5.178,0,0,1,.313-1.383c.643-1.718,2.007-2.8,3.048-2.406.943.35,1.295,1.783.879,3.325a5.741,5.741,0,0,0-.388,1.022,5.8,5.8,0,0,0,.545-.794,6.725,6.725,0,0,1,.595-.657c1.718-1.651,3.93-2.116,4.944-1.039s.443,3.291-1.274,4.943a7.362,7.362,0,0,1-.571.489,7.643,7.643,0,0,0,2.118-1.457C834.264,851.119,834.946,848.476,833.736,847.189Z" fill="#71890e"/>
    </g>
    <g>
      <path d="M149.9,872c-.853,0-1.693.057-2.528.127a30.13,30.13,0,0,0-24.529-17.9A39.572,39.572,0,0,0,46.1,843a27.767,27.767,0,0,0-4.634-1.57A37.219,37.219,0,0,0-30.554,850a32.3,32.3,0,0,0-13.7-3.062A32.491,32.491,0,0,0-76.75,879.429c0,.8.063,1.588.12,2.375H172.1A30,30,0,0,0,149.9,872Z" fill="#8baa1d"/>
      <path d="M157.149,877.347H-76.091a8.586,8.586,0,0,0-.659,3.27,8.274,8.274,0,0,0,.12,1.187H172.1A42.669,42.669,0,0,0,157.149,877.347Z" fill="#71890e"/>
      <path d="M-75.75,881.8a32.5,32.5,0,0,1,31.492-24.469c4.9,0,12.979-.682,17.147,1.264,2.029-18.654,14.376-31.381,33.571-31.381a37.228,37.228,0,0,1,35,24.612A27.764,27.764,0,0,1,46.1,853.4a39.6,39.6,0,0,1,37.238-26.181c21.133,0,32.743,16.978,33.905,37.82,10.865-1.208,25.117,7.312,29.771,16.766H172.1A30,30,0,0,0,149.9,872c-.853,0-1.693.057-2.528.127a30.13,30.13,0,0,0-24.529-17.9A39.572,39.572,0,0,0,46.1,843a27.767,27.767,0,0,0-4.634-1.57A37.219,37.219,0,0,0-30.554,850a32.3,32.3,0,0,0-13.7-3.062A32.491,32.491,0,0,0-76.75,879.429c0,.8.063,1.588.12,2.375Z" fill="#71890e"/>
      <path d="M100.461,844.842c-1.7-1.239-4.676,0-6.642,2.762a9.473,9.473,0,0,0-.763,1.272c.2-2.3-.673-4.252-2.1-4.5-1.56-.269-3.187,1.6-3.631,4.174a6.582,6.582,0,0,0,.248,3.409,6.107,6.107,0,0,1,.061-1.689c.373-2.156,1.734-3.717,3.04-3.493,1.182.2,1.91,1.8,1.763,3.7a6.984,6.984,0,0,0-.229,1.282,6.842,6.842,0,0,0,.465-1.05,7.638,7.638,0,0,1,.551-.9c1.647-2.316,4.136-3.351,5.562-2.313s1.246,3.757-.4,6.073a8.157,8.157,0,0,1-.56.7,9.076,9.076,0,0,0,2.158-2.174C101.949,849.332,102.164,846.084,100.461,844.842Z" fill="#71890e"/>
      <path d="M33.124,856.569c-1.7-1.24-4.676,0-6.642,2.762a9.351,9.351,0,0,0-.762,1.271c.2-2.3-.674-4.251-2.1-4.5-1.56-.27-3.187,1.6-3.631,4.172a6.573,6.573,0,0,0,.248,3.41A6.136,6.136,0,0,1,20.3,862c.374-2.156,1.734-3.717,3.04-3.494,1.183.2,1.911,1.8,1.765,3.7a6.824,6.824,0,0,0-.23,1.282,6.663,6.663,0,0,0,.464-1.051,7.816,7.816,0,0,1,.552-.9c1.647-2.315,4.136-3.35,5.562-2.312s1.246,3.757-.4,6.072a8.02,8.02,0,0,1-.56.7,9.1,9.1,0,0,0,2.158-2.175C34.612,861.058,34.827,857.81,33.124,856.569Z" fill="#71890e"/>
      <path d="M23.778,837.319c-1.7-1.24-4.676,0-6.642,2.76a9.718,9.718,0,0,0-.763,1.273c.2-2.3-.674-4.253-2.1-4.5-1.561-.269-3.187,1.6-3.633,4.172a6.594,6.594,0,0,0,.249,3.41,6.147,6.147,0,0,1,.061-1.689c.373-2.156,1.734-3.717,3.04-3.493,1.181.2,1.91,1.8,1.763,3.7a6.9,6.9,0,0,0-.228,1.282,7,7,0,0,0,.464-1.051,7.762,7.762,0,0,1,.552-.9c1.646-2.315,4.134-3.35,5.561-2.312s1.247,3.757-.4,6.072a7.992,7.992,0,0,1-.561.7,9.084,9.084,0,0,0,2.159-2.175C25.266,841.808,25.481,838.559,23.778,837.319Z" fill="#71890e"/>
      <path d="M60.754,849.082c1.443-1.535,4.6-.872,7.039,1.481a9.739,9.739,0,0,1,.987,1.108c-.625-2.223-.127-4.3,1.229-4.81,1.483-.555,3.428.98,4.342,3.426a6.585,6.585,0,0,1,.388,3.4,6.127,6.127,0,0,0-.373-1.648c-.766-2.049-2.393-3.333-3.633-2.869-1.125.418-1.544,2.125-1.048,3.964a7.066,7.066,0,0,1,.463,1.218,6.718,6.718,0,0,1-.65-.945,7.968,7.968,0,0,0-.711-.784c-2.047-1.968-4.685-2.523-5.893-1.239s-.528,3.924,1.519,5.894a8.923,8.923,0,0,0,.68.582,9.073,9.073,0,0,1-2.523-1.738C60.124,853.768,59.311,850.617,60.754,849.082Z" fill="#71890e"/>
    </g>
    <g>
      <path d="M2069.9,872c-.853,0-1.693.057-2.528.127a30.13,30.13,0,0,0-24.529-17.9A39.572,39.572,0,0,0,1966.1,843a27.767,27.767,0,0,0-4.634-1.57A37.219,37.219,0,0,0,1889.446,850a32.438,32.438,0,0,0-46.2,29.431c0,.8.062,1.588.12,2.375H2092.1A30,30,0,0,0,2069.9,872Z" fill="#8baa1d"/>
      <path d="M2077.149,877.347h-233.24a8.586,8.586,0,0,0-.659,3.27,8.134,8.134,0,0,0,.12,1.187H2092.1A42.669,42.669,0,0,0,2077.149,877.347Z" fill="#71890e"/>
      <path d="M1844.25,881.8a32.5,32.5,0,0,1,31.491-24.469c4.9,0,12.98-.682,17.148,1.264,2.029-18.654,14.376-31.381,33.571-31.381a37.229,37.229,0,0,1,35,24.612,27.764,27.764,0,0,1,4.634,1.569,39.6,39.6,0,0,1,37.238-26.181c21.133,0,32.743,16.978,33.9,37.82,10.865-1.208,25.117,7.312,29.771,16.766H2092.1A30,30,0,0,0,2069.9,872c-.853,0-1.693.057-2.528.127a30.13,30.13,0,0,0-24.529-17.9A39.572,39.572,0,0,0,1966.1,843a27.767,27.767,0,0,0-4.634-1.57A37.219,37.219,0,0,0,1889.446,850a32.438,32.438,0,0,0-46.2,29.431c0,.8.062,1.588.12,2.375Z" fill="#71890e"/>
      <path d="M1904.078,840.536c1.443-1.535,4.6-.873,7.039,1.481a9.643,9.643,0,0,1,.987,1.108c-.625-2.224-.127-4.3,1.229-4.811,1.483-.555,3.428.98,4.342,3.427a6.562,6.562,0,0,1,.388,3.4,6.169,6.169,0,0,0-.372-1.649c-.767-2.048-2.394-3.332-3.634-2.868-1.124.417-1.544,2.125-1.048,3.964a.7.7,0,1,1-.187.272,7.946,7.946,0,0,0-.71-.783c-2.048-1.969-4.686-2.524-5.894-1.24s-.528,3.924,1.519,5.894a8.5,8.5,0,0,0,.681.582,9.07,9.07,0,0,1-2.525-1.737C1903.448,845.221,1902.636,842.07,1904.078,840.536Z" fill="#71890e"/>
    </g>
  </g>
  <g>
    <path d="M2297.242,559.437c11.87-41.468-21.486-93.137-66.715-88.645,28.958-37.445-24.33-115.966-91.216-94.713a53.377,53.377,0,0,0-45.173-24.908c-20.828,0-64.484,8.946-78.473,56.8-60.451-5.14-82.416,45.311-77.085,63.458a43.14,43.14,0,0,0-50.618,42.52c0,1.378.072,2.74.2,4.088A46.038,46.038,0,1,0,1931,596.252c37.842,16.106,80.553,2.132,110.33-27.506a65.708,65.708,0,0,0,24.123,4.556q2.611,0,5.171-.2a48.685,48.685,0,0,0,68.546,26.25,61.843,61.843,0,0,0,62.65,31.119,46.928,46.928,0,0,0,69.232,8.229,42.008,42.008,0,1,0,26.191-79.261Z" fill="#8baa1d"/>
    <path d="M1938.58,471.431c-1.381-.135-6.032-.653-7.452-.653-23.161,0-43.639,17.153-43.114,46.625C1899.48,488.571,1913.9,477.6,1938.58,471.431Z" fill="#b5d13f"/>
    <path d="M2288.672,611.954a41.814,41.814,0,0,1-17.621-3.877,46.929,46.929,0,0,1-69.232-8.225,62.513,62.513,0,0,1-8.639.6,61.806,61.806,0,0,1-54.011-31.724,48.69,48.69,0,0,1-68.546-26.25q-2.557.2-5.171.2a65.748,65.748,0,0,1-24.123-4.555c-29.777,29.639-72.488,43.614-110.33,27.5a46.018,46.018,0,0,1-74.87-18.294A46.027,46.027,0,0,0,1931,596.252c37.842,16.106,80.553,2.132,110.33-27.506a65.708,65.708,0,0,0,24.123,4.556q2.611,0,5.171-.2a48.685,48.685,0,0,0,68.546,26.25,61.843,61.843,0,0,0,62.65,31.119,46.928,46.928,0,0,0,69.232,8.229,42.008,42.008,0,0,0,56.732-53.445A42.006,42.006,0,0,1,2288.672,611.954Z" fill="#71890e"/>
    <path d="M1912.557,521.881s-7.3-7.719-2.494-11.793c5.349-4.537,10.56,3.366,10.56,3.366s-2.6-15.132,6.754-15.132c10.533,0,4.514,18.033,4.514,18.033s-1.31-10.156-4.5-9.731-4.215,13.558-4.215,13.558-7.406-7.887-9.319-6.4S1912.557,521.881,1912.557,521.881Z" fill="#71890e"/>
  </g>
</svg>
