<svg xmlns="http://www.w3.org/2000/svg" xmlns:xlink="http://www.w3.org/1999/xlink" width="1920" height="1080" viewBox="0 0 1920 1080">
  <defs>
    <linearGradient id="a" x1="966.128" y1="-11.331" x2="966.128" y2="1024.924" gradientUnits="userSpaceOnUse">
      <stop offset="0" stop-color="#cdf7fa"/>
      <stop offset="0.298" stop-color="#c9f4f8"/>
      <stop offset="0.597" stop-color="#bdecf1"/>
      <stop offset="0.894" stop-color="#a9dde5"/>
      <stop offset="1" stop-color="#a0d7e0"/>
    </linearGradient>
    <linearGradient id="b" data-name="Unbenannter Verlauf 833" x1="966.128" y1="176.086" x2="966.128" y2="1024.924" gradientUnits="userSpaceOnUse">
      <stop offset="0" stop-color="#c5f1f2"/>
      <stop offset="0.298" stop-color="#c1edef"/>
      <stop offset="0.597" stop-color="#b5e2e4"/>
      <stop offset="0.894" stop-color="#a1cfd4"/>
      <stop offset="1" stop-color="#98c7cc"/>
    </linearGradient>
    <linearGradient id="c" data-name="Unbenannter Verlauf 905" x1="966.128" y1="267.605" x2="966.128" y2="1024.924" gradientUnits="userSpaceOnUse">
      <stop offset="0" stop-color="#b7e5ea"/>
      <stop offset="0.254" stop-color="#b3e2e6"/>
      <stop offset="0.508" stop-color="#a8d8da"/>
      <stop offset="0.762" stop-color="#95c7c6"/>
      <stop offset="1" stop-color="#7cb1ac"/>
    </linearGradient>
  </defs>
  <g>
    <rect x="-379.915" y="-11.331" width="2692.085" height="1036.255" fill="url(#a)"/>
    <path d="M2312.17,1024.924H-379.915V176.086H9.177c139.337,0,333.936,89.609,508.59,89.609s154.824-70.886,338.063-70.886,183.059,28.17,335.838,28.17,573.675-46.893,720.9-46.893h399.6Z" fill="url(#b)"/>
    <path d="M2312.17,1024.924H-379.915V283.349H72.272c136.708,0,354.877,70.139,533.9,70.139s237.366-50.648,319.1-74.935,221.512-.6,459.686-.6,346.587,5.392,500.188,5.392H2312.17Z" fill="url(#c)"/>
  </g>
  <polygon points="2622.638 513.343 2369.064 388.635 2091.167 357.404 1861.33 477.076 1658.535 356.636 1398.514 341.8 1157.181 373.999 990.07 426.688 722.783 415.785 524.353 397.295 222.646 357.404 73.532 419.489 -46.979 486.894 -336.37 415.785 -508.596 513.343 -508.596 1057.489 2622.638 1057.489 2622.638 513.343" fill="#d5f2f7"/>
  <polygon points="-894.557 573.359 -567.794 507.039 -234.029 590.45 -210.323 585.562 -186.325 470.563 -145.724 470.563 -93.83 561.539 -19.149 435.83 259.404 476.681 564.644 446.068 598.529 454.718 629.427 407.565 660.85 393.949 695.508 479.472 730.276 488.346 773.45 461.77 801.731 405.994 820.585 422.491 828.871 513.513 909.239 534.027 1151.828 534.027 1393.336 477.17 1475.272 470.919 1492.708 422.23 1518.701 400.757 1538.114 466.125 1632.294 458.939 1986.894 432.766 2179.468 462.515 2339.743 522.277 2668.817 477.17 2876.219 573.359 2876.219 1109.872 -894.557 1109.872 -894.557 573.359" fill="#fff"/>
  <path d="M2714.258,648.843s-54.881,15.018-66.171,5c-3.362-2.982-8.982-5.218-15.556-6.911L2606,613.757l11.807-29.632-11.557-4.6-9.187,23.057-6.895-8.624-9.716,7.77,11.314,14.15-10.518,26.395c-7.658,2.341-8.616,10.2-14.073,11.579-6.584,1.669-57.076-1.668-57.076-1.668l-37.38-10.567v-41.17l-22.184-5.007s-21.661-3.337-26.114-8.344c-1.627-1.829-2.065-5.217-1.967-8.781.033-1.184-16.7-4.247-16.571-5.419.257-2.356,17.482-2.727,17.83-4.418.385-1.867.708-3.077.708-3.077s24.21-15.021,24.149-21.7c-.039-4.172,1.449-14.683,1.449-14.683l-13.89-6.009,2.211-16.948-13.919-2.414-24.881,3.228-17.563,8.345-3.595,10.123,8.782,13.351v36.715s-24.148,10.014-35.125,15.021,0,13.351,0,13.351,0,5.008,8.782,6.676-6.586,35.047-8.782,43.391-15.366,5.007-24.147,3.337-15.366-1.668-30.734-10.115,0-4.9,0-5.457-6.586-19.474-6.586-19.474h-48.3s-37.32,6.675-79.029,10.014-19.757,14.917-19.757,14.917,2.194,18.461,0,23.468-10.977,5.006-21.953,3.337c0,0-28.539-6.676-39.514-8.344s-10.977,5.007-17.563,6.674-17.561,5.009-17.561,5.009-17.562-1.67-28.539-8.346-13.172-10.013-13.172-10.013-17.561-8.344-24.148-11.785-28.538-5.457-28.538-5.457l-17.561-31.156-26.8-26.7-21.419-3.339S1768.105,592.1,1754.932,592.1h-81.224l-19.757,3.337-8.781,6.676-8.782,15.021-85.615,6.674h-41.817c-15.475,0-10.868,6.677-10.868,6.677l-8.89,16.586-15.325-1.588L1459.123,612l9.276-23.281-11.557-4.6-4.751,11.921-.859-1.951-11.384,5.016,5.787,13.139-9.126,22.9v-9.663l-41.6-20.027-59.389,2.677V585.873l-92.681,16.261-2.369-8.806,8.662.753,1.077-12.393-13.177-1.146-1.261-4.684,4.159-10.234-7.759-3.154-2.382-8.853-12.011,3.23,4.9,18.2-1.666,4.1-39.962-3.478,12.094-29.482-11.51-4.721-13.073,31.869-3.116-5.865-10.987,5.834,7.966,14.994-10,24.382c-14.5-4.9-28.594-10.287-39.176-15.68-34.94-17.8,0-6.676,0-6.676V574.748s-8.967-8.9-20.676-8.9H1080.86l-20.49,26.7-59.484-4.451-25.4,24.48,6.858,6.676c6.858,6.676-4.967,27.816-4.967,27.816l-20.24,12.239-40.3-17.7,16.089-24.585v-8.9l-43.79,4.451L867.51,625.93,862.394,614.8,776.436,625.93,761.8,647.07l-23.231,34.492s-35.312,24.479-44.093,28.929-20.277,2.226-20.277,2.226L648.776,693.8s28.137-7.79,25.209-14.466,0-13.351,0-13.351V647.07H631.432L524.2,661.535s-8.211,3.247-20.04,7.683l-16.065-14.43,7.185-6.733-8.506-9.077-7.968,7.466-16.929-15.206-8.313,9.255,16.131,14.49L453.666,670l-16.41-14.74-8.312,9.255,15.612,14.024-15.72,14.728a30.828,30.828,0,0,1-6.539.538l-28.306-14.466v-17.8l28.306-6.677-14.153-13.245V617.028l-37.332-.881-18.851-30.064,14.528-35.412-11.51-4.721L342.488,576.4l-8.1,5.079,3.635,5.8L326.612,615.1l-12.666-.3-30.307,13.352H255.4l-24.393-8.9L199.787,605.9,76.441,625.93s.813,8.148,1.234,17.734L47.566,648.6l5.9-13.618-11.413-4.948-9.084,20.958-32.1,5.256,6.8-15.683-11.413-4.948-9.979,23.023-32.217,5.276-.154-.151-20.49-16.69-96.565,16.69s-26.376,33.379-25.58,40.055S-259.9,719.393-259.9,719.393l-57.432-6.676,9.986-35.606-45.37-22.253-32.744-33.379h32.744v-28.93l-98.3-26.7h-72.2l-64.239,28.929,3.689,26.7v57.857l-41.9,48.957H-755.406v366.064H2757.178V728.293ZM27.089,664.555,14.921,692.627,10.609,693.8H-15.409l10.4-23.991ZM-19.6,672.2l-5.355,12.356-10-9.841Zm75.136,9.359L30.3,688.438l11.389-26.273,36.22-5.933c-.081,5.716-.482,10.927-1.463,14.2C73.109,681.562,55.531,681.562,55.531,681.562ZM346.155,600.24l9.753,15.555-15.979-.379Zm132.824,63.085,11.984,10.766c-7.485,2.723-15.575,5.587-23.538,8.265l-4.469-4.015Zm749.044-68.393,2.517,9.359-6.8,1.195Zm-31.438,31.161-20.377-38.359,39.9,3.473L1201.4,627.412Q1199.086,626.784,1196.585,626.093Zm-26.576-23.512,9.971,18.771c-5.073-1.5-10.358-3.1-15.7-4.8Zm43.512,28.043,7.842-19.3v21.282S1218.45,631.9,1213.521,630.624Zm246.109,13.383-12.738-1.319,5.775-14.49Zm1154.326-.381c-6.928-.838-13.7-1.329-19.2-1.638l5.953-14.936Z" fill="#dfe9f7"/>
  <g>
    <g>
      <path d="M41.657,659.034c-1.746-31.722-14.209-24.783-21.985-32.714C12.1,618.6,4.762,519.611-19.278,509.777v0a11.241,11.241,0,0,0-3.632-1.426,25.462,25.462,0,0,0-4.182-.214v0c-22.962-.437-10.609,78.111-41.814,105.29-7.415,6.459-10.229,22.7-14.549,41.062a10.756,10.756,0,0,0-.262,2.488h-.006c-.793,9.344,6.3,18.686,6.305,18.7,1.811,4.491,3.127,8.927,2.408,12.916a6.216,6.216,0,0,1-.955,2.281c-4.427,4.941-14.358,8.3-16.754,13.94h0a5.748,5.748,0,0,0-.617,1.786c-1.433,9.107.24,19.83-.5,28.475-3.535,12.133-5.471,32.147-5.481,32.253-2.227,10.453-4.007,16.667-4.007,16.667H77.751S70,734.375,69.236,717.522,43.4,690.756,41.657,659.034Z" fill="#d3ddd0"/>
      <path d="M1961.657,659.034c-1.746-31.722-14.209-24.783-21.985-32.714-7.57-7.721-14.91-106.709-38.95-116.543v0a11.241,11.241,0,0,0-3.632-1.426,25.462,25.462,0,0,0-4.182-.214v0c-22.962-.437-10.609,78.111-41.814,105.29-7.415,6.459-10.229,22.7-14.549,41.062a10.756,10.756,0,0,0-.262,2.488h-.006c-.793,9.344,6.3,18.686,6.305,18.7,1.811,4.491,3.127,8.927,2.408,12.916a6.216,6.216,0,0,1-.955,2.281c-4.427,4.941-14.358,8.3-16.754,13.94h0a5.748,5.748,0,0,0-.617,1.786c-1.433,9.107.24,19.83-.5,28.475-3.535,12.133-5.471,32.147-5.481,32.253-2.227,10.453-4.007,16.667-4.007,16.667h181.073s-7.755-49.625-8.515-66.478S1963.4,690.756,1961.657,659.034Z" fill="#d3ddd0"/>
      <path d="M245.368,592.467c-10.861-23.77-4.681-74.353-4.829-110.66-.042-10.016-6.647-22.894-15.734-35.9-10.972-20.8-29.345-42-50.384-52.79h0c-10.387-6.737-19.657-9.374-25.387-5.241-11.017,7.944-13.939,38-16.289,68.913-.565,7.436-11.792,24.951-12.4,32.19-.052.622-.091,1.231-.122,1.828h0c-4.708,7.978,3.922,27.652,4.114,28.088a15.227,15.227,0,0,1-1.215,6.14c-3.284,7.846-8.477,17.136-13.346,26.867-5.737,11.462-6.482,21.4-6.754,32.025-2.38,10.034,9.032,44.649,9.032,44.649-3.925,30.928-20.176,40.341-27.779,55.133a4.336,4.336,0,0,0-.444,2.157c-.3,11.286,5.826,25.45,5.967,25.774-.058.717-.133,1.444-.246,2.19-1.818,12-16.436,29.454-17.71,40.651-1.773,15.59-2.87,27.471-2.87,27.471H256.634c0-54.52-14.6-75.976-14.837-97.49S256.228,616.237,245.368,592.467Z" fill="#d3ddd0"/>
      <path d="M335.417,447.289h0c-7.507,1.457-16.08,9.5-24.551,21.8-4.633,6.725.587,15.407-2.678,28.685-3.813,15.509-11.2,34.568-13.409,53.594a36.193,36.193,0,0,0,.066,10.7,25.339,25.339,0,0,0,2.707,9.807c1.63,2.646,1.778,7.262,1.785,8.644,0,.1,0,.195,0,.295v.024c-.007.662-.031,1.358-.072,2.092-.768,13.484-12.842,44.4-10.39,54.079h0c-.354,5.174,3.176,8.7,4.449,13.682q.293,1.539.437,2.944c.144,3.638-1.161,10.432-1.17,10.479-3.024,7.782-10.43,11.292-14.111,17.217a3.663,3.663,0,0,0-.447,1.592c-.594,2.093,1.176,10.955,2.695,15.416,1.084,3.185,3.407,14.883,3.412,14.909a15.826,15.826,0,0,1-.641,6.827c-4.741,12.027-20.686,8.708-20.069,22.983a243.935,243.935,0,0,0,5.01,38.866h70.153V446.554A11.747,11.747,0,0,0,335.417,447.289Z" fill="#d3ddd0"/>
    </g>
    <g>
      <path d="M851.594,656.991c-1.746-31.722-14.209-24.782-21.984-32.713-7.57-7.722-14.91-106.71-38.95-116.543h0a11.255,11.255,0,0,0-3.632-1.426,25.563,25.563,0,0,0-4.182-.214v0c-22.961-.437-10.609,78.11-41.813,105.29-7.415,6.458-10.229,22.7-14.549,41.062a10.811,10.811,0,0,0-.263,2.488h0c-.793,9.343,6.295,18.685,6.305,18.7,1.811,4.491,3.126,8.927,2.408,12.915a6.206,6.206,0,0,1-.956,2.282c-4.427,4.94-14.358,8.3-16.754,13.94h0a5.754,5.754,0,0,0-.616,1.786c-1.433,9.106.24,19.829-.5,28.474-3.534,12.133-5.47,32.147-5.48,32.253-2.227,10.453-4.007,16.667-4.007,16.667H887.689s-7.756-49.625-8.516-66.478S853.341,688.714,851.594,656.991Z" fill="#d3ddd0"/>
      <path d="M1090.029,592.467c-10.86-23.77-4.681-74.353-4.829-110.66-.041-10.016-6.647-22.894-15.733-35.9-10.973-20.8-29.346-42-50.384-52.79h0c-10.388-6.737-19.657-9.374-25.388-5.241-11.017,7.944-13.939,38-16.289,68.913-.565,7.436-11.792,24.951-12.395,32.19-.052.622-.091,1.231-.121,1.828h0c-4.708,7.978,3.922,27.652,4.114,28.088a15.227,15.227,0,0,1-1.215,6.14c-3.284,7.846-8.477,17.136-13.346,26.867-5.737,11.462-6.482,21.4-6.754,32.025-2.38,10.034,9.032,44.649,9.032,44.649-3.925,30.928-20.176,40.341-27.779,55.133a4.336,4.336,0,0,0-.444,2.157c-.3,11.286,5.826,25.45,5.967,25.774-.058.717-.133,1.444-.246,2.19-1.818,12-16.436,29.454-17.71,40.651-1.773,15.59-2.869,27.471-2.869,27.471H1101.3c0-54.52-14.6-75.976-14.837-97.49S1100.889,616.237,1090.029,592.467Z" fill="#d3ddd0"/>
      <path d="M665.127,628.581c-2.93-15.518-18.113,27.207-27.409,26.027-5.916-6.321-7.383-29.149-7.317-41.983.359-69.459-3.525-148.841-17.14-185.05-4.579-12.175-15.748-19.948-21.9-20.268l-.168-.022c-.063-.007-.124-.011-.186-.015-.089-.006-.178-.01-.266-.01-.062,0-.125,0-.187,0-.088,0-.177.011-.264.021-.061.007-.122.014-.183.024-.091.015-.181.034-.272.056-.057.013-.115.025-.171.041-.1.028-.2.062-.3.1-.048.017-.1.031-.144.051a4.463,4.463,0,0,0-.436.2c-11.087,5.811-21.768,23.82-35.753,48.064-3.09,5.356-11.845,48.808-15.3,54.709-5.443,9.3-15.4,14.671-19.54,25.546a11.758,11.758,0,0,0-.746,3.587h0v0a14.785,14.785,0,0,0,.337,3.892c1.638,9.7,8.895,17.141,11.376,22.145.1.2.193.408.284.611.024.055.052.112.073.167,2.879,6.486,2.757,12.314-6.912,16.656-22.269,10-46.167,32.785-39.608,45.446,5.573,12.128,8.252,46.655,8.252,46.655h0c.969,44.675-3.068,106.721-3.068,106.721H684.456V693.126S676.847,650.088,665.127,628.581Z" fill="#d3ddd0"/>
      <g>
        <path d="M1180.078,447.289h0c-7.508,1.457-16.081,9.5-24.552,21.8-4.633,6.725.587,15.407-2.678,28.685-3.813,15.509-11.2,34.568-13.409,53.594a36.227,36.227,0,0,0,.066,10.7,25.339,25.339,0,0,0,2.707,9.807c1.631,2.646,1.778,7.262,1.785,8.644,0,.1,0,.195,0,.295v.024c-.007.662-.031,1.358-.072,2.092-.768,13.484-12.842,44.4-10.39,54.079h0c-.354,5.174,3.176,8.7,4.449,13.682q.293,1.539.437,2.944c.144,3.638-1.161,10.432-1.17,10.479-3.024,7.782-10.429,11.292-14.111,17.217a3.663,3.663,0,0,0-.447,1.592c-.594,2.093,1.176,10.955,2.695,15.416,1.084,3.185,3.407,14.883,3.412,14.909a15.826,15.826,0,0,1-.641,6.827c-4.741,12.027-20.686,8.708-20.068,22.983a244.006,244.006,0,0,0,5.009,38.866h70.153V446.554A11.747,11.747,0,0,0,1180.078,447.289Z" fill="#d3ddd0"/>
        <path d="M412.054,730.778c-6.035-10.757-8.695-32.273-12.436-41.686s-20.361-56.477-28.421-76.467-5.33-87.586-11.73-132.587c-2.521-17.723-7.245-27.871-12.875-31.222h0a9.791,9.791,0,0,0-7.038-2.229V781.957h72.5S418.088,741.535,412.054,730.778Z" fill="#d3ddd0"/>
      </g>
    </g>
    <g>
      <path d="M1618.233,632.572c2.087-37.92,16.986-29.625,26.28-39.106,9.05-9.23,17.824-127.561,46.562-139.316v0a13.419,13.419,0,0,1,4.342-1.7,30.382,30.382,0,0,1,5-.256v0c27.448-.523,12.682,93.374,49.984,125.864,8.864,7.721,12.228,27.131,17.392,49.086a12.86,12.86,0,0,1,.314,2.974h.007c.947,11.169-7.526,22.337-7.538,22.353-2.165,5.368-3.737,10.671-2.878,15.439a7.425,7.425,0,0,0,1.142,2.728c5.292,5.905,17.163,9.918,20.028,16.663h-.005a6.9,6.9,0,0,1,.737,2.135c1.713,10.886-.287,23.705.6,34.039,4.225,14.5,6.539,38.429,6.551,38.555,2.663,12.5,4.79,19.924,4.79,19.924H1575.086s9.271-59.322,10.179-79.468S1616.145,670.493,1618.233,632.572Z" fill="#d3ddd0"/>
      <path d="M1507.7,628.581c-2.929-15.518-18.113,27.207-27.408,26.027-5.917-6.321-7.384-29.149-7.317-41.983.359-69.459-3.526-148.841-17.141-185.05-4.578-12.175-15.747-19.948-21.9-20.268l-.168-.022c-.062-.007-.124-.011-.186-.015-.089-.006-.177-.01-.266-.01-.062,0-.124,0-.186,0-.088,0-.177.011-.265.021-.061.007-.122.014-.183.024-.091.015-.181.034-.271.056-.057.013-.115.025-.172.041-.1.028-.2.062-.3.1-.048.017-.1.031-.143.051a4.59,4.59,0,0,0-.437.2c-11.086,5.811-21.767,23.82-35.753,48.064-3.09,5.356-11.844,48.808-15.3,54.709-5.442,9.3-15.4,14.671-19.54,25.546a11.818,11.818,0,0,0-.746,3.587h0v0a14.828,14.828,0,0,0,.337,3.892c1.639,9.7,8.9,17.141,11.376,22.145q.147.306.285.611c.023.055.051.112.073.167,2.879,6.486,2.757,12.314-6.912,16.656-22.27,10-46.167,32.785-39.608,45.446,5.572,12.128,8.251,46.655,8.251,46.655h0c.968,44.675-3.068,106.721-3.068,106.721h196.276V693.126S1519.422,650.088,1507.7,628.581Z" fill="#d3ddd0"/>
      <path d="M1254.63,730.778c-6.035-10.757-8.7-32.273-12.437-41.686s-20.36-56.477-28.42-76.467-5.331-87.586-11.731-132.587c-2.52-17.723-7.244-27.871-12.874-31.222h0a9.79,9.79,0,0,0-7.037-2.229V781.957h72.5S1260.664,741.535,1254.63,730.778Z" fill="#d3ddd0"/>
    </g>
  </g>
  <path d="M-129.308,804.2C-19.567,706.17,53.631,696.822,99.74,705.657c85.334,16.352,125.605,104.129,211.6,98.54,35.166-2.286,31.272-19.381,89.437-40.22,92.108-33,178.485-21.579,209.416-16.088,89.076,15.811,93.423,49.014,163.6,60.33,94.569,15.248,109.538-48.558,215.96-52.286,115.944-4.062,141.413,63.629,242.136,44.242,72.166-13.89,75.743-51.843,139.61-52.286,78.524-.546,95.594,56.668,167.969,52.286,64.663-3.915,78.32-51.238,143.973-58.319,66.168-7.138,143.8,24.111,143.973,50.275.374,56.8-363.838,155.747-474.6,36.2-17.806-19.218-38.576-54.352-86.474-74.407-57.931-24.257-113.335-8.783-122.673-6.033a189.2,189.2,0,0,0-82.451,50.275" fill="#bac9b5"/>
  <path d="M1790.692,804.2c109.741-98.027,182.939-107.375,229.048-98.54,85.334,16.352,125.6,104.129,211.6,98.54,35.166-2.286,31.272-19.381,89.438-40.22,92.107-33,178.484-21.579,209.415-16.088,89.076,15.811,93.423,49.014,163.605,60.33,94.569,15.248,109.538-48.558,215.96-52.286,115.944-4.062,141.413,63.629,242.136,44.242,72.166-13.89,75.743-51.843,139.61-52.286,78.524-.546,95.594,56.668,167.969,52.286,64.663-3.915,78.32-51.238,143.973-58.319,66.168-7.138,143.8,24.111,143.973,50.275.374,56.8-363.838,155.747-474.6,36.2-17.806-19.218-38.576-54.352-86.474-74.407-57.931-24.257-113.335-8.783-122.673-6.033a189.2,189.2,0,0,0-82.451,50.275" fill="#bac9b5"/>
  <g>
    <rect x="-758.72" y="919.937" width="3512.583" height="175.858" fill="#3e2d1d"/>
    <rect x="-758.72" y="774.032" width="3512.583" height="156.86" fill="#b5ba4f"/>
    <path d="M2753.863,916.654H2437.7c-16.4,0-6.982-7.806-24.392-7.806-11.184,0-48.915,7.806-60.495,7.806h-62.445c-15.648,0-24.759-9.756-40.98-9.756-17.254,0-41.655,9.756-59.52,9.756h-626.41c-15.566,0-17.52-9.756-33.175-9.756-18,0-49.716,9.756-67.812,9.756H707.992c-11.268,0-21.757,4.635-32.93,4.635-12.75,0-26.168-4.635-38.785-4.635h-53.42c-15.075,0-33.453,8.294-48.3,8.294-17.074,0-30.575-8.294-47.322-8.294h-747.4c-14.635,0-16.1-7.8-35.613-7.8s-23.906,7.8-38.541,7.8h-424.4v30.133H2753.863Z" fill="#660"/>
    <g>
      <path d="M2753.863,1006.073H1414c-3,0-6,0-8.944-.053-12.84-1.411-27.475-4.338-40.648-2.874-80.5,2.927-160.993,7.318-242.2,2.927H854.576c-21.448-1.464-41.938,1.463-63.892-2.927-23.417-4.391-43.907,4.39-65.86,4.39-35.126,2.928-71.716-2.927-106.382-1.463H435.162c-33.789-4.391-65.988,11.708-99.65,2.927-24.881-5.854-46.834-5.854-72.151-2.927H-153.878c-41.888-1.464-84.332,0-126.775-2.927-98.06-4.391-196.12,7.318-294.727,2.927H-758.72v31.97H-524.3c60.7.229,120.708.229,181.447,0q3.887,0,7.805,0H284.332c32.154-2.7,65.816,1.692,98.1,0,2.153,0,4.287,0,6.422,0H693.505c28.391.229,57.663.229,85.057-.02q4.716.024,9.463.02h409.424q90.174.344,180.041-.013,4.446.016,8.907.013H2753.863Z" fill="#261911"/>
      <path d="M2753.863,956.311H1405.005c-94.751-2.927-188.42,8.782-282.743,0H854.544c-72.641-1.463-144.356,1.464-217.306,0H428.874c-50.918,1.464-102.143,1.464-154.085,0H-137.684c-40.519,2.927-80.036,0-119.552-2.927-98.06-5.854-194.656,5.854-292.947,2.927H-758.72V972.3h183.341c100.07,3.042,199.593.115,299.116-10.13,26.345-1.464,49.762,10.245,74.643,13.172,21.953,2.927,43.907-4.391,65.535-3.042H263.4c17.956,1.578,34.055-4.276,51.618.115,19.027,4.39,36.59,8.781,55.616,4.39,26.344-5.854,51.225-4.39,77.753-4.5H618.443c56.619,1.578,113.7.115,170.778-1.349,24.881-1.464,49.761,2.927,74.834,1.349h251.678c36.455-2.813,71.581,11.823,108.17,7.432,62.934-5.854,124.4-11.708,186.639-7.432H2753.863Z" fill="#261911"/>
      <path d="M2753.863,983.931H1410.552c-19.8-1.275-40.291-7.13-62.245-4.2-80.5,14.636-155.139,10.246-232.578,4.2H864.058c-22.148.188-42.638,1.652-64.592-2.739-26.344-5.854-51.225,5.854-77.57,5.854-35.125,1.464-68.788-4.39-103.454-3.115H448.393c-14.821.188-30.92-1.275-45.556,1.652-33.663,5.854-65.861,7.318-98.06-2.927-13.172-4.391-27.808,2.927-41.431,1.275H-136.086c-45.044,3.115-87.488-4.2-131.395-5.666-102.451-5.854-204.9,13.172-307.9,5.666H-758.72v9.49h190.247c53.647-1.984,107.8,6.8,161.952.943,46.834-5.854,93.669-13.172,140.5-5.854,42.444,7.318,83.424,4.391,124,4.911H253.894c30.393-3.447,56.737-.52,87.473,5.334,17.562,4.391,35.125,0,52.688-2.927,19.027-4.391,36.59-2.927,54.336-2.407H618.443c61.01,3.87,121.016-3.447,181.023-1.984,20.49,0,42.444,1.464,64.589,1.984h261.014c81.271,9.725,163.231.943,245.192-3.447,13.172-1.464,27.808,2.927,40.284,3.447H2753.863Z" fill="#261911"/>
    </g>
    <polygon points="1320.133 1015.698 1335.867 1006.916 1348.307 1011.307 1348.307 1020.455 1331.842 1025.211 1324.524 1023.016 1320.133 1015.698" fill="#3e2d1d"/>
    <polygon points="908.38 1014.439 924.114 1005.657 936.554 1010.048 936.554 1019.195 920.089 1023.952 912.771 1021.757 908.38 1014.439" fill="#3e2d1d"/>
    <polygon points="391.738 1015.698 407.471 1006.916 419.912 1011.307 419.912 1020.455 403.446 1025.211 396.128 1023.016 391.738 1015.698" fill="#3e2d1d"/>
    <polygon points="376.92 1020.908 367.18 1015.471 359.478 1018.189 359.478 1023.852 369.671 1026.796 374.201 1025.437 376.92 1020.908" fill="#3e2d1d"/>
    <polygon points="228.855 1015.838 219.115 1010.401 211.413 1013.12 211.413 1018.782 221.606 1021.727 226.136 1020.367 228.855 1015.838" fill="#3e2d1d"/>
    <polygon points="1515.887 1019.939 1531.62 1011.157 1544.06 1015.548 1544.06 1024.695 1527.595 1029.452 1520.277 1027.257 1515.887 1019.939" fill="#3e2d1d"/>
    <polygon points="1575.029 1013.999 1587.675 1011.603 1595.113 1017.39 1593.045 1023.589 1580.813 1023.09 1576.351 1019.949 1575.029 1013.999" fill="#3e2d1d"/>
    <polygon points="1815.421 1013.999 1828.067 1011.603 1835.505 1017.39 1833.437 1023.589 1821.205 1023.09 1816.743 1019.949 1815.421 1013.999" fill="#3e2d1d"/>
    <polygon points="1365.484 1005.852 1376.698 1008.537 1380.654 1015.997 1376.69 1020.305 1366.873 1015.406 1364.379 1011.201 1365.484 1005.852" fill="#3e2d1d"/>
    <g>
      <g>
        <path d="M134.855,872.781c0,5.071-10.554,4.716-23.573,4.716s-23.574.355-23.574-4.716,10.554-13.647,23.574-13.647S134.855,867.711,134.855,872.781Z" fill="#878303"/>
        <path d="M126.1,862.959c1.782,1.881,2.8,3.787,2.8,5.355,0,5.071-10.555,4.715-23.574,4.715-6.995,0-13.258.1-17.576-.6-.01.116-.042.235-.042.348,0,5.071,10.553,5.088,23.573,5.088s24.132-.266,24.132-5.337C135.413,869.649,131.439,865.886,126.1,862.959Z" fill="#605d03"/>
        <path d="M110.528,861.333c.277.8-3.419,2.239-8.025,3.818s-8.375,2.7-8.65,1.9,3.047-3.23,7.653-4.809S110.254,860.527,110.528,861.333Z" fill="#a09a2d"/>
      </g>
      <g>
        <path d="M304.146,845.64c0,3.479-7.239,3.236-16.169,3.236s-16.17.243-16.17-3.236,7.24-9.36,16.17-9.36S304.146,842.163,304.146,845.64Z" fill="#878303"/>
        <path d="M298.142,838.9a5.893,5.893,0,0,1,1.919,3.673c0,3.478-7.239,3.235-16.169,3.235a89.594,89.594,0,0,1-12.055-.409c-.008.078-.03.16-.03.237,0,3.479,7.239,3.49,16.17,3.49s16.552-.183,16.552-3.66C304.529,843.492,301.8,840.911,298.142,838.9Z" fill="#605d03"/>
        <path d="M287.46,837.789c.19.55-2.345,1.535-5.5,2.618s-5.745,1.851-5.934,1.3,2.091-2.216,5.25-3.3S287.272,837.236,287.46,837.789Z" fill="#a09a2d"/>
      </g>
      <g>
        <path d="M341.5,857.337c0,4.359-9.071,4.055-20.262,4.055s-20.263.3-20.263-4.055,9.072-11.73,20.263-11.73S341.5,852.979,341.5,857.337Z" fill="#878303"/>
        <path d="M333.973,848.9c1.532,1.615,2.4,3.254,2.4,4.6,0,4.358-9.072,4.054-20.262,4.054-6.012,0-11.4.081-15.108-.512-.008.1-.036.2-.036.3,0,4.359,9.071,4.374,20.263,4.374s20.742-.229,20.742-4.587C341.976,854.645,338.559,851.41,333.973,848.9Z" fill="#605d03"/>
        <path d="M320.586,847.5c.238.691-2.938,1.924-6.9,3.282s-7.2,2.319-7.436,1.628,2.619-2.776,6.579-4.134S320.35,846.805,320.586,847.5Z" fill="#a09a2d"/>
      </g>
      <g>
        <path d="M158.456,855.711c0,3.411-7.1,3.173-15.859,3.173s-15.861.238-15.861-3.173,7.1-9.182,15.861-9.182S158.456,852.3,158.456,855.711Z" fill="#878303"/>
        <path d="M152.567,849.1a5.79,5.79,0,0,1,1.883,3.6c0,3.412-7.1,3.173-15.86,3.173a87.694,87.694,0,0,1-11.825-.4c-.007.079-.029.159-.029.235,0,3.411,7.1,3.423,15.86,3.423s16.236-.179,16.236-3.591C158.832,853.6,156.158,851.071,152.567,849.1Z" fill="#605d03"/>
        <path d="M142.089,848.01c.186.54-2.3,1.5-5.4,2.568s-5.635,1.815-5.82,1.275,2.05-2.174,5.149-3.236S141.905,847.467,142.089,848.01Z" fill="#a09a2d"/>
      </g>
      <g>
        <path d="M77.683,870.192c0,3.412-7.1,3.173-15.859,3.173s-15.86.239-15.86-3.173,7.1-9.182,15.86-9.182S77.683,866.782,77.683,870.192Z" fill="#878303"/>
        <path d="M71.8,863.583a5.79,5.79,0,0,1,1.882,3.6c0,3.412-7.1,3.173-15.86,3.173a87.885,87.885,0,0,1-11.825-.4c-.007.078-.028.158-.028.234,0,3.412,7.1,3.423,15.859,3.423s16.236-.178,16.236-3.59C78.059,868.085,75.385,865.553,71.8,863.583Z" fill="#605d03"/>
        <path d="M61.317,862.491c.186.541-2.3,1.5-5.4,2.569s-5.635,1.815-5.82,1.275,2.05-2.174,5.149-3.236S61.132,861.948,61.317,862.491Z" fill="#a09a2d"/>
      </g>
      <g>
        <path d="M93.731,880.381c0,3.412-7.1,3.173-15.859,3.173s-15.861.239-15.861-3.173,7.1-9.181,15.861-9.181S93.731,876.971,93.731,880.381Z" fill="#878303"/>
        <path d="M87.843,873.772a5.792,5.792,0,0,1,1.882,3.6c0,3.411-7.1,3.173-15.86,3.173a87.694,87.694,0,0,1-11.825-.4c-.007.079-.029.159-.029.234,0,3.412,7.1,3.424,15.86,3.424s16.236-.179,16.236-3.591C94.107,878.275,91.433,875.742,87.843,873.772Z" fill="#605d03"/>
        <path d="M77.365,872.68c.185.541-2.3,1.5-5.4,2.569s-5.635,1.815-5.82,1.275,2.05-2.174,5.149-3.236S77.18,872.137,77.365,872.68Z" fill="#a09a2d"/>
      </g>
      <g>
        <path d="M1404.975,850.194c0,5.071-10.554,4.716-23.575,4.716s-23.574.355-23.574-4.716,10.555-13.647,23.574-13.647S1404.975,845.124,1404.975,850.194Z" fill="#878303"/>
        <path d="M1396.222,840.372c1.781,1.881,2.8,3.787,2.8,5.355,0,5.071-10.555,4.715-23.573,4.715-6.995,0-13.259.1-17.577-.6-.01.116-.043.235-.043.348,0,5.071,10.554,5.088,23.574,5.088s24.132-.266,24.132-5.337C1405.532,847.062,1401.559,843.3,1396.222,840.372Z" fill="#605d03"/>
        <path d="M1380.647,838.747c.276.8-3.419,2.238-8.025,3.817s-8.376,2.7-8.65,1.895,3.047-3.23,7.652-4.809S1380.373,837.941,1380.647,838.747Z" fill="#a09a2d"/>
      </g>
      <g>
        <path d="M1428.575,833.124c0,3.412-7.1,3.173-15.859,3.173s-15.861.239-15.861-3.173,7.1-9.182,15.861-9.182S1428.575,829.714,1428.575,833.124Z" fill="#878303"/>
        <path d="M1422.686,826.515a5.785,5.785,0,0,1,1.883,3.6c0,3.412-7.1,3.173-15.861,3.173a87.692,87.692,0,0,1-11.824-.4c-.007.079-.029.159-.029.235,0,3.412,7.1,3.423,15.861,3.423s16.235-.179,16.235-3.59C1428.951,831.017,1426.277,828.485,1422.686,826.515Z" fill="#605d03"/>
        <path d="M1412.208,825.423c.186.54-2.3,1.5-5.4,2.568s-5.636,1.816-5.82,1.275,2.05-2.174,5.148-3.236S1412.024,824.88,1412.208,825.423Z" fill="#a09a2d"/>
      </g>
      <g>
        <path d="M1511.256,846.806c0,3.412-7.1,3.173-15.859,3.173s-15.861.239-15.861-3.173,7.1-9.181,15.861-9.181S1511.256,843.4,1511.256,846.806Z" fill="#878303"/>
        <path d="M1505.367,840.2a5.792,5.792,0,0,1,1.882,3.6c0,3.411-7.1,3.173-15.86,3.173a87.875,87.875,0,0,1-11.825-.4c-.007.079-.028.159-.028.234,0,3.412,7.1,3.424,15.861,3.424s16.235-.179,16.235-3.591C1511.632,844.7,1508.957,842.167,1505.367,840.2Z" fill="#605d03"/>
        <path d="M1494.889,839.105c.186.541-2.3,1.5-5.4,2.569s-5.636,1.815-5.82,1.275,2.049-2.174,5.148-3.236S1494.705,838.562,1494.889,839.105Z" fill="#a09a2d"/>
      </g>
      <g>
        <path d="M1545.645,857c0,3.411-7.1,3.173-15.859,3.173s-15.86.238-15.86-3.173,7.1-9.182,15.86-9.182S1545.645,853.586,1545.645,857Z" fill="#878303"/>
        <path d="M1539.757,850.387a5.788,5.788,0,0,1,1.882,3.6c0,3.412-7.1,3.173-15.86,3.173a87.7,87.7,0,0,1-11.825-.4c-.007.079-.028.159-.028.235,0,3.411,7.1,3.423,15.86,3.423s16.235-.179,16.235-3.591C1546.021,854.889,1543.347,852.356,1539.757,850.387Z" fill="#605d03"/>
        <path d="M1529.279,849.3c.186.54-2.3,1.5-5.4,2.568s-5.635,1.815-5.819,1.275,2.049-2.174,5.148-3.236S1529.094,848.752,1529.279,849.3Z" fill="#a09a2d"/>
      </g>
      <g>
        <path d="M1347.8,847.605c0,3.412-7.1,3.173-15.86,3.173s-15.86.239-15.86-3.173,7.1-9.181,15.86-9.181S1347.8,844.2,1347.8,847.605Z" fill="#878303"/>
        <path d="M1341.914,841a5.792,5.792,0,0,1,1.882,3.6c0,3.411-7.1,3.173-15.859,3.173a87.863,87.863,0,0,1-11.826-.4c-.007.079-.028.159-.028.234,0,3.412,7.1,3.423,15.859,3.423s16.236-.178,16.236-3.59C1348.178,845.5,1345.5,842.966,1341.914,841Z" fill="#605d03"/>
        <path d="M1331.436,839.9c.186.541-2.3,1.5-5.4,2.569s-5.634,1.815-5.82,1.275,2.051-2.174,5.15-3.236S1331.252,839.361,1331.436,839.9Z" fill="#a09a2d"/>
      </g>
      <g>
        <path d="M1363.85,857.8c0,3.411-7.1,3.173-15.859,3.173s-15.86.238-15.86-3.173,7.1-9.182,15.86-9.182S1363.85,854.384,1363.85,857.8Z" fill="#878303"/>
        <path d="M1357.962,851.186a5.788,5.788,0,0,1,1.882,3.6c0,3.412-7.1,3.173-15.859,3.173a87.7,87.7,0,0,1-11.826-.4c-.007.079-.028.159-.028.235,0,3.411,7.1,3.423,15.859,3.423s16.236-.179,16.236-3.591C1364.226,855.688,1361.552,853.155,1357.962,851.186Z" fill="#605d03"/>
        <path d="M1347.484,850.094c.186.54-2.3,1.5-5.4,2.568s-5.634,1.815-5.82,1.275,2.051-2.174,5.15-3.236S1347.3,849.551,1347.484,850.094Z" fill="#a09a2d"/>
      </g>
    </g>
  </g>
  <g>
    <path d="M514.714,260.687c-151.8-6.626-262.119-.807-262.119-.807s191.829-46.093,212.732-46.093c0,0-45.006-39.364,83.7-54.472,23.8-78.426,241.564-10.695,171.96,58.592,20.9,1.58,55.179,1.614,81.394,17.758,0,0-111.921,1.614-137.158,9.686,0,0,50.118,36.517-158.366,31.674C480.486,276.413,536.691,261.647,514.714,260.687Z" fill="#fff"/>
    <path d="M665.22,245.351c25-8,135.074-9.656,137.126-9.686-98.542-18.209-266.37-4.185-290.752-1.878-25.6,2.422,41.763,10.493-4.042,10.493-37.766,0-198.865,11.432-254.247,15.444l-.71.156s110.323-5.819,262.119.807c21.977.96-34.228,15.726-7.86,16.338C715.338,281.868,665.22,245.351,665.22,245.351Z" fill="#9fd0de"/>
  </g>
  <g>
    <path d="M1320.787,205.581c-105.864-4.621-182.8-.563-182.8-.563s110.414-24.206,124.992-24.206c0,0,.364-34.433,49.748-19.461-1.487-3.564,1.266-23.971,17.121-30.535,20.958-8.678,36.428,4.156,38.213,12.711,6.545-8.912,24.106-17.118,40.459-15.6,39.553,3.673,62.362,15.954,74.623,26.534,20.7,17.862-18.5,21.285-18.5,21.285s38.482,1.126,56.765,12.385c0,0-78.055,1.125-95.655,6.755,0,0,34.953,25.467-110.445,22.09C1296.916,216.549,1336.113,206.251,1320.787,205.581Z" fill="#fff"/>
    <path d="M1425.751,194.886c17.437-5.577,94.2-6.734,95.632-6.755-68.723-12.7-185.768-2.919-202.772-1.31-17.852,1.689,29.126,7.318-2.819,7.318-26.338,0-138.69,7.972-177.313,10.771l-.5.108s76.94-4.058,182.8.563c15.326.67-23.871,10.968-5.481,11.4C1460.7,220.353,1425.751,194.886,1425.751,194.886Z" fill="#9fd0de"/>
  </g>
</svg>
