<svg xmlns="http://www.w3.org/2000/svg" xmlns:xlink="http://www.w3.org/1999/xlink" width="1920" height="1080" viewBox="0 0 1920 1080">
  <defs>
    <linearGradient id="a" x1="957.957" y1="-15.416" x2="957.957" y2="1020.839" gradientUnits="userSpaceOnUse">
      <stop offset="0" stop-color="#cdf7fa"/>
      <stop offset="0.298" stop-color="#c9f4f8"/>
      <stop offset="0.597" stop-color="#bdecf1"/>
      <stop offset="0.894" stop-color="#a9dde5"/>
      <stop offset="1" stop-color="#a0d7e0"/>
    </linearGradient>
    <linearGradient id="b" data-name="Unbenannter Verlauf 833" x1="957.957" y1="172" x2="957.957" y2="1020.839" gradientUnits="userSpaceOnUse">
      <stop offset="0" stop-color="#c5f1f2"/>
      <stop offset="0.298" stop-color="#c1edef"/>
      <stop offset="0.597" stop-color="#b5e2e4"/>
      <stop offset="0.894" stop-color="#a1cfd4"/>
      <stop offset="1" stop-color="#98c7cc"/>
    </linearGradient>
    <linearGradient id="c" data-name="Unbenannter Verlauf 905" x1="957.957" y1="263.52" x2="957.957" y2="1020.839" gradientUnits="userSpaceOnUse">
      <stop offset="0" stop-color="#b7e5ea"/>
      <stop offset="0.254" stop-color="#b3e2e6"/>
      <stop offset="0.508" stop-color="#a8d8da"/>
      <stop offset="0.762" stop-color="#95c7c6"/>
      <stop offset="1" stop-color="#7cb1ac"/>
    </linearGradient>
  </defs>
  <g>
    <rect x="-388.085" y="-15.416" width="2692.085" height="1036.255" fill="url(#a)"/>
    <path d="M2304,1020.839H-388.085V172H1.006c139.337,0,333.937,89.61,508.59,89.61s154.825-70.887,338.064-70.887,183.059,28.171,335.837,28.171S1757.172,172,1904.4,172H2304Z" fill="url(#b)"/>
    <path d="M2304,1020.839H-388.085V279.263H64.1c136.708,0,354.877,70.14,533.9,70.14s237.367-50.648,319.1-74.935,221.512-.6,459.687-.6,346.587,5.391,500.188,5.391H2304Z" fill="url(#c)"/>
  </g>
  <polygon points="2614.468 551.518 2360.894 426.811 2082.997 395.58 1853.16 515.252 1650.365 394.812 1390.344 379.976 1149.011 412.175 981.9 464.864 714.613 453.961 516.183 435.471 214.476 395.58 65.362 457.665 -55.149 525.069 -344.54 453.961 -516.766 551.518 -516.766 1095.665 2614.468 1095.665 2614.468 551.518" fill="#d5f2f7"/>
  <polygon points="-896.466 612.046 -569.703 545.726 -235.939 629.137 -212.232 624.248 -188.235 509.249 -147.633 509.249 -95.74 600.225 -21.058 474.516 257.495 515.367 562.735 484.754 596.62 493.404 627.518 446.252 658.941 432.635 693.599 518.158 728.367 527.033 771.54 500.457 799.821 444.681 818.675 461.178 826.962 552.2 907.33 572.714 1149.919 572.714 1391.426 515.857 1473.363 509.605 1490.799 460.916 1516.792 439.444 1536.204 504.811 1630.385 497.626 1984.814 472.814 2177.559 501.202 2337.833 560.963 2666.908 515.857 2874.31 612.046 2874.31 1148.559 -896.466 1148.559 -896.466 612.046" fill="#fff"/>
  <g>
    <path d="M979.3,273.1c-179.28-7.934-309.577-.967-309.577-.967s226.561-55.192,251.249-55.192c0,0-53.155-47.134,98.85-65.225,28.109-93.908,285.3-12.806,203.095,70.159,24.686,1.892,65.17,1.933,96.131,21.263,0,0-132.185,1.933-161.991,11.6,0,0,59.191,43.726-187.039,37.927C938.874,291.93,1005.254,274.249,979.3,273.1Z" fill="#fff"/>
    <path d="M1157.055,254.736c29.528-9.575,159.529-11.561,161.953-11.6-116.384-21.8-314.6-5.011-343.395-2.248-30.232,2.9,49.325,12.564-4.774,12.564-44.6,0-234.87,13.688-300.279,18.493l-.839.186s130.3-6.967,309.577.967c25.956,1.149-40.424,18.83-9.282,19.563C1216.246,298.462,1157.055,254.736,1157.055,254.736Z" fill="#9fd0de"/>
  </g>
  <g>
    <path d="M1772.949,210.493c-125.031-5.533-215.9-.674-215.9-.674s130.4-28.984,147.622-28.984c0,0,.431-41.231,58.756-23.3-1.757-4.269,1.5-28.7,20.221-36.564,24.752-10.39,43.023,4.977,45.131,15.221,7.729-10.671,28.471-20.5,47.784-18.68,46.715,4.4,73.653,19.1,88.135,31.772,24.452,21.388-21.848,25.487-21.848,25.487s45.45,1.349,67.043,14.83c0,0-92.187,1.347-112.974,8.088,0,0,41.281,30.5-130.442,26.451C1744.757,223.626,1791.051,211.3,1772.949,210.493Z" fill="#fff"/>
    <path d="M1896.918,197.686c20.593-6.678,111.257-8.063,112.947-8.088-81.166-15.207-219.4-3.5-239.486-1.569-21.084,2.023,34.4,8.764-3.329,8.764-31.107,0-163.8,9.545-209.417,12.9l-.585.13s90.87-4.859,215.9.674c18.1.8-28.192,13.133-6.473,13.644C1938.2,228.181,1896.918,197.686,1896.918,197.686Z" fill="#9fd0de"/>
  </g>
  <g>
    <path d="M-147.051,210.493c-125.031-5.533-215.9-.674-215.9-.674s130.405-28.984,147.622-28.984c0,0,.431-41.231,58.756-23.3-1.757-4.269,1.5-28.7,20.221-36.564,24.752-10.39,43.023,4.977,45.131,15.221,7.729-10.671,28.471-20.5,47.784-18.68,46.715,4.4,73.653,19.1,88.135,31.772,24.452,21.388-21.848,25.487-21.848,25.487s45.45,1.349,67.043,14.83c0,0-92.187,1.347-112.974,8.088,0,0,41.281,30.5-130.442,26.451C-175.243,223.626-128.949,211.3-147.051,210.493Z" fill="#fff"/>
    <path d="M-23.082,197.686c20.593-6.678,111.257-8.063,112.947-8.088-81.166-15.207-219.4-3.5-239.486-1.569-21.084,2.023,34.4,8.764-3.329,8.764-31.107,0-163.8,9.545-209.417,12.9l-.585.13s90.87-4.859,215.9.674c18.1.8-28.192,13.133-6.473,13.644C18.2,228.181-23.082,197.686-23.082,197.686Z" fill="#9fd0de"/>
  </g>
  <g>
    <path d="M452.438,201.3c-125.031-5.534-215.9-.674-215.9-.674s130.405-28.985,147.623-28.985c0,0,.43-41.23,58.755-23.3-1.757-4.268,1.5-28.7,20.221-36.564,24.752-10.39,43.023,4.977,45.131,15.222,7.73-10.672,28.471-20.5,47.784-18.68,46.716,4.4,73.653,19.1,88.135,31.771,24.452,21.388-21.847,25.488-21.847,25.488s45.449,1.348,67.042,14.829c0,0-92.187,1.348-112.974,8.089,0,0,41.281,30.5-130.442,26.451C424.246,214.434,470.54,202.1,452.438,201.3Z" fill="#fff"/>
    <path d="M576.407,188.5c20.594-6.678,111.257-8.063,112.947-8.089-81.166-15.206-219.4-3.494-239.485-1.568-21.085,2.022,34.4,8.763-3.33,8.763-31.107,0-163.8,9.546-209.417,12.9l-.585.13s90.87-4.86,215.9.674c18.1.8-28.192,13.132-6.473,13.644C617.688,218.99,576.407,188.5,576.407,188.5Z" fill="#9fd0de"/>
  </g>
  <g>
    <g>
      <g>
        <polygon points="960.104 781.424 -3.574 781.424 -3.574 630.083 103.501 593.531 247.195 657.777 462.379 579.471 669.747 661.199 863.911 587.765 960.104 630.083 960.104 781.424" fill="#cece76"/>
        <path d="M462.379,579.471s-51.966,35.054-33.551,45.012S575.466,748.408,601.05,781.424H854.29S650.9,620.077,462.379,579.471Z" fill="#99a058"/>
      </g>
      <path d="M863.911,587.765s-7.958,45.3,5.334,55.255,59.409-22.894,90.859-12.937C960.1,630.083,902.237,600,863.911,587.765Z" fill="#99a058"/>
      <path d="M103.5,593.531s-10.755,8.984,6.343,17.675c23.261,11.824-8.213,65.539,26.007,69.242,28.514,3.086,111.344-22.671,111.344-22.671S141.383,600.791,103.5,593.531Z" fill="#99a058"/>
    </g>
    <g>
      <g>
        <polygon points="1923.783 781.424 960.104 781.424 960.104 630.083 1067.179 593.531 1210.874 657.777 1426.058 579.471 1633.425 661.199 1827.59 587.765 1923.783 630.083 1923.783 781.424" fill="#cece76"/>
        <path d="M1426.058,579.471s-51.966,35.054-33.552,45.012,146.638,123.925,172.222,156.941h253.24S1614.579,620.077,1426.058,579.471Z" fill="#99a058"/>
      </g>
      <path d="M1827.59,587.765s-7.959,45.3,5.333,55.255,60.013.288,90.86-12.937C1923.783,630.083,1865.915,600,1827.59,587.765Z" fill="#99a058"/>
      <path d="M1067.179,593.531s-10.755,8.984,6.343,17.675c23.261,11.824-8.212,65.539,26.008,69.242,28.513,3.086,111.344-22.671,111.344-22.671S1105.062,600.791,1067.179,593.531Z" fill="#99a058"/>
    </g>
  </g>
  <rect x="-513.303" y="906.439" width="3405.779" height="175.612" fill="#3e2d1d"/>
  <rect x="-497.201" y="778.525" width="3827.806" height="196.941" fill="#b5ba4f"/>
  <path d="M2892.476,959.429H2585.922c-15.905,0-6.77-7.795-23.651-7.795-10.844,0-47.428,7.795-58.656,7.795h-60.546c-15.172,0-24.006-9.743-39.734-9.743-16.73,0-40.388,9.743-57.71,9.743H1738.261c-15.092,0-16.987-9.743-32.166-9.743-17.454,0-48.2,9.743-65.75,9.743H908.812c-10.925,0-21.1,4.628-31.929,4.628-12.362,0-25.372-4.628-37.605-4.628h-51.8c-14.616,0-32.435,8.282-46.829,8.282-16.554,0-29.645-8.282-45.883-8.282H-29.906c-14.19,0-15.61-7.793-34.531-7.793s-23.179,7.793-37.369,7.793H-513.3V989.52H2892.476Z" fill="#660"/>
  <g>
    <path d="M2892.476,1039.345H1593.351c-2.906,0-5.815,0-8.672-.053-12.449-1.409-26.64-4.332-39.412-2.871-78.049,2.924-156.1,7.308-234.84,2.924H1050.939c-20.8-1.462-40.663,1.461-61.949-2.924-22.705-4.384-42.572,4.385-63.858,4.385-34.058,2.923-69.535-2.923-103.147-1.461H644.278c-32.762-4.385-63.981,11.692-96.62,2.923-24.124-5.847-45.411-5.847-69.957-2.923H73.149c-40.615-1.462-81.768,0-122.922-2.924-95.078-4.384-190.156,7.308-285.764,2.924H-513.3v31.925h227.29c58.856.228,117.038.228,175.93,0q3.768,0,7.568,0H498.034c31.176-2.695,63.815,1.69,95.113,0,2.087,0,4.156,0,6.227,0H894.766c27.528.228,55.909.228,82.47-.02q4.572.023,9.175.02h396.975q87.434.342,174.567-.013,4.311.016,8.636.013H2892.476Z" fill="#261911"/>
    <path d="M2892.476,989.653H1584.631c-91.869-2.923-182.69,8.769-274.146,0H1050.908c-70.432-1.462-139.967,1.461-210.7,0H638.181c-49.37,1.461-99.038,1.461-149.4,0H88.85c-39.287,2.923-77.6,0-115.917-2.923-95.078-5.847-188.737,5.846-284.04,2.923H-513.3v15.962h177.766c97.028,3.037,193.525.114,290.022-10.116,25.543-1.462,48.248,10.23,72.372,13.153,21.287,2.923,42.573-4.384,63.543-3.037H477.742c17.41,1.576,33.02-4.27,50.049.114,18.448,4.385,35.477,8.77,53.925,4.385,25.543-5.846,49.667-4.385,75.389-4.5H821.986c54.9,1.576,110.241.114,165.585-1.347,24.124-1.462,48.249,2.923,72.559,1.347h244.025c35.347-2.809,69.4,11.807,104.881,7.422,61.02-5.846,120.622-11.692,180.964-7.422H2892.476Z" fill="#261911"/>
    <path d="M2892.476,1017.233H1590.01c-19.2-1.273-39.066-7.119-60.352-4.2-78.05,14.615-150.422,10.231-225.507,4.2H1060.133c-21.475.189-41.342,1.65-62.628-2.734-25.544-5.847-49.668,5.846-75.211,5.846-34.058,1.461-66.7-4.385-100.309-3.112H657.106c-14.37.189-29.98-1.273-44.171,1.65-32.638,5.846-63.858,7.308-95.078-2.923-12.771-4.385-26.962,2.923-40.171,1.273H90.4c-43.674,3.112-84.828-4.2-127.4-5.658-99.335-5.846-198.67,13.154-298.536,5.658H-513.3v9.477h184.462c52.016-1.981,104.522,6.788,157.028.942,45.41-5.846,90.821-13.153,136.231-5.846,41.153,7.308,80.887,4.385,120.23,4.9H468.522c29.468-3.442,55.012-.519,84.812,5.327,17.029,4.384,34.058,0,51.087-2.923,18.448-4.385,35.477-2.923,52.684-2.4H821.986c59.154,3.865,117.336-3.442,175.519-1.981,19.867,0,41.153,1.462,62.625,1.981h253.077c78.8,9.711,158.268.942,237.737-3.442,12.771-1.462,26.962,2.923,39.059,3.442H2892.476Z" fill="#261911"/>
  </g>
  <polygon points="1502.34 1048.956 1517.595 1040.187 1529.658 1044.572 1529.658 1053.706 1513.693 1058.456 1506.598 1056.264 1502.34 1048.956" fill="#3e2d1d"/>
  <polygon points="1103.107 1047.699 1118.362 1038.929 1130.424 1043.314 1130.424 1052.449 1114.46 1057.198 1107.364 1055.006 1103.107 1047.699" fill="#3e2d1d"/>
  <polygon points="602.174 1048.956 617.429 1040.187 629.491 1044.572 629.491 1053.706 613.526 1058.456 606.431 1056.264 602.174 1048.956" fill="#3e2d1d"/>
  <polygon points="587.806 1054.159 578.363 1048.729 570.895 1051.444 570.895 1057.099 580.778 1060.039 585.171 1058.682 587.806 1054.159" fill="#3e2d1d"/>
  <polygon points="444.244 1049.096 434.8 1043.667 427.332 1046.381 427.332 1052.036 437.215 1054.976 441.608 1053.619 444.244 1049.096" fill="#3e2d1d"/>
  <polygon points="1692.142 1053.191 1707.397 1044.422 1719.459 1048.806 1719.459 1057.941 1703.494 1062.691 1696.399 1060.499 1692.142 1053.191" fill="#3e2d1d"/>
  <polygon points="1749.485 1047.259 1761.747 1044.867 1768.959 1050.646 1766.953 1056.836 1755.093 1056.338 1750.767 1053.201 1749.485 1047.259" fill="#3e2d1d"/>
  <polygon points="1546.312 1039.124 1557.185 1041.805 1561.021 1049.254 1557.177 1053.556 1547.659 1048.665 1545.241 1044.466 1546.312 1039.124" fill="#3e2d1d"/>
  <g>
    <g>
      <path d="M353.1,885.251c0,5.064-10.233,4.71-22.856,4.71s-22.858.354-22.858-4.71,10.234-13.627,22.858-13.627S353.1,880.189,353.1,885.251Z" fill="#878303"/>
      <path d="M344.615,875.443c1.728,1.878,2.713,3.782,2.713,5.348,0,5.064-10.234,4.708-22.857,4.708-6.782,0-12.855.1-17.041-.6-.011.116-.042.234-.042.347,0,5.064,10.233,5.081,22.857,5.081s23.4-.265,23.4-5.329C353.643,882.124,349.79,878.366,344.615,875.443Z" fill="#605d03"/>
      <path d="M329.515,873.82c.268.8-3.315,2.235-7.781,3.812s-8.121,2.7-8.388,1.893,2.955-3.226,7.421-4.8S329.248,873.015,329.515,873.82Z" fill="#a09a2d"/>
    </g>
    <g>
      <path d="M517.245,858.149c0,3.474-7.018,3.231-15.677,3.231s-15.678.243-15.678-3.231,7.019-9.348,15.678-9.348S517.245,854.676,517.245,858.149Z" fill="#878303"/>
      <path d="M511.424,851.422a5.947,5.947,0,0,1,1.861,3.668c0,3.472-7.019,3.23-15.678,3.23a84.442,84.442,0,0,1-11.689-.408c-.007.078-.028.16-.028.237,0,3.474,7.018,3.485,15.678,3.485s16.049-.183,16.049-3.655C517.617,856,514.973,853.426,511.424,851.422Z" fill="#605d03"/>
      <path d="M501.067,850.309c.184.549-2.274,1.533-5.337,2.614s-5.57,1.849-5.753,1.3,2.026-2.212,5.09-3.294S500.885,849.756,501.067,850.309Z" fill="#a09a2d"/>
    </g>
    <g>
      <path d="M553.46,869.829c0,4.354-8.8,4.05-19.646,4.05s-19.647.3-19.647-4.05,8.8-11.713,19.647-11.713S553.46,865.478,553.46,869.829Z" fill="#878303"/>
      <path d="M546.165,861.4A7.454,7.454,0,0,1,548.5,866c0,4.351-8.795,4.048-19.646,4.048-5.829,0-11.049.081-14.648-.511-.008.1-.035.2-.035.3,0,4.354,8.795,4.368,19.646,4.368s20.112-.228,20.112-4.58C553.925,867.14,550.612,863.91,546.165,861.4Z" fill="#605d03"/>
      <path d="M533.186,860c.231.69-2.85,1.921-6.688,3.277s-6.981,2.316-7.21,1.626,2.54-2.772,6.379-4.128S532.957,859.312,533.186,860Z" fill="#a09a2d"/>
    </g>
    <g>
      <path d="M375.985,868.205c0,3.407-6.884,3.169-15.377,3.169s-15.378.238-15.378-3.169,6.885-9.169,15.378-9.169S375.985,864.8,375.985,868.205Z" fill="#878303"/>
      <path d="M370.276,861.606a5.845,5.845,0,0,1,1.825,3.6c0,3.406-6.885,3.168-15.378,3.168a82.649,82.649,0,0,1-11.466-.4c-.006.079-.027.158-.027.234,0,3.407,6.885,3.419,15.377,3.419s15.743-.179,15.743-3.586C376.35,866.1,373.757,863.572,370.276,861.606Z" fill="#605d03"/>
      <path d="M360.116,860.515c.18.54-2.23,1.5-5.235,2.565s-5.463,1.812-5.643,1.273,1.988-2.171,4.993-3.231S359.937,859.973,360.116,860.515Z" fill="#a09a2d"/>
    </g>
    <g>
      <path d="M297.669,882.666c0,3.407-6.884,3.169-15.377,3.169s-15.379.238-15.379-3.169,6.885-9.168,15.379-9.168S297.669,879.261,297.669,882.666Z" fill="#878303"/>
      <path d="M291.959,876.067a5.84,5.84,0,0,1,1.825,3.6c0,3.407-6.884,3.168-15.378,3.168a82.64,82.64,0,0,1-11.465-.4c-.007.079-.028.159-.028.234,0,3.407,6.885,3.419,15.378,3.419s15.742-.179,15.742-3.586C298.033,880.563,295.44,878.033,291.959,876.067Z" fill="#605d03"/>
      <path d="M281.8,874.976c.18.54-2.231,1.5-5.235,2.565s-5.464,1.813-5.643,1.273,1.988-2.171,4.992-3.231S281.621,874.434,281.8,874.976Z" fill="#a09a2d"/>
    </g>
    <g>
      <path d="M313.229,892.841c0,3.407-6.885,3.169-15.378,3.169s-15.378.238-15.378-3.169,6.885-9.168,15.378-9.168S313.229,889.436,313.229,892.841Z" fill="#878303"/>
      <path d="M307.519,886.242a5.84,5.84,0,0,1,1.825,3.6c0,3.407-6.885,3.168-15.378,3.168a82.64,82.64,0,0,1-11.465-.4c-.007.079-.028.159-.028.234,0,3.407,6.885,3.419,15.378,3.419s15.742-.179,15.742-3.586C313.593,890.738,311,888.208,307.519,886.242Z" fill="#605d03"/>
      <path d="M297.36,885.151c.18.54-2.231,1.5-5.235,2.565s-5.464,1.813-5.643,1.273,1.988-2.171,4.992-3.231S297.181,884.609,297.36,885.151Z" fill="#a09a2d"/>
    </g>
    <g>
      <path d="M1584.6,862.7c0,5.064-10.233,4.71-22.857,4.71s-22.858.354-22.858-4.71,10.234-13.628,22.858-13.628S1584.6,857.633,1584.6,862.7Z" fill="#878303"/>
      <path d="M1576.116,852.888c1.726,1.878,2.712,3.782,2.712,5.348,0,5.064-10.235,4.708-22.857,4.708-6.782,0-12.856.094-17.042-.595-.01.116-.042.234-.042.347,0,5.064,10.233,5.081,22.858,5.081s23.4-.265,23.4-5.329C1585.143,859.569,1581.29,855.811,1576.116,852.888Z" fill="#605d03"/>
      <path d="M1561.014,851.265c.268.8-3.315,2.235-7.781,3.812s-8.121,2.7-8.387,1.893,2.955-3.226,7.42-4.8S1560.748,850.46,1561.014,851.265Z" fill="#a09a2d"/>
    </g>
    <g>
      <path d="M1607.485,845.65c0,3.407-6.885,3.169-15.377,3.169s-15.379.238-15.379-3.169,6.885-9.169,15.379-9.169S1607.485,842.245,1607.485,845.65Z" fill="#878303"/>
      <path d="M1601.775,839.05a5.844,5.844,0,0,1,1.825,3.6c0,3.407-6.884,3.169-15.378,3.169a82.647,82.647,0,0,1-11.465-.4c-.007.078-.028.158-.028.234,0,3.407,6.885,3.418,15.379,3.418s15.741-.178,15.741-3.585C1607.849,843.546,1605.256,841.017,1601.775,839.05Z" fill="#605d03"/>
      <path d="M1591.616,837.96c.18.539-2.23,1.5-5.234,2.565s-5.465,1.812-5.643,1.273,1.987-2.171,4.991-3.232S1591.437,837.418,1591.616,837.96Z" fill="#a09a2d"/>
    </g>
    <g>
      <path d="M1687.651,859.313c0,3.407-6.884,3.169-15.376,3.169s-15.379.238-15.379-3.169,6.885-9.168,15.379-9.168S1687.651,855.908,1687.651,859.313Z" fill="#878303"/>
      <path d="M1681.942,852.714a5.84,5.84,0,0,1,1.825,3.6c0,3.407-6.885,3.168-15.378,3.168a82.64,82.64,0,0,1-11.465-.4c-.007.079-.028.159-.028.234,0,3.407,6.885,3.419,15.379,3.419s15.741-.179,15.741-3.586C1688.016,857.209,1685.423,854.68,1681.942,852.714Z" fill="#605d03"/>
      <path d="M1671.782,851.623c.181.54-2.229,1.5-5.234,2.565s-5.464,1.813-5.643,1.273,1.988-2.171,4.992-3.231S1671.6,851.081,1671.782,851.623Z" fill="#a09a2d"/>
    </g>
    <g>
      <path d="M1721,869.488c0,3.407-6.885,3.169-15.377,3.169s-15.379.238-15.379-3.169,6.885-9.168,15.379-9.168S1721,866.083,1721,869.488Z" fill="#878303"/>
      <path d="M1715.286,862.889a5.84,5.84,0,0,1,1.825,3.6c0,3.407-6.885,3.168-15.378,3.168a82.64,82.64,0,0,1-11.465-.4c-.007.079-.028.159-.028.234,0,3.407,6.885,3.419,15.379,3.419s15.741-.179,15.741-3.586C1721.36,867.385,1718.767,864.855,1715.286,862.889Z" fill="#605d03"/>
      <path d="M1705.127,861.8c.18.54-2.23,1.5-5.235,2.565s-5.464,1.813-5.643,1.273,1.988-2.171,4.992-3.231S1704.948,861.256,1705.127,861.8Z" fill="#a09a2d"/>
    </g>
    <g>
      <path d="M1529.168,860.111c0,3.407-6.883,3.169-15.377,3.169s-15.378.238-15.378-3.169,6.885-9.169,15.378-9.169S1529.168,856.706,1529.168,860.111Z" fill="#878303"/>
      <path d="M1523.459,853.511a5.85,5.85,0,0,1,1.825,3.6c0,3.407-6.885,3.168-15.377,3.168a82.635,82.635,0,0,1-11.466-.4c-.007.079-.028.159-.028.234,0,3.407,6.885,3.418,15.377,3.418s15.743-.178,15.743-3.585C1529.533,858.007,1526.94,855.478,1523.459,853.511Z" fill="#605d03"/>
      <path d="M1513.3,852.421c.18.539-2.231,1.5-5.235,2.565s-5.463,1.812-5.643,1.273,1.988-2.171,4.993-3.232S1513.121,851.879,1513.3,852.421Z" fill="#a09a2d"/>
    </g>
    <g>
      <path d="M1544.728,870.286c0,3.407-6.883,3.169-15.377,3.169s-15.378.238-15.378-3.169,6.885-9.169,15.378-9.169S1544.728,866.881,1544.728,870.286Z" fill="#878303"/>
      <path d="M1539.019,863.686a5.85,5.85,0,0,1,1.825,3.6c0,3.407-6.885,3.168-15.377,3.168a82.635,82.635,0,0,1-11.466-.4c-.007.079-.028.159-.028.234,0,3.407,6.885,3.418,15.377,3.418s15.743-.178,15.743-3.585C1545.093,868.182,1542.5,865.653,1539.019,863.686Z" fill="#605d03"/>
      <path d="M1528.859,862.6c.18.539-2.231,1.5-5.235,2.565s-5.463,1.812-5.643,1.273,1.988-2.171,4.993-3.231S1528.68,862.054,1528.859,862.6Z" fill="#a09a2d"/>
    </g>
  </g>
</svg>
