<svg xmlns="http://www.w3.org/2000/svg" xmlns:xlink="http://www.w3.org/1999/xlink" width="1920" height="1080" viewBox="0 0 1920 1080">
  <defs>
    <linearGradient id="a" x1="966.128" y1="-11.331" x2="966.128" y2="1024.924" gradientUnits="userSpaceOnUse">
      <stop offset="0" stop-color="#cdf7fa"/>
      <stop offset="0.298" stop-color="#c9f4f8"/>
      <stop offset="0.597" stop-color="#bdecf1"/>
      <stop offset="0.894" stop-color="#a9dde5"/>
      <stop offset="1" stop-color="#a0d7e0"/>
    </linearGradient>
    <linearGradient id="b" data-name="Unbenannter Verlauf 833" x1="966.128" y1="176.086" x2="966.128" y2="1024.924" gradientUnits="userSpaceOnUse">
      <stop offset="0" stop-color="#c5f1f2"/>
      <stop offset="0.298" stop-color="#c1edef"/>
      <stop offset="0.597" stop-color="#b5e2e4"/>
      <stop offset="0.894" stop-color="#a1cfd4"/>
      <stop offset="1" stop-color="#98c7cc"/>
    </linearGradient>
    <linearGradient id="c" data-name="Unbenannter Verlauf 905" x1="966.128" y1="267.605" x2="966.128" y2="1024.924" gradientUnits="userSpaceOnUse">
      <stop offset="0" stop-color="#b7e5ea"/>
      <stop offset="0.254" stop-color="#b3e2e6"/>
      <stop offset="0.508" stop-color="#a8d8da"/>
      <stop offset="0.762" stop-color="#95c7c6"/>
      <stop offset="1" stop-color="#7cb1ac"/>
    </linearGradient>
  </defs>
  <g>
    <rect x="-379.915" y="-11.331" width="2692.085" height="1036.255" fill="url(#a)"/>
    <path d="M2312.17,1024.924H-379.915V176.086H9.177c139.337,0,333.936,89.609,508.59,89.609s154.824-70.886,338.063-70.886,183.059,28.17,335.838,28.17,573.675-46.893,720.9-46.893h399.6Z" fill="url(#b)"/>
    <path d="M2312.17,1024.924H-379.915V283.349H72.272c136.708,0,354.877,70.139,533.9,70.139s237.366-50.648,319.1-74.935,221.512-.6,459.686-.6,346.587,5.392,500.188,5.392H2312.17Z" fill="url(#c)"/>
  </g>
  <polygon points="2622.638 513.343 2369.064 388.635 2091.167 357.404 1861.33 477.076 1658.535 356.636 1398.514 341.8 1157.181 373.999 990.07 426.688 722.783 415.785 524.353 397.295 222.646 357.404 73.532 419.489 -46.979 486.894 -336.37 415.785 -508.596 513.343 -508.596 1057.489 2622.638 1057.489 2622.638 513.343" fill="#d5f2f7"/>
  <polygon points="-894.557 578.055 -567.794 511.735 -234.029 595.146 -210.323 590.257 -186.325 475.258 -145.724 475.258 -93.83 566.234 -19.149 440.525 259.404 481.377 564.644 450.764 598.529 459.413 629.427 412.261 660.85 398.645 695.508 484.167 730.276 493.042 773.45 466.466 801.731 410.69 820.585 427.187 828.871 518.209 909.239 538.723 1151.828 538.723 1393.336 481.866 1475.272 475.614 1492.708 426.925 1518.701 405.453 1538.114 470.82 1632.294 463.635 1986.894 437.462 2179.468 467.211 2339.743 526.972 2668.817 481.866 2876.219 578.055 2876.219 1114.568 -894.557 1114.568 -894.557 578.055" fill="#fff"/>
  <path d="M2714.258,669.19s-54.881,15.019-66.171,5.006c-3.362-2.982-8.982-5.219-15.556-6.911L2606,634.105l11.807-29.632-11.557-4.6-9.187,23.057-6.895-8.624-9.716,7.77,11.314,14.149-10.518,26.4c-7.658,2.341-8.616,10.2-14.073,11.579-6.584,1.669-57.076-1.668-57.076-1.668l-37.38-10.567v-41.17l-22.184-5.007s-21.661-3.337-26.114-8.344c-1.627-1.829-2.065-5.217-1.967-8.781.033-1.184-16.7-4.247-16.571-5.419.257-2.357,17.482-2.727,17.83-4.418.385-1.867.708-3.078.708-3.078s24.21-15.02,24.149-21.7c-.039-4.172,1.449-14.683,1.449-14.683l-13.89-6.01,2.211-16.947L2424.423,524l-24.881,3.228-17.563,8.345-3.595,10.122,8.782,13.352v36.715s-24.148,10.014-35.125,15.02,0,13.351,0,13.351,0,5.008,8.782,6.676-6.586,35.048-8.782,43.392-15.366,5.007-24.147,3.337-15.366-1.668-30.734-10.115,0-4.9,0-5.457-6.586-19.474-6.586-19.474h-48.3s-37.32,6.675-79.029,10.014-19.757,14.917-19.757,14.917,2.194,18.461,0,23.467-10.977,5.007-21.953,3.338c0,0-28.539-6.676-39.514-8.344s-10.977,5.006-17.563,6.674-17.561,5.009-17.561,5.009-17.562-1.67-28.539-8.346-13.172-10.013-13.172-10.013-17.561-8.345-24.148-11.785-28.538-5.457-28.538-5.457L1934.944,630.8l-26.8-26.7-21.419-3.339s-118.619,11.683-131.792,11.683h-81.224l-19.757,3.337-8.781,6.676-8.782,15.021-85.615,6.674h-41.817c-15.475,0-10.868,6.676-10.868,6.676l-8.89,16.587-15.325-1.588-14.75-33.488,9.276-23.28-11.557-4.6-4.751,11.921-.859-1.951-11.384,5.016,5.787,13.139-9.126,22.9v-9.663l-41.6-20.027-59.389,2.677V606.221l-92.681,16.261-2.369-8.806,8.662.753,1.077-12.393-13.177-1.146-1.261-4.684,4.159-10.234-7.759-3.154-2.382-8.854L1217.78,577.2l4.9,18.2-1.666,4.1-39.962-3.478,12.094-29.482-11.51-4.721-13.073,31.869-3.116-5.865-10.987,5.834,7.966,14.994-10,24.382c-14.5-4.9-28.594-10.288-39.176-15.68-34.94-17.8,0-6.676,0-6.676V595.1s-8.967-8.9-20.676-8.9H1080.86l-20.49,26.7-59.484-4.451-25.4,24.479,6.858,6.677c6.858,6.676-4.967,27.816-4.967,27.816l-20.24,12.239-40.3-17.7,16.089-24.585v-8.9l-43.79,4.45L867.51,646.278l-5.116-11.127-85.958,11.127L761.8,667.418l-23.231,34.491s-35.312,24.48-44.093,28.93-20.277,2.226-20.277,2.226L648.776,714.15s28.137-7.79,25.209-14.466,0-13.351,0-13.351V667.418H631.432L524.2,681.882s-8.211,3.248-20.04,7.684l-16.065-14.43,7.185-6.733-8.506-9.077-7.968,7.466-16.929-15.206-8.313,9.255,16.131,14.49-16.024,15.014-16.41-14.74-8.312,9.255,15.612,14.024-15.72,14.728a30.828,30.828,0,0,1-6.539.538l-28.306-14.466v-17.8l28.306-6.676-14.153-13.245V637.376l-37.332-.882-18.851-30.063,14.528-35.412-11.51-4.721-12.491,30.451-8.1,5.078,3.635,5.8L326.612,635.45l-12.666-.3L283.639,648.5H255.4l-24.393-8.9-31.223-13.353L76.441,646.278s.813,8.148,1.234,17.734l-30.109,4.931,5.9-13.618-11.413-4.948-9.084,20.957-32.1,5.257,6.8-15.683L-3.744,655.96l-9.979,23.022-32.217,5.277-.154-.151-20.49-16.69-96.565,16.69s-26.376,33.379-25.58,40.055S-259.9,739.741-259.9,739.741l-57.432-6.676,9.986-35.606-45.37-22.253-32.744-33.379h32.744V612.9l-98.3-26.7h-72.2l-64.239,28.928,3.689,26.705v57.857l-41.9,48.957H-755.406v366.064H2757.178V748.641ZM27.089,684.9,14.921,712.975l-4.312,1.175H-15.409l10.4-23.991ZM-19.6,692.55l-5.355,12.357-10-9.841Zm75.136,9.359L30.3,708.786l11.389-26.273L77.9,676.58c-.081,5.715-.482,10.927-1.463,14.2C73.109,701.909,55.531,701.909,55.531,701.909Zm290.624-81.321,9.753,15.555-15.979-.379Zm132.824,63.085,11.984,10.766c-7.485,2.722-15.575,5.587-23.538,8.265l-4.469-4.015Zm749.044-68.393,2.517,9.359-6.8,1.194Zm-31.438,31.161-20.377-38.359,39.9,3.473L1201.4,647.76Q1199.086,647.132,1196.585,646.441Zm-26.576-23.512,9.971,18.771c-5.073-1.5-10.358-3.105-15.7-4.8Zm43.512,28.043,7.842-19.3v21.281S1218.45,652.244,1213.521,650.972Zm246.109,13.383-12.738-1.319,5.775-14.49Zm1154.326-.381c-6.928-.838-13.7-1.33-19.2-1.638l5.953-14.936Z" fill="#dfe9f7"/>
  <g>
    <g>
      <path d="M41.657,674.686c-1.746-31.722-14.209-24.783-21.985-32.713-7.57-7.722-14.91-106.71-38.95-116.544v0a11.241,11.241,0,0,0-3.632-1.426,25.579,25.579,0,0,0-4.182-.214v0c-22.962-.437-10.609,78.111-41.814,105.29-7.415,6.459-10.229,22.7-14.549,41.063a10.75,10.75,0,0,0-.262,2.488h-.006c-.793,9.343,6.3,18.685,6.305,18.7,1.811,4.491,3.127,8.927,2.408,12.916a6.22,6.22,0,0,1-.955,2.282c-4.427,4.94-14.358,8.3-16.754,13.939h0a5.748,5.748,0,0,0-.617,1.786c-1.433,9.107.24,19.83-.5,28.475-3.535,12.133-5.471,32.147-5.481,32.253-2.227,10.453-4.007,16.667-4.007,16.667H77.751S70,750.027,69.236,733.174,43.4,706.408,41.657,674.686Z" fill="#d3ddd0"/>
      <path d="M1961.657,674.686c-1.746-31.722-14.209-24.783-21.985-32.713-7.57-7.722-14.91-106.71-38.95-116.544v0a11.241,11.241,0,0,0-3.632-1.426,25.579,25.579,0,0,0-4.182-.214v0c-22.962-.437-10.609,78.111-41.814,105.29-7.415,6.459-10.229,22.7-14.549,41.063a10.75,10.75,0,0,0-.262,2.488h-.006c-.793,9.343,6.3,18.685,6.305,18.7,1.811,4.491,3.127,8.927,2.408,12.916a6.22,6.22,0,0,1-.955,2.282c-4.427,4.94-14.358,8.3-16.754,13.939h0a5.748,5.748,0,0,0-.617,1.786c-1.433,9.107.24,19.83-.5,28.475-3.535,12.133-5.471,32.147-5.481,32.253-2.227,10.453-4.007,16.667-4.007,16.667h181.073s-7.755-49.625-8.515-66.478S1963.4,706.408,1961.657,674.686Z" fill="#d3ddd0"/>
      <path d="M245.368,608.12c-10.861-23.77-4.681-74.354-4.829-110.661-.042-10.016-6.647-22.894-15.734-35.9-10.972-20.8-29.345-42-50.384-52.79h0c-10.387-6.737-19.657-9.374-25.387-5.241-11.017,7.944-13.939,38-16.289,68.913-.565,7.436-11.792,24.951-12.4,32.191-.052.622-.091,1.23-.122,1.827h0c-4.708,7.978,3.922,27.652,4.114,28.088a15.227,15.227,0,0,1-1.215,6.14c-3.284,7.847-8.477,17.136-13.346,26.867-5.737,11.463-6.482,21.4-6.754,32.025-2.38,10.035,9.032,44.65,9.032,44.65-3.925,30.927-20.176,40.34-27.779,55.132a4.339,4.339,0,0,0-.444,2.157c-.3,11.286,5.826,25.45,5.967,25.774-.058.718-.133,1.444-.246,2.19-1.818,12-16.436,29.454-17.71,40.651-1.773,15.591-2.87,27.471-2.87,27.471H256.634c0-54.519-14.6-75.975-14.837-97.49S256.228,631.889,245.368,608.12Z" fill="#d3ddd0"/>
      <path d="M335.417,462.941h0c-7.507,1.457-16.08,9.5-24.551,21.8-4.633,6.725.587,15.407-2.678,28.685-3.813,15.51-11.2,34.568-13.409,53.594a36.193,36.193,0,0,0,.066,10.7,25.339,25.339,0,0,0,2.707,9.807c1.63,2.646,1.778,7.262,1.785,8.644,0,.1,0,.2,0,.3v.024c-.007.662-.031,1.358-.072,2.093-.768,13.483-12.842,44.4-10.39,54.078h0c-.354,5.174,3.176,8.7,4.449,13.682q.293,1.539.437,2.944c.144,3.638-1.161,10.432-1.17,10.479-3.024,7.782-10.43,11.292-14.111,17.218a3.658,3.658,0,0,0-.447,1.591c-.594,2.093,1.176,10.955,2.695,15.416,1.084,3.185,3.407,14.883,3.412,14.909a15.833,15.833,0,0,1-.641,6.828c-4.741,12.026-20.686,8.707-20.069,22.982a243.935,243.935,0,0,0,5.01,38.866h70.153V462.206A11.747,11.747,0,0,0,335.417,462.941Z" fill="#d3ddd0"/>
    </g>
    <g>
      <path d="M851.594,672.644c-1.746-31.723-14.209-24.783-21.984-32.714-7.57-7.721-14.91-106.71-38.95-116.543h0a11.23,11.23,0,0,0-3.632-1.425,25.446,25.446,0,0,0-4.182-.214v0c-22.961-.437-10.609,78.11-41.813,105.29-7.415,6.458-10.229,22.7-14.549,41.062a10.811,10.811,0,0,0-.263,2.488h0c-.793,9.343,6.295,18.685,6.305,18.7,1.811,4.491,3.126,8.927,2.408,12.915a6.206,6.206,0,0,1-.956,2.282c-4.427,4.94-14.358,8.3-16.754,13.94h0a5.771,5.771,0,0,0-.616,1.786c-1.433,9.106.24,19.829-.5,28.474-3.534,12.133-5.47,32.147-5.48,32.253-2.227,10.453-4.007,16.667-4.007,16.667H887.689s-7.756-49.625-8.516-66.477S853.341,704.366,851.594,672.644Z" fill="#d3ddd0"/>
      <path d="M1090.029,608.12c-10.86-23.77-4.681-74.354-4.829-110.661-.041-10.016-6.647-22.894-15.733-35.9-10.973-20.8-29.346-42-50.384-52.79h0c-10.388-6.737-19.657-9.374-25.388-5.241-11.017,7.944-13.939,38-16.289,68.913-.565,7.436-11.792,24.951-12.395,32.191-.052.622-.091,1.23-.121,1.827h0c-4.708,7.978,3.922,27.652,4.114,28.088a15.227,15.227,0,0,1-1.215,6.14c-3.284,7.847-8.477,17.136-13.346,26.867-5.737,11.463-6.482,21.4-6.754,32.025-2.38,10.035,9.032,44.65,9.032,44.65-3.925,30.927-20.176,40.34-27.779,55.132a4.339,4.339,0,0,0-.444,2.157c-.3,11.286,5.826,25.45,5.967,25.774-.058.718-.133,1.444-.246,2.19-1.818,12-16.436,29.454-17.71,40.651-1.773,15.591-2.869,27.471-2.869,27.471H1101.3c0-54.519-14.6-75.975-14.837-97.49S1100.889,631.889,1090.029,608.12Z" fill="#d3ddd0"/>
      <path d="M665.127,644.233c-2.93-15.518-18.113,27.207-27.409,26.027-5.916-6.321-7.383-29.149-7.317-41.983.359-69.459-3.525-148.841-17.14-185.049-4.579-12.176-15.748-19.948-21.9-20.269l-.168-.022c-.063-.007-.124-.011-.186-.015-.089-.006-.178-.01-.266-.01-.062,0-.125,0-.187,0-.088,0-.177.012-.264.022-.061.006-.122.013-.183.023-.091.015-.181.035-.272.056-.057.014-.115.025-.171.041-.1.028-.2.062-.3.1-.048.017-.1.032-.144.051a4.463,4.463,0,0,0-.436.2c-11.087,5.811-21.768,23.82-35.753,48.064-3.09,5.356-11.845,48.808-15.3,54.709-5.443,9.3-15.4,14.671-19.54,25.547a11.746,11.746,0,0,0-.746,3.587h0a14.782,14.782,0,0,0,.337,3.892c1.638,9.7,8.895,17.142,11.376,22.145.1.2.193.408.284.611.024.055.052.112.073.167,2.879,6.487,2.757,12.314-6.912,16.656-22.269,10-46.167,32.786-39.608,45.447,5.573,12.127,8.252,46.654,8.252,46.654h0c.969,44.676-3.068,106.721-3.068,106.721H684.456V708.778S676.847,665.74,665.127,644.233Z" fill="#d3ddd0"/>
      <g>
        <path d="M1180.078,462.941h0c-7.508,1.457-16.081,9.5-24.552,21.8-4.633,6.725.587,15.407-2.678,28.685-3.813,15.51-11.2,34.568-13.409,53.594a36.227,36.227,0,0,0,.066,10.7,25.339,25.339,0,0,0,2.707,9.807c1.631,2.646,1.778,7.262,1.785,8.644,0,.1,0,.2,0,.3v.024c-.007.662-.031,1.358-.072,2.093-.768,13.483-12.842,44.4-10.39,54.078h0c-.354,5.174,3.176,8.7,4.449,13.682q.293,1.539.437,2.944c.144,3.638-1.161,10.432-1.17,10.479-3.024,7.782-10.429,11.292-14.111,17.218a3.658,3.658,0,0,0-.447,1.591c-.594,2.093,1.176,10.955,2.695,15.416,1.084,3.185,3.407,14.883,3.412,14.909a15.833,15.833,0,0,1-.641,6.828c-4.741,12.026-20.686,8.707-20.068,22.982a244.006,244.006,0,0,0,5.009,38.866h70.153V462.206A11.747,11.747,0,0,0,1180.078,462.941Z" fill="#d3ddd0"/>
        <path d="M412.054,746.43c-6.035-10.757-8.695-32.273-12.436-41.686s-20.361-56.477-28.421-76.467-5.33-87.586-11.73-132.587c-2.521-17.723-7.245-27.87-12.875-31.222h0a9.8,9.8,0,0,0-7.038-2.229V797.609h72.5S418.088,757.188,412.054,746.43Z" fill="#d3ddd0"/>
      </g>
    </g>
    <g>
      <path d="M1618.233,648.225c2.087-37.921,16.986-29.626,26.28-39.106,9.05-9.231,17.824-127.562,46.562-139.317v0a13.442,13.442,0,0,1,4.342-1.7,30.5,30.5,0,0,1,5-.256v0c27.448-.522,12.682,93.374,49.984,125.864,8.864,7.721,12.228,27.132,17.392,49.086a12.86,12.86,0,0,1,.314,2.974h.007c.947,11.169-7.526,22.337-7.538,22.353-2.165,5.369-3.737,10.671-2.878,15.439a7.425,7.425,0,0,0,1.142,2.728c5.292,5.9,17.163,9.918,20.028,16.663h-.005a6.9,6.9,0,0,1,.737,2.135c1.713,10.886-.287,23.705.6,34.039,4.225,14.5,6.539,38.429,6.551,38.555,2.663,12.5,4.79,19.924,4.79,19.924H1575.086s9.271-59.322,10.179-79.468S1616.145,686.145,1618.233,648.225Z" fill="#d3ddd0"/>
      <path d="M1507.7,644.233c-2.929-15.518-18.113,27.207-27.408,26.027-5.917-6.321-7.384-29.149-7.317-41.983.359-69.459-3.526-148.841-17.141-185.049-4.578-12.176-15.747-19.948-21.9-20.269l-.168-.022c-.062-.007-.124-.011-.186-.015-.089-.006-.177-.01-.266-.01-.062,0-.124,0-.186,0-.088,0-.177.012-.265.022-.061.006-.122.013-.183.023-.091.015-.181.035-.271.056-.057.014-.115.025-.172.041-.1.028-.2.062-.3.1-.048.017-.1.032-.143.051a4.59,4.59,0,0,0-.437.2c-11.086,5.811-21.767,23.82-35.753,48.064-3.09,5.356-11.844,48.808-15.3,54.709-5.442,9.3-15.4,14.671-19.54,25.547a11.805,11.805,0,0,0-.746,3.587h0a14.824,14.824,0,0,0,.337,3.892c1.639,9.7,8.9,17.142,11.376,22.145q.147.306.285.611c.023.055.051.112.073.167,2.879,6.487,2.757,12.314-6.912,16.656-22.27,10-46.167,32.786-39.608,45.447,5.572,12.127,8.251,46.654,8.251,46.654h0c.968,44.676-3.068,106.721-3.068,106.721h196.276V708.778S1519.422,665.74,1507.7,644.233Z" fill="#d3ddd0"/>
      <path d="M1254.63,746.43c-6.035-10.757-8.7-32.273-12.437-41.686s-20.36-56.477-28.42-76.467-5.331-87.586-11.731-132.587c-2.52-17.723-7.244-27.87-12.874-31.222h0a9.8,9.8,0,0,0-7.037-2.229V797.609h72.5S1260.664,757.188,1254.63,746.43Z" fill="#d3ddd0"/>
    </g>
  </g>
  <path d="M-129.308,822.98C-19.567,724.953,53.631,715.6,99.74,724.44c85.334,16.352,125.605,104.129,211.6,98.54,35.166-2.286,31.272-19.382,89.437-40.221,92.108-33,178.485-21.578,209.416-16.088,89.076,15.811,93.423,49.015,163.6,60.331,94.569,15.248,109.538-48.559,215.96-52.287,115.944-4.061,141.413,63.629,242.136,44.243,72.166-13.89,75.743-51.843,139.61-52.287,78.524-.545,95.594,56.668,167.969,52.287,64.663-3.915,78.32-51.238,143.973-58.32,66.168-7.137,143.8,24.111,143.973,50.276.374,56.795-363.838,155.747-474.6,36.2-17.806-19.218-38.576-54.352-86.474-74.408-57.931-24.257-113.335-8.783-122.673-6.033a189.2,189.2,0,0,0-82.451,50.276" fill="#bac9b5"/>
  <path d="M1790.692,822.98c109.741-98.027,182.939-107.376,229.048-98.54,85.334,16.352,125.6,104.129,211.6,98.54,35.166-2.286,31.272-19.382,89.438-40.221,92.107-33,178.484-21.578,209.415-16.088,89.076,15.811,93.423,49.015,163.605,60.331,94.569,15.248,109.538-48.559,215.96-52.287,115.944-4.061,141.413,63.629,242.136,44.243,72.166-13.89,75.743-51.843,139.61-52.287,78.524-.545,95.594,56.668,167.969,52.287,64.663-3.915,78.32-51.238,143.973-58.32,66.168-7.137,143.8,24.111,143.973,50.276.374,56.795-363.838,155.747-474.6,36.2-17.806-19.218-38.576-54.352-86.474-74.408-57.931-24.257-113.335-8.783-122.673-6.033a189.2,189.2,0,0,0-82.451,50.276" fill="#bac9b5"/>
  <g>
    <rect x="-758.72" y="919.937" width="3512.583" height="175.858" fill="#3e2d1d"/>
    <rect x="-742.113" y="791.845" width="3947.844" height="197.217" fill="#b5ba4f"/>
    <path d="M2753.863,973H2437.7c-16.4,0-6.982-7.806-24.392-7.806-11.184,0-48.915,7.806-60.495,7.806h-62.445c-15.648,0-24.759-9.757-40.98-9.757-17.254,0-41.655,9.757-59.52,9.757h-626.41c-15.566,0-17.52-9.757-33.175-9.757-18,0-49.716,9.757-67.812,9.757H707.992c-11.268,0-21.757,4.635-32.93,4.635-12.75,0-26.168-4.635-38.785-4.635h-53.42c-15.075,0-33.453,8.294-48.3,8.294-17.074,0-30.575-8.294-47.322-8.294h-747.4c-14.635,0-16.1-7.8-35.613-7.8s-23.906,7.8-38.541,7.8h-424.4v30.133H2753.863Z" fill="#660"/>
    <g>
      <path d="M2753.863,1053.029H1414c-3,0-6,0-8.944-.052-12.84-1.411-27.475-4.338-40.648-2.875-80.5,2.927-160.993,7.318-242.2,2.927H854.576c-21.448-1.463-41.938,1.464-63.892-2.927-23.417-4.39-43.907,4.391-65.86,4.391-35.126,2.927-71.716-2.927-106.382-1.464H435.162c-33.789-4.39-65.988,11.709-99.65,2.928-24.881-5.855-46.834-5.855-72.151-2.928H-153.878c-41.888-1.463-84.332,0-126.775-2.927-98.06-4.39-196.12,7.318-294.727,2.927H-758.72V1085H-524.3c60.7.229,120.708.229,181.447,0q3.887,0,7.805,0H284.332c32.154-2.7,65.816,1.693,98.1,0,2.153,0,4.287,0,6.422,0H693.505c28.391.229,57.663.229,85.057-.02q4.716.024,9.463.02h409.424q90.174.344,180.041-.012,4.446.016,8.907.012H2753.863Z" fill="#261911"/>
      <path d="M2753.863,1003.268H1405.005c-94.751-2.927-188.42,8.781-282.743,0H854.544c-72.641-1.464-144.356,1.463-217.306,0H428.874c-50.918,1.463-102.143,1.463-154.085,0H-137.684c-40.519,2.927-80.036,0-119.552-2.927-98.06-5.855-194.656,5.854-292.947,2.927H-758.72v15.985h183.341c100.07,3.041,199.593.114,299.116-10.131,26.345-1.463,49.762,10.245,74.643,13.172,21.953,2.927,43.907-4.39,65.535-3.041H263.4c17.956,1.578,34.055-4.277,51.618.114,19.027,4.391,36.59,8.782,55.616,4.391,26.344-5.854,51.225-4.391,77.753-4.5H618.443c56.619,1.578,113.7.114,170.778-1.349,24.881-1.464,49.761,2.927,74.834,1.349h251.678c36.455-2.813,71.581,11.823,108.17,7.432,62.934-5.854,124.4-11.709,186.639-7.432H2753.863Z" fill="#261911"/>
      <path d="M2753.863,1030.887H1410.552c-19.8-1.275-40.291-7.129-62.245-4.2-80.5,14.636-155.139,10.245-232.578,4.2H864.058c-22.148.189-42.638,1.652-64.592-2.738-26.344-5.855-51.225,5.854-77.57,5.854-35.125,1.464-68.788-4.391-103.454-3.116H448.393c-14.821.189-30.92-1.275-45.556,1.652-33.663,5.855-65.861,7.318-98.06-2.927-13.172-4.391-27.808,2.927-41.431,1.275H-136.086c-45.044,3.116-87.488-4.2-131.395-5.666-102.451-5.854-204.9,13.173-307.9,5.666H-758.72v9.491h190.247c53.647-1.984,107.8,6.8,161.952.943,46.834-5.854,93.669-13.172,140.5-5.854,42.444,7.317,83.424,4.39,124,4.911H253.894c30.393-3.448,56.737-.521,87.473,5.334,17.562,4.39,35.125,0,52.688-2.928,19.027-4.39,36.59-2.927,54.336-2.406H618.443c61.01,3.87,121.016-3.448,181.023-1.984,20.49,0,42.444,1.463,64.589,1.984h261.014c81.271,9.724,163.231.943,245.192-3.448,13.172-1.463,27.808,2.927,40.284,3.448H2753.863Z" fill="#261911"/>
    </g>
    <polygon points="1320.133 1062.654 1335.867 1053.873 1348.307 1058.264 1348.307 1067.411 1331.842 1072.168 1324.524 1069.972 1320.133 1062.654" fill="#3e2d1d"/>
    <polygon points="908.38 1061.395 924.114 1052.614 936.554 1057.004 936.554 1066.152 920.089 1070.908 912.771 1068.713 908.38 1061.395" fill="#3e2d1d"/>
    <polygon points="391.738 1062.654 407.471 1053.873 419.912 1058.264 419.912 1067.411 403.446 1072.168 396.128 1069.972 391.738 1062.654" fill="#3e2d1d"/>
    <polygon points="376.92 1067.864 367.18 1062.427 359.478 1065.146 359.478 1070.809 369.671 1073.753 374.201 1072.394 376.92 1067.864" fill="#3e2d1d"/>
    <polygon points="228.855 1062.794 219.115 1057.358 211.413 1060.076 211.413 1065.739 221.606 1068.683 226.136 1067.324 228.855 1062.794" fill="#3e2d1d"/>
    <polygon points="1515.887 1066.895 1531.62 1058.114 1544.06 1062.504 1544.06 1071.652 1527.595 1076.408 1520.277 1074.213 1515.887 1066.895" fill="#3e2d1d"/>
    <polygon points="1575.029 1060.955 1587.675 1058.559 1595.113 1064.347 1593.045 1070.545 1580.813 1070.047 1576.351 1066.905 1575.029 1060.955" fill="#3e2d1d"/>
    <polygon points="1815.421 1060.955 1828.067 1058.559 1835.505 1064.347 1833.437 1070.545 1821.205 1070.047 1816.743 1066.905 1815.421 1060.955" fill="#3e2d1d"/>
    <polygon points="1365.484 1052.808 1376.698 1055.494 1380.654 1062.953 1376.69 1067.261 1366.873 1062.363 1364.379 1058.158 1365.484 1052.808" fill="#3e2d1d"/>
    <g>
      <g>
        <path d="M134.855,898.72c0,5.071-10.554,4.716-23.573,4.716s-23.574.355-23.574-4.716,10.554-13.647,23.574-13.647S134.855,893.65,134.855,898.72Z" fill="#878303"/>
        <path d="M126.1,888.9c1.782,1.881,2.8,3.787,2.8,5.355,0,5.072-10.555,4.716-23.574,4.716-6.995,0-13.258.094-17.576-.6-.01.115-.042.234-.042.347,0,5.071,10.553,5.088,23.573,5.088s24.132-.266,24.132-5.337C135.413,895.588,131.439,891.825,126.1,888.9Z" fill="#605d03"/>
        <path d="M110.528,887.273c.277.8-3.419,2.238-8.025,3.817s-8.375,2.7-8.65,1.9,3.047-3.23,7.653-4.81S110.254,886.467,110.528,887.273Z" fill="#a09a2d"/>
      </g>
      <g>
        <path d="M304.146,871.579c0,3.479-7.239,3.236-16.169,3.236s-16.17.243-16.17-3.236,7.24-9.36,16.17-9.36S304.146,868.1,304.146,871.579Z" fill="#878303"/>
        <path d="M298.142,864.843a5.9,5.9,0,0,1,1.919,3.674c0,3.477-7.239,3.234-16.169,3.234a89.594,89.594,0,0,1-12.055-.409c-.008.079-.03.16-.03.237,0,3.479,7.239,3.491,16.17,3.491s16.552-.183,16.552-3.661C304.529,869.431,301.8,866.85,298.142,864.843Z" fill="#605d03"/>
        <path d="M287.46,863.728c.19.551-2.345,1.535-5.5,2.619s-5.745,1.851-5.934,1.3,2.091-2.215,5.25-3.3S287.272,863.175,287.46,863.728Z" fill="#a09a2d"/>
      </g>
      <g>
        <path d="M341.5,883.277c0,4.359-9.071,4.054-20.262,4.054s-20.263.3-20.263-4.054,9.072-11.73,20.263-11.73S341.5,878.919,341.5,883.277Z" fill="#878303"/>
        <path d="M333.973,874.835c1.532,1.615,2.4,3.255,2.4,4.6,0,4.357-9.072,4.053-20.262,4.053-6.012,0-11.4.081-15.108-.512-.008.1-.036.2-.036.3,0,4.359,9.071,4.373,20.263,4.373s20.742-.228,20.742-4.586C341.976,880.584,338.559,877.349,333.973,874.835Z" fill="#605d03"/>
        <path d="M320.586,873.438c.238.69-2.938,1.923-6.9,3.281s-7.2,2.32-7.436,1.628,2.619-2.776,6.579-4.133S320.35,872.744,320.586,873.438Z" fill="#a09a2d"/>
      </g>
      <g>
        <path d="M158.456,881.65c0,3.412-7.1,3.173-15.859,3.173s-15.861.239-15.861-3.173,7.1-9.181,15.861-9.181S158.456,878.24,158.456,881.65Z" fill="#878303"/>
        <path d="M152.567,875.041a5.792,5.792,0,0,1,1.883,3.6c0,3.412-7.1,3.173-15.86,3.173a87.885,87.885,0,0,1-11.825-.4c-.007.078-.029.158-.029.234,0,3.412,7.1,3.423,15.86,3.423s16.236-.178,16.236-3.59C158.832,879.543,156.158,877.011,152.567,875.041Z" fill="#605d03"/>
        <path d="M142.089,873.949c.186.54-2.3,1.5-5.4,2.569s-5.635,1.815-5.82,1.275,2.05-2.174,5.149-3.236S141.905,873.406,142.089,873.949Z" fill="#a09a2d"/>
      </g>
      <g>
        <path d="M77.683,896.131c0,3.412-7.1,3.173-15.859,3.173s-15.86.239-15.86-3.173,7.1-9.181,15.86-9.181S77.683,892.721,77.683,896.131Z" fill="#878303"/>
        <path d="M71.8,889.523a5.788,5.788,0,0,1,1.882,3.6c0,3.411-7.1,3.173-15.86,3.173a87.694,87.694,0,0,1-11.825-.4c-.007.079-.028.159-.028.234,0,3.412,7.1,3.424,15.859,3.424s16.236-.179,16.236-3.591C78.059,894.025,75.385,891.492,71.8,889.523Z" fill="#605d03"/>
        <path d="M61.317,888.431c.186.54-2.3,1.5-5.4,2.568s-5.635,1.815-5.82,1.275,2.05-2.174,5.149-3.236S61.132,887.887,61.317,888.431Z" fill="#a09a2d"/>
      </g>
      <g>
        <path d="M93.731,906.321c0,3.412-7.1,3.173-15.859,3.173s-15.861.239-15.861-3.173,7.1-9.182,15.861-9.182S93.731,902.911,93.731,906.321Z" fill="#878303"/>
        <path d="M87.843,899.712a5.788,5.788,0,0,1,1.882,3.6c0,3.412-7.1,3.173-15.86,3.173a87.694,87.694,0,0,1-11.825-.4c-.007.079-.029.159-.029.235,0,3.412,7.1,3.423,15.86,3.423s16.236-.179,16.236-3.59C94.107,904.214,91.433,901.681,87.843,899.712Z" fill="#605d03"/>
        <path d="M77.365,898.62c.185.54-2.3,1.5-5.4,2.568s-5.635,1.815-5.82,1.275,2.05-2.174,5.149-3.236S77.18,898.077,77.365,898.62Z" fill="#a09a2d"/>
      </g>
      <g>
        <path d="M1404.975,876.133c0,5.071-10.554,4.717-23.575,4.717s-23.574.354-23.574-4.717,10.555-13.647,23.574-13.647S1404.975,871.063,1404.975,876.133Z" fill="#878303"/>
        <path d="M1396.222,866.311c1.781,1.881,2.8,3.788,2.8,5.356,0,5.071-10.555,4.715-23.573,4.715-6.995,0-13.259.094-17.577-.6-.01.116-.043.234-.043.347,0,5.071,10.554,5.088,23.574,5.088s24.132-.265,24.132-5.337C1405.532,873,1401.559,869.238,1396.222,866.311Z" fill="#605d03"/>
        <path d="M1380.647,864.686c.276.8-3.419,2.238-8.025,3.818s-8.376,2.7-8.65,1.895,3.047-3.23,7.652-4.81S1380.373,863.88,1380.647,864.686Z" fill="#a09a2d"/>
      </g>
      <g>
        <path d="M1428.575,859.063c0,3.412-7.1,3.173-15.859,3.173s-15.861.239-15.861-3.173,7.1-9.181,15.861-9.181S1428.575,855.653,1428.575,859.063Z" fill="#878303"/>
        <path d="M1422.686,852.454a5.789,5.789,0,0,1,1.883,3.6c0,3.411-7.1,3.172-15.861,3.172a87.883,87.883,0,0,1-11.824-.4c-.007.078-.029.159-.029.234,0,3.412,7.1,3.423,15.861,3.423s16.235-.178,16.235-3.59C1428.951,856.956,1426.277,854.424,1422.686,852.454Z" fill="#605d03"/>
        <path d="M1412.208,851.362c.186.541-2.3,1.5-5.4,2.569s-5.636,1.815-5.82,1.275,2.05-2.174,5.148-3.236S1412.024,850.819,1412.208,851.362Z" fill="#a09a2d"/>
      </g>
      <g>
        <path d="M1511.256,872.746c0,3.411-7.1,3.173-15.859,3.173s-15.861.238-15.861-3.173,7.1-9.182,15.861-9.182S1511.256,869.335,1511.256,872.746Z" fill="#878303"/>
        <path d="M1505.367,866.137a5.788,5.788,0,0,1,1.882,3.6c0,3.412-7.1,3.173-15.86,3.173a87.708,87.708,0,0,1-11.825-.4c-.007.079-.028.159-.028.235,0,3.411,7.1,3.423,15.861,3.423s16.235-.179,16.235-3.59C1511.632,870.639,1508.957,868.106,1505.367,866.137Z" fill="#605d03"/>
        <path d="M1494.889,865.045c.186.54-2.3,1.5-5.4,2.568s-5.636,1.815-5.82,1.275,2.049-2.174,5.148-3.236S1494.705,864.5,1494.889,865.045Z" fill="#a09a2d"/>
      </g>
      <g>
        <path d="M1545.645,882.935c0,3.412-7.1,3.173-15.859,3.173s-15.86.239-15.86-3.173,7.1-9.182,15.86-9.182S1545.645,879.525,1545.645,882.935Z" fill="#878303"/>
        <path d="M1539.757,876.326a5.788,5.788,0,0,1,1.882,3.6c0,3.412-7.1,3.173-15.86,3.173a87.892,87.892,0,0,1-11.825-.4c-.007.078-.028.158-.028.234,0,3.412,7.1,3.423,15.86,3.423s16.235-.179,16.235-3.59C1546.021,880.828,1543.347,878.3,1539.757,876.326Z" fill="#605d03"/>
        <path d="M1529.279,875.234c.186.54-2.3,1.5-5.4,2.568s-5.635,1.816-5.819,1.275,2.049-2.174,5.148-3.236S1529.094,874.691,1529.279,875.234Z" fill="#a09a2d"/>
      </g>
      <g>
        <path d="M1347.8,873.545c0,3.411-7.1,3.173-15.86,3.173s-15.86.238-15.86-3.173,7.1-9.182,15.86-9.182S1347.8,870.134,1347.8,873.545Z" fill="#878303"/>
        <path d="M1341.914,866.936a5.788,5.788,0,0,1,1.882,3.6c0,3.412-7.1,3.173-15.859,3.173a87.7,87.7,0,0,1-11.826-.4c-.007.079-.028.159-.028.235,0,3.411,7.1,3.423,15.859,3.423s16.236-.179,16.236-3.59C1348.178,871.438,1345.5,868.905,1341.914,866.936Z" fill="#605d03"/>
        <path d="M1331.436,865.844c.186.54-2.3,1.5-5.4,2.568s-5.634,1.815-5.82,1.275,2.051-2.174,5.15-3.236S1331.252,865.3,1331.436,865.844Z" fill="#a09a2d"/>
      </g>
      <g>
        <path d="M1363.85,883.734c0,3.412-7.1,3.173-15.859,3.173s-15.86.239-15.86-3.173,7.1-9.182,15.86-9.182S1363.85,880.324,1363.85,883.734Z" fill="#878303"/>
        <path d="M1357.962,877.125a5.788,5.788,0,0,1,1.882,3.6c0,3.412-7.1,3.173-15.859,3.173a87.887,87.887,0,0,1-11.826-.4c-.007.078-.028.158-.028.234,0,3.412,7.1,3.423,15.859,3.423s16.236-.179,16.236-3.59C1364.226,881.627,1361.552,879.1,1357.962,877.125Z" fill="#605d03"/>
        <path d="M1347.484,876.033c.186.54-2.3,1.5-5.4,2.568s-5.634,1.816-5.82,1.275,2.051-2.174,5.15-3.236S1347.3,875.49,1347.484,876.033Z" fill="#a09a2d"/>
      </g>
    </g>
  </g>
  <g>
    <path d="M514.714,260.687c-151.8-6.626-262.119-.807-262.119-.807s191.829-46.093,212.732-46.093c0,0-45.006-39.364,83.7-54.472,23.8-78.426,241.564-10.695,171.96,58.592,20.9,1.58,55.179,1.614,81.394,17.758,0,0-111.921,1.614-137.158,9.686,0,0,50.118,36.517-158.366,31.674C480.486,276.413,536.691,261.647,514.714,260.687Z" fill="#fff"/>
    <path d="M665.22,245.351c25-8,135.074-9.656,137.126-9.686-98.542-18.209-266.37-4.185-290.752-1.878-25.6,2.422,41.763,10.493-4.042,10.493-37.766,0-198.865,11.432-254.247,15.444l-.71.156s110.323-5.819,262.119.807c21.977.96-34.228,15.726-7.86,16.338C715.338,281.868,665.22,245.351,665.22,245.351Z" fill="#9fd0de"/>
  </g>
  <g>
    <path d="M1320.787,205.581c-105.864-4.621-182.8-.563-182.8-.563s110.414-24.206,124.992-24.206c0,0,.364-34.433,49.748-19.461-1.487-3.564,1.266-23.971,17.121-30.535,20.958-8.678,36.428,4.156,38.213,12.711,6.545-8.912,24.106-17.118,40.459-15.6,39.553,3.673,62.362,15.954,74.623,26.534,20.7,17.862-18.5,21.285-18.5,21.285s38.482,1.126,56.765,12.385c0,0-78.055,1.125-95.655,6.755,0,0,34.953,25.467-110.445,22.09C1296.916,216.549,1336.113,206.251,1320.787,205.581Z" fill="#fff"/>
    <path d="M1425.751,194.886c17.437-5.577,94.2-6.734,95.632-6.755-68.723-12.7-185.768-2.919-202.772-1.31-17.852,1.689,29.126,7.318-2.819,7.318-26.338,0-138.69,7.972-177.313,10.771l-.5.108s76.94-4.058,182.8.563c15.326.67-23.871,10.968-5.481,11.4C1460.7,220.353,1425.751,194.886,1425.751,194.886Z" fill="#9fd0de"/>
  </g>
</svg>
