<svg xmlns="http://www.w3.org/2000/svg" xmlns:xlink="http://www.w3.org/1999/xlink" width="1920" height="1080" viewBox="0 0 1920 1080">
  <defs>
    <linearGradient id="a" x1="957.957" y1="-15.416" x2="957.957" y2="1020.839" gradientUnits="userSpaceOnUse">
      <stop offset="0" stop-color="#cdf7fa"/>
      <stop offset="0.298" stop-color="#c9f4f8"/>
      <stop offset="0.597" stop-color="#bdecf1"/>
      <stop offset="0.894" stop-color="#a9dde5"/>
      <stop offset="1" stop-color="#a0d7e0"/>
    </linearGradient>
    <linearGradient id="b" data-name="Unbenannter Verlauf 833" x1="957.957" y1="172" x2="957.957" y2="1020.839" gradientUnits="userSpaceOnUse">
      <stop offset="0" stop-color="#c5f1f2"/>
      <stop offset="0.298" stop-color="#c1edef"/>
      <stop offset="0.597" stop-color="#b5e2e4"/>
      <stop offset="0.894" stop-color="#a1cfd4"/>
      <stop offset="1" stop-color="#98c7cc"/>
    </linearGradient>
    <linearGradient id="c" data-name="Unbenannter Verlauf 905" x1="957.957" y1="263.52" x2="957.957" y2="1020.839" gradientUnits="userSpaceOnUse">
      <stop offset="0" stop-color="#b7e5ea"/>
      <stop offset="0.254" stop-color="#b3e2e6"/>
      <stop offset="0.508" stop-color="#a8d8da"/>
      <stop offset="0.762" stop-color="#95c7c6"/>
      <stop offset="1" stop-color="#7cb1ac"/>
    </linearGradient>
  </defs>
  <g>
    <rect x="-388.085" y="-15.416" width="2692.085" height="1036.255" fill="url(#a)"/>
    <path d="M2304,1020.839H-388.085V172H1.006c139.337,0,333.937,89.61,508.59,89.61s154.825-70.887,338.064-70.887,183.059,28.171,335.837,28.171S1757.172,172,1904.4,172H2304Z" fill="url(#b)"/>
    <path d="M2304,1020.839H-388.085V279.263H64.1c136.708,0,354.877,70.14,533.9,70.14s237.367-50.648,319.1-74.935,221.512-.6,459.687-.6,346.587,5.391,500.188,5.391H2304Z" fill="url(#c)"/>
  </g>
  <polygon points="2614.468 509.258 2360.894 384.55 2082.997 353.319 1853.16 472.991 1650.365 352.551 1390.344 337.715 1149.011 369.914 981.9 422.603 714.613 411.7 516.183 393.21 214.476 353.319 65.362 415.404 -55.149 482.809 -344.54 411.7 -516.766 509.258 -516.766 1053.404 2614.468 1053.404 2614.468 509.258" fill="#d5f2f7"/>
  <polygon points="-902.727 569.785 -575.964 503.465 -242.199 586.876 -218.493 581.987 -194.495 466.988 -153.894 466.988 -102 557.964 -27.319 432.255 251.234 473.106 556.474 442.493 590.359 451.143 621.257 403.991 652.68 390.374 687.338 475.897 722.106 484.772 765.28 458.196 793.56 402.42 812.414 418.917 820.701 509.939 901.069 530.453 1143.658 530.453 1385.165 473.596 1467.102 467.344 1484.538 418.655 1510.531 397.183 1529.943 462.55 1624.124 455.365 1978.553 430.553 2171.298 458.941 2331.572 518.702 2660.647 473.596 2868.049 569.785 2868.049 1106.298 -902.727 1106.298 -902.727 569.785" fill="#fff"/>
  <g>
    <rect x="-2017.38" y="920.962" width="4148.561" height="210.574" fill="#3e2d1d"/>
    <rect x="-2017.38" y="746.253" width="4148.561" height="187.825" fill="#b5ba4f"/>
    <path d="M2131.181,917.03H1757.768c-19.374,0-8.246-9.346-28.808-9.346-13.209,0-57.772,9.346-71.449,9.346H1583.76c-18.48,0-29.242-11.682-48.4-11.682-20.378,0-49.2,11.682-70.295,11.682H725.238c-18.384,0-20.692-11.682-39.181-11.682-21.261,0-58.717,11.682-80.09,11.682H-285.109c-13.309,0-25.7,5.55-38.893,5.55-15.058,0-30.906-5.55-45.807-5.55H-432.9c-17.8,0-39.509,9.932-57.042,9.932-20.165,0-36.111-9.932-55.89-9.932h-882.723c-17.285,0-19.014-9.344-42.061-9.344s-28.235,9.344-45.52,9.344H-2017.38v36.082H2131.181Z" fill="#660"/>
    <g>
      <path d="M2131.181,1024.1H548.723c-3.54,0-7.083,0-10.563-.064-15.164-1.689-32.45-5.194-48.007-3.441-95.071,3.505-190.142,8.762-286.058,3.505H-111.986c-25.331-1.753-49.531,1.752-75.459-3.505-27.657-5.258-51.857,5.257-77.786,5.257-41.485,3.5-84.7-3.5-125.642-1.752H-607.338c-39.906-5.258-77.935,14.02-117.692,3.5-29.385-7.01-55.314-7.01-85.214-3.5h-492.783c-49.472-1.753-99.6,0-149.729-3.505-115.814-5.258-231.628,8.762-348.089,3.505H-2017.38v38.281h276.86c71.693.274,142.564.274,214.3,0q4.59.006,9.218,0h731.526c37.975-3.231,77.732,2.026,115.857,0,2.542,0,5.062,0,7.584,0h359.816c33.531.274,68.1.274,100.457-.024q5.568.028,11.175.024H292.966q106.5.411,212.64-.016,5.25.021,10.519.016H2131.181Z" fill="#261911"/>
      <path d="M2131.181,964.517H538.1c-111.906-3.505-222.534,10.515-333.936,0h-316.19c-85.793-1.753-170.492,1.752-256.65,0H-614.763c-60.138,1.752-120.638,1.752-181.984,0H-1283.9c-47.856,3.5-94.527,0-141.2-3.505-115.814-7.01-229.9,7.01-345.987,3.505H-2017.38v19.14h216.536c118.188,3.642,235.731.137,353.273-12.13,31.115-1.753,58.772,12.267,88.157,15.772,25.929,3.5,51.857-5.257,77.4-3.642h471.819c21.207,1.89,40.222-5.12,60.965.137,22.471,5.258,43.214,10.515,65.685,5.258,31.114-7.01,60.5-5.258,91.831-5.395h200.84c66.871,1.89,134.285.137,201.7-1.615,29.386-1.753,58.771,3.5,88.384,1.615H196.455c43.056-3.368,84.541,14.157,127.756,8.9,74.328-7.01,146.928-14.02,220.431-8.9H2131.181Z" fill="#261911"/>
      <path d="M2131.181,997.588H544.653c-23.386-1.526-47.586-8.536-73.514-5.031-95.071,17.525-183.228,12.267-274.689,5.031H-100.786c-26.159.226-50.359,1.979-76.288-3.279-31.114-7.01-60.5,7.01-91.614,7.01-41.485,1.753-81.242-5.257-122.185-3.731H-591.711c-17.5.226-36.519-1.526-53.8,1.979-39.758,7.01-77.786,8.762-115.814-3.5-15.558-5.258-32.843,3.5-48.933,1.526h-471.752c-53.2,3.731-103.328-5.031-155.185-6.784-121-7.01-242,15.773-363.646,6.784H-2017.38v11.364h224.692c63.361-2.375,127.318,8.14,191.275,1.13,55.314-7.01,110.628-15.773,165.942-7.01,50.129,8.762,98.529,5.257,146.452,5.88h467.594c35.9-4.128,67.01-.623,103.31,6.387,20.743,5.258,41.485,0,62.228-3.505,22.471-5.257,43.214-3.5,64.174-2.882h200.84c72.057,4.635,142.928-4.128,213.8-2.375,24.2,0,50.129,1.752,76.284,2.375H207.482c95.986,11.645,192.786,1.13,289.585-4.128,15.557-1.752,32.843,3.5,47.578,4.128H2131.181Z" fill="#261911"/>
    </g>
    <polygon points="437.864 1035.627 456.446 1025.112 471.139 1030.369 471.139 1041.322 451.692 1047.018 443.05 1044.389 437.864 1035.627" fill="#3e2d1d"/>
    <polygon points="669.06 1040.705 687.642 1030.19 702.335 1035.447 702.335 1046.4 682.888 1052.096 674.245 1049.467 669.06 1040.705" fill="#3e2d1d"/>
    <polygon points="738.91 1033.592 753.846 1030.723 762.63 1037.653 760.188 1045.076 745.741 1044.478 740.471 1040.717 738.91 1033.592" fill="#3e2d1d"/>
    <polygon points="1022.827 1033.592 1037.763 1030.723 1046.547 1037.653 1044.105 1045.076 1029.658 1044.478 1024.388 1040.717 1022.827 1033.592" fill="#3e2d1d"/>
    <polygon points="1587.487 1028.182 1602.423 1025.314 1611.208 1032.243 1608.765 1039.666 1594.319 1039.068 1589.049 1035.307 1587.487 1028.182" fill="#3e2d1d"/>
    <polygon points="1891.14 1032.969 1906.076 1030.101 1914.86 1037.03 1912.418 1044.453 1897.971 1043.855 1892.701 1040.093 1891.14 1032.969" fill="#3e2d1d"/>
    <polygon points="1617.788 1044.471 1625.521 1037.277 1633.164 1038.096 1634.397 1043.354 1625.708 1048.336 1621.266 1048.076 1617.788 1044.471" fill="#3e2d1d"/>
    <polygon points="491.426 1023.837 504.67 1027.052 509.343 1035.984 504.66 1041.143 493.066 1035.278 490.121 1030.243 491.426 1023.837" fill="#3e2d1d"/>
    <g>
      <g>
        <path d="M538.067,837.45c0,6.073-12.465,5.648-27.843,5.648s-27.843.425-27.843-5.648,12.466-16.34,27.843-16.34S538.067,831.38,538.067,837.45Z" fill="#878303"/>
        <path d="M527.729,825.689c2.1,2.253,3.3,4.536,3.3,6.413,0,6.072-12.467,5.646-27.841,5.646-8.262,0-15.661.113-20.76-.713-.012.138-.051.28-.051.415,0,6.073,12.465,6.093,27.843,6.093s28.5-.318,28.5-6.39C538.725,833.7,534.032,829.194,527.729,825.689Z" fill="#605d03"/>
        <path d="M509.334,823.744c.326.961-4.038,2.68-9.478,4.571s-9.892,3.231-10.216,2.269,3.6-3.868,9.038-5.759S509.01,822.778,509.334,823.744Z" fill="#a09a2d"/>
      </g>
      <g>
        <path d="M565.94,817.011c0,4.085-8.386,3.8-18.731,3.8s-18.732.286-18.732-3.8,8.386-10.994,18.732-10.994S565.94,812.927,565.94,817.011Z" fill="#878303"/>
        <path d="M558.985,809.1a6.971,6.971,0,0,1,2.223,4.315c0,4.085-8.386,3.8-18.732,3.8-5.557,0-10.534.075-13.965-.481-.009.094-.034.19-.034.281,0,4.085,8.386,4.1,18.732,4.1s19.175-.214,19.175-4.3C566.384,814.488,563.225,811.456,558.985,809.1Z" fill="#605d03"/>
        <path d="M546.61,807.79c.219.647-2.716,1.8-6.376,3.075s-6.656,2.174-6.874,1.527,2.421-2.6,6.081-3.875S546.392,807.139,546.61,807.79Z" fill="#a09a2d"/>
      </g>
      <g>
        <path d="M663.59,833.394c0,4.086-8.386,3.8-18.73,3.8s-18.733.286-18.733-3.8S634.514,822.4,644.86,822.4,663.59,829.311,663.59,833.394Z" fill="#878303"/>
        <path d="M656.636,825.481a6.966,6.966,0,0,1,2.223,4.314c0,4.085-8.386,3.8-18.733,3.8-5.557,0-10.533.075-13.965-.481-.008.094-.034.19-.034.28,0,4.086,8.387,4.1,18.733,4.1s19.174-.214,19.174-4.3C664.034,830.872,660.876,827.839,656.636,825.481Z" fill="#605d03"/>
        <path d="M644.26,824.173c.22.647-2.716,1.8-6.375,3.076s-6.656,2.173-6.874,1.526,2.421-2.6,6.08-3.875S644.043,823.523,644.26,824.173Z" fill="#a09a2d"/>
      </g>
      <g>
        <path d="M704.207,845.6c0,4.085-8.387,3.8-18.731,3.8s-18.732.286-18.732-3.8S675.13,834.6,685.476,834.6,704.207,841.512,704.207,845.6Z" fill="#878303"/>
        <path d="M697.252,837.681A6.971,6.971,0,0,1,699.475,842c0,4.085-8.386,3.8-18.732,3.8-5.557,0-10.534.076-13.966-.481-.008.1-.033.19-.033.281,0,4.085,8.386,4.1,18.732,4.1s19.175-.214,19.175-4.3C704.651,843.072,701.492,840.04,697.252,837.681Z" fill="#605d03"/>
        <path d="M684.877,836.374c.219.647-2.716,1.8-6.376,3.075s-6.656,2.174-6.874,1.527,2.421-2.6,6.081-3.875S684.659,835.724,684.877,836.374Z" fill="#a09a2d"/>
      </g>
      <g>
        <path d="M470.543,834.351c0,4.085-8.385,3.8-18.731,3.8s-18.732.286-18.732-3.8,8.386-10.994,18.732-10.994S470.543,830.267,470.543,834.351Z" fill="#878303"/>
        <path d="M463.588,826.437a6.971,6.971,0,0,1,2.223,4.315c0,4.085-8.386,3.8-18.73,3.8-5.559,0-10.537.076-13.967-.481-.009.095-.034.19-.034.281,0,4.085,8.386,4.1,18.731,4.1s19.176-.214,19.176-4.3C470.987,831.828,467.829,828.8,463.588,826.437Z" fill="#605d03"/>
        <path d="M451.213,825.13c.219.647-2.718,1.8-6.378,3.075s-6.654,2.174-6.873,1.527,2.422-2.6,6.082-3.875S451,824.48,451.213,825.13Z" fill="#a09a2d"/>
      </g>
      <g>
        <path d="M489.5,846.552c0,4.085-8.384,3.8-18.73,3.8s-18.733.286-18.733-3.8,8.387-10.994,18.733-10.994S489.5,842.468,489.5,846.552Z" fill="#878303"/>
        <path d="M482.542,838.638a6.969,6.969,0,0,1,2.223,4.315c0,4.085-8.386,3.8-18.731,3.8-5.559,0-10.537.075-13.967-.481-.008.094-.034.19-.034.281,0,4.085,8.387,4.1,18.731,4.1s19.176-.214,19.176-4.3C489.94,844.029,486.782,841,482.542,838.638Z" fill="#605d03"/>
        <path d="M470.166,837.331c.22.646-2.717,1.8-6.377,3.075s-6.654,2.174-6.874,1.527,2.423-2.6,6.082-3.875S469.949,836.68,470.166,837.331Z" fill="#a09a2d"/>
      </g>
      <g>
        <path d="M1589.471,840.021c0,6.072-12.465,5.648-27.843,5.648s-27.842.424-27.842-5.648,12.466-16.341,27.842-16.341S1589.471,833.951,1589.471,840.021Z" fill="#878303"/>
        <path d="M1579.133,828.26c2.1,2.252,3.3,4.535,3.3,6.413,0,6.072-12.466,5.646-27.841,5.646-8.262,0-15.66.113-20.76-.714-.012.139-.05.281-.05.416,0,6.072,12.464,6.093,27.842,6.093s28.5-.319,28.5-6.391C1590.129,836.271,1585.437,831.765,1579.133,828.26Z" fill="#605d03"/>
        <path d="M1560.739,826.314c.325.962-4.038,2.68-9.479,4.571s-9.892,3.232-10.216,2.27,3.6-3.868,9.038-5.759S1560.414,825.349,1560.739,826.314Z" fill="#a09a2d"/>
      </g>
      <g>
        <path d="M1690.771,830.757c0,4.085-8.386,3.8-18.731,3.8s-18.732.286-18.732-3.8,8.386-10.994,18.732-10.994S1690.771,826.674,1690.771,830.757Z" fill="#878303"/>
        <path d="M1683.816,822.843a6.966,6.966,0,0,1,2.223,4.315c0,4.085-8.386,3.8-18.732,3.8-5.557,0-10.533.076-13.965-.481-.009.1-.034.19-.034.281,0,4.085,8.386,4.1,18.732,4.1s19.175-.214,19.175-4.3C1691.215,828.234,1688.057,825.2,1683.816,822.843Z" fill="#605d03"/>
        <path d="M1671.441,821.536c.22.647-2.716,1.8-6.376,3.075s-6.656,2.174-6.873,1.527,2.42-2.6,6.08-3.875S1671.223,820.886,1671.441,821.536Z" fill="#a09a2d"/>
      </g>
      <g>
        <path d="M1521.947,836.922c0,4.085-8.384,3.8-18.73,3.8s-18.733.286-18.733-3.8,8.386-11,18.733-11S1521.947,832.838,1521.947,836.922Z" fill="#878303"/>
        <path d="M1514.992,829.008a6.961,6.961,0,0,1,2.223,4.314c0,4.086-8.386,3.8-18.73,3.8-5.559,0-10.537.075-13.967-.481-.009.094-.034.19-.034.281,0,4.085,8.386,4.1,18.731,4.1s19.176-.214,19.176-4.3C1522.391,834.4,1519.233,831.366,1514.992,829.008Z" fill="#605d03"/>
        <path d="M1502.617,827.7c.22.647-2.718,1.8-6.377,3.076s-6.655,2.173-6.874,1.527,2.422-2.6,6.082-3.875S1502.4,827.05,1502.617,827.7Z" fill="#a09a2d"/>
      </g>
      <g>
        <path d="M1540.9,849.122c0,4.086-8.385,3.8-18.731,3.8s-18.732.286-18.732-3.8,8.386-10.994,18.732-10.994S1540.9,845.039,1540.9,849.122Z" fill="#878303"/>
        <path d="M1533.946,841.209a6.966,6.966,0,0,1,2.223,4.314c0,4.085-8.386,3.8-18.731,3.8-5.558,0-10.537.075-13.967-.481-.008.094-.033.19-.033.28,0,4.086,8.386,4.1,18.73,4.1s19.177-.214,19.177-4.3C1541.345,846.6,1538.186,843.567,1533.946,841.209Z" fill="#605d03"/>
        <path d="M1521.571,839.9c.219.647-2.718,1.8-6.378,3.076s-6.654,2.173-6.874,1.526,2.423-2.6,6.083-3.875S1521.353,839.251,1521.571,839.9Z" fill="#a09a2d"/>
      </g>
    </g>
  </g>
  <g>
    <path d="M979.3,273.1c-179.28-7.934-309.577-.967-309.577-.967s226.561-55.192,251.249-55.192c0,0-53.155-47.134,98.85-65.225,28.109-93.908,285.3-12.806,203.095,70.159,24.686,1.892,65.17,1.933,96.131,21.263,0,0-132.185,1.933-161.991,11.6,0,0,59.191,43.726-187.039,37.927C938.874,291.93,1005.254,274.249,979.3,273.1Z" fill="#fff"/>
    <path d="M1157.055,254.736c29.528-9.575,159.529-11.561,161.953-11.6-116.384-21.8-314.6-5.011-343.395-2.248-30.232,2.9,49.325,12.564-4.774,12.564-44.6,0-234.87,13.688-300.279,18.493l-.839.186s130.3-6.967,309.577.967c25.956,1.149-40.424,18.83-9.282,19.563C1216.246,298.462,1157.055,254.736,1157.055,254.736Z" fill="#9fd0de"/>
  </g>
  <g>
    <path d="M1772.949,210.493c-125.031-5.533-215.9-.674-215.9-.674s130.4-28.984,147.622-28.984c0,0,.431-41.231,58.756-23.3-1.757-4.269,1.5-28.7,20.221-36.564,24.752-10.39,43.023,4.977,45.131,15.221,7.729-10.671,28.471-20.5,47.784-18.68,46.715,4.4,73.653,19.1,88.135,31.772,24.452,21.388-21.848,25.487-21.848,25.487s45.45,1.349,67.043,14.83c0,0-92.187,1.347-112.974,8.088,0,0,41.281,30.5-130.442,26.451C1744.757,223.626,1791.051,211.3,1772.949,210.493Z" fill="#fff"/>
    <path d="M1896.918,197.686c20.593-6.678,111.257-8.063,112.947-8.088-81.166-15.207-219.4-3.5-239.486-1.569-21.084,2.023,34.4,8.764-3.329,8.764-31.107,0-163.8,9.545-209.417,12.9l-.585.13s90.87-4.859,215.9.674c18.1.8-28.192,13.133-6.473,13.644C1938.2,228.181,1896.918,197.686,1896.918,197.686Z" fill="#9fd0de"/>
  </g>
  <g>
    <path d="M-147.051,210.493c-125.031-5.533-215.9-.674-215.9-.674s130.405-28.984,147.622-28.984c0,0,.431-41.231,58.756-23.3-1.757-4.269,1.5-28.7,20.221-36.564,24.752-10.39,43.023,4.977,45.131,15.221,7.729-10.671,28.471-20.5,47.784-18.68,46.715,4.4,73.653,19.1,88.135,31.772,24.452,21.388-21.848,25.487-21.848,25.487s45.45,1.349,67.043,14.83c0,0-92.187,1.347-112.974,8.088,0,0,41.281,30.5-130.442,26.451C-175.243,223.626-128.949,211.3-147.051,210.493Z" fill="#fff"/>
    <path d="M-23.082,197.686c20.593-6.678,111.257-8.063,112.947-8.088-81.166-15.207-219.4-3.5-239.486-1.569-21.084,2.023,34.4,8.764-3.329,8.764-31.107,0-163.8,9.545-209.417,12.9l-.585.13s90.87-4.859,215.9.674c18.1.8-28.192,13.133-6.473,13.644C18.2,228.181-23.082,197.686-23.082,197.686Z" fill="#9fd0de"/>
  </g>
  <g>
    <path d="M452.438,201.3c-125.031-5.534-215.9-.674-215.9-.674s130.405-28.985,147.623-28.985c0,0,.43-41.23,58.755-23.3-1.757-4.268,1.5-28.7,20.221-36.564,24.752-10.39,43.023,4.977,45.131,15.222,7.73-10.672,28.471-20.5,47.784-18.68,46.716,4.4,73.653,19.1,88.135,31.771,24.452,21.388-21.847,25.488-21.847,25.488s45.449,1.348,67.042,14.829c0,0-92.187,1.348-112.974,8.089,0,0,41.281,30.5-130.442,26.451C424.246,214.434,470.54,202.1,452.438,201.3Z" fill="#fff"/>
    <path d="M576.407,188.5c20.594-6.678,111.257-8.063,112.947-8.089-81.166-15.206-219.4-3.494-239.485-1.568-21.085,2.022,34.4,8.763-3.33,8.763-31.107,0-163.8,9.546-209.417,12.9l-.585.13s90.87-4.86,215.9.674c18.1.8-28.192,13.132-6.473,13.644C617.688,218.99,576.407,188.5,576.407,188.5Z" fill="#9fd0de"/>
  </g>
  <g>
    <g>
      <g>
        <polygon points="960.104 749.776 -3.574 749.776 -3.574 598.434 103.501 561.883 247.195 626.128 462.379 547.823 669.747 629.551 863.911 556.117 960.104 598.434 960.104 749.776" fill="#cece76"/>
        <path d="M462.379,547.823s-51.966,35.054-33.551,45.011S575.466,716.759,601.05,749.776H854.29S650.9,588.428,462.379,547.823Z" fill="#99a058"/>
      </g>
      <path d="M863.911,556.117s-7.958,45.3,5.334,55.254,59.409-22.894,90.859-12.937C960.1,598.434,902.237,568.356,863.911,556.117Z" fill="#99a058"/>
      <path d="M103.5,561.883s-10.755,8.983,6.343,17.674c23.261,11.825-8.213,65.54,26.007,69.243,28.514,3.085,111.344-22.672,111.344-22.672S141.383,569.143,103.5,561.883Z" fill="#99a058"/>
    </g>
    <g>
      <g>
        <polygon points="1923.783 749.776 960.104 749.776 960.104 598.434 1067.179 561.883 1210.874 626.128 1426.058 547.823 1633.425 629.551 1827.59 556.117 1923.783 598.434 1923.783 749.776" fill="#cece76"/>
        <path d="M1426.058,547.823s-51.966,35.054-33.552,45.011,146.638,123.925,172.222,156.942h253.24S1614.579,588.428,1426.058,547.823Z" fill="#99a058"/>
      </g>
      <path d="M1827.59,556.117s-7.959,45.3,5.333,55.254,60.013.289,90.86-12.937C1923.783,598.434,1865.915,568.356,1827.59,556.117Z" fill="#99a058"/>
      <path d="M1067.179,561.883s-10.755,8.983,6.343,17.674c23.261,11.825-8.212,65.54,26.008,69.243,28.513,3.085,111.344-22.672,111.344-22.672S1105.062,569.143,1067.179,561.883Z" fill="#99a058"/>
    </g>
  </g>
</svg>
