<?xml version="1.0" encoding="UTF-8" standalone="no"?>
<!DOCTYPE svg PUBLIC "-//W3C//DTD SVG 1.1//EN" "http://www.w3.org/Graphics/SVG/1.1/DTD/svg11.dtd">
<svg width="100%" height="100%" viewBox="0 0 1920 1080" version="1.1" xmlns="http://www.w3.org/2000/svg" xmlns:xlink="http://www.w3.org/1999/xlink" xml:space="preserve" xmlns:serif="http://www.serif.com/" style="fill-rule:evenodd;clip-rule:evenodd;stroke-linejoin:round;stroke-miterlimit:2;">
    <g>
        <rect x="-388.085" y="-15.416" width="2692.09" height="1036.26" style="fill:url(#_Linear1);"/>
        <path d="M2304,1020.84L-388.085,1020.84L-388.085,172L1.006,172C140.343,172 334.943,261.61 509.596,261.61C684.249,261.61 664.421,190.723 847.66,190.723C1030.9,190.723 1030.72,218.894 1183.5,218.894C1336.28,218.894 1757.17,172 1904.4,172L2304,172L2304,1020.84Z" style="fill:url(#_Linear2);fill-rule:nonzero;"/>
        <path d="M2304,1020.84L-388.085,1020.84L-388.085,279.263L64.1,279.263C200.808,279.263 418.977,349.403 598,349.403C777.023,349.403 835.367,298.755 917.1,274.468C998.833,250.181 1138.61,273.868 1376.79,273.868C1614.96,273.868 1723.37,279.259 1876.98,279.259L2304,279.259L2304,1020.84Z" style="fill:url(#_Linear3);fill-rule:nonzero;"/>
    </g>
    <path d="M2614.47,509.258L2360.89,384.55L2083,353.319L1853.16,472.991L1650.37,352.551L1390.34,337.715L1149.01,369.914L981.9,422.603L714.613,411.7L516.183,393.21L214.476,353.319L65.362,415.404L-55.149,482.809L-344.54,411.7L-516.766,509.258L-516.766,1053.4L2614.47,1053.4L2614.47,509.258Z" style="fill:rgb(213,242,247);fill-rule:nonzero;"/>
    <path d="M-902.727,569.785L-575.964,503.465L-242.199,586.876L-218.493,581.987L-194.495,466.988L-153.894,466.988L-102,557.964L-27.319,432.255L251.234,473.106L556.474,442.493L590.359,451.143L621.257,403.991L652.68,390.374L687.338,475.897L722.106,484.772L765.28,458.196L793.56,402.42L812.414,418.917L820.701,509.939L901.069,530.453L1143.66,530.453L1385.16,473.596L1467.1,467.344L1484.54,418.655L1510.53,397.183L1529.94,462.55L1624.12,455.365L1978.55,430.553L2171.3,458.941L2331.57,518.702L2660.65,473.596L2868.05,569.785L2868.05,1106.3L-902.727,1106.3L-902.727,569.785Z" style="fill:white;fill-rule:nonzero;"/>
    <g>
        <g transform="matrix(1,0,0,1.7517,0,-560.961)">
            <rect x="-2017.38" y="746.253" width="4148.56" height="187.825" style="fill:rgb(181,186,79);"/>
        </g>
        <g transform="matrix(1,0,0,1,0,129)">
            <path d="M2134.26,873.919L1760.85,873.919C1741.47,873.919 1752.6,864.573 1732.04,864.573C1718.83,864.573 1674.27,873.919 1660.59,873.919L1586.84,873.919C1568.36,873.919 1557.6,862.237 1538.44,862.237C1518.06,862.237 1489.24,873.919 1468.14,873.919L728.317,873.919C709.933,873.919 707.625,862.237 689.136,862.237C667.875,862.237 630.419,873.919 609.046,873.919L-282.03,873.919C-295.339,873.919 -310.809,922.58 -324.002,922.58C-339.06,922.58 -351.829,873.919 -366.73,873.919L-429.821,873.919C-447.621,873.919 -472.409,926.962 -489.942,926.962C-510.107,926.962 -522.974,873.919 -542.753,873.919L-1425.48,873.919C-1442.76,873.919 -1444.49,864.575 -1467.54,864.575C-1490.58,864.575 -1495.77,873.919 -1513.06,873.919L-2014.3,873.919L-2017.38,953.112L2131.18,953.112L2134.26,873.919Z" style="fill:rgb(102,102,0);fill-rule:nonzero;"/>
        </g>
        <g>
            <g transform="matrix(1,0,0,1,325.26,55.8139)">
                <path d="M538.067,837.45C538.067,843.523 525.602,843.098 510.224,843.098C494.846,843.098 482.381,843.523 482.381,837.45C482.381,831.377 494.847,821.11 510.224,821.11C525.601,821.11 538.067,831.38 538.067,837.45Z" style="fill:rgb(135,131,3);fill-rule:nonzero;"/>
                <path d="M527.729,825.689C529.829,827.942 531.029,830.225 531.029,832.102C531.029,838.174 518.562,837.748 503.188,837.748C494.926,837.748 487.527,837.861 482.428,837.035C482.416,837.173 482.377,837.315 482.377,837.45C482.377,843.523 494.842,843.543 510.22,843.543C525.598,843.543 538.72,843.225 538.72,837.153C538.725,833.7 534.032,829.194 527.729,825.689Z" style="fill:rgb(96,93,3);fill-rule:nonzero;"/>
                <path d="M509.334,823.744C509.66,824.705 505.296,826.424 499.856,828.315C494.416,830.206 489.964,831.546 489.64,830.584C489.316,829.622 493.24,826.716 498.678,824.825C504.116,822.934 509.01,822.778 509.334,823.744Z" style="fill:rgb(160,154,45);fill-rule:nonzero;"/>
            </g>
            <g transform="matrix(1,0,0,1,325.26,55.8139)">
                <path d="M565.94,817.011C565.94,821.096 557.554,820.811 547.209,820.811C536.864,820.811 528.477,821.097 528.477,817.011C528.477,812.925 536.863,806.017 547.209,806.017C557.555,806.017 565.94,812.927 565.94,817.011Z" style="fill:rgb(135,131,3);fill-rule:nonzero;"/>
                <path d="M558.985,809.1C560.219,810.225 561.008,811.757 561.208,813.415C561.208,817.5 552.822,817.215 542.476,817.215C536.919,817.215 531.942,817.29 528.511,816.734C528.502,816.828 528.477,816.924 528.477,817.015C528.477,821.1 536.863,821.115 547.209,821.115C557.555,821.115 566.384,820.901 566.384,816.815C566.384,814.488 563.225,811.456 558.985,809.1Z" style="fill:rgb(96,93,3);fill-rule:nonzero;"/>
                <path d="M546.61,807.79C546.829,808.437 543.894,809.59 540.234,810.865C536.574,812.14 533.578,813.039 533.36,812.392C533.142,811.745 535.781,809.792 539.441,808.517C543.101,807.242 546.392,807.139 546.61,807.79Z" style="fill:rgb(160,154,45);fill-rule:nonzero;"/>
            </g>
            <g transform="matrix(1,0,0,1,325.26,55.8139)">
                <path d="M663.59,833.394C663.59,837.48 655.204,837.194 644.86,837.194C634.516,837.194 626.127,837.48 626.127,833.394C626.127,829.308 634.514,822.4 644.86,822.4C655.206,822.4 663.59,829.311 663.59,833.394Z" style="fill:rgb(135,131,3);fill-rule:nonzero;"/>
                <path d="M656.636,825.481C657.87,826.606 658.659,828.137 658.859,829.795C658.859,833.88 650.473,833.595 640.126,833.595C634.569,833.595 629.593,833.67 626.161,833.114C626.153,833.208 626.127,833.304 626.127,833.394C626.127,837.48 634.514,837.494 644.86,837.494C655.206,837.494 664.034,837.28 664.034,833.194C664.034,830.872 660.876,827.839 656.636,825.481Z" style="fill:rgb(96,93,3);fill-rule:nonzero;"/>
                <path d="M644.26,824.173C644.48,824.82 641.544,825.973 637.885,827.249C634.226,828.525 631.229,829.422 631.011,828.775C630.793,828.128 633.432,826.175 637.091,824.9C640.75,823.625 644.043,823.523 644.26,824.173Z" style="fill:rgb(160,154,45);fill-rule:nonzero;"/>
            </g>
            <g transform="matrix(1,0,0,1,325.26,55.8139)">
                <path d="M704.207,845.6C704.207,849.685 695.82,849.4 685.476,849.4C675.132,849.4 666.744,849.686 666.744,845.6C666.744,841.514 675.13,834.6 685.476,834.6C695.822,834.6 704.207,841.512 704.207,845.6Z" style="fill:rgb(135,131,3);fill-rule:nonzero;"/>
                <path d="M697.252,837.681C698.487,838.807 699.276,840.341 699.475,842C699.475,846.085 691.089,845.8 680.743,845.8C675.186,845.8 670.209,845.876 666.777,845.319C666.769,845.419 666.744,845.509 666.744,845.6C666.744,849.685 675.13,849.7 685.476,849.7C695.822,849.7 704.651,849.486 704.651,845.4C704.651,843.072 701.492,840.04 697.252,837.681Z" style="fill:rgb(96,93,3);fill-rule:nonzero;"/>
                <path d="M684.877,836.374C685.096,837.021 682.161,838.174 678.501,839.449C674.841,840.724 671.845,841.623 671.627,840.976C671.409,840.329 674.048,838.376 677.708,837.101C681.368,835.826 684.659,835.724 684.877,836.374Z" style="fill:rgb(160,154,45);fill-rule:nonzero;"/>
            </g>
            <g transform="matrix(1,0,0,1,325.26,55.8139)">
                <path d="M470.543,834.351C470.543,838.436 462.158,838.151 451.812,838.151C441.466,838.151 433.08,838.437 433.08,834.351C433.08,830.265 441.466,823.357 451.812,823.357C462.158,823.357 470.543,830.267 470.543,834.351Z" style="fill:rgb(135,131,3);fill-rule:nonzero;"/>
                <path d="M463.588,826.437C464.822,827.562 465.611,829.094 465.811,830.752C465.811,834.837 457.425,834.552 447.081,834.552C441.522,834.552 436.544,834.628 433.114,834.071C433.105,834.166 433.08,834.261 433.08,834.352C433.08,838.437 441.466,838.452 451.811,838.452C462.156,838.452 470.987,838.238 470.987,834.152C470.987,831.828 467.829,828.8 463.588,826.437Z" style="fill:rgb(96,93,3);fill-rule:nonzero;"/>
                <path d="M451.213,825.13C451.432,825.777 448.495,826.93 444.835,828.205C441.175,829.48 438.181,830.379 437.962,829.732C437.743,829.085 440.384,827.132 444.044,825.857C447.704,824.582 451,824.48 451.213,825.13Z" style="fill:rgb(160,154,45);fill-rule:nonzero;"/>
            </g>
            <g transform="matrix(1,0,0,1,325.26,55.8139)">
                <path d="M489.5,846.552C489.5,850.637 481.116,850.352 470.77,850.352C460.424,850.352 452.037,850.638 452.037,846.552C452.037,842.466 460.424,835.558 470.77,835.558C481.116,835.558 489.5,842.468 489.5,846.552Z" style="fill:rgb(135,131,3);fill-rule:nonzero;"/>
                <path d="M482.542,838.638C483.776,839.763 484.565,841.295 484.765,842.953C484.765,847.038 476.379,846.753 466.034,846.753C460.475,846.753 455.497,846.828 452.067,846.272C452.059,846.366 452.033,846.462 452.033,846.553C452.033,850.638 460.42,850.653 470.764,850.653C481.108,850.653 489.94,850.439 489.94,846.353C489.94,844.029 486.782,841 482.542,838.638Z" style="fill:rgb(96,93,3);fill-rule:nonzero;"/>
                <path d="M470.166,837.331C470.386,837.977 467.449,839.131 463.789,840.406C460.129,841.681 457.135,842.58 456.915,841.933C456.695,841.286 459.338,839.333 462.997,838.058C466.656,836.783 469.949,836.68 470.166,837.331Z" style="fill:rgb(160,154,45);fill-rule:nonzero;"/>
            </g>
            <g>
                <path d="M1589.47,840.021C1589.47,846.093 1577.01,845.669 1561.63,845.669C1546.25,845.669 1533.79,846.093 1533.79,840.021C1533.79,833.949 1546.25,823.68 1561.63,823.68C1577,823.68 1589.47,833.951 1589.47,840.021Z" style="fill:rgb(135,131,3);fill-rule:nonzero;"/>
                <path d="M1579.13,828.26C1581.23,830.512 1582.43,832.795 1582.43,834.673C1582.43,840.745 1569.97,840.319 1554.59,840.319C1546.33,840.319 1538.93,840.432 1533.83,839.605C1533.82,839.744 1533.78,839.886 1533.78,840.021C1533.78,846.093 1546.25,846.114 1561.62,846.114C1577,846.114 1590.12,845.795 1590.12,839.723C1590.13,836.271 1585.44,831.765 1579.13,828.26Z" style="fill:rgb(96,93,3);fill-rule:nonzero;"/>
                <path d="M1560.74,826.314C1561.06,827.276 1556.7,828.994 1551.26,830.885C1545.82,832.776 1541.37,834.117 1541.04,833.155C1540.72,832.193 1544.64,829.287 1550.08,827.396C1555.52,825.505 1560.41,825.349 1560.74,826.314Z" style="fill:rgb(160,154,45);fill-rule:nonzero;"/>
            </g>
            <g>
                <path d="M1690.77,830.757C1690.77,834.842 1682.38,834.557 1672.04,834.557C1661.69,834.557 1653.31,834.843 1653.31,830.757C1653.31,826.671 1661.69,819.763 1672.04,819.763C1682.39,819.763 1690.77,826.674 1690.77,830.757Z" style="fill:rgb(135,131,3);fill-rule:nonzero;"/>
                <path d="M1683.82,822.843C1685.05,823.968 1685.84,825.5 1686.04,827.158C1686.04,831.243 1677.65,830.958 1667.31,830.958C1661.75,830.958 1656.77,831.034 1653.34,830.477C1653.33,830.577 1653.31,830.667 1653.31,830.758C1653.31,834.843 1661.69,834.858 1672.04,834.858C1682.39,834.858 1691.22,834.644 1691.22,830.558C1691.22,828.234 1688.06,825.2 1683.82,822.843Z" style="fill:rgb(96,93,3);fill-rule:nonzero;"/>
                <path d="M1671.44,821.536C1671.66,822.183 1668.73,823.336 1665.07,824.611C1661.4,825.886 1658.41,826.785 1658.19,826.138C1657.98,825.491 1660.61,823.538 1664.27,822.263C1667.93,820.988 1671.22,820.886 1671.44,821.536Z" style="fill:rgb(160,154,45);fill-rule:nonzero;"/>
            </g>
            <g>
                <path d="M1521.95,836.922C1521.95,841.007 1513.56,840.722 1503.22,840.722C1492.87,840.722 1484.48,841.008 1484.48,836.922C1484.48,832.836 1492.87,825.922 1503.22,825.922C1513.56,825.922 1521.95,832.838 1521.95,836.922Z" style="fill:rgb(135,131,3);fill-rule:nonzero;"/>
                <path d="M1514.99,829.008C1516.23,830.132 1517.02,831.664 1517.21,833.322C1517.21,837.408 1508.83,837.122 1498.49,837.122C1492.93,837.122 1487.95,837.197 1484.52,836.641C1484.51,836.735 1484.48,836.831 1484.48,836.922C1484.48,841.007 1492.87,841.022 1503.21,841.022C1513.56,841.022 1522.39,840.808 1522.39,836.722C1522.39,834.4 1519.23,831.366 1514.99,829.008Z" style="fill:rgb(96,93,3);fill-rule:nonzero;"/>
                <path d="M1502.62,827.7C1502.84,828.347 1499.9,829.5 1496.24,830.776C1492.58,832.052 1489.59,832.949 1489.37,832.303C1489.15,831.657 1491.79,829.703 1495.45,828.428C1499.11,827.153 1502.4,827.05 1502.62,827.7Z" style="fill:rgb(160,154,45);fill-rule:nonzero;"/>
            </g>
            <g>
                <path d="M1540.9,849.122C1540.9,853.208 1532.52,852.922 1522.17,852.922C1511.82,852.922 1503.44,853.208 1503.44,849.122C1503.44,845.036 1511.82,838.128 1522.17,838.128C1532.52,838.128 1540.9,845.039 1540.9,849.122Z" style="fill:rgb(135,131,3);fill-rule:nonzero;"/>
                <path d="M1533.95,841.209C1535.18,842.334 1535.97,843.865 1536.17,845.523C1536.17,849.608 1527.78,849.323 1517.44,849.323C1511.88,849.323 1506.9,849.398 1503.47,848.842C1503.46,848.936 1503.44,849.032 1503.44,849.122C1503.44,853.208 1511.82,853.222 1522.17,853.222C1532.51,853.222 1541.35,853.008 1541.35,848.922C1541.35,846.6 1538.19,843.567 1533.95,841.209Z" style="fill:rgb(96,93,3);fill-rule:nonzero;"/>
                <path d="M1521.57,839.9C1521.79,840.547 1518.85,841.7 1515.19,842.976C1511.53,844.252 1508.54,845.149 1508.32,844.502C1508.1,843.855 1510.74,841.902 1514.4,840.627C1518.06,839.352 1521.35,839.251 1521.57,839.9Z" style="fill:rgb(160,154,45);fill-rule:nonzero;"/>
            </g>
            <g transform="matrix(1,0,0,1,-1198.07,-21.6519)">
                <path d="M1589.47,840.021C1589.47,846.093 1577.01,845.669 1561.63,845.669C1546.25,845.669 1533.79,846.093 1533.79,840.021C1533.79,833.949 1546.25,823.68 1561.63,823.68C1577,823.68 1589.47,833.951 1589.47,840.021Z" style="fill:rgb(135,131,3);fill-rule:nonzero;"/>
                <path d="M1579.13,828.26C1581.23,830.512 1582.43,832.795 1582.43,834.673C1582.43,840.745 1569.97,840.319 1554.59,840.319C1546.33,840.319 1538.93,840.432 1533.83,839.605C1533.82,839.744 1533.78,839.886 1533.78,840.021C1533.78,846.093 1546.25,846.114 1561.62,846.114C1577,846.114 1590.12,845.795 1590.12,839.723C1590.13,836.271 1585.44,831.765 1579.13,828.26Z" style="fill:rgb(96,93,3);fill-rule:nonzero;"/>
                <path d="M1560.74,826.314C1561.06,827.276 1556.7,828.994 1551.26,830.885C1545.82,832.776 1541.37,834.117 1541.04,833.155C1540.72,832.193 1544.64,829.287 1550.08,827.396C1555.52,825.505 1560.41,825.349 1560.74,826.314Z" style="fill:rgb(160,154,45);fill-rule:nonzero;"/>
            </g>
            <g transform="matrix(1,0,0,1,-1198.07,-21.6519)">
                <path d="M1690.77,830.757C1690.77,834.842 1682.38,834.557 1672.04,834.557C1661.69,834.557 1653.31,834.843 1653.31,830.757C1653.31,826.671 1661.69,819.763 1672.04,819.763C1682.39,819.763 1690.77,826.674 1690.77,830.757Z" style="fill:rgb(135,131,3);fill-rule:nonzero;"/>
                <path d="M1683.82,822.843C1685.05,823.968 1685.84,825.5 1686.04,827.158C1686.04,831.243 1677.65,830.958 1667.31,830.958C1661.75,830.958 1656.77,831.034 1653.34,830.477C1653.33,830.577 1653.31,830.667 1653.31,830.758C1653.31,834.843 1661.69,834.858 1672.04,834.858C1682.39,834.858 1691.22,834.644 1691.22,830.558C1691.22,828.234 1688.06,825.2 1683.82,822.843Z" style="fill:rgb(96,93,3);fill-rule:nonzero;"/>
                <path d="M1671.44,821.536C1671.66,822.183 1668.73,823.336 1665.07,824.611C1661.4,825.886 1658.41,826.785 1658.19,826.138C1657.98,825.491 1660.61,823.538 1664.27,822.263C1667.93,820.988 1671.22,820.886 1671.44,821.536Z" style="fill:rgb(160,154,45);fill-rule:nonzero;"/>
            </g>
        </g>
    </g>
    <g>
        <path d="M979.3,273.1C800.02,265.166 669.723,272.133 669.723,272.133C669.723,272.133 896.284,216.941 920.972,216.941C920.972,216.941 867.817,169.807 1019.82,151.716C1047.93,57.808 1305.12,138.91 1222.92,221.875C1247.6,223.767 1288.09,223.808 1319.05,243.138C1319.05,243.138 1186.86,245.071 1157.06,254.738C1157.06,254.738 1216.25,298.464 970.018,292.665C938.874,291.93 1005.25,274.249 979.3,273.1Z" style="fill:white;fill-rule:nonzero;"/>
        <path d="M1157.06,254.736C1186.58,245.161 1316.58,243.175 1319.01,243.136C1202.62,221.336 1004.41,238.125 975.613,240.888C945.381,243.788 1024.94,253.452 970.839,253.452C926.239,253.452 735.969,267.14 670.56,271.945L669.721,272.131C669.721,272.131 800.021,265.164 979.298,273.098C1005.25,274.247 938.874,291.928 970.016,292.661C1216.25,298.462 1157.06,254.736 1157.06,254.736Z" style="fill:rgb(159,208,222);fill-rule:nonzero;"/>
    </g>
    <g>
        <path d="M1772.95,210.493C1647.92,204.96 1557.05,209.819 1557.05,209.819C1557.05,209.819 1687.45,180.835 1704.67,180.835C1704.67,180.835 1705.1,139.604 1763.43,157.535C1761.67,153.266 1764.93,128.835 1783.65,120.971C1808.4,110.581 1826.67,125.948 1828.78,136.192C1836.51,125.521 1857.25,115.692 1876.56,117.512C1923.28,121.912 1950.22,136.612 1964.7,149.284C1989.15,170.672 1942.85,174.771 1942.85,174.771C1942.85,174.771 1988.3,176.12 2009.89,189.601C2009.89,189.601 1917.71,190.948 1896.92,197.689C1896.92,197.689 1938.2,228.189 1766.48,224.14C1744.76,223.626 1791.05,211.3 1772.95,210.493Z" style="fill:white;fill-rule:nonzero;"/>
        <path d="M1896.92,197.686C1917.51,191.008 2008.17,189.623 2009.87,189.598C1928.7,174.391 1790.47,186.098 1770.38,188.029C1749.3,190.052 1804.78,196.793 1767.05,196.793C1735.94,196.793 1603.25,206.338 1557.63,209.693L1557.05,209.823C1557.05,209.823 1647.92,204.964 1772.95,210.497C1791.05,211.297 1744.76,223.63 1766.48,224.141C1938.2,228.181 1896.92,197.686 1896.92,197.686Z" style="fill:rgb(159,208,222);fill-rule:nonzero;"/>
    </g>
    <g>
        <path d="M-147.051,210.493C-272.082,204.96 -362.951,209.819 -362.951,209.819C-362.951,209.819 -232.546,180.835 -215.329,180.835C-215.329,180.835 -214.898,139.604 -156.573,157.535C-158.33,153.266 -155.073,128.835 -136.352,120.971C-111.6,110.581 -93.329,125.948 -91.221,136.192C-83.492,125.521 -62.75,115.692 -43.437,117.512C3.278,121.912 30.216,136.612 44.698,149.284C69.15,170.672 22.85,174.771 22.85,174.771C22.85,174.771 68.3,176.12 89.893,189.601C89.893,189.601 -2.294,190.948 -23.081,197.689C-23.081,197.689 18.2,228.189 -153.523,224.14C-175.243,223.626 -128.949,211.3 -147.051,210.493Z" style="fill:white;fill-rule:nonzero;"/>
        <path d="M-23.082,197.686C-2.489,191.008 88.175,189.623 89.865,189.598C8.699,174.391 -129.535,186.098 -149.621,188.029C-170.705,190.052 -115.221,196.793 -152.95,196.793C-184.057,196.793 -316.75,206.338 -362.367,209.693L-362.952,209.823C-362.952,209.823 -272.082,204.964 -147.052,210.497C-128.952,211.297 -175.244,223.63 -153.525,224.141C18.2,228.181 -23.082,197.686 -23.082,197.686Z" style="fill:rgb(159,208,222);fill-rule:nonzero;"/>
    </g>
    <g>
        <path d="M452.438,201.3C327.407,195.766 236.538,200.626 236.538,200.626C236.538,200.626 366.943,171.641 384.161,171.641C384.161,171.641 384.591,130.411 442.916,148.341C441.159,144.073 444.416,119.641 463.137,111.777C487.889,101.387 506.16,116.754 508.268,126.999C515.998,116.327 536.739,106.499 556.052,108.319C602.768,112.719 629.705,127.419 644.187,140.09C668.639,161.478 622.34,165.578 622.34,165.578C622.34,165.578 667.789,166.926 689.382,180.407C689.382,180.407 597.195,181.755 576.408,188.496C576.408,188.496 617.689,218.996 445.966,214.947C424.246,214.434 470.54,202.1 452.438,201.3Z" style="fill:white;fill-rule:nonzero;"/>
        <path d="M576.407,188.5C597.001,181.822 687.664,180.437 689.354,180.411C608.188,165.205 469.954,176.917 449.869,178.843C428.784,180.865 484.269,187.606 446.539,187.606C415.432,187.606 282.739,197.152 237.122,200.506L236.537,200.636C236.537,200.636 327.407,195.776 452.437,201.31C470.537,202.11 424.245,214.442 445.964,214.954C617.688,218.99 576.407,188.5 576.407,188.5Z" style="fill:rgb(159,208,222);fill-rule:nonzero;"/>
    </g>
    <g>
        <g>
            <g>
                <path d="M960.104,749.776L-3.574,749.776L-3.574,598.434L103.501,561.883L247.195,626.128L462.379,547.823L669.747,629.551L863.911,556.117L960.104,598.434L960.104,749.776Z" style="fill:rgb(206,206,118);fill-rule:nonzero;"/>
                <path d="M462.379,547.823C462.379,547.823 410.413,582.877 428.828,592.834C447.243,602.791 575.466,716.759 601.05,749.776L854.29,749.776C854.29,749.776 650.9,588.428 462.379,547.823Z" style="fill:rgb(153,160,88);fill-rule:nonzero;"/>
            </g>
            <path d="M863.911,556.117C863.911,556.117 855.953,601.417 869.245,611.371C882.537,621.325 928.654,588.477 960.104,598.434C960.1,598.434 902.237,568.356 863.911,556.117Z" style="fill:rgb(153,160,88);fill-rule:nonzero;"/>
            <path d="M103.5,561.883C103.5,561.883 92.745,570.866 109.843,579.557C133.104,591.382 101.63,645.097 135.85,648.8C164.364,651.885 247.194,626.128 247.194,626.128C247.194,626.128 141.383,569.143 103.5,561.883Z" style="fill:rgb(153,160,88);fill-rule:nonzero;"/>
        </g>
        <g>
            <g>
                <g transform="matrix(1.00799,0,0,1,-15.3684,0)">
                    <path d="M1923.78,749.776L960.104,749.776L960.104,598.434L1067.18,561.883L1210.87,626.128L1426.06,547.823L1633.42,629.551L1827.59,556.117L1923.78,598.434L1923.78,749.776Z" style="fill:rgb(206,206,118);fill-rule:nonzero;"/>
                </g>
                <g transform="matrix(1.00799,0,0,1,-15.3684,0)">
                    <path d="M1426.06,547.823C1426.06,547.823 1374.09,582.877 1392.51,592.834C1410.92,602.791 1539.14,716.759 1564.73,749.776L1817.97,749.776C1817.97,749.776 1614.58,588.428 1426.06,547.823Z" style="fill:rgb(153,160,88);fill-rule:nonzero;"/>
                </g>
            </g>
            <g transform="matrix(1.00799,0,0,1,-15.3684,0)">
                <path d="M1827.59,556.117C1827.59,556.117 1819.63,601.417 1832.92,611.371C1846.22,621.325 1892.94,611.66 1923.78,598.434C1923.78,598.434 1865.91,568.356 1827.59,556.117Z" style="fill:rgb(153,160,88);fill-rule:nonzero;"/>
            </g>
            <g transform="matrix(1.00799,0,0,1,-15.3684,0)">
                <path d="M1067.18,561.883C1067.18,561.883 1056.42,570.866 1073.52,579.557C1096.78,591.382 1065.31,645.097 1099.53,648.8C1128.04,651.885 1210.87,626.128 1210.87,626.128C1210.87,626.128 1105.06,569.143 1067.18,561.883Z" style="fill:rgb(153,160,88);fill-rule:nonzero;"/>
            </g>
        </g>
    </g>
    <defs>
        <linearGradient id="_Linear1" x1="0" y1="0" x2="1" y2="0" gradientUnits="userSpaceOnUse" gradientTransform="matrix(6.34523e-14,1036.26,-1036.26,6.34523e-14,957.957,-15.416)"><stop offset="0" style="stop-color:rgb(205,247,250);stop-opacity:1"/><stop offset="0.3" style="stop-color:rgb(201,244,248);stop-opacity:1"/><stop offset="0.6" style="stop-color:rgb(189,236,241);stop-opacity:1"/><stop offset="0.89" style="stop-color:rgb(169,221,229);stop-opacity:1"/><stop offset="1" style="stop-color:rgb(160,215,224);stop-opacity:1"/></linearGradient>
        <linearGradient id="_Linear2" x1="0" y1="0" x2="1" y2="0" gradientUnits="userSpaceOnUse" gradientTransform="matrix(5.19764e-14,848.839,-848.839,5.19764e-14,957.957,172)"><stop offset="0" style="stop-color:rgb(197,241,242);stop-opacity:1"/><stop offset="0.3" style="stop-color:rgb(193,237,239);stop-opacity:1"/><stop offset="0.6" style="stop-color:rgb(181,226,228);stop-opacity:1"/><stop offset="0.89" style="stop-color:rgb(161,207,212);stop-opacity:1"/><stop offset="1" style="stop-color:rgb(152,199,204);stop-opacity:1"/></linearGradient>
        <linearGradient id="_Linear3" x1="0" y1="0" x2="1" y2="0" gradientUnits="userSpaceOnUse" gradientTransform="matrix(4.63724e-14,757.319,-757.319,4.63724e-14,957.957,263.52)"><stop offset="0" style="stop-color:rgb(183,229,234);stop-opacity:1"/><stop offset="0.25" style="stop-color:rgb(179,226,230);stop-opacity:1"/><stop offset="0.51" style="stop-color:rgb(168,216,218);stop-opacity:1"/><stop offset="0.76" style="stop-color:rgb(149,199,198);stop-opacity:1"/><stop offset="1" style="stop-color:rgb(124,177,172);stop-opacity:1"/></linearGradient>
    </defs>
</svg>
