<svg xmlns="http://www.w3.org/2000/svg" xmlns:xlink="http://www.w3.org/1999/xlink" width="2560" height="1600" viewBox="0 0 2560 1600">
  <defs>
    <linearGradient id="a" x1="-1238.785" y1="782.091" x2="4112.704" y2="782.091" gradientUnits="userSpaceOnUse">
      <stop offset="0" stop-color="#cdf7fa"/>
      <stop offset="0.298" stop-color="#c9f4f8"/>
      <stop offset="0.597" stop-color="#bdecf1"/>
      <stop offset="0.894" stop-color="#a9dde5"/>
      <stop offset="1" stop-color="#a0d7e0"/>
    </linearGradient>
    <linearGradient id="b" data-name="Unbenannter Verlauf 833" x1="-1238.785" y1="909.084" x2="4112.704" y2="909.084" gradientUnits="userSpaceOnUse">
      <stop offset="0" stop-color="#c5f1f2"/>
      <stop offset="0.298" stop-color="#c1edef"/>
      <stop offset="0.597" stop-color="#b5e2e4"/>
      <stop offset="0.894" stop-color="#a1cfd4"/>
      <stop offset="1" stop-color="#98c7cc"/>
    </linearGradient>
    <linearGradient id="c" data-name="Unbenannter Verlauf 905" x1="-1238.785" y1="974.875" x2="4112.704" y2="974.875" gradientUnits="userSpaceOnUse">
      <stop offset="0" stop-color="#b7e5ea"/>
      <stop offset="0.254" stop-color="#b3e2e6"/>
      <stop offset="0.508" stop-color="#a8d8da"/>
      <stop offset="0.762" stop-color="#95c7c6"/>
      <stop offset="1" stop-color="#7cb1ac"/>
    </linearGradient>
  </defs>
  <g>
    <rect x="-1238.785" y="-20.633" width="5351.489" height="1605.447" fill="url(#a)"/>
    <path d="M4112.7,1584.814H-1238.785V269.727h773.46c276.982,0,408.317,89.273,755.5,89.273s141.3-125.646,505.55-125.646S1581.6,342.379,1885.3,342.379s1140.386-72.652,1433.045-72.652H4112.7Z" fill="url(#b)"/>
    <path d="M4112.7,1584.814H-1238.785V435.908H-339.9c271.757,0,519.448,76.378,875.321,76.378S905.765,411.667,1068.248,374.04s727.84,53.515,1201.3,53.515,688.967,8.353,994.3,8.353H4112.7Z" fill="url(#c)"/>
  </g>
  <polygon points="4105.872 777.79 3672.497 587.796 3197.552 540.215 2804.746 722.538 2458.155 539.045 2013.761 516.443 1601.308 565.498 1315.704 645.77 858.893 629.159 519.763 600.989 4.124 540.215 -256.787 606.513 -484.249 698.857 -951.272 629.159 -1245.617 777.79 -1245.617 1606.809 4105.872 1606.809 4105.872 777.79" fill="#d5f2f7"/>
  <polygon points="-1448.426 884.399 -950.596 783.359 -442.098 910.437 -405.981 902.99 -369.42 727.787 -307.563 727.787 -228.503 866.39 -51.661 829.923 295.717 650.155 774.696 690.468 826.32 703.646 873.395 631.809 921.268 611.064 974.07 741.36 1027.039 754.88 1092.816 714.391 1135.902 629.415 1164.626 654.549 1177.251 793.223 1299.693 824.476 1669.283 824.476 2037.224 737.853 2162.055 728.329 2188.62 654.15 2228.221 621.437 2257.796 721.025 2401.281 710.078 2954.822 650.155 3234.912 715.526 3479.093 806.574 3980.445 737.853 4296.426 884.399 4296.426 1701.787 -1448.426 1701.787 -1448.426 884.399" fill="#fff"/>
  <path d="M4049.675,999.4s-83.613,22.882-100.813,7.626c-5.122-4.542-13.684-7.95-23.7-10.528l-40.417-50.552,17.988-45.144-17.607-7.014-14,35.128-10.505-13.139-14.8,11.837,17.238,21.557-16.025,40.215c-11.667,3.567-13.126,15.534-21.44,17.64-10.031,2.543-86.957-2.541-86.957-2.541l-56.949-16.1V925.662l-33.8-7.628s-33-5.085-39.786-12.713c-2.478-2.787-3.146-7.947-3-13.378.05-1.8-25.44-6.47-25.246-8.255.392-3.591,26.633-4.155,27.164-6.732.586-2.844,1.078-4.688,1.078-4.688s36.885-22.884,36.792-33.054c-.059-6.356,2.208-22.37,2.208-22.37l-21.162-9.155,3.369-25.82-21.207-3.678-37.906,4.918-26.758,12.713-5.476,15.423,13.379,20.341v55.936s-36.79,15.256-53.513,22.884,0,20.34,0,20.34,0,7.63,13.379,10.172-10.034,53.395-13.379,66.107-23.411,7.628-36.789,5.085-23.411-2.542-46.824-15.411,0-7.471,0-8.314-10.034-29.668-10.034-29.668h-73.578s-56.858,10.169-120.4,15.255-30.1,22.727-30.1,22.727,3.342,28.125,0,35.753-16.724,7.628-33.447,5.084c0,0-43.479-10.171-60.2-12.712s-16.723,7.628-26.757,10.169-26.756,7.63-26.756,7.63-26.755-2.543-43.479-12.714-20.068-15.256-20.068-15.256-26.755-12.712-36.789-17.954-43.479-8.314-43.479-8.314l-26.755-47.467-40.831-40.681-32.632-5.087s-180.72,17.8-200.788,17.8H2464.377l-30.1,5.085L2420.9,928.205l-13.379,22.884-130.436,10.169h-63.71c-23.576,0-16.558,10.171-16.558,10.171l-13.544,25.27-23.347-2.419-22.472-51.019,14.132-35.468-17.608-7.014-7.238,18.163-1.308-2.972-17.344,7.641,8.816,20.018L2103,978.523V963.8l-63.375-30.511-90.481,4.078v-33.9l-141.2,24.774-3.609-13.416,13.2,1.148,1.642-18.882-20.077-1.746-1.92-7.136,6.336-15.592-11.821-4.805-3.628-13.488-18.3,4.921,7.46,27.734-2.537,6.241-60.883-5.3L1732.227,843l-17.536-7.193-19.917,48.554-4.747-8.937-16.739,8.889,12.135,22.844-15.238,37.147c-22.1-7.46-43.564-15.674-59.686-23.89-53.232-27.121,0-10.171,0-10.171V886.514s-13.662-13.561-31.5-13.561h-17.838l-31.218,40.682-90.624-6.781-38.7,37.295,10.447,10.171c10.448,10.172-7.566,42.379-7.566,42.379l-30.836,18.646-61.392-26.96,24.512-37.455V937.368l-66.715,6.781-32.948,20.343-7.794-16.953-130.959,16.953-22.3,32.207-35.394,52.548s-53.8,37.295-67.176,44.076-30.892,3.39-30.892,3.39L902.872,1067.9s42.867-11.868,38.408-22.039,0-20.34,0-20.34V996.7H876.448l-163.376,22.037s-12.51,4.947-30.533,11.706l-24.475-21.984L669.011,998.2,656.052,984.37l-12.14,11.376-25.791-23.167-12.665,14.1,24.576,22.076-24.413,22.875-25-22.457-12.664,14.1,23.785,21.365-23.949,22.44a46.924,46.924,0,0,1-9.962.819L514.7,1045.857v-27.121l43.126-10.171-21.563-20.18V950.93l-56.876-1.344-28.719-45.8L472.8,849.833l-17.534-7.193-19.032,46.394L423.9,896.77l5.537,8.832-17.391,42.392-19.3-.455L346.58,967.882H303.561L266.4,954.32l-47.569-20.342L30.909,964.492s1.238,12.413,1.879,27.018l-45.871,7.513,8.993-20.748-17.389-7.538-13.839,31.929-48.9,8.009,10.357-23.894-17.389-7.539-15.2,35.076-49.084,8.039-.234-.231L-186.993,996.7l-147.119,25.427s-40.183,50.854-38.971,61.025-108.426,23.733-108.426,23.733l-87.5-10.171,15.214-54.246-69.123-33.9L-672.8,957.711h49.886V913.635l-149.767-40.682h-110l-97.87,44.073,5.621,40.685v88.146l-63.834,74.587h-197.657V1678.15h5351.49V1120.444ZM-44.28,1023.337l-18.538,42.769-6.569,1.79h-39.639l15.842-36.55Zm-71.139,11.652-8.159,18.825-15.235-14.993ZM-.948,1049.247-39.4,1059.723l17.351-40.027,55.182-9.039c-.123,8.708-.734,16.647-2.229,21.64C25.832,1049.247-.948,1049.247-.948,1049.247ZM441.824,925.353l14.859,23.7-24.345-.577Zm202.359,96.111,18.259,16.4c-11.4,4.149-23.73,8.512-35.861,12.593l-6.809-6.117Zm1141.184-104.2,3.835,14.259-10.367,1.82Zm-47.9,47.475L1706.426,906.3l60.792,5.292L1744.8,966.75Q1741.28,965.792,1737.47,964.74Zm-40.488-35.821,15.19,28.6c-7.728-2.28-15.78-4.73-23.925-7.308Zm66.29,42.723,11.948-29.405V974.66S1770.782,973.58,1763.272,971.642Zm374.953,20.391-19.407-2.01,8.8-22.076Zm1758.638-.582c-10.555-1.276-20.874-2.025-29.258-2.5l9.07-22.755Z" fill="#dfe9f7"/>
  <g>
    <g>
      <path d="M288.272,913.511c-16.546-36.214-7.132-113.279-7.357-168.594-.063-15.259-10.126-34.879-23.97-54.688-16.717-31.686-44.708-63.992-76.761-80.426h0c-15.825-10.263-29.948-14.28-38.678-7.984-16.785,12.1-21.237,57.892-24.817,104.991-.861,11.329-17.965,38.013-18.884,49.042-.079.948-.138,1.875-.185,2.785h0c-7.173,12.155,5.975,42.128,6.267,42.792a23.167,23.167,0,0,1-1.85,9.354c-5,11.955-12.915,26.108-20.334,40.933-8.739,17.463-9.874,32.607-10.289,48.79-3.626,15.288,13.761,68.025,13.761,68.025-5.981,47.119-30.739,61.46-42.323,84a6.617,6.617,0,0,0-.675,3.286c-.451,17.194,8.875,38.773,9.091,39.267-.089,1.093-.2,2.2-.376,3.337-2.769,18.279-25.04,44.873-26.981,61.932-2.7,23.752-4.372,41.853-4.372,41.853h285.9c0-83.062-22.238-115.751-22.6-148.529S304.817,949.725,288.272,913.511Z" fill="#d3ddd0"/>
      <path d="M425.464,692.328l0,0c-11.438,2.22-24.5,14.48-37.4,33.212-7.057,10.245.895,23.472-4.079,43.7-5.809,23.629-17.069,52.665-20.429,81.652a55.088,55.088,0,0,0,.1,16.3c-.156,2.7,1.843,11.245,4.123,14.941,2.485,4.031,2.71,11.064,2.719,13.169,0,.15,0,.3,0,.45v.037q-.017,1.512-.11,3.187c-1.169,20.543-19.564,67.647-15.83,82.39h0c-.54,7.883,4.838,13.259,6.778,20.845q.444,2.345.665,4.485c.22,5.542-1.769,15.894-1.783,15.965-4.606,11.856-15.889,17.2-21.5,26.231a5.58,5.58,0,0,0-.681,2.425c-.9,3.189,1.791,16.69,4.106,23.486,1.652,4.853,5.19,22.675,5.2,22.714.319,4.071.1,7.666-.977,10.4-7.222,18.323-31.515,13.267-30.574,35.015a371.692,371.692,0,0,0,7.632,59.213H430.3V691.208A17.93,17.93,0,0,0,425.464,692.328Z" fill="#d3ddd0"/>
    </g>
    <g>
      <path d="M1211.871,1011.814c-2.661-48.329-21.648-37.757-33.494-49.84-11.534-11.763-22.716-162.574-59.342-177.555v0a17.111,17.111,0,0,0-5.533-2.172,38.857,38.857,0,0,0-6.372-.326l0,.006c-34.983-.666-16.163,119-63.7,160.412-11.3,9.84-15.584,34.578-22.165,62.559a16.349,16.349,0,0,0-.4,3.79h-.009c-1.208,14.235,9.591,28.468,9.606,28.488,2.759,6.842,4.763,13.6,3.668,19.677a9.45,9.45,0,0,1-1.455,3.476c-6.744,7.527-21.875,12.641-25.525,21.238h.006a8.759,8.759,0,0,0-.939,2.721c-2.184,13.874.365,30.21-.769,43.382-5.385,18.484-8.334,48.976-8.349,49.138-3.393,15.925-6.1,25.392-6.1,25.392h275.868s-11.816-75.605-12.973-101.28S1214.531,1060.144,1211.871,1011.814Z" fill="#d3ddd0"/>
      <path d="M1575.13,913.511c-16.546-36.214-7.132-113.279-7.357-168.594-.063-15.259-10.127-34.879-23.97-54.688-16.717-31.686-44.708-63.992-76.761-80.426h0c-15.826-10.263-29.948-14.28-38.678-7.984-16.785,12.1-21.237,57.892-24.817,104.991-.861,11.329-17.965,38.013-18.884,49.042-.079.948-.139,1.875-.185,2.785h0c-7.173,12.155,5.975,42.128,6.267,42.792a23.2,23.2,0,0,1-1.85,9.354c-5,11.955-12.915,26.108-20.334,40.933-8.739,17.463-9.875,32.607-10.29,48.79-3.626,15.288,13.762,68.025,13.762,68.025-5.981,47.119-30.739,61.46-42.323,84a6.628,6.628,0,0,0-.676,3.286c-.451,17.194,8.876,38.773,9.091,39.267-.088,1.093-.2,2.2-.375,3.337-2.769,18.279-25.041,44.873-26.981,61.932-2.7,23.752-4.372,41.853-4.372,41.853h285.9c0-83.062-22.238-115.751-22.6-148.529S1591.675,949.725,1575.13,913.511Z" fill="#d3ddd0"/>
      <path d="M927.783,968.53c-4.463-23.641-27.6,41.451-41.757,39.653-9.014-9.63-11.249-44.409-11.148-63.962.547-105.822-5.371-226.762-26.114-281.927-6.975-18.55-23.991-30.391-33.373-30.878-.085-.013-.17-.024-.256-.034s-.188-.017-.283-.024c-.135-.008-.27-.014-.4-.014-.1,0-.19,0-.284.007-.134.006-.269.018-.4.033-.093.01-.186.021-.279.036-.138.022-.276.052-.413.085-.088.02-.176.038-.262.062-.151.043-.3.1-.452.15-.073.026-.146.048-.219.077a7.3,7.3,0,0,0-.665.305c-16.89,8.853-33.163,36.291-54.47,73.226-4.708,8.161-18.045,74.361-23.306,83.351-8.291,14.17-23.463,22.352-29.769,38.92a17.948,17.948,0,0,0-1.136,5.465h0v0a22.551,22.551,0,0,0,.513,5.929c2.5,14.78,13.552,26.115,17.331,33.738q.224.466.434.932c.036.084.078.17.111.253,4.387,9.883,4.2,18.761-10.531,25.377-33.928,15.237-70.336,49.949-60.343,69.238,8.49,18.476,12.571,71.079,12.571,71.079h0c1.475,68.064-4.674,162.592-4.674,162.592h299.03V1066.866S945.639,1001.3,927.783,968.53Z" fill="#d3ddd0"/>
      <g>
        <path d="M1712.322,692.328l.005,0c-11.438,2.22-24.5,14.48-37.4,33.212-7.058,10.245.894,23.472-4.079,43.7-5.81,23.629-17.069,52.665-20.43,81.652a55.157,55.157,0,0,0,.1,16.3c-.155,2.7,1.844,11.245,4.124,14.941,2.484,4.031,2.709,11.064,2.719,13.169,0,.15,0,.3,0,.45v.037q-.016,1.512-.111,3.187c-1.169,20.543-19.564,67.647-15.829,82.39h0c-.539,7.883,4.839,13.259,6.779,20.845q.444,2.345.665,4.485c.22,5.542-1.769,15.894-1.783,15.965-4.606,11.856-15.889,17.2-21.5,26.231a5.58,5.58,0,0,0-.681,2.425c-.9,3.189,1.791,16.69,4.105,23.486,1.653,4.853,5.191,22.675,5.2,22.714.318,4.071.1,7.666-.977,10.4-7.222,18.323-31.516,13.267-30.574,35.015a371.692,371.692,0,0,0,7.632,59.213h106.88V691.208A17.93,17.93,0,0,0,1712.322,692.328Z" fill="#d3ddd0"/>
        <path d="M542.222,1124.23c-9.194-16.39-13.247-49.168-18.947-63.51s-31.02-86.044-43.3-116.5-8.121-133.439-17.872-202c-3.84-27-11.037-42.461-19.614-47.567h0a14.917,14.917,0,0,0-10.721-3.395V1202.2H542.222S551.416,1140.619,542.222,1124.23Z" fill="#d3ddd0"/>
      </g>
    </g>
    <g>
      <path d="M2495.551,1011.814c-2.66-48.329-21.648-37.757-33.494-49.84-11.533-11.763-22.715-162.574-59.342-177.555l0,0a17.125,17.125,0,0,0-5.534-2.172,38.85,38.85,0,0,0-6.371-.326v.006c-34.982-.666-16.163,119-63.7,160.412-11.3,9.84-15.585,34.578-22.166,62.559a16.349,16.349,0,0,0-.4,3.79h-.009c-1.208,14.235,9.591,28.468,9.606,28.488,2.759,6.842,4.764,13.6,3.669,19.677a9.469,9.469,0,0,1-1.456,3.476c-6.744,7.527-21.874,12.641-25.525,21.238h.006a8.759,8.759,0,0,0-.939,2.721c-2.184,13.874.365,30.21-.769,43.382-5.384,18.484-8.334,48.976-8.349,49.138-3.393,15.925-6.105,25.392-6.105,25.392h275.869s-11.816-75.605-12.974-101.28S2498.211,1060.144,2495.551,1011.814Z" fill="#d3ddd0"/>
      <path d="M2211.464,968.53c-4.464-23.641-27.6,41.451-41.758,39.653-9.013-9.63-11.248-44.409-11.147-63.962.547-105.822-5.372-226.762-26.114-281.927-6.976-18.55-23.992-30.391-33.373-30.878-.086-.013-.171-.024-.256-.034s-.189-.017-.283-.024c-.136-.008-.27-.014-.406-.014-.094,0-.189,0-.284.007-.134.006-.269.018-.4.033-.092.01-.185.021-.278.036-.139.022-.276.052-.414.085-.087.02-.175.038-.262.062-.151.043-.3.1-.452.15-.073.026-.146.048-.219.077-.222.089-.444.19-.665.305-16.89,8.853-33.163,36.291-54.47,73.226-4.707,8.161-18.045,74.361-23.306,83.351-8.291,14.17-23.463,22.352-29.769,38.92a17.948,17.948,0,0,0-1.136,5.465h0v0a22.593,22.593,0,0,0,.513,5.929c2.5,14.78,13.553,26.115,17.332,33.738.148.311.294.622.433.932.036.084.078.17.112.253,4.386,9.883,4.2,18.761-10.532,25.377-33.927,15.237-70.336,49.949-60.343,69.238,8.49,18.476,12.571,71.079,12.571,71.079h0c1.476,68.064-4.674,162.592-4.674,162.592h299.031V1066.866S2229.319,1001.3,2211.464,968.53Z" fill="#d3ddd0"/>
      <path d="M1825.9,1124.23c-9.193-16.39-13.247-49.168-18.946-63.51s-31.02-86.044-43.3-116.5-8.121-133.439-17.871-202c-3.84-27-11.037-42.461-19.615-47.567h0a14.919,14.919,0,0,0-10.722-3.395V1202.2H1825.9S1835.1,1140.619,1825.9,1124.23Z" fill="#d3ddd0"/>
    </g>
  </g>
  <path d="M-282.553,1236.085C-115.362,1086.739-3.843,1072.5,66.406,1085.957c130.008,24.913,191.361,158.644,322.371,150.128,53.577-3.482,47.645-29.528,136.26-61.276,140.329-50.276,271.926-32.875,319.049-24.511,135.71,24.088,142.332,74.674,249.256,91.915,144.078,23.23,166.882-73.98,329.018-79.66,176.644-6.188,215.447,96.94,368.9,67.4,109.946-21.161,115.4-78.983,212.7-79.659,119.632-.832,145.638,86.335,255.9,79.659,98.516-5.964,119.323-78.061,219.345-88.851,100.809-10.874,219.083,36.734,219.346,76.6.57,86.53-554.313,237.284-723.063,55.149-27.128-29.279-58.772-82.806-131.745-113.362-88.259-36.956-172.669-13.381-186.894-9.191-65.379,19.255-107.018,57.266-125.617,76.6" fill="#bac9b5"/>
  <g>
    <rect x="-1241.475" y="1412.417" width="5351.489" height="267.923" fill="#3e2d1d"/>
    <rect x="-1241.475" y="1190.128" width="5351.489" height="238.979" fill="#b5ba4f"/>
    <path d="M4110.015,1407.415H3628.326c-24.991,0-10.637-11.892-37.162-11.892-17.039,0-74.523,11.892-92.166,11.892h-95.136c-23.839,0-37.721-14.864-62.434-14.864-26.287,0-63.461,14.864-90.678,14.864H2296.4c-23.716,0-26.693-14.864-50.543-14.864-27.426,0-75.743,14.864-103.313,14.864H993.09c-17.168,0-33.149,7.062-50.17,7.062-19.425,0-39.868-7.062-59.09-7.062H802.443c-22.966,0-50.966,12.636-73.583,12.636-26.011,0-46.581-12.636-72.1-12.636H-481.915c-22.3,0-24.528-11.889-54.258-11.889s-36.421,11.889-58.718,11.889h-646.584v45.909h5351.49Z" fill="#660"/>
    <g>
      <path d="M4110.015,1543.647H2068.7c-4.566,0-9.137,0-13.627-.081-19.561-2.149-41.858-6.609-61.926-4.379-122.639,4.46-245.277,11.149-369,4.46H1216.413c-32.676-2.23-63.893,2.229-97.34-4.46-35.677-6.689-66.894,6.689-100.34,6.689-53.515,4.46-109.26-4.459-162.075-2.229H577.427c-51.477-6.69-100.533,17.838-151.818,4.459-37.906-8.919-71.353-8.919-109.924-4.459H-319.986c-63.818-2.23-128.481,0-193.145-4.46-149.4-6.689-298.792,11.149-449.021,4.46h-279.323v48.707h357.14c92.48.348,183.9.348,276.438-.005q5.922.008,11.891.005H347.635c48.987-4.112,100.272,2.578,149.452.006,3.279-.006,6.53-.006,9.783-.006H971.019c43.254.348,87.85.348,129.585-.031q7.185.036,14.417.031h623.765q137.383.522,274.3-.02,6.774.027,13.57.02H4110.015Z" fill="#261911"/>
      <path d="M4110.015,1467.834H2055c-144.355-4.46-287.061,13.379-430.765,0H1216.364c-110.67-2.23-219.929,2.23-331.069,0H567.848c-77.575,2.23-155.618,2.23-234.752,0h-628.41c-61.732,4.46-121.936,0-182.141-4.46-149.4-8.919-296.561,8.92-446.31,4.46h-317.71v24.353h279.324c152.458,4.634,304.084.175,455.709-15.434,40.136-2.23,75.813,15.609,113.719,20.068,33.447,4.46,66.894-6.689,99.844-4.634h608.63c27.356,2.4,51.884-6.515,78.641.175,28.987,6.689,55.745,13.378,84.732,6.689,40.136-8.919,78.043-6.689,118.459-6.864H856.659c86.261,2.4,173.222.175,260.184-2.055,37.907-2.23,75.813,4.459,114.012,2.055H1614.29c55.54-4.285,109.055,18.013,164.8,11.324,95.881-8.92,189.532-17.839,284.348-11.324H4110.015Z" fill="#261911"/>
      <path d="M4110.015,1509.912H2063.453c-30.167-1.942-61.384-10.861-94.831-6.4-122.638,22.3-236.358,15.608-354.338,6.4H1230.86c-33.745.288-64.962,2.518-98.408-4.172-40.137-8.919-78.043,8.919-118.179,8.919-53.515,2.23-104.8-6.689-157.615-4.747H597.585c-22.58.288-47.108-1.942-69.406,2.518-51.285,8.919-100.34,11.149-149.395-4.46-20.069-6.689-42.366,4.46-63.121,1.942H-292.88c-68.626,4.747-133.29-6.4-200.183-8.631-156.085-8.919-312.17,20.068-469.089,8.631h-279.323v14.459h289.844c81.734-3.022,164.236,10.357,246.738,1.437,71.353-8.919,142.706-20.068,214.06-8.919,64.663,11.149,127.1,6.69,188.916,7.482h603.18c46.3-5.252,86.44-.792,133.265,8.127,26.758,6.689,53.515,0,80.273-4.46,28.987-6.689,55.744-4.459,82.782-3.667H856.659c92.95,5.9,184.371-5.252,275.793-3.022,31.217,0,64.663,2.23,98.4,3.022h397.659c123.819,14.816,248.687,1.437,373.555-5.252,20.068-2.23,42.366,4.46,61.373,5.252H4110.015Z" fill="#261911"/>
    </g>
    <polygon points="1925.698 1558.311 1949.669 1544.932 1968.622 1551.621 1968.622 1565.557 1943.537 1572.804 1932.388 1569.46 1925.698 1558.311" fill="#3e2d1d"/>
    <polygon points="1298.385 1556.392 1322.355 1543.013 1341.308 1549.703 1341.308 1563.639 1316.223 1570.886 1305.074 1567.541 1298.385 1556.392" fill="#3e2d1d"/>
    <polygon points="511.27 1558.311 535.24 1544.932 554.193 1551.621 554.193 1565.557 529.108 1572.804 517.959 1569.46 511.27 1558.311" fill="#3e2d1d"/>
    <polygon points="488.694 1566.248 473.855 1557.964 462.122 1562.106 462.122 1570.733 477.651 1575.219 484.553 1573.148 488.694 1566.248" fill="#3e2d1d"/>
    <polygon points="263.114 1558.524 248.276 1550.241 236.542 1554.382 236.542 1563.01 252.071 1567.495 258.973 1565.425 263.114 1558.524" fill="#3e2d1d"/>
    <polygon points="2223.933 1564.771 2247.903 1551.393 2266.856 1558.082 2266.856 1572.018 2241.771 1579.265 2230.622 1575.92 2223.933 1564.771" fill="#3e2d1d"/>
    <polygon points="2314.036 1555.722 2333.303 1552.072 2344.635 1560.889 2341.484 1570.333 2322.849 1569.573 2316.051 1564.787 2314.036 1555.722" fill="#3e2d1d"/>
    <polygon points="1994.791 1543.31 2011.876 1547.401 2017.904 1558.766 2011.863 1565.329 1996.908 1557.866 1993.108 1551.46 1994.791 1543.31" fill="#3e2d1d"/>
    <g>
      <g>
        <path d="M119.9,1340.573c0,7.726-16.079,7.186-35.914,7.186s-35.916.54-35.916-7.186,16.08-20.791,35.916-20.791S119.9,1332.85,119.9,1340.573Z" fill="#878303"/>
        <path d="M106.569,1325.609c2.715,2.866,4.262,5.771,4.262,8.159,0,7.726-16.08,7.184-35.915,7.184-10.657,0-20.2.144-26.777-.908-.016.177-.065.357-.065.529,0,7.726,16.079,7.752,35.915,7.752s36.765-.4,36.765-8.131C120.754,1335.8,114.7,1330.069,106.569,1325.609Z" fill="#605d03"/>
        <path d="M82.841,1323.133c.422,1.224-5.208,3.41-12.225,5.817s-12.761,4.111-13.18,2.887,4.643-4.921,11.66-7.327S82.423,1321.905,82.841,1323.133Z" fill="#a09a2d"/>
      </g>
      <g>
        <path d="M377.822,1299.224c0,5.3-11.028,4.93-24.633,4.93s-24.636.37-24.636-4.93,11.03-14.261,24.636-14.261S377.822,1293.926,377.822,1299.224Z" fill="#878303"/>
        <path d="M368.676,1288.961c1.862,1.965,2.923,3.957,2.923,5.6,0,5.3-11.029,4.927-24.635,4.927-7.308,0-13.854.1-18.366-.622-.011.119-.045.244-.045.361,0,5.3,11.029,5.318,24.635,5.318s25.218-.279,25.218-5.577C378.406,1295.951,374.252,1292.019,368.676,1288.961Z" fill="#605d03"/>
        <path d="M352.4,1287.263c.289.838-3.573,2.339-8.386,3.989s-8.753,2.82-9.04,1.98,3.185-3.375,8-5.026S352.114,1286.42,352.4,1287.263Z" fill="#a09a2d"/>
      </g>
      <g>
        <path d="M434.725,1317.045c0,6.641-13.819,6.178-30.868,6.178s-30.872.463-30.872-6.178,13.821-17.871,30.872-17.871S434.725,1310.406,434.725,1317.045Z" fill="#878303"/>
        <path d="M423.264,1304.184c2.334,2.461,3.662,4.959,3.662,7.012,0,6.639-13.82,6.176-30.869,6.176-9.16,0-17.363.124-23.017-.78-.013.15-.055.3-.055.453,0,6.641,13.82,6.663,30.871,6.663s31.6-.348,31.6-6.987C435.457,1312.943,430.252,1308.015,423.264,1304.184Z" fill="#605d03"/>
        <path d="M402.869,1302.055c.363,1.052-4.477,2.931-10.508,5s-10.969,3.534-11.329,2.48,3.99-4.229,10.023-6.3S402.51,1301,402.869,1302.055Z" fill="#a09a2d"/>
      </g>
      <g>
        <path d="M155.86,1314.567c0,5.2-10.817,4.834-24.161,4.834s-24.164.364-24.164-4.834,10.817-13.988,24.164-13.988S155.86,1309.371,155.86,1314.567Z" fill="#878303"/>
        <path d="M146.889,1304.5c1.827,1.929,2.868,3.883,2.868,5.49,0,5.2-10.818,4.834-24.163,4.834-7.17,0-13.59.1-18.016-.612-.011.12-.043.242-.043.357,0,5.2,10.817,5.215,24.163,5.215s24.735-.272,24.735-5.47C156.433,1311.357,152.359,1307.5,146.889,1304.5Z" fill="#605d03"/>
        <path d="M130.926,1302.835c.283.823-3.5,2.292-8.226,3.913s-8.585,2.765-8.867,1.942,3.124-3.312,7.845-4.93S130.645,1302.007,130.926,1302.835Z" fill="#a09a2d"/>
      </g>
      <g>
        <path d="M32.8,1336.63c0,5.2-10.817,4.834-24.162,4.834s-24.164.364-24.164-4.834,10.818-13.989,24.164-13.989S32.8,1331.434,32.8,1336.63Z" fill="#878303"/>
        <path d="M23.83,1326.561c1.827,1.929,2.868,3.882,2.868,5.489,0,5.2-10.818,4.835-24.163,4.835-7.169,0-13.59.1-18.015-.612-.011.119-.044.241-.044.357,0,5.2,10.818,5.215,24.163,5.215s24.736-.272,24.736-5.47C33.375,1333.42,29.3,1329.561,23.83,1326.561Z" fill="#605d03"/>
        <path d="M7.867,1324.9c.283.823-3.5,2.293-8.226,3.913s-8.585,2.766-8.866,1.943,3.123-3.313,7.844-4.93S7.586,1324.07,7.867,1324.9Z" fill="#a09a2d"/>
      </g>
      <g>
        <path d="M57.251,1352.153c0,5.2-10.817,4.834-24.162,4.834s-24.164.364-24.164-4.834,10.818-13.988,24.164-13.988S57.251,1346.958,57.251,1352.153Z" fill="#878303"/>
        <path d="M48.28,1342.084c1.827,1.93,2.868,3.883,2.868,5.49,0,5.2-10.818,4.834-24.164,4.834-7.169,0-13.589.1-18.015-.612-.011.12-.044.242-.044.357,0,5.2,10.818,5.215,24.163,5.215s24.736-.272,24.736-5.469C57.824,1348.944,53.75,1345.085,48.28,1342.084Z" fill="#605d03"/>
        <path d="M32.316,1340.421c.283.823-3.5,2.293-8.225,3.913s-8.585,2.765-8.867,1.942,3.123-3.312,7.844-4.93S32.035,1339.593,32.316,1340.421Z" fill="#a09a2d"/>
      </g>
      <g>
        <path d="M2054.957,1306.162c0,7.726-16.079,7.186-35.917,7.186s-35.916.54-35.916-7.186,16.081-20.791,35.916-20.791S2054.957,1298.438,2054.957,1306.162Z" fill="#878303"/>
        <path d="M2041.621,1291.2c2.713,2.865,4.262,5.77,4.262,8.159,0,7.726-16.081,7.184-35.914,7.184-10.657,0-20.2.143-26.78-.908-.015.176-.065.357-.065.529,0,7.726,16.079,7.752,35.916,7.752s36.766-.4,36.766-8.131C2055.806,1301.391,2049.752,1295.657,2041.621,1291.2Z" fill="#605d03"/>
        <path d="M2017.893,1288.722c.42,1.224-5.209,3.41-12.227,5.816s-12.76,4.111-13.179,2.888,4.643-4.922,11.659-7.328S2017.475,1287.494,2017.893,1288.722Z" fill="#a09a2d"/>
      </g>
      <g>
        <path d="M2090.912,1280.156c0,5.2-10.818,4.834-24.162,4.834s-24.164.363-24.164-4.834,10.818-13.989,24.164-13.989S2090.912,1274.96,2090.912,1280.156Z" fill="#878303"/>
        <path d="M2081.94,1270.087c1.827,1.929,2.868,3.882,2.868,5.489,0,5.2-10.818,4.834-24.164,4.834-7.168,0-13.588.1-18.015-.612-.011.12-.043.242-.043.358,0,5.2,10.818,5.215,24.164,5.215s24.734-.272,24.734-5.47C2091.484,1276.946,2087.41,1273.087,2081.94,1270.087Z" fill="#605d03"/>
        <path d="M2065.977,1268.423c.283.823-3.5,2.293-8.225,3.913s-8.586,2.766-8.867,1.942,3.123-3.312,7.844-4.929S2065.7,1267.6,2065.977,1268.423Z" fill="#a09a2d"/>
      </g>
      <g>
        <path d="M2216.877,1301c0,5.2-10.818,4.834-24.162,4.834s-24.164.364-24.164-4.834,10.818-13.988,24.164-13.988S2216.877,1295.805,2216.877,1301Z" fill="#878303"/>
        <path d="M2207.906,1290.932c1.827,1.929,2.868,3.883,2.868,5.49,0,5.2-10.818,4.834-24.164,4.834-7.169,0-13.588.1-18.015-.612-.011.12-.044.242-.044.357,0,5.2,10.818,5.215,24.164,5.215s24.735-.272,24.735-5.47C2217.45,1297.791,2213.376,1293.933,2207.906,1290.932Z" fill="#605d03"/>
        <path d="M2191.942,1289.269c.284.823-3.5,2.292-8.224,3.913s-8.586,2.765-8.867,1.942,3.123-3.312,7.844-4.93S2191.661,1288.441,2191.942,1289.269Z" fill="#a09a2d"/>
      </g>
      <g>
        <path d="M2269.271,1316.525c0,5.2-10.818,4.834-24.162,4.834s-24.164.363-24.164-4.834,10.818-13.989,24.164-13.989S2269.271,1311.329,2269.271,1316.525Z" fill="#878303"/>
        <path d="M2260.3,1306.456c1.827,1.929,2.868,3.882,2.868,5.489,0,5.2-10.818,4.834-24.164,4.834-7.168,0-13.588.1-18.015-.611-.01.119-.043.241-.043.357,0,5.2,10.818,5.215,24.164,5.215s24.734-.272,24.734-5.47C2269.843,1313.315,2265.769,1309.456,2260.3,1306.456Z" fill="#605d03"/>
        <path d="M2244.336,1304.792c.283.823-3.5,2.293-8.225,3.913s-8.586,2.766-8.866,1.943,3.122-3.313,7.843-4.931S2244.055,1303.965,2244.336,1304.792Z" fill="#a09a2d"/>
      </g>
      <g>
        <path d="M1967.853,1302.218c0,5.2-10.816,4.834-24.162,4.834s-24.164.364-24.164-4.834,10.818-13.988,24.164-13.988S1967.853,1297.023,1967.853,1302.218Z" fill="#878303"/>
        <path d="M1958.882,1292.149c1.827,1.93,2.868,3.883,2.868,5.49,0,5.2-10.818,4.834-24.162,4.834-7.171,0-13.592.1-18.017-.612-.011.12-.044.242-.044.357,0,5.2,10.818,5.216,24.162,5.216s24.737-.273,24.737-5.47C1968.426,1299.009,1964.352,1295.15,1958.882,1292.149Z" fill="#605d03"/>
        <path d="M1942.918,1290.486c.283.823-3.5,2.293-8.226,3.913s-8.584,2.765-8.867,1.942,3.125-3.312,7.845-4.93S1942.637,1289.658,1942.918,1290.486Z" fill="#a09a2d"/>
      </g>
      <g>
        <path d="M1992.3,1317.742c0,5.2-10.815,4.834-24.161,4.834s-24.164.364-24.164-4.834,10.817-13.989,24.164-13.989S1992.3,1312.546,1992.3,1317.742Z" fill="#878303"/>
        <path d="M1983.331,1307.673c1.827,1.929,2.868,3.882,2.868,5.489,0,5.2-10.818,4.835-24.162,4.835-7.17,0-13.592.1-18.017-.612-.011.12-.043.242-.043.357,0,5.2,10.817,5.215,24.161,5.215s24.737-.272,24.737-5.47C1992.875,1314.532,1988.8,1310.674,1983.331,1307.673Z" fill="#605d03"/>
        <path d="M1967.368,1306.009c.283.823-3.506,2.293-8.227,3.913s-8.584,2.766-8.867,1.943,3.125-3.312,7.846-4.93S1967.087,1305.182,1967.368,1306.009Z" fill="#a09a2d"/>
      </g>
    </g>
  </g>
  <g>
    <path d="M508.8,389.365c-231.264-10.1-399.343-1.229-399.343-1.229s292.255-70.224,324.1-70.224c0,0-68.568-59.971,127.513-82.989C597.333,115.439,929.1,218.63,823.059,324.189c31.844,2.408,84.066,2.46,124.005,27.055,0,0-170.513,2.458-208.962,14.756,0,0,76.354,55.635-241.274,48.257C456.656,413.324,542.284,390.828,508.8,389.365Z" fill="#fff"/>
    <path d="M738.1,366c38.09-12.182,205.787-14.71,208.913-14.756C796.884,323.5,541.2,344.868,504.048,348.383c-39,3.689,63.627,15.986-6.158,15.986-57.537,0-302.973,17.416-387.349,23.53l-1.082.237s168.079-8.866,399.343,1.229c33.482,1.463-52.146,23.959-11.974,24.892C814.456,421.635,738.1,366,738.1,366Z" fill="#9fd0de"/>
  </g>
  <g>
    <path d="M1631.066,249.4c-161.285-7.04-278.5-.857-278.5-.857s168.217-36.879,190.427-36.879c0,0,.555-52.459,75.792-29.649-2.266-5.431,1.929-36.521,26.085-46.522,31.93-13.22,55.5,6.332,58.217,19.367,9.971-13.578,36.727-26.081,61.64-23.767,60.261,5.595,95.01,24.306,113.691,40.424,31.542,27.213-28.182,32.429-28.182,32.429s58.627,1.715,86.482,18.868c0,0-118.918,1.715-145.732,10.291,0,0,53.25,38.8-168.266,33.655C1594.7,266.106,1654.417,250.417,1631.066,249.4Z" fill="#fff"/>
    <path d="M1790.982,233.1c26.564-8.5,143.517-10.259,145.7-10.291-104.7-19.348-283.021-4.446-308.928-2-27.2,2.572,44.374,11.149-4.3,11.149-40.126,0-211.3,12.146-270.14,16.409l-.754.166s117.219-6.183,278.5.857c23.351,1.02-36.367,16.709-8.35,17.36C1844.232,271.9,1790.982,233.1,1790.982,233.1Z" fill="#9fd0de"/>
  </g>
</svg>
