<svg xmlns="http://www.w3.org/2000/svg" xmlns:xlink="http://www.w3.org/1999/xlink" width="1920" height="1080" viewBox="0 0 1920 1080">
  <defs>
    <linearGradient id="a" x1="114.302" y1="1089.771" x2="114.302" y2="1.305" gradientUnits="userSpaceOnUse">
      <stop offset="0.122" stop-color="#fff"/>
      <stop offset="0.269" stop-color="#e1f3f4"/>
      <stop offset="0.423" stop-color="#caeaeb"/>
      <stop offset="0.588" stop-color="#b9e3e5"/>
      <stop offset="0.77" stop-color="#afdfe1"/>
      <stop offset="1" stop-color="#acdee0"/>
    </linearGradient>
  </defs>
  <g>
    <rect x="-1700.564" y="1.305" width="3629.732" height="1088.466" fill="url(#a)"/>
    <path d="M-1261.277,702.857c352.841,0,419.293-276.78,781.846-276.78S-54.636,744.139,358.456,744.139s423.813-417.5,726.14-417.5c239.209,0,293.364,271.289,484.34,301.277,92.681,14.553,173.107-105.7,396,36.766,0,152.313,13.253,368.8,13.253,368.8H-1261.277Z" fill="#69bfd6"/>
    <path d="M-1700.564,790.147c23.143,0,214.991-13.816,214.991-13.816l21.4-58.67,199.417-16.594,16.553,7.938-16.147,12.742,53.648,5.241,58.262,27.936,353.62-22.722,154.565,57.945,18.419-93.276,18.946-17.949-11.466-19.928L-206.3,767.833l183.83-6.127L40.851,716.77V686.131L28.6,655.493l10.213-28.6L30.638,584l46.979-65.362L114.3,503.984l153.6,58.647,53.976,44.532-38.732,4.717,68.682,19.994L368.707,645.8l-23.232,9.735,45.418,8.572,66.06,54.5,290.64-8.958,12.128-14.176,34.153-10.73-22.638-2.728,13.219-15.45,28.03-10.651-2.615-19.055,251.837-5.033,71.987,65.924L1376.732,715.3l81.033-120.2,42.189-15.531-22.148-14.2,26.026-38.609h146.516l12.266,34.067-19.072,22.035,14.369,8.8-.758,18.466-10.334,11.517,9.41,11.059-1.239,30.226-14.724,7.091,13.938,12.087-1.456,35.553,276.42,72.486v255.8H-1700.564Z" fill="#3fa2b5"/>
    <polyline points="1713.702 767.833 1897.532 761.706 1960.851 716.77 1960.851 686.131 1948.596 655.493 1958.809 626.897 1950.638 584.004 1997.617 518.642 2034.303 503.984 2187.905 562.631 2241.881 607.163 2203.149 611.88 2271.831 631.874 2288.707 645.797 2265.475 655.532 2310.893 664.104 2376.953 718.605 2667.593 709.647 2679.721 695.471 2713.874 684.741 2691.236 682.013 2704.455 666.563 2732.485 655.912 2729.87 636.857 2981.707 631.824 3053.694 697.748 3296.732 715.304 3377.765 595.099 3419.954 579.568 3397.806 565.366 3423.833 526.757 3570.348 526.757 3582.614 560.824 3563.542 582.859 3577.911 591.662 3577.153 610.128 3566.819 621.645 3576.229 632.704 3574.99 662.93 3560.266 670.021 3574.204 682.108 3572.748 717.661 3849.168 790.147 3849.168 1045.945" fill="#3fa2b5"/>
    <g>
      <path d="M1595.731,500.06l-17.519,96.908,17.519,46.219L1573.2,719.212l5.075,62.028-5.075,41.618s23.634,43.33,18.786,42.127-41.017,3.045-41.017,3.045-1.128-53.325.9-58.384,11.171-32.467,11.171-32.467l-6.093-62.935,26.413-69.027-14.229-49.739Z" fill="#3794a9"/>
      <path d="M619.549,234.756l20.624,136.9L626.124,480.086l14.045,171.53L632.785,741.8,611.9,802.976S569.631,869.743,576.679,868s95.811,0,95.811,0,1.641-77.532-1.311-84.888S654.935,735.9,654.935,735.9l8.861-91.508L644.107,483.037,653.373,369.5Z" fill="#3794a9"/>
      <path d="M874.405,868.03l16-47.537-36.517-16.422,36.517,6.853,5.331-35.3-4.571-65.375,20.568-53.884L906.4,595.45s-19.044-22.841-16.759-21.318,17.369,13.705,17.369,13.705V538.346l9.106,64.719,5.517,53.3-19.045,60.15,3.812,53.3,23.613-17.851L942.2,724.887l-7.618,27.072L925.222,766l10.884,3.807-19.99,1.522-9.106,9.9,9.106,49.33,22.273,37.47Z" fill="#3794a9"/>
      <path d="M1396.931,868.03c-.3-.019,9.241-34.965,9.241-34.965l-11.658-36.554,11.658-22.25V739.828l-21.142-38.144.226-21.192,2.9,17.483,8.777,18.013,9.241-16.953-5.3,20.4,12.453,14.3,47.966-19.337,21.2-22.78,6.739-19.6-8.862-11.654,13.252,10.86-7.419,24.634L1465.156,719.6,1441.2,730.438l29.351,10.978,9.82-2.649-9.82,7.416L1437.063,734.8l-18.451,14s.81,21.5.81,21.628-5.559,29.8-5.559,29.8l15.1,30.344,12.028,37.466Z" fill="#3794a9"/>
      <path d="M67.26,878.243c-.3-.019,9.243-34.965,9.243-34.965L64.844,806.724,76.5,784.474V750.04L55.36,711.9l.226-21.191,2.9,17.483L67.26,726.2,76.5,709.248l-5.3,20.395,12.454,14.3,47.964-19.337,21.2-22.78,6.738-19.6-8.86-11.654,13.25,10.859-7.418,24.634-21.047,23.744-23.958,10.838,29.35,10.978,9.823-2.649-9.823,7.416-33.483-11.388-18.453,14s.812,21.5.812,21.628-5.561,29.8-5.561,29.8l15.1,30.345,12.027,37.466Z" fill="#3794a9"/>
    </g>
    <g>
      <g>
        <path d="M1236.768,196.973c0,21.272-56.736,38.516-126.728,38.516s-126.727-17.244-126.727-38.516,56.738-38.514,126.727-38.514S1236.768,175.7,1236.768,196.973Z" fill="#fff"/>
        <path d="M1110.04,225.122c-51.9,0-97.369-7.369-122.642-18.415,14.187,16.558,63.718,30.042,122.642,30.042s108.456-13.484,122.643-30.042C1207.413,217.753,1161.941,225.122,1110.04,225.122Z" fill="#8accdd"/>
      </g>
      <g>
        <path d="M1710.064,265.262c0,20.738-55.311,37.549-123.543,37.549S1462.974,286,1462.974,265.262s55.315-37.546,123.547-37.546S1710.064,244.526,1710.064,265.262Z" fill="#fff"/>
        <path d="M1586.521,292.705c-50.6,0-94.925-7.185-119.565-17.954,13.831,16.143,62.119,29.289,119.565,29.289s105.729-13.146,119.56-29.289C1681.447,285.52,1637.116,292.705,1586.521,292.705Z" fill="#8accdd"/>
      </g>
      <g>
        <path d="M1856.12,168.925c0,17.892-47.722,32.4-106.592,32.4s-106.594-14.5-106.594-32.4,47.724-32.4,106.594-32.4S1856.12,151.033,1856.12,168.925Z" fill="#fff"/>
        <path d="M1749.528,192.6c-43.657,0-81.9-6.2-103.159-15.489,11.933,13.927,53.6,25.269,103.159,25.269s91.222-11.342,103.155-25.269C1831.428,186.4,1793.18,192.6,1749.528,192.6Z" fill="#8accdd"/>
      </g>
      <g>
        <path d="M580.927,240.735c0,20.782-55.43,37.628-123.809,37.628s-123.811-16.846-123.811-37.628,55.435-37.627,123.811-37.627S580.927,219.954,580.927,240.735Z" fill="#fff"/>
        <path d="M457.118,268.236c-50.7,0-95.126-7.2-119.819-17.992C351.16,266.421,399.55,279.6,457.118,279.6s105.957-13.174,119.818-29.351C552.248,261.036,507.824,268.236,457.118,268.236Z" fill="#8accdd"/>
      </g>
      <g>
        <path d="M724.9,162.19c0,13.312-35.506,24.1-79.305,24.1s-79.309-10.791-79.309-24.1,35.509-24.1,79.309-24.1S724.9,148.878,724.9,162.19Z" fill="#fff"/>
        <path d="M645.592,179.805c-32.481,0-60.936-4.612-76.752-11.524,8.877,10.362,39.874,18.8,76.752,18.8s67.871-8.438,76.749-18.8C706.527,175.193,678.071,179.805,645.592,179.805Z" fill="#8accdd"/>
      </g>
      <g>
        <path d="M278.21,137.692c0,13.312-35.5,24.1-79.306,24.1S119.6,151,119.6,137.692s35.509-24.1,79.307-24.1S278.21,124.381,278.21,137.692Z" fill="#fff"/>
        <path d="M198.9,155.308c-32.479,0-60.933-4.612-76.75-11.524,8.878,10.362,39.874,18.8,76.75,18.8s67.872-8.438,76.751-18.8C259.841,150.7,231.384,155.308,198.9,155.308Z" fill="#8accdd"/>
      </g>
    </g>
    <g>
      <g>
        <path d="M1227.2,850.562v-76l44.671-95.954V566.5L1227.2,529.448,1206.286,551.3l11.4,13.3L1231,556.048l-12.355,19L1193.931,553.2l38.969-40.853,52.272,40.853,4.754,115.9,25.66-47.5,77.935-52.252,32.316-43.7v-49.4l6.653,40.852,37.068-25.651,39.92,3.8,11.661,26.255L1500.921,500h-30.414l-31.363,27.55s-32.317,43.7-32.317,46.553-76.984,55.1-76.984,55.1l-26.614,48.452-24.711,73.153,1.9,54.153,48.087,63.652h-72.8Z" fill="#0e6e79"/>
        <g>
          <polygon points="1328.259 621.602 1399.9 571.963 1438.511 512.932 1432.49 517.098 1425.837 476.246 1425.837 525.648 1393.524 569.35 1315.586 621.602 1301.704 647.3 1328.259 621.602" fill="#0c5a67"/>
          <polygon points="1259.649 831.868 1239.868 774.56 1284.539 678.606 1277.814 566.157 1234.261 535.309 1271.866 566.499 1271.866 678.606 1227.195 774.56 1227.195 850.562 1208.535 868.613 1300.626 868.613 1259.649 831.868" fill="#0c5a67"/>
        </g>
      </g>
      <g>
        <path d="M1166.344,855.229v-56.35l-33.123-71.144v-83.12l33.123-27.472,15.5,16.2-8.455,9.861-9.867-6.339,9.161,14.089,18.323-16.2-28.894-30.29-38.756,30.29-3.524,85.937-19.027-35.22-57.783-38.742-23.961-32.4V577.7l-4.933,30.29-27.484-19.019-29.6,2.818L948.4,611.253l14.992-15.946h22.55l23.255,20.428s23.959,32.4,23.959,34.516,57.08,40.855,57.08,40.855l19.732,35.923,18.321,54.239-1.408,40.152-35.653,47.193H1145.2Z" fill="#0e6e79"/>
        <g>
          <polygon points="1091.412 685.471 1038.295 648.666 1009.667 604.899 1014.13 607.987 1019.063 577.697 1019.063 614.326 1043.021 646.729 1100.807 685.471 1111.1 704.524 1091.412 685.471" fill="#0c5a67"/>
          <polygon points="1142.28 841.369 1156.946 798.879 1123.827 727.735 1128.811 644.361 1161.105 621.49 1133.221 644.615 1133.221 727.735 1166.344 798.879 1166.344 855.229 1180.18 868.613 1111.899 868.613 1142.28 841.369" fill="#0c5a67"/>
        </g>
      </g>
      <g>
        <path d="M286.936,842.156V730.763L221.461,590.127V425.817l65.475-54.3,30.644,32.025-16.716,19.5-19.5-12.533,18.11,27.851,36.217-32.026-57.113-59.877-76.617,59.877L194.994,576.2l-37.61-69.623L43.158,430-4.207,365.942V293.535l-9.75,59.876-54.328-37.6-58.509,5.571-17.094,38.479,29.632-31.518h44.577l45.971,40.381s47.365,64.052,47.365,68.23,112.832,80.761,112.832,80.761l39,71.015L211.71,695.951l-2.784,79.37-70.479,93.292h106.7Z" fill="#0e6e79"/>
        <g>
          <polygon points="138.809 506.58 33.81 433.825 -22.781 347.305 -13.957 353.411 -4.207 293.535 -4.207 365.942 43.156 429.995 157.384 506.58 177.732 544.244 138.809 506.58" fill="#0c5a67"/>
          <polygon points="239.367 814.756 268.36 730.763 202.887 590.127 212.745 425.314 276.578 380.101 221.461 425.817 221.461 590.127 286.936 730.763 286.936 842.156 314.285 868.613 179.309 868.613 239.367 814.756" fill="#0c5a67"/>
        </g>
      </g>
      <g>
        <path d="M2206.936,842.156V730.763l-65.475-140.636V425.817l65.475-54.3,30.644,32.025-16.716,19.5-19.5-12.533,18.11,27.851,36.217-32.026-57.113-59.877-76.617,59.877L2114.993,576.2l-37.609-69.623L1963.158,430l-47.365-64.053V293.535l-9.75,59.876-54.328-37.6-58.509,5.571-17.094,38.479,29.632-31.518h44.577l45.971,40.381s47.365,64.052,47.365,68.23,112.832,80.761,112.832,80.761l39,71.015,36.217,107.217-2.784,79.37-70.479,93.292h106.7Z" fill="#0e6e79"/>
        <polygon points="2058.809 506.58 1953.81 433.825 1897.219 347.305 1906.043 353.411 1915.793 293.535 1915.793 365.942 1963.155 429.995 2077.384 506.58 2097.732 544.244 2058.809 506.58" fill="#0c5a67"/>
      </g>
      <g>
        <path d="M424.112,824.452l30.173-67.858-9.7-70.407,19.4-65.309s4.31-90.969,4.31-94.2-14.008-60.9-14.008-60.9l24.86,63.074-3.308,84.49,33.4-14,19.4-42.008-6.464,35.544,29.093,2.156,19.4-9.7V561.638l8.62,28-28.017,11.85-26.939,1.077-44.179,28-14.009,62.474,11.854,61.393L476.913,808.3,501.7,868.613H397.175Z" fill="#0e6e79"/>
        <g>
          <polygon points="514.863 600.794 528.635 557.328 509.239 599.336 486.79 608.746 514.863 600.794" fill="#0c5a67"/>
          <polygon points="578.419 586.84 570.661 561.638 570.661 585.333 552.656 594.333 578.419 586.84" fill="#0c5a67"/>
          <path d="M465.058,756.594l-9.7-70.407,14.09-62.2s1.259-81.242,1.769-94.622l-16.934-63.59s14.008,57.67,14.008,60.9-4.31,94.2-4.31,94.2l-19.4,65.309,9.7,70.407-30.173,67.858-26.937,44.161h63.944l-12.887-33.378Z" fill="#0c5a67"/>
        </g>
      </g>
      <g>
        <path d="M1706.458,824.452l30.173-67.858-9.7-70.407,19.395-65.309s4.311-90.969,4.311-94.2-14.008-60.9-14.008-60.9l24.86,63.074-3.308,84.49,33.4-14,19.4-42.008-6.464,35.544,29.093,2.156,19.4-9.7V561.638l8.621,28-28.018,11.85-26.94,1.077-44.178,28-14.009,62.474,11.852,61.393-1.076,53.856,24.785,60.318H1679.521Z" fill="#0e6e79"/>
        <g>
          <polygon points="1797.21 600.794 1810.981 557.328 1791.585 599.336 1769.136 608.746 1797.21 600.794" fill="#0c5a67"/>
          <polygon points="1860.765 586.84 1853.007 561.638 1853.007 585.333 1835.001 594.333 1860.765 586.84" fill="#0c5a67"/>
          <path d="M1747.4,756.594l-9.7-70.407,14.09-62.2s1.258-81.242,1.769-94.622l-16.934-63.59s14.008,57.67,14.008,60.9-4.311,94.2-4.311,94.2l-19.395,65.309,9.7,70.407-30.173,67.858-26.937,44.161h63.944l-12.887-33.378Z" fill="#0c5a67"/>
        </g>
      </g>
    </g>
    <g>
      <g>
        <polygon points="-638.639 1100.773 1.021 1100.773 1.021 952.053 -140.989 956.222 -233.843 924.216 -319.342 936.463 -368.839 939.69 -506.164 924.216 -638.639 956.222 -638.639 1100.773" fill="#494d3f"/>
        <polygon points="-452.815 1012.496 -346.444 994.115 -248.843 1020.523 -158.214 1002.119 -64.438 1022.922 1.021 1002.066 1.021 952.053 -140.989 956.222 -233.843 924.216 -319.342 936.463 -368.839 939.69 -506.164 924.216 -638.639 956.222 -638.639 1014.663 -570.003 994.115 -452.815 1012.496" fill="#494d3f"/>
        <polygon points="-64.438 1022.922 -158.214 1002.119 -248.843 1020.523 -346.444 994.115 -452.815 1012.496 -570.003 994.115 -638.639 1002.066 -638.639 1051.381 -551.285 1029.324 -445.591 1070.933 -346.444 1029.324 -243.383 1050.129 -158.214 1029.324 -64.438 1062.931 1.021 1051.381 1.021 1002.066 -64.438 1022.922" fill="#3a3d34"/>
        <polygon points="-158.214 1029.324 -243.383 1050.129 -346.444 1029.324 -445.591 1070.933 -551.285 1029.324 -638.639 1051.381 -638.639 1100.773 1.021 1100.773 1.021 1051.381 -64.438 1062.931 -158.214 1029.324" fill="#494d3f"/>
        <polygon points="-140.989 949.289 -233.843 917.283 -319.342 929.528 -368.839 932.754 -506.164 917.283 -638.639 949.289 -638.639 975.957 -506.164 943.951 -368.839 959.425 -319.342 956.198 -233.843 943.951 -140.989 975.957 1.021 975.957 1.021 947.154 -140.989 949.289" fill="#30332b"/>
        <path d="M1.021,962.72l-143.3-.135c-.221-.063-92.459-29.394-92.459-29.394s-47,6.668-82.808,15.029l-54.987.077L-506.7,933.959l-131.937,28.673V939.785l131.519-28.85.607.064L-371.94,925.38h53.105c3.065-.708,22.1-5.094,41.3-8.929,12.291-2.454,22.26-4.207,29.626-5.213,12.907-1.763,16.426-1.178,18.5,1.056,4.814,3.082,43.367,15.044,88.626,27.491H1.021V962.72Z" fill="#0b5d6c"/>
        <path d="M-638.639,862.865l197.307-25.607,64.972,12.8s202.413-14.405,207.41-12.8S1.021,862.865,1.021,862.865v84.289H-140.573l-94.116-30.939-81.7,14.915h-60.478l-129.3-15.442-132.475,31.466Z" fill="#0d7984"/>
        <path d="M-168.95,836.865c-5-1.6-207.41,12.8-207.41,12.8l-64.972-12.8-197.307,25.6v84.685l132.614-31.082,129.236,15.368,60.462-.086,81.908-14.717,93.848,30.827,141.592-.31V862.469S-163.952,838.463-168.95,836.865Zm-207.526,83.2-130.067-15.533-132.1,29.666V872.984l197.09-25.368,64.782,12.764.87-.062c.452-.031,12.058-.856,29.564-2.075l29.987,12.635-63.5,12.609,24.571,19.234ZM1.021,934.2l-140.6,1.874-94.644-31.111-82.752,15.1,16.907-13.985-39.568-16.218,38.317-18.452-21.813-14.774c55.523-3.816,136.916-9.23,151.812-9.23.706,0,1.078.012,1.242.022,11.381,2.409,120,18.109,171.1,25.554Z" fill="#0f6d7b"/>
        <polygon points="1.021 1038.56 -16.924 1064.546 -21.762 1031.794 1.021 1038.56" fill="#3a3d34"/>
      </g>
      <g>
        <g>
          <polygon points="641.68 1100.773 1281.339 1100.773 1281.339 952.053 1139.331 956.222 1046.48 924.216 960.978 936.463 911.482 939.69 774.157 924.216 641.68 956.222 641.68 1100.773" fill="#494d3f"/>
          <polygon points="827.505 1012.496 933.876 994.115 1031.477 1020.523 1122.108 1002.119 1215.88 1022.922 1281.339 1002.066 1281.339 952.053 1139.331 956.222 1046.48 924.216 960.978 936.463 911.482 939.69 774.157 924.216 641.68 956.222 641.68 1014.663 710.315 994.115 827.505 1012.496" fill="#494d3f"/>
          <polygon points="1215.88 1031.923 1122.108 1011.12 1031.477 1029.524 933.876 1003.116 827.505 1021.496 710.315 1003.116 641.68 1011.067 641.68 1060.382 729.035 1038.324 834.73 1079.933 933.876 1038.324 1036.936 1059.13 1122.108 1038.324 1215.88 1071.932 1281.339 1060.382 1281.339 1011.067 1215.88 1031.923" fill="#3a3d34"/>
          <polygon points="1122.108 1029.324 1036.936 1050.129 933.876 1029.324 834.73 1070.933 729.035 1029.324 641.68 1051.381 641.68 1100.773 1281.339 1100.773 1281.339 1051.381 1215.88 1062.931 1122.108 1029.324" fill="#494d3f"/>
          <polygon points="1139.331 964.784 1046.48 917.283 960.978 935.456 911.482 940.245 774.157 917.283 641.68 964.784 641.68 1004.363 774.157 956.863 911.482 979.827 960.978 975.038 1046.48 956.863 1139.331 1004.363 1281.339 1004.363 1281.339 961.616 1139.331 964.784" fill="#30332b"/>
          <path d="M1281.339,985.98l-143.3-.2c-.217-.089-92.457-42.412-92.457-42.412s-47,9.621-82.809,21.686l-54.985.11L773.62,944.48,641.68,985.853V952.886L773.2,911.258l.606.093L908.378,932.1h53.106c3.068-1.022,22.1-7.351,41.306-12.884,12.29-3.541,22.257-6.07,29.624-7.523,12.9-2.543,16.428-1.7,18.5,1.525,4.814,4.446,43.368,21.707,88.628,39.666h141.794V985.98Z" fill="#0b5d6c"/>
          <path d="M641.68,866.213l197.306-28.938,64.973,14.468s202.413-16.28,207.41-14.468,169.97,28.938,169.97,28.938V961.47H1139.748l-94.117-34.965-81.7,16.856H903.457l-129.3-17.452L641.68,961.47Z" fill="#0d7984"/>
          <path d="M1111.369,836.884c-5-1.854-207.41,14.837-207.41,14.837l-64.973-14.837L641.68,866.557V964.7L774.3,928.677l129.239,17.811,60.456-.1,81.908-17.056,93.849,35.726,141.591-.359V866.557S1116.365,838.736,1111.369,836.884ZM903.844,933.307l-130.068-18-132.1,34.379V878.743l197.089-29.4,64.781,14.792.871-.072c.455-.036,12.062-.992,29.569-2.4L963.976,876.3l-63.5,14.612,24.572,22.29Zm377.495,16.378-140.6,2.173L1046.1,915.8l-82.753,17.5L980.249,917.1l-39.562-18.794L979,876.922,957.185,859.8c55.524-4.423,136.916-10.7,151.812-10.7.708,0,1.081.014,1.246.025,11.378,2.792,120,20.986,171.1,29.615Z" fill="#0f6d7b"/>
          <path d="M1022.7,861.849c0,1.662-4.686,3.01-10.467,3.01s-10.469-1.348-10.469-3.01,4.686-3.01,10.469-3.01S1022.7,860.187,1022.7,861.849Z" fill="#0f6d7b"/>
          <path d="M1070.176,867.871c0,1.662-4.686,3.007-10.469,3.007s-10.47-1.345-10.47-3.007,4.689-3.012,10.47-3.012S1070.176,866.206,1070.176,867.871Z" fill="#0f6d7b"/>
          <path d="M1175.835,892.144c0,1.663-4.687,3.01-10.469,3.01s-10.468-1.347-10.468-3.01,4.687-3.009,10.468-3.009S1175.835,890.482,1175.835,892.144Z" fill="#0f6d7b"/>
          <path d="M1196.773,903.9c0,1.662-4.684,3.009-10.469,3.009s-10.469-1.347-10.469-3.009,4.687-3.01,10.469-3.01S1196.773,902.237,1196.773,903.9Z" fill="#0f6d7b"/>
          <path d="M1122.108,871.722c0,1.663-4.687,3.013-10.469,3.013s-10.47-1.35-10.47-3.013,4.686-3.009,10.47-3.009S1122.108,870.06,1122.108,871.722Z" fill="#0f6d7b"/>
          <path d="M1051.413,874.735c0,2.277-6.428,4.125-14.355,4.125s-14.357-1.848-14.357-4.125,6.429-4.129,14.357-4.129S1051.413,872.455,1051.413,874.735Z" fill="#0f6d7b"/>
          <path d="M856.217,861.849c0,2.28-6.427,4.128-14.355,4.128s-14.357-1.848-14.357-4.128,6.427-4.128,14.357-4.128S856.217,859.569,856.217,861.849Z" fill="#0f6d7b"/>
          <path d="M715.429,894.2c0,2.278-6.427,4.126-14.352,4.126s-14.359-1.848-14.359-4.126,6.427-4.128,14.359-4.128S715.429,891.92,715.429,894.2Z" fill="#0f6d7b"/>
          <path d="M815.977,872.66c0,1.135-3.2,2.056-7.146,2.056s-7.147-.921-7.147-2.056,3.2-2.054,7.147-2.054S815.977,871.524,815.977,872.66Z" fill="#0f6d7b"/>
          <path d="M866.576,870.606c0,1.136-3.2,2.054-7.145,2.054s-7.148-.918-7.148-2.054,3.2-2.055,7.148-2.055S866.576,869.471,866.576,870.606Z" fill="#0f6d7b"/>
          <path d="M899.059,892.144c0,1.133-3.2,2.056-7.148,2.056s-7.146-.923-7.146-2.056,3.2-2.055,7.146-2.055S899.059,891.009,899.059,892.144Z" fill="#0f6d7b"/>
          <polygon points="774.196 1017.029 786.18 986.627 796.848 1017.029 774.196 1017.029" fill="#3a3d34"/>
          <polygon points="830.012 1055.686 806.236 1070.933 811.831 1038.379 830.012 1055.686" fill="#3a3d34"/>
          <polygon points="894.254 1029.324 897.023 1063.196 875.205 1045.026 894.254 1029.324" fill="#3a3d34"/>
          <polygon points="1096.033 1012.386 1098.802 1046.261 1076.984 1028.091 1096.033 1012.386" fill="#3a3d34"/>
          <polygon points="1281.339 1038.56 1263.396 1064.546 1258.555 1031.794 1281.339 1038.56" fill="#3a3d34"/>
          <polygon points="948.482 1015.858 968.949 994.115 969.249 1027.449 948.482 1015.858" fill="#3a3d34"/>
          <polygon points="1225.2 1037.983 1231.413 1004.869 1247.247 1031.322 1225.2 1037.983" fill="#3a3d34"/>
          <path d="M1034.863,974.311s7.543-5.688,9.191-5.688,12.869,5.688,12.869,5.688-14.957,4.791-15.66,4.491S1034.863,974.311,1034.863,974.311Z" fill="#3a3d34"/>
          <path d="M1196.773,1005.46s7.545-5.688,9.193-5.688,12.868,5.688,12.868,5.688-14.956,4.792-15.659,4.491S1196.773,1005.46,1196.773,1005.46Z" fill="#3a3d34"/>
          <path d="M867.41,974.449S878.608,966,881.059,966s19.105,8.445,19.105,8.445-22.207,7.112-23.249,6.669S867.41,974.449,867.41,974.449Z" fill="#3a3d34"/>
          <path d="M965.485,1058.281s8.061-6.079,9.827-6.079,13.752,6.079,13.752,6.079-15.988,5.12-16.735,4.8S965.485,1058.281,965.485,1058.281Z" fill="#3a3d34"/>
          <path d="M659.825,1063.513s8.063-6.081,9.825-6.081,30.609,6.358,30.609,6.358-32.841,4.841-33.59,4.519S659.825,1063.513,659.825,1063.513Z" fill="#3a3d34"/>
          <path d="M689.85,1071.55s15.651-3.224,16.7-3.224,18.121,3.764,18.121,3.764-19.444,2.866-19.888,2.678S689.85,1071.55,689.85,1071.55Z" fill="#3a3d34"/>
          <path d="M947.076,1070.945s5.757-4.341,7.017-4.341,9.82,4.341,9.82,4.341-11.415,3.656-11.949,3.427S947.076,1070.945,947.076,1070.945Z" fill="#3a3d34"/>
          <path d="M961.509,1078.724s5.756-4.34,7.017-4.34,9.822,4.34,9.822,4.34-11.417,3.656-11.953,3.427S961.509,1078.724,961.509,1078.724Z" fill="#3a3d34"/>
          <path d="M704.2,974.449S715.4,966,717.85,966s19.105,8.445,19.105,8.445-22.208,7.112-23.248,6.669S704.2,974.449,704.2,974.449Z" fill="#3a3d34"/>
          <path d="M862.684,990.3s-7.118,5.712-8.7,5.769-12.461-5.025-12.461-5.025,14.252-5.1,14.929-4.834S862.684,990.3,862.684,990.3Z" fill="#3a3d34"/>
          <polygon points="1003.775 994.404 1013.881 988.182 1020.692 997.96 1010.73 1004.626 1003.775 994.404" fill="#3a3d34"/>
          <polygon points="1113.649 1052.655 1123.754 1046.433 1130.564 1056.211 1120.607 1062.879 1113.649 1052.655" fill="#3a3d34"/>
          <polygon points="1128.85 1062.769 1133.726 1059.769 1137.01 1064.486 1132.205 1067.701 1128.85 1062.769" fill="#3a3d34"/>
          <polygon points="1150.712 1053.69 1155.588 1050.687 1158.875 1055.405 1154.069 1058.622 1150.712 1053.69" fill="#3a3d34"/>
          <polygon points="1190.067 1077.959 1194.942 1074.958 1198.227 1079.676 1193.422 1082.893 1190.067 1077.959" fill="#3a3d34"/>
          <polygon points="928.314 1041.026 935.559 1036.566 940.44 1043.576 933.3 1048.355 928.314 1041.026" fill="#3a3d34"/>
          <polygon points="720.577 1046.168 730.683 1039.946 737.492 1049.726 727.534 1056.392 720.577 1046.168" fill="#3a3d34"/>
        </g>
        <g>
          <polygon points="0.808 1100.773 642.128 1100.773 642.128 952.053 499.751 956.222 406.659 924.216 320.935 936.463 271.31 939.69 133.629 924.216 0.808 956.222 0.808 1100.773" fill="#494d3f"/>
          <polygon points="187.116 1012.496 293.763 994.115 391.617 1020.523 482.484 1002.119 576.499 1022.922 642.128 1002.066 642.128 952.053 499.751 956.222 406.659 924.216 320.935 936.463 271.31 939.69 133.629 924.216 0.808 956.222 0.808 1014.663 69.621 994.115 187.116 1012.496" fill="#494d3f"/>
          <polygon points="576.499 1031.923 482.484 1011.12 391.617 1029.524 293.763 1003.116 187.116 1021.496 69.621 1003.116 0.808 1011.067 0.808 1060.382 88.389 1038.324 194.359 1079.933 293.763 1038.324 397.09 1059.13 482.484 1038.324 576.499 1071.932 642.128 1060.382 642.128 1011.067 576.499 1031.923" fill="#3a3d34"/>
          <polygon points="482.484 1029.324 397.09 1050.129 293.763 1029.324 194.359 1070.933 88.389 1029.324 0.808 1051.381 0.808 1100.773 642.128 1100.773 642.128 1051.381 576.499 1062.931 482.484 1029.324" fill="#494d3f"/>
          <polygon points="499.751 964.784 406.659 917.283 320.935 935.456 271.31 940.245 133.629 917.283 0.808 964.784 0.808 1004.363 133.629 956.863 271.31 979.827 320.935 975.038 406.659 956.863 499.751 1004.363 642.128 1004.363 642.128 961.616 499.751 964.784" fill="#30332b"/>
          <path d="M642.128,985.98l-143.676-.2c-.217-.089-92.7-42.412-92.7-42.412s-47.12,9.621-83.024,21.686l-55.128.11L133.091,944.48.808,985.853V952.886L132.67,911.258l.607.093L268.2,932.1h53.244c3.075-1.022,22.161-7.351,41.413-12.884,12.322-3.541,22.315-6.07,29.7-7.523,12.939-2.543,16.471-1.7,18.551,1.525,4.827,4.446,43.481,21.707,88.859,39.666H642.128V985.98Z" fill="#0b5d6c"/>
          <path d="M.808,866.213l197.819-28.938,65.141,14.468s202.938-16.28,207.948-14.468,170.412,28.938,170.412,28.938V961.47H500.169l-94.361-34.965L323.9,943.361H263.264L133.629,925.909.808,961.47Z" fill="#0d7984"/>
          <path d="M471.716,836.884c-5.01-1.854-207.948,14.837-207.948,14.837l-65.141-14.837L.808,866.557V964.7l132.96-36.022,129.574,17.811,60.614-.1,82.121-17.056,94.092,35.726,141.959-.359V866.557S476.726,838.736,471.716,836.884ZM263.652,933.307l-130.4-18L.808,949.685V878.743l197.6-29.4,64.949,14.792.873-.072c.456-.036,12.094-.992,29.646-2.4L323.94,876.3l-63.664,14.612,24.636,22.29Zm378.476,16.378-140.965,2.173L406.274,915.8l-82.967,17.5L340.256,917.1l-39.665-18.794L339,876.922,317.132,859.8c55.668-4.423,137.271-10.7,152.207-10.7.709,0,1.083.014,1.249.025C482,851.92,590.9,870.114,642.128,878.743Z" fill="#0f6d7b"/>
          <path d="M382.819,861.849c0,1.662-4.7,3.01-10.494,3.01s-10.5-1.348-10.5-3.01,4.7-3.01,10.5-3.01S382.819,860.187,382.819,861.849Z" fill="#0f6d7b"/>
          <path d="M430.417,867.871c0,1.662-4.7,3.007-10.5,3.007s-10.5-1.345-10.5-3.007,4.7-3.012,10.5-3.012S430.417,866.206,430.417,867.871Z" fill="#0f6d7b"/>
          <path d="M536.351,892.144c0,1.663-4.7,3.01-10.5,3.01s-10.5-1.347-10.5-3.01,4.7-3.009,10.5-3.009S536.351,890.482,536.351,892.144Z" fill="#0f6d7b"/>
          <path d="M557.343,903.9c0,1.662-4.7,3.009-10.5,3.009s-10.5-1.347-10.5-3.009,4.7-3.01,10.5-3.01S557.343,902.237,557.343,903.9Z" fill="#0f6d7b"/>
          <path d="M482.484,871.722c0,1.663-4.7,3.013-10.5,3.013s-10.5-1.35-10.5-3.013,4.7-3.009,10.5-3.009S482.484,870.06,482.484,871.722Z" fill="#0f6d7b"/>
          <path d="M411.605,874.735c0,2.277-6.445,4.125-14.393,4.125s-14.393-1.848-14.393-4.125,6.445-4.129,14.393-4.129S411.605,872.455,411.605,874.735Z" fill="#0f6d7b"/>
          <path d="M215.9,861.849c0,2.28-6.443,4.128-14.392,4.128s-14.394-1.848-14.394-4.128,6.443-4.128,14.394-4.128S215.9,859.569,215.9,861.849Z" fill="#0f6d7b"/>
          <path d="M74.748,894.2c0,2.278-6.444,4.126-14.389,4.126s-14.4-1.848-14.4-4.126,6.444-4.128,14.4-4.128S74.748,891.92,74.748,894.2Z" fill="#0f6d7b"/>
          <path d="M175.557,872.66c0,1.135-3.206,2.056-7.164,2.056s-7.165-.921-7.165-2.056,3.21-2.054,7.165-2.054S175.557,871.524,175.557,872.66Z" fill="#0f6d7b"/>
          <path d="M226.288,870.606c0,1.136-3.209,2.054-7.164,2.054s-7.166-.918-7.166-2.054,3.208-2.055,7.166-2.055S226.288,869.471,226.288,870.606Z" fill="#0f6d7b"/>
          <path d="M258.855,892.144c0,1.133-3.206,2.056-7.166,2.056s-7.165-.923-7.165-2.056,3.208-2.055,7.165-2.055S258.855,891.009,258.855,892.144Z" fill="#0f6d7b"/>
          <polygon points="133.668 1017.029 145.683 986.627 156.379 1017.029 133.668 1017.029" fill="#3a3d34"/>
          <polygon points="189.629 1055.686 165.791 1070.933 171.401 1038.379 189.629 1055.686" fill="#3a3d34"/>
          <polygon points="254.038 1029.324 256.814 1063.196 234.939 1045.026 254.038 1029.324" fill="#3a3d34"/>
          <polygon points="456.341 1012.386 459.117 1046.261 437.242 1028.091 456.341 1012.386" fill="#3a3d34"/>
          <polygon points="642.128 1038.56 624.139 1064.546 619.285 1031.794 642.128 1038.56" fill="#3a3d34"/>
          <polygon points="308.407 1015.858 328.927 994.115 329.227 1027.449 308.407 1015.858" fill="#3a3d34"/>
          <polygon points="585.843 1037.983 592.072 1004.869 607.948 1031.322 585.843 1037.983" fill="#3a3d34"/>
          <path d="M395.012,974.311s7.562-5.688,9.215-5.688,12.9,5.688,12.9,5.688-15,4.791-15.7,4.491S395.012,974.311,395.012,974.311Z" fill="#3a3d34"/>
          <path d="M557.343,1005.46s7.564-5.688,9.217-5.688,12.9,5.688,12.9,5.688-14.994,4.792-15.7,4.491S557.343,1005.46,557.343,1005.46Z" fill="#3a3d34"/>
          <path d="M227.124,974.449S238.351,966,240.808,966s19.155,8.445,19.155,8.445-22.264,7.112-23.31,6.669S227.124,974.449,227.124,974.449Z" fill="#3a3d34"/>
          <path d="M325.454,1058.281s8.082-6.079,9.852-6.079,13.788,6.079,13.788,6.079-16.029,5.12-16.779,4.8S325.454,1058.281,325.454,1058.281Z" fill="#3a3d34"/>
          <path d="M19,1063.513s8.084-6.081,9.851-6.081,30.688,6.358,30.688,6.358-32.926,4.841-33.678,4.519S19,1063.513,19,1063.513Z" fill="#3a3d34"/>
          <path d="M49.1,1071.55s15.691-3.224,16.74-3.224,18.167,3.764,18.167,3.764-19.494,2.866-19.939,2.678S49.1,1071.55,49.1,1071.55Z" fill="#3a3d34"/>
          <path d="M307,1070.945s5.772-4.341,7.035-4.341,9.846,4.341,9.846,4.341-11.445,3.656-11.981,3.427S307,1070.945,307,1070.945Z" fill="#3a3d34"/>
          <path d="M321.468,1078.724s5.77-4.34,7.035-4.34,9.847,4.34,9.847,4.34-11.447,3.656-11.984,3.427S321.468,1078.724,321.468,1078.724Z" fill="#3a3d34"/>
          <path d="M63.49,974.449S74.717,966,77.175,966s19.155,8.445,19.155,8.445-22.266,7.112-23.308,6.669S63.49,974.449,63.49,974.449Z" fill="#3a3d34"/>
          <path d="M222.386,990.3s-7.137,5.712-8.724,5.769-12.494-5.025-12.494-5.025,14.289-5.1,14.969-4.834S222.386,990.3,222.386,990.3Z" fill="#3a3d34"/>
          <polygon points="363.844 994.404 373.976 988.182 380.804 997.96 370.816 1004.626 363.844 994.404" fill="#3a3d34"/>
          <polygon points="474.003 1052.655 484.134 1046.433 490.962 1056.211 480.978 1062.879 474.003 1052.655" fill="#3a3d34"/>
          <polygon points="489.243 1062.769 494.131 1059.769 497.424 1064.486 492.607 1067.701 489.243 1062.769" fill="#3a3d34"/>
          <polygon points="511.162 1053.69 516.05 1050.687 519.346 1055.405 514.527 1058.622 511.162 1053.69" fill="#3a3d34"/>
          <polygon points="550.619 1077.959 555.507 1074.958 558.8 1079.676 553.983 1082.893 550.619 1077.959" fill="#3a3d34"/>
          <polygon points="288.186 1041.026 295.45 1036.566 300.344 1043.576 293.185 1048.355 288.186 1041.026" fill="#3a3d34"/>
          <polygon points="79.91 1046.168 90.042 1039.946 96.869 1049.726 86.885 1056.392 79.91 1046.168" fill="#3a3d34"/>
        </g>
        <g>
          <polygon points="1280.066 1100.773 1919.725 1100.773 1919.725 952.053 1777.717 956.222 1684.866 924.216 1599.365 936.463 1549.868 939.69 1412.544 924.216 1280.066 956.222 1280.066 1100.773" fill="#494d3f"/>
          <polygon points="1465.891 1012.496 1572.262 994.115 1669.863 1020.523 1760.495 1002.119 1854.267 1022.922 1919.725 1002.066 1919.725 952.053 1777.717 956.222 1684.866 924.216 1599.365 936.463 1549.868 939.69 1412.544 924.216 1280.066 956.222 1280.066 1014.663 1348.701 994.115 1465.891 1012.496" fill="#494d3f"/>
          <polygon points="1854.267 1031.923 1760.495 1011.12 1669.863 1029.524 1572.262 1003.116 1465.891 1021.496 1348.701 1003.116 1280.066 1011.067 1280.066 1060.382 1367.421 1038.324 1473.116 1079.933 1572.262 1038.324 1675.322 1059.13 1760.495 1038.324 1854.267 1071.932 1919.725 1060.382 1919.725 1011.067 1854.267 1031.923" fill="#3a3d34"/>
          <polygon points="1760.495 1029.324 1675.322 1050.129 1572.262 1029.324 1473.116 1070.933 1367.421 1029.324 1280.066 1051.381 1280.066 1100.773 1919.725 1100.773 1919.725 1051.381 1854.267 1062.931 1760.495 1029.324" fill="#494d3f"/>
          <polygon points="1777.717 964.784 1684.866 917.283 1599.365 935.456 1549.868 940.245 1412.544 917.283 1280.066 964.784 1280.066 1004.363 1412.544 956.863 1549.868 979.827 1599.365 975.038 1684.866 956.863 1777.717 1004.363 1919.725 1004.363 1919.725 961.616 1777.717 964.784" fill="#30332b"/>
          <path d="M1919.725,985.98l-143.3-.2c-.217-.089-92.458-42.412-92.458-42.412s-47,9.621-82.809,21.686l-54.985.11L1412.007,944.48l-131.941,41.373V952.886l131.521-41.628.605.093L1546.765,932.1h53.106c3.067-1.022,22.1-7.351,41.306-12.884,12.29-3.541,22.257-6.07,29.623-7.523,12.9-2.543,16.428-1.7,18.5,1.525,4.814,4.446,43.368,21.707,88.628,39.666h141.794V985.98Z" fill="#0b5d6c"/>
          <path d="M1280.066,866.213l197.307-28.938,64.972,14.468s202.413-16.28,207.41-14.468,169.97,28.938,169.97,28.938V961.47H1778.134l-94.117-34.965-81.7,16.856h-60.477l-129.3-17.452L1280.066,961.47Z" fill="#0d7984"/>
          <path d="M1749.755,836.884c-5-1.854-207.41,14.837-207.41,14.837l-64.972-14.837-197.307,29.673V964.7l132.617-36.022,129.238,17.811,60.457-.1,81.908-17.056,93.848,35.726,141.591-.359V866.557S1754.752,838.736,1749.755,836.884ZM1542.23,933.307l-130.067-18-132.1,34.379V878.743l197.09-29.4,64.781,14.792.871-.072c.454-.036,12.062-.992,29.568-2.4l29.986,14.643-63.5,14.612,24.572,22.29Zm377.495,16.378-140.6,2.173L1684.482,915.8l-82.752,17.5,16.906-16.207-39.563-18.794,38.314-21.384L1595.572,859.8c55.523-4.423,136.915-10.7,151.812-10.7.707,0,1.08.014,1.245.025,11.379,2.792,120,20.986,171.1,29.615Z" fill="#0f6d7b"/>
          <path d="M1661.087,861.849c0,1.662-4.686,3.01-10.466,3.01s-10.47-1.348-10.47-3.01,4.686-3.01,10.47-3.01S1661.087,860.187,1661.087,861.849Z" fill="#0f6d7b"/>
          <path d="M1708.563,867.871c0,1.662-4.686,3.007-10.47,3.007s-10.47-1.345-10.47-3.007,4.69-3.012,10.47-3.012S1708.563,866.206,1708.563,867.871Z" fill="#0f6d7b"/>
          <path d="M1814.222,892.144c0,1.663-4.688,3.01-10.47,3.01s-10.468-1.347-10.468-3.01,4.688-3.009,10.468-3.009S1814.222,890.482,1814.222,892.144Z" fill="#0f6d7b"/>
          <path d="M1835.16,903.9c0,1.662-4.685,3.009-10.47,3.009s-10.468-1.347-10.468-3.009,4.686-3.01,10.468-3.01S1835.16,902.237,1835.16,903.9Z" fill="#0f6d7b"/>
          <path d="M1760.5,871.722c0,1.663-4.688,3.013-10.47,3.013s-10.47-1.35-10.47-3.013,4.686-3.009,10.47-3.009S1760.5,870.06,1760.5,871.722Z" fill="#0f6d7b"/>
          <path d="M1689.8,874.735c0,2.277-6.428,4.125-14.355,4.125s-14.357-1.848-14.357-4.125,6.429-4.129,14.357-4.129S1689.8,872.455,1689.8,874.735Z" fill="#0f6d7b"/>
          <path d="M1494.6,861.849c0,2.28-6.426,4.128-14.355,4.128s-14.357-1.848-14.357-4.128,6.427-4.128,14.357-4.128S1494.6,859.569,1494.6,861.849Z" fill="#0f6d7b"/>
          <path d="M1353.815,894.2c0,2.278-6.427,4.126-14.352,4.126s-14.358-1.848-14.358-4.126,6.426-4.128,14.358-4.128S1353.815,891.92,1353.815,894.2Z" fill="#0f6d7b"/>
          <path d="M1454.363,872.66c0,1.135-3.2,2.056-7.146,2.056s-7.146-.921-7.146-2.056,3.2-2.054,7.146-2.054S1454.363,871.524,1454.363,872.66Z" fill="#0f6d7b"/>
          <path d="M1504.962,870.606c0,1.136-3.2,2.054-7.144,2.054s-7.148-.918-7.148-2.054,3.2-2.055,7.148-2.055S1504.962,869.471,1504.962,870.606Z" fill="#0f6d7b"/>
          <path d="M1537.445,892.144c0,1.133-3.2,2.056-7.147,2.056s-7.147-.923-7.147-2.056,3.2-2.055,7.147-2.055S1537.445,891.009,1537.445,892.144Z" fill="#0f6d7b"/>
          <polygon points="1412.583 1017.029 1424.567 986.627 1435.235 1017.029 1412.583 1017.029" fill="#3a3d34"/>
          <polygon points="1468.398 1055.686 1444.623 1070.933 1450.217 1038.379 1468.398 1055.686" fill="#3a3d34"/>
          <polygon points="1532.641 1029.324 1535.41 1063.196 1513.591 1045.026 1532.641 1029.324" fill="#3a3d34"/>
          <polygon points="1734.419 1012.386 1737.189 1046.261 1715.37 1028.091 1734.419 1012.386" fill="#3a3d34"/>
          <polygon points="1919.725 1038.56 1901.782 1064.546 1896.942 1031.794 1919.725 1038.56" fill="#3a3d34"/>
          <polygon points="1586.869 1015.858 1607.335 994.115 1607.635 1027.449 1586.869 1015.858" fill="#3a3d34"/>
          <polygon points="1863.586 1037.983 1869.799 1004.869 1885.634 1031.322 1863.586 1037.983" fill="#3a3d34"/>
          <path d="M1673.249,974.311s7.543-5.688,9.192-5.688,12.869,5.688,12.869,5.688-14.958,4.791-15.66,4.491S1673.249,974.311,1673.249,974.311Z" fill="#3a3d34"/>
          <path d="M1835.16,1005.46s7.544-5.688,9.193-5.688,12.867,5.688,12.867,5.688-14.956,4.792-15.659,4.491S1835.16,1005.46,1835.16,1005.46Z" fill="#3a3d34"/>
          <path d="M1505.8,974.449s11.2-8.445,13.649-8.445,19.106,8.445,19.106,8.445-22.207,7.112-23.25,6.669S1505.8,974.449,1505.8,974.449Z" fill="#3a3d34"/>
          <path d="M1603.872,1058.281s8.061-6.079,9.826-6.079,13.753,6.079,13.753,6.079-15.988,5.12-16.736,4.8S1603.872,1058.281,1603.872,1058.281Z" fill="#3a3d34"/>
          <path d="M1298.212,1063.513s8.062-6.081,9.825-6.081,30.608,6.358,30.608,6.358-32.841,4.841-33.59,4.519S1298.212,1063.513,1298.212,1063.513Z" fill="#3a3d34"/>
          <path d="M1328.236,1071.55s15.651-3.224,16.7-3.224,18.12,3.764,18.12,3.764-19.444,2.866-19.887,2.678S1328.236,1071.55,1328.236,1071.55Z" fill="#3a3d34"/>
          <path d="M1585.462,1070.945s5.757-4.341,7.017-4.341,9.821,4.341,9.821,4.341-11.416,3.656-11.95,3.427S1585.462,1070.945,1585.462,1070.945Z" fill="#3a3d34"/>
          <path d="M1599.9,1078.724s5.756-4.34,7.017-4.34,9.822,4.34,9.822,4.34-11.417,3.656-11.952,3.427S1599.9,1078.724,1599.9,1078.724Z" fill="#3a3d34"/>
          <path d="M1342.587,974.449s11.2-8.445,13.649-8.445,19.106,8.445,19.106,8.445-22.209,7.112-23.249,6.669S1342.587,974.449,1342.587,974.449Z" fill="#3a3d34"/>
          <path d="M1501.071,990.3s-7.119,5.712-8.7,5.769-12.462-5.025-12.462-5.025,14.252-5.1,14.929-4.834S1501.071,990.3,1501.071,990.3Z" fill="#3a3d34"/>
          <polygon points="1642.162 994.404 1652.268 988.182 1659.079 997.96 1649.116 1004.626 1642.162 994.404" fill="#3a3d34"/>
          <polygon points="1752.036 1052.655 1762.14 1046.433 1768.951 1056.211 1758.993 1062.879 1752.036 1052.655" fill="#3a3d34"/>
          <polygon points="1767.237 1062.769 1772.112 1059.769 1775.396 1064.486 1770.591 1067.701 1767.237 1062.769" fill="#3a3d34"/>
          <polygon points="1789.099 1053.69 1793.974 1050.687 1797.261 1055.405 1792.455 1058.622 1789.099 1053.69" fill="#3a3d34"/>
          <polygon points="1828.454 1077.959 1833.329 1074.958 1836.613 1079.676 1831.808 1082.893 1828.454 1077.959" fill="#3a3d34"/>
          <polygon points="1566.7 1041.026 1573.945 1036.566 1578.827 1043.576 1571.686 1048.355 1566.7 1041.026" fill="#3a3d34"/>
          <polygon points="1358.963 1046.168 1369.069 1039.946 1375.878 1049.726 1365.921 1056.392 1358.963 1046.168" fill="#3a3d34"/>
        </g>
      </g>
    </g>
  </g>
</svg>
