<svg xmlns="http://www.w3.org/2000/svg" xmlns:xlink="http://www.w3.org/1999/xlink" width="1920" height="1080" viewBox="0 0 1920 1080">
  <defs>
    <linearGradient id="a" x1="114.302" y1="1089.771" x2="114.302" y2="1.305" gradientUnits="userSpaceOnUse">
      <stop offset="0.122" stop-color="#fff"/>
      <stop offset="0.269" stop-color="#e1f3f4"/>
      <stop offset="0.423" stop-color="#caeaeb"/>
      <stop offset="0.588" stop-color="#b9e3e5"/>
      <stop offset="0.77" stop-color="#afdfe1"/>
      <stop offset="1" stop-color="#acdee0"/>
    </linearGradient>
  </defs>
  <g>
    <rect x="-1700.564" y="1.305" width="3629.732" height="1088.466" fill="url(#a)"/>
    <path d="M-1261.277,746.683c352.841,0,419.293-276.78,781.846-276.78S-54.636,787.965,358.456,787.965s423.813-417.5,726.14-417.5c239.209,0,293.364,271.289,484.34,301.277,92.681,14.553,173.107-105.7,396,36.766,0,152.314,13.253,368.8,13.253,368.8H-1261.277Z" fill="#69bfd6"/>
    <path d="M-1700.564,833.973c23.143,0,214.991-13.816,214.991-13.816l21.4-58.67,199.417-16.594,16.553,7.938-16.147,12.742,53.648,5.241,58.262,27.937,353.62-22.723,154.565,57.945,18.419-93.276,18.946-17.949-11.466-19.928L-206.3,811.66l183.83-6.128L40.851,760.6V729.957L28.6,699.319l10.213-28.6L30.638,627.83l46.979-65.362L114.3,547.81l153.6,58.648,53.976,44.531-38.732,4.717L351.831,675.7l16.876,13.923-23.232,9.735,45.418,8.572,66.06,54.5,290.64-8.958L759.721,739.3l34.153-10.73-22.638-2.728,13.219-15.45,28.03-10.651-2.615-19.055,251.837-5.033,71.987,65.924,243.038,17.556,81.033-120.205,42.189-15.531-22.148-14.2,26.026-38.609h146.516l12.266,34.068-19.072,22.034,14.369,8.8-.758,18.466-10.334,11.517,9.41,11.059-1.239,30.226-14.724,7.091,13.938,12.087-1.456,35.553,276.42,72.486v255.8H-1700.564Z" fill="#3fa2b5"/>
    <polyline points="1713.702 811.66 1897.532 805.532 1960.851 760.596 1960.851 729.957 1948.596 699.319 1958.809 670.723 1950.638 627.83 1997.617 562.468 2034.303 547.81 2187.905 606.458 2241.881 650.989 2203.149 655.706 2271.831 675.7 2288.707 689.623 2265.475 699.358 2310.893 707.93 2376.953 762.431 2667.593 753.473 2679.721 739.297 2713.874 728.567 2691.236 725.839 2704.455 710.389 2732.485 699.738 2729.87 680.683 2981.707 675.65 3053.694 741.574 3296.732 759.13 3377.765 638.925 3419.954 623.394 3397.806 609.192 3423.833 570.583 3570.348 570.583 3582.614 604.651 3563.542 626.685 3577.911 635.488 3577.153 653.954 3566.819 665.471 3576.229 676.53 3574.99 706.756 3560.266 713.847 3574.204 725.934 3572.748 761.487 3849.168 833.973 3849.168 1089.771" fill="#3fa2b5"/>
    <g>
      <path d="M1595.731,586.1l-17.519,96.907,17.519,46.22L1573.2,805.254l5.075,62.028L1573.2,908.9s23.634,43.33,18.786,42.127-41.017,3.046-41.017,3.046-1.128-53.325.9-58.385,11.171-32.467,11.171-32.467l-6.093-62.934,26.413-69.028-14.229-49.738Z" fill="#3794a9"/>
      <path d="M619.549,320.8l20.624,136.9L626.124,566.128l14.045,171.53-7.384,90.189L611.9,889.018s-42.269,66.767-35.221,65.021,95.811,0,95.811,0,1.641-77.533-1.311-84.889-16.244-47.207-16.244-47.207l8.861-91.509L644.107,569.079l9.266-113.54Z" fill="#3794a9"/>
      <path d="M874.405,954.073l16-47.538-36.517-16.421,36.517,6.853,5.331-35.3-4.571-65.374L911.731,742.4,906.4,681.492s-19.044-22.841-16.759-21.318,17.369,13.705,17.369,13.705V624.388l9.106,64.719,5.517,53.3-19.045,60.15,3.812,53.3L930.013,838,942.2,810.929,934.582,838l-9.36,14.044,10.884,3.808-19.99,1.522-9.106,9.9,9.106,49.33,22.273,37.471Z" fill="#3794a9"/>
      <path d="M1396.931,954.073c-.3-.02,9.241-34.966,9.241-34.966l-11.658-36.554,11.658-22.249V825.87l-21.142-38.144.226-21.191,2.9,17.483,8.777,18.012,9.241-16.952-5.3,20.395,12.453,14.3,47.966-19.337,21.2-22.78,6.739-19.6-8.862-11.654,13.252,10.86L1486.2,781.9l-21.045,23.744L1441.2,816.48l29.351,10.978,9.82-2.648-9.82,7.416-33.485-11.389-18.451,14s.81,21.5.81,21.628-5.559,29.8-5.559,29.8l15.1,30.344,12.028,37.467Z" fill="#3794a9"/>
      <path d="M67.26,964.285c-.3-.019,9.243-34.965,9.243-34.965L64.844,892.766,76.5,870.517V836.083L55.36,797.939l.226-21.191,2.9,17.482,8.776,18.013L76.5,795.29l-5.3,20.4,12.454,14.3,47.964-19.337,21.2-22.78,6.738-19.6-8.86-11.654,13.25,10.86-7.418,24.634-21.047,23.744-23.958,10.837,29.35,10.978,9.823-2.648-9.823,7.415L107.394,831.05l-18.453,14s.812,21.5.812,21.629-5.561,29.8-5.561,29.8l15.1,30.344,12.027,37.466Z" fill="#3794a9"/>
    </g>
    <g>
      <g>
        <path d="M1236.768,196.973c0,21.272-56.736,38.516-126.728,38.516s-126.727-17.244-126.727-38.516,56.738-38.514,126.727-38.514S1236.768,175.7,1236.768,196.973Z" fill="#fff"/>
        <path d="M1110.04,225.122c-51.9,0-97.369-7.369-122.642-18.415,14.187,16.558,63.718,30.042,122.642,30.042s108.456-13.484,122.643-30.042C1207.413,217.753,1161.941,225.122,1110.04,225.122Z" fill="#8accdd"/>
      </g>
      <g>
        <path d="M1710.064,265.262c0,20.738-55.311,37.549-123.543,37.549S1462.974,286,1462.974,265.262s55.315-37.546,123.547-37.546S1710.064,244.526,1710.064,265.262Z" fill="#fff"/>
        <path d="M1586.521,292.705c-50.6,0-94.925-7.185-119.565-17.954,13.831,16.143,62.119,29.289,119.565,29.289s105.729-13.146,119.56-29.289C1681.447,285.52,1637.116,292.705,1586.521,292.705Z" fill="#8accdd"/>
      </g>
      <g>
        <path d="M1856.12,168.925c0,17.892-47.722,32.4-106.592,32.4s-106.594-14.5-106.594-32.4,47.724-32.4,106.594-32.4S1856.12,151.033,1856.12,168.925Z" fill="#fff"/>
        <path d="M1749.528,192.6c-43.657,0-81.9-6.2-103.159-15.489,11.933,13.927,53.6,25.269,103.159,25.269s91.222-11.342,103.155-25.269C1831.428,186.4,1793.18,192.6,1749.528,192.6Z" fill="#8accdd"/>
      </g>
      <g>
        <path d="M580.927,240.735c0,20.782-55.43,37.628-123.809,37.628s-123.811-16.846-123.811-37.628,55.435-37.627,123.811-37.627S580.927,219.954,580.927,240.735Z" fill="#fff"/>
        <path d="M457.118,268.236c-50.7,0-95.126-7.2-119.819-17.992C351.16,266.421,399.55,279.6,457.118,279.6s105.957-13.174,119.818-29.351C552.248,261.036,507.824,268.236,457.118,268.236Z" fill="#8accdd"/>
      </g>
      <g>
        <path d="M724.9,162.19c0,13.312-35.506,24.1-79.305,24.1s-79.309-10.791-79.309-24.1,35.509-24.1,79.309-24.1S724.9,148.878,724.9,162.19Z" fill="#fff"/>
        <path d="M645.592,179.805c-32.481,0-60.936-4.612-76.752-11.524,8.877,10.362,39.874,18.8,76.752,18.8s67.871-8.438,76.749-18.8C706.527,175.193,678.071,179.805,645.592,179.805Z" fill="#8accdd"/>
      </g>
      <g>
        <path d="M278.21,137.692c0,13.312-35.5,24.1-79.306,24.1S119.6,151,119.6,137.692s35.509-24.1,79.307-24.1S278.21,124.381,278.21,137.692Z" fill="#fff"/>
        <path d="M198.9,155.308c-32.479,0-60.933-4.612-76.75-11.524,8.878,10.362,39.874,18.8,76.75,18.8s67.872-8.438,76.751-18.8C259.841,150.7,231.384,155.308,198.9,155.308Z" fill="#8accdd"/>
      </g>
    </g>
    <g>
      <g>
        <path d="M1227.2,946.205v-76l44.671-95.954V662.142L1227.2,625.09l-20.909,21.851,11.4,13.3L1231,651.691l-12.355,19-24.711-21.849L1232.9,607.99l52.272,40.853,4.754,115.905,25.66-47.5,77.935-52.252,32.316-43.7v-49.4l6.653,40.853,37.068-25.651,39.92,3.8,11.661,26.255-20.218-21.5h-30.414l-31.363,27.55s-32.317,43.7-32.317,46.553-76.984,55.1-76.984,55.1L1303.229,773.3l-24.711,73.154,1.9,54.153,48.087,63.652h-72.8Z" fill="#0e6e79"/>
        <g>
          <polygon points="1328.259 717.244 1399.9 667.606 1438.511 608.575 1432.49 612.741 1425.837 571.888 1425.837 621.29 1393.524 664.992 1315.586 717.244 1301.704 742.942 1328.259 717.244" fill="#0c5a67"/>
          <polygon points="1259.649 927.51 1239.868 870.202 1284.539 774.248 1277.814 661.799 1234.261 630.951 1271.866 662.142 1271.866 774.248 1227.195 870.202 1227.195 946.205 1208.535 964.256 1300.626 964.256 1259.649 927.51" fill="#0c5a67"/>
        </g>
      </g>
      <g>
        <path d="M1166.344,950.871v-56.35l-33.123-71.144v-83.12l33.123-27.471,15.5,16.2-8.455,9.862-9.867-6.34,9.161,14.089,18.323-16.2-28.894-30.29-38.756,30.29-3.524,85.937-19.027-35.221-57.783-38.742-23.961-32.4V673.34l-4.933,30.289L986.646,684.61l-29.6,2.818L948.4,706.9l14.992-15.946h22.55l23.255,20.428s23.959,32.4,23.959,34.517,57.08,40.854,57.08,40.854l19.732,35.924,18.321,54.238-1.408,40.152-35.653,47.194H1145.2Z" fill="#0e6e79"/>
        <g>
          <polygon points="1091.412 781.113 1038.295 744.308 1009.667 700.541 1014.13 703.629 1019.063 673.34 1019.063 709.969 1043.021 742.371 1100.807 781.113 1111.1 800.166 1091.412 781.113" fill="#0c5a67"/>
          <polygon points="1142.28 937.011 1156.946 894.521 1123.827 823.377 1128.811 740.003 1161.105 717.132 1133.221 740.257 1133.221 823.377 1166.344 894.521 1166.344 950.871 1180.18 964.256 1111.899 964.256 1142.28 937.011" fill="#0c5a67"/>
        </g>
      </g>
      <g>
        <path d="M286.936,937.8V826.405L221.461,685.769V521.46l65.475-54.305L317.58,499.18l-16.716,19.495-19.5-12.532,18.11,27.851,36.217-32.027-57.113-59.876-76.617,59.876-6.965,169.879-37.61-69.624L43.158,525.637-4.207,461.584V389.178l-9.75,59.875-54.328-37.6-58.509,5.571-17.094,38.48,29.632-31.518h44.577l45.971,40.381S23.657,528.422,23.657,532.6s112.832,80.761,112.832,80.761l39,71.016L211.71,791.593l-2.784,79.371-70.479,93.292h106.7Z" fill="#0e6e79"/>
        <g>
          <polygon points="138.809 602.222 33.81 529.467 -22.781 442.947 -13.957 449.053 -4.207 389.178 -4.207 461.584 43.156 525.637 157.384 602.222 177.732 639.886 138.809 602.222" fill="#0c5a67"/>
          <polygon points="239.367 910.398 268.36 826.405 202.887 685.769 212.745 520.956 276.578 475.744 221.461 521.46 221.461 685.769 286.936 826.405 286.936 937.798 314.285 964.256 179.309 964.256 239.367 910.398" fill="#0c5a67"/>
        </g>
      </g>
      <g>
        <path d="M2206.936,937.8V826.405l-65.475-140.636V521.46l65.475-54.305,30.644,32.025-16.716,19.495-19.5-12.532,18.11,27.851,36.217-32.027-57.113-59.876-76.617,59.876-6.966,169.879-37.609-69.624-114.226-76.585-47.365-64.053V389.178l-9.75,59.875-54.328-37.6-58.509,5.571-17.094,38.48,29.632-31.518h44.577l45.971,40.381s47.365,64.051,47.365,68.229,112.832,80.761,112.832,80.761l39,71.016,36.217,107.216-2.784,79.371-70.479,93.292h106.7Z" fill="#0e6e79"/>
        <polygon points="2058.809 602.222 1953.81 529.467 1897.219 442.947 1906.043 449.053 1915.793 389.178 1915.793 461.584 1963.155 525.637 2077.384 602.222 2097.732 639.886 2058.809 602.222" fill="#0c5a67"/>
      </g>
      <g>
        <path d="M424.112,920.094l30.173-67.858-9.7-70.407,19.4-65.308s4.31-90.97,4.31-94.2-14.008-60.9-14.008-60.9l24.86,63.073-3.308,84.49,33.4-14,19.4-42.007-6.464,35.544,29.093,2.155,19.4-9.695v-23.7l8.62,28-28.017,11.85-26.939,1.077-44.179,28-14.009,62.474,11.854,61.393-1.078,53.856L501.7,964.256H397.175Z" fill="#0e6e79"/>
        <g>
          <polygon points="514.863 696.437 528.635 652.971 509.239 694.978 486.79 704.388 514.863 696.437" fill="#0c5a67"/>
          <polygon points="578.419 682.482 570.661 657.28 570.661 680.975 552.656 689.975 578.419 682.482" fill="#0c5a67"/>
          <path d="M465.058,852.236l-9.7-70.407,14.09-62.2s1.259-81.242,1.769-94.622l-16.934-63.59s14.008,57.67,14.008,60.9-4.31,94.2-4.31,94.2l-19.4,65.308,9.7,70.407-30.173,67.858-26.937,44.162h63.944l-12.887-33.379Z" fill="#0c5a67"/>
        </g>
      </g>
      <g>
        <path d="M1706.458,920.094l30.173-67.858-9.7-70.407,19.395-65.308s4.311-90.97,4.311-94.2-14.008-60.9-14.008-60.9l24.86,63.073-3.308,84.49,33.4-14,19.4-42.007-6.464,35.544,29.093,2.155,19.4-9.695v-23.7l8.621,28-28.018,11.85-26.94,1.077-44.178,28-14.009,62.474,11.852,61.393-1.076,53.856,24.785,60.319H1679.521Z" fill="#0e6e79"/>
        <g>
          <polygon points="1797.21 696.437 1810.981 652.971 1791.585 694.978 1769.136 704.388 1797.21 696.437" fill="#0c5a67"/>
          <polygon points="1860.765 682.482 1853.007 657.28 1853.007 680.975 1835.001 689.975 1860.765 682.482" fill="#0c5a67"/>
          <path d="M1747.4,852.236l-9.7-70.407,14.09-62.2s1.258-81.242,1.769-94.622l-16.934-63.59s14.008,57.67,14.008,60.9-4.311,94.2-4.311,94.2l-19.395,65.308,9.7,70.407-30.173,67.858-26.937,44.162h63.944l-12.887-33.379Z" fill="#0c5a67"/>
        </g>
      </g>
    </g>
    <g>
      <g>
        <polygon points="-638.639 1085.771 1.021 1085.771 1.021 994.651 -140.989 997.205 -233.843 977.596 -319.342 985.099 -368.839 987.076 -506.164 977.596 -638.639 997.205 -638.639 1085.771" fill="#494d3f"/>
        <polygon points="-452.815 1031.684 -346.444 1020.423 -248.843 1036.603 -158.214 1025.326 -64.438 1038.073 1.021 1025.294 1.021 994.651 -140.989 997.205 -233.843 977.596 -319.342 985.099 -368.839 987.076 -506.164 977.596 -638.639 997.205 -638.639 1033.012 -570.003 1020.423 -452.815 1031.684" fill="#494d3f"/>
        <polygon points="-64.438 1038.073 -158.214 1025.326 -248.843 1036.603 -346.444 1020.423 -452.815 1031.684 -570.003 1020.423 -638.639 1025.294 -638.639 1055.509 -551.285 1041.995 -445.591 1067.488 -346.444 1041.995 -243.383 1054.742 -158.214 1041.995 -64.438 1062.586 1.021 1055.509 1.021 1025.294 -64.438 1038.073" fill="#3a3d34"/>
        <polygon points="-158.214 1041.995 -243.383 1054.742 -346.444 1041.995 -445.591 1067.488 -551.285 1041.995 -638.639 1055.509 -638.639 1085.771 1.021 1085.771 1.021 1055.509 -64.438 1062.586 -158.214 1041.995" fill="#494d3f"/>
        <polygon points="-140.989 992.958 -233.843 973.348 -319.342 980.85 -368.839 982.827 -506.164 973.348 -638.639 992.958 -638.639 1009.297 -506.164 989.688 -368.839 999.168 -319.342 997.191 -233.843 989.688 -140.989 1009.297 1.021 1009.297 1.021 991.65 -140.989 992.958" fill="#30332b"/>
        <path d="M1.021,1001.187l-143.3-.083c-.221-.038-92.459-18.009-92.459-18.009s-47,4.085-82.808,9.208l-54.987.047L-506.7,983.565l-131.937,17.568v-14l131.519-17.677.607.04,134.573,8.811h53.105c3.065-.434,22.1-3.121,41.3-5.471,12.291-1.5,22.26-2.577,29.626-3.194,12.907-1.08,16.426-.722,18.5.647,4.814,1.888,43.367,9.218,88.626,16.844H1.021v14.052Z" fill="#0b5d6c"/>
        <path d="M-638.639,940.006l197.307-15.689,64.972,7.844s202.413-8.826,207.41-7.844S1.021,940.006,1.021,940.006V991.65H-140.573l-94.116-18.956-81.7,9.138h-60.478l-129.3-9.461L-638.639,991.65Z" fill="#0d7984"/>
        <path d="M-168.95,924.076c-5-.98-207.41,7.844-207.41,7.844l-64.972-7.844-197.307,15.688V991.65l132.614-19.044,129.236,9.416,60.462-.053,81.908-9.017,93.848,18.888,141.592-.19V939.764S-163.952,925.055-168.95,924.076Zm-207.526,50.977-130.067-9.517-132.1,18.177V946.206l197.09-15.543,64.782,7.821.87-.038c.452-.019,12.058-.525,29.564-1.272l29.987,7.742-63.5,7.725,24.571,11.785Zm377.5,8.66-140.6,1.148L-234.224,965.8l-82.752,9.253,16.907-8.568-39.568-9.936,38.317-11.306-21.813-9.052c55.523-2.338,136.916-5.655,151.812-5.655.706,0,1.078.007,1.242.013,11.381,1.476,120,11.1,171.1,15.657Z" fill="#0f6d7b"/>
        <polygon points="1.021 1047.654 -16.924 1063.575 -21.762 1043.508 1.021 1047.654" fill="#3a3d34"/>
      </g>
      <g>
        <g>
          <polygon points="1.021 1085.771 640.68 1085.771 640.68 994.651 498.674 997.205 405.82 977.596 320.32 985.099 270.822 987.076 133.497 977.596 1.021 997.205 1.021 1085.771" fill="#494d3f"/>
          <polygon points="186.848 1031.684 293.216 1020.423 390.817 1036.603 481.448 1025.326 575.223 1038.073 640.68 1025.294 640.68 994.651 498.674 997.205 405.82 977.596 320.32 985.099 270.822 987.076 133.497 977.596 1.021 997.205 1.021 1033.012 69.656 1020.423 186.848 1031.684" fill="#494d3f"/>
          <polygon points="575.223 1038.073 481.448 1025.326 390.817 1036.603 293.216 1020.423 186.848 1031.684 69.656 1020.423 1.021 1025.294 1.021 1055.509 88.376 1041.995 194.069 1067.488 293.216 1041.995 396.276 1054.742 481.448 1041.995 575.223 1062.586 640.68 1055.509 640.68 1025.294 575.223 1038.073" fill="#3a3d34"/>
          <polygon points="481.448 1041.995 396.276 1054.742 293.216 1041.995 194.069 1067.488 88.376 1041.995 1.021 1055.509 1.021 1085.771 640.68 1085.771 640.68 1055.509 575.223 1062.586 481.448 1041.995" fill="#494d3f"/>
          <polygon points="498.674 992.958 405.82 973.348 320.32 980.85 270.822 982.827 133.497 973.348 1.021 992.958 1.021 1009.297 133.497 989.688 270.822 999.168 320.32 997.191 405.82 989.688 498.674 1009.297 640.68 1009.297 640.68 991.65 498.674 992.958" fill="#30332b"/>
          <path d="M640.68,1001.187l-143.3-.083c-.219-.038-92.458-18.009-92.458-18.009s-47,4.085-82.809,9.208l-54.985.047L132.96,983.565,1.021,1001.133v-14L132.54,969.458l.607.04,134.573,8.811h53.1c3.067-.434,22.1-3.121,41.306-5.471,12.292-1.5,22.259-2.577,29.625-3.194,12.907-1.08,16.428-.722,18.5.647,4.814,1.888,43.37,9.218,88.63,16.844H640.68v14.052Z" fill="#0b5d6c"/>
          <path d="M1.021,940.006l197.308-15.689,64.971,7.844s202.413-8.826,207.41-7.844,169.97,15.689,169.97,15.689V991.65H499.089l-94.117-18.956-81.7,9.138H262.8l-129.3-9.461L1.021,991.65Z" fill="#0d7984"/>
          <path d="M470.71,924.076c-5-.98-207.41,7.844-207.41,7.844l-64.971-7.844L1.021,939.764V991.65l132.615-19.044,129.238,9.416,60.459-.053,81.908-9.017,93.848,18.888,141.591-.19V939.764S475.708,925.055,470.71,924.076ZM263.185,975.053l-130.069-9.517L1.021,983.713V946.206l197.091-15.543,64.781,7.821.87-.038c.454-.019,12.06-.525,29.567-1.272l29.987,7.742-63.5,7.725,24.574,11.785Zm377.495,8.66-140.6,1.148L405.437,965.8l-82.752,9.253,16.906-8.568-39.564-9.936,38.313-11.306-21.813-9.052c55.522-2.338,136.916-5.655,151.813-5.655.707,0,1.077.007,1.243.013,11.378,1.476,120,11.1,171.1,15.657Z" fill="#0f6d7b"/>
          <path d="M382.043,939.384c0,1.018-4.687,1.844-10.467,1.844s-10.471-.826-10.471-1.844,4.687-1.844,10.471-1.844S382.043,938.365,382.043,939.384Z" fill="#0f6d7b"/>
          <path d="M429.516,943.073c0,1.019-4.685,1.843-10.466,1.843s-10.47-.824-10.47-1.843,4.686-1.845,10.47-1.845S429.516,942.053,429.516,943.073Z" fill="#0f6d7b"/>
          <path d="M535.177,957.946c0,1.018-4.686,1.844-10.468,1.844s-10.47-.826-10.47-1.844,4.686-1.844,10.47-1.844S535.177,956.927,535.177,957.946Z" fill="#0f6d7b"/>
          <path d="M556.115,965.148c0,1.018-4.686,1.844-10.468,1.844s-10.47-.826-10.47-1.844,4.688-1.844,10.47-1.844S556.115,964.129,556.115,965.148Z" fill="#0f6d7b"/>
          <path d="M481.448,945.433c0,1.019-4.686,1.846-10.47,1.846s-10.466-.827-10.466-1.846,4.686-1.844,10.466-1.844S481.448,944.415,481.448,945.433Z" fill="#0f6d7b"/>
          <path d="M410.754,947.279c0,1.395-6.426,2.528-14.355,2.528s-14.356-1.133-14.356-2.528,6.426-2.53,14.356-2.53S410.754,945.882,410.754,947.279Z" fill="#0f6d7b"/>
          <path d="M215.557,939.384c0,1.4-6.425,2.529-14.354,2.529s-14.355-1.132-14.355-2.529,6.425-2.53,14.355-2.53S215.557,937.987,215.557,939.384Z" fill="#0f6d7b"/>
          <path d="M74.772,959.205c0,1.4-6.427,2.528-14.356,2.528s-14.358-1.132-14.358-2.528,6.428-2.529,14.358-2.529S74.772,957.808,74.772,959.205Z" fill="#0f6d7b"/>
          <path d="M175.318,946.007c0,.7-3.2,1.26-7.144,1.26s-7.147-.564-7.147-1.26,3.2-1.258,7.147-1.258S175.318,945.312,175.318,946.007Z" fill="#0f6d7b"/>
          <path d="M225.917,944.749c0,.7-3.2,1.258-7.146,1.258s-7.146-.562-7.146-1.258,3.2-1.259,7.146-1.259S225.917,944.054,225.917,944.749Z" fill="#0f6d7b"/>
          <path d="M258.4,957.946c0,.694-3.2,1.259-7.147,1.259s-7.147-.565-7.147-1.259,3.2-1.26,7.147-1.26S258.4,957.25,258.4,957.946Z" fill="#0f6d7b"/>
          <polygon points="133.538 1034.462 145.522 1015.834 156.19 1034.462 133.538 1034.462" fill="#3a3d34"/>
          <polygon points="189.354 1058.147 165.576 1067.488 171.171 1047.543 189.354 1058.147" fill="#3a3d34"/>
          <polygon points="253.596 1041.995 256.365 1062.748 234.547 1051.615 253.596 1041.995" fill="#3a3d34"/>
          <polygon points="455.373 1031.617 458.144 1052.372 436.325 1041.239 455.373 1031.617" fill="#3a3d34"/>
          <polygon points="640.68 1047.654 622.739 1063.575 617.898 1043.508 640.68 1047.654" fill="#3a3d34"/>
          <polygon points="307.824 1033.745 328.289 1020.423 328.589 1040.846 307.824 1033.745" fill="#3a3d34"/>
          <polygon points="584.541 1047.3 590.752 1027.011 606.589 1043.219 584.541 1047.3" fill="#3a3d34"/>
          <path d="M394.2,1008.289s7.542-3.485,9.19-3.485,12.869,3.485,12.869,3.485-14.956,2.935-15.657,2.751S394.2,1008.289,394.2,1008.289Z" fill="#3a3d34"/>
          <path d="M556.115,1027.374s7.543-3.485,9.193-3.485,12.865,3.485,12.865,3.485-14.956,2.935-15.656,2.751S556.115,1027.374,556.115,1027.374Z" fill="#3a3d34"/>
          <path d="M226.749,1008.373s11.2-5.174,13.651-5.174,19.106,5.174,19.106,5.174-22.209,4.358-23.25,4.086S226.749,1008.373,226.749,1008.373Z" fill="#3a3d34"/>
          <path d="M324.825,1059.737s8.064-3.725,9.828-3.725,13.754,3.725,13.754,3.725-15.989,3.137-16.739,2.941S324.825,1059.737,324.825,1059.737Z" fill="#3a3d34"/>
          <path d="M19.166,1062.943s8.062-3.727,9.829-3.727,30.607,3.9,30.607,3.9-32.843,2.966-33.593,2.769S19.166,1062.943,19.166,1062.943Z" fill="#3a3d34"/>
          <path d="M49.19,1067.867s15.654-1.976,16.7-1.976,18.12,2.306,18.12,2.306-19.444,1.756-19.887,1.641S49.19,1067.867,49.19,1067.867Z" fill="#3a3d34"/>
          <path d="M306.416,1067.5s5.757-2.66,7.017-2.66,9.82,2.66,9.82,2.66-11.416,2.24-11.95,2.1S306.416,1067.5,306.416,1067.5Z" fill="#3a3d34"/>
          <path d="M320.851,1072.262s5.757-2.659,7.016-2.659,9.822,2.659,9.822,2.659-11.415,2.24-11.951,2.1S320.851,1072.262,320.851,1072.262Z" fill="#3a3d34"/>
          <path d="M63.542,1008.373s11.2-5.174,13.648-5.174,19.106,5.174,19.106,5.174-22.21,4.358-23.249,4.086S63.542,1008.373,63.542,1008.373Z" fill="#3a3d34"/>
          <path d="M222.026,1018.083s-7.119,3.5-8.7,3.535-12.462-3.079-12.462-3.079,14.25-3.124,14.929-2.962S222.026,1018.083,222.026,1018.083Z" fill="#3a3d34"/>
          <polygon points="363.117 1020.599 373.221 1016.787 380.032 1022.778 370.071 1026.862 363.117 1020.599" fill="#3a3d34"/>
          <polygon points="472.991 1056.29 483.097 1052.477 489.904 1058.468 479.946 1062.554 472.991 1056.29" fill="#3a3d34"/>
          <polygon points="488.19 1062.487 493.065 1060.648 496.35 1063.539 491.545 1065.508 488.19 1062.487" fill="#3a3d34"/>
          <polygon points="510.055 1056.924 514.929 1055.084 518.215 1057.974 513.41 1059.945 510.055 1056.924" fill="#3a3d34"/>
          <polygon points="549.407 1071.793 554.284 1069.955 557.568 1072.845 552.763 1074.816 549.407 1071.793" fill="#3a3d34"/>
          <polygon points="287.655 1049.165 294.899 1046.432 299.782 1050.727 292.642 1053.655 287.655 1049.165" fill="#3a3d34"/>
          <polygon points="79.918 1052.315 90.024 1048.503 96.834 1054.495 86.874 1058.579 79.918 1052.315" fill="#3a3d34"/>
        </g>
        <g>
          <polygon points="640.68 1085.771 1280.339 1085.771 1280.339 994.651 1138.331 997.205 1045.48 977.596 959.978 985.099 910.482 987.076 773.157 977.596 640.68 997.205 640.68 1085.771" fill="#494d3f"/>
          <polygon points="826.505 1031.684 932.876 1020.423 1030.477 1036.603 1121.108 1025.326 1214.88 1038.073 1280.339 1025.294 1280.339 994.651 1138.331 997.205 1045.48 977.596 959.978 985.099 910.482 987.076 773.157 977.596 640.68 997.205 640.68 1033.012 709.315 1020.423 826.505 1031.684" fill="#494d3f"/>
          <polygon points="1214.88 1038.073 1121.108 1025.326 1030.477 1036.603 932.876 1020.423 826.505 1031.684 709.315 1020.423 640.68 1025.294 640.68 1055.509 728.034 1041.995 833.729 1067.488 932.876 1041.995 1035.936 1054.742 1121.108 1041.995 1214.88 1062.586 1280.339 1055.509 1280.339 1025.294 1214.88 1038.073" fill="#3a3d34"/>
          <polygon points="1121.108 1041.995 1035.936 1054.742 932.876 1041.995 833.729 1067.488 728.034 1041.995 640.68 1055.509 640.68 1085.771 1280.339 1085.771 1280.339 1055.509 1214.88 1062.586 1121.108 1041.995" fill="#494d3f"/>
          <polygon points="1138.331 992.958 1045.48 973.348 959.978 980.85 910.482 982.827 773.157 973.348 640.68 992.958 640.68 1009.297 773.157 989.688 910.482 999.168 959.978 997.191 1045.48 989.688 1138.331 1009.297 1280.339 1009.297 1280.339 991.65 1138.331 992.958" fill="#30332b"/>
          <path d="M1280.339,1001.187l-143.3-.083c-.217-.038-92.457-18.009-92.457-18.009s-47,4.085-82.809,9.208l-54.985.047L772.62,983.565l-131.94,17.568v-14L772.2,969.458l.606.04,134.572,8.811h53.106c3.068-.434,22.1-3.121,41.306-5.471,12.29-1.5,22.257-2.577,29.624-3.194,12.9-1.08,16.428-.722,18.5.647,4.814,1.888,43.368,9.218,88.628,16.844h141.794v14.052Z" fill="#0b5d6c"/>
          <path d="M640.68,940.006l197.306-15.689,64.973,7.844s202.413-8.826,207.409-7.844,169.971,15.689,169.971,15.689V991.65H1138.748l-94.117-18.956-81.7,9.138H902.456l-129.3-9.461L640.68,991.65Z" fill="#0d7984"/>
          <path d="M1110.368,924.076c-5-.98-207.409,7.844-207.409,7.844l-64.973-7.844L640.68,939.764V991.65L773.3,972.606l129.239,9.416,60.456-.053,81.908-9.017,93.849,18.888,141.591-.19V939.764S1115.365,925.055,1110.368,924.076ZM902.844,975.053l-130.068-9.517-132.1,18.177V946.206l197.089-15.543,64.781,7.821.871-.038c.454-.019,12.062-.525,29.569-1.272l29.986,7.742-63.5,7.725,24.572,11.785Zm377.495,8.66-140.6,1.148L1045.1,965.8l-82.753,9.253,16.906-8.568-39.562-9.936L978,945.243l-21.815-9.052c55.524-2.338,136.915-5.655,151.812-5.655.707,0,1.081.007,1.246.013,11.378,1.476,120,11.1,171.1,15.657Z" fill="#0f6d7b"/>
          <path d="M1021.7,939.384c0,1.018-4.686,1.844-10.467,1.844s-10.469-.826-10.469-1.844,4.686-1.844,10.469-1.844S1021.7,938.365,1021.7,939.384Z" fill="#0f6d7b"/>
          <path d="M1069.176,943.073c0,1.019-4.686,1.843-10.469,1.843s-10.47-.824-10.47-1.843,4.689-1.845,10.47-1.845S1069.176,942.053,1069.176,943.073Z" fill="#0f6d7b"/>
          <path d="M1174.835,957.946c0,1.018-4.687,1.844-10.469,1.844s-10.468-.826-10.468-1.844,4.687-1.844,10.468-1.844S1174.835,956.927,1174.835,957.946Z" fill="#0f6d7b"/>
          <path d="M1195.773,965.148c0,1.018-4.684,1.844-10.469,1.844s-10.469-.826-10.469-1.844,4.686-1.844,10.469-1.844S1195.773,964.129,1195.773,965.148Z" fill="#0f6d7b"/>
          <path d="M1121.108,945.433c0,1.019-4.687,1.846-10.469,1.846s-10.47-.827-10.47-1.846,4.686-1.844,10.47-1.844S1121.108,944.415,1121.108,945.433Z" fill="#0f6d7b"/>
          <path d="M1050.413,947.279c0,1.395-6.428,2.528-14.355,2.528s-14.357-1.133-14.357-2.528,6.428-2.53,14.357-2.53S1050.413,945.882,1050.413,947.279Z" fill="#0f6d7b"/>
          <path d="M855.217,939.384c0,1.4-6.427,2.529-14.355,2.529s-14.357-1.132-14.357-2.529,6.427-2.53,14.357-2.53S855.217,937.987,855.217,939.384Z" fill="#0f6d7b"/>
          <path d="M714.429,959.205c0,1.4-6.427,2.528-14.352,2.528s-14.359-1.132-14.359-2.528,6.427-2.529,14.359-2.529S714.429,957.808,714.429,959.205Z" fill="#0f6d7b"/>
          <path d="M814.977,946.007c0,.7-3.2,1.26-7.146,1.26s-7.147-.564-7.147-1.26,3.2-1.258,7.147-1.258S814.977,945.312,814.977,946.007Z" fill="#0f6d7b"/>
          <path d="M865.576,944.749c0,.7-3.2,1.258-7.145,1.258s-7.148-.562-7.148-1.258,3.2-1.259,7.148-1.259S865.576,944.054,865.576,944.749Z" fill="#0f6d7b"/>
          <path d="M898.059,957.946c0,.694-3.2,1.259-7.148,1.259s-7.146-.565-7.146-1.259,3.2-1.26,7.146-1.26S898.059,957.25,898.059,957.946Z" fill="#0f6d7b"/>
          <polygon points="773.196 1034.462 785.18 1015.834 795.848 1034.462 773.196 1034.462" fill="#3a3d34"/>
          <polygon points="829.012 1058.147 805.236 1067.488 810.831 1047.543 829.012 1058.147" fill="#3a3d34"/>
          <polygon points="893.254 1041.995 896.023 1062.748 874.205 1051.615 893.254 1041.995" fill="#3a3d34"/>
          <polygon points="1095.033 1031.617 1097.802 1052.372 1075.984 1041.239 1095.033 1031.617" fill="#3a3d34"/>
          <polygon points="1280.339 1047.654 1262.396 1063.575 1257.555 1043.508 1280.339 1047.654" fill="#3a3d34"/>
          <polygon points="947.482 1033.745 967.949 1020.423 968.249 1040.846 947.482 1033.745" fill="#3a3d34"/>
          <polygon points="1224.199 1047.3 1230.412 1027.011 1246.247 1043.219 1224.199 1047.3" fill="#3a3d34"/>
          <path d="M1033.863,1008.289s7.543-3.485,9.191-3.485,12.869,3.485,12.869,3.485-14.957,2.935-15.66,2.751S1033.863,1008.289,1033.863,1008.289Z" fill="#3a3d34"/>
          <path d="M1195.773,1027.374s7.545-3.485,9.193-3.485,12.868,3.485,12.868,3.485-14.956,2.935-15.659,2.751S1195.773,1027.374,1195.773,1027.374Z" fill="#3a3d34"/>
          <path d="M866.409,1008.373s11.2-5.174,13.65-5.174,19.105,5.174,19.105,5.174-22.207,4.358-23.25,4.086S866.409,1008.373,866.409,1008.373Z" fill="#3a3d34"/>
          <path d="M964.485,1059.737s8.061-3.725,9.827-3.725,13.752,3.725,13.752,3.725-15.988,3.137-16.735,2.941S964.485,1059.737,964.485,1059.737Z" fill="#3a3d34"/>
          <path d="M658.825,1062.943s8.063-3.727,9.825-3.727,30.609,3.9,30.609,3.9-32.841,2.966-33.59,2.769S658.825,1062.943,658.825,1062.943Z" fill="#3a3d34"/>
          <path d="M688.85,1067.867s15.65-1.976,16.7-1.976,18.121,2.306,18.121,2.306-19.444,1.756-19.888,1.641S688.85,1067.867,688.85,1067.867Z" fill="#3a3d34"/>
          <path d="M946.076,1067.5s5.757-2.66,7.017-2.66,9.82,2.66,9.82,2.66-11.416,2.24-11.949,2.1S946.076,1067.5,946.076,1067.5Z" fill="#3a3d34"/>
          <path d="M960.509,1072.262s5.756-2.659,7.017-2.659,9.822,2.659,9.822,2.659-11.418,2.24-11.953,2.1S960.509,1072.262,960.509,1072.262Z" fill="#3a3d34"/>
          <path d="M703.2,1008.373s11.2-5.174,13.65-5.174,19.105,5.174,19.105,5.174-22.209,4.358-23.248,4.086S703.2,1008.373,703.2,1008.373Z" fill="#3a3d34"/>
          <path d="M861.684,1018.083s-7.118,3.5-8.7,3.535-12.462-3.079-12.462-3.079,14.253-3.124,14.93-2.962S861.684,1018.083,861.684,1018.083Z" fill="#3a3d34"/>
          <polygon points="1002.775 1020.599 1012.881 1016.787 1019.692 1022.778 1009.73 1026.862 1002.775 1020.599" fill="#3a3d34"/>
          <polygon points="1112.649 1056.29 1122.754 1052.477 1129.564 1058.468 1119.607 1062.554 1112.649 1056.29" fill="#3a3d34"/>
          <polygon points="1127.85 1062.487 1132.725 1060.648 1136.01 1063.539 1131.205 1065.508 1127.85 1062.487" fill="#3a3d34"/>
          <polygon points="1149.712 1056.924 1154.587 1055.084 1157.875 1057.974 1153.069 1059.945 1149.712 1056.924" fill="#3a3d34"/>
          <polygon points="1189.067 1071.793 1193.942 1069.955 1197.227 1072.845 1192.422 1074.816 1189.067 1071.793" fill="#3a3d34"/>
          <polygon points="927.314 1049.165 934.559 1046.432 939.44 1050.727 932.3 1053.655 927.314 1049.165" fill="#3a3d34"/>
          <polygon points="719.577 1052.315 729.683 1048.503 736.492 1054.495 726.534 1058.579 719.577 1052.315" fill="#3a3d34"/>
        </g>
        <g>
          <polygon points="1280.339 1085.771 1920 1085.771 1920 994.651 1777.99 997.205 1685.135 977.596 1599.635 985.099 1550.137 987.076 1412.814 977.596 1280.339 997.205 1280.339 1085.771" fill="#494d3f"/>
          <polygon points="1466.164 1031.684 1572.535 1020.423 1670.136 1036.603 1760.764 1025.326 1854.54 1038.073 1920 1025.294 1920 994.651 1777.99 997.205 1685.135 977.596 1599.635 985.099 1550.137 987.076 1412.814 977.596 1280.339 997.205 1280.339 1033.012 1348.975 1020.423 1466.164 1031.684" fill="#494d3f"/>
          <polygon points="1854.54 1038.073 1760.764 1025.326 1670.136 1036.603 1572.535 1020.423 1466.164 1031.684 1348.975 1020.423 1280.339 1025.294 1280.339 1055.509 1367.693 1041.995 1473.39 1067.488 1572.535 1041.995 1675.596 1054.742 1760.764 1041.995 1854.54 1062.586 1920 1055.509 1920 1025.294 1854.54 1038.073" fill="#3a3d34"/>
          <polygon points="1760.764 1041.995 1675.596 1054.742 1572.535 1041.995 1473.39 1067.488 1367.693 1041.995 1280.339 1055.509 1280.339 1085.771 1920 1085.771 1920 1055.509 1854.54 1062.586 1760.764 1041.995" fill="#494d3f"/>
          <polygon points="1777.99 992.958 1685.135 973.348 1599.635 980.85 1550.137 982.827 1412.814 973.348 1280.339 992.958 1280.339 1009.297 1412.814 989.688 1550.137 999.168 1599.635 997.191 1685.135 989.688 1777.99 1009.297 1920 1009.297 1920 991.65 1777.99 992.958" fill="#30332b"/>
          <path d="M1920,1001.187,1776.7,1001.1c-.22-.038-92.46-18.009-92.46-18.009s-47,4.085-82.806,9.208l-54.988.047-134.165-8.785-131.937,17.568v-14l131.52-17.677.607.04,134.572,8.811h53.106c3.063-.434,22.1-3.121,41.3-5.471,12.29-1.5,22.259-2.577,29.627-3.194,12.9-1.08,16.425-.722,18.5.647,4.816,1.888,43.37,9.218,88.628,16.844H1920v14.052Z" fill="#0b5d6c"/>
          <path d="M1280.339,940.006l197.307-15.689,64.972,7.844s202.412-8.826,207.411-7.844S1920,940.006,1920,940.006V991.65h-141.6l-94.114-18.956-81.7,9.138h-60.479l-129.3-9.461L1280.339,991.65Z" fill="#0d7984"/>
          <path d="M1750.029,924.076c-5-.98-207.411,7.844-207.411,7.844l-64.972-7.844-197.307,15.688V991.65l132.617-19.044,129.234,9.416,60.46-.053,81.909-9.017,93.849,18.888L1920,991.65V939.764S1755.025,925.055,1750.029,924.076ZM1542.5,975.053l-130.066-9.517-132.1,18.177V946.206l197.091-15.543,64.78,7.821.87-.038c.452-.019,12.06-.525,29.565-1.272l29.988,7.742-63.5,7.725,24.57,11.785Zm377.5,8.66-140.6,1.148-94.64-19.061L1602,975.053l16.907-8.568-39.567-9.936,38.317-11.306-21.814-9.052c55.522-2.338,136.916-5.655,151.811-5.655.707,0,1.08.007,1.242.013,11.382,1.476,120,11.1,171.1,15.657Z" fill="#0f6d7b"/>
          <path d="M1661.361,939.384c0,1.018-4.688,1.844-10.47,1.844s-10.471-.826-10.471-1.844,4.691-1.844,10.471-1.844S1661.361,938.365,1661.361,939.384Z" fill="#0f6d7b"/>
          <path d="M1708.836,943.073c0,1.019-4.689,1.843-10.469,1.843s-10.472-.824-10.472-1.843,4.69-1.845,10.472-1.845S1708.836,942.053,1708.836,943.073Z" fill="#0f6d7b"/>
          <path d="M1814.492,957.946c0,1.018-4.684,1.844-10.466,1.844s-10.472-.826-10.472-1.844,4.69-1.844,10.472-1.844S1814.492,956.927,1814.492,957.946Z" fill="#0f6d7b"/>
          <path d="M1835.432,965.148c0,1.018-4.688,1.844-10.468,1.844s-10.472-.826-10.472-1.844,4.69-1.844,10.472-1.844S1835.432,964.129,1835.432,965.148Z" fill="#0f6d7b"/>
          <path d="M1760.764,945.433c0,1.019-4.685,1.846-10.465,1.846s-10.472-.827-10.472-1.846,4.686-1.844,10.472-1.844S1760.764,944.415,1760.764,945.433Z" fill="#0f6d7b"/>
          <path d="M1690.073,947.279c0,1.395-6.428,2.528-14.358,2.528s-14.354-1.133-14.354-2.528,6.429-2.53,14.354-2.53S1690.073,945.882,1690.073,947.279Z" fill="#0f6d7b"/>
          <path d="M1494.872,939.384c0,1.4-6.425,2.529-14.352,2.529s-14.356-1.132-14.356-2.529,6.426-2.53,14.356-2.53S1494.872,937.987,1494.872,939.384Z" fill="#0f6d7b"/>
          <path d="M1354.089,959.205c0,1.4-6.428,2.528-14.357,2.528s-14.355-1.132-14.355-2.528,6.428-2.529,14.355-2.529S1354.089,957.808,1354.089,959.205Z" fill="#0f6d7b"/>
          <path d="M1454.637,946.007c0,.7-3.2,1.26-7.146,1.26s-7.147-.564-7.147-1.26,3.2-1.258,7.147-1.258S1454.637,945.312,1454.637,946.007Z" fill="#0f6d7b"/>
          <path d="M1505.233,944.749c0,.7-3.2,1.258-7.147,1.258s-7.144-.562-7.144-1.258,3.2-1.259,7.144-1.259S1505.233,944.054,1505.233,944.749Z" fill="#0f6d7b"/>
          <path d="M1537.716,957.946c0,.694-3.2,1.259-7.145,1.259s-7.146-.565-7.146-1.259,3.2-1.26,7.146-1.26S1537.716,957.25,1537.716,957.946Z" fill="#0f6d7b"/>
          <polygon points="1412.855 1034.462 1424.837 1015.834 1435.508 1034.462 1412.855 1034.462" fill="#3a3d34"/>
          <polygon points="1468.671 1058.147 1444.892 1067.488 1450.491 1047.543 1468.671 1058.147" fill="#3a3d34"/>
          <polygon points="1532.914 1041.995 1535.683 1062.748 1513.865 1051.615 1532.914 1041.995" fill="#3a3d34"/>
          <polygon points="1734.692 1031.617 1737.461 1052.372 1715.644 1041.239 1734.692 1031.617" fill="#3a3d34"/>
          <polygon points="1920 1047.654 1902.055 1063.575 1897.215 1043.508 1920 1047.654" fill="#3a3d34"/>
          <polygon points="1587.139 1033.745 1607.609 1020.423 1607.909 1040.846 1587.139 1033.745" fill="#3a3d34"/>
          <polygon points="1863.86 1047.3 1870.069 1027.011 1885.904 1043.219 1863.86 1047.3" fill="#3a3d34"/>
          <path d="M1673.52,1008.289s7.544-3.485,9.194-3.485,12.868,3.485,12.868,3.485-14.958,2.935-15.659,2.751S1673.52,1008.289,1673.52,1008.289Z" fill="#3a3d34"/>
          <path d="M1835.432,1027.374s7.541-3.485,9.191-3.485,12.869,3.485,12.869,3.485-14.956,2.935-15.657,2.751S1835.432,1027.374,1835.432,1027.374Z" fill="#3a3d34"/>
          <path d="M1506.065,1008.373s11.2-5.174,13.651-5.174,19.107,5.174,19.107,5.174-22.21,4.358-23.252,4.086S1506.065,1008.373,1506.065,1008.373Z" fill="#3a3d34"/>
          <path d="M1604.142,1059.737s8.064-3.725,9.827-3.725,13.754,3.725,13.754,3.725-15.988,3.137-16.739,2.941S1604.142,1059.737,1604.142,1059.737Z" fill="#3a3d34"/>
          <path d="M1298.482,1062.943s8.064-3.727,9.828-3.727,30.607,3.9,30.607,3.9-32.842,2.966-33.591,2.769S1298.482,1062.943,1298.482,1062.943Z" fill="#3a3d34"/>
          <path d="M1328.505,1067.867s15.654-1.976,16.7-1.976,18.12,2.306,18.12,2.306-19.444,1.756-19.887,1.641S1328.505,1067.867,1328.505,1067.867Z" fill="#3a3d34"/>
          <path d="M1585.736,1067.5s5.756-2.66,7.014-2.66,9.822,2.66,9.822,2.66-11.416,2.24-11.953,2.1S1585.736,1067.5,1585.736,1067.5Z" fill="#3a3d34"/>
          <path d="M1600.169,1072.262s5.756-2.659,7.015-2.659,9.821,2.659,9.821,2.659-11.416,2.24-11.951,2.1S1600.169,1072.262,1600.169,1072.262Z" fill="#3a3d34"/>
          <path d="M1342.857,1008.373s11.2-5.174,13.65-5.174,19.107,5.174,19.107,5.174-22.211,4.358-23.25,4.086S1342.857,1008.373,1342.857,1008.373Z" fill="#3a3d34"/>
          <path d="M1501.343,1018.083s-7.119,3.5-8.7,3.535-12.461-3.079-12.461-3.079,14.247-3.124,14.928-2.962S1501.343,1018.083,1501.343,1018.083Z" fill="#3a3d34"/>
          <polygon points="1642.435 1020.599 1652.538 1016.787 1659.347 1022.778 1649.388 1026.862 1642.435 1020.599" fill="#3a3d34"/>
          <polygon points="1752.308 1056.29 1762.414 1052.477 1769.224 1058.468 1759.262 1062.554 1752.308 1056.29" fill="#3a3d34"/>
          <polygon points="1767.506 1062.487 1772.382 1060.648 1775.668 1063.539 1770.864 1065.508 1767.506 1062.487" fill="#3a3d34"/>
          <polygon points="1789.371 1056.924 1794.246 1055.084 1797.53 1057.974 1792.726 1059.945 1789.371 1056.924" fill="#3a3d34"/>
          <polygon points="1828.727 1071.793 1833.599 1069.955 1836.887 1072.845 1832.08 1074.816 1828.727 1071.793" fill="#3a3d34"/>
          <polygon points="1566.971 1049.165 1574.216 1046.432 1579.097 1050.727 1571.957 1053.655 1566.971 1049.165" fill="#3a3d34"/>
          <polygon points="1359.235 1052.315 1369.343 1048.503 1376.152 1054.495 1366.19 1058.579 1359.235 1052.315" fill="#3a3d34"/>
        </g>
      </g>
    </g>
  </g>
</svg>
