<svg xmlns="http://www.w3.org/2000/svg" xmlns:xlink="http://www.w3.org/1999/xlink" width="1920" height="1080" viewBox="0 0 1920 1080">
  <defs>
    <linearGradient id="a" x1="960" y1="1086.894" x2="960" y2="0.766" gradientUnits="userSpaceOnUse">
      <stop offset="0.048" stop-color="#404041"/>
      <stop offset="0.213" stop-color="#434344"/>
      <stop offset="0.352" stop-color="#4e4e4f"/>
      <stop offset="0.483" stop-color="#5f5f60"/>
      <stop offset="0.607" stop-color="#787879"/>
      <stop offset="0.728" stop-color="#989898"/>
      <stop offset="0.845" stop-color="#bfbfbf"/>
      <stop offset="0.959" stop-color="#ececed"/>
      <stop offset="1" stop-color="#fff"/>
    </linearGradient>
    <linearGradient id="b" x1="960" y1="1086.894" x2="960" y2="471.012" gradientUnits="userSpaceOnUse">
      <stop offset="0" stop-color="#808184"/>
      <stop offset="0.35" stop-color="#5e5e60"/>
      <stop offset="0.645" stop-color="#484849"/>
      <stop offset="0.83" stop-color="#404041"/>
    </linearGradient>
    <linearGradient id="c" x1="-8205.525" y1="1086.894" x2="-8205.525" y2="688.93" gradientTransform="matrix(-1, 0, 0, 1, -7245.525, 0)" xlink:href="#b"/>
    <linearGradient id="d" x1="960" y1="1086.894" x2="960" y2="1000.324" gradientUnits="userSpaceOnUse">
      <stop offset="0.564" stop-color="#be1e2d"/>
      <stop offset="0.666" stop-color="#9b1d25"/>
      <stop offset="0.774" stop-color="#7e1d1e"/>
      <stop offset="0.867" stop-color="#6b1c1a"/>
      <stop offset="0.933" stop-color="#651c18"/>
    </linearGradient>
  </defs>
  <g>
    <g>
      <rect y="0.766" width="1920" height="1086.128" fill="url(#a)"/>
      <g>
        <path d="M1920,150.845h-90.975q-17.322,0-37.515-.015c-58.6-.265-113.907-6.96-172.97-9.191-14.062-.279-27.187.278-38.437,2.231-59.063,9.485-115.313,21.2-187.5,16.738-70.313-4.184-132.188-13.112-202.5-11.437-105,2.51-208.125-.279-312.188-2.232-23.437-.279-46.875.279-70.312.837-112.5,3.626-221.25,11.995-334.688,8.648-85.312-2.79-168.75-5.3-253.363-5.51q-25.329-.073-48.1-.069H0v-13.39H171.454q22.778.013,48.077.058c102.447-.338,202.759,4.4,304.009,5.8,16.875.279,34.688-.279,51.563-.557,94.687-2.511,185.625-10.88,281.25-8.09,120.937,3.347,238.125,2.51,358.125,1.116,60.937-.558,114.375,8.089,175.312,12,28.125,1.674,55.313,1.116,81.563-2.511,52.5-6.974,99.375-19.527,163.125-15.063,53.437,3.626,104.062,6.973,157.036,7.253H1920Z" fill="#a6a8ab"/>
        <path d="M0,164.869H90.975c11.547,0,24.074,0,37.516-.01,58.594-.191,113.906-5.016,172.969-6.625a285.134,285.134,0,0,1,38.437,1.609c59.063,6.837,115.313,15.283,187.5,12.065,70.313-3.017,132.188-9.452,202.5-8.245,105,1.81,208.125-.2,312.188-1.609,23.437-.2,46.875.2,70.312.6,112.5,2.614,221.25,8.648,334.687,6.234,85.313-2.011,168.751-3.821,253.364-3.971q25.329-.052,48.1-.051H1920v-9.652H1748.547q-22.781.009-48.078.042c-102.447-.243-202.759,3.175-304.009,4.18-16.875.2-34.688-.2-51.563-.4-94.687-1.809-185.625-7.842-281.25-5.831-120.937,2.413-238.125,1.81-358.125.8-60.937-.4-114.375,5.833-175.312,8.647a574.94,574.94,0,0,1-81.563-1.81c-52.5-5.027-99.375-14.076-163.125-10.859-53.437,2.613-104.062,5.028-157.036,5.229H0Z" fill="#a6a8ab"/>
      </g>
      <g>
        <path d="M1920,194.4h-90.975q-17.322,0-37.515-.006c-58.6-.105-113.907-2.761-172.97-3.646-14.062-.111-27.187.11-38.437.885-59.063,3.763-115.313,8.412-187.5,6.64-70.313-1.66-132.188-5.2-202.5-4.537-105,1-208.125-.111-312.188-.886-23.437-.11-46.875.112-70.312.333-112.5,1.438-221.25,4.759-334.688,3.43-85.312-1.106-168.75-2.1-253.363-2.185q-25.329-.03-48.1-.028H0v-5.312H171.454q22.778.006,48.077.023c102.447-.134,202.759,1.747,304.009,2.3,16.875.111,34.688-.111,51.563-.221,94.687-1,185.625-4.317,281.25-3.21,120.937,1.328,238.125,1,358.125.443,60.937-.221,114.375,3.209,175.312,4.759,28.125.664,55.313.442,81.563-1,52.5-2.767,99.375-7.747,163.125-5.977,53.437,1.439,104.062,2.767,157.036,2.878H1920Z" fill="#a6a8ab"/>
        <path d="M0,199.959H90.975c11.547,0,24.074,0,37.516,0,58.594-.075,113.906-1.99,172.969-2.628,14.062-.081,27.187.08,38.437.638,59.063,2.712,115.313,6.063,187.5,4.786,70.313-1.2,132.188-3.749,202.5-3.27,105,.717,208.125-.08,312.188-.639,23.437-.079,46.875.08,70.312.24,112.5,1.037,221.25,3.43,334.687,2.473,85.313-.8,168.751-1.516,253.364-1.576q25.329-.02,48.1-.02H1920V196.13H1748.547q-22.781,0-48.078.017c-102.447-.1-202.759,1.26-304.009,1.658-16.875.08-34.688-.079-51.563-.16-94.687-.718-185.625-3.111-281.25-2.313-120.937.957-238.125.718-358.125.319-60.937-.16-114.375,2.314-175.312,3.431-28.125.478-55.313.319-81.563-.718-52.5-2-99.375-5.585-163.125-4.309-53.437,1.037-104.062,2-157.036,2.075H0Z" fill="#a6a8ab"/>
      </g>
      <g>
        <path d="M1920,217.023h-90.975q-17.322,0-37.515-.006c-58.6-.1-113.907-2.761-172.97-3.646-14.062-.111-27.187.11-38.437.885-59.063,3.763-115.313,8.411-187.5,6.64-70.313-1.66-132.188-5.2-202.5-4.537-105,1-208.125-.111-312.188-.886-23.437-.11-46.875.111-70.312.333-112.5,1.438-221.25,4.758-334.688,3.43-85.312-1.106-168.75-2.1-253.363-2.185q-25.329-.03-48.1-.028H0v-5.312H171.454q22.778.006,48.077.023c102.447-.134,202.759,1.747,304.009,2.3,16.875.11,34.688-.111,51.563-.221,94.687-1,185.625-4.317,281.25-3.21,120.937,1.327,238.125,1,358.125.442,60.937-.221,114.375,3.21,175.312,4.76,28.125.664,55.313.442,81.563-1,52.5-2.768,99.375-7.748,163.125-5.977,53.437,1.438,104.062,2.767,157.036,2.878H1920Z" fill="#a6a8ab"/>
        <path d="M0,222.586H90.975c11.547,0,24.074,0,37.516,0,58.594-.075,113.906-1.99,172.969-2.628,14.062-.08,27.187.08,38.437.638,59.063,2.713,115.313,6.064,187.5,4.787,70.313-1.2,132.188-3.75,202.5-3.27,105,.717,208.125-.081,312.188-.639,23.437-.08,46.875.079,70.312.24,112.5,1.037,221.25,3.43,334.687,2.472,85.313-.8,168.751-1.516,253.364-1.576q25.329-.019,48.1-.02H1920v-3.829H1748.547q-22.781,0-48.078.018c-102.447-.1-202.759,1.259-304.009,1.658-16.875.079-34.688-.08-51.563-.16-94.687-.718-185.625-3.111-281.25-2.313-120.937.957-238.125.718-358.125.319-60.937-.16-114.375,2.313-175.312,3.431-28.125.478-55.313.318-81.563-.719-52.5-1.994-99.375-5.584-163.125-4.308-53.437,1.037-104.062,2-157.036,2.074H0Z" fill="#a6a8ab"/>
      </g>
    </g>
    <g>
      <polygon points="293.911 1086.894 0 1086.894 75 293.34 142.057 239.476 209.536 293.34 293.911 1086.894" fill="#555656"/>
      <polygon points="934.048 1086.894 660.734 1086.894 730.478 348.951 792.836 298.861 855.586 348.951 934.048 1086.894" fill="#555656"/>
      <polygon points="1269.564 1086.894 975.653 1086.894 1050.653 293.34 1117.71 239.476 1185.189 293.34 1269.564 1086.894" fill="#555656"/>
      <polygon points="1576.519 1086.894 1319.135 1086.894 1384.813 391.963 1443.537 344.792 1502.629 391.963 1576.519 1086.894" fill="#555656"/>
      <polygon points="600.865 1086.894 343.481 1086.894 409.159 391.963 467.883 344.792 526.976 391.963 600.865 1086.894" fill="#555656"/>
      <polygon points="1920 1086.894 1667.944 1086.894 1732.263 406.346 1789.771 360.152 1847.64 406.346 1920 1086.894" fill="#555656"/>
    </g>
    <path d="M1804.165,719.233l-92.3-56.61-56.016-35.571-94.6-74.893-196.895,89.994-90.008-6.807-49.557,22.183-127.425-49.454-91.446-64.245L845.728,471.012l-153.342,66-106.869,68.94-129.691,56.67-67.6-49.135-76.581-34.126L239.478,613.3l-146.5,95.575L0,641.485v445.409H1920V641.485Z" fill="url(#b)"/>
    <path d="M0,808.882v278.012H1920V808.882l-239.478-70.291-72.164-24.962-76.581,25.1-67.6,36.137L1362.6,721.236l-93.039-32.306-193.836,82.378L901.353,727.7l-78.719,7.049L695.21,771.116,645.654,754.8l-90.008,5.006-196.9-66.186-94.6,55.08-56.016,26.162Z" fill="url(#c)"/>
    <g>
      <rect y="951.848" width="1920" height="135.046" fill="#2a2a2c"/>
      <path d="M1852.727,943.484c-22.727-2.357-41.477,6.128-63.977,4.714-110.625-5.657-221.25-9.9-333.75,0-11.25,0-20.625-7.071-31.637-4.714-1.141,0-24.388-4.18-25.55-4.183-30.211-3.769-55.313,4.654-85.313,7.483-18.75,1.414-39.375-4.243-58.125-4.243-86.25-1.414-172.5,2.829-258.75-1.414-9.375,0-20.625,2.828-31.774,2.357H792.258c-21.633.471-44.133,3.3-66.633,1.886-67.5-1.415-135-2.829-202.5,1.414-5.625,0-13.125-2.829-20.826-3.281-1.117-.017-2.251-.019-3.386-.019H465.194q-1.664,0-3.34,0C406.875,938.3,352.5,948.2,300,946.784c-22.5-1.414-56.25-9.9-80.625-4.243-48.75,9.9-97.5-7.072-146.664.943H0v15.792H72.711c51.665,0,98.225,4.948,146.975-4.95,24.375-5.657,59.22,4.832,81.72,6.246,52.5,1.414,96.9-6.594,151.875-1.414,1.12.006,46.719,2.239,72.969,2.239,67.5-4.243,131.875-1.651,199.375-.237,22.5,1.415,45-1.414,66.633-1.884H963.851c11.149.47,22.4-2.358,31.774-2.358,86.25,4.242,172.5,0,258.75,1.414,18.75,0,39.375,5.657,58.125,4.243,30-2.829,55.1-11.252,85.313-7.483,1.162,0,24.409,4.184,25.55,4.184,11.012-2.358,20.387,4.713,31.637,4.713,112.5-9.9,223.125-5.657,333.75,0,22.5,1.414,41.25-7.071,63.977-4.713H1920V943.484h-67.273Z" fill="#202022"/>
      <path d="M1852.727,937.827c-22.727-2.358-41.477,6.128-63.977,4.714-110.625-5.657-221.25-9.9-333.75,0-11.25,0-20.625-7.072-31.637-4.714-1.141,0-24.388-4.18-25.55-4.184-30.211-3.768-55.313,4.655-85.313,7.484-18.75,1.414-39.375-4.243-58.125-4.243-86.25-1.415-172.5,2.828-258.75-1.415-9.375,0-20.625,2.829-31.774,2.358H792.258c-21.633.471-44.133,3.3-66.633,1.885-67.5-1.414-135-2.828-202.5,1.415-5.625,0-13.125-2.829-20.826-3.281-1.117-.018-2.251-.019-3.386-.019H465.194c-1.109,0-2.221,0-3.34-.006-54.979-5.18-109.354,4.72-161.854,3.306-22.5-1.415-56.25-9.9-80.625-4.243-48.75,9.9-97.5-7.071-146.664.943H0v15.791H72.711c51.665,0,98.225,4.95,146.975-4.949,24.375-5.658,59.22,4.832,81.72,6.247,52.5,1.414,96.9-6.6,151.875-1.415,1.12,0,46.719,2.239,72.969,2.239,67.5-4.243,131.875-1.65,199.375-.236,22.5,1.414,45-1.414,66.633-1.886H963.851c11.149.472,22.4-2.357,31.774-2.357,86.25,4.243,172.5,0,258.75,1.414,18.75,0,39.375,5.657,58.125,4.243,30-2.828,55.1-11.252,85.313-7.484,1.162,0,24.409,4.184,25.55,4.184,11.012-2.357,20.387,4.714,31.637,4.714,112.5-9.9,223.125-5.657,333.75,0,22.5,1.414,41.25-7.071,63.977-4.714H1920V937.827h-67.273Z" fill="#0e0e10"/>
      <path d="M1920,945.133h-67.273c-22.727-2.357-41.477,6.128-63.977,4.714-110.625-5.658-221.25-9.9-333.75,0-11.25,0-20.625-7.071-31.637-4.714-1.141,0-24.388-4.181-25.55-4.184-30.211-3.768-55.313,4.655-85.313,7.483-18.75,1.415-39.375-4.243-58.125-4.243-86.25-1.413-172.5,2.829-258.75-1.413-9.375,0-20.625,2.828-31.774,2.357H792.258c-21.633.471-44.133,3.3-66.633,1.885-67.5-1.414-135-2.829-202.5,1.414-5.625,0-13.125-2.828-20.826-3.281-1.117-.017-2.251-.018-3.386-.018H465.194c-1.109,0-2.221,0-3.34-.006-54.979-5.18-109.354,4.72-161.854,3.305-22.5-1.414-56.25-9.9-80.625-4.243-48.75,9.9-97.5-7.07-146.664.944H0V920.619H73.469c123.406,2.357,247.156-1.886,370.906-.471,103.125,1.414,258.75,2.357,281.563,2.357s53.438,2.358,66.562,2.358c93.034,0,153.532-4.244,248.176-4.244,1.288-.011,2.527-.022,3.823-.044,103,.987,206.126-1.842,309.251.987,46.875,2.829,93.75-4.243,140.625-2.829,65.625,2.829,131.25-1.414,198.75,4.243,22.5,1.415,43.125-4.243,65.625-5.657,18.75,0,35.625,4.243,55.1,3.3H1920Z" fill="#929da7"/>
      <path d="M1852.727,936.413c-29.993,0-40.54,9.429-63.04,8.015-110.624-5.659-222.187-13.2-334.687-3.3-11.25,0-45.231-5.951-64.922-5.834s-47.578,1.591-77.578,4.419c-18.75,1.415-39.375-4.243-58.125-4.243-86.25-1.414-112.266,5.3-198.516,1.061-9.375,0-80.625,4.95-94.687,3.359s-69.093.409-119.3-2.769c-33.508-2.121-91.249,6.836-113.749,5.422-67.5-1.414-118.126-.237-151.563-.237s-54.856-3.237-65.937-3.771c-102.813-4.95-160,5.775-212.5,4.36-22.5-1.414-55.312-15.91-79.688-10.253-57.656,18.032-97.266,3.772-145.726,3.772H0v9.9H72.711c42.836,0,97.914,8.957,146.664-.942C243.75,939.712,277.5,948.2,300,949.612c52.5,1.414,106.875-8.485,161.854-3.3q1.679.007,3.34,0h33.719c1.135,0,2.269,0,3.386.02,7.7.452,16.372,3.1,22,3.1,67.5-4.243,133.828-2.65,201.328-1.236,22.5,1.414,45-1.414,66.633-1.886H963.851c11.149.472,22.4-2.357,31.774-2.357,86.25,4.243,172.5,0,258.75,1.415,18.75,0,39.375,5.656,58.125,4.242,30-2.828,70.781-9.192,110.863-3.3,20.508,3.015,20.387,4.714,31.637,4.714,112.5-9.9,223.125-5.656,333.75,0,22.5,1.414,39.843-4.714,63.977-4.714H1920v-9.9h-67.273Z" fill="#6e727a"/>
      <path d="M1874.5,986.431h-2.678a71.319,71.319,0,0,0-13.632,1.123c-4.291.792-8.511,1.569-13.189,1.044q-5.979-.288-11.788-.567c-25.721.075-46.346-9.282-66.971-10.322-58.125-3.119-116.25,20.8-174.375,11.437-28.125-4.159-52.5-13.516-82.5-7.277-48.75,10.4-86.874,13.167-132.5,2.078-2.427-.591-45.624,3.12-47.5,2.08-11.25-6.238-44.376-7.973-53.751-3.813-41.25,21.833-73.749,9.011-124.374,7.972-26.25-.348-52.291-1.156-78.263-2.08q-6.495-.231-12.982-.471c-56.88-.568-113.13-8.886-163.755-3.688-61.875,6.239-116.25,10.4-172.5-4.158-1.875-1.04-8.691-.575-13.125,1.04-41.875,15.247-67.5,17.328-118.749,4.5-7.643-1.911-48.126-.345-59.376,0s-23.124-10.049-28.75-9.009c-18.75,5.2-14.375,7.623-37.535,7.9q-6.862.684-13.784,1.289c-55.306,4.843-111.556,5.716-171.181-.522-69.375-7.278-138.75,6.238-211.866,2.08q-4.7.258-9.386.357c-15.64.348-31.321-.993-47.483-.993H0v9.9H12.5c16.162,0,31.843,1.34,47.483.993q4.692-.1,9.386-.358c73.116,4.159,142.491-9.359,211.866-2.08,59.625,6.239,115.875,5.366,171.181.524q6.912-.6,13.784-1.29c23.16-.274,18.785-2.7,37.535-7.9,5.626-1.04,17.5,9.357,28.75,9.01s51.733-1.911,59.376,0c51.249,12.824,76.874,10.744,118.749-4.5,4.434-1.614,11.25-2.081,13.125-1.041,56.25,14.556,110.625,10.4,172.5,4.159,50.625-5.2,106.875,3.12,163.755,3.69q6.487.237,12.982.469c25.972.924,52.013,1.733,78.263,2.08,50.625,1.04,83.124,13.862,124.374-7.971,9.375-4.159,42.5-2.427,53.751,3.812,1.875,1.04,45.072-2.669,47.5-2.08,45.627,11.091,83.751,8.319,132.5-2.078,30-6.239,54.375,3.118,82.5,7.277,58.125,9.358,116.25-14.556,174.375-11.438,20.625,1.04,41.25,10.4,66.971,10.323q5.815.288,11.788.568c4.678.525,8.9-.254,13.189-1.044a71.319,71.319,0,0,1,13.632-1.123H1920v-9.9Z" fill="#202022"/>
      <path d="M311.642,937.591c0,1.171-4.094,2.121-9.14,2.121s-9.142-.95-9.142-2.121,4.091-2.122,9.142-2.122S311.642,936.42,311.642,937.591Z" fill="#6e727a"/>
      <path d="M322.306,932.4c0,.616-2.15,1.115-4.8,1.115s-4.807-.5-4.807-1.115,2.151-1.115,4.807-1.115S322.306,931.789,322.306,932.4Z" fill="#6e727a"/>
      <path d="M749.063,938.475c0,1.171-4.092,2.121-9.142,2.121s-9.139-.95-9.139-2.121,4.092-2.122,9.139-2.122S749.063,937.3,749.063,938.475Z" fill="#6e727a"/>
      <path d="M759.785,934.585c0,.684-2.387,1.239-5.332,1.239s-5.332-.555-5.332-1.239,2.388-1.237,5.332-1.237S759.785,933.9,759.785,934.585Z" fill="#6e727a"/>
      <path d="M986.563,936.117c0,1.172-4.092,2.122-9.141,2.122s-9.141-.95-9.141-2.122S972.375,934,977.422,934,986.563,934.946,986.563,936.117Z" fill="#6e727a"/>
      <path d="M1468.517,935.941c0,1.171-4.093,2.121-9.141,2.121s-9.141-.95-9.141-2.121,4.093-2.122,9.141-2.122S1468.517,934.77,1468.517,935.941Z" fill="#6e727a"/>
      <path d="M1016.583,925.864c0,.684-2.387,1.237-5.332,1.237s-5.332-.553-5.332-1.237,2.388-1.237,5.332-1.237S1016.583,925.181,1016.583,925.864Z" fill="#6e727a"/>
      <path d="M565.43,937.656c0,.615-2.15,1.113-4.8,1.113s-4.807-.5-4.807-1.113,2.152-1.116,4.807-1.116S565.43,937.04,565.43,937.656Z" fill="#6e727a"/>
    </g>
    <g>
      <path d="M1920,1086.894H0v-86.57H148.2c151.215,0,227.916,27.071,329.046,27.071,93.75,0,290.364-27.071,409.112-27.071,59.539,0,156.33,22.4,247.5,22.4,67.7,0,132.3-22.4,176.25-22.4,103.125,0,152.812,33.059,219.375,33.059,59.913,0,169.345-33.059,221.25-33.059H1920Z" fill="url(#d)"/>
      <path d="M1522.032,1065.4c-128.844,0-215.91-14.342-254.518-14.342-162.188,0-260.73,9.077-307.514,9.077-133.752,0-224.884-26.755-404.182-26.755-166,0-269.619,18.435-555.818,18.435v35.076H1920v-35.076C1705.573,1051.818,1650.877,1065.4,1522.032,1065.4Z" fill="#300"/>
      <ellipse cx="1833.697" cy="1028.052" rx="15.469" ry="5.33" fill="#300"/>
      <path d="M1811.665,1040.4c0,1.562-4.3,2.829-9.609,2.829s-9.609-1.267-9.609-2.829,4.3-2.829,9.609-2.829S1811.665,1038.838,1811.665,1040.4Z" fill="#300"/>
      <path d="M1792.447,1031.4c0,1.847-4.511,3.345-10.078,3.345s-10.079-1.5-10.079-3.345,4.513-3.346,10.079-3.346S1792.447,1029.55,1792.447,1031.4Z" fill="#300"/>
      <path d="M1429.478,1032.812c0,2.628-8.115,4.759-18.125,4.759s-18.125-2.131-18.125-4.759,8.115-4.76,18.125-4.76S1429.478,1030.183,1429.478,1032.812Z" fill="#300"/>
      <path d="M1453.228,1046.175c0,1.628-5.316,2.946-11.875,2.946s-11.875-1.318-11.875-2.946,5.317-2.946,11.875-2.946S1453.228,1044.547,1453.228,1046.175Z" fill="#300"/>
      <ellipse cx="1207.447" cy="1038.986" rx="17.344" ry="4.243" fill="#300"/>
      <path d="M818.943,1023.711c0,2.4-8.185,4.341-18.281,4.341s-18.28-1.943-18.28-4.341,8.184-4.341,18.28-4.341S818.943,1021.314,818.943,1023.711Z" fill="#300"/>
      <ellipse cx="835.103" cy="1031.398" rx="10.625" ry="3.346" fill="#300"/>
      <path d="M169.165,1027.555c0,2.122-6.5,3.843-14.531,3.843s-14.531-1.721-14.531-3.843,6.506-3.844,14.531-3.844S169.165,1025.432,169.165,1027.555Z" fill="#300"/>
      <path d="M186.509,1021.1c0,1.445-3.252,2.616-7.265,2.616s-7.266-1.171-7.266-2.616,3.253-2.616,7.266-2.616S186.509,1019.651,186.509,1021.1Z" fill="#300"/>
      <path d="M215.572,1033.955c0,1.411-4.512,2.556-10.078,2.556s-10.079-1.145-10.079-2.556,4.513-2.557,10.079-2.557S215.572,1032.543,215.572,1033.955Z" fill="#300"/>
    </g>
  </g>
</svg>
