<?xml version="1.0" encoding="UTF-8" standalone="no"?>
<!DOCTYPE svg PUBLIC "-//W3C//DTD SVG 1.1//EN" "http://www.w3.org/Graphics/SVG/1.1/DTD/svg11.dtd">
<svg width="100%" height="100%" viewBox="0 0 1920 1080" version="1.1" xmlns="http://www.w3.org/2000/svg" xmlns:xlink="http://www.w3.org/1999/xlink" xml:space="preserve" xmlns:serif="http://www.serif.com/" style="fill-rule:evenodd;clip-rule:evenodd;stroke-linejoin:round;stroke-miterlimit:2;">
    <g id="Layer-1" serif:id="Layer 1" transform="matrix(1.41546,0,0,1.5,-1477.11,-0.0003)">
        <g transform="matrix(720,2.60224e-15,2.60224e-15,-720,840,360.5)">
            <rect x="-1.167" y="-0.499" width="3.333" height="1" style="fill:url(#_Linear1);"/>
        </g>
        <g transform="matrix(1,0,0,1,-1,448.546)">
            <path d="M0,26.406C261.515,26.406 310.768,-178.736 579.482,-178.736C848.196,-178.736 894.328,57.003 1200.5,57.003C1506.67,57.003 1611.25,-245.048 1835.33,-245.048C2059.4,-245.048 2153.75,26.406 2401,26.406L2401,271.454L0,271.454L0,26.406Z" style="fill:rgb(105,191,214);fill-rule:nonzero;"/>
        </g>
        <g transform="matrix(1,0,0,1,-1,516.402)">
            <path d="M0,34.392C15.309,34.392 142.213,25.253 142.213,25.253L156.367,-13.556L288.277,-24.533L299.227,-19.282L288.546,-10.853L324.033,-7.386L362.573,11.093L596.486,-3.937L698.728,34.392L710.911,-27.308L723.444,-39.181L715.859,-52.363L748.338,-83.528L724.179,-94.496L734.33,-145.898L942.951,-159.247L983.441,-145.898L1004.7,-163.198L1098.59,-169.206L1123.88,-150.898L1200.5,-154.899L1302.11,-116.105L1337.81,-86.648L1312.19,-83.528L1357.62,-70.302L1368.78,-61.092L1353.42,-54.653L1383.46,-48.983L1427.16,-12.931L1619.41,-18.857L1627.43,-28.234L1650.02,-35.332L1635.05,-37.136L1643.79,-47.356L1662.34,-54.402L1660.61,-67.006L1827.19,-70.336L1874.81,-26.728L2035.57,-15.115L2089.18,-94.629L2117.08,-104.902L2102.43,-114.296L2119.65,-139.836L2216.57,-139.836L2224.68,-117.3L2212.06,-102.725L2221.57,-96.902L2221.07,-84.687L2214.23,-77.069L2220.46,-69.754L2219.64,-49.759L2209.9,-45.069L2219.12,-37.074L2218.15,-13.556L2401,34.392L2401,203.598L0,203.598L0,34.392Z" style="fill:rgb(63,162,181);fill-rule:nonzero;"/>
        </g>
        <g transform="matrix(1,0,0,1,2186.19,631.589)">
            <path d="M0,-243.405L-11.589,-179.302L0,-148.729L-14.906,-98.44L-11.549,-57.41L-14.906,-29.881C-14.906,-29.881 0.728,-1.218 -2.479,-2.014C-5.687,-2.809 -29.611,0 -29.611,0C-29.611,0 -30.357,-35.273 -29.014,-38.62C-27.67,-41.967 -21.624,-60.096 -21.624,-60.096L-25.654,-101.726L-8.183,-147.386L-17.595,-180.288L0,-243.405Z" style="fill:rgb(55,148,169);fill-rule:nonzero;"/>
        </g>
        <g transform="matrix(1,0,0,1,1540.47,632.722)">
            <path d="M0,-420.032L13.643,-329.473L4.35,-257.751L13.64,-144.287L8.756,-84.629L-5.06,-44.165C-5.06,-44.165 -33.02,0 -28.357,-1.156C-23.695,-2.312 35.02,-1.156 35.02,-1.156C35.02,-1.156 36.105,-52.442 34.152,-57.308C32.197,-62.175 23.407,-88.534 23.407,-88.534L29.269,-149.066L16.245,-255.799L22.374,-330.904L0,-420.032Z" style="fill:rgb(55,148,169);fill-rule:nonzero;"/>
        </g>
        <g transform="matrix(1,0,0,1,1709.05,413.509)">
            <path d="M0,218.08L10.582,186.635L-13.573,175.772L10.582,180.306L14.108,156.953L11.085,113.709L24.69,78.065L21.164,37.773C21.164,37.773 8.566,22.664 10.078,23.672C11.589,24.679 21.567,32.737 21.567,32.737L21.567,0L27.591,42.81L31.24,78.065L18.643,117.853L21.164,153.109L36.783,141.301L44.845,123.393L39.806,141.301L33.614,150.591L40.813,153.109L27.591,154.116L21.567,160.663L27.591,193.294L42.324,218.08L0,218.08Z" style="fill:rgb(55,148,169);fill-rule:nonzero;"/>
        </g>
        <g transform="matrix(1,0,0,1,2054.69,494.221)">
            <path d="M0,137.368C-0.196,137.355 6.113,114.239 6.113,114.239L-1.599,90.059L6.113,75.342L6.113,52.564L-7.872,27.333L-7.723,13.315L-5.806,24.88L0,36.795L6.113,25.581L2.608,39.072L10.846,48.534L42.574,35.743L56.597,20.675L61.055,7.709L55.192,0L63.958,7.183L59.051,23.478L45.13,39.184L29.281,46.353L48.696,53.615L55.192,51.863L48.696,56.768L26.547,49.235L14.342,58.495C14.342,58.495 14.878,72.714 14.878,72.802C14.878,72.889 11.2,92.513 11.2,92.513L21.188,112.585L29.145,137.368L0,137.368Z" style="fill:rgb(55,148,169);fill-rule:nonzero;"/>
        </g>
        <g transform="matrix(1,0,0,1,1164.33,494.221)">
            <path d="M0,137.368C-0.196,137.355 6.114,114.239 6.114,114.239L-1.598,90.059L6.114,75.342L6.114,52.564L-7.872,27.333L-7.723,13.315L-5.806,24.88L0,36.795L6.114,25.581L2.608,39.072L10.847,48.534L42.574,35.743L56.597,20.675L61.054,7.709L55.194,0L63.958,7.183L59.051,23.478L45.129,39.184L29.281,46.353L48.696,53.615L55.194,51.863L48.696,56.768L26.547,49.235L14.341,58.495C14.341,58.495 14.878,72.714 14.878,72.802C14.878,72.889 11.2,92.513 11.2,92.513L21.189,112.585L29.145,137.368L0,137.368Z" style="fill:rgb(55,148,169);fill-rule:nonzero;"/>
        </g>
        <g transform="matrix(0,-1,-1,0,1847.35,42.901)">
            <path d="M-83.828,-83.829C-97.899,-83.829 -109.305,-46.299 -109.305,-0.001C-109.305,46.296 -97.899,83.828 -83.828,83.828C-69.757,83.828 -58.35,46.296 -58.35,-0.001C-58.35,-46.299 -69.757,-83.829 -83.828,-83.829" style="fill:white;fill-rule:nonzero;"/>
        </g>
        <g transform="matrix(-1,0,0,1,1847.35,140.858)">
            <path d="M0,4.491C34.33,4.491 64.408,-0.384 81.126,-7.691C71.741,3.262 38.978,12.182 0,12.182C-38.979,12.182 -71.741,3.262 -81.126,-7.691C-64.41,-0.384 -34.331,4.491 0,4.491" style="fill:rgb(138,204,221);fill-rule:nonzero;"/>
        </g>
        <g transform="matrix(0,-1,-1,0,2162.53,90.1789)">
            <path d="M-81.721,-81.724C-95.44,-81.724 -106.559,-45.137 -106.559,-0.002C-106.559,45.131 -95.44,81.721 -81.721,81.721C-68.004,81.721 -56.885,45.131 -56.885,-0.002C-56.885,-45.137 -68.004,-81.724 -81.721,-81.724" style="fill:white;fill-rule:nonzero;"/>
        </g>
        <g transform="matrix(-1,0,0,1,2162.53,185.675)">
            <path d="M-0.003,4.378C33.467,4.378 62.788,-0.375 79.087,-7.498C69.937,3.18 37.996,11.876 -0.003,11.876C-38.002,11.876 -69.941,3.18 -79.09,-7.498C-62.795,-0.375 -33.471,4.378 -0.003,4.378" style="fill:rgb(138,204,221);fill-rule:nonzero;"/>
        </g>
        <g transform="matrix(0,-1,-1,0,2270.36,37.6658)">
            <path d="M-70.509,-70.51C-82.344,-70.51 -91.939,-38.943 -91.939,-0.001C-91.939,38.94 -82.344,70.509 -70.509,70.509C-58.674,70.509 -49.08,38.94 -49.08,-0.001C-49.08,-38.943 -58.674,-70.51 -70.509,-70.51" style="fill:white;fill-rule:nonzero;"/>
        </g>
        <g transform="matrix(-1,0,0,1,2270.36,120.059)">
            <path d="M-0.002,3.777C28.876,3.777 54.173,-0.324 68.235,-6.469C60.342,2.744 32.783,10.246 -0.002,10.246C-32.787,10.246 -60.344,2.744 -68.237,-6.469C-54.178,-0.324 -28.877,3.777 -0.002,3.777" style="fill:rgb(138,204,221);fill-rule:nonzero;"/>
        </g>
        <g transform="matrix(0,-1,-1,0,1331.69,72.4272)">
            <path d="M-81.897,-81.899C-95.644,-81.899 -106.789,-45.232 -106.789,-0.001C-106.789,45.228 -95.644,81.897 -81.897,81.897C-68.152,81.897 -57.007,45.228 -57.007,-0.001C-57.007,-45.232 -68.152,-81.899 -81.897,-81.899" style="fill:white;fill-rule:nonzero;"/>
        </g>
        <g transform="matrix(-1,0,0,1,1331.69,168.129)">
            <path d="M0,4.387C33.54,4.387 62.924,-0.376 79.258,-7.514C70.089,3.187 38.08,11.901 0,11.901C-38.082,11.901 -70.089,3.187 -79.258,-7.514C-62.927,-0.376 -33.541,4.387 0,4.387" style="fill:rgb(138,204,221);fill-rule:nonzero;"/>
        </g>
        <g transform="matrix(0,-1,-1,0,1456.36,49.9092)">
            <path d="M-52.46,-52.46C-61.266,-52.46 -68.404,-28.975 -68.404,-0.002C-68.404,28.972 -61.266,52.46 -52.46,52.46C-43.655,52.46 -36.517,28.972 -36.517,-0.002C-36.517,-28.975 -43.655,-52.46 -52.46,-52.46" style="fill:white;fill-rule:nonzero;"/>
        </g>
        <g transform="matrix(-1,0,0,1,1456.36,111.211)">
            <path d="M-0.001,2.81C21.484,2.81 40.307,-0.241 50.769,-4.813C44.896,2.041 24.393,7.623 -0.001,7.623C-24.394,7.623 -44.897,2.041 -50.77,-4.813C-40.309,-0.241 -21.485,2.81 -0.001,2.81" style="fill:rgb(138,204,221);fill-rule:nonzero;"/>
        </g>
        <g transform="matrix(0,-1,-1,0,1160.88,33.7046)">
            <path d="M-52.46,-52.46C-61.266,-52.46 -68.404,-28.975 -68.404,-0.002C-68.404,28.972 -61.266,52.46 -52.46,52.46C-43.655,52.46 -36.517,28.972 -36.517,-0.002C-36.517,-28.975 -43.655,-52.46 -52.46,-52.46" style="fill:white;fill-rule:nonzero;"/>
        </g>
        <g transform="matrix(-1,0,0,1,1160.89,95.0064)">
            <path d="M0,2.81C21.484,2.81 40.307,-0.241 50.769,-4.813C44.896,2.041 24.393,7.623 0,7.623C-24.393,7.623 -44.896,2.041 -50.769,-4.813C-40.308,-0.241 -21.484,2.81 0,2.81" style="fill:rgb(138,204,221);fill-rule:nonzero;"/>
        </g>
        <g transform="matrix(1,0,0,1,1935.66,389.369)">
            <path d="M0,235.664L0,185.39L29.549,121.918L29.549,47.762L0,23.253L-13.831,37.707L-6.287,46.505L2.515,40.849L-5.658,53.418L-22.004,38.965L3.773,11.941L38.351,38.965L41.495,115.634L58.469,84.211L110.021,49.647L131.397,20.739L131.397,-11.94L135.799,15.084L160.318,-1.884L186.725,0.63L194.438,17.997L181.064,3.772L160.946,3.772L140.2,21.996C140.2,21.996 118.823,50.904 118.823,52.79C118.823,54.675 67.899,89.239 67.899,89.239L50.295,121.289L33.949,169.679L35.207,205.5L67.016,247.604L18.86,247.604L0,235.664Z" style="fill:rgb(14,110,121);fill-rule:nonzero;"/>
        </g>
        <g transform="matrix(1,0,0,1,2002.51,394.429)">
            <path d="M0,79.151L47.39,46.316L72.93,7.268L68.947,10.024L64.546,-16.999L64.546,15.679L43.172,44.588L-8.383,79.151L-17.565,96.15L0,79.151Z" style="fill:rgb(12,90,103);fill-rule:nonzero;"/>
        </g>
        <g transform="matrix(1,0,0,1,1957.13,440.806)">
            <path d="M0,171.861L-13.085,133.953L16.464,70.481L12.016,-3.902L-16.794,-24.307L8.081,-3.675L8.081,70.481L-21.468,133.953L-21.468,184.227L-33.812,196.168L27.105,196.168L0,171.861Z" style="fill:rgb(12,90,103);fill-rule:nonzero;"/>
        </g>
        <g transform="matrix(1,0,0,1,1895.41,453.392)">
            <path d="M0,174.728L0,137.454L-21.91,90.393L-21.91,35.411L0,17.239L10.254,27.956L4.661,34.479L-1.865,30.286L4.194,39.605L16.314,28.888L-2.798,8.852L-28.435,28.888L-30.766,85.734L-43.352,62.436L-81.574,36.809L-97.424,15.375L-97.424,-8.854L-100.687,11.182L-118.867,-1.399L-138.444,0.465L-144.165,13.342L-134.248,2.794L-119.332,2.794L-103.949,16.307C-103.949,16.307 -88.101,37.741 -88.101,39.139C-88.101,40.537 -50.344,66.164 -50.344,66.164L-37.291,89.926L-25.172,125.804L-26.104,152.364L-49.688,183.582L-13.984,183.582L0,174.728Z" style="fill:rgb(14,110,121);fill-rule:nonzero;"/>
        </g>
        <g transform="matrix(1,0,0,1,1845.84,457.142)">
            <path d="M0,58.686L-35.136,34.34L-54.072,5.389L-51.12,7.432L-47.857,-12.604L-47.857,11.625L-32.01,33.059L6.215,58.686L13.023,71.29L0,58.686Z" style="fill:rgb(12,90,103);fill-rule:nonzero;"/>
        </g>
        <g transform="matrix(1,0,0,1,1879.49,491.527)">
            <path d="M0,127.425L9.701,99.319L-12.206,52.258L-8.909,-2.892L12.452,-18.021L-5.992,-2.724L-5.992,52.258L15.918,99.319L15.918,136.593L25.07,145.446L-20.097,145.446L0,127.425Z" style="fill:rgb(12,90,103);fill-rule:nonzero;"/>
        </g>
        <g transform="matrix(1,0,0,1,1313.69,274.072)">
            <path d="M0,345.401L0,271.716L-43.311,178.688L-43.311,70.001L0,34.079L20.271,55.263L9.213,68.159L-3.688,59.869L8.292,78.292L32.249,57.107L-5.53,17.5L-56.211,57.107L-60.818,169.478L-85.696,123.423L-161.255,72.764L-192.586,30.394L-192.586,-17.501L-199.035,22.105L-234.972,-2.764L-273.675,0.921L-284.982,26.375L-265.381,5.526L-235.894,5.526L-205.485,32.237C-205.485,32.237 -174.154,74.606 -174.154,77.37C-174.154,80.133 -99.518,130.792 -99.518,130.792L-73.718,177.767L-49.761,248.689L-51.603,301.191L-98.223,362.902L-27.645,362.902L0,345.401Z" style="fill:rgb(14,110,121);fill-rule:nonzero;"/>
        </g>
        <g transform="matrix(1,0,0,1,1215.71,281.484)">
            <path d="M0,116.011L-69.455,67.885L-106.889,10.654L-101.052,14.693L-94.603,-24.914L-94.603,22.982L-63.273,65.352L12.287,116.011L25.747,140.925L0,116.011Z" style="fill:rgb(12,90,103);fill-rule:nonzero;"/>
        </g>
        <g transform="matrix(1,0,0,1,1282.23,349.458)">
            <path d="M0,251.89L19.178,196.33L-24.131,103.302L-17.61,-5.718L24.614,-35.626L-11.845,-5.385L-11.845,103.302L31.466,196.33L31.466,270.015L49.557,287.516L-39.728,287.516L0,251.89Z" style="fill:rgb(12,90,103);fill-rule:nonzero;"/>
        </g>
        <g transform="matrix(1,0,0,1,1404.43,399.716)">
            <path d="M0,208.046L19.959,163.159L13.544,116.586L26.374,73.386C26.374,73.386 29.225,13.211 29.225,11.073C29.225,8.936 19.959,-29.212 19.959,-29.212L36.403,12.51L34.215,68.399L56.31,59.136L69.14,31.349L64.864,54.86L84.108,56.286L96.939,49.873L96.939,34.199L102.642,52.723L84.108,60.562L66.289,61.274L37.065,79.798L27.799,121.123L35.64,161.733L34.927,197.358L51.321,237.258L-17.818,237.258L0,208.046Z" style="fill:rgb(14,110,121);fill-rule:nonzero;"/>
        </g>
        <g transform="matrix(0.302018,-0.953302,-0.953302,-0.302018,1472.36,447.108)">
            <path d="M-14.499,3.689L15.661,3.689L-14.703,7.528L-25.122,19.803L-14.499,3.689Z" style="fill:rgb(12,90,103);fill-rule:nonzero;"/>
        </g>
        <g transform="matrix(-0.294215,-0.955739,-0.955739,0.294215,1501.08,434.861)">
            <path d="M-16.626,-0.563L0.817,-0.563L-14.163,4.049L-16.349,17.183L-16.626,-0.563Z" style="fill:rgb(12,90,103);fill-rule:nonzero;"/>
        </g>
        <g transform="matrix(1,0,0,1,1431.52,444.603)">
            <path d="M0,118.272L-6.415,71.699L2.905,30.555C2.905,30.555 3.738,-23.185 4.075,-32.036L-7.126,-74.099C-7.126,-74.099 2.14,-35.952 2.14,-33.814C2.14,-31.676 -0.711,28.499 -0.711,28.499L-13.541,71.699L-7.126,118.272L-27.085,163.159L-44.903,192.371L-2.605,192.371L-11.13,170.292L0,118.272Z" style="fill:rgb(12,90,103);fill-rule:nonzero;"/>
        </g>
        <g transform="matrix(1,0,0,1,2252.68,399.716)">
            <path d="M0,208.046L19.959,163.159L13.544,116.586L26.373,73.386C26.373,73.386 29.225,13.211 29.225,11.073C29.225,8.936 19.959,-29.212 19.959,-29.212L36.403,12.51L34.215,68.399L56.31,59.136L69.14,31.349L64.864,54.86L84.108,56.286L96.939,49.873L96.939,34.199L102.642,52.723L84.108,60.562L66.288,61.274L37.065,79.798L27.799,121.123L35.639,161.733L34.927,197.358L51.321,237.258L-17.818,237.258L0,208.046Z" style="fill:rgb(14,110,121);fill-rule:nonzero;"/>
        </g>
        <g transform="matrix(0.302018,-0.953302,-0.953302,-0.302018,2320.61,447.108)">
            <path d="M-14.499,3.689L15.661,3.689L-14.703,7.528L-25.122,19.803L-14.499,3.689Z" style="fill:rgb(12,90,103);fill-rule:nonzero;"/>
        </g>
        <g transform="matrix(-0.294215,-0.955739,-0.955739,0.294215,2349.32,434.861)">
            <path d="M-16.627,-0.563L0.816,-0.563L-14.164,4.048L-16.349,17.183L-16.627,-0.563Z" style="fill:rgb(12,90,103);fill-rule:nonzero;"/>
        </g>
        <g transform="matrix(1,0,0,1,2279.77,444.603)">
            <path d="M0,118.272L-6.415,71.699L2.905,30.555C2.905,30.555 3.737,-23.185 4.075,-32.036L-7.126,-74.099C-7.126,-74.099 2.14,-35.952 2.14,-33.814C2.14,-31.676 -0.712,28.499 -0.712,28.499L-13.541,71.699L-7.126,118.272L-27.085,163.159L-44.903,192.371L-2.605,192.371L-11.13,170.292L0,118.272Z" style="fill:rgb(12,90,103);fill-rule:nonzero;"/>
        </g>
        <g transform="matrix(1,0,0,1,799.333,647.704)">
            <path d="M0,72.296L400.167,72.296L400.167,11.399L311.326,13.106L253.238,0L199.75,5.015L168.785,6.336L82.875,0L0,13.106L0,72.296Z" style="fill:rgb(73,77,63);fill-rule:nonzero;"/>
        </g>
        <g transform="matrix(1,0,0,1,915.583,651.974)">
            <path d="M0,31.878L66.545,24.352L127.604,35.165L184.301,27.629L242.966,36.148L283.917,27.607L283.917,7.128L195.076,8.835L136.988,-4.27L83.5,0.744L52.535,2.065L-33.375,-4.27L-116.25,8.835L-116.25,32.766L-73.312,24.352L0,31.878Z" style="fill:rgb(73,77,63);fill-rule:nonzero;"/>
        </g>
        <g transform="matrix(1,0,0,1,1158.55,695.985)">
            <path d="M0,-7.863L-58.665,-16.382L-115.362,-8.845L-176.421,-19.659L-242.966,-12.133L-316.278,-19.659L-359.216,-16.403L-359.216,3.79L-304.568,-5.242L-238.446,11.796L-176.421,-5.242L-111.947,3.278L-58.665,-5.242L0,8.52L40.951,3.79L40.951,-16.403L0,-7.863Z" style="fill:rgb(58,61,52);fill-rule:nonzero;"/>
        </g>
        <g transform="matrix(1,0,0,1,1099.88,720)">
            <path d="M0,-29.257L-53.282,-20.737L-117.756,-29.257L-179.781,-12.219L-245.903,-29.257L-300.551,-20.225L-300.551,0L99.616,0L99.616,-20.225L58.665,-15.495L0,-29.257Z" style="fill:rgb(73,77,63);fill-rule:nonzero;"/>
        </g>
        <g transform="matrix(1,0,0,1,1110.66,655.786)">
            <path d="M0,2.185L-58.088,-10.92L-111.576,-5.907L-142.542,-4.586L-228.451,-10.92L-311.326,2.185L-311.326,13.105L-228.451,-0.001L-142.542,6.335L-111.576,5.014L-58.088,-0.001L0,13.105L88.841,13.105L88.841,1.311L0,2.185Z" style="fill:rgb(48,51,43);fill-rule:nonzero;"/>
        </g>
        <g transform="matrix(1,0,0,1,1199.5,641.668)">
            <path d="M0,21.803L-89.65,21.747C-89.789,21.722 -147.492,9.711 -147.492,9.711C-147.492,9.711 -176.894,12.442 -199.296,15.865L-233.695,15.897L-317.628,10.026L-400.167,21.767L-400.167,12.411L-317.89,0.598L-317.51,0.624L-233.322,6.513L-200.1,6.513C-198.183,6.223 -186.272,4.427 -174.261,2.857C-166.572,1.852 -160.335,1.134 -155.727,0.722C-147.653,0 -145.451,0.24 -144.151,1.155C-141.139,2.416 -117.021,7.315 -88.707,12.411L0,12.411L0,21.803Z" style="fill:rgb(11,93,108);fill-rule:nonzero;"/>
        </g>
        <g transform="matrix(1,0,0,1,799.333,645.955)">
            <path d="M0,-23.373L123.434,-33.858L164.08,-28.616C164.08,-28.616 290.708,-34.515 293.834,-33.858C296.961,-33.203 400.167,-23.373 400.167,-23.373L400.167,11.142L311.587,11.142L252.708,-1.527L201.599,4.58L163.764,4.58L82.875,-1.743L0,11.142L0,-23.373Z" style="fill:rgb(13,121,132);fill-rule:nonzero;"/>
        </g>
        <g transform="matrix(1,0,0,1,1199.5,616.712)">
            <path d="M0,35.08L-87.959,35.848L-147.168,23.108L-198.937,29.293L-188.36,23.566L-213.113,16.926L-189.143,9.37L-202.789,3.32C-168.054,1.758 -117.135,-0.459 -107.816,-0.459C-107.375,-0.459 -107.142,-0.454 -107.039,-0.45C-99.919,0.536 -31.967,6.965 0,10.014L0,35.08ZM-236.16,29.293L-317.529,22.933L-400.167,35.08L-400.167,10.014L-276.869,-0.374L-236.342,4.852L-235.798,4.827C-235.515,4.814 -228.254,4.476 -217.302,3.977L-198.542,9.151L-238.267,14.314L-222.895,22.19L-236.16,29.293ZM-106.333,-4.776C-109.459,-5.432 -236.087,0.466 -236.087,0.466L-276.733,-4.776L-400.167,5.708L-400.167,40.385L-317.205,27.657L-236.355,33.95L-198.531,33.915L-147.29,27.889L-88.579,40.512L0,40.385L0,5.708C0,5.708 -103.206,-4.122 -106.333,-4.776" style="fill:rgb(15,109,123);fill-rule:nonzero;"/>
        </g>
        <g transform="matrix(0,-1,-1,0,1060.85,618.081)">
            <path d="M-6.55,-6.549C-7.231,-6.549 -7.781,-3.617 -7.781,0C-7.781,3.618 -7.231,6.55 -6.55,6.55C-5.868,6.55 -5.318,3.618 -5.318,0C-5.318,-3.617 -5.868,-6.549 -6.55,-6.549" style="fill:rgb(15,109,123);fill-rule:nonzero;"/>
        </g>
        <g transform="matrix(0,-1,-1,0,1126.95,628.022)">
            <path d="M-6.549,-6.549C-7.23,-6.549 -7.781,-3.617 -7.781,-0.001C-7.781,3.617 -7.23,6.549 -6.549,6.549C-5.868,6.549 -5.317,3.617 -5.317,-0.001C-5.317,-3.617 -5.868,-6.549 -6.549,-6.549" style="fill:rgb(15,109,123);fill-rule:nonzero;"/>
        </g>
        <g transform="matrix(0,-1,-1,0,1140.05,632.835)">
            <path d="M-6.55,-6.55C-7.231,-6.55 -7.782,-3.616 -7.782,0C-7.782,3.617 -7.231,6.55 -6.55,6.55C-5.869,6.55 -5.318,3.617 -5.318,0C-5.318,-3.616 -5.869,-6.55 -6.55,-6.55" style="fill:rgb(15,109,123);fill-rule:nonzero;"/>
        </g>
        <g transform="matrix(0,-1,-1,0,1093.33,619.66)">
            <path d="M-6.549,-6.549C-7.23,-6.549 -7.781,-3.618 -7.781,-0C-7.781,3.618 -7.23,6.549 -6.549,6.549C-5.868,6.549 -5.316,3.618 -5.316,-0C-5.316,-3.618 -5.868,-6.549 -6.549,-6.549" style="fill:rgb(15,109,123);fill-rule:nonzero;"/>
        </g>
        <g transform="matrix(0,-1,-1,0,1046.68,618.461)">
            <path d="M-8.981,-8.98C-9.914,-8.98 -10.67,-4.959 -10.67,0.001C-10.67,4.962 -9.914,8.981 -8.981,8.981C-8.047,8.981 -7.291,4.962 -7.291,0.001C-7.291,-4.959 -8.047,-8.98 -8.981,-8.98" style="fill:rgb(15,109,123);fill-rule:nonzero;"/>
        </g>
        <g transform="matrix(1,0,0,1,1083.57,697.679)">
            <path d="M0,-13.871L1.734,0L-11.916,-7.44L0,-13.871Z" style="fill:rgb(58,61,52);fill-rule:nonzero;"/>
        </g>
        <g transform="matrix(1,0,0,1,1199.5,702.395)">
            <path d="M0,-7.87L-11.227,2.771L-14.253,-10.641L0,-7.87Z" style="fill:rgb(58,61,52);fill-rule:nonzero;"/>
        </g>
        <g transform="matrix(1,0,0,1,1164.38,680.729)">
            <path d="M0,13.56L3.885,0L13.792,10.832L0,13.56Z" style="fill:rgb(58,61,52);fill-rule:nonzero;"/>
        </g>
        <g transform="matrix(0,1,1,0,1052.02,661.133)">
            <path d="M7.084,-6.717C7.084,-6.717 4.755,-1.998 4.755,-0.967C4.755,0.066 7.084,7.084 7.084,7.084C7.084,7.084 9.046,-2.273 8.923,-2.712C8.8,-3.151 7.084,-6.717 7.084,-6.717" style="fill:rgb(58,61,52);fill-rule:nonzero;"/>
        </g>
        <g transform="matrix(0,1,1,0,1153.31,673.888)">
            <path d="M7.084,-6.717C7.084,-6.717 4.755,-1.999 4.755,-0.967C4.755,0.065 7.084,7.084 7.084,7.084C7.084,7.084 9.046,-2.273 8.923,-2.712C8.8,-3.152 7.084,-6.717 7.084,-6.717" style="fill:rgb(58,61,52);fill-rule:nonzero;"/>
        </g>
        <g transform="matrix(0.927502,-0.373818,-0.373818,-0.927502,1094.67,702.334)">
            <path d="M0.69,1.918L7.506,1.918L9.96,-3.388L3.159,-3.591L0.69,1.918Z" style="fill:rgb(58,61,52);fill-rule:nonzero;"/>
        </g>
        <g transform="matrix(0.92753,-0.373749,-0.373749,-0.92753,1104.14,705.421)">
            <path d="M0.333,0.925L3.621,0.925L4.805,-1.635L1.525,-1.733L0.333,0.925Z" style="fill:rgb(58,61,52);fill-rule:nonzero;"/>
        </g>
        <g transform="matrix(0.92753,-0.373749,-0.373749,-0.92753,1117.82,701.703)">
            <path d="M0.333,0.925L3.621,0.925L4.805,-1.634L1.525,-1.733L0.333,0.925Z" style="fill:rgb(58,61,52);fill-rule:nonzero;"/>
        </g>
        <g transform="matrix(0.927445,-0.37396,-0.37396,-0.927445,1142.44,711.641)">
            <path d="M0.333,0.926L3.62,0.926L4.805,-1.635L1.524,-1.734L0.333,0.926Z" style="fill:rgb(58,61,52);fill-rule:nonzero;"/>
        </g>
        <g transform="matrix(1,0,0,1,1199.5,647.704)">
            <path d="M0,72.296L400.166,72.296L400.166,11.399L311.328,13.106L253.239,0L199.751,5.015L168.785,6.336L82.876,0L0,13.106L0,72.296Z" style="fill:rgb(73,77,63);fill-rule:nonzero;"/>
        </g>
        <g transform="matrix(1,0,0,1,1315.75,651.974)">
            <path d="M0,31.878L66.543,24.352L127.602,35.165L184.3,27.629L242.965,36.148L283.914,27.607L283.914,7.128L195.076,8.835L136.987,-4.27L83.499,0.744L52.533,2.065L-33.376,-4.27L-116.252,8.835L-116.252,32.766L-73.314,24.352L0,31.878Z" style="fill:rgb(73,77,63);fill-rule:nonzero;"/>
        </g>
        <g transform="matrix(1,0,0,1,1558.72,695.985)">
            <path d="M0,-7.863L-58.665,-16.382L-115.363,-8.845L-176.422,-19.659L-242.965,-12.133L-316.279,-19.659L-359.217,-16.403L-359.217,3.79L-304.568,-5.242L-238.447,11.796L-176.422,-5.242L-111.948,3.278L-58.665,-5.242L0,8.52L40.949,3.79L40.949,-16.403L0,-7.863Z" style="fill:rgb(58,61,52);fill-rule:nonzero;"/>
        </g>
        <g transform="matrix(1,0,0,1,1500.05,720)">
            <path d="M0,-29.257L-53.283,-20.737L-117.757,-29.257L-179.782,-12.219L-245.903,-29.257L-300.552,-20.225L-300.552,0L99.614,0L99.614,-20.225L58.665,-15.495L0,-29.257Z" style="fill:rgb(73,77,63);fill-rule:nonzero;"/>
        </g>
        <g transform="matrix(1,0,0,1,1510.83,655.786)">
            <path d="M0,2.185L-58.089,-10.92L-111.577,-5.907L-142.543,-4.586L-228.452,-10.92L-311.328,2.185L-311.328,13.105L-228.452,-0.001L-142.543,6.335L-111.577,5.014L-58.089,-0.001L0,13.105L88.838,13.105L88.838,1.311L0,2.185Z" style="fill:rgb(48,51,43);fill-rule:nonzero;"/>
        </g>
        <g transform="matrix(1,0,0,1,1599.67,641.668)">
            <path d="M0,21.803L-89.649,21.747C-89.786,21.722 -147.49,9.711 -147.49,9.711C-147.49,9.711 -176.892,12.442 -199.295,15.865L-233.693,15.897L-317.626,10.026L-400.166,21.767L-400.166,12.411L-317.889,0.598L-317.509,0.624L-233.321,6.513L-200.1,6.513C-198.181,6.223 -186.271,4.427 -174.259,2.857C-166.569,1.852 -160.334,1.134 -155.726,0.722C-147.651,0 -145.448,0.24 -144.15,1.155C-141.139,2.416 -117.019,7.315 -88.704,12.411L0,12.411L0,21.803Z" style="fill:rgb(11,93,108);fill-rule:nonzero;"/>
        </g>
        <g transform="matrix(1,0,0,1,1199.5,645.955)">
            <path d="M0,-23.373L123.435,-33.858L164.08,-28.616C164.08,-28.616 290.708,-34.515 293.834,-33.858C296.961,-33.203 400.166,-23.373 400.166,-23.373L400.166,11.142L311.588,11.142L252.709,-1.527L201.599,4.58L163.766,4.58L82.876,-1.743L0,11.142L0,-23.373Z" style="fill:rgb(13,121,132);fill-rule:nonzero;"/>
        </g>
        <g transform="matrix(1,0,0,1,1599.67,616.712)">
            <path d="M0,35.08L-87.958,35.848L-147.166,23.108L-198.936,29.293L-188.359,23.566L-213.11,16.926L-189.142,9.37L-202.788,3.32C-168.054,1.758 -117.134,-0.459 -107.814,-0.459C-107.372,-0.459 -107.141,-0.454 -107.037,-0.45C-99.919,0.536 -31.968,6.965 0,10.014L0,35.08ZM-236.158,29.293L-317.528,22.933L-400.166,35.08L-400.166,10.014L-276.867,-0.374L-236.341,4.852L-235.797,4.827C-235.513,4.814 -228.252,4.476 -217.3,3.977L-198.54,9.151L-238.266,14.314L-222.893,22.19L-236.158,29.293ZM-106.332,-4.776C-109.458,-5.432 -236.086,0.466 -236.086,0.466L-276.731,-4.776L-400.166,5.708L-400.166,40.385L-317.203,27.657L-236.353,33.95L-198.53,33.915L-147.289,27.889L-88.578,40.512L0,40.385L0,5.708C0,5.708 -103.205,-4.122 -106.332,-4.776" style="fill:rgb(15,109,123);fill-rule:nonzero;"/>
        </g>
        <g transform="matrix(0,-1,-1,0,1431.31,615.616)">
            <path d="M-6.55,-6.55C-7.231,-6.55 -7.782,-3.618 -7.782,-0.002C-7.782,3.617 -7.231,6.55 -6.55,6.55C-5.869,6.55 -5.318,3.617 -5.318,-0.002C-5.318,-3.618 -5.869,-6.55 -6.55,-6.55" style="fill:rgb(15,109,123);fill-rule:nonzero;"/>
        </g>
        <g transform="matrix(0,-1,-1,0,1461.02,618.082)">
            <path d="M-6.55,-6.548C-7.231,-6.548 -7.781,-3.617 -7.781,0C-7.781,3.618 -7.231,6.55 -6.55,6.55C-5.868,6.55 -5.317,3.618 -5.317,0C-5.317,-3.617 -5.868,-6.548 -6.55,-6.548" style="fill:rgb(15,109,123);fill-rule:nonzero;"/>
        </g>
        <g transform="matrix(0,-1,-1,0,1527.11,628.022)">
            <path d="M-6.55,-6.55C-7.231,-6.55 -7.782,-3.618 -7.782,-0C-7.782,3.617 -7.231,6.55 -6.55,6.55C-5.869,6.55 -5.318,3.617 -5.318,-0C-5.318,-3.618 -5.869,-6.55 -6.55,-6.55" style="fill:rgb(15,109,123);fill-rule:nonzero;"/>
        </g>
        <g transform="matrix(0,-1,-1,0,1540.21,632.835)">
            <path d="M-6.55,-6.55C-7.231,-6.55 -7.782,-3.618 -7.782,-0C-7.782,3.617 -7.231,6.55 -6.55,6.55C-5.869,6.55 -5.318,3.617 -5.318,-0C-5.318,-3.618 -5.869,-6.55 -6.55,-6.55" style="fill:rgb(15,109,123);fill-rule:nonzero;"/>
        </g>
        <g transform="matrix(0,-1,-1,0,1493.5,619.66)">
            <path d="M-6.549,-6.549C-7.23,-6.549 -7.781,-3.617 -7.781,0.001C-7.781,3.617 -7.23,6.549 -6.549,6.549C-5.868,6.549 -5.316,3.617 -5.316,0.001C-5.316,-3.617 -5.868,-6.549 -6.549,-6.549" style="fill:rgb(15,109,123);fill-rule:nonzero;"/>
        </g>
        <g transform="matrix(0,-1,-1,0,1446.85,618.461)">
            <path d="M-8.981,-8.98C-9.914,-8.98 -10.67,-4.959 -10.67,-0C-10.67,4.961 -9.914,8.981 -8.981,8.981C-8.047,8.981 -7.291,4.961 -7.291,-0C-7.291,-4.959 -8.047,-8.98 -8.981,-8.98" style="fill:rgb(15,109,123);fill-rule:nonzero;"/>
        </g>
        <g transform="matrix(0,-1,-1,0,1324.73,613.186)">
            <path d="M-8.98,-8.98C-9.914,-8.98 -10.67,-4.96 -10.67,-0.001C-10.67,4.96 -9.914,8.98 -8.98,8.98C-8.046,8.98 -7.29,4.96 -7.29,-0.001C-7.29,-4.96 -8.046,-8.98 -8.98,-8.98" style="fill:rgb(15,109,123);fill-rule:nonzero;"/>
        </g>
        <g transform="matrix(0,-1,-1,0,1236.66,626.431)">
            <path d="M-8.982,-8.981C-9.915,-8.981 -10.671,-4.96 -10.671,-0.001C-10.671,4.96 -9.915,8.982 -8.982,8.982C-8.048,8.982 -7.292,4.96 -7.292,-0.001C-7.292,-4.96 -8.048,-8.981 -8.982,-8.981" style="fill:rgb(15,109,123);fill-rule:nonzero;"/>
        </g>
        <g transform="matrix(0,-1,-1,0,1304.07,622.123)">
            <path d="M-4.47,-4.47C-4.935,-4.47 -5.312,-2.469 -5.312,-0C-5.312,2.468 -4.935,4.47 -4.47,4.47C-4.005,4.47 -3.628,2.468 -3.628,-0C-3.628,-2.469 -4.005,-4.47 -4.47,-4.47" style="fill:rgb(15,109,123);fill-rule:nonzero;"/>
        </g>
        <g transform="matrix(0,-1,-1,0,1335.72,621.281)">
            <path d="M-4.471,-4.47C-4.936,-4.47 -5.312,-2.468 -5.312,0.001C-5.312,2.47 -4.936,4.471 -4.471,4.471C-4.006,4.471 -3.629,2.47 -3.629,0.001C-3.629,-2.468 -4.006,-4.47 -4.471,-4.47" style="fill:rgb(15,109,123);fill-rule:nonzero;"/>
        </g>
        <g transform="matrix(0,-1,-1,0,1356.04,630.1)">
            <path d="M-4.471,-4.471C-4.935,-4.471 -5.313,-2.47 -5.313,0.001C-5.313,2.468 -4.935,4.471 -4.471,4.471C-4.006,4.471 -3.629,2.468 -3.629,0.001C-3.629,-2.47 -4.006,-4.471 -4.471,-4.471" style="fill:rgb(15,109,123);fill-rule:nonzero;"/>
        </g>
        <g transform="matrix(1,0,0,1,1282.4,673.26)">
            <path d="M0,12.449L7.497,0L14.171,12.449L0,12.449Z" style="fill:rgb(58,61,52);fill-rule:nonzero;"/>
        </g>
        <g transform="matrix(1,0,0,1,1317.32,700.694)">
            <path d="M0,0.844L-14.875,7.087L-11.375,-6.243L0,0.844Z" style="fill:rgb(58,61,52);fill-rule:nonzero;"/>
        </g>
        <g transform="matrix(1,0,0,1,1357.51,704.613)">
            <path d="M0,-13.87L1.732,0L-11.917,-7.44L0,-13.87Z" style="fill:rgb(58,61,52);fill-rule:nonzero;"/>
        </g>
        <g transform="matrix(1,0,0,1,1483.74,697.679)">
            <path d="M0,-13.871L1.733,0L-11.916,-7.44L0,-13.871Z" style="fill:rgb(58,61,52);fill-rule:nonzero;"/>
        </g>
        <g transform="matrix(1,0,0,1,1599.67,702.395)">
            <path d="M0,-7.87L-11.224,2.771L-14.252,-10.641L0,-7.87Z" style="fill:rgb(58,61,52);fill-rule:nonzero;"/>
        </g>
        <g transform="matrix(1,0,0,1,1391.43,681.072)">
            <path d="M0,4.157L12.803,-4.746L12.99,8.903L0,4.157Z" style="fill:rgb(58,61,52);fill-rule:nonzero;"/>
        </g>
        <g transform="matrix(1,0,0,1,1564.55,680.729)">
            <path d="M0,13.56L3.886,0L13.793,10.832L0,13.56Z" style="fill:rgb(58,61,52);fill-rule:nonzero;"/>
        </g>
        <g transform="matrix(0,1,1,0,1452.19,661.133)">
            <path d="M7.084,-6.717C7.084,-6.717 4.755,-1.999 4.755,-0.968C4.755,0.065 7.084,7.084 7.084,7.084C7.084,7.084 9.046,-2.274 8.923,-2.712C8.8,-3.153 7.084,-6.717 7.084,-6.717" style="fill:rgb(58,61,52);fill-rule:nonzero;"/>
        </g>
        <g transform="matrix(0,1,1,0,1553.48,673.888)">
            <path d="M7.084,-6.717C7.084,-6.717 4.755,-1.998 4.755,-0.966C4.755,0.066 7.084,7.084 7.084,7.084C7.084,7.084 9.046,-2.274 8.923,-2.712C8.8,-3.151 7.084,-6.717 7.084,-6.717" style="fill:rgb(58,61,52);fill-rule:nonzero;"/>
        </g>
        <g transform="matrix(0,1,1,0,1350.69,657.754)">
            <path d="M10.519,-9.973C10.519,-9.973 7.061,-2.966 7.061,-1.433C7.061,0.098 10.519,10.519 10.519,10.519C10.519,10.519 13.431,-3.374 13.249,-4.026C13.067,-4.677 10.519,-9.973 10.519,-9.973" style="fill:rgb(58,61,52);fill-rule:nonzero;"/>
        </g>
        <g transform="matrix(0,1,1,0,1409.25,695.028)">
            <path d="M7.573,-7.181C7.573,-7.181 5.084,-2.136 5.084,-1.033C5.084,0.071 7.573,7.573 7.573,7.573C7.573,7.573 9.67,-2.431 9.538,-2.899C9.407,-3.368 7.573,-7.181 7.573,-7.181" style="fill:rgb(58,61,52);fill-rule:nonzero;"/>
        </g>
        <g transform="matrix(-0.00446706,0.99999,0.99999,0.00446706,1223.36,691.897)">
            <path d="M12.901,-12.45C12.901,-12.45 10.389,-7.417 10.384,-6.312C10.379,-5.211 12.901,12.846 12.901,12.846C12.901,12.846 14.976,-7.691 14.846,-8.16C14.718,-8.63 12.901,-12.45 12.901,-12.45" style="fill:rgb(58,61,52);fill-rule:nonzero;"/>
        </g>
        <g transform="matrix(-0.0101455,0.999949,0.999949,0.0101455,1240.67,697.182)">
            <path d="M10.964,-10.928C10.964,-10.928 9.545,-1.149 9.538,-0.496C9.531,0.158 10.964,10.855 10.964,10.855C10.964,10.855 12.261,-1.297 12.186,-1.574C12.111,-1.852 10.964,-10.928 10.964,-10.928" style="fill:rgb(58,61,52);fill-rule:nonzero;"/>
        </g>
        <g transform="matrix(0,1,1,0,1395.68,702.38)">
            <path d="M5.406,-5.127C5.406,-5.127 3.629,-1.525 3.629,-0.737C3.629,0.051 5.406,5.406 5.406,5.406C5.406,5.406 6.903,-1.735 6.809,-2.069C6.717,-2.403 5.406,-5.127 5.406,-5.127" style="fill:rgb(58,61,52);fill-rule:nonzero;"/>
        </g>
        <g transform="matrix(0,1,1,0,1404.71,705.565)">
            <path d="M5.407,-5.127C5.407,-5.127 3.63,-1.525 3.63,-0.737C3.63,0.05 5.407,5.407 5.407,5.407C5.407,5.407 6.904,-1.734 6.81,-2.069C6.717,-2.405 5.407,-5.127 5.407,-5.127" style="fill:rgb(58,61,52);fill-rule:nonzero;"/>
        </g>
        <g transform="matrix(0,1,1,0,1248.58,657.755)">
            <path d="M10.519,-9.973C10.519,-9.973 7.06,-2.967 7.06,-1.435C7.06,0.098 10.519,10.519 10.519,10.519C10.519,10.519 13.43,-3.376 13.249,-4.026C13.067,-4.678 10.519,-9.973 10.519,-9.973" style="fill:rgb(58,61,52);fill-rule:nonzero;"/>
        </g>
        <g transform="matrix(-0.0230319,-0.999735,-0.999735,0.0230319,1330.69,668.453)">
            <path d="M-6.471,-6.926C-6.471,-6.926 -8.707,-2.42 -8.707,-1.43C-8.707,-0.437 -6.471,6.317 -6.471,6.317C-6.471,6.317 -4.589,-2.644 -4.707,-3.066C-4.824,-3.487 -6.471,-6.926 -6.471,-6.926" style="fill:rgb(58,61,52);fill-rule:nonzero;"/>
        </g>
        <g transform="matrix(0.927482,-0.373869,-0.373869,-0.927482,1426.1,678.482)">
            <path d="M0.69,1.919L7.505,1.919L9.96,-3.388L3.16,-3.59L0.69,1.919Z" style="fill:rgb(58,61,52);fill-rule:nonzero;"/>
        </g>
        <g transform="matrix(0.927502,-0.373818,-0.373818,-0.927502,1494.84,702.334)">
            <path d="M0.69,1.918L7.506,1.918L9.96,-3.388L3.161,-3.592L0.69,1.918Z" style="fill:rgb(58,61,52);fill-rule:nonzero;"/>
        </g>
        <g transform="matrix(0.92753,-0.373749,-0.373749,-0.92753,1504.31,705.421)">
            <path d="M0.333,0.925L3.621,0.925L4.804,-1.635L1.525,-1.733L0.333,0.925Z" style="fill:rgb(58,61,52);fill-rule:nonzero;"/>
        </g>
        <g transform="matrix(0.927487,-0.373854,-0.373854,-0.927487,1517.99,701.703)">
            <path d="M0.333,0.925L3.62,0.925L4.804,-1.634L1.525,-1.733L0.333,0.925Z" style="fill:rgb(58,61,52);fill-rule:nonzero;"/>
        </g>
        <g transform="matrix(0.927572,-0.373644,-0.373644,-0.927572,1542.6,711.641)">
            <path d="M0.333,0.925L3.622,0.925L4.805,-1.634L1.526,-1.734L0.333,0.925Z" style="fill:rgb(58,61,52);fill-rule:nonzero;"/>
        </g>
        <g transform="matrix(0.927514,-0.373789,-0.373789,-0.927514,1378.87,696.996)">
            <path d="M0.495,1.375L5.38,1.375L7.14,-2.429L2.266,-2.574L0.495,1.375Z" style="fill:rgb(58,61,52);fill-rule:nonzero;"/>
        </g>
        <g transform="matrix(0.927502,-0.373818,-0.373818,-0.927502,1248.93,699.678)">
            <path d="M0.69,1.918L7.506,1.918L9.96,-3.389L3.161,-3.592L0.69,1.918Z" style="fill:rgb(58,61,52);fill-rule:nonzero;"/>
        </g>
        <g transform="matrix(1,0,0,1,1599.67,647.704)">
            <path d="M0,72.296L400.166,72.296L400.166,11.399L311.327,13.106L253.24,0L199.751,5.015L168.786,6.336L82.877,0L0,13.106L0,72.296Z" style="fill:rgb(73,77,63);fill-rule:nonzero;"/>
        </g>
        <g transform="matrix(1,0,0,1,1715.92,651.974)">
            <path d="M0,31.878L66.545,24.352L127.604,35.165L184.302,27.629L242.965,36.148L283.915,27.607L283.915,7.128L195.076,8.835L136.989,-4.27L83.5,0.744L52.535,2.065L-33.374,-4.27L-116.251,8.835L-116.251,32.766L-73.313,24.352L0,31.878Z" style="fill:rgb(73,77,63);fill-rule:nonzero;"/>
        </g>
        <g transform="matrix(1,0,0,1,1958.88,695.985)">
            <path d="M0,-7.863L-58.663,-16.382L-115.361,-8.845L-176.42,-19.659L-242.965,-12.133L-316.278,-19.659L-359.216,-16.403L-359.216,3.79L-304.567,-5.242L-238.445,11.796L-176.42,-5.242L-111.946,3.278L-58.663,-5.242L0,8.52L40.95,3.79L40.95,-16.403L0,-7.863Z" style="fill:rgb(58,61,52);fill-rule:nonzero;"/>
        </g>
        <g transform="matrix(1,0,0,1,1900.22,720)">
            <path d="M0,-29.257L-53.283,-20.737L-117.757,-29.257L-179.782,-12.219L-245.904,-29.257L-300.553,-20.225L-300.553,0L99.613,0L99.613,-20.225L58.663,-15.495L0,-29.257Z" style="fill:rgb(73,77,63);fill-rule:nonzero;"/>
        </g>
        <g transform="matrix(1,0,0,1,1910.99,655.786)">
            <path d="M0,2.185L-58.087,-10.92L-111.576,-5.907L-142.541,-4.586L-228.45,-10.92L-311.327,2.185L-311.327,13.105L-228.45,-0.001L-142.541,6.335L-111.576,5.014L-58.087,-0.001L0,13.105L88.839,13.105L88.839,1.311L0,2.185Z" style="fill:rgb(48,51,43);fill-rule:nonzero;"/>
        </g>
        <g transform="matrix(1,0,0,1,1999.83,641.668)">
            <path d="M0,21.803L-89.649,21.747C-89.785,21.722 -147.49,9.711 -147.49,9.711C-147.49,9.711 -176.892,12.442 -199.295,15.865L-233.693,15.897L-317.625,10.026L-400.166,21.767L-400.166,12.411L-317.888,0.598L-317.509,0.624L-233.321,6.513L-200.099,6.513C-198.18,6.223 -186.271,4.427 -174.258,2.857C-166.569,1.852 -160.334,1.134 -155.726,0.722C-147.652,0 -145.448,0.24 -144.15,1.155C-141.139,2.416 -117.02,7.315 -88.705,12.411L0,12.411L0,21.803Z" style="fill:rgb(11,93,108);fill-rule:nonzero;"/>
        </g>
        <g transform="matrix(1,0,0,1,1599.67,645.955)">
            <path d="M0,-23.373L123.434,-33.858L164.08,-28.616C164.08,-28.616 290.708,-34.515 293.834,-33.858C296.96,-33.203 400.166,-23.373 400.166,-23.373L400.166,11.142L311.588,11.142L252.709,-1.527L201.6,4.58L163.766,4.58L82.877,-1.743L0,11.142L0,-23.373Z" style="fill:rgb(13,121,132);fill-rule:nonzero;"/>
        </g>
        <g transform="matrix(1,0,0,1,1999.83,616.712)">
            <path d="M0,35.08L-87.958,35.848L-147.166,23.108L-198.936,29.293L-188.359,23.566L-213.109,16.926L-189.141,9.37L-202.788,3.32C-168.053,1.758 -117.135,-0.459 -107.815,-0.459C-107.373,-0.459 -107.14,-0.454 -107.036,-0.45C-99.918,0.536 -31.967,6.965 0,10.014L0,35.08ZM-236.158,29.293L-317.527,22.933L-400.166,35.08L-400.166,10.014L-276.868,-0.374L-236.342,4.852L-235.797,4.827C-235.513,4.814 -228.251,4.476 -217.299,3.977L-198.54,9.151L-238.265,14.314L-222.893,22.19L-236.158,29.293ZM-106.332,-4.776C-109.458,-5.432 -236.086,0.466 -236.086,0.466L-276.732,-4.776L-400.166,5.708L-400.166,40.385L-317.202,27.657L-236.352,33.95L-198.53,33.915L-147.289,27.889L-88.578,40.512L0,40.385L0,5.708C0,5.708 -103.206,-4.122 -106.332,-4.776" style="fill:rgb(15,109,123);fill-rule:nonzero;"/>
        </g>
        <g transform="matrix(0,-1,-1,0,1831.48,615.617)">
            <path d="M-6.549,-6.549C-7.23,-6.549 -7.781,-3.617 -7.781,-0.001C-7.781,3.617 -7.23,6.549 -6.549,6.549C-5.868,6.549 -5.317,3.617 -5.317,-0.001C-5.317,-3.617 -5.868,-6.549 -6.549,-6.549" style="fill:rgb(15,109,123);fill-rule:nonzero;"/>
        </g>
        <g transform="matrix(0,-1,-1,0,1861.18,618.081)">
            <path d="M-6.551,-6.549C-7.232,-6.549 -7.782,-3.617 -7.782,0.001C-7.782,3.617 -7.232,6.551 -6.551,6.551C-5.869,6.551 -5.318,3.617 -5.318,0.001C-5.318,-3.617 -5.869,-6.549 -6.551,-6.549" style="fill:rgb(15,109,123);fill-rule:nonzero;"/>
        </g>
        <g transform="matrix(0,-1,-1,0,1927.28,628.022)">
            <path d="M-6.55,-6.55C-7.231,-6.55 -7.782,-3.617 -7.782,0C-7.782,3.617 -7.231,6.55 -6.55,6.55C-5.869,6.55 -5.318,3.617 -5.318,0C-5.318,-3.617 -5.869,-6.55 -6.55,-6.55" style="fill:rgb(15,109,123);fill-rule:nonzero;"/>
        </g>
        <g transform="matrix(0,-1,-1,0,1940.38,632.835)">
            <path d="M-6.55,-6.55C-7.231,-6.55 -7.782,-3.619 -7.782,0C-7.782,3.617 -7.231,6.55 -6.55,6.55C-5.869,6.55 -5.318,3.617 -5.318,0C-5.318,-3.619 -5.869,-6.55 -6.55,-6.55" style="fill:rgb(15,109,123);fill-rule:nonzero;"/>
        </g>
        <g transform="matrix(0,-1,-1,0,1893.67,619.659)">
            <path d="M-6.55,-6.55C-7.231,-6.55 -7.783,-3.617 -7.783,-0C-7.783,3.617 -7.231,6.55 -6.55,6.55C-5.869,6.55 -5.318,3.617 -5.318,-0C-5.318,-3.617 -5.869,-6.55 -6.55,-6.55" style="fill:rgb(15,109,123);fill-rule:nonzero;"/>
        </g>
        <g transform="matrix(0,-1,-1,0,1847.01,618.461)">
            <path d="M-8.981,-8.98C-9.914,-8.98 -10.67,-4.959 -10.67,-0C-10.67,4.96 -9.914,8.981 -8.981,8.981C-8.047,8.981 -7.291,4.96 -7.291,-0C-7.291,-4.959 -8.047,-8.98 -8.981,-8.98" style="fill:rgb(15,109,123);fill-rule:nonzero;"/>
        </g>
        <g transform="matrix(0,-1,-1,0,1724.9,613.185)">
            <path d="M-8.981,-8.981C-9.915,-8.981 -10.671,-4.96 -10.671,-0.001C-10.671,4.96 -9.915,8.981 -8.981,8.981C-8.047,8.981 -7.291,4.96 -7.291,-0.001C-7.291,-4.96 -8.047,-8.981 -8.981,-8.981" style="fill:rgb(15,109,123);fill-rule:nonzero;"/>
        </g>
        <g transform="matrix(0,-1,-1,0,1636.82,626.432)">
            <path d="M-8.981,-8.98C-9.914,-8.98 -10.67,-4.959 -10.67,-0.001C-10.67,4.96 -9.914,8.981 -8.981,8.981C-8.047,8.981 -7.291,4.96 -7.291,-0.001C-7.291,-4.959 -8.047,-8.98 -8.981,-8.98" style="fill:rgb(15,109,123);fill-rule:nonzero;"/>
        </g>
        <g transform="matrix(0,-1,-1,0,1704.23,622.123)">
            <path d="M-4.47,-4.471C-4.935,-4.471 -5.312,-2.47 -5.312,0C-5.312,2.467 -4.935,4.47 -4.47,4.47C-4.005,4.47 -3.629,2.467 -3.629,0C-3.629,-2.47 -4.005,-4.471 -4.47,-4.471" style="fill:rgb(15,109,123);fill-rule:nonzero;"/>
        </g>
        <g transform="matrix(0,-1,-1,0,1735.89,621.281)">
            <path d="M-4.471,-4.47C-4.936,-4.47 -5.312,-2.468 -5.312,0C-5.312,2.469 -4.936,4.471 -4.471,4.471C-4.006,4.471 -3.629,2.469 -3.629,0C-3.629,-2.468 -4.006,-4.47 -4.471,-4.47" style="fill:rgb(15,109,123);fill-rule:nonzero;"/>
        </g>
        <g transform="matrix(0,-1,-1,0,1756.21,630.1)">
            <path d="M-4.471,-4.471C-4.935,-4.471 -5.313,-2.47 -5.313,0.001C-5.313,2.469 -4.935,4.471 -4.471,4.471C-4.006,4.471 -3.629,2.469 -3.629,0.001C-3.629,-2.47 -4.006,-4.471 -4.471,-4.471" style="fill:rgb(15,109,123);fill-rule:nonzero;"/>
        </g>
        <g transform="matrix(1,0,0,1,1682.57,673.26)">
            <path d="M0,12.449L7.497,0L14.171,12.449L0,12.449Z" style="fill:rgb(58,61,52);fill-rule:nonzero;"/>
        </g>
        <g transform="matrix(1,0,0,1,1717.49,700.694)">
            <path d="M0,0.844L-14.874,7.087L-11.374,-6.243L0,0.844Z" style="fill:rgb(58,61,52);fill-rule:nonzero;"/>
        </g>
        <g transform="matrix(1,0,0,1,1757.67,704.613)">
            <path d="M0,-13.87L1.732,0L-11.917,-7.44L0,-13.87Z" style="fill:rgb(58,61,52);fill-rule:nonzero;"/>
        </g>
        <g transform="matrix(1,0,0,1,1883.91,697.679)">
            <path d="M0,-13.871L1.732,0L-11.917,-7.44L0,-13.871Z" style="fill:rgb(58,61,52);fill-rule:nonzero;"/>
        </g>
        <g transform="matrix(1,0,0,1,1999.83,702.395)">
            <path d="M0,-7.87L-11.225,2.771L-14.253,-10.641L0,-7.87Z" style="fill:rgb(58,61,52);fill-rule:nonzero;"/>
        </g>
        <g transform="matrix(1,0,0,1,1791.6,681.072)">
            <path d="M0,4.157L12.804,-4.746L12.991,8.903L0,4.157Z" style="fill:rgb(58,61,52);fill-rule:nonzero;"/>
        </g>
        <g transform="matrix(1,0,0,1,1964.71,680.729)">
            <path d="M0,13.56L3.887,0L13.793,10.832L0,13.56Z" style="fill:rgb(58,61,52);fill-rule:nonzero;"/>
        </g>
        <g transform="matrix(0,1,1,0,1852.36,661.133)">
            <path d="M7.084,-6.717C7.084,-6.717 4.755,-1.998 4.755,-0.967C4.755,0.066 7.084,7.084 7.084,7.084C7.084,7.084 9.046,-2.274 8.923,-2.713C8.8,-3.152 7.084,-6.717 7.084,-6.717" style="fill:rgb(58,61,52);fill-rule:nonzero;"/>
        </g>
        <g transform="matrix(0,1,1,0,1953.65,673.888)">
            <path d="M7.084,-6.717C7.084,-6.717 4.755,-1.997 4.755,-0.966C4.755,0.067 7.084,7.084 7.084,7.084C7.084,7.084 9.046,-2.273 8.923,-2.712C8.8,-3.151 7.084,-6.717 7.084,-6.717" style="fill:rgb(58,61,52);fill-rule:nonzero;"/>
        </g>
        <g transform="matrix(0,1,1,0,1750.85,657.755)">
            <path d="M10.519,-9.973C10.519,-9.973 7.06,-2.967 7.06,-1.434C7.06,0.098 10.519,10.519 10.519,10.519C10.519,10.519 13.43,-3.374 13.249,-4.026C13.067,-4.678 10.519,-9.973 10.519,-9.973" style="fill:rgb(58,61,52);fill-rule:nonzero;"/>
        </g>
        <g transform="matrix(0,1,1,0,1809.42,695.029)">
            <path d="M7.572,-7.179C7.572,-7.179 5.083,-2.136 5.083,-1.032C5.083,0.071 7.572,7.572 7.572,7.572C7.572,7.572 9.669,-2.43 9.538,-2.898C9.407,-3.366 7.572,-7.179 7.572,-7.179" style="fill:rgb(58,61,52);fill-rule:nonzero;"/>
        </g>
        <g transform="matrix(-0.00446724,0.99999,0.99999,0.00446724,1623.52,691.898)">
            <path d="M12.901,-12.449C12.901,-12.449 10.388,-7.417 10.384,-6.315C10.379,-5.211 12.901,12.846 12.901,12.846C12.901,12.846 14.976,-7.69 14.846,-8.16C14.718,-8.628 12.901,-12.449 12.901,-12.449" style="fill:rgb(58,61,52);fill-rule:nonzero;"/>
        </g>
        <g transform="matrix(-0.0101459,0.999949,0.999949,0.0101459,1640.84,697.182)">
            <path d="M10.963,-10.928C10.963,-10.928 9.544,-1.151 9.538,-0.497C9.531,0.156 10.963,10.854 10.963,10.854C10.963,10.854 12.261,-1.297 12.186,-1.575C12.11,-1.853 10.963,-10.928 10.963,-10.928" style="fill:rgb(58,61,52);fill-rule:nonzero;"/>
        </g>
        <g transform="matrix(0,1,1,0,1795.85,702.38)">
            <path d="M5.406,-5.127C5.406,-5.127 3.629,-1.525 3.629,-0.737C3.629,0.05 5.406,5.406 5.406,5.406C5.406,5.406 6.903,-1.735 6.809,-2.069C6.717,-2.406 5.406,-5.127 5.406,-5.127" style="fill:rgb(58,61,52);fill-rule:nonzero;"/>
        </g>
        <g transform="matrix(0,1,1,0,1804.88,705.565)">
            <path d="M5.407,-5.127C5.407,-5.127 3.63,-1.526 3.63,-0.737C3.63,0.05 5.407,5.407 5.407,5.407C5.407,5.407 6.904,-1.735 6.81,-2.07C6.717,-2.404 5.407,-5.127 5.407,-5.127" style="fill:rgb(58,61,52);fill-rule:nonzero;"/>
        </g>
        <g transform="matrix(0,1,1,0,1648.75,657.755)">
            <path d="M10.519,-9.973C10.519,-9.973 7.06,-2.968 7.06,-1.434C7.06,0.098 10.519,10.519 10.519,10.519C10.519,10.519 13.43,-3.375 13.249,-4.026C13.067,-4.677 10.519,-9.973 10.519,-9.973" style="fill:rgb(58,61,52);fill-rule:nonzero;"/>
        </g>
        <g transform="matrix(-0.0230319,-0.999735,-0.999735,0.0230319,1730.85,668.453)">
            <path d="M-6.471,-6.926C-6.471,-6.926 -8.707,-2.42 -8.707,-1.43C-8.707,-0.438 -6.471,6.317 -6.471,6.317C-6.471,6.317 -4.589,-2.645 -4.707,-3.066C-4.824,-3.487 -6.471,-6.926 -6.471,-6.926" style="fill:rgb(58,61,52);fill-rule:nonzero;"/>
        </g>
        <g transform="matrix(0.927502,-0.373818,-0.373818,-0.927502,1826.27,678.482)">
            <path d="M0.69,1.919L7.506,1.919L9.961,-3.388L3.161,-3.59L0.69,1.919Z" style="fill:rgb(58,61,52);fill-rule:nonzero;"/>
        </g>
        <g transform="matrix(0.927482,-0.373869,-0.373869,-0.927482,1895,702.334)">
            <path d="M0.69,1.919L7.505,1.919L9.96,-3.388L3.162,-3.592L0.69,1.919Z" style="fill:rgb(58,61,52);fill-rule:nonzero;"/>
        </g>
        <g transform="matrix(0.92753,-0.373749,-0.373749,-0.92753,1904.47,705.421)">
            <path d="M0.333,0.925L3.621,0.925L4.804,-1.635L1.525,-1.733L0.333,0.925Z" style="fill:rgb(58,61,52);fill-rule:nonzero;"/>
        </g>
        <g transform="matrix(0.92753,-0.373749,-0.373749,-0.92753,1918.15,701.704)">
            <path d="M0.333,0.926L3.621,0.926L4.806,-1.634L1.526,-1.733L0.333,0.926Z" style="fill:rgb(58,61,52);fill-rule:nonzero;"/>
        </g>
        <g transform="matrix(0.92753,-0.373749,-0.373749,-0.92753,1942.77,711.641)">
            <path d="M0.333,0.925L3.621,0.925L4.804,-1.635L1.524,-1.734L0.333,0.925Z" style="fill:rgb(58,61,52);fill-rule:nonzero;"/>
        </g>
        <g transform="matrix(0.927542,-0.373718,-0.373718,-0.927542,1779.04,696.995)">
            <path d="M0.494,1.375L5.38,1.375L7.141,-2.428L2.266,-2.574L0.494,1.375Z" style="fill:rgb(58,61,52);fill-rule:nonzero;"/>
        </g>
        <g transform="matrix(0.927502,-0.373818,-0.373818,-0.927502,1649.1,699.678)">
            <path d="M0.69,1.918L7.506,1.918L9.96,-3.389L3.162,-3.592L0.69,1.918Z" style="fill:rgb(58,61,52);fill-rule:nonzero;"/>
        </g>
        <g transform="matrix(1,0,0,1,1999.83,647.704)">
            <path d="M0,72.296L400.168,72.296L400.168,11.399L311.327,13.106L253.238,0L199.75,5.015L168.784,6.336L82.876,0L0,13.106L0,72.296Z" style="fill:rgb(73,77,63);fill-rule:nonzero;"/>
        </g>
        <g transform="matrix(1,0,0,1,2116.08,651.974)">
            <path d="M0,31.878L66.545,24.352L127.604,35.165L184.3,27.629L242.966,36.148L283.917,27.607L283.917,7.128L195.076,8.835L136.987,-4.27L83.499,0.744L52.533,2.065L-33.375,-4.27L-116.251,8.835L-116.251,32.766L-73.313,24.352L0,31.878Z" style="fill:rgb(73,77,63);fill-rule:nonzero;"/>
        </g>
        <g transform="matrix(1,0,0,1,2359.05,695.985)">
            <path d="M0,-7.863L-58.666,-16.382L-115.362,-8.845L-176.421,-19.659L-242.966,-12.133L-316.278,-19.659L-359.217,-16.403L-359.217,3.79L-304.568,-5.242L-238.445,11.796L-176.421,-5.242L-111.946,3.278L-58.666,-5.242L0,8.52L40.951,3.79L40.951,-16.403L0,-7.863Z" style="fill:rgb(58,61,52);fill-rule:nonzero;"/>
        </g>
        <g transform="matrix(1,0,0,1,2300.38,720)">
            <path d="M0,-29.257L-53.28,-20.737L-117.755,-29.257L-179.779,-12.219L-245.902,-29.257L-300.551,-20.225L-300.551,0L99.617,0L99.617,-20.225L58.666,-15.495L0,-29.257Z" style="fill:rgb(73,77,63);fill-rule:nonzero;"/>
        </g>
        <g transform="matrix(1,0,0,1,2311.16,655.786)">
            <path d="M0,2.185L-58.089,-10.92L-111.577,-5.907L-142.543,-4.586L-228.451,-10.92L-311.327,2.185L-311.327,13.105L-228.451,-0.001L-142.543,6.335L-111.577,5.014L-58.089,-0.001L0,13.105L88.841,13.105L88.841,1.311L0,2.185Z" style="fill:rgb(48,51,43);fill-rule:nonzero;"/>
        </g>
        <g transform="matrix(1,0,0,1,2400,641.668)">
            <path d="M0,21.803L-89.65,21.747C-89.788,21.722 -147.493,9.711 -147.493,9.711C-147.493,9.711 -176.895,12.442 -199.296,15.865L-233.696,15.897L-317.629,10.026L-400.168,21.767L-400.168,12.411L-317.89,0.598L-317.51,0.624L-233.322,6.513L-200.1,6.513C-198.184,6.223 -186.271,4.427 -174.261,2.857C-166.572,1.852 -160.336,1.134 -155.727,0.722C-147.653,0 -145.451,0.24 -144.152,1.155C-141.14,2.416 -117.021,7.315 -88.707,12.411L0,12.411L0,21.803Z" style="fill:rgb(11,93,108);fill-rule:nonzero;"/>
        </g>
        <g transform="matrix(1,0,0,1,1999.83,645.955)">
            <path d="M0,-23.373L123.435,-33.858L164.08,-28.616C164.08,-28.616 290.708,-34.515 293.835,-33.858C296.961,-33.203 400.168,-23.373 400.168,-23.373L400.168,11.142L311.587,11.142L252.71,-1.527L201.6,4.58L163.765,4.58L82.876,-1.743L0,11.142L0,-23.373Z" style="fill:rgb(13,121,132);fill-rule:nonzero;"/>
        </g>
        <g transform="matrix(1,0,0,1,2400,616.712)">
            <path d="M0,35.08L-87.961,35.848L-147.167,23.108L-198.938,29.293L-188.36,23.566L-213.113,16.926L-189.143,9.37L-202.789,3.32C-168.055,1.758 -117.136,-0.459 -107.817,-0.459C-107.375,-0.459 -107.142,-0.454 -107.04,-0.45C-99.92,0.536 -31.969,6.965 0,10.014L0,35.08ZM-236.16,29.293L-317.528,22.933L-400.168,35.08L-400.168,10.014L-276.869,-0.374L-236.343,4.852L-235.799,4.827C-235.516,4.814 -228.254,4.476 -217.303,3.977L-198.543,9.151L-238.267,14.314L-222.896,22.19L-236.16,29.293ZM-106.333,-4.776C-109.46,-5.432 -236.088,0.466 -236.088,0.466L-276.733,-4.776L-400.168,5.708L-400.168,40.385L-317.203,27.657L-236.355,33.95L-198.532,33.915L-147.29,27.889L-88.579,40.512L0,40.385L0,5.708C0,5.708 -103.207,-4.122 -106.333,-4.776" style="fill:rgb(15,109,123);fill-rule:nonzero;"/>
        </g>
        <g transform="matrix(0,-1,-1,0,2231.65,615.615)">
            <path d="M-6.55,-6.55C-7.231,-6.55 -7.783,-3.617 -7.783,-0C-7.783,3.616 -7.231,6.55 -6.55,6.55C-5.869,6.55 -5.318,3.616 -5.318,-0C-5.318,-3.617 -5.869,-6.55 -6.55,-6.55" style="fill:rgb(15,109,123);fill-rule:nonzero;"/>
        </g>
        <g transform="matrix(0,-1,-1,0,2261.35,618.08)">
            <path d="M-6.551,-6.55C-7.232,-6.55 -7.782,-3.616 -7.782,0C-7.782,3.617 -7.232,6.551 -6.551,6.551C-5.869,6.551 -5.318,3.617 -5.318,0C-5.318,-3.616 -5.869,-6.55 -6.551,-6.55" style="fill:rgb(15,109,123);fill-rule:nonzero;"/>
        </g>
        <g transform="matrix(0,-1,-1,0,2327.45,628.022)">
            <path d="M-6.55,-6.55C-7.231,-6.55 -7.782,-3.619 -7.782,-0.002C-7.782,3.616 -7.231,6.55 -6.55,6.55C-5.869,6.55 -5.318,3.616 -5.318,-0.002C-5.318,-3.619 -5.869,-6.55 -6.55,-6.55" style="fill:rgb(15,109,123);fill-rule:nonzero;"/>
        </g>
        <g transform="matrix(0,-1,-1,0,2340.54,632.835)">
            <path d="M-6.55,-6.55C-7.231,-6.55 -7.782,-3.617 -7.782,-0.001C-7.782,3.616 -7.231,6.55 -6.55,6.55C-5.869,6.55 -5.318,3.616 -5.318,-0.001C-5.318,-3.617 -5.869,-6.55 -6.55,-6.55" style="fill:rgb(15,109,123);fill-rule:nonzero;"/>
        </g>
        <g transform="matrix(0,-1,-1,0,2293.83,619.66)">
            <path d="M-6.549,-6.549C-7.23,-6.549 -7.781,-3.618 -7.781,-0.002C-7.781,3.617 -7.23,6.549 -6.549,6.549C-5.868,6.549 -5.316,3.617 -5.316,-0.002C-5.316,-3.618 -5.868,-6.549 -6.549,-6.549" style="fill:rgb(15,109,123);fill-rule:nonzero;"/>
        </g>
        <g transform="matrix(0,-1,-1,0,2247.18,618.461)">
            <path d="M-8.981,-8.98C-9.914,-8.98 -10.67,-4.959 -10.67,0.002C-10.67,4.96 -9.914,8.981 -8.981,8.981C-8.047,8.981 -7.291,4.96 -7.291,0.002C-7.291,-4.959 -8.047,-8.98 -8.981,-8.98" style="fill:rgb(15,109,123);fill-rule:nonzero;"/>
        </g>
        <g transform="matrix(0,-1,-1,0,2125.06,613.186)">
            <path d="M-8.98,-8.98C-9.914,-8.98 -10.67,-4.96 -10.67,-0.001C-10.67,4.959 -9.914,8.98 -8.98,8.98C-8.046,8.98 -7.29,4.959 -7.29,-0.001C-7.29,-4.96 -8.046,-8.98 -8.98,-8.98" style="fill:rgb(15,109,123);fill-rule:nonzero;"/>
        </g>
        <g transform="matrix(0,-1,-1,0,2036.99,626.432)">
            <path d="M-8.981,-8.98C-9.914,-8.98 -10.67,-4.959 -10.67,0.001C-10.67,4.96 -9.914,8.981 -8.981,8.981C-8.047,8.981 -7.291,4.96 -7.291,0.001C-7.291,-4.959 -8.047,-8.98 -8.981,-8.98" style="fill:rgb(15,109,123);fill-rule:nonzero;"/>
        </g>
        <g transform="matrix(0,-1,-1,0,2104.4,622.123)">
            <path d="M-4.47,-4.471C-4.935,-4.471 -5.312,-2.47 -5.312,0C-5.312,2.469 -4.935,4.47 -4.47,4.47C-4.005,4.47 -3.629,2.469 -3.629,0C-3.629,-2.47 -4.005,-4.471 -4.47,-4.471" style="fill:rgb(15,109,123);fill-rule:nonzero;"/>
        </g>
        <g transform="matrix(0,-1,-1,0,2136.05,621.281)">
            <path d="M-4.47,-4.47C-4.935,-4.47 -5.312,-2.469 -5.312,0.002C-5.312,2.469 -4.935,4.47 -4.47,4.47C-4.005,4.47 -3.628,2.469 -3.628,0.002C-3.628,-2.469 -4.005,-4.47 -4.47,-4.47" style="fill:rgb(15,109,123);fill-rule:nonzero;"/>
        </g>
        <g transform="matrix(0,-1,-1,0,2156.38,630.101)">
            <path d="M-4.47,-4.47C-4.934,-4.47 -5.312,-2.469 -5.312,0C-5.312,2.469 -4.934,4.47 -4.47,4.47C-4.005,4.47 -3.628,2.469 -3.628,0C-3.628,-2.469 -4.005,-4.47 -4.47,-4.47" style="fill:rgb(15,109,123);fill-rule:nonzero;"/>
        </g>
        <g transform="matrix(1,0,0,1,2082.73,673.26)">
            <path d="M0,12.449L7.496,0L14.172,12.449L0,12.449Z" style="fill:rgb(58,61,52);fill-rule:nonzero;"/>
        </g>
        <g transform="matrix(1,0,0,1,2117.65,700.694)">
            <path d="M0,0.844L-14.876,7.087L-11.373,-6.243L0,0.844Z" style="fill:rgb(58,61,52);fill-rule:nonzero;"/>
        </g>
        <g transform="matrix(1,0,0,1,2157.84,704.613)">
            <path d="M0,-13.87L1.732,0L-11.917,-7.44L0,-13.87Z" style="fill:rgb(58,61,52);fill-rule:nonzero;"/>
        </g>
        <g transform="matrix(1,0,0,1,2284.07,697.679)">
            <path d="M0,-13.871L1.732,0L-11.916,-7.44L0,-13.871Z" style="fill:rgb(58,61,52);fill-rule:nonzero;"/>
        </g>
        <g transform="matrix(1,0,0,1,2400,702.395)">
            <path d="M0,-7.87L-11.227,2.771L-14.254,-10.641L0,-7.87Z" style="fill:rgb(58,61,52);fill-rule:nonzero;"/>
        </g>
        <g transform="matrix(1,0,0,1,2191.76,681.072)">
            <path d="M0,4.157L12.806,-4.746L12.993,8.903L0,4.157Z" style="fill:rgb(58,61,52);fill-rule:nonzero;"/>
        </g>
        <g transform="matrix(1,0,0,1,2364.88,680.729)">
            <path d="M0,13.56L3.885,0L13.791,10.832L0,13.56Z" style="fill:rgb(58,61,52);fill-rule:nonzero;"/>
        </g>
        <g transform="matrix(0,1,1,0,2252.52,661.132)">
            <path d="M7.085,-6.718C7.085,-6.718 4.756,-1.998 4.756,-0.966C4.756,0.066 7.085,7.085 7.085,7.085C7.085,7.085 9.047,-2.274 8.924,-2.712C8.801,-3.151 7.085,-6.718 7.085,-6.718" style="fill:rgb(58,61,52);fill-rule:nonzero;"/>
        </g>
        <g transform="matrix(0,1,1,0,2353.81,673.888)">
            <path d="M7.084,-6.717C7.084,-6.717 4.755,-1.999 4.755,-0.967C4.755,0.065 7.084,7.084 7.084,7.084C7.084,7.084 9.046,-2.273 8.923,-2.711C8.8,-3.152 7.084,-6.717 7.084,-6.717" style="fill:rgb(58,61,52);fill-rule:nonzero;"/>
        </g>
        <g transform="matrix(0,1,1,0,2151.02,657.754)">
            <path d="M10.519,-9.974C10.519,-9.974 7.061,-2.965 7.061,-1.434C7.061,0.099 10.519,10.519 10.519,10.519C10.519,10.519 13.431,-3.374 13.25,-4.026C13.067,-4.677 10.519,-9.974 10.519,-9.974" style="fill:rgb(58,61,52);fill-rule:nonzero;"/>
        </g>
        <g transform="matrix(0,1,1,0,2209.58,695.029)">
            <path d="M7.572,-7.18C7.572,-7.18 5.083,-2.135 5.083,-1.033C5.083,0.07 7.572,7.572 7.572,7.572C7.572,7.572 9.669,-2.43 9.538,-2.9C9.407,-3.368 7.572,-7.18 7.572,-7.18" style="fill:rgb(58,61,52);fill-rule:nonzero;"/>
        </g>
        <g transform="matrix(-0.00446706,0.99999,0.99999,0.00446706,2023.69,691.897)">
            <path d="M12.901,-12.45C12.901,-12.45 10.389,-7.416 10.384,-6.313C10.379,-5.211 12.901,12.846 12.901,12.846C12.901,12.846 14.976,-7.691 14.846,-8.16C14.718,-8.629 12.901,-12.45 12.901,-12.45" style="fill:rgb(58,61,52);fill-rule:nonzero;"/>
        </g>
        <g transform="matrix(-0.010145,0.999949,0.999949,0.010145,2041,697.181)">
            <path d="M10.964,-10.929C10.964,-10.929 9.545,-1.15 9.539,-0.496C9.532,0.157 10.964,10.855 10.964,10.855C10.964,10.855 12.262,-1.296 12.187,-1.574C12.111,-1.853 10.964,-10.929 10.964,-10.929" style="fill:rgb(58,61,52);fill-rule:nonzero;"/>
        </g>
        <g transform="matrix(0,1,1,0,2196.01,702.38)">
            <path d="M5.406,-5.126C5.406,-5.126 3.629,-1.525 3.629,-0.738C3.629,0.049 5.406,5.406 5.406,5.406C5.406,5.406 6.903,-1.735 6.809,-2.071C6.716,-2.405 5.406,-5.126 5.406,-5.126" style="fill:rgb(58,61,52);fill-rule:nonzero;"/>
        </g>
        <g transform="matrix(0,1,1,0,2205.04,705.566)">
            <path d="M5.406,-5.126C5.406,-5.126 3.629,-1.525 3.629,-0.737C3.629,0.049 5.406,5.406 5.406,5.406C5.406,5.406 6.903,-1.735 6.809,-2.07C6.716,-2.405 5.406,-5.126 5.406,-5.126" style="fill:rgb(58,61,52);fill-rule:nonzero;"/>
        </g>
        <g transform="matrix(0,1,1,0,2048.92,657.754)">
            <path d="M10.519,-9.973C10.519,-9.973 7.061,-2.966 7.061,-1.434C7.061,0.099 10.519,10.519 10.519,10.519C10.519,10.519 13.431,-3.375 13.249,-4.026C13.067,-4.678 10.519,-9.973 10.519,-9.973" style="fill:rgb(58,61,52);fill-rule:nonzero;"/>
        </g>
        <g transform="matrix(-0.0230336,-0.999735,-0.999735,0.0230336,2131.02,668.453)">
            <path d="M-6.471,-6.925C-6.471,-6.925 -8.706,-2.419 -8.707,-1.43C-8.707,-0.439 -6.471,6.316 -6.471,6.316C-6.471,6.316 -4.588,-2.642 -4.706,-3.066C-4.824,-3.487 -6.471,-6.925 -6.471,-6.925" style="fill:rgb(58,61,52);fill-rule:nonzero;"/>
        </g>
        <g transform="matrix(0.927461,-0.373919,-0.373919,-0.927461,2226.43,678.482)">
            <path d="M0.69,1.919L7.504,1.919L9.958,-3.388L3.159,-3.59L0.69,1.919Z" style="fill:rgb(58,61,52);fill-rule:nonzero;"/>
        </g>
        <g transform="matrix(0.927502,-0.373818,-0.373818,-0.927502,2295.17,702.334)">
            <path d="M0.69,1.919L7.506,1.919L9.961,-3.388L3.16,-3.591L0.69,1.919Z" style="fill:rgb(58,61,52);fill-rule:nonzero;"/>
        </g>
        <g transform="matrix(0.927572,-0.373644,-0.373644,-0.927572,2304.64,705.421)">
            <path d="M0.333,0.925L3.622,0.925L4.806,-1.635L1.527,-1.733L0.333,0.925Z" style="fill:rgb(58,61,52);fill-rule:nonzero;"/>
        </g>
        <g transform="matrix(0.92753,-0.373749,-0.373749,-0.92753,2318.32,701.703)">
            <path d="M0.333,0.925L3.621,0.925L4.805,-1.634L1.525,-1.733L0.333,0.925Z" style="fill:rgb(58,61,52);fill-rule:nonzero;"/>
        </g>
        <g transform="matrix(0.927445,-0.37396,-0.37396,-0.927445,2342.94,711.641)">
            <path d="M0.333,0.926L3.62,0.926L4.804,-1.635L1.523,-1.733L0.333,0.926Z" style="fill:rgb(58,61,52);fill-rule:nonzero;"/>
        </g>
        <g transform="matrix(0.927542,-0.373718,-0.373718,-0.927542,2179.2,696.995)">
            <path d="M0.494,1.375L5.38,1.375L7.141,-2.428L2.266,-2.574L0.494,1.375Z" style="fill:rgb(58,61,52);fill-rule:nonzero;"/>
        </g>
        <g transform="matrix(0.927523,-0.373767,-0.373767,-0.927523,2049.27,699.678)">
            <path d="M0.69,1.918L7.507,1.918L9.961,-3.389L3.161,-3.591L0.69,1.918Z" style="fill:rgb(58,61,52);fill-rule:nonzero;"/>
        </g>
    </g>
    <defs>
        <linearGradient id="_Linear1" x1="0" y1="0" x2="1" y2="0" gradientUnits="userSpaceOnUse" gradientTransform="matrix(-4.23611e-08,1,1,4.23611e-08,0.499307,-0.499307)"><stop offset="0" style="stop-color:white;stop-opacity:1"/><stop offset="0.12" style="stop-color:white;stop-opacity:1"/><stop offset="1" style="stop-color:rgb(172,222,224);stop-opacity:1"/></linearGradient>
    </defs>
</svg>
