<svg xmlns="http://www.w3.org/2000/svg" xmlns:xlink="http://www.w3.org/1999/xlink" width="1920" height="1080" viewBox="0 0 1920 1080">
  <defs>
    <linearGradient id="a" x1="114.302" y1="1089.771" x2="114.302" y2="1.305" gradientUnits="userSpaceOnUse">
      <stop offset="0.122" stop-color="#fff"/>
      <stop offset="0.269" stop-color="#e1f3f4"/>
      <stop offset="0.423" stop-color="#caeaeb"/>
      <stop offset="0.588" stop-color="#b9e3e5"/>
      <stop offset="0.77" stop-color="#afdfe1"/>
      <stop offset="1" stop-color="#acdee0"/>
    </linearGradient>
  </defs>
  <g>
    <rect x="-1700.564" y="1.305" width="3629.732" height="1088.466" fill="url(#a)"/>
    <path d="M-1261.277,702.857c352.841,0,419.293-276.78,781.846-276.78S-54.636,744.139,358.456,744.139s423.813-417.5,726.14-417.5c239.209,0,293.364,271.289,484.34,301.277,92.681,14.553,173.107-105.7,396,36.766,0,152.313,13.253,368.8,13.253,368.8H-1261.277Z" fill="#69bfd6"/>
    <path d="M-1700.564,790.147c23.143,0,214.991-13.816,214.991-13.816l21.4-58.67,199.417-16.594,16.553,7.938-16.147,12.742,53.648,5.241,58.262,27.936,353.62-22.722,154.565,57.945,18.419-93.276,18.946-17.949-11.466-19.928L-206.3,767.833l183.83-6.127L40.851,716.77V686.131L28.6,655.493l10.213-28.6L30.638,584l46.979-65.362L114.3,503.984l153.6,58.647,53.976,44.532-38.732,4.717,68.682,19.994L368.707,645.8l-23.232,9.735,45.418,8.572,66.06,54.5,290.64-8.958,12.128-14.176,34.153-10.73-22.638-2.728,13.219-15.45,28.03-10.651-2.615-19.055,251.837-5.033,71.987,65.924L1376.732,715.3l81.033-120.2,42.189-15.531-22.148-14.2,26.026-38.609h146.516l12.266,34.067-19.072,22.035,14.369,8.8-.758,18.466-10.334,11.517,9.41,11.059-1.239,30.226-14.724,7.091,13.938,12.087-1.456,35.553,276.42,72.486v255.8H-1700.564Z" fill="#3fa2b5"/>
    <polyline points="1713.702 767.833 1897.532 761.706 1960.851 716.77 1960.851 686.131 1948.596 655.493 1958.809 626.897 1950.638 584.004 1997.617 518.642 2034.303 503.984 2187.905 562.631 2241.881 607.163 2203.149 611.88 2271.831 631.874 2288.707 645.797 2265.475 655.532 2310.893 664.104 2376.953 718.605 2667.593 709.647 2679.721 695.471 2713.874 684.741 2691.236 682.013 2704.455 666.563 2732.485 655.912 2729.87 636.857 2981.707 631.824 3053.694 697.748 3296.732 715.304 3377.765 595.099 3419.954 579.568 3397.806 565.366 3423.833 526.757 3570.348 526.757 3582.614 560.824 3563.542 582.859 3577.911 591.662 3577.153 610.128 3566.819 621.645 3576.229 632.704 3574.99 662.93 3560.266 670.021 3574.204 682.108 3572.748 717.661 3849.168 790.147 3849.168 1045.945" fill="#3fa2b5"/>
    <g>
      <path d="M1595.731,489.059l-17.519,96.908,17.519,46.219L1573.2,708.211l5.075,62.028-5.075,41.617s23.634,43.331,18.786,42.127-41.017,3.046-41.017,3.046-1.128-53.325.9-58.384,11.171-32.468,11.171-32.468l-6.093-62.934,26.413-69.027-14.229-49.739Z" fill="#3794a9"/>
      <path d="M619.549,223.755l20.624,136.9L626.124,469.084l14.045,171.53L632.785,730.8,611.9,791.975S569.631,858.742,576.679,857s95.811,0,95.811,0,1.641-77.532-1.311-84.889S654.935,724.9,654.935,724.9l8.861-91.508L644.107,472.036,653.373,358.5Z" fill="#3794a9"/>
      <path d="M874.405,857.029l16-47.538L853.886,793.07l36.517,6.853,5.331-35.3-4.571-65.375,20.568-53.884L906.4,584.449s-19.044-22.842-16.759-21.318,17.369,13.705,17.369,13.705V527.345l9.106,64.719,5.517,53.3-19.045,60.15,3.812,53.3,23.613-17.852L942.2,713.886l-7.618,27.071L925.222,755l10.884,3.807-19.99,1.522-9.106,9.9,9.106,49.329,22.273,37.471Z" fill="#3794a9"/>
      <path d="M1396.931,857.029c-.3-.019,9.241-34.965,9.241-34.965l-11.658-36.554,11.658-22.25V728.826l-21.142-38.143.226-21.192,2.9,17.483,8.777,18.013,9.241-16.953-5.3,20.395,12.453,14.305,47.966-19.337,21.2-22.78,6.739-19.6-8.862-11.654,13.252,10.86-7.419,24.633L1465.156,708.6,1441.2,719.437l29.351,10.978,9.82-2.649-9.82,7.416-33.485-11.388-18.451,14s.81,21.5.81,21.628-5.559,29.8-5.559,29.8l15.1,30.345,12.028,37.466Z" fill="#3794a9"/>
      <path d="M67.26,867.242c-.3-.019,9.243-34.965,9.243-34.965L64.844,795.723,76.5,773.473V739.039L55.36,700.9l.226-21.191,2.9,17.483L67.26,715.2,76.5,698.247l-5.3,20.4,12.454,14.3,47.964-19.336,21.2-22.78,6.738-19.6-8.86-11.655,13.25,10.86-7.418,24.634-21.047,23.744L111.527,729.65l29.35,10.978,9.823-2.649-9.823,7.416-33.483-11.389-18.453,14s.812,21.5.812,21.628-5.561,29.8-5.561,29.8l15.1,30.345,12.027,37.466Z" fill="#3794a9"/>
    </g>
    <g>
      <g>
        <path d="M1236.768,196.973c0,21.272-56.736,38.516-126.728,38.516s-126.727-17.244-126.727-38.516,56.738-38.514,126.727-38.514S1236.768,175.7,1236.768,196.973Z" fill="#fff"/>
        <path d="M1110.04,225.122c-51.9,0-97.369-7.369-122.642-18.415,14.187,16.558,63.718,30.042,122.642,30.042s108.456-13.484,122.643-30.042C1207.413,217.753,1161.941,225.122,1110.04,225.122Z" fill="#8accdd"/>
      </g>
      <g>
        <path d="M1710.064,265.262c0,20.738-55.311,37.549-123.543,37.549S1462.974,286,1462.974,265.262s55.315-37.546,123.547-37.546S1710.064,244.526,1710.064,265.262Z" fill="#fff"/>
        <path d="M1586.521,292.705c-50.6,0-94.925-7.185-119.565-17.954,13.831,16.143,62.119,29.289,119.565,29.289s105.729-13.146,119.56-29.289C1681.447,285.52,1637.116,292.705,1586.521,292.705Z" fill="#8accdd"/>
      </g>
      <g>
        <path d="M1856.12,168.925c0,17.892-47.722,32.4-106.592,32.4s-106.594-14.5-106.594-32.4,47.724-32.4,106.594-32.4S1856.12,151.033,1856.12,168.925Z" fill="#fff"/>
        <path d="M1749.528,192.6c-43.657,0-81.9-6.2-103.159-15.489,11.933,13.927,53.6,25.269,103.159,25.269s91.222-11.342,103.155-25.269C1831.428,186.4,1793.18,192.6,1749.528,192.6Z" fill="#8accdd"/>
      </g>
      <g>
        <path d="M580.927,240.735c0,20.782-55.43,37.628-123.809,37.628s-123.811-16.846-123.811-37.628,55.435-37.627,123.811-37.627S580.927,219.954,580.927,240.735Z" fill="#fff"/>
        <path d="M457.118,268.236c-50.7,0-95.126-7.2-119.819-17.992C351.16,266.421,399.55,279.6,457.118,279.6s105.957-13.174,119.818-29.351C552.248,261.036,507.824,268.236,457.118,268.236Z" fill="#8accdd"/>
      </g>
      <g>
        <path d="M724.9,162.19c0,13.312-35.506,24.1-79.305,24.1s-79.309-10.791-79.309-24.1,35.509-24.1,79.309-24.1S724.9,148.878,724.9,162.19Z" fill="#fff"/>
        <path d="M645.592,179.805c-32.481,0-60.936-4.612-76.752-11.524,8.877,10.362,39.874,18.8,76.752,18.8s67.871-8.438,76.749-18.8C706.527,175.193,678.071,179.805,645.592,179.805Z" fill="#8accdd"/>
      </g>
      <g>
        <path d="M278.21,137.692c0,13.312-35.5,24.1-79.306,24.1S119.6,151,119.6,137.692s35.509-24.1,79.307-24.1S278.21,124.381,278.21,137.692Z" fill="#fff"/>
        <path d="M198.9,155.308c-32.479,0-60.933-4.612-76.75-11.524,8.878,10.362,39.874,18.8,76.75,18.8s67.872-8.438,76.751-18.8C259.841,150.7,231.384,155.308,198.9,155.308Z" fill="#8accdd"/>
      </g>
    </g>
    <g>
      <g>
        <path d="M1227.2,837.561v-76l44.671-95.954V553.5L1227.2,516.447,1206.286,538.3l11.4,13.3L1231,543.047l-12.355,19-24.711-21.85,38.969-40.853,52.272,40.853,4.754,115.905,25.66-47.5,77.935-52.252,32.316-43.7v-49.4l6.653,40.853,37.068-25.651,39.92,3.8,11.661,26.255L1500.921,487h-30.414l-31.363,27.55s-32.317,43.7-32.317,46.553-76.984,55.1-76.984,55.1l-26.614,48.452-24.711,73.153,1.9,54.153,48.087,63.652h-72.8Z" fill="#0e6e79"/>
        <g>
          <polygon points="1328.259 608.601 1399.9 558.962 1438.511 499.931 1432.49 504.097 1425.837 463.244 1425.837 512.647 1393.524 556.349 1315.586 608.601 1301.704 634.299 1328.259 608.601" fill="#0c5a67"/>
          <polygon points="1259.649 818.866 1239.868 761.558 1284.539 665.604 1277.814 553.156 1234.261 522.308 1271.866 553.498 1271.866 665.604 1227.195 761.558 1227.195 837.561 1208.535 855.612 1300.626 855.612 1259.649 818.866" fill="#0c5a67"/>
        </g>
      </g>
      <g>
        <path d="M1166.344,842.228v-56.35l-33.123-71.144V631.613l33.123-27.471,15.5,16.2-8.455,9.862-9.867-6.339,9.161,14.088,18.323-16.2-28.894-30.29-38.756,30.29-3.524,85.937-19.027-35.221-57.783-38.741-23.961-32.4V564.7l-4.933,30.29-27.484-19.02-29.6,2.819L948.4,598.251l14.992-15.945h22.55l23.255,20.428s23.959,32.4,23.959,34.516,57.08,40.855,57.08,40.855l19.732,35.923,18.321,54.239-1.408,40.151-35.653,47.194H1145.2Z" fill="#0e6e79"/>
        <g>
          <polygon points="1091.412 672.469 1038.295 635.664 1009.667 591.897 1014.13 594.986 1019.063 564.696 1019.063 601.325 1043.021 633.728 1100.807 672.469 1111.1 691.523 1091.412 672.469" fill="#0c5a67"/>
          <polygon points="1142.28 828.368 1156.946 785.878 1123.827 714.734 1128.811 631.36 1161.105 608.488 1133.221 631.613 1133.221 714.734 1166.344 785.878 1166.344 842.228 1180.18 855.612 1111.899 855.612 1142.28 828.368" fill="#0c5a67"/>
        </g>
      </g>
      <g>
        <path d="M286.936,829.155V717.762L221.461,577.125V412.816l65.475-54.3,30.644,32.025-16.716,19.5-19.5-12.533,18.11,27.851,36.217-32.027-57.113-59.876-76.617,59.876L194.994,563.2l-37.61-69.624L43.158,416.994-4.207,352.941V280.534l-9.75,59.876-54.328-37.6-58.509,5.571-17.094,38.48,29.632-31.518h44.577l45.971,40.381s47.365,64.051,47.365,68.229,112.832,80.761,112.832,80.761l39,71.016L211.71,682.95l-2.784,79.37-70.479,93.292h106.7Z" fill="#0e6e79"/>
        <g>
          <polygon points="138.809 493.578 33.81 420.823 -22.781 334.303 -13.957 340.41 -4.207 280.534 -4.207 352.941 43.156 416.994 157.384 493.578 177.732 531.242 138.809 493.578" fill="#0c5a67"/>
          <polygon points="239.367 801.754 268.36 717.762 202.887 577.125 212.745 412.313 276.578 367.1 221.461 412.816 221.461 577.125 286.936 717.762 286.936 829.155 314.285 855.612 179.309 855.612 239.367 801.754" fill="#0c5a67"/>
        </g>
      </g>
      <g>
        <path d="M2206.936,829.155V717.762l-65.475-140.637V412.816l65.475-54.3,30.644,32.025-16.716,19.5-19.5-12.533,18.11,27.851,36.217-32.027-57.113-59.876-76.617,59.876L2114.993,563.2l-37.609-69.624-114.226-76.584-47.365-64.053V280.534l-9.75,59.876-54.328-37.6-58.509,5.571-17.094,38.48,29.632-31.518h44.577l45.971,40.381s47.365,64.051,47.365,68.229,112.832,80.761,112.832,80.761l39,71.016L2131.71,682.95l-2.784,79.37-70.479,93.292h106.7Z" fill="#0e6e79"/>
        <polygon points="2058.809 493.578 1953.81 420.823 1897.219 334.303 1906.043 340.41 1915.793 280.534 1915.793 352.941 1963.155 416.994 2077.384 493.578 2097.732 531.242 2058.809 493.578" fill="#0c5a67"/>
      </g>
      <g>
        <path d="M424.112,811.451l30.173-67.858-9.7-70.408,19.4-65.308s4.31-90.97,4.31-94.2-14.008-60.9-14.008-60.9l24.86,63.073-3.308,84.491,33.4-14,19.4-42.008-6.464,35.544,29.093,2.156,19.4-9.7v-23.7l8.62,28-28.017,11.85-26.939,1.076-44.179,28-14.009,62.473,11.854,61.393-1.078,53.857L501.7,855.612H397.175Z" fill="#0e6e79"/>
        <g>
          <polygon points="514.863 587.793 528.635 544.327 509.239 586.335 486.79 595.745 514.863 587.793" fill="#0c5a67"/>
          <polygon points="578.419 573.839 570.661 548.636 570.661 572.332 552.656 581.331 578.419 573.839" fill="#0c5a67"/>
          <path d="M465.058,743.593l-9.7-70.408,14.09-62.2s1.259-81.242,1.769-94.622l-16.934-63.59s14.008,57.67,14.008,60.9-4.31,94.2-4.31,94.2l-19.4,65.308,9.7,70.408-30.173,67.858-26.937,44.161h63.944l-12.887-33.378Z" fill="#0c5a67"/>
        </g>
      </g>
      <g>
        <path d="M1706.458,811.451l30.173-67.858-9.7-70.408,19.395-65.308s4.311-90.97,4.311-94.2-14.008-60.9-14.008-60.9l24.86,63.073-3.308,84.491,33.4-14,19.4-42.008-6.464,35.544,29.093,2.156,19.4-9.7v-23.7l8.621,28-28.018,11.85-26.94,1.076-44.178,28-14.009,62.473,11.852,61.393-1.076,53.857,24.785,60.318H1679.521Z" fill="#0e6e79"/>
        <g>
          <polygon points="1797.21 587.793 1810.981 544.327 1791.585 586.335 1769.136 595.745 1797.21 587.793" fill="#0c5a67"/>
          <polygon points="1860.765 573.839 1853.007 548.636 1853.007 572.332 1835.001 581.331 1860.765 573.839" fill="#0c5a67"/>
          <path d="M1747.4,743.593l-9.7-70.408,14.09-62.2s1.258-81.242,1.769-94.622l-16.934-63.59s14.008,57.67,14.008,60.9-4.311,94.2-4.311,94.2l-19.395,65.308,9.7,70.408-30.173,67.858-26.937,44.161h63.944l-12.887-33.378Z" fill="#0c5a67"/>
        </g>
      </g>
    </g>
    <g>
      <g>
        <polygon points="-638.639 1085.771 1.021 1085.771 1.021 937.051 -140.989 941.22 -233.843 909.215 -319.342 921.461 -368.839 924.688 -506.164 909.215 -638.639 941.22 -638.639 1085.771" fill="#494d3f"/>
        <polygon points="-452.815 997.494 -346.444 979.114 -248.843 1005.522 -158.214 987.117 -64.438 1007.921 1.021 987.065 1.021 937.051 -140.989 941.22 -233.843 909.215 -319.342 921.461 -368.839 924.688 -506.164 909.215 -638.639 941.22 -638.639 999.662 -570.003 979.114 -452.815 997.494" fill="#494d3f"/>
        <polygon points="-64.438 1007.921 -158.214 987.117 -248.843 1005.522 -346.444 979.114 -452.815 997.494 -570.003 979.114 -638.639 987.065 -638.639 1036.38 -551.285 1014.322 -445.591 1055.931 -346.444 1014.322 -243.383 1035.128 -158.214 1014.322 -64.438 1047.93 1.021 1036.38 1.021 987.065 -64.438 1007.921" fill="#3a3d34"/>
        <polygon points="-158.214 1014.322 -243.383 1035.128 -346.444 1014.322 -445.591 1055.931 -551.285 1014.322 -638.639 1036.38 -638.639 1085.771 1.021 1085.771 1.021 1036.38 -64.438 1047.93 -158.214 1014.322" fill="#494d3f"/>
        <polygon points="-140.989 934.287 -233.843 902.282 -319.342 914.526 -368.839 917.753 -506.164 902.282 -638.639 934.287 -638.639 960.955 -506.164 928.95 -368.839 944.423 -319.342 941.196 -233.843 928.95 -140.989 960.955 1.021 960.955 1.021 932.153 -140.989 934.287" fill="#30332b"/>
        <path d="M1.021,947.719l-143.3-.136c-.221-.062-92.459-29.394-92.459-29.394s-47,6.668-82.808,15.03l-54.987.076L-506.7,918.957l-131.937,28.674V924.783l131.519-28.85.607.065,134.573,14.381h53.105c3.065-.709,22.1-5.094,41.3-8.929,12.291-2.454,22.26-4.207,29.626-5.214,12.907-1.762,16.426-1.178,18.5,1.057,4.814,3.081,43.367,15.044,88.626,27.49H1.021v22.936Z" fill="#0b5d6c"/>
        <path d="M-638.639,847.863l197.307-25.606,64.972,12.8s202.413-14.4,207.41-12.8S1.021,847.863,1.021,847.863v84.29H-140.573l-94.116-30.94-81.7,14.916h-60.478l-129.3-15.442-132.475,31.466Z" fill="#0d7984"/>
        <path d="M-168.95,821.863c-5-1.6-207.41,12.8-207.41,12.8l-64.972-12.8-197.307,25.6v84.685l132.614-31.083,129.236,15.369,60.462-.086,81.908-14.717,93.848,30.827,141.592-.31V847.468S-163.952,823.461-168.95,821.863Zm-207.526,83.2-130.067-15.533-132.1,29.666V857.983l197.09-25.369,64.782,12.765.87-.062c.452-.032,12.058-.857,29.564-2.075l29.987,12.635-63.5,12.609,24.571,19.234ZM1.021,919.2l-140.6,1.875-94.644-31.111-82.752,15.1,16.907-13.985-39.568-16.217,38.317-18.452-21.813-14.775c55.523-3.815,136.916-9.229,151.812-9.229.706,0,1.078.012,1.242.021,11.381,2.409,120,18.109,171.1,25.555Z" fill="#0f6d7b"/>
        <polygon points="1.021 1023.559 -16.924 1049.544 -21.762 1016.793 1.021 1023.559" fill="#3a3d34"/>
      </g>
      <g>
        <g>
          <polygon points="1.021 1085.771 640.68 1085.771 640.68 937.051 498.674 941.22 405.82 909.215 320.32 921.461 270.822 924.688 133.497 909.215 1.021 941.22 1.021 1085.771" fill="#494d3f"/>
          <polygon points="186.848 997.494 293.216 979.114 390.817 1005.522 481.448 987.117 575.223 1007.921 640.68 987.065 640.68 937.051 498.674 941.22 405.82 909.215 320.32 921.461 270.822 924.688 133.497 909.215 1.021 941.22 1.021 999.662 69.656 979.114 186.848 997.494" fill="#494d3f"/>
          <polygon points="575.223 1007.921 481.448 987.117 390.817 1005.522 293.216 979.114 186.848 997.494 69.656 979.114 1.021 987.065 1.021 1036.38 88.376 1014.322 194.069 1055.931 293.216 1014.322 396.276 1035.128 481.448 1014.322 575.223 1047.93 640.68 1036.38 640.68 987.065 575.223 1007.921" fill="#3a3d34"/>
          <polygon points="481.448 1014.322 396.276 1035.128 293.216 1014.322 194.069 1055.931 88.376 1014.322 1.021 1036.38 1.021 1085.771 640.68 1085.771 640.68 1036.38 575.223 1047.93 481.448 1014.322" fill="#494d3f"/>
          <polygon points="498.674 934.287 405.82 902.282 320.32 914.526 270.822 917.753 133.497 902.282 1.021 934.287 1.021 960.955 133.497 928.95 270.822 944.423 320.32 941.196 405.82 928.95 498.674 960.955 640.68 960.955 640.68 932.153 498.674 934.287" fill="#30332b"/>
          <path d="M640.68,947.719l-143.3-.136c-.219-.062-92.458-29.394-92.458-29.394s-47,6.668-82.809,15.03l-54.985.076L132.96,918.957,1.021,947.631V924.783l131.519-28.85.607.065L267.72,910.379h53.1c3.067-.709,22.1-5.094,41.306-8.929,12.292-2.454,22.259-4.207,29.625-5.214,12.907-1.762,16.428-1.178,18.5,1.057,4.814,3.081,43.37,15.044,88.63,27.49H640.68v22.936Z" fill="#0b5d6c"/>
          <path d="M1.021,847.863l197.308-25.606,64.971,12.8s202.413-14.4,207.41-12.8,169.97,25.606,169.97,25.606v84.29H499.089l-94.117-30.94-81.7,14.916H262.8L133.5,900.687,1.021,932.153Z" fill="#0d7984"/>
          <path d="M470.71,821.863c-5-1.6-207.41,12.8-207.41,12.8l-64.971-12.8L1.021,847.468v84.685L133.636,901.07l129.238,15.369,60.459-.086,81.908-14.717,93.848,30.827,141.591-.31V847.468S475.708,823.461,470.71,821.863Zm-207.525,83.2L133.116,889.532,1.021,919.2V857.983l197.091-25.369,64.781,12.765.87-.062c.454-.032,12.06-.857,29.567-2.075l29.987,12.635-63.5,12.609L284.39,887.72ZM640.68,919.2l-140.6,1.875-94.643-31.111-82.752,15.1,16.906-13.985-39.564-16.217,38.313-18.452-21.813-14.775c55.522-3.815,136.916-9.229,151.813-9.229.707,0,1.077.012,1.243.021,11.378,2.409,120,18.109,171.1,25.555Z" fill="#0f6d7b"/>
          <path d="M382.043,846.847c0,1.663-4.687,3.01-10.467,3.01s-10.471-1.347-10.471-3.01,4.687-3.009,10.471-3.009S382.043,845.185,382.043,846.847Z" fill="#0f6d7b"/>
          <path d="M429.516,852.869c0,1.663-4.685,3.008-10.466,3.008s-10.47-1.345-10.47-3.008,4.686-3.012,10.47-3.012S429.516,851.205,429.516,852.869Z" fill="#0f6d7b"/>
          <path d="M535.177,877.143c0,1.662-4.686,3.01-10.468,3.01s-10.47-1.348-10.47-3.01,4.686-3.01,10.47-3.01S535.177,875.48,535.177,877.143Z" fill="#0f6d7b"/>
          <path d="M556.115,888.9c0,1.662-4.686,3.01-10.468,3.01s-10.47-1.348-10.47-3.01,4.688-3.01,10.47-3.01S556.115,887.236,556.115,888.9Z" fill="#0f6d7b"/>
          <path d="M481.448,856.721c0,1.662-4.686,3.012-10.47,3.012s-10.466-1.35-10.466-3.012,4.686-3.01,10.466-3.01S481.448,855.059,481.448,856.721Z" fill="#0f6d7b"/>
          <path d="M410.754,859.733c0,2.278-6.426,4.126-14.355,4.126s-14.356-1.848-14.356-4.126,6.426-4.128,14.356-4.128S410.754,857.453,410.754,859.733Z" fill="#0f6d7b"/>
          <path d="M215.557,846.847c0,2.28-6.425,4.129-14.354,4.129s-14.355-1.849-14.355-4.129,6.425-4.128,14.355-4.128S215.557,844.567,215.557,846.847Z" fill="#0f6d7b"/>
          <path d="M74.772,879.2c0,2.277-6.427,4.125-14.356,4.125s-14.358-1.848-14.358-4.125,6.428-4.129,14.358-4.129S74.772,876.919,74.772,879.2Z" fill="#0f6d7b"/>
          <path d="M175.318,857.658c0,1.135-3.2,2.056-7.144,2.056s-7.147-.921-7.147-2.056,3.2-2.053,7.147-2.053S175.318,856.523,175.318,857.658Z" fill="#0f6d7b"/>
          <path d="M225.917,855.605c0,1.135-3.2,2.053-7.146,2.053s-7.146-.918-7.146-2.053,3.2-2.056,7.146-2.056S225.917,854.47,225.917,855.605Z" fill="#0f6d7b"/>
          <path d="M258.4,877.143c0,1.133-3.2,2.056-7.147,2.056s-7.147-.923-7.147-2.056,3.2-2.056,7.147-2.056S258.4,876.008,258.4,877.143Z" fill="#0f6d7b"/>
          <polygon points="133.538 1002.028 145.522 971.625 156.19 1002.028 133.538 1002.028" fill="#3a3d34"/>
          <polygon points="189.354 1040.685 165.576 1055.931 171.171 1023.378 189.354 1040.685" fill="#3a3d34"/>
          <polygon points="253.596 1014.322 256.365 1048.195 234.547 1030.024 253.596 1014.322" fill="#3a3d34"/>
          <polygon points="455.373 997.384 458.144 1031.259 436.325 1013.089 455.373 997.384" fill="#3a3d34"/>
          <polygon points="640.68 1023.559 622.739 1049.544 617.898 1016.793 640.68 1023.559" fill="#3a3d34"/>
          <polygon points="307.824 1000.857 328.289 979.114 328.589 1012.447 307.824 1000.857" fill="#3a3d34"/>
          <polygon points="584.541 1022.982 590.752 989.867 606.589 1016.32 584.541 1022.982" fill="#3a3d34"/>
          <path d="M394.2,959.31s7.542-5.688,9.19-5.688,12.869,5.688,12.869,5.688-14.956,4.791-15.657,4.49S394.2,959.31,394.2,959.31Z" fill="#3a3d34"/>
          <path d="M556.115,990.459s7.543-5.688,9.193-5.688,12.865,5.688,12.865,5.688-14.956,4.791-15.656,4.49S556.115,990.459,556.115,990.459Z" fill="#3a3d34"/>
          <path d="M226.749,959.448S237.95,951,240.4,951s19.106,8.445,19.106,8.445-22.209,7.112-23.25,6.668S226.749,959.448,226.749,959.448Z" fill="#3a3d34"/>
          <path d="M324.825,1043.279s8.064-6.079,9.828-6.079,13.754,6.079,13.754,6.079-15.989,5.121-16.739,4.8S324.825,1043.279,324.825,1043.279Z" fill="#3a3d34"/>
          <path d="M19.166,1048.512s8.062-6.082,9.829-6.082,30.607,6.358,30.607,6.358-32.843,4.842-33.593,4.52S19.166,1048.512,19.166,1048.512Z" fill="#3a3d34"/>
          <path d="M49.19,1056.549s15.654-3.224,16.7-3.224,18.12,3.763,18.12,3.763-19.444,2.867-19.887,2.678S49.19,1056.549,49.19,1056.549Z" fill="#3a3d34"/>
          <path d="M306.416,1055.943s5.757-4.34,7.017-4.34,9.82,4.34,9.82,4.34-11.416,3.656-11.95,3.427S306.416,1055.943,306.416,1055.943Z" fill="#3a3d34"/>
          <path d="M320.851,1063.723s5.757-4.341,7.016-4.341,9.822,4.341,9.822,4.341-11.415,3.656-11.951,3.427S320.851,1063.723,320.851,1063.723Z" fill="#3a3d34"/>
          <path d="M63.542,959.448S74.74,951,77.19,951,96.3,959.448,96.3,959.448s-22.21,7.112-23.249,6.668S63.542,959.448,63.542,959.448Z" fill="#3a3d34"/>
          <path d="M222.026,975.3s-7.119,5.711-8.7,5.769-12.462-5.025-12.462-5.025,14.25-5.1,14.929-4.834S222.026,975.3,222.026,975.3Z" fill="#3a3d34"/>
          <polygon points="363.117 979.402 373.221 973.18 380.032 982.958 370.071 989.624 363.117 979.402" fill="#3a3d34"/>
          <polygon points="472.991 1037.653 483.097 1031.431 489.904 1041.209 479.946 1047.877 472.991 1037.653" fill="#3a3d34"/>
          <polygon points="488.19 1047.768 493.065 1044.768 496.35 1049.485 491.545 1052.7 488.19 1047.768" fill="#3a3d34"/>
          <polygon points="510.055 1038.688 514.929 1035.686 518.215 1040.403 513.41 1043.62 510.055 1038.688" fill="#3a3d34"/>
          <polygon points="549.407 1062.957 554.284 1059.957 557.568 1064.674 552.763 1067.892 549.407 1062.957" fill="#3a3d34"/>
          <polygon points="287.655 1026.025 294.899 1021.565 299.782 1028.574 292.642 1033.353 287.655 1026.025" fill="#3a3d34"/>
          <polygon points="79.918 1031.166 90.024 1024.944 96.834 1034.725 86.874 1041.39 79.918 1031.166" fill="#3a3d34"/>
        </g>
        <g>
          <polygon points="640.68 1085.771 1280.339 1085.771 1280.339 937.051 1138.331 941.22 1045.48 909.215 959.978 921.461 910.482 924.688 773.157 909.215 640.68 941.22 640.68 1085.771" fill="#494d3f"/>
          <polygon points="826.505 997.494 932.876 979.114 1030.477 1005.522 1121.108 987.117 1214.88 1007.921 1280.339 987.065 1280.339 937.051 1138.331 941.22 1045.48 909.215 959.978 921.461 910.482 924.688 773.157 909.215 640.68 941.22 640.68 999.662 709.315 979.114 826.505 997.494" fill="#494d3f"/>
          <polygon points="1214.88 1007.921 1121.108 987.117 1030.477 1005.522 932.876 979.114 826.505 997.494 709.315 979.114 640.68 987.065 640.68 1036.38 728.034 1014.322 833.729 1055.931 932.876 1014.322 1035.936 1035.128 1121.108 1014.322 1214.88 1047.93 1280.339 1036.38 1280.339 987.065 1214.88 1007.921" fill="#3a3d34"/>
          <polygon points="1121.108 1014.322 1035.936 1035.128 932.876 1014.322 833.729 1055.931 728.034 1014.322 640.68 1036.38 640.68 1085.771 1280.339 1085.771 1280.339 1036.38 1214.88 1047.93 1121.108 1014.322" fill="#494d3f"/>
          <polygon points="1138.331 934.287 1045.48 902.282 959.978 914.526 910.482 917.753 773.157 902.282 640.68 934.287 640.68 960.955 773.157 928.95 910.482 944.423 959.978 941.196 1045.48 928.95 1138.331 960.955 1280.339 960.955 1280.339 932.153 1138.331 934.287" fill="#30332b"/>
          <path d="M1280.339,947.719l-143.3-.136c-.217-.062-92.457-29.394-92.457-29.394s-47,6.668-82.809,15.03l-54.985.076L772.62,918.957,640.68,947.631V924.783l131.52-28.85.606.065,134.572,14.381h53.106c3.068-.709,22.1-5.094,41.306-8.929,12.29-2.454,22.257-4.207,29.624-5.214,12.9-1.762,16.428-1.178,18.5,1.057,4.814,3.081,43.368,15.044,88.628,27.49h141.794v22.936Z" fill="#0b5d6c"/>
          <path d="M640.68,847.863l197.306-25.606,64.973,12.8s202.413-14.4,207.409-12.8,169.971,25.606,169.971,25.606v84.29H1138.748l-94.117-30.94-81.7,14.916H902.456l-129.3-15.442L640.68,932.153Z" fill="#0d7984"/>
          <path d="M1110.368,821.863c-5-1.6-207.409,12.8-207.409,12.8l-64.973-12.8-197.306,25.6v84.685L773.3,901.07l129.239,15.369,60.456-.086,81.908-14.717,93.849,30.827,141.591-.31V847.468S1115.365,823.461,1110.368,821.863Zm-207.524,83.2L772.776,889.532,640.68,919.2V857.983l197.089-25.369,64.781,12.765.871-.062c.454-.032,12.062-.857,29.569-2.075l29.986,12.635-63.5,12.609,24.572,19.234ZM1280.339,919.2l-140.6,1.875L1045.1,889.962l-82.753,15.1,16.906-13.985-39.562-16.217L978,856.411l-21.815-14.775c55.524-3.815,136.915-9.229,151.812-9.229.707,0,1.081.012,1.246.021,11.378,2.409,120,18.109,171.1,25.555Z" fill="#0f6d7b"/>
          <path d="M1021.7,846.847c0,1.663-4.686,3.01-10.467,3.01s-10.469-1.347-10.469-3.01,4.686-3.009,10.469-3.009S1021.7,845.185,1021.7,846.847Z" fill="#0f6d7b"/>
          <path d="M1069.176,852.869c0,1.663-4.686,3.008-10.469,3.008s-10.47-1.345-10.47-3.008,4.689-3.012,10.47-3.012S1069.176,851.205,1069.176,852.869Z" fill="#0f6d7b"/>
          <path d="M1174.835,877.143c0,1.662-4.687,3.01-10.469,3.01s-10.468-1.348-10.468-3.01,4.687-3.01,10.468-3.01S1174.835,875.48,1174.835,877.143Z" fill="#0f6d7b"/>
          <path d="M1195.773,888.9c0,1.662-4.684,3.01-10.469,3.01s-10.469-1.348-10.469-3.01,4.686-3.01,10.469-3.01S1195.773,887.236,1195.773,888.9Z" fill="#0f6d7b"/>
          <path d="M1121.108,856.721c0,1.662-4.687,3.012-10.469,3.012s-10.47-1.35-10.47-3.012,4.686-3.01,10.47-3.01S1121.108,855.059,1121.108,856.721Z" fill="#0f6d7b"/>
          <path d="M1050.413,859.733c0,2.278-6.428,4.126-14.355,4.126s-14.357-1.848-14.357-4.126,6.428-4.128,14.357-4.128S1050.413,857.453,1050.413,859.733Z" fill="#0f6d7b"/>
          <path d="M855.217,846.847c0,2.28-6.427,4.129-14.355,4.129s-14.357-1.849-14.357-4.129,6.427-4.128,14.357-4.128S855.217,844.567,855.217,846.847Z" fill="#0f6d7b"/>
          <path d="M714.429,879.2c0,2.277-6.427,4.125-14.352,4.125s-14.359-1.848-14.359-4.125,6.427-4.129,14.359-4.129S714.429,876.919,714.429,879.2Z" fill="#0f6d7b"/>
          <path d="M814.977,857.658c0,1.135-3.2,2.056-7.146,2.056s-7.147-.921-7.147-2.056,3.2-2.053,7.147-2.053S814.977,856.523,814.977,857.658Z" fill="#0f6d7b"/>
          <path d="M865.576,855.605c0,1.135-3.2,2.053-7.145,2.053s-7.148-.918-7.148-2.053,3.2-2.056,7.148-2.056S865.576,854.47,865.576,855.605Z" fill="#0f6d7b"/>
          <path d="M898.059,877.143c0,1.133-3.2,2.056-7.148,2.056s-7.146-.923-7.146-2.056,3.2-2.056,7.146-2.056S898.059,876.008,898.059,877.143Z" fill="#0f6d7b"/>
          <polygon points="773.196 1002.028 785.18 971.625 795.848 1002.028 773.196 1002.028" fill="#3a3d34"/>
          <polygon points="829.012 1040.685 805.236 1055.931 810.831 1023.378 829.012 1040.685" fill="#3a3d34"/>
          <polygon points="893.254 1014.322 896.023 1048.195 874.205 1030.024 893.254 1014.322" fill="#3a3d34"/>
          <polygon points="1095.033 997.384 1097.802 1031.259 1075.984 1013.089 1095.033 997.384" fill="#3a3d34"/>
          <polygon points="1280.339 1023.559 1262.396 1049.544 1257.555 1016.793 1280.339 1023.559" fill="#3a3d34"/>
          <polygon points="947.482 1000.857 967.949 979.114 968.249 1012.447 947.482 1000.857" fill="#3a3d34"/>
          <polygon points="1224.199 1022.982 1230.412 989.867 1246.247 1016.32 1224.199 1022.982" fill="#3a3d34"/>
          <path d="M1033.863,959.31s7.543-5.688,9.191-5.688,12.869,5.688,12.869,5.688-14.957,4.791-15.66,4.49S1033.863,959.31,1033.863,959.31Z" fill="#3a3d34"/>
          <path d="M1195.773,990.459s7.545-5.688,9.193-5.688,12.868,5.688,12.868,5.688-14.956,4.791-15.659,4.49S1195.773,990.459,1195.773,990.459Z" fill="#3a3d34"/>
          <path d="M866.409,959.448s11.2-8.445,13.65-8.445,19.105,8.445,19.105,8.445-22.207,7.112-23.25,6.668S866.409,959.448,866.409,959.448Z" fill="#3a3d34"/>
          <path d="M964.485,1043.279s8.061-6.079,9.827-6.079,13.752,6.079,13.752,6.079-15.988,5.121-16.735,4.8S964.485,1043.279,964.485,1043.279Z" fill="#3a3d34"/>
          <path d="M658.825,1048.512s8.063-6.082,9.825-6.082,30.609,6.358,30.609,6.358-32.841,4.842-33.59,4.52S658.825,1048.512,658.825,1048.512Z" fill="#3a3d34"/>
          <path d="M688.85,1056.549s15.65-3.224,16.7-3.224,18.121,3.763,18.121,3.763-19.444,2.867-19.888,2.678S688.85,1056.549,688.85,1056.549Z" fill="#3a3d34"/>
          <path d="M946.076,1055.943s5.757-4.34,7.017-4.34,9.82,4.34,9.82,4.34-11.416,3.656-11.949,3.427S946.076,1055.943,946.076,1055.943Z" fill="#3a3d34"/>
          <path d="M960.509,1063.723s5.756-4.341,7.017-4.341,9.822,4.341,9.822,4.341-11.418,3.656-11.953,3.427S960.509,1063.723,960.509,1063.723Z" fill="#3a3d34"/>
          <path d="M703.2,959.448S714.4,951,716.85,951s19.105,8.445,19.105,8.445-22.209,7.112-23.248,6.668S703.2,959.448,703.2,959.448Z" fill="#3a3d34"/>
          <path d="M861.684,975.3s-7.118,5.711-8.7,5.769-12.462-5.025-12.462-5.025,14.253-5.1,14.93-4.834S861.684,975.3,861.684,975.3Z" fill="#3a3d34"/>
          <polygon points="1002.775 979.402 1012.881 973.18 1019.692 982.958 1009.73 989.624 1002.775 979.402" fill="#3a3d34"/>
          <polygon points="1112.649 1037.653 1122.754 1031.431 1129.564 1041.209 1119.607 1047.877 1112.649 1037.653" fill="#3a3d34"/>
          <polygon points="1127.85 1047.768 1132.725 1044.768 1136.01 1049.485 1131.205 1052.7 1127.85 1047.768" fill="#3a3d34"/>
          <polygon points="1149.712 1038.688 1154.587 1035.686 1157.875 1040.403 1153.069 1043.62 1149.712 1038.688" fill="#3a3d34"/>
          <polygon points="1189.067 1062.957 1193.942 1059.957 1197.227 1064.674 1192.422 1067.892 1189.067 1062.957" fill="#3a3d34"/>
          <polygon points="927.314 1026.025 934.559 1021.565 939.44 1028.574 932.3 1033.353 927.314 1026.025" fill="#3a3d34"/>
          <polygon points="719.577 1031.166 729.683 1024.944 736.492 1034.725 726.534 1041.39 719.577 1031.166" fill="#3a3d34"/>
        </g>
        <g>
          <polygon points="1280.339 1085.771 1920 1085.771 1920 937.051 1777.99 941.22 1685.135 909.215 1599.635 921.461 1550.137 924.688 1412.814 909.215 1280.339 941.22 1280.339 1085.771" fill="#494d3f"/>
          <polygon points="1466.164 997.494 1572.535 979.114 1670.136 1005.522 1760.764 987.117 1854.54 1007.921 1920 987.065 1920 937.051 1777.99 941.22 1685.135 909.215 1599.635 921.461 1550.137 924.688 1412.814 909.215 1280.339 941.22 1280.339 999.662 1348.975 979.114 1466.164 997.494" fill="#494d3f"/>
          <polygon points="1854.54 1007.921 1760.764 987.117 1670.136 1005.522 1572.535 979.114 1466.164 997.494 1348.975 979.114 1280.339 987.065 1280.339 1036.38 1367.693 1014.322 1473.39 1055.931 1572.535 1014.322 1675.596 1035.128 1760.764 1014.322 1854.54 1047.93 1920 1036.38 1920 987.065 1854.54 1007.921" fill="#3a3d34"/>
          <polygon points="1760.764 1014.322 1675.596 1035.128 1572.535 1014.322 1473.39 1055.931 1367.693 1014.322 1280.339 1036.38 1280.339 1085.771 1920 1085.771 1920 1036.38 1854.54 1047.93 1760.764 1014.322" fill="#494d3f"/>
          <polygon points="1777.99 934.287 1685.135 902.282 1599.635 914.526 1550.137 917.753 1412.814 902.282 1280.339 934.287 1280.339 960.955 1412.814 928.95 1550.137 944.423 1599.635 941.196 1685.135 928.95 1777.99 960.955 1920 960.955 1920 932.153 1777.99 934.287" fill="#30332b"/>
          <path d="M1920,947.719l-143.305-.136c-.22-.062-92.46-29.394-92.46-29.394s-47,6.668-82.806,15.03l-54.988.076-134.165-14.338-131.937,28.674V924.783l131.52-28.85.607.065,134.572,14.381h53.106c3.063-.709,22.1-5.094,41.3-8.929,12.29-2.454,22.259-4.207,29.627-5.214,12.9-1.762,16.425-1.178,18.5,1.057,4.816,3.081,43.37,15.044,88.628,27.49H1920v22.936Z" fill="#0b5d6c"/>
          <path d="M1280.339,847.863l197.307-25.606,64.972,12.8s202.412-14.4,207.411-12.8S1920,847.863,1920,847.863v84.29h-141.6l-94.114-30.94-81.7,14.916h-60.479l-129.3-15.442-132.475,31.466Z" fill="#0d7984"/>
          <path d="M1750.029,821.863c-5-1.6-207.411,12.8-207.411,12.8l-64.972-12.8-197.307,25.6v84.685l132.617-31.083,129.234,15.369,60.46-.086,81.909-14.717,93.849,30.827,141.592-.31V847.468S1755.025,823.461,1750.029,821.863Zm-207.527,83.2-130.066-15.533-132.1,29.666V857.983l197.091-25.369,64.78,12.765.87-.062c.452-.032,12.06-.857,29.565-2.075l29.988,12.635-63.5,12.609,24.57,19.234ZM1920,919.2l-140.6,1.875-94.64-31.111L1602,905.065l16.907-13.985-39.567-16.217,38.317-18.452-21.814-14.775c55.522-3.815,136.916-9.229,151.811-9.229.707,0,1.08.012,1.242.021,11.382,2.409,120,18.109,171.1,25.555Z" fill="#0f6d7b"/>
          <path d="M1661.361,846.847c0,1.663-4.688,3.01-10.47,3.01s-10.471-1.347-10.471-3.01,4.691-3.009,10.471-3.009S1661.361,845.185,1661.361,846.847Z" fill="#0f6d7b"/>
          <path d="M1708.836,852.869c0,1.663-4.689,3.008-10.469,3.008s-10.472-1.345-10.472-3.008,4.69-3.012,10.472-3.012S1708.836,851.205,1708.836,852.869Z" fill="#0f6d7b"/>
          <path d="M1814.492,877.143c0,1.662-4.684,3.01-10.466,3.01s-10.472-1.348-10.472-3.01,4.69-3.01,10.472-3.01S1814.492,875.48,1814.492,877.143Z" fill="#0f6d7b"/>
          <path d="M1835.432,888.9c0,1.662-4.688,3.01-10.468,3.01s-10.472-1.348-10.472-3.01,4.69-3.01,10.472-3.01S1835.432,887.236,1835.432,888.9Z" fill="#0f6d7b"/>
          <path d="M1760.764,856.721c0,1.662-4.685,3.012-10.465,3.012s-10.472-1.35-10.472-3.012,4.686-3.01,10.472-3.01S1760.764,855.059,1760.764,856.721Z" fill="#0f6d7b"/>
          <path d="M1690.073,859.733c0,2.278-6.428,4.126-14.358,4.126s-14.354-1.848-14.354-4.126,6.429-4.128,14.354-4.128S1690.073,857.453,1690.073,859.733Z" fill="#0f6d7b"/>
          <path d="M1494.872,846.847c0,2.28-6.425,4.129-14.352,4.129s-14.356-1.849-14.356-4.129,6.426-4.128,14.356-4.128S1494.872,844.567,1494.872,846.847Z" fill="#0f6d7b"/>
          <path d="M1354.089,879.2c0,2.277-6.428,4.125-14.357,4.125s-14.355-1.848-14.355-4.125,6.428-4.129,14.355-4.129S1354.089,876.919,1354.089,879.2Z" fill="#0f6d7b"/>
          <path d="M1454.637,857.658c0,1.135-3.2,2.056-7.146,2.056s-7.147-.921-7.147-2.056,3.2-2.053,7.147-2.053S1454.637,856.523,1454.637,857.658Z" fill="#0f6d7b"/>
          <path d="M1505.233,855.605c0,1.135-3.2,2.053-7.147,2.053s-7.144-.918-7.144-2.053,3.2-2.056,7.144-2.056S1505.233,854.47,1505.233,855.605Z" fill="#0f6d7b"/>
          <path d="M1537.716,877.143c0,1.133-3.2,2.056-7.145,2.056s-7.146-.923-7.146-2.056,3.2-2.056,7.146-2.056S1537.716,876.008,1537.716,877.143Z" fill="#0f6d7b"/>
          <polygon points="1412.855 1002.028 1424.837 971.625 1435.508 1002.028 1412.855 1002.028" fill="#3a3d34"/>
          <polygon points="1468.671 1040.685 1444.892 1055.931 1450.491 1023.378 1468.671 1040.685" fill="#3a3d34"/>
          <polygon points="1532.914 1014.322 1535.683 1048.195 1513.865 1030.024 1532.914 1014.322" fill="#3a3d34"/>
          <polygon points="1734.692 997.384 1737.461 1031.259 1715.644 1013.089 1734.692 997.384" fill="#3a3d34"/>
          <polygon points="1920 1023.559 1902.055 1049.544 1897.215 1016.793 1920 1023.559" fill="#3a3d34"/>
          <polygon points="1587.139 1000.857 1607.609 979.114 1607.909 1012.447 1587.139 1000.857" fill="#3a3d34"/>
          <polygon points="1863.86 1022.982 1870.069 989.867 1885.904 1016.32 1863.86 1022.982" fill="#3a3d34"/>
          <path d="M1673.52,959.31s7.544-5.688,9.194-5.688,12.868,5.688,12.868,5.688-14.958,4.791-15.659,4.49S1673.52,959.31,1673.52,959.31Z" fill="#3a3d34"/>
          <path d="M1835.432,990.459s7.541-5.688,9.191-5.688,12.869,5.688,12.869,5.688-14.956,4.791-15.657,4.49S1835.432,990.459,1835.432,990.459Z" fill="#3a3d34"/>
          <path d="M1506.065,959.448s11.2-8.445,13.651-8.445,19.107,8.445,19.107,8.445-22.21,7.112-23.252,6.668S1506.065,959.448,1506.065,959.448Z" fill="#3a3d34"/>
          <path d="M1604.142,1043.279s8.064-6.079,9.827-6.079,13.754,6.079,13.754,6.079-15.988,5.121-16.739,4.8S1604.142,1043.279,1604.142,1043.279Z" fill="#3a3d34"/>
          <path d="M1298.482,1048.512s8.064-6.082,9.828-6.082,30.607,6.358,30.607,6.358-32.842,4.842-33.591,4.52S1298.482,1048.512,1298.482,1048.512Z" fill="#3a3d34"/>
          <path d="M1328.505,1056.549s15.654-3.224,16.7-3.224,18.12,3.763,18.12,3.763-19.444,2.867-19.887,2.678S1328.505,1056.549,1328.505,1056.549Z" fill="#3a3d34"/>
          <path d="M1585.736,1055.943s5.756-4.34,7.014-4.34,9.822,4.34,9.822,4.34-11.416,3.656-11.953,3.427S1585.736,1055.943,1585.736,1055.943Z" fill="#3a3d34"/>
          <path d="M1600.169,1063.723s5.756-4.341,7.015-4.341,9.821,4.341,9.821,4.341-11.416,3.656-11.951,3.427S1600.169,1063.723,1600.169,1063.723Z" fill="#3a3d34"/>
          <path d="M1342.857,959.448s11.2-8.445,13.65-8.445,19.107,8.445,19.107,8.445-22.211,7.112-23.25,6.668S1342.857,959.448,1342.857,959.448Z" fill="#3a3d34"/>
          <path d="M1501.343,975.3s-7.119,5.711-8.7,5.769-12.461-5.025-12.461-5.025,14.247-5.1,14.928-4.834S1501.343,975.3,1501.343,975.3Z" fill="#3a3d34"/>
          <polygon points="1642.435 979.402 1652.538 973.18 1659.347 982.958 1649.388 989.624 1642.435 979.402" fill="#3a3d34"/>
          <polygon points="1752.308 1037.653 1762.414 1031.431 1769.224 1041.209 1759.262 1047.877 1752.308 1037.653" fill="#3a3d34"/>
          <polygon points="1767.506 1047.768 1772.382 1044.768 1775.668 1049.485 1770.864 1052.7 1767.506 1047.768" fill="#3a3d34"/>
          <polygon points="1789.371 1038.688 1794.246 1035.686 1797.53 1040.403 1792.726 1043.62 1789.371 1038.688" fill="#3a3d34"/>
          <polygon points="1828.727 1062.957 1833.599 1059.957 1836.887 1064.674 1832.08 1067.892 1828.727 1062.957" fill="#3a3d34"/>
          <polygon points="1566.971 1026.025 1574.216 1021.565 1579.097 1028.574 1571.957 1033.353 1566.971 1026.025" fill="#3a3d34"/>
          <polygon points="1359.235 1031.166 1369.343 1024.944 1376.152 1034.725 1366.19 1041.39 1359.235 1031.166" fill="#3a3d34"/>
        </g>
      </g>
    </g>
  </g>
</svg>
