<svg xmlns="http://www.w3.org/2000/svg" xmlns:xlink="http://www.w3.org/1999/xlink" width="1920" height="1080" viewBox="0 0 1920 1080">
  <defs>
    <linearGradient id="a" x1="960" y1="1086.894" x2="960" y2="0.766" gradientUnits="userSpaceOnUse">
      <stop offset="0.048" stop-color="#404041"/>
      <stop offset="0.213" stop-color="#434344"/>
      <stop offset="0.352" stop-color="#4e4e4f"/>
      <stop offset="0.483" stop-color="#5f5f60"/>
      <stop offset="0.607" stop-color="#787879"/>
      <stop offset="0.728" stop-color="#989898"/>
      <stop offset="0.845" stop-color="#bfbfbf"/>
      <stop offset="0.959" stop-color="#ececed"/>
      <stop offset="1" stop-color="#fff"/>
    </linearGradient>
    <linearGradient id="b" x1="960" y1="1086.894" x2="960" y2="471.012" gradientUnits="userSpaceOnUse">
      <stop offset="0" stop-color="#808184"/>
      <stop offset="0.35" stop-color="#5e5e60"/>
      <stop offset="0.645" stop-color="#484849"/>
      <stop offset="0.83" stop-color="#404041"/>
    </linearGradient>
    <linearGradient id="c" x1="-8205.525" y1="1086.894" x2="-8205.525" y2="688.93" gradientTransform="matrix(-1, 0, 0, 1, -7245.525, 0)" xlink:href="#b"/>
    <linearGradient id="d" x1="960" y1="1086.894" x2="960" y2="1000.324" gradientUnits="userSpaceOnUse">
      <stop offset="0.564" stop-color="#be1e2d"/>
      <stop offset="0.666" stop-color="#9b1d25"/>
      <stop offset="0.774" stop-color="#7e1d1e"/>
      <stop offset="0.867" stop-color="#6b1c1a"/>
      <stop offset="0.933" stop-color="#651c18"/>
    </linearGradient>
  </defs>
  <g>
    <g>
      <rect y="0.766" width="1920" height="1086.128" fill="url(#a)"/>
      <g>
        <path d="M1920,150.845h-90.975q-17.322,0-37.515-.015c-58.6-.265-113.907-6.96-172.97-9.191-14.062-.279-27.187.278-38.437,2.231-59.063,9.485-115.313,21.2-187.5,16.738-70.313-4.184-132.188-13.112-202.5-11.437-105,2.51-208.125-.279-312.188-2.232-23.437-.279-46.875.279-70.312.837-112.5,3.626-221.25,11.995-334.688,8.648-85.312-2.79-168.75-5.3-253.363-5.51q-25.329-.073-48.1-.069H0v-13.39H171.454q22.778.013,48.077.058c102.447-.338,202.759,4.4,304.009,5.8,16.875.279,34.688-.279,51.563-.557,94.687-2.511,185.625-10.88,281.25-8.09,120.937,3.347,238.125,2.51,358.125,1.116,60.937-.558,114.375,8.089,175.312,12,28.125,1.674,55.313,1.116,81.563-2.511,52.5-6.974,99.375-19.527,163.125-15.063,53.437,3.626,104.062,6.973,157.036,7.253H1920Z" fill="#a6a8ab"/>
        <path d="M0,164.869H90.975c11.547,0,24.074,0,37.516-.01,58.594-.191,113.906-5.016,172.969-6.625a285.134,285.134,0,0,1,38.437,1.609c59.063,6.837,115.313,15.283,187.5,12.065,70.313-3.017,132.188-9.452,202.5-8.245,105,1.81,208.125-.2,312.188-1.609,23.437-.2,46.875.2,70.312.6,112.5,2.614,221.25,8.648,334.687,6.234,85.313-2.011,168.751-3.821,253.364-3.971q25.329-.052,48.1-.051H1920v-9.652H1748.547q-22.781.009-48.078.042c-102.447-.243-202.759,3.175-304.009,4.18-16.875.2-34.688-.2-51.563-.4-94.687-1.809-185.625-7.842-281.25-5.831-120.937,2.413-238.125,1.81-358.125.8-60.937-.4-114.375,5.833-175.312,8.647a574.94,574.94,0,0,1-81.563-1.81c-52.5-5.027-99.375-14.076-163.125-10.859-53.437,2.613-104.062,5.028-157.036,5.229H0Z" fill="#a6a8ab"/>
      </g>
      <g>
        <path d="M1920,194.4h-90.975q-17.322,0-37.515-.006c-58.6-.105-113.907-2.761-172.97-3.646-14.062-.111-27.187.11-38.437.885-59.063,3.763-115.313,8.412-187.5,6.64-70.313-1.66-132.188-5.2-202.5-4.537-105,1-208.125-.111-312.188-.886-23.437-.11-46.875.112-70.312.333-112.5,1.438-221.25,4.759-334.688,3.43-85.312-1.106-168.75-2.1-253.363-2.185q-25.329-.03-48.1-.028H0v-5.312H171.454q22.778.006,48.077.023c102.447-.134,202.759,1.747,304.009,2.3,16.875.111,34.688-.111,51.563-.221,94.687-1,185.625-4.317,281.25-3.21,120.937,1.328,238.125,1,358.125.443,60.937-.221,114.375,3.209,175.312,4.759,28.125.664,55.313.442,81.563-1,52.5-2.767,99.375-7.747,163.125-5.977,53.437,1.439,104.062,2.767,157.036,2.878H1920Z" fill="#a6a8ab"/>
        <path d="M0,199.959H90.975c11.547,0,24.074,0,37.516,0,58.594-.075,113.906-1.99,172.969-2.628,14.062-.081,27.187.08,38.437.638,59.063,2.712,115.313,6.063,187.5,4.786,70.313-1.2,132.188-3.749,202.5-3.27,105,.717,208.125-.08,312.188-.639,23.437-.079,46.875.08,70.312.24,112.5,1.037,221.25,3.43,334.687,2.473,85.313-.8,168.751-1.516,253.364-1.576q25.329-.02,48.1-.02H1920V196.13H1748.547q-22.781,0-48.078.017c-102.447-.1-202.759,1.26-304.009,1.658-16.875.08-34.688-.079-51.563-.16-94.687-.718-185.625-3.111-281.25-2.313-120.937.957-238.125.718-358.125.319-60.937-.16-114.375,2.314-175.312,3.431-28.125.478-55.313.319-81.563-.718-52.5-2-99.375-5.585-163.125-4.309-53.437,1.037-104.062,2-157.036,2.075H0Z" fill="#a6a8ab"/>
      </g>
      <g>
        <path d="M1920,217.023h-90.975q-17.322,0-37.515-.006c-58.6-.1-113.907-2.761-172.97-3.646-14.062-.111-27.187.11-38.437.885-59.063,3.763-115.313,8.411-187.5,6.64-70.313-1.66-132.188-5.2-202.5-4.537-105,1-208.125-.111-312.188-.886-23.437-.11-46.875.111-70.312.333-112.5,1.438-221.25,4.758-334.688,3.43-85.312-1.106-168.75-2.1-253.363-2.185q-25.329-.03-48.1-.028H0v-5.312H171.454q22.778.006,48.077.023c102.447-.134,202.759,1.747,304.009,2.3,16.875.11,34.688-.111,51.563-.221,94.687-1,185.625-4.317,281.25-3.21,120.937,1.327,238.125,1,358.125.442,60.937-.221,114.375,3.21,175.312,4.76,28.125.664,55.313.442,81.563-1,52.5-2.768,99.375-7.748,163.125-5.977,53.437,1.438,104.062,2.767,157.036,2.878H1920Z" fill="#a6a8ab"/>
        <path d="M0,222.586H90.975c11.547,0,24.074,0,37.516,0,58.594-.075,113.906-1.99,172.969-2.628,14.062-.08,27.187.08,38.437.638,59.063,2.713,115.313,6.064,187.5,4.787,70.313-1.2,132.188-3.75,202.5-3.27,105,.717,208.125-.081,312.188-.639,23.437-.08,46.875.079,70.312.24,112.5,1.037,221.25,3.43,334.687,2.472,85.313-.8,168.751-1.516,253.364-1.576q25.329-.019,48.1-.02H1920v-3.829H1748.547q-22.781,0-48.078.018c-102.447-.1-202.759,1.259-304.009,1.658-16.875.079-34.688-.08-51.563-.16-94.687-.718-185.625-3.111-281.25-2.313-120.937.957-238.125.718-358.125.319-60.937-.16-114.375,2.313-175.312,3.431-28.125.478-55.313.318-81.563-.719-52.5-1.994-99.375-5.584-163.125-4.308-53.437,1.037-104.062,2-157.036,2.074H0Z" fill="#a6a8ab"/>
      </g>
    </g>
    <g>
      <polygon points="293.911 1086.894 0 1086.894 75 293.34 142.057 239.476 209.536 293.34 293.911 1086.894" fill="#555656"/>
      <polygon points="934.048 1086.894 660.734 1086.894 730.478 348.951 792.836 298.861 855.586 348.951 934.048 1086.894" fill="#555656"/>
      <polygon points="1269.564 1086.894 975.653 1086.894 1050.653 293.34 1117.71 239.476 1185.189 293.34 1269.564 1086.894" fill="#555656"/>
      <polygon points="1576.519 1086.894 1319.135 1086.894 1384.813 391.963 1443.537 344.792 1502.629 391.963 1576.519 1086.894" fill="#555656"/>
      <polygon points="600.865 1086.894 343.481 1086.894 409.159 391.963 467.883 344.792 526.976 391.963 600.865 1086.894" fill="#555656"/>
      <polygon points="1920 1086.894 1667.944 1086.894 1732.263 406.346 1789.771 360.152 1847.64 406.346 1920 1086.894" fill="#555656"/>
    </g>
    <path d="M1804.165,719.233l-92.3-56.61-56.016-35.571-94.6-74.893-196.895,89.994-90.008-6.807-49.557,22.183-127.425-49.454-91.446-64.245L845.728,471.012l-153.342,66-106.869,68.94-129.691,56.67-67.6-49.135-76.581-34.126L239.478,613.3l-146.5,95.575L0,641.485v445.409H1920V641.485Z" fill="url(#b)"/>
    <path d="M0,808.882v278.012H1920V808.882l-239.478-70.291-72.164-24.962-76.581,25.1-67.6,36.137L1362.6,721.236l-93.039-32.306-193.836,82.378L901.353,727.7l-78.719,7.049L695.21,771.116,645.654,754.8l-90.008,5.006-196.9-66.186-94.6,55.08-56.016,26.162Z" fill="url(#c)"/>
    <g>
      <rect y="946.25" width="1920" height="140.643" fill="#2a2a2c"/>
      <path d="M1852.727,937.54c-22.727-2.455-41.477,6.382-63.977,4.908-110.625-5.891-221.25-10.309-333.75,0-11.25,0-20.625-7.363-31.637-4.908-1.141,0-24.388-4.354-25.55-4.357-30.211-3.926-55.313,4.847-85.313,7.793-18.75,1.472-39.375-4.419-58.125-4.419-86.25-1.472-172.5,2.946-258.75-1.472-9.375,0-20.625,2.945-31.774,2.455H792.258c-21.633.49-44.133,3.436-66.633,1.963-67.5-1.473-135-2.946-202.5,1.473-5.625,0-13.125-2.946-20.826-3.416-1.117-.019-2.251-.02-3.386-.02H465.194c-1.109,0-2.221,0-3.34-.006C406.875,932.139,352.5,942.448,300,940.976c-22.5-1.473-56.25-10.31-80.625-4.419-48.75,10.31-97.5-7.364-146.664.983H0v16.446H72.711c51.665,0,98.225,5.153,146.975-5.156,24.375-5.891,59.22,5.033,81.72,6.506,52.5,1.473,96.9-6.868,151.875-1.473,1.12.006,46.719,2.332,72.969,2.332,67.5-4.419,131.875-1.719,199.375-.247,22.5,1.474,45-1.472,66.633-1.962H963.851c11.149.49,22.4-2.456,31.774-2.456,86.25,4.418,172.5,0,258.75,1.473,18.75,0,39.375,5.891,58.125,4.419,30-2.946,55.1-11.719,85.313-7.793,1.162,0,24.409,4.357,25.55,4.357,11.012-2.456,20.387,4.908,31.637,4.908,112.5-10.31,223.125-5.891,333.75,0,22.5,1.473,41.25-7.364,63.977-4.908H1920V937.54h-67.273Z" fill="#202022"/>
      <path d="M1852.727,931.648c-22.727-2.455-41.477,6.382-63.977,4.909-110.625-5.891-221.25-10.31-333.75,0-11.25,0-20.625-7.364-31.637-4.909-1.141,0-24.388-4.353-25.55-4.357-30.211-3.925-55.313,4.848-85.313,7.794-18.75,1.472-39.375-4.419-58.125-4.419-86.25-1.473-172.5,2.945-258.75-1.473-9.375,0-20.625,2.946-31.774,2.455H792.258c-21.633.491-44.133,3.437-66.633,1.963-67.5-1.472-135-2.945-202.5,1.474-5.625,0-13.125-2.946-20.826-3.417-1.117-.019-2.251-.02-3.386-.02H465.194c-1.109,0-2.221,0-3.34-.006-54.979-5.4-109.354,4.915-161.854,3.443-22.5-1.474-56.25-10.311-80.625-4.419-48.75,10.31-97.5-7.365-146.664.982H0v16.446H72.711c51.665,0,98.225,5.155,146.975-5.155,24.375-5.892,59.22,5.032,81.72,6.506,52.5,1.472,96.9-6.87,151.875-1.474,1.12.006,46.719,2.332,72.969,2.332,67.5-4.419,131.875-1.719,199.375-.246,22.5,1.473,45-1.473,66.633-1.963H963.851c11.149.49,22.4-2.455,31.774-2.455,86.25,4.418,172.5,0,258.75,1.472,18.75,0,39.375,5.892,58.125,4.419,30-2.946,55.1-11.718,85.313-7.794,1.162,0,24.409,4.358,25.55,4.358C1434.375,945.639,1443.75,953,1455,953c112.5-10.31,223.125-5.892,333.75,0,22.5,1.473,41.25-7.364,63.977-4.909H1920V931.648h-67.273Z" fill="#0e0e10"/>
      <path d="M1920,929.46h-67.273c-22.727-6.655-41.477,17.3-63.977,13.307-110.625-15.97-221.25-27.947-333.75,0-11.25,0-20.625-19.962-31.637-13.307-1.141,0-24.388-11.8-25.55-11.811-30.211-10.637-55.313,13.141-85.313,21.124-18.75,3.994-39.375-11.976-58.125-11.976-86.25-3.992-172.5,7.985-258.75-3.992-9.375,0-20.625,7.985-31.774,6.655H792.258c-21.633,1.33-44.133,9.313-66.633,5.322-67.5-3.992-135-7.985-202.5,3.991-5.625,0-13.125-7.983-20.826-9.261-1.117-.05-2.251-.052-3.386-.052H465.194c-1.109,0-2.221,0-3.34-.016C406.875,914.82,352.5,942.767,300,938.773c-22.5-3.991-56.25-27.944-80.625-11.976-48.75,27.946-97.5-19.96-146.664,2.663H0v-69.2H73.469c123.406,6.655,247.156-5.322,370.906-1.328,103.125,3.991,258.75,6.654,281.563,6.654s53.438,6.655,66.562,6.655c93.034,0,153.532-11.981,248.176-11.981,1.288-.031,2.527-.062,3.823-.125,103,2.788,206.126-5.2,309.251,2.788,46.875,7.985,93.75-11.977,140.625-7.985,65.625,7.985,131.25-3.992,198.75,11.977,22.5,3.993,43.125-11.977,65.625-15.969,18.75,0,35.625,11.977,55.1,9.314H1920Z" fill="#929da7"/>
      <path d="M1852.727,916.76c-29.993,0-40.54,18.352-63.04,15.6C1679.063,921.347,1567.5,906.667,1455,925.935c-11.25,0-45.231-11.583-64.922-11.355s-47.578,3.1-77.578,8.6c-18.75,2.753-39.375-8.258-58.125-8.258-86.25-2.752-112.266,10.322-198.516,2.065-9.375,0-80.625,9.634-94.687,6.537s-69.093.8-119.3-5.389c-33.508-4.129-91.249,13.305-113.749,10.553-67.5-2.752-118.126-.462-151.563-.462s-54.856-6.3-65.937-7.339c-102.813-9.634-160,11.24-212.5,8.486-22.5-2.752-55.312-30.966-79.688-19.955-57.656,35.1-97.266,7.34-145.726,7.34H0v19.268H72.711c42.836,0,97.914,17.432,146.664-1.835,24.375-11.011,58.125,5.5,80.625,8.258,52.5,2.751,106.875-16.516,161.854-6.434,1.119.011,2.231.011,3.34.011h33.719c1.135,0,2.269,0,3.386.037,7.7.88,16.372,6.039,22,6.039,67.5-8.258,133.828-5.159,201.328-2.407,22.5,2.754,45-2.752,66.633-3.669H963.851c11.149.917,22.4-4.589,31.774-4.589,86.25,8.258,172.5,0,258.75,2.754,18.75,0,39.375,11.009,58.125,8.258,30-5.506,70.781-17.892,110.863-6.423,20.508,5.868,20.387,9.174,31.637,9.174,112.5-19.267,223.125-11.009,333.75,0,22.5,2.753,39.843-9.174,63.977-9.174H1920V916.76h-67.273Z" fill="#6e727a"/>
      <path d="M1874.5,982.267h-2.678a68.616,68.616,0,0,0-13.632,1.169c-4.291.825-8.511,1.635-13.189,1.088q-5.979-.3-11.788-.591c-25.721.078-46.346-9.667-66.971-10.75-58.125-3.248-116.25,21.657-174.375,11.911-28.125-4.331-52.5-14.076-82.5-7.579-48.75,10.828-86.874,13.713-132.5,2.165-2.427-.616-45.624,3.249-47.5,2.166-11.25-6.5-44.376-8.3-53.751-3.972-41.25,22.739-73.749,9.386-124.374,8.3-26.25-.362-52.291-1.2-78.263-2.166q-6.495-.24-12.982-.491c-56.88-.591-113.13-9.254-163.755-3.84-61.875,6.5-116.25,10.828-172.5-4.331-1.875-1.083-8.691-.6-13.125,1.083-41.875,15.88-67.5,18.046-118.749,4.692-7.643-1.991-48.126-.36-59.376,0s-23.124-10.467-28.75-9.384c-18.75,5.414-14.375,7.94-37.535,8.224q-6.862.712-13.784,1.343c-55.306,5.044-111.556,5.953-171.181-.544-69.375-7.58-138.75,6.5-211.866,2.166q-4.7.27-9.386.372c-15.64.362-31.321-1.034-47.483-1.034H0v10.31H12.5c16.162,0,31.843,1.395,47.483,1.035q4.692-.109,9.386-.373c73.116,4.331,142.491-9.747,211.866-2.167,59.625,6.5,115.875,5.588,171.181.546q6.912-.63,13.784-1.343c23.16-.286,18.785-2.811,37.535-8.225,5.626-1.083,17.5,9.745,28.75,9.384s51.733-1.991,59.376,0c51.249,13.355,76.874,11.189,118.749-4.692,4.434-1.681,11.25-2.167,13.125-1.084,56.25,15.159,110.625,10.828,172.5,4.331,50.625-5.414,106.875,3.25,163.755,3.843q6.487.247,12.982.488c25.972.963,52.013,1.806,78.263,2.166,50.625,1.084,83.124,14.437,124.374-8.3,9.375-4.331,42.5-2.527,53.751,3.971,1.875,1.083,45.072-2.78,47.5-2.167,45.627,11.551,83.751,8.664,132.5-2.164,30-6.5,54.375,3.247,82.5,7.578,58.125,9.747,116.25-15.158,174.375-11.911,20.625,1.083,41.25,10.828,66.971,10.751q5.815.3,11.788.591c4.678.546,8.9-.264,13.189-1.087a68.462,68.462,0,0,1,13.632-1.17H1920v-10.31Z" fill="#202022"/>
      <path d="M311.642,931.4c0,1.22-4.094,2.209-9.14,2.209s-9.142-.989-9.142-2.209,4.091-2.209,9.142-2.209S311.642,930.182,311.642,931.4Z" fill="#6e727a"/>
      <path d="M322.306,926c0,.641-2.15,1.161-4.8,1.161s-4.807-.52-4.807-1.161,2.151-1.161,4.807-1.161S322.306,925.36,322.306,926Z" fill="#6e727a"/>
      <path d="M749.063,932.323c0,1.219-4.092,2.209-9.142,2.209s-9.139-.99-9.139-2.209,4.092-2.21,9.139-2.21S749.063,931.1,749.063,932.323Z" fill="#6e727a"/>
      <path d="M759.785,928.271c0,.713-2.387,1.29-5.332,1.29s-5.332-.577-5.332-1.29,2.388-1.288,5.332-1.288S759.785,927.56,759.785,928.271Z" fill="#6e727a"/>
      <path d="M986.563,929.867c0,1.22-4.092,2.21-9.141,2.21s-9.141-.99-9.141-2.21,4.094-2.209,9.141-2.209S986.563,928.648,986.563,929.867Z" fill="#6e727a"/>
      <path d="M1468.517,929.683c0,1.22-4.093,2.21-9.141,2.21s-9.141-.99-9.141-2.21,4.093-2.209,9.141-2.209S1468.517,928.464,1468.517,929.683Z" fill="#6e727a"/>
      <path d="M1016.583,919.189c0,.712-2.387,1.288-5.332,1.288s-5.332-.576-5.332-1.288,2.388-1.289,5.332-1.289S1016.583,918.478,1016.583,919.189Z" fill="#6e727a"/>
      <path d="M565.43,931.469c0,.641-2.15,1.16-4.8,1.16s-4.807-.519-4.807-1.16,2.152-1.162,4.807-1.162S565.43,930.828,565.43,931.469Z" fill="#6e727a"/>
    </g>
    <g>
      <path d="M1920,1086.894H0v-86.57H148.2c151.215,0,227.916,27.071,329.046,27.071,93.75,0,290.364-27.071,409.112-27.071,59.539,0,156.33,22.4,247.5,22.4,67.7,0,132.3-22.4,176.25-22.4,103.125,0,152.812,33.059,219.375,33.059,59.913,0,169.345-33.059,221.25-33.059H1920Z" fill="url(#d)"/>
      <path d="M1522.032,1065.4c-128.844,0-215.91-14.342-254.518-14.342-162.188,0-260.73,9.077-307.514,9.077-133.752,0-224.884-26.755-404.182-26.755-166,0-269.619,18.435-555.818,18.435v35.076H1920v-35.076C1705.573,1051.818,1650.877,1065.4,1522.032,1065.4Z" fill="#300"/>
      <ellipse cx="1833.697" cy="1028.052" rx="15.469" ry="5.33" fill="#300"/>
      <path d="M1811.665,1040.4c0,1.562-4.3,2.829-9.609,2.829s-9.609-1.267-9.609-2.829,4.3-2.829,9.609-2.829S1811.665,1038.838,1811.665,1040.4Z" fill="#300"/>
      <path d="M1792.447,1031.4c0,1.847-4.511,3.345-10.078,3.345s-10.079-1.5-10.079-3.345,4.513-3.346,10.079-3.346S1792.447,1029.55,1792.447,1031.4Z" fill="#300"/>
      <path d="M1429.478,1032.812c0,2.628-8.115,4.759-18.125,4.759s-18.125-2.131-18.125-4.759,8.115-4.76,18.125-4.76S1429.478,1030.183,1429.478,1032.812Z" fill="#300"/>
      <path d="M1453.228,1046.175c0,1.628-5.316,2.946-11.875,2.946s-11.875-1.318-11.875-2.946,5.317-2.946,11.875-2.946S1453.228,1044.547,1453.228,1046.175Z" fill="#300"/>
      <ellipse cx="1207.447" cy="1038.986" rx="17.344" ry="4.243" fill="#300"/>
      <path d="M818.943,1023.711c0,2.4-8.185,4.341-18.281,4.341s-18.28-1.943-18.28-4.341,8.184-4.341,18.28-4.341S818.943,1021.314,818.943,1023.711Z" fill="#300"/>
      <ellipse cx="835.103" cy="1031.398" rx="10.625" ry="3.346" fill="#300"/>
      <path d="M169.165,1027.555c0,2.122-6.5,3.843-14.531,3.843s-14.531-1.721-14.531-3.843,6.506-3.844,14.531-3.844S169.165,1025.432,169.165,1027.555Z" fill="#300"/>
      <path d="M186.509,1021.1c0,1.445-3.252,2.616-7.265,2.616s-7.266-1.171-7.266-2.616,3.253-2.616,7.266-2.616S186.509,1019.651,186.509,1021.1Z" fill="#300"/>
      <path d="M215.572,1033.955c0,1.411-4.512,2.556-10.078,2.556s-10.079-1.145-10.079-2.556,4.513-2.557,10.079-2.557S215.572,1032.543,215.572,1033.955Z" fill="#300"/>
    </g>
  </g>
</svg>
