<svg xmlns="http://www.w3.org/2000/svg" xmlns:xlink="http://www.w3.org/1999/xlink" width="1920" height="1080" viewBox="0 0 1920 1080">
  <defs>
    <linearGradient id="a" data-name="Unbenannter Verlauf 312" x1="961.023" y1="1128.255" x2="961.023" y2="-66.392" gradientUnits="userSpaceOnUse">
      <stop offset="0" stop-color="#9f8882"/>
      <stop offset="0.176" stop-color="#9b8681"/>
      <stop offset="0.352" stop-color="#8f7f7c"/>
      <stop offset="0.529" stop-color="#7b7475"/>
      <stop offset="0.706" stop-color="#5f646b"/>
      <stop offset="0.881" stop-color="#3b505e"/>
      <stop offset="1" stop-color="#1e4054"/>
    </linearGradient>
    <linearGradient id="b" data-name="Unbenannter Verlauf 411" x1="956.603" y1="1122.708" x2="956.603" y2="643.222" gradientUnits="userSpaceOnUse">
      <stop offset="0" stop-color="#61bbc1"/>
      <stop offset="0.204" stop-color="#5fb7bd"/>
      <stop offset="0.409" stop-color="#5babb2"/>
      <stop offset="0.613" stop-color="#5397a0"/>
      <stop offset="0.817" stop-color="#487b87"/>
      <stop offset="1" stop-color="#3c5b6a"/>
    </linearGradient>
  </defs>
  <rect x="-16.114" y="-66.392" width="1954.273" height="1194.648" fill="url(#a)"/>
  <rect x="-45.838" y="643.222" width="2004.881" height="479.487" fill="url(#b)"/>
  <g>
    <path d="M1068.149,294.76c-170.8-7.456-294.935-.908-294.935-.908s215.845-51.864,239.365-51.864c0,0-50.64-44.292,94.176-61.292,26.779-88.244,271.807-12.033,193.489,65.928,23.518,1.778,62.087,1.817,91.584,19.981,0,0-125.933,1.816-154.329,10.9,0,0,56.391,41.089-178.193,35.64C1029.636,312.455,1092.877,295.84,1068.149,294.76Z" fill="#c9c9c9"/>
    <path d="M1237.5,277.5c28.132-9,151.984-10.864,154.293-10.9-110.88-20.489-299.718-4.708-327.154-2.113-28.8,2.725,46.992,11.807-4.548,11.807-42.494,0-223.762,12.863-286.077,17.378l-.8.175s124.134-6.548,294.935.908c24.728,1.08-38.513,17.695-8.843,18.384C1293.89,318.593,1237.5,277.5,1237.5,277.5Z" fill="#84a1af"/>
  </g>
  <g>
    <path d="M437,130.845c-170.8-7.455-294.935-.908-294.935-.908S357.91,78.073,381.431,78.073c0,0-50.641-44.292,94.175-61.292C502.385-71.463,747.413,4.748,669.1,82.709c23.518,1.779,62.087,1.817,91.584,19.981,0,0-125.933,1.816-154.329,10.9,0,0,56.391,41.089-178.193,35.64C398.488,148.54,461.728,131.925,437,130.845Z" fill="#c9c9c9"/>
    <path d="M606.35,113.589c28.132-9,151.984-10.864,154.293-10.9-110.88-20.488-299.718-4.708-327.154-2.112-28.8,2.724,46.992,11.806-4.548,11.806-42.494,0-223.762,12.863-286.077,17.378l-.8.175S266.2,123.39,437,130.845c24.728,1.08-38.512,17.695-8.843,18.384C662.741,154.678,606.35,113.589,606.35,113.589Z" fill="#84a1af"/>
  </g>
  <g>
    <path d="M362.569,402.1c-119.118-5.2-205.69-.633-205.69-.633s124.237-27.237,140.64-27.237c0,0,.41-38.744,55.977-21.9-1.674-4.011,1.424-26.973,19.265-34.359,23.581-9.763,40.988,4.677,43,14.3,7.364-10.027,27.125-19.262,45.524-17.553,44.506,4.132,70.17,17.952,83.967,29.855,23.295,20.1-20.814,23.951-20.814,23.951s43.3,1.267,63.871,13.935c0,0-87.827,1.266-107.63,7.6,0,0,39.328,28.656-124.273,24.855C335.71,414.438,379.815,402.85,362.569,402.1Z" fill="#d6d6d6"/>
    <path d="M480.675,390.063c19.619-6.276,105.994-7.577,107.6-7.6-77.328-14.289-209.026-3.284-228.159-1.474-20.087,1.9,32.772,8.235-3.173,8.235-29.635,0-156.052,8.97-199.512,12.119l-.557.122s86.572-4.566,205.69.633c17.246.753-26.859,12.341-6.167,12.821C520,418.719,480.675,390.063,480.675,390.063Z" fill="#84a1af"/>
  </g>
  <g>
    <path d="M1575.228,437.421c-119.117-5.2-205.689-.633-205.689-.633s124.237-27.237,140.64-27.237c0,0,.41-38.744,55.977-21.9-1.674-4.011,1.424-26.973,19.264-34.359,23.582-9.764,40.988,4.676,43,14.3,7.364-10.028,27.124-19.262,45.524-17.553,44.506,4.132,70.169,17.951,83.966,29.855,23.3,20.1-20.814,23.951-20.814,23.951s43.3,1.267,63.872,13.935c0,0-87.827,1.266-107.631,7.6,0,0,39.329,28.656-124.273,24.856C1548.37,449.761,1592.474,438.174,1575.228,437.421Z" fill="#c9c9c9"/>
    <path d="M1693.334,425.386c19.62-6.275,105.995-7.576,107.605-7.6-77.327-14.29-209.025-3.284-228.159-1.474-20.087,1.9,32.773,8.235-3.172,8.235-29.635,0-156.053,8.97-199.512,12.118l-.557.123s86.572-4.567,205.689.633c17.246.753-26.858,12.34-6.167,12.821C1732.663,454.042,1693.334,425.386,1693.334,425.386Z" fill="#84a1af"/>
  </g>
  <g>
    <path d="M1777.441,222.953c-119.117-5.2-205.69-.634-205.69-.634s124.237-27.236,140.641-27.236c0,0,.41-38.744,55.976-21.9-1.673-4.012,1.425-26.973,19.265-34.359,23.582-9.764,40.988,4.676,43,14.3,7.364-10.028,27.124-19.262,45.524-17.553,44.506,4.132,70.169,17.951,83.966,29.855,23.3,20.1-20.814,23.95-20.814,23.95s43.3,1.268,63.872,13.936c0,0-87.827,1.266-107.631,7.6,0,0,39.328,28.656-124.273,24.856C1750.582,235.293,1794.687,223.706,1777.441,222.953Z" fill="#c9c9c9"/>
    <path d="M1895.547,210.918c19.62-6.275,105.995-7.577,107.605-7.6-77.327-14.29-209.026-3.284-228.159-1.474-20.087,1.9,32.772,8.235-3.172,8.235-29.635,0-156.053,8.97-199.512,12.118l-.558.122s86.573-4.566,205.69.634c17.246.753-26.859,12.34-6.167,12.821C1934.875,239.574,1895.547,210.918,1895.547,210.918Z" fill="#84a1af"/>
  </g>
  <g>
    <path d="M-142.559,221.421c-119.117-5.2-205.69-.633-205.69-.633s124.237-27.237,140.641-27.237c0,0,.41-38.744,55.976-21.9-1.673-4.011,1.425-26.973,19.265-34.359,23.582-9.764,40.988,4.676,43,14.3,7.365-10.028,27.125-19.262,45.525-17.553C.659,138.177,26.323,152,40.12,163.9c23.3,20.1-20.814,23.951-20.814,23.951s43.3,1.267,63.872,13.935c0,0-87.827,1.266-107.631,7.6,0,0,39.328,28.656-124.273,24.856C-169.418,233.761-125.313,222.174-142.559,221.421Z" fill="#c9c9c9"/>
    <path d="M-24.453,209.386c19.62-6.275,106-7.576,107.605-7.6C5.824,187.5-125.874,198.5-145.007,200.312c-20.087,1.9,32.772,8.235-3.172,8.235-29.636,0-156.053,8.97-199.512,12.118l-.558.123s86.573-4.567,205.69.633c17.246.753-26.859,12.34-6.167,12.821C14.875,238.042-24.453,209.386-24.453,209.386Z" fill="#84a1af"/>
  </g>
  <g>
    <g>
      <path d="M1969.573,688.74H1825.268c-46.766-.451-92.922.54-139.768,1.531-10.333.33-20.667-.33-31,.33-82.668,3.3-168.781,9.25-247.315-8.588-20.667-4.625-45.468-3.964-68.2-.66-46.845,7.266-92.313,15.524-141.914,12.221-101.268-6.937-196.336-14.534-298.293-2.642-37.2,4.295-71.646,0-106.091-6.936-23.423-4.956-49.6-2.643-75.09.328-62,7.6-122.624,13.875-185.314,8.591-53.734-4.626-104.713-3.635-157.057-1.979q-9.447.178-18.872.181c-44.008.033-88.056-2.482-132.407-2.377H-28.236v-4.31H219.476c1.669,0,3.217.009,4.817.017,39.654.449,79.273,3.278,118.886,3.251,7.922,0,15.845-.124,23.768-.4A1136.417,1136.417,0,0,1,527.46,689.61c68.89,5.617,132.957-2.312,201.158-10.24,20.667-2.312,41.334-4.293,59.935-.66,73.023,14.864,146.046,4.955,220.448.991,50.978-2.974,99.89,2.312,150.18,7.928,68.89,7.926,130.2-2.974,194.959-11.561,19.289-2.644,39.956-2.644,57.867,1.32,77.846,18.167,163.269,13.213,245.937,9.579,27.556-1.321,55.112-1.321,82.668-2.312,28.245-.99,56.49,0,84.656-.225h144.305Z" fill="#fff"/>
      <path d="M-28.236,688.74H116.069c46.766-.451,92.922.54,139.768,1.531,10.333.33,20.667-.33,31,.33,82.668,3.3,168.781,9.25,247.315-8.588,20.667-4.625,45.468-3.964,68.2-.66,46.845,7.266,92.313,15.524,141.914,12.221,101.268-6.937,196.336-14.534,298.293-2.642,37.2,4.295,71.646,0,106.091-6.936,23.422-4.956,49.6-2.643,75.09.328,62,7.6,122.624,13.875,185.314,8.591,53.734-4.626,104.713-3.635,157.057-1.979q9.447.178,18.872.181c44.008.033,88.056-2.482,132.407-2.377h252.182v-4.31H1721.861c-1.669,0-3.217.009-4.817.017-39.654.449-79.273,3.278-118.886,3.251-7.922,0-15.845-.124-23.768-.4a1136.417,1136.417,0,0,0-160.513,2.311c-68.89,5.617-132.957-2.312-201.158-10.24-20.667-2.312-41.334-4.293-59.935-.66-73.023,14.864-146.047,4.955-220.448.991-50.978-2.974-99.89,2.312-150.18,7.928-68.89,7.926-130.2-2.974-194.959-11.561-19.289-2.644-39.956-2.644-57.867,1.32-77.846,18.167-163.269,13.213-245.937,9.579-27.556-1.321-55.112-1.321-82.668-2.312-28.245-.99-56.49,0-84.656-.225h-144.3Z" fill="#fff"/>
      <path d="M-28.236,718.158H116.069c46.766-.451,92.922.54,139.768,1.531,10.333.33,20.667-.33,31,.33,82.668,3.3,168.781,9.249,247.315-8.588,20.667-4.625,45.468-3.964,68.2-.661,46.845,7.267,92.313,15.525,141.914,12.221,101.268-6.936,196.336-14.533,298.293-2.641,37.2,4.295,71.646,0,106.091-6.937,23.422-4.955,49.6-2.643,75.09.329,62,7.6,122.624,13.874,185.314,8.59,53.734-4.625,104.713-3.634,157.057-1.978q9.447.178,18.872.181c44.008.033,88.056-2.482,132.407-2.377h252.182v-4.311H1721.861c-1.669.006-3.217.01-4.817.017-39.654.45-79.273,3.278-118.886,3.252-7.922-.006-15.845-.125-23.768-.4a1136.268,1136.268,0,0,0-160.513,2.311c-68.89,5.617-132.957-2.312-201.158-10.24-20.667-2.313-41.334-4.294-59.935-.661-73.023,14.864-146.047,4.956-220.448.991-50.978-2.973-99.89,2.313-150.18,7.928-68.89,7.927-130.2-2.973-194.959-11.561-19.289-2.644-39.956-2.644-57.867,1.321-77.846,18.167-163.269,13.213-245.937,9.579-27.556-1.321-55.112-1.321-82.668-2.312-28.245-.99-56.49,0-84.656-.226h-144.3Z" fill="#fff"/>
    </g>
    <g>
      <path d="M434.234,777.527s207.091-1.311,231.507,14.28c11.42,7.292-72.346,3.622-67.824,16.738s130.222.009,120.275,10.727-88.3-6.366-149.665,7.344c-26.248,5.862-35.614,15.267-99.417,16.926-34.591.9-84.792,11.119-107.585,11.584-38.977.8-114.485-11.226-147.874-19.016-55.188-12.878-82.366-5.246-41.671-12.679,34.629-6.324-105.138-14.175-117.11-20.984C39.5,793.7,75.728,785.89,152.085,785.89S346.871,777.857,434.234,777.527Z" fill="#3d737c"/>
      <path d="M34.314,797.127c0,2.938-12.3,5.32-27.481,5.32s-27.48-2.382-27.48-5.32,12.3-5.32,27.48-5.32S34.314,794.19,34.314,797.127Z" fill="#3d737c"/>
      <path d="M710.964,791.252c0,2.49-7.192,4.51-16.064,4.51s-16.063-2.02-16.063-4.51,7.191-4.513,16.063-4.513S710.964,788.759,710.964,791.252Z" fill="#3d737c"/>
      <path d="M768.621,818.412c0,2.313-8.406,4.186-18.778,4.186s-18.776-1.873-18.776-4.186,8.407-4.182,18.776-4.182S768.621,816.1,768.621,818.412Z" fill="#3d737c"/>
    </g>
    <g>
      <path d="M1275.59,741.1s207.091-1.586,231.508,17.277c11.419,8.822-72.346,4.382-67.824,20.25s130.222.012,120.274,12.979-88.3-7.7-149.665,8.885c-26.248,7.093-35.614,18.472-99.416,20.479-34.592,1.087-84.792,13.452-107.586,14.015-38.977.966-114.485-13.582-147.874-23.007-55.187-15.581-82.365-6.347-41.67-15.34,34.629-7.651-105.138-17.15-117.11-25.388-15.374-10.577,20.858-20.032,97.214-20.032S1188.228,741.5,1275.59,741.1Z" fill="#3d737c"/>
      <path d="M875.671,764.811c0,3.555-12.3,6.437-27.481,6.437s-27.481-2.882-27.481-6.437,12.3-6.436,27.481-6.436S875.671,761.257,875.671,764.811Z" fill="#3d737c"/>
      <path d="M1552.321,757.7c0,3.013-7.193,5.456-16.065,5.456s-16.063-2.443-16.063-5.456,7.192-5.459,16.063-5.459S1552.321,754.687,1552.321,757.7Z" fill="#3d737c"/>
      <path d="M1609.977,790.564c0,2.8-8.406,5.064-18.777,5.064s-18.776-2.266-18.776-5.064,8.406-5.061,18.776-5.061S1609.977,787.769,1609.977,790.564Z" fill="#3d737c"/>
    </g>
    <g>
      <path d="M1294.649,848.285s102.24-.7,114.3,7.614c5.637,3.888-35.718,1.931-33.485,8.925s64.29,0,59.379,5.719-43.594-3.394-73.889,3.916c-12.959,3.126-17.583,8.141-49.082,9.025-17.078.48-41.862,5.929-53.115,6.177-19.243.425-56.521-5.986-73-10.139-27.246-6.867-40.664-2.8-20.573-6.761,17.1-3.372-51.906-7.558-57.817-11.189-7.59-4.661,10.3-8.828,48-8.828S1251.518,848.461,1294.649,848.285Z" fill="#3d737c"/>
      <path d="M1097.209,858.736c0,1.566-6.074,2.836-13.567,2.836s-13.568-1.27-13.568-2.836,6.075-2.837,13.568-2.837S1097.209,857.169,1097.209,858.736Z" fill="#3d737c"/>
      <path d="M1431.27,855.6c0,1.328-3.551,2.405-7.931,2.405s-7.93-1.077-7.93-2.405,3.55-2.406,7.93-2.406S1431.27,854.274,1431.27,855.6Z" fill="#3d737c"/>
      <path d="M1459.735,870.085c0,1.233-4.15,2.232-9.27,2.232s-9.27-1-9.27-2.232,4.15-2.23,9.27-2.23S1459.735,868.853,1459.735,870.085Z" fill="#3d737c"/>
    </g>
    <g>
      <path d="M1712.417,814.451s147.257-1.1,164.619,11.988c8.12,6.121-51.444,3.04-48.228,14.051s92.6.008,85.524,9-62.79-5.343-106.423,6.166c-18.664,4.921-25.324,12.817-70.693,14.21-24.6.754-60.293,9.334-76.5,9.724-27.715.67-81.407-9.424-105.149-15.964-39.242-10.811-58.568-4.4-29.631-10.644,24.624-5.309-74.76-11.9-83.274-17.616-10.931-7.339,14.832-13.9,69.127-13.9S1650.3,814.727,1712.417,814.451Z" fill="#3d737c"/>
      <path d="M1428.045,830.905c0,2.466-8.749,4.466-19.541,4.466s-19.541-2-19.541-4.466,8.749-4.466,19.541-4.466S1428.045,828.439,1428.045,830.905Z" fill="#3d737c"/>
      <path d="M1909.192,825.973c0,2.09-5.114,3.786-11.423,3.786s-11.421-1.7-11.421-3.786,5.113-3.789,11.421-3.789S1909.192,823.88,1909.192,825.973Z" fill="#3d737c"/>
    </g>
    <g>
      <g>
        <path d="M1094.475,800.893c-5.694-.726-13.461-3.623-11.908-13.758-26.926,11.587-52.814,14.484-81.81,9.413-20.194-3.618-46.6,15.927-67.83.722-11.908-8.683-25.888,5.07-39.351,2.9-1.553-.722-4.66,0-4.66-2.9-.518-3.619,1.554-9.407-.518-10.856-19.157-7.965-38.316,9.412-56.956,17.374-3.624,1.449-8.284-1.448-12.427-.724-4.659.724-8.284,6.516-12.426,7.964-12.427,4.344-23.818-5.068-36.245-8.688-6.213-2.173-12.426,0-18.625,1.089-1.544.033-3.084-.015-4.621-.131-12.294-.912-32.156-5.641-61.843-5.641H675.59v-8.679h10.376c19.483,0,49.438,6.591,62.146,7.444a46.972,46.972,0,0,0,5.465.066c12.107-4.282,22.981.782,33.336,7.3,10.873,7.24,17.605-12.308,26.407-10.137,24.336,6.516,46.6-9.41,69.383-17.372,1.554-.722,3.624,0,4.66,2.17,13.979,28.235,38.316,11.582,57.473,7.965,1.554,0,2.071,2.173,2.071,3.617-.517,5.8,1.554,11.588,6.214,10.862,27.96-3.623,54.368-15.928,84.4-7.242,16.57,4.347,35.728-18.82,50.743-7.96,21.747,15.2,46.083,8.687,68.346,5.789a42.586,42.586,0,0,1,16.57.726" fill="#8cb6ce"/>
        <g>
          <path d="M1053.053,784.241c-7.249-.724-13.98,6.514-21.229,5.79-3.107-.72-5.7-2.9-8.285-5.79-3.106-2.895-7.249-4.344-10.873-3.62-13.462.725-24.336,15.205-38.316,13.03-7.766-1.445-15.016-3.62-22.265-3.62-16.05-.72-29.772-11.582-45.823-12.3-12.427-.724-26.149,11.584-38.057,11.584-8.8-.724-20.971-10.5-30.808-7.6-22.265,7.237-35.994,15.827-60.839,10.5s-47.895-3.152-81.81-3.152H675.59v-16.86H687.5c23.808,0,76.891,2.74,89.576,6.312s22.783,1.391,30.549.671c51.779-5.8,103.557-18.1,156.371,0,13.98,5.064,27.442-2.174,40.9-7.238,18.64-5.794,27.961,9.165,46.6,2.65,3.107-.724,6.386-13.03,14.113-9.984,21.092,8.311,58.031,21.809,89.616,17.466" fill="#d6f7ef"/>
          <path d="M1053.053,779.177c-7.249-.728-13.98,6.514-21.229,5.788-3.107-.724-5.7-2.894-8.285-5.788-3.106-2.9-7.249-4.346-10.873-3.62-13.462.722-24.336,15.2-38.316,13.03-7.766-1.452-15.016-3.622-22.265-3.622-16.05-.724-29.772-11.583-45.823-12.3-12.427-.722-26.149,11.58-38.057,11.58-6.578-.539-15.036-6.132-23-7.717q-6.168.806-12.333,1.642c-19.7,6.842-33.2,13.927-56.318,8.969-24.846-5.325-47.895-3.152-81.81-3.152H675.59v7.24h19.158c33.915,0,56.964-2.177,81.81,3.155s38.574-3.259,60.839-10.5c9.837-2.9,22.006,6.873,30.808,7.6,11.908,0,25.63-12.3,38.057-11.583,16.051.724,29.773,11.583,45.823,12.309,7.249,0,14.5,2.172,22.265,3.62C988.33,798,999.2,783.517,1012.666,782.8c3.624-.724,7.767.722,10.873,3.619,2.589,2.9,5.178,5.066,8.285,5.792,7.249.724,13.98-6.515,21.229-5.792" fill="#e7ffff"/>
        </g>
      </g>
      <path d="M796.751,767.1c0,1.392-1.8,2.532-4.013,2.532s-4.013-1.14-4.013-2.532,1.8-2.539,4.013-2.539S796.751,765.7,796.751,767.1Z" fill="#f7fbf7"/>
      <path d="M697.035,760.22c0,1.4-1.8,2.533-4.013,2.533s-4.012-1.133-4.012-2.533,1.8-2.531,4.012-2.531S697.035,758.82,697.035,760.22Z" fill="#f7fbf7"/>
      <path d="M975.256,769.634c0,1.4-1.8,2.532-4.012,2.532s-4.013-1.135-4.013-2.532,1.8-2.532,4.013-2.532S975.256,768.233,975.256,769.634Z" fill="#f7fbf7"/>
      <path d="M1148.152,771.17c0,1.4-3.1,2.535-6.925,2.535s-6.925-1.138-6.925-2.535,3.1-2.535,6.925-2.535S1148.152,769.772,1148.152,771.17Z" fill="#f7fbf7"/>
      <path d="M803.02,764.563c0,.8-1.027,1.451-2.293,1.451s-2.293-.651-2.293-1.451,1.027-1.445,2.293-1.445S803.02,763.764,803.02,764.563Z" fill="#f7fbf7"/>
      <path d="M858.588,758.772c0,.8-1.026,1.448-2.292,1.448S854,759.571,854,758.772s1.026-1.448,2.293-1.448S858.588,757.974,858.588,758.772Z" fill="#f7fbf7"/>
    </g>
    <g>
      <g>
        <polygon points="401.497 730.472 414.92 697.082 447.699 661.307 450.968 568.292 625.126 246.317 550.667 246.317 146.589 819.471 231.672 819.471 290.166 819.471 350.967 754.321 401.497 730.472" fill="#e6e7e8"/>
        <polygon points="658.908 718.264 622.976 675.726 622.449 675.102 642.709 513.831 569.232 714.997 507.292 740.011 454.939 819.471 697.574 819.471 658.908 718.264" fill="#6d6e70"/>
        <polygon points="569.232 714.997 642.709 513.831 648.81 465.256 625.129 403.728 625.129 246.317 625.126 246.317 450.968 568.292 447.699 661.307 414.92 697.082 401.497 730.472 350.967 754.321 290.166 819.471 437.414 819.471 454.939 819.471 507.292 740.011 569.232 714.997" fill="#929497"/>
      </g>
      <polygon points="422.081 606.452 422.081 643.419 400.173 660.114 373.77 698.274 385.857 641.034 422.081 606.452" fill="#929497"/>
      <polygon points="469.488 613.905 469.488 575.149 489.819 534.981 489.819 577.236 469.488 613.905" fill="#e6e7e8"/>
      <path d="M520.572,707.814c1.585,0,34.325-8.347,35.381-13.117s26.4-54.259,26.4-54.259-35.381,17.291-36.965,22.061S520.572,707.814,520.572,707.814Z" fill="#6d6e70"/>
    </g>
    <g>
      <g>
        <polygon points="1580.524 647.868 1542.816 585.812 1494.069 641.823 1426.366 641.823 1348.086 795.513 1621.1 795.513 1580.524 647.868" fill="#6d6e70"/>
        <path d="M1426.366,271.261l69.793-135.687-42.181.048-40.369,51.938-75.619,27.5-295.1,580.451h89.288c30.52-64.157,67.413-130.043,114.745-228,4.621-9.562,51.767-35.59,56.253-44.871,6.58-13.612,6.45-80.886,12.6-93.606,37.433-77.381,45.494-108.562,45.494-108.562Z" fill="#e6e7e8"/>
        <path d="M1494.069,641.823l48.747-56.011-.552-.911,10.593-142.58-15.622-39.616,32.691-123.936-10.382-110.281-63.385-32.914-69.793,135.687-65.091,49.217s-16.893,34.836-41.973,86.648c-12.195,25.187-14.893,84.119-29.958,115.277-11.42,23.622-34.81,18.637-46.87,43.616-41.465,85.883-84.134,174.5-110.295,229.494h215.907l78.28-153.69Z" fill="#929497"/>
      </g>
      <polygon points="1484.594 582.338 1464.559 614.32 1491.302 614.32 1518.727 580.771 1484.594 582.338" fill="#6d6e70"/>
      <path d="M1295.361,438.026s-8.405,56.6-17.082,70.22-38.5,35.746-34.161,20.853S1292.623,409.239,1295.361,438.026Z" fill="#929497"/>
      <path d="M1392.629,271.984s17.522-3.617,28.127-18.818,24.9-37.633,16.138-33.291S1395.4,251.722,1392.629,271.984Z" fill="#929497"/>
      <path d="M1411.534,709.856s22.593-47.77,23.976-47.77h17.983S1435.51,708.752,1411.534,709.856Z" fill="#929497"/>
    </g>
    <path d="M992,800.811c.148-4.725,46.523-20.393,91.918-16.4,42.32,3.723,40.527,10.056,70.742,12.051,59.136,3.9,73.2-19.881,140.47-21.646,39.1-1.026,212.812,17.66,217.9,18.853,132.443,31.053-231.8,10.861-292.2,13.779-55.821,2.7-96.839.71-126.858-1.869C1053.436,802.1,991.827,806.281,992,800.811Z" fill="#3d737c"/>
    <path d="M100.043,824.482c-.933-3.766,56.633-20.539,97.055-18.01,37.686,2.358,36.146,7.579,63.046,8.718,25.606,1.084,80.738-22.452,124.788-20.053,38.069,2.072,33.118,21.7,71.33,21.435,25.924-.183,43.156-9.324,76.987-3.888,10.572,1.7,29.17,5.85,28.9,8.87-.834,9.36-198.666-1.239-243.042,1.557-49.641,3.127-86.2-1.677-112.884.551C174.666,826.3,101.59,830.728,100.043,824.482Z" fill="#3d737c"/>
    <path d="M259.362,822.31c-.933-3.766,56.633-20.539,97.056-18.01,37.685,2.358,36.145,7.579,63.046,8.718,25.605,1.084,80.737-22.452,124.787-20.053,38.069,2.072,33.118,21.7,71.33,21.435,25.924-.183,43.157-9.324,76.987-3.888,10.572,1.7,29.17,5.85,28.9,8.87-.834,9.36-198.666-1.239-243.042,1.557-49.64,3.127-86.2-1.677-112.884.551C333.985,824.124,260.909,828.556,259.362,822.31Z" fill="#3d737c"/>
    <g>
      <g>
        <polygon points="1849.979 741.741 1825.31 701.145 1793.419 737.787 1749.127 737.787 1697.917 838.332 1876.523 838.332 1849.979 741.741" fill="#6d6e70"/>
        <path d="M1749.127,495.364l45.659-88.768-27.594.032-26.41,33.979-49.47,17.991L1498.257,838.332h58.413c19.965-41.972,44.1-85.075,75.067-149.156,3.021-6.256,33.864-23.284,36.8-29.356,4.305-8.905,4.218-52.915,8.245-61.236,24.489-50.624,29.762-71.024,29.762-71.024Z" fill="#e6e7e8"/>
        <path d="M1793.419,737.787l31.891-36.642-.361-.6,6.93-93.276-10.221-25.917,21.388-81.079-6.793-72.146L1794.786,406.6l-45.659,88.768-42.582,32.2s-11.052,22.792-27.459,56.687c-7.978,16.478-9.743,55.031-19.6,75.415-7.471,15.453-22.772,12.193-30.662,28.534-27.126,56.185-55.04,114.159-72.155,150.136h141.247l51.21-100.545Z" fill="#929497"/>
      </g>
      <polygon points="1787.221 698.871 1774.113 719.794 1791.61 719.794 1809.55 697.846 1787.221 698.871" fill="#6d6e70"/>
      <path d="M1663.424,604.461s-5.5,37.03-11.174,45.939-25.188,23.385-22.349,13.642S1661.632,585.63,1663.424,604.461Z" fill="#929497"/>
      <path d="M1727.057,495.837s11.462-2.367,18.4-12.311,16.289-24.621,10.558-21.779S1728.868,482.581,1727.057,495.837Z" fill="#929497"/>
      <path d="M1739.424,782.294s14.782-31.251,15.687-31.251h11.763S1755.111,781.572,1739.424,782.294Z" fill="#929497"/>
    </g>
    <g>
      <g>
        <polygon points="1369.695 807.439 1355.564 784.184 1337.297 805.174 1311.925 805.174 1282.591 862.768 1384.9 862.768 1369.695 807.439" fill="#6d6e70"/>
        <path d="M1311.925,666.308l26.155-50.847-15.807.017-15.128,19.464-28.338,10.306-110.586,217.52h33.461c11.436-24.042,25.262-48.733,43-85.44,1.73-3.583,19.4-13.337,21.08-16.815,2.466-5.1,2.416-30.311,4.723-35.078,14.028-29,17.048-40.684,17.048-40.684Z" fill="#e6e7e8"/>
        <path d="M1337.3,805.174l18.267-20.99-.207-.342,3.97-53.43-5.854-14.846,12.251-46.444-3.891-41.327-23.753-12.334-26.155,50.847-24.392,18.443s-6.331,13.056-15.729,32.472c-4.57,9.439-5.581,31.523-11.226,43.2-4.28,8.852-13.045,6.984-17.565,16.345-15.538,32.184-31.528,65.392-41.331,86h80.909l29.334-57.594Z" fill="#929497"/>
      </g>
      <polygon points="1333.746 782.882 1326.238 794.867 1336.26 794.867 1346.537 782.295 1333.746 782.882" fill="#6d6e70"/>
      <path d="M1262.832,728.8s-3.149,21.211-6.4,26.315-14.428,13.395-12.8,7.814S1261.806,718.015,1262.832,728.8Z" fill="#929497"/>
      <path d="M1299.283,666.58a18.758,18.758,0,0,0,10.54-7.052c3.974-5.7,9.331-14.1,6.048-12.476S1300.32,658.986,1299.283,666.58Z" fill="#929497"/>
      <path d="M1306.367,830.668s8.467-17.9,8.986-17.9h6.738S1315.353,830.255,1306.367,830.668Z" fill="#929497"/>
    </g>
    <path d="M1482.712,833.8c.143-3.568,39.53-6.468,78.422-3.764,36.258,2.521,34.7,7.313,60.59,8.612,50.669,2.541,62.8-15.507,120.457-17.3,33.513-1.042,138.227,16.667,142.581,17.532,113.409,22.533-154.594,4.992-206.368,7.608-47.849,2.417-83,1.2-108.716-.543C1534.955,843.591,1482.548,837.927,1482.712,833.8Z" fill="#3d737c"/>
    <path d="M1164.1,859.958c23.618-8.121,39.018-6.1,48.95-2.4,4.4,1.643,8.809,4.02,15.993,4.794,13.745,1.48,17.874-6.013,31.018-7.671,15.764-1.988,19.288,7.132,36.834,7.671,14.865.457,19.428-6.2,33.441-9.588,11.96-2.89,30.126-3.482,55.735,8.629l-6.785,4.794H1171.851Z" fill="#3d737c"/>
    <g>
      <path d="M259.99,839.708s113.969-.626,127.406,6.81c6.285,3.478-39.814,1.728-37.326,7.984s71.665,0,66.191,5.116-48.6-3.036-82.365,3.5c-14.445,2.8-19.6,7.282-54.712,8.073-19.037.429-46.664,5.3-59.208,5.525-21.45.381-63-5.354-81.38-9.07-30.371-6.142-45.328-2.5-22.932-6.047,19.057-3.016-57.861-6.761-64.449-10.009-8.461-4.17,11.478-7.9,53.5-7.9S211.912,839.865,259.99,839.708Z" fill="#3d737c"/>
      <path d="M39.9,849.056c0,1.4-6.771,2.537-15.124,2.537s-15.123-1.136-15.123-2.537,6.771-2.538,15.123-2.538S39.9,847.655,39.9,849.056Z" fill="#3d737c"/>
      <path d="M412.283,846.254c0,1.188-3.958,2.151-8.84,2.151s-8.84-.963-8.84-2.151,3.958-2.153,8.84-2.153S412.283,845.065,412.283,846.254Z" fill="#3d737c"/>
      <path d="M444.014,859.208c0,1.1-4.626,2-10.334,2s-10.333-.893-10.333-2,4.626-2,10.333-2S444.014,858.106,444.014,859.208Z" fill="#3d737c"/>
    </g>
    <g>
      <g>
        <polygon points="306.368 806.48 292.237 783.225 273.969 804.215 248.598 804.215 219.264 861.809 321.573 861.809 306.368 806.48" fill="#6d6e70"/>
        <path d="M248.6,665.35,274.752,614.5l-15.806.018-15.128,19.464-28.338,10.3L104.894,861.809h33.46c11.436-24.042,25.263-48.733,43-85.439,1.731-3.584,19.4-13.338,21.081-16.816,2.465-5.1,2.416-30.311,4.723-35.078,14.027-29,17.048-40.683,17.048-40.683Z" fill="#e6e7e8"/>
        <path d="M273.969,804.215l18.268-20.99-.207-.342,3.97-53.43-5.855-14.846L302.4,668.164l-3.892-41.328L274.752,614.5,248.6,665.35l-24.392,18.443s-6.331,13.055-15.729,32.471c-4.57,9.439-5.581,31.523-11.227,43.2-4.28,8.852-13.044,6.985-17.564,16.345-15.538,32.184-31.528,65.393-41.332,86h80.91L248.6,804.215Z" fill="#929497"/>
      </g>
      <polygon points="270.419 781.923 262.91 793.908 272.933 793.908 283.209 781.336 270.419 781.923" fill="#6d6e70"/>
      <path d="M199.505,727.843s-3.149,21.211-6.4,26.315-14.428,13.395-12.8,7.814S198.479,717.056,199.505,727.843Z" fill="#929497"/>
      <path d="M235.955,665.621a18.762,18.762,0,0,0,10.541-7.052c3.974-5.7,9.331-14.1,6.048-12.476S236.993,658.028,235.955,665.621Z" fill="#929497"/>
      <path d="M243.04,829.709s8.467-17.9,8.985-17.9h6.739S252.025,829.3,243.04,829.709Z" fill="#929497"/>
    </g>
    <path d="M87.442,855.643c31.428-8.032,51.24-5.058,63.772-.479,4.186,1.529,10.035,3.988,18.857,4.794,16.205,1.48,21.073-6.013,36.571-7.671,18.586-1.988,22.741,7.132,43.428,7.671,17.527.457,22.907-6.2,39.428-9.588,14.1-2.89,35.521-3.482,65.714,8.629l-33.683,5.034c-80.532-.16-135.381-.56-215.913-.719a40.646,40.646,0,0,1-18.174-7.671Z" fill="#3d737c"/>
  </g>
  <g>
    <rect x="-44.067" y="895.585" width="2020.509" height="205.253" fill="#a87c4f"/>
    <path d="M1994.713,1006.127c-30.777-2.143-48.634-6.569-79.479-8.9-22.278-1.685-51.981-4.176-95.133,5.11-102.9,22.144-113.809-6.051-222.942,1.331s-182.407,7.381-229.178-7.382-166.816,9.842-260.358,2.461-140.314,3.69-235.415-3.691-165.257,0-229.178-2.46-218.265,17.223-265.036,1.23-93.542,8.611-183.966-1.23-208.91,7.381-213.587,8.611l-57.685,4.921c201.116,13.533,208.911,15.993,313.366,9.842s43.653-7.381,221.383-2.461,204.234,7.382,297.776,4.921,59.243,19.684,171.494,8.612,166.816-11.072,260.358-12.3,160.061,20.47,242.69,11.859,171.494,9.2,199.556-6.793,141.872,7.5,191.762,8.734,70.688-11.471,104.987-12.7Z" fill="#9b6f48"/>
    <path d="M-53.5,918.825c30.778-1.014,35.25-1.72,66.1-2.824,22.278-.8,65.365-3.367,108.517,1.029,102.9,10.485,113.809-2.864,222.942.63s182.407,3.5,229.178-3.494,166.817,4.659,260.359,1.164,140.313,1.748,235.414-1.747,165.257,0,229.178-1.165,218.265,8.155,265.036.583,93.542,4.077,183.966-.583,158.945,2.918,163.623,3.5l107.649,2.906c-43.839,1.4-79.178,5-107.649,5.91-102.144,3.267-124.031,1.028-205.717-1.25-104.456-2.912-43.653-3.5-221.383-1.165s-204.234,3.5-297.776,2.33-59.243,9.32-171.493,4.077-166.817-5.242-260.359-5.824-160.061,9.692-242.69,5.615S339.9,932.874,311.835,925.3s-141.872,3.553-191.761,4.136-72.839-4.119-107.138-4.7Z" fill="#9b6f48"/>
    <path d="M74.5,998.687c8.835-2.174,51.06-2.471,78.779-1.236s42.306,2.471,42.306,8.649-39.389,8.649-61.271,3.707C98.927,1010.585,65.668,1000.86,74.5,998.687Z" fill="#936644"/>
    <path d="M115.643,1001.986s27.85-.216,42.937.536,23.021,1.345,22.947,3.429-21.565,2.441-33.428.51S116.245,1007.422,115.643,1001.986Z" fill="#8c5f41"/>
    <path d="M728.759,998.268c16.375-1.14,61.164-1.14,77.539,0s52.976,6.081,66.943,6.461,52.013-.76,66.462-1.14,65.016-4.941,70.314,1.14-40.936,11.781-53.458,12.161-52.977,6.46-66.944,6.46-40.454-.38-49.605-3.04-50.569-9.881-63.09-9.5-61.164,6.081-83.318,2.66-46.716-3.8-56.348-8.74S712.384,999.408,728.759,998.268Z" fill="#936644"/>
    <path d="M901.663,1010.311c-1.168.059-32.861-1.242-36.173,2.207s8.966,6.468,23.712,4.988,33.123-.959,37.991-4.487S901.663,1010.311,901.663,1010.311Z" fill="#8c5f41"/>
    <path d="M1449.051,1032.421s47.551,21.835,90.424,13.1,117.707-9.462,135.636-9.462,77.952,8.006,120.825,15.285,63.128,12.82,122.7,11.188l4.426,22.857s-88.723,10.245-105.873,5.878-21.411-9.145-43.234-16c-30.449-9.566-69.224-12.277-95.728-18.827s-79.511.727-112.25,8.734-67.818-4.367-142.652-13.829-109.132,12.373-174.612,18.924-167.6-5.823-206.572-9.462-67.038,5.822-129.4,5.822-116.148-.727-143.431,2.912-88.085-3.639-156.683,0-97.44-10.918-134.077-13.829-107.573,7.278-173.832,2.183-74.373-5.6-153.565,2.912c-101.112,10.869-139.24-28.316-139.24-28.316,65.479-3.639,89.351-3.507,128.327,7.41s42.252,16.684,113.809,4.893c26.5-4.367,72.5-4.367,123.164-.728s111.355,3.981,122.384,2.386c36.637-5.3,58.464-14.031,83.408-7.481s63.921,16.741,97.44,16.013,184.746-18.722,265.036-12.171,140.313,13.829,196.438,8.006,70.157-3.639,83.409-10.918,56.9-7.278,56.9-7.278Z" fill="#9b6f48"/>
    <path d="M482.382,958.123s-47.551,15.426-90.424,9.256-117.707-6.685-135.636-6.685-77.952,5.656-120.825,10.8-95.881-4.627-153.565-7.2l6.236,18S45.852,982.8,63,979.719s58.464,2.057,90.424,3.6,73.274-3.6,99.778-8.227,79.511.515,112.25,6.171,67.818-3.085,142.652-9.77,109.132,8.741,174.612,13.369,167.6-4.114,206.572-6.684,67.038,4.113,129.4,4.113,116.148-.514,143.431,2.057,88.085-2.571,156.683,0,97.439-7.713,134.077-9.77,107.573,5.142,173.832,1.543,74.054-1.543,153.565,2.057,142.445,2.4,142.445,2.4V965.226c-65.479-2.571-92.556-9.531-131.532-1.818s-42.252,11.786-113.809,3.457c-26.5-3.086-72.5-3.086-123.164-.515s-111.355,2.812-122.384,1.686c-36.637-3.742-58.464-9.913-83.409-5.285s-63.92,11.826-97.439,11.312-184.746-13.226-265.036-8.6-140.313,9.769-196.438,5.656-70.157-2.571-83.409-7.713-56.9-5.142-56.9-5.142Z" fill="#9b6f48"/>
    <path d="M107.461,1041.355c-32.677-2.4-56.83-3.606-60.382-.6s18.47,10.217,39.071,12.02,52.567,4.808,53.988.6S107.461,1041.355,107.461,1041.355Z" fill="#936644"/>
    <path d="M597.175,1051.319c-1.922-.656-14.095-10.5-33.316-8.534s-40.365,5.908-37.8,9.191,22.425,9.847,35.879,11.16,36.521.657,37.162-4.6S597.175,1051.319,597.175,1051.319Z" fill="#936644"/>
    <path d="M746.706,1056.44s98.219-8.007,117.707-8.007,71.716-2.183,84.968.728,27.283,0,27.283,2.912-24.945,9.462-35.079,9.462-90.424-4.368-99.778-2.912-64.7,5.1-77.952,5.1-26.5,0-26.5-2.183S746.706,1056.44,746.706,1056.44Z" fill="#936644"/>
    <path d="M409.955,1069.541c20.267-5.823,42.094-8.734,58.463-6.551s53.787,11.646,53.787,11.646-50.668,7.278-53.007,7.278-70.157-.728-70.157-.728Z" fill="#a87c4f"/>
    <path d="M14.3,938.776c3.83,0,59.808-7.347,105-2.939s108-3.673,133.277-2.938,82.723,10.286,110.3,6.612,79.66-11.755,109.532-6.612,59.745,10.286,78.128,9.551,71.234-11.021,91.915-11.021,60.511-1.469,80.425-.734,75.064,10.285,106.469,6.612,93.446,3.673,93.446,3.673-25.276,8.817-71.234,9.552-98.808-6.613-121.021-7.347-20.681,7.347-61.277,8.816-49.787-3.674-85.021-2.939-43.659,0-68.936,1.47-61.532,2.693-96.766.489c0,0-55.66-3.428-130.723-3.428s-69.7,8.081-101.873,5.877-74.3-2.2-98.042-5.877-49.851,4.9-73.6,1.959S14.3,938.776,14.3,938.776Z" fill="#9b6f48"/>
    <path d="M659.234,900.77c3.83,0,59.809-4.518,105-1.807s108-2.259,133.277-1.807,82.723,6.325,110.3,4.066,79.659-7.229,109.532-4.066,59.744,6.325,78.127,5.874,71.234-6.778,91.915-6.778,60.511-.9,80.426-.452,75.063,6.326,106.468,4.067,93.447,2.259,93.447,2.259-25.277,5.422-71.235,5.874-98.808-4.067-121.021-4.519-20.681,4.519-61.276,5.422-49.788-2.259-85.022-1.807-43.659,0-68.936.9-61.532,1.656-96.766.3c0,0-55.659-2.109-130.723-2.109s-69.7,4.971-101.873,3.615-74.3-1.355-98.042-3.615-49.851,3.013-73.6,1.205S659.234,900.77,659.234,900.77Z" fill="#9b6f48"/>
    <path d="M1193.87,1052.4s44.631-2.32,59.611-10.915,63.646-8.717,72.418-8.876,45.428-2.334,45.491.692-7.834,6.953-25.3,11.052-58.829,10.144-69.149,12.6-46.851,10.684-60.44,9.416-55.124-3.545-61.519-4.186-5.677-4.439-1.721-6.024S1193.87,1052.4,1193.87,1052.4Z" fill="#936644"/>
    <path d="M1688.363,1042.61s34.3,2.912,52.227,6.551,45.212,5.1,45.212,8.006-20.267,9.462-33.519,6.551-54.566-10.19-60.8-12.373-28.063-2.912-28.063-6.551S1688.363,1042.61,1688.363,1042.61Z" fill="#936644"/>
    <path d="M295.341,1031.63c1.17-.239,61.972-13.615,94.712-10.749s72.885,12.182,72.885,12.182Z" fill="#9b6f48"/>
    <path d="M1298.6,1033.148s-21.047,7.279-28.842,10.918.78,5.1,4.677,6.551,41.315-5.823,53.007-10.19,15.591-8.006,15.591-8.006Z" fill="#8c5f41"/>
    <path d="M140.618,1091.1c1.169-.363,61.972-20.743,94.711-16.376s72.885,18.56,72.885,18.56Z" fill="#9b6f48"/>
    <path d="M20.107,910.317c1.17-.209,61.972-11.9,94.712-9.393S187.7,911.569,187.7,911.569Z" fill="#9b6f48"/>
    <path d="M343.835,1096.6c1.871-.539,99.19-30.711,151.592-24.246s116.658,27.479,116.658,27.479Z" fill="#9b6f48"/>
    <path d="M908.345,1103.95c1.872-.539,99.191-30.711,151.593-24.246s116.658,27.479,116.658,27.479Z" fill="#9b6f48"/>
    <path d="M1256.856,1099.542c1.872-.539,99.19-30.711,151.593-24.246s116.657,27.478,116.657,27.478Z" fill="#9b6f48"/>
    <path d="M610.723,942.368s36.426-6.2,60.256-6.531,44.595-1.959,48-.326-13.617,6.531-37.788,9.469-35.744,5.225-43.574,1.633S617.872,948.246,610.723,942.368Z" fill="#936644"/>
    <path d="M206.3,940.409c20.085-1.633,32.34-3.592,43.234-2.612s24.851,2.939,26.894,5.224-24.852-.326-35.064,1.633-37.788,6.2-57.532,5.224-68.426-2.938-70.128-4.9S186.213,942.042,206.3,940.409Z" fill="#936644"/>
    <path d="M988.426,931.919s-53.107,2.449-48,11.266,28.085,9.8,77.106,5.387,66.894-16.653,66.894-16.653Z" fill="#9b6f48"/>
    <path d="M996.009,931.593s-42.274,1.949-38.209,8.967,22.356,7.8,61.378,4.289,53.25-13.256,53.25-13.256Z" fill="#936644"/>
    <path d="M1010.878,932.246s-20.311.936-18.358,4.308,10.741,3.747,29.49,2.061,25.583-6.369,25.583-6.369Z" fill="#8c5f41"/>
    <path d="M577.176,911.347s57.432-1.935,51.91-8.9-30.373-7.742-83.388-4.258-72.342,13.161-72.342,13.161Z" fill="#9b6f48"/>
    <path d="M561.772,910.367s42.274-.978,38.209-4.5-22.357-3.91-61.379-2.151-53.249,6.647-53.249,6.647Z" fill="#936644"/>
    <path d="M1119.149,936.733s-31.66-2.224-31.66,2.594,34.213,7.784,52.085,8.525,63.83,1.853,83.745-2.224,52.085-11.49,68.936-9.637,28.6,2.224,56.681,4.078,51.064,4.818,67.4.741,22.469-8.9,22.469-8.9-258.383.371-268.086,0S1142.128,938.215,1119.149,936.733Z" fill="#9b6f48"/>
    <path d="M1567.489,900.071s-31.659-1.873-31.659,2.185,34.213,6.555,52.085,7.179,63.83,1.56,83.745-1.873,52.085-9.676,68.936-8.116,28.6,1.873,56.681,3.434,51.063,4.058,67.4.624,22.468-7.491,22.468-7.491-258.383.312-268.085,0S1590.468,901.319,1567.489,900.071Z" fill="#9b6f48"/>
    <path d="M1250.383,956.409s8.17-14.2,49.532-9.306,46.468,9.8,46.468,9.8Z" fill="#9b6f48"/>
    <rect x="-15.66" y="1062.533" width="35.404" height="23.184" fill="#9b6f48"/>
    <rect x="-18.043" y="997.226" width="35.404" height="18.612" fill="#9b6f48"/>
    <rect x="-19.064" y="965.226" width="35.404" height="15.674" fill="#9b6f48"/>
    <rect x="-21.106" y="938.776" width="35.404" height="10.776" fill="#9b6f48"/>
    <rect x="-22.468" y="915.919" width="35.404" height="8.816" fill="#9b6f48"/>
    <rect x="1917.617" y="1062.533" width="35.404" height="23.184" fill="#9b6f48"/>
    <rect x="1915.234" y="997.226" width="35.404" height="18.612" fill="#9b6f48"/>
    <rect x="1914.213" y="965.226" width="35.404" height="15.674" fill="#9b6f48"/>
    <rect x="1910.809" y="915.919" width="35.404" height="8.816" fill="#9b6f48"/>
    <path d="M98.043,1094.206s-40.852-29.388-78.3-31.673-3.405,21.551-3.405,21.551l3.405,1.632S78.638,1099.1,98.043,1094.206Z" fill="#9b6f48"/>
    <path d="M1834.55,955.889c8.357-5.659,9.714-8.638,9.14-10.328-2.432-7.159-40.659,5.517-92.918,3.851-37.744-1.2-41.211-8.561-84.816-9.9-28.374-.872-28.2,2.2-64.325,3.231-71.08,2.021-91.6-9.323-140.94-.339a256.92,256.92,0,0,0-47.423,13.44" fill="#9b6f48"/>
    <path d="M1448.511,956.115s14.808-10.97,50.553-7.836,59.234,4.31,82.723,2.743,58.213-5.094,76.6-3.526,43.4,9.4,43.4,9.4Z" fill="#936644"/>
    <path d="M1837.106,943.674s54.673-3.353,68.426-4.408c4.255-.326,16.681-.326,16.681-.326l1.532,10.449-11.575.163s-35.744,8.327-58.213,7.347-33.7,0-33.7,0Z" fill="#9b6f48"/>
    <path d="M1339.234,996.9c-21.26-2.649-22.27,2.107-55.83,1.633-12.392-.175-19.916-.932-20.766,1.633-.993,3,7.657,9,16,12.081,9.105,3.366,14.6,2.061,27.575,2.612,2,.085,11.886,1.472,31.659,4.246,19.716,2.765,26.451,3.811,36.766,2.939,5.057-.428,18.2-1.539,18.724-5.225.553-3.885-13.18-8.723-21.788-11.755S1353.421,998.667,1339.234,996.9Z" fill="#936644"/>
    <path d="M1337.872,1002.124c-4.313-.352-9.921-.621-34.723.653-10.117.52-12.546.737-12.6,1.306-.107,1.234,11.141,2.256,29.277,5.878,24.811,4.955,36.349,9.551,39.83,4.9,1.374-1.837.967-4.412.34-5.877C1359.429,1007.646,1357.164,1003.7,1337.872,1002.124Z" fill="#8c5f41"/>
    <path d="M1877.792,1002.452c-26.771-.088-67.216,4.166-67.409,11.322-.108,3.989,12.335,7.332,17.4,8.343,7.573,1.513,14.538.985,30.753-2.979,0,0,13.831-2.619,34.17-10.131,3.682-1.36,6.987-2.674,6.834-3.874C1899.2,1002.522,1882.735,1002.468,1877.792,1002.452Z" fill="#936644"/>
    <path d="M1847.83,1008c-6.416.52-20.436,1.656-20.766,4.9-.205,2.009,4.837,4.9,9.872,5.552,8.091,1.047,11.38-4.31,25.873-7.837,5.447-1.326,8.536-1.434,8.51-1.959C1871.268,1007.622,1859.284,1007.073,1847.83,1008Z" fill="#8c5f41"/>
    <path d="M230.128,896.164s-31.66.489-34.213,1.469-7.66,5.388,20.425,8.327,60.766,4.408,60.766,4.408,38.3-1.058,61.276-5.917,26.552-2,35.744,0,43.917,5.956,61.278,2.978,51.575-11.265,51.575-11.265Z" fill="#9b6f48"/>
    <path d="M1794.632,910.956c-26.3.874-29.22,1.848-29.283,2.668-.067.87,3.068,1.763,6.258,2.545,27.037,6.631,56.359,4.866,62.655,4.45,17.155-1.132,22.674-.869,22.865-2.16.3-2.038-12.7-4.978-14.545-5.394C1832.057,910.686,1822.351,910.035,1794.632,910.956Z" fill="#936644"/>
    <line x1="4.996" y1="910.749" x2="1986.528" y2="910.749" fill="none" stroke="#8c5f41" stroke-miterlimit="10" stroke-width="2"/>
    <line x1="3.826" y1="931.492" x2="1985.359" y2="931.492" fill="none" stroke="#8c5f41" stroke-miterlimit="10" stroke-width="2"/>
    <line x1="3.826" y1="956.603" x2="1985.359" y2="956.603" fill="none" stroke="#8c5f41" stroke-miterlimit="10" stroke-width="2"/>
    <line x1="3.826" y1="988.265" x2="1985.359" y2="988.265" fill="none" stroke="#8c5f41" stroke-miterlimit="10" stroke-width="2"/>
    <line x1="3.826" y1="1032.421" x2="1985.359" y2="1032.421" fill="none" stroke="#8c5f41" stroke-miterlimit="10" stroke-width="2"/>
  </g>
  <path d="M1954.314,797.127c0,2.938-12.3,5.32-27.48,5.32s-27.481-2.382-27.481-5.32,12.3-5.32,27.481-5.32S1954.314,794.19,1954.314,797.127Z" fill="#3d737c"/>
</svg>
