<svg xmlns="http://www.w3.org/2000/svg" xmlns:xlink="http://www.w3.org/1999/xlink" width="1920" height="1080" viewBox="0 0 1920 1080">
  <defs>
    <linearGradient id="a" x1="963.451" y1="1091.382" x2="963.451" y2="-11.489" gradientUnits="userSpaceOnUse">
      <stop offset="0.491" stop-color="#fff"/>
      <stop offset="0.657" stop-color="#fcfefe"/>
      <stop offset="0.765" stop-color="#f4fbfa"/>
      <stop offset="0.856" stop-color="#e5f5f2"/>
      <stop offset="0.937" stop-color="#d0ede8"/>
      <stop offset="1" stop-color="#bae5de"/>
    </linearGradient>
    <linearGradient id="b" data-name="Unbenannter Verlauf 122" x1="963.451" y1="1091.382" x2="963.451" y2="960.396" gradientUnits="userSpaceOnUse">
      <stop offset="0" stop-color="#208fb7"/>
      <stop offset="1" stop-color="#29baaf"/>
    </linearGradient>
  </defs>
  <g>
    <rect x="-5.353" y="-11.489" width="1937.609" height="1102.871" fill="url(#a)"/>
    <g>
      <path d="M1932.255,101.418H1759.229c-24.289.718-49.833-2.872-74.432-2.872-28.383,0-55.82,7.18-84.2,2.154-77.58-13.642-173.136-51.7-237.47,7.9-16.084,15.8-49.2,8.616-75.688,5.744-58.658-6.462-118.262-39.491-174.082-17.232-3.784,1.436,1.892,12.924-4.731,16.514-42.574,26.567-95.555,9.334-144.752,2.872C909,109.316,858.854,91.366,803.034,97.11c-23.653,2.154-45.413,6.462-69.065,4.308-33.9-2.991-65.176-14.959-98.2-18.033a156.5,156.5,0,0,0-20.078-.636c-58.641,3.59-112.568,16.515-170.28,27.285-66.227,12.924-126.777,2.872-193-7.9-12.3-1.436-23.653-.718-35.984-.718H-5.353V76.081H216.272C260.92,74.851,301.6,89.93,345.122,92.8c21.761.718,42.575-6.463,65.281-10.053,11.353-1.436,22.707-1.436,34.06-3.59,52.981-9.334,104.071-10.052,156.7-12.959,6.734-.444,13.174-.543,19.533-.351,31.668.965,62.022,9.242,94.347,14.028,10.407.718,18.922,2.872,29.329,1.436,64.334-10.052,122.993-5.744,182.6,12.207,34.059,10.77,85.149,23.694,117.316,7.18-7.569-7.18-23.653-17.951-17.03-20.105,77.58-33.028,168.4-4.308,252.608,10.771,17.976,3.59,38.79,8.616,53.928-.718,70.957-46.671,161.782-19.387,242.2-12.925,53.927,5.026,105.963-6.462,159.719-1.642h196.54Z" fill="#fff"/>
      <path d="M1932.255,108.045H1759.229c-24.289.345-49.833-1.378-74.432-1.378-28.383,0-55.82,3.447-84.2,1.034-77.58-6.55-173.136-24.818-237.47,3.792-16.084,7.583-49.2,4.136-75.688,2.757-58.658-3.1-118.262-18.958-174.082-8.272-3.784.689,1.892,6.2-4.731,7.928-42.574,12.753-95.555,4.481-144.752,1.379C909,111.837,858.854,103.22,803.034,105.978c-23.653,1.034-45.413,3.1-69.065,2.067-33.9-1.436-65.176-7.18-98.2-8.656-6.608-.3-13.287-.42-20.078-.3-58.641,1.723-112.568,7.928-170.28,13.1-66.227,6.2-126.777,1.379-193-3.792-12.3-.689-23.653-.345-35.984-.345H-5.353V95.882H216.272c44.648-.59,85.33,6.649,128.85,8.027,21.761.345,42.575-3.1,65.281-4.825,11.353-.69,22.707-.69,34.06-1.724,52.981-4.481,104.071-4.825,156.7-6.222,6.734-.213,13.174-.26,19.533-.168,31.668.463,62.022,4.437,94.347,6.734,10.407.345,18.922,1.38,29.329.69,64.334-4.825,122.993-2.757,182.6,5.86,34.059,5.17,85.149,11.375,117.316,3.447-7.569-3.447-23.653-8.617-17.03-9.652,77.58-15.856,168.4-2.068,252.608,5.171,17.976,1.723,38.79,4.136,53.928-.345,70.957-22.4,161.782-9.306,242.2-6.2,53.927,2.413,105.963-3.1,159.719-.789h196.54Z" fill="#fff"/>
    </g>
  </g>
  <g>
    <g>
      <path d="M37.945,840.931s11.306-51.579,19.009-125.9c2.476-23.89-1.7-55.02,1.446-81.164,2.292-19.025,34.883-29.169,37.505-48.18,3.935-28.532-21.9-65.6-17.286-91.239,8.842-49.138,14.6-92.581,29.781-109.861,65.612-74.693,37.148-294.4,89.586-281.139s68.51,294.4,84.426,315.618,41.428,2.652,45,87.525,54.9,111.394,56.455,156.483S401.3,840.931,401.3,840.931Z" fill="#98b67a"/>
      <path d="M388.438,663.072c-1.556-45.089-52.88-71.611-56.456-156.483s-29.086-66.307-45-87.525-31.987-302.357-84.425-315.618a40.29,40.29,0,0,0-8.562-.574c4.385,23.274,6.335,54.857,7.055,89.112.263,12.494,5.376,26.992,9.044,41.13C187.6,239.439,167.5,245.185,167.5,245.185s42.947,31.161,39.678,40.2-6.557,17.888-6.707,27.439c-.148,9.394,6.711,23.179,6.618,31.813-.151,13.9-7.19,21.945-7.011,32.99.357,22.07.988,37.852,4.681,41.44,4.036,3.922-69.922,10.548-66.494,14.854,4.422,5.556,86.033,8.887,89.5,14.684,3.248,5.426-49.949,11-47.478,16.256,2.339,4.978,60.385,9.658,62.076,14.161,4.968,13.235,7.235,23.748,7.4,27.57q.065,1.522.138,3.02c.315,6.412.759,12.457,1.311,18.176,1.094,11.348-27.625,32.308-25.851,41.385,1.49,7.619,30.526,14.21,32.281,20.627,2.139,7.822-63.989,14.379-61.515,20.037,3.628,8.3,75.9,14.82,78.841,21.9,3.154,7.589-147.925,15.813-147.543,26.874.349,10.133,157.434,18.087,160.651,26.877,5.542,15.145,9.58,32.31-7.739,65.311-9.378,17.87-20.637,90.132-20.637,90.132H405.87S389.994,708.161,388.438,663.072Z" fill="#83996b"/>
      <path d="M391.179,663.072c-1.556-45.089-52.88-71.611-56.456-156.483s-29.086-66.307-45-87.525c-15.5-20.658-30.521-285.5-79.733-311.809,51.61,104.78,48.255,295.867,60.746,312.519,15.916,21.219,42.105,19.44,45.679,104.312s46.864,95.467,48.42,140.555,7.236,176.29,7.236,176.29h36.543S392.735,708.161,391.179,663.072Z" fill="#6f8257"/>
      <path d="M94.005,591.712c7.3,2.357,62.225,13.555,61.312,15.765s-86.57,22.885-95.664,21.608C64.568,613.959,84.971,604.972,94.005,591.712Z" fill="#83996b"/>
      <path d="M78.069,501.1s114.705,4.421,118.664,9.43-105.756,40.6-105.756,40.6S76.444,526.118,78.069,501.1Z" fill="#83996b"/>
      <path d="M57.373,710.02c7.116.031,83.327,0,87.59,5.3s-58.47,27.7-59.687,36.539-39.128,44.483-39.128,44.483S50.115,742.565,57.373,710.02Z" fill="#83996b"/>
    </g>
    <g>
      <path d="M664.99,840.931a464.7,464.7,0,0,1-10.254-76.657c-1.265-28.155,31.376-21.61,41.08-45.33,7.559-18.478-16.293-67.081-10.272-76.418,12.99-20.148,48.642-26.126,21.929-85.544-7.454-16.582,19-81,20.623-108.541,1.835-31.081-13.344-27.646-9.179-62.25,4.516-37.529,19.644-75.119,27.45-105.709,6.683-26.19-4-43.314,5.482-56.576,39.826-55.7,80.753-67.234,93.855,21.526s7.514,222.085,24.012,261.513S920.236,639.2,927.9,657.768s13.1,61,25.457,82.219,0,100.944,0,100.944Z" fill="#98b67a"/>
      <path d="M955.179,739.987c-12.353-21.218-17.8-63.653-25.457-82.219s-41.68-111.4-58.178-150.823-10.912-172.753-24.013-261.513c-8.054-54.564-25.852-71.629-45.43-64.525,14.436,2.931,20.736,19.44,23.031,35.815.731,5.215-39.685,5.976-39.633,10.72.024,2.166,40.732,8.674,40.654,10.608-.24,6-7.49,11.2-8.679,17.017-2.121,10.386,1.342,21.355.761,32.487-.374,7.174-6.132,13.664-8.069,20.553-1.168,4.149,1.735,8.752.452,12.861-1.006,3.223-45.24,6.456-46.131,9.68-1.771,6.409,40.091,12.825,39.74,19.375-.667,12.452-18.3,10.179-22.382,16.869-1.485,2.432,27.6,25.473,28,28.2a85.662,85.662,0,0,1,1.082,15.636c-.752,19.807-17.688,22.072-20.86,37.275-.788,3.778,12.036,23.182,11.31,26.588-3.22,15.106-5.416,26.393-2.92,32.358,2.694,6.438-39.588,13.824-34.025,19.288,3.784,3.716,55.534,4.631,58.067,11.2a81.548,81.548,0,0,1,3.789,14.664c2.917,16.274-26.846,30.862-22.061,43.533,2.934,7.766,37.2,19.113,40.853,23.975a87.68,87.68,0,0,0,10.362,11.342c4.579,4.318,8.3,7.419,9.691,10.8,1.34,3.249-36.706,9.859-37.152,17.532-.256,4.381,37.273,9.177,37.072,13.724-.3,6.788-.28,13.243.826,17.821,1.462,6.05-118.8,10.805-120.121,16.633-.425,1.865,101.9,15.868,101.408,17.68-2.458,9.083,11.628,6.557,15.531,13.26,2.257,3.878,8.539,10.11,14.221,17.451s10.766,15.8,10.628,24.115c-.48,28.882-5.453,60.973-5.453,60.973h73.086S967.532,761.206,955.179,739.987Z" fill="#83996b"/>
      <path d="M957.006,739.987c-12.353-21.218-17.8-63.653-25.457-82.219s-41.679-111.4-58.178-150.823-10.912-172.753-24.013-261.513c-5.16-34.955-14.83-54.97-26.355-61.581,9.771,15.955,14.653,52.531,15.745,97.046.263,10.746,5.649,24.971,5.677,36.27.033,13.148-5.324,23.429-5.456,36.7-.647,65.017-2.281,127.37,4.847,147.028,16.5,45.5,41.935,105.293,49.593,126.719s15.4,73.329,27.757,97.816,9.346,115.505,9.346,115.505h26.494S969.359,761.206,957.006,739.987Z" fill="#6f8257"/>
      <path d="M719.054,407.291s59.593.044,60.963,3.58-33.806,4.42-34.261,7.956,12.792,2.652,13.706,7.956-31.22,17.694-31.22,17.694.311-11.654-3.649-17.841C721.53,421.849,718.843,410.783,719.054,407.291Z" fill="#83996b"/>
      <path d="M706.823,555.1s49.289-.583,57.207,10.025-21.319,3.536-24.972,12.376,1.828,13.554-1.826,17.68-22.8,13.385-22.8,13.385,2.705-13.533,2.394-20.721C716.256,574.724,705.965,567.191,706.823,555.1Z" fill="#83996b"/>
      <path d="M684.628,645.661s58.694,10.814,54.431,15.529-34.717,0-35.326,8.84,6.7,11.787,6.7,18.269-13.3,17.18-13.3,17.18-4.762-23.118-6.985-29.409C687.034,667.27,683.41,649.787,684.628,645.661Z" fill="#83996b"/>
    </g>
    <g>
      <path d="M323.734,840.931s1.5-15.654,3.925-36.2c1.741-14.755,21.734-37.757,24.22-53.568,3.226-20.515-10.875-32.836-7.217-39.691,10.4-19.492,32.623-31.9,37.992-72.651,2.222-16.867-12.89-34.369-12.465-54.083.341-15.834.622-30.154,9.348-46.954,6.66-12.824,13.762-25.064,18.254-35.4,5.907-13.6-5.932-22.867-3.8-47.512.826-9.541,16.179-32.62,16.952-42.419,3.214-40.737,7.21-80.342,22.278-90.811,28.052-19.492,118.118,75.283,118.321,123.126s-1.425,115.146,13.428,146.468-5.212,92.88-4.884,121.231,20.291,56.626,20.291,128.468Z" fill="#98b67a"/>
      <path d="M560.087,712.463c-.328-28.351,19.736-89.908,4.884-121.231s-13.226-98.625-13.428-146.468c-.147-34.477-46.958-93.323-83.6-116.219,4.635,8.852,7.185,17.9,9.209,26.421,2.323,9.778-11.387,15.587-8.089,22.832,2.107,4.629,19.339,12.5,21.041,17.09,2.936,7.91-55.957,15.053-54.032,22.773,1.894,7.6,64.62,15.778,65.773,23.119.945,6.026-40.411,12.684-39.822,18.492,1.7,16.807,44.278,31.885,45.108,46.2.557,9.607-12.271,16.95-10.928,25.065,1.115,6.729,16.205,14.487,18.458,20,4.37,10.7-5.1,21.6-5.436,36.3-.181,7.747-72.267,19.38-73.145,27.48-.917,8.46,80.111,16.081,78.9,24.339-1.761,12.027-3.574,23.524-4.7,33.562-.727,6.491-58.278,9.716-58.227,14.738.054,5.508,57.317,13.734,57.53,19.577.132,3.647.289,7.4.462,11.317.268,6.07.575,12.526.89,19.565.579,12.957,1.186,27.887,1.632,46.02.182,7.432.337,15.4.451,24,.137,10.235.217,21.354.217,33.5h67.139C580.378,769.089,560.416,740.815,560.087,712.463Z" fill="#83996b"/>
      <path d="M560.087,712.463c-.328-28.351,19.736-89.908,4.884-121.231s-13.226-98.625-13.428-146.468c-.1-23.576-22.022-58.545-47.591-85.624,10.3,18.211,33.366,66.955,33.421,81.134.2,52.1-1.972,116.169,12.88,150.28s-8.417,94.949-8.088,125.824,13.6,62.675,7.7,124.553h30.518C580.378,769.089,560.416,740.815,560.087,712.463Z" fill="#6f8257"/>
      <path d="M393.825,457.277s39.685-2.73,41.719-1.155-1.628,3.544-12.615,9.055-10.985,9.843-10.985,14.963S399.457,494.3,399.457,494.3,387.314,467.907,393.825,457.277Z" fill="#83996b"/>
      <path d="M370.3,579.983s101.815-2.1,104.256,0-61.8,10.794-66.275,15.52-4.883,9.843-7.324,20.08-18.3,23.238-18.3,23.238S367.045,593.205,370.3,579.983Z" fill="#83996b"/>
      <path d="M344.055,714.312s17.228,4.725,29.13,4.725,35.4-3.249,40.284,0-12.207,7.973-21.362,11.516-10.072,7.973-7.325,9.449,9.155,1.772,8.85,5.316-41.407,2.98-41.407,2.98S343.643,729.356,344.055,714.312Z" fill="#83996b"/>
    </g>
    <g>
      <g>
        <path d="M1541,840.932s15.939-273.876-5.591-297.212,24.069-73.724,66.33-94.94-18.822-60.4-7.785-92.819c7.3-21.451,24.874-32.043,34.476-50.388,6.093-11.639,21.539-97.343,26.991-107.907,24.677-47.818,43.522-83.34,63.084-94.8,30.694-17.985,74.316,213.473,73.435,404.08s53.655-13.618,61.271,31.471,34.106,127.308,34.106,127.308V840.932Z" fill="#98b67a"/>
        <path d="M1853.213,538.416c-7.616-45.089-62.152,159.135-61.271-31.471.634-137-21.724-295.1-45.748-366.519-9.4-27.946-19.055-42.619-27.687-37.561,18.6,14.984,16.406,56.533,20.456,75.418,3.243,15.122-15.712,51.382-12.8,68.851,1.573,9.445-63.614,13.98-62.166,23.963,2.229,15.367,71,36.515,72.862,52.839.366,3.2-18.7,25.258-18.352,28.489,2,18.432,23.166,18.458,24.592,37.488,1.474,19.688,2.614,39.551,3.359,59.293.734,19.459-117.939,9.808-118.026,28.746-.013,2.894,119,34.711,118.995,37.467-.028,12.365.016,23.36.134,33.127.207,17.216-62.676,31.176-60.186,41.358,7.641,31.219,45,7.925,74.325,35.676,10.888,10.3,33.2,22.809,41.212,28.883,9.177,6.953-139.277,22.48-138.892,31.229.5,11.231,122.066,25.779,121.651,37.133-.844,23.1,33.655,27.4,30.712,47.73-6.227,43.036,5.618,70.377,5.618,70.377h65.318V665.724S1860.83,583.5,1853.213,538.416Z" fill="#83996b"/>
      </g>
      <g>
        <path d="M1775.235,490.623c3.475,106.558,25.578,99.155,29.656,99.179-10.472-12.4-13.066-57.512-12.949-82.857.634-137-21.724-295.1-45.748-366.519-9.4-27.946-19.055-42.619-27.687-37.561,18.6,14.984,16.406,56.533,20.456,75.418C1740.735,186.55,1767.941,267.014,1775.235,490.623Z" fill="#6f8257"/>
        <path d="M1853.213,538.416c10.436,88.932,2.725,113.088.742,127.308s13.031,23.95,13.031,23.95L1853.955,710l5.8,28.288-5.8,16.354,4.69,5.746-4.69,44.2v36.343h33.364V665.724S1873.892,580.836,1853.213,538.416Z" fill="#6f8257"/>
      </g>
      <path d="M1592.639,363.034s89.882-.839,93.218,2.7-43.6,9.678-48.325,17.634,35.942.884,30.381,12.818-43.064,16.243-53.969,19.76C1609.9,404.875,1592.639,387.047,1592.639,363.034Z" fill="#83996b"/>
      <path d="M1531.855,538.416s120.86,3.683,125.865,10.845-73.773,20.185-76,32.561,30.583,15.47,21.687,22.542-57,26.074-57,26.074S1541.687,562.334,1531.855,538.416Z" fill="#83996b"/>
    </g>
    <g>
      <path d="M1041.491,840.931s2.56-23.432,6.7-54.182c2.975-22.087,37.129-56.516,41.375-80.181,5.51-30.707-18.577-49.15-12.329-59.41,17.764-29.174,55.727-47.741,64.9-108.742,3.795-25.247-22.019-51.443-21.294-80.951.583-23.7,1.063-45.132,15.969-70.28,11.377-19.194,23.509-37.516,31.181-52.993,10.091-20.358-10.133-34.227-6.488-71.115,1.41-14.279,27.638-48.825,28.958-63.491,5.491-60.976,12.317-120.254,38.055-135.925,47.921-29.174,201.774,112.683,202.121,184.293s-2.434,172.348,22.938,219.231-8.9,139.022-8.341,181.458S1479.9,733.4,1479.9,840.931Z" fill="#98b67a"/>
      <path d="M1445.24,648.643c-.561-42.436,33.713-134.574,8.341-181.458s-22.592-147.619-22.938-219.231c-.25-51.605-80.215-139.683-142.81-173.956,7.92,13.25,12.275,26.8,15.732,39.549,3.969,14.634-19.45,23.329-13.816,34.174,3.6,6.929,33.034,18.715,35.943,25.58,5.014,11.839-95.588,22.53-92.3,34.086,3.236,11.374,110.386,23.616,112.354,34.6,1.616,9.019-69.03,18.984-68.025,27.677,2.912,25.158,75.639,47.726,77.056,69.153.951,14.381-20.962,25.371-18.667,37.516,1.9,10.073,27.682,21.685,31.53,29.939,7.466,16.013-8.7,32.336-9.287,54.335-.308,11.6-123.448,29.01-124.948,41.132-1.567,12.664,136.85,24.069,134.784,36.431-3.006,18-6.105,35.209-8.026,50.234-1.242,9.717-99.553,14.542-99.467,22.061.094,8.245,97.912,20.556,98.276,29.3.227,5.458.5,11.078.79,16.937.459,9.087.981,18.751,1.519,29.286.991,19.395,2.027,41.742,2.788,68.881.312,11.125.577,23.055.772,35.916.233,15.32.369,31.962.369,50.139H1479.9C1479.9,733.4,1445.8,691.078,1445.24,648.643Z" fill="#83996b"/>
      <path d="M1445.24,648.643c-.561-42.436,33.713-134.574,8.341-181.458s-22.592-147.619-22.938-219.231c-.171-35.288-37.619-87.629-81.3-128.16,17.6,27.257,57,100.217,57.092,121.44.346,77.987-3.369,173.878,22,224.936s-14.378,142.118-13.817,188.333,23.228,93.811,13.146,186.428H1479.9C1479.9,733.4,1445.8,691.078,1445.24,648.643Z" fill="#6f8257"/>
      <path d="M1161.224,266.682s67.79-4.085,71.265-1.727-2.78,5.305-21.548,13.554-18.767,14.733-18.767,22.395-21.329,21.2-21.329,21.2S1150.1,282.594,1161.224,266.682Z" fill="#83996b"/>
      <path d="M1121.037,450.348s173.924-3.148,178.1,0-105.568,16.158-113.214,23.23-8.342,14.734-12.512,30.056-31.265,34.782-31.265,34.782S1115.476,470.14,1121.037,450.348Z" fill="#83996b"/>
      <path d="M1076.2,651.409s29.429,7.072,49.762,7.072,60.473-4.862,68.814,0-20.853,11.934-36.493,17.238-17.2,11.934-12.511,14.144,15.639,2.652,15.118,7.956-70.734,4.461-70.734,4.461S1075.5,673.927,1076.2,651.409Z" fill="#83996b"/>
    </g>
  </g>
  <g>
    <rect x="-5.353" y="838.693" width="1937.609" height="252.689" fill="#2f3f26"/>
    <rect x="1057.534" y="838.693" width="150.43" height="252.689" fill="#172614"/>
    <rect x="461.493" y="838.693" width="124.885" height="252.689" fill="#172614"/>
    <path d="M794.519,945.325v146.057H669.634v-181c0-13.4,15.769-20.583,28.383-20.583h42.89C753.01,889.8,794.519,896.022,794.519,945.325Z" fill="#172614"/>
    <path d="M917.926,953.3v138.082H849.393V929.605c0-9.089,8.653-13.958,15.576-13.958h23.537C895.147,915.647,917.926,919.867,917.926,953.3Z" fill="#172614"/>
    <rect x="300.656" y="838.693" width="90.825" height="252.689" fill="#172614"/>
    <rect x="149.28" y="838.693" width="77.58" height="252.689" fill="#172614"/>
    <rect x="1301.627" y="838.693" width="105.017" height="252.689" fill="#172614"/>
    <rect x="1519.23" y="838.693" width="147.591" height="252.689" fill="#172614"/>
    <rect x="1755.754" y="838.693" width="62.443" height="252.689" fill="#172614"/>
    <path d="M1932.255,871.021h-77.6c-13.751.109-28.888-4.917-43.08-2.045-45.412,9.334-90.825,7.9-134.346-4.308-7.568-2.154-16.083-2.154-24.6-1.436-78.526,9.334-156.106,20.822-233.686,2.154-29.329-7.18-57.712,5.026-87.988,8.616-23.652,2.872-46.358,3.59-69.065-1.436-68.119-15.8-135.292,3.59-202.465,3.59-35,0-69.065-8.616-104.07-9.334-73.8-2.872-148.538,4.308-222.333,3.59-87.987-1.436-175.975,0-263.962,6.462-21.76,1.436-41.628-6.462-64.334-9.334-29.329-3.59-55.82,2.154-83.257,7.9-19.868,4.308-39.2.943-58.407-3.433-6.4-1.458-12.787-3.029-19.173-4.465-7.569-2.154-14.191-1.436-21.76-1.436-33.114-1.436-66.227,6.462-99.716,4.917H-5.353V825.856H252.8c49.745.757,98.942-10.731,150.031-6.423,9.461.718,18.922,6.462,28.117,6.423H620.207c11.347,0,12.372,3.27,19.388,3.27s18.686-4.667,35.716-1.077c3.784.718,8.515,0,12.3,0,13.245-.718,19.395-2.692,31.694-2.692,17.976.718,19.24,5.313,37.262,1.7,1.686-.012,21.51-1.2,23.2-1.2h250.1c1.844,0,3.676,0,5.524-.011,27.815-2.822,53.359-4.258,80.8.768,6.623,1.436,14.192-.718,22.063-.757h29.406c39.357,1.475,78.147-3.551,117.883-3.551,19.868.718,36.9,9.334,57.712,5.744a277.826,277.826,0,0,1,33.778-2.193h222.809c32.919-.679,66.978-.679,100.092-2.115,20.814-.718,39.736,5.744,61.359,2.115h170.961Z" fill="#446335"/>
    <path d="M52.148,948.2s-17.03-20.105-8.2-33.987,7.569-26.327,13.876-26.806,9.462,7.66,6.938,19.148S61.44,964.743,52.148,948.2Z" fill="#172614"/>
    <path d="M78.008,923.306s-10.722,19.465-5.677,28.4,8.2,15.159,12.615,10.372S83.378,910.47,78.008,923.306Z" fill="#172614"/>
    <path d="M967.655,889.8s31.221,9.334,32.167,21.54,5.677,47.389-9.461,43.8S961.978,903.441,967.655,889.8Z" fill="#172614"/>
    <path d="M1870.547,892.192s-4.414,42.6,5.047,49.783S1890.1,880.226,1870.547,892.192Z" fill="#172614"/>
    <path d="M1887.9,919.915s-3.536,34.124,4.042,39.875S1903.561,910.331,1887.9,919.915Z" fill="#172614"/>
    <path d="M110.49,871.021s21.682-.19,30.433-.19c13.4-.718,45.456-3.526,45.456-3.526s-24.563,4.453-37.335,5.53S110.49,871.021,110.49,871.021Z" fill="#5f7254"/>
    <path d="M263.832,872.18s22.474,3.259,36.035,3.259,33.368-2.446,33.368-2.446-16.5,6.395-32.579,6.395S263.832,872.18,263.832,872.18Z" fill="#5f7254"/>
    <path d="M423.6,870.9s20.388,4.422,37.417,4.422,45.42-.893,45.42-.893-27.759,4.124-44.946,4.124S423.6,870.9,423.6,870.9Z" fill="#5f7254"/>
    <path d="M911.126,866.161s28.726-1.852,52.325-1.852,58.131,8.8,93.374,8.8,73.33-1.75,73.33-1.75-36.433,6.955-72.621,6.955-62.335-9.693-94.083-9.693S911.126,866.161,911.126,866.161Z" fill="#5f7254"/>
    <path d="M1242.8,869.013s21.873,5.109,58.509,5.109,82.571-9.819,82.571-9.819-42.2,15.085-82.256,15.085S1242.8,869.013,1242.8,869.013Z" fill="#5f7254"/>
    <path d="M1427.162,867.251s43.817,4.594,92.068,4.594,131.909-8.436,131.909-8.436-64.1,14.662-131.909,14.662S1427.162,867.251,1427.162,867.251Z" fill="#5f7254"/>
    <path d="M1700,870.039s18.74,2.886,55.046,2.886,52.745-2.886,52.745-2.886-20.105,8.032-52.036,8.032S1700,870.039,1700,870.039Z" fill="#5f7254"/>
    <path d="M171.987,846.114c0,1.014-13.767,1.836-30.749,1.836s-30.748-.822-30.748-1.836,13.767-1.836,30.748-1.836S171.987,845.1,171.987,846.114Z" fill="#314c25"/>
    <path d="M218.818,852.742c0,1.014-7.261,1.835-16.219,1.835s-16.22-.821-16.22-1.835,7.262-1.836,16.22-1.836S218.818,851.728,218.818,852.742Z" fill="#314c25"/>
    <path d="M251.257,847.95c0,1.014-7.261,1.835-16.219,1.835s-16.22-.821-16.22-1.835,7.262-1.836,16.22-1.836S251.257,846.936,251.257,847.95Z" fill="#314c25"/>
    <ellipse cx="429.317" cy="837.651" rx="30.748" ry="1.836" fill="#314c25"/>
    <path d="M506.9,844.278c0,1.014-7.262,1.836-16.22,1.836s-16.219-.822-16.219-1.836,7.262-1.835,16.219-1.835S506.9,843.264,506.9,844.278Z" fill="#314c25"/>
    <path d="M581.783,857.891c0,1.014-7.262,1.836-16.22,1.836s-16.219-.822-16.219-1.836,7.261-1.836,16.219-1.836S581.783,856.877,581.783,857.891Z" fill="#314c25"/>
    <path d="M539.336,839.486c0,1.014-7.262,1.836-16.22,1.836S506.9,840.5,506.9,839.486s7.261-1.835,16.219-1.835S539.336,838.472,539.336,839.486Z" fill="#314c25"/>
    <path d="M731.13,851.263c0,1.014-13.766,1.836-30.748,1.836s-30.748-.822-30.748-1.836,13.766-1.835,30.748-1.835S731.13,850.25,731.13,851.263Z" fill="#314c25"/>
    <path d="M777.962,857.891c0,1.014-7.261,1.836-16.219,1.836s-16.22-.822-16.22-1.836,7.262-1.836,16.22-1.836S777.962,856.877,777.962,857.891Z" fill="#314c25"/>
    <path d="M810.4,853.1c0,1.014-7.261,1.836-16.219,1.836s-16.22-.822-16.22-1.836,7.262-1.836,16.22-1.836S810.4,852.085,810.4,853.1Z" fill="#314c25"/>
    <path d="M929.9,840.964c0,1.014-13.767,1.836-30.748,1.836s-30.749-.822-30.749-1.836,13.767-1.835,30.749-1.835S929.9,839.951,929.9,840.964Z" fill="#314c25"/>
    <ellipse cx="960.509" cy="847.592" rx="16.219" ry="1.836" fill="#314c25"/>
    <path d="M1009.168,842.8c0,1.014-7.261,1.836-16.22,1.836s-16.219-.822-16.219-1.836,7.261-1.836,16.219-1.836S1009.168,841.786,1009.168,842.8Z" fill="#314c25"/>
    <path d="M1153.857,857.891c0,1.014-7.261,1.836-16.22,1.836s-16.219-.822-16.219-1.836,7.261-1.836,16.219-1.836S1153.857,856.877,1153.857,857.891Z" fill="#314c25"/>
    <path d="M1314.466,849.785c0,1.014-13.766,1.836-30.748,1.836s-30.748-.822-30.748-1.836,13.766-1.835,30.748-1.835S1314.466,848.771,1314.466,849.785Z" fill="#314c25"/>
    <path d="M1361.3,856.413c0,1.014-7.261,1.836-16.219,1.836s-16.22-.822-16.22-1.836,7.261-1.836,16.22-1.836S1361.3,855.4,1361.3,856.413Z" fill="#314c25"/>
    <path d="M1393.737,851.621c0,1.014-7.261,1.836-16.219,1.836s-16.22-.822-16.22-1.836,7.261-1.836,16.22-1.836S1393.737,850.607,1393.737,851.621Z" fill="#314c25"/>
    <path d="M1657.934,840.964c0,1.014-13.766,1.836-30.748,1.836s-30.748-.822-30.748-1.836,13.766-1.835,30.748-1.835S1657.934,839.951,1657.934,840.964Z" fill="#314c25"/>
    <ellipse cx="1688.546" cy="847.592" rx="16.219" ry="1.836" fill="#314c25"/>
    <path d="M1737.205,842.8c0,1.014-7.261,1.836-16.22,1.836s-16.219-.822-16.219-1.836,7.261-1.836,16.219-1.836S1737.205,841.786,1737.205,842.8Z" fill="#314c25"/>
    <ellipse cx="1889.767" cy="855.292" rx="16.219" ry="1.836" fill="#314c25"/>
    <path d="M1919.514,849.428c0,1.014-7.261,1.835-16.219,1.835s-16.22-.821-16.22-1.835,7.262-1.836,16.22-1.836S1919.514,848.414,1919.514,849.428Z" fill="#314c25"/>
  </g>
  <g>
    <rect x="-5.353" y="960.396" width="1937.609" height="130.987" fill="url(#b)"/>
    <g>
      <polygon points="1932.255 1091.382 -5.353 1091.382 -5.353 1047.606 792.68 1047.606 846.127 1050.228 889.653 1047.606 1138.004 1047.606 1162.13 1053.803 1206.123 1047.606 1932.255 1047.606 1932.255 1091.382" fill="#2d8ba5"/>
      <g>
        <g>
          <path d="M1932.255,1057.039H1917.1c-24.426,0-70.941-.23-89.861.632-2.605.215-5.206.269-7.807.229s-5.2-.176-7.806-.336c-6.15-.755-12.773-.323-19.4-.323-34.057.86-76.634,15.9-106.908,1.288-10.4-4.726-33.113,0-49.2-2.577-40.682-6.878-78.527,1.289-119.207,4.3-7.568.43-15.137.43-21.762-.858-41.627-6.019-85.147-6.019-128.668-3.01-16.084.86-28.384-4.3-43.522-6.446-3.781-.431-7.568.429-8.513,1.719-6.208,3.357-13.342,5.037-20.966,5.665-2.814.2-5.606.28-8.549.265-31.982-1.2-61.94-1.31-95.054-5.178-15.139-1.29-13.561,3.975-17.345,7.843-5.677,6.017-24.6,3.869-37.843,2.15-65.282-8.6-132.455-7.307-198.682-5.59-57.71,1.72-117.314,2.582-175.975,2.152-10.4-.432-24.6-2.152-21.757-8.169-49.2,6.879-96.5,8.6-149.484,5.589-36.9-2.148-85.15,9.456-123.94.428-21.759-5.155-47.3,3.011-71.9,1.72-2.837-.428-8.514,0-8.514-1.72-.946-2.148,2.838-5.585-.946-6.445-35.006-4.729-70.012,5.588-104.071,10.315-6.622.861-15.138-.859-22.707-.43-8.514.43-15.136,3.869-22.7,4.729-22.706,2.578-43.52-3.009-66.227-5.158-11.353-1.291-22.706,0-34.033.646q-4.231.03-8.443-.078c-22.463-.541-58.756-3.349-113-3.349H-5.353v-5.153H13.606c35.6,0,90.333,3.914,113.553,4.42,3.317.072,6.645.092,9.986.039,22.123-2.542,41.992.464,60.913,4.334,19.867,4.3,32.168-7.307,48.251-6.018,44.466,3.868,85.149-5.587,126.777-10.314,2.839-.429,6.622,0,8.514,1.288,25.544,16.764,70.012,6.877,105.017,4.729,2.839,0,3.784,1.29,3.784,2.148-.945,3.44,2.839,6.879,11.354,6.449,51.089-2.152,99.341-9.457,154.213-4.3,30.275,2.58,65.281-11.173,92.717-4.726,39.736,9.026,84.2,5.157,124.883,3.437a237,237,0,0,1,30.277.431c14.192,1.289,25.545-3.868,37.842-3.439,47.307,1.29,93.666-.86,140.97,2.578,20.815,1.719,42.574,10.318,62.441,4.729,10.408-3.01,20.815-6.879,33.115-6.879,37.844.432,75.688,2.58,113.633,1.705,2.366-.182,4.628-.417,6.877-.682,6.5-.806,12.889-1.88,19.513-2.741,12.3-1.288,25.543,0,37.843,0,11.352.43,17.976,4.729,30.275,3.868,35-2.578,71.9-6.017,104.07-.43,14.191,2.58,29.328,4.729,44.465,3.44,23.654-1.719,44.468-7.308,68.121-4.728,32.167,3.009,61.5-.432,92.719,1.718,8.515.43,6.621,6.449,13.244,7.737,30.275,5.158,59.6-8.167,91.772-7.307,3.784,0,8.514-.43,12.544.288,1.978.1,3.969.166,5.971.2s4.03.017,6.083-.054c18.92-.861,79.939-1.917,106.912-1.917Z" fill="#8cb6ce"/>
          <g>
            <path d="M1932.255,1051.931h-59.843c-108.2,0-170.9,3.076-201.6,3.076-23.34,0-52.354-12.951-92.4-8.512-53.285,5.909-104.07,11.176-158.943,4.3-17.976-2.148-36.9,3.011-56.767.862-22.707-3.01-43.518-4.729-67.172-3.438-63.389,3.438-124.884,9.455-190.165,3.868-16.084-1.292-31.221.428-47.306.428a84.531,84.531,0,0,1-23.652-3.008,128.1,128.1,0,0,0-44.466-2.579c-103.124,11.176-203.412,4.729-305.589,2.149-13.246-.43-25.545,3.868-38.79,3.438a54.954,54.954,0,0,1-15.137-3.438,59.858,59.858,0,0,0-19.869-2.149c-24.6.43-44.467,9.027-70.01,7.736-14.192-.858-27.438-2.149-40.683-2.149-29.328-.428-54.4-6.877-83.729-7.3-22.707-.43-47.779,6.877-69.537,6.877-16.084-.43-38.319-6.233-56.293-4.513-40.683,4.3-65.769,9.4-111.166,6.232s-87.515-1.872-149.485-1.872H-5.353v-10.009h21.76c43.5,0,140.5,1.627,163.675,3.747s41.628.826,55.82.4c94.61-3.44,189.219-10.747,285.721,0,25.544,3.007,50.143-1.29,74.741-4.3,34.06-3.44,51.089,5.442,85.149,1.574,5.677-.43,11.668-7.736,25.787-5.928,38.541,4.934,106.035,12.948,163.748,10.37,41.627-2.151,93.663-10.6,134.345-11.458,32.168-.859,64.019,5.01,97.134,3.722,19.866-.861,34.058,3.868,50.14,9.024,4.732,1.29,11.354,1.29,17.978.861,64.333-8.6,126.776-12.035,193-9.027,17.033.43,32.169-3.008,48.253-3.868,11.352-.429,22.7-.858,31.22,2.149,50.144,17.192,110.694.861,163.676-2.149,13.244-.858,25.542,2.149,37.818,3.742,3.321.415,32.251,4.489,35.659,4.887,20.462,2.371,89.564-3.747,194.438-3.747h57.544Z" fill="#d6f7ef"/>
            <path d="M1670.815,1052c-23.34,0-52.354-12.951-92.4-8.509-53.285,5.908-104.07,11.173-158.943,4.3-17.976-2.151-36.9,3.006-56.767.858-22.707-3.009-43.518-4.726-67.172-3.437-42.454,2.3-84.058,5.756-126.519,6.112a84.4,84.4,0,0,1-9.834.029c-17.725-.063-35.622-.717-53.812-2.274-16.084-1.288-31.221.43-47.306.43a84.568,84.568,0,0,1-23.652-3.009,128.053,128.053,0,0,0-44.466-2.577c-103.124,11.174-203.412,4.726-305.589,2.149-13.246-.432-25.545,3.868-38.79,3.437a54.99,54.99,0,0,1-15.137-3.437,59.832,59.832,0,0,0-19.869-2.149c-24.6.429-44.467,9.024-70.01,7.736-14.192-.862-27.438-2.15-40.683-2.15-29.328-.43-54.4-6.877-83.729-7.3-22.707-.429-47.779,6.875-69.537,6.875-12.021-.32-27.475-3.641-42.02-4.582q-11.271.478-22.534.975c-36,4.063-60.664,8.269-102.9,5.325-45.4-3.161-87.515-1.871-149.485-1.871H-5.353v4.3H29.652c61.97,0,104.087-1.292,149.485,1.873s70.483-1.934,111.166-6.231c17.974-1.72,40.209,4.081,56.293,4.511,21.758,0,46.83-7.305,69.537-6.877,29.329.43,54.4,6.877,83.729,7.308,13.245,0,26.491,1.289,40.683,2.149,25.543,1.289,45.412-7.308,70.01-7.736a59.832,59.832,0,0,1,19.869,2.148,54.991,54.991,0,0,0,15.137,3.439c13.245.43,25.544-3.868,38.79-3.439,102.177,2.578,202.465,9.027,305.589-2.148a128.029,128.029,0,0,1,44.466,2.576,84.531,84.531,0,0,0,23.652,3.011c16.085,0,31.222-1.719,47.306-.431,65.281,5.589,126.776-.43,190.165-3.868,23.654-1.288,44.465.431,67.172,3.438,19.868,2.15,38.791-3.007,56.767-.858,54.873,6.877,105.658,1.61,158.943-4.3,40.05-4.442,69.064,8.509,92.4,8.509,30.7,0,93.4-3.076,201.6-3.076h59.843v-4.3h-59.843C1764.211,1048.921,1701.514,1052,1670.815,1052Z" fill="#e7ffff"/>
          </g>
        </g>
        <path d="M216.033,1038.9c0,.827-3.282,1.5-7.331,1.5s-7.333-.677-7.333-1.5,3.282-1.507,7.333-1.507S216.033,1038.065,216.033,1038.9Z" fill="#f7fbf7"/>
        <path d="M33.832,1034.813c0,.831-3.283,1.5-7.333,1.5s-7.331-.673-7.331-1.5,3.281-1.5,7.331-1.5S33.832,1033.982,33.832,1034.813Z" fill="#f7fbf7"/>
        <path d="M542.2,1040.4c0,.829-3.283,1.5-7.332,1.5s-7.332-.674-7.332-1.5,3.282-1.5,7.332-1.5S542.2,1039.57,542.2,1040.4Z" fill="#f7fbf7"/>
        <path d="M858.118,1041.314c0,.829-5.665,1.5-12.654,1.5s-12.654-.676-12.654-1.5,5.664-1.506,12.654-1.506S858.118,1040.484,858.118,1041.314Z" fill="#f7fbf7"/>
        <path d="M1176.006,1041.314c0,.829-5.022,1.5-11.215,1.5s-11.217-.676-11.217-1.5,5.023-1.506,11.217-1.506S1176.006,1040.484,1176.006,1041.314Z" fill="#f7fbf7"/>
        <path d="M1196.305,1039.308c0,.358-2.17.651-4.847.651s-4.846-.293-4.846-.651,2.169-.65,4.846-.65S1196.305,1038.949,1196.305,1039.308Z" fill="#f7fbf7"/>
        <path d="M1254.649,1035.029c0,.358-2.171.649-4.85.649s-4.846-.291-4.846-.649,2.17-.652,4.846-.652S1254.649,1034.67,1254.649,1035.029Z" fill="#f7fbf7"/>
        <path d="M227.488,1037.391c0,.475-1.876.861-4.19.861s-4.19-.386-4.19-.861,1.877-.858,4.19-.858S227.488,1036.917,227.488,1037.391Z" fill="#f7fbf7"/>
        <path d="M329.023,1033.953c0,.474-1.875.86-4.189.86s-4.189-.386-4.189-.86,1.875-.86,4.189-.86S329.023,1033.479,329.023,1033.953Z" fill="#f7fbf7"/>
      </g>
    </g>
    <path d="M656.387,994.287c0,.886-4.8,1.6-10.723,1.6s-10.722-.718-10.722-1.6,4.8-1.6,10.722-1.6S656.387,993.4,656.387,994.287Z" fill="#f7fbf7"/>
    <path d="M700.382,987.472c0,.885-4.8,1.6-10.722,1.6s-10.723-.718-10.723-1.6,4.8-1.6,10.723-1.6S700.382,986.586,700.382,987.472Z" fill="#f7fbf7"/>
    <path d="M107.925,995.891c0,.886-4.8,1.6-10.723,1.6s-10.722-.718-10.722-1.6,4.8-1.6,10.722-1.6S107.925,995.005,107.925,995.891Z" fill="#f7fbf7"/>
    <path d="M52.131,990.253c0,.886-4.8,1.6-10.723,1.6s-10.722-.718-10.722-1.6,4.8-1.6,10.722-1.6S52.131,989.368,52.131,990.253Z" fill="#f7fbf7"/>
    <path d="M1075.034,987.472c0,.885-4.8,1.6-10.722,1.6s-10.723-.718-10.723-1.6,4.8-1.6,10.723-1.6S1075.034,986.586,1075.034,987.472Z" fill="#f7fbf7"/>
    <path d="M909.871,981.6c0,.885-4.8,1.6-10.722,1.6s-10.723-.718-10.723-1.6,4.8-1.6,10.723-1.6S909.871,980.715,909.871,981.6Z" fill="#f7fbf7"/>
    <path d="M873.658,976.545c0,.886-7.155,1.6-15.98,1.6s-15.98-.718-15.98-1.6,7.154-1.6,15.98-1.6S873.658,975.66,873.658,976.545Z" fill="#f7fbf7"/>
    <path d="M1520.739,995.891c0,.886-4.8,1.6-10.722,1.6s-10.723-.718-10.723-1.6,4.8-1.6,10.723-1.6S1520.739,995.005,1520.739,995.891Z" fill="#f7fbf7"/>
    <path d="M1502.988,973.2c0,.886-4.8,1.6-10.722,1.6s-10.723-.718-10.723-1.6,4.8-1.6,10.723-1.6S1502.988,972.311,1502.988,973.2Z" fill="#f7fbf7"/>
    <path d="M1920.081,971.1c0,.885-4.8,1.6-10.722,1.6s-10.723-.718-10.723-1.6,4.8-1.6,10.723-1.6S1920.081,970.21,1920.081,971.1Z" fill="#f7fbf7"/>
    <path d="M1898.766,978.508c0,.885-4.8,1.6-10.722,1.6s-10.723-.718-10.723-1.6,4.8-1.6,10.723-1.6S1898.766,977.622,1898.766,978.508Z" fill="#f7fbf7"/>
  </g>
  <g>
    <g>
      <g>
        <path d="M421.2,984.453s132.375-.658,147.982,7.165c7.3,3.659-46.244,1.817-43.354,8.4s83.24,0,76.881,5.382-56.444-3.194-95.667,3.685c-16.778,2.942-22.765,7.661-63.549,8.493-22.111.451-54.2,5.578-68.77,5.812-24.914.4-73.18-5.633-94.523-9.541-35.276-6.462-52.649-2.632-26.636-6.362,22.135-3.173-67.205-7.112-74.858-10.528-9.827-4.387,13.333-8.308,62.141-8.308S365.354,984.619,421.2,984.453Z" fill="#2d8ba5"/>
        <path d="M165.564,994.287c0,1.474-7.864,2.67-17.566,2.67s-17.566-1.2-17.566-2.67,7.865-2.669,17.566-2.669S165.564,992.813,165.564,994.287Z" fill="#2d8ba5"/>
        <path d="M598.087,991.34c0,1.249-4.6,2.262-10.268,2.262s-10.268-1.013-10.268-2.262,4.6-2.265,10.268-2.265S598.087,990.089,598.087,991.34Z" fill="#2d8ba5"/>
        <path d="M634.942,1004.967c0,1.161-5.373,2.1-12,2.1s-12-.939-12-2.1,5.373-2.1,12-2.1S634.942,1003.808,634.942,1004.967Z" fill="#2d8ba5"/>
      </g>
      <g>
        <path d="M462.368,1008.784c-12.249,1.887-28.436-5.844-42.929-4.442-12.626,1.222-31.942,3.851-44.718,3.851-17.686,0-28-2.519-43.092-4.443-8.3-1.058-26.483,2.41-33.283,1.207-18.747-3.318-27.156-5.94-27.156-5.94s-3.026-25.259,7.049-37.272S289.954,929,289.954,929l162.43,1.232,36.424,23.088s10.121,23.736,7.415,45.7C490.214,999.017,482.9,1005.624,462.368,1008.784Z" fill="#202f18"/>
        <path d="M281.511,964.007c9.795-11.681,10-31.292,10.09-32.388L289.954,929s-3.609,20.733-13.684,32.747-7.048,37.272-7.048,37.272,6.763,2.3,10.977,2.3C280.2,1001.32,271.435,976.02,281.511,964.007Z" fill="#303f27"/>
        <path d="M490.947,968.05s.9,9.986.572,31.966a15.294,15.294,0,0,0,4.7-1,83.342,83.342,0,0,0-7.415-45.7C488.808,957.18,490.947,968.05,490.947,968.05Z" fill="#303f27"/>
        <path d="M433.205,929s-1.387,39.431,2.4,43.949,3.789,16.018,9.742,18.482,11.365-19.932,16.236-24.341,7.345-30.524,7.345-30.524Z" fill="#172614"/>
        <path d="M343.192,1005.4a71.027,71.027,0,0,0-14.815-1.155c-9.237.1-18.965.6-18.965.6s.635-7.132.635-9.366c.27-6.719-2.166-12.881-.542-19.658,2.436-12.322,1.624-24.644.565-37.114-.023-2.245-.023-3.548-.023-3.548h32.312V938.7c0,1.118,0,2.467-.01,4.006-2.807,15.868,2.876,32.5.012,48.777,0,1.534,0,2.883,0,4C342.359,997.714,343.192,1005.4,343.192,1005.4Z" fill="#172614"/>
        <path d="M350.443,936.564s-1.565,25.087,12.236,31.556,34.1,22.488,43.837,20.331,0-58.568,0-58.568Z" fill="#172614"/>
        <path d="M454.55,916.265c-8.579-3.528-174.1.795-164.165,13.965,1.826,2.42,7.719,3.976,16.217,4.93,4.176.467,9.414,4.1,14.675,4.311,7.384.291,15.233-2.963,23.934-3.041,9.312-.083,18.745,4.579,28.427,4.273,15.1-.475,30.286-6,42.626-6.37,14.579-.433,25.678-.511,29.626.414,15.761,3.7,42.918,18.571,42.918,18.571S480.528,926.944,454.55,916.265Z" fill="#38572b"/>
        <path d="M311.41,936.564s6.078,2.308,10.949,2.154,20-2.154,20-2.154-15.208,4.531-20.891,4.222A18.368,18.368,0,0,1,311.41,936.564Z" fill="#5f7254"/>
        <path d="M355.975,937.878s7.786,4.263,15.634,4.263,21.936-2.836,28.828-5.577c0,0-17.243,3.959-28.557,3.626A59.708,59.708,0,0,1,355.975,937.878Z" fill="#5f7254"/>
        <path d="M433.205,934.023A125.116,125.116,0,0,1,446.3,935.7c6.532,1.387,22.634,7.7,22.634,7.7s-15.655-8.2-22.127-9.191A55.626,55.626,0,0,0,433.205,934.023Z" fill="#5f7254"/>
        <path d="M356.085,929.511c0,.816-7.883,1.476-17.607,1.476s-17.608-.66-17.608-1.476,7.884-1.476,17.608-1.476S356.085,928.7,356.085,929.511Z" fill="#314c25"/>
        <path d="M443.491,925.442c0,.817-7.883,1.477-17.607,1.477s-17.608-.66-17.608-1.477,7.883-1.476,17.608-1.476S443.491,924.627,443.491,925.442Z" fill="#314c25"/>
        <path d="M374.721,923.966c0,.816-4.967,1.476-11.1,1.476s-11.095-.66-11.095-1.476,4.967-1.477,11.095-1.477S374.721,923.151,374.721,923.966Z" fill="#314c25"/>
      </g>
    </g>
    <g>
      <g>
        <path d="M1316.634,971.456s106.114-.527,118.625,5.743c5.852,2.934-37.07,1.458-34.753,6.733s66.726,0,61.629,4.314-45.246-2.56-76.688,2.954c-13.45,2.357-18.25,6.14-50.943,6.808-17.724.361-43.447,4.471-55.126,4.659-19.972.321-58.663-4.515-75.771-7.648-28.28-5.18-42.2-2.111-21.353-5.1,17.744-2.544-53.873-5.7-60.008-8.44-7.878-3.517,10.688-6.659,49.814-6.659S1271.869,971.589,1316.634,971.456Z" fill="#2d8ba5"/>
        <path d="M1111.713,979.34c0,1.181-6.305,2.139-14.082,2.139s-14.08-.958-14.08-2.139,6.3-2.141,14.08-2.141S1111.713,978.158,1111.713,979.34Z" fill="#2d8ba5"/>
        <path d="M1458.432,976.977c0,1-3.685,1.813-8.231,1.813s-8.231-.812-8.231-1.813,3.685-1.816,8.231-1.816S1458.432,975.973,1458.432,976.977Z" fill="#2d8ba5"/>
        <path d="M1487.975,987.9c0,.931-4.306,1.684-9.621,1.684s-9.621-.753-9.621-1.684,4.307-1.682,9.621-1.682S1487.975,986.971,1487.975,987.9Z" fill="#2d8ba5"/>
      </g>
      <g>
        <path d="M1349.637,990.96c-9.82,1.513-22.795-4.684-34.413-3.56-10.121.978-25.606,3.086-35.846,3.086-14.179,0-22.442-2.019-34.544-3.562-6.656-.848-21.23,1.933-26.68.969-15.028-2.66-21.769-4.763-21.769-4.763s-2.426-20.247,5.651-29.877S1211.427,927,1211.427,927l130.206.988,29.2,18.508s8.113,19.028,5.945,36.633C1371.958,983.13,1366.092,988.427,1349.637,990.96Z" fill="#202f18"/>
        <path d="M1204.658,955.066c7.852-9.364,8.014-25.084,8.089-25.963l-1.32-2.1s-2.894,16.621-10.97,26.252-5.65,29.877-5.65,29.877,5.422,1.847,8.8,1.847C1203.607,984.977,1196.581,964.7,1204.658,955.066Z" fill="#303f27"/>
        <path d="M1372.546,958.307s.722,8,.458,25.625a12.253,12.253,0,0,0,3.772-.8,66.815,66.815,0,0,0-5.945-36.633C1370.831,949.593,1372.546,958.307,1372.546,958.307Z" fill="#303f27"/>
        <path d="M1326.259,927s-1.111,31.609,1.925,35.231,3.039,12.84,7.81,14.816,9.111-15.978,13.015-19.513,5.887-24.468,5.887-24.468Z" fill="#172614"/>
        <path d="M1254.1,988.246a56.889,56.889,0,0,0-11.876-.926c-7.405.08-15.2.483-15.2.483s.51-5.717.51-7.508c.217-5.386-1.736-10.326-.435-15.758,1.953-9.878,1.3-19.755.454-29.752-.019-1.8-.019-2.844-.019-2.844h25.9v2.835c0,.9,0,1.978-.008,3.212-2.25,12.72,2.305,26.054.01,39.1,0,1.23,0,2.311,0,3.207C1253.435,982.086,1254.1,988.246,1254.1,988.246Z" fill="#172614"/>
        <path d="M1259.915,933.067s-1.255,20.111,9.809,25.3,27.333,18.027,35.141,16.3,0-46.95,0-46.95Z" fill="#172614"/>
        <path d="M1343.369,916.8c-6.876-2.828-139.566.637-131.6,11.194,1.465,1.941,6.189,3.188,13,3.952,3.347.375,7.545,3.29,11.763,3.457,5.92.232,12.212-2.375,19.187-2.439,7.464-.066,15.026,3.671,22.787,3.426,12.1-.381,24.277-4.813,34.17-5.106,11.686-.347,20.584-.41,23.748.332,12.636,2.964,34.4,14.886,34.4,14.886S1364.194,925.355,1343.369,916.8Z" fill="#38572b"/>
        <path d="M1228.626,933.067a27.571,27.571,0,0,0,8.777,1.726c3.9-.123,16.032-1.726,16.032-1.726s-12.191,3.632-16.746,3.384A14.719,14.719,0,0,1,1228.626,933.067Z" fill="#5f7254"/>
        <path d="M1264.35,934.12s6.241,3.418,12.533,3.418,17.584-2.274,23.108-4.471c0,0-13.822,3.174-22.891,2.907A47.834,47.834,0,0,1,1264.35,934.12Z" fill="#5f7254"/>
        <path d="M1326.259,931.031a100.007,100.007,0,0,1,10.494,1.342c5.237,1.112,18.143,6.169,18.143,6.169s-12.548-6.57-17.737-7.368A44.577,44.577,0,0,0,1326.259,931.031Z" fill="#5f7254"/>
        <path d="M1264.438,927.413c0,.654-6.319,1.184-14.114,1.184s-14.115-.53-14.115-1.184,6.32-1.183,14.115-1.183S1264.438,926.76,1264.438,927.413Z" fill="#314c25"/>
        <path d="M1334.5,924.151c0,.655-6.318,1.184-14.114,1.184s-14.114-.529-14.114-1.184,6.318-1.183,14.114-1.183S1334.5,923.5,1334.5,924.151Z" fill="#314c25"/>
        <path d="M1279.378,922.968c0,.654-3.983,1.183-8.894,1.183s-8.895-.529-8.895-1.183,3.982-1.183,8.895-1.183S1279.378,922.315,1279.378,922.968Z" fill="#314c25"/>
      </g>
    </g>
    <g>
      <g>
        <path d="M1715.8,968.126s93.686-.465,104.732,5.071c5.166,2.589-32.729,1.286-30.684,5.944s58.912,0,54.412,3.808-39.947-2.26-67.707,2.609c-11.875,2.081-16.113,5.421-44.977,6.01-15.648.319-38.357,3.948-48.67,4.113-17.632.284-51.792-3.986-66.9-6.752-24.967-4.573-37.262-1.863-18.853-4.5,15.666-2.247-47.562-5.034-52.979-7.452-6.956-3.105,9.437-5.879,43.979-5.879S1676.279,968.242,1715.8,968.126Z" fill="#2d8ba5"/>
        <path d="M1534.881,975.086c0,1.043-5.567,1.889-12.433,1.889s-12.431-.846-12.431-1.889,5.565-1.889,12.431-1.889S1534.881,974.043,1534.881,975.086Z" fill="#2d8ba5"/>
        <path d="M1840.992,973c0,.884-3.253,1.6-7.267,1.6s-7.266-.717-7.266-1.6,3.253-1.6,7.266-1.6S1840.992,972.114,1840.992,973Z" fill="#2d8ba5"/>
        <path d="M1867.076,982.645c0,.82-3.8,1.486-8.5,1.486s-8.494-.666-8.494-1.486,3.8-1.486,8.494-1.486S1867.076,981.824,1867.076,982.645Z" fill="#2d8ba5"/>
      </g>
      <g>
        <path d="M1744.939,985.347c-8.67,1.335-20.125-4.137-30.382-3.145-8.936.865-22.608,2.724-31.649,2.724-12.518,0-19.813-1.781-30.5-3.144-5.877-.748-18.745,1.707-23.556.855a175.441,175.441,0,0,1-19.219-4.2s-2.142-17.876,4.988-26.378,8.291-23.177,8.291-23.177l114.958.871,25.778,16.342s7.163,16.8,5.248,32.342C1764.646,978.433,1759.468,983.109,1744.939,985.347Z" fill="#202f18"/>
        <path d="M1616.94,953.655c6.934-8.267,7.075-22.146,7.142-22.922l-1.167-1.855s-2.553,14.673-9.684,23.177-4.988,26.378-4.988,26.378,4.786,1.631,7.769,1.631C1616.012,980.064,1609.809,962.158,1616.94,953.655Z" fill="#303f27"/>
        <path d="M1765.166,956.517s.636,7.067.4,22.624a10.813,10.813,0,0,0,3.329-.708,58.982,58.982,0,0,0-5.248-32.342C1763.651,948.823,1765.166,956.517,1765.166,956.517Z" fill="#303f27"/>
        <path d="M1724.3,928.878s-.981,27.906,1.7,31.1,2.683,11.337,6.895,13.081,8.043-14.106,11.491-17.227,5.2-21.6,5.2-21.6Z" fill="#172614"/>
        <path d="M1660.593,982.949a50.305,50.305,0,0,0-10.485-.817c-6.536.071-13.422.426-13.422.426s.451-5.047.451-6.628c.19-4.756-1.534-9.117-.385-13.913,1.724-8.721,1.15-17.442.4-26.267-.015-1.589-.015-2.511-.015-2.511h22.868v2.5c0,.791,0,1.746-.007,2.835-1.987,11.231,2.035,23,.008,34.521,0,1.086,0,2.041,0,2.832C1660.005,977.511,1660.593,982.949,1660.593,982.949Z" fill="#172614"/>
        <path d="M1665.726,934.232s-1.108,17.756,8.659,22.334,24.132,15.915,31.026,14.389,0-41.451,0-41.451Z" fill="#172614"/>
        <path d="M1739.406,919.867c-6.072-2.5-123.22.562-116.187,9.882,1.294,1.713,5.465,2.816,11.478,3.49,2.956.331,6.664,2.9,10.387,3.052,5.226.2,10.78-2.1,16.939-2.153,6.591-.059,13.267,3.241,20.119,3.024,10.684-.336,21.433-4.249,30.167-4.508,10.319-.307,18.174-.361,20.967.294,11.156,2.616,30.375,13.143,30.375,13.143S1757.792,927.424,1739.406,919.867Z" fill="#38572b"/>
        <path d="M1638.1,934.232a24.3,24.3,0,0,0,7.748,1.524c3.448-.107,14.156-1.524,14.156-1.524s-10.763,3.208-14.786,2.989A12.992,12.992,0,0,1,1638.1,934.232Z" fill="#5f7254"/>
        <path d="M1669.64,935.163s5.511,3.017,11.067,3.017a71.146,71.146,0,0,0,20.4-3.948s-12.2,2.8-20.21,2.568A42.264,42.264,0,0,1,1669.64,935.163Z" fill="#5f7254"/>
        <path d="M1724.3,932.435a88.568,88.568,0,0,1,9.266,1.185c4.623.982,16.018,5.447,16.018,5.447s-11.078-5.8-15.661-6.5A39.31,39.31,0,0,0,1724.3,932.435Z" fill="#5f7254"/>
        <path d="M1669.72,929.242c0,.577-5.581,1.044-12.463,1.044s-12.461-.467-12.461-1.044,5.579-1.045,12.461-1.045S1669.72,928.664,1669.72,929.242Z" fill="#314c25"/>
        <ellipse cx="1719.117" cy="926.362" rx="12.461" ry="1.045" fill="#314c25"/>
        <path d="M1682.908,925.317c0,.577-3.515,1.045-7.852,1.045s-7.852-.468-7.852-1.045,3.515-1.045,7.852-1.045S1682.908,924.74,1682.908,925.317Z" fill="#314c25"/>
      </g>
    </g>
  </g>
</svg>
