<svg xmlns="http://www.w3.org/2000/svg" xmlns:xlink="http://www.w3.org/1999/xlink" width="2560" height="1600" viewBox="0 0 2560 1600">
  <defs>
    <linearGradient id="a" x1="1281.681" y1="1607.468" x2="1281.681" y2="-7.17" gradientUnits="userSpaceOnUse">
      <stop offset="0.491" stop-color="#fff"/>
      <stop offset="0.657" stop-color="#fcfefe"/>
      <stop offset="0.765" stop-color="#f4fbfa"/>
      <stop offset="0.856" stop-color="#e5f5f2"/>
      <stop offset="0.937" stop-color="#d0ede8"/>
      <stop offset="1" stop-color="#bae5de"/>
    </linearGradient>
    <linearGradient id="b" x1="1281.681" y1="1607.468" x2="1281.681" y2="1415.7" gradientUnits="userSpaceOnUse">
      <stop offset="0" stop-color="#1899ad"/>
      <stop offset="1" stop-color="#14bea5"/>
    </linearGradient>
  </defs>
  <g>
    <rect x="-5.128" y="-7.17" width="2573.617" height="1614.638" fill="url(#a)"/>
    <g>
      <path d="M2568.489,158.129h-229.82c-32.262,1.052-66.192-4.2-98.864-4.2-37.7,0-74.143,10.512-111.842,3.153C2024.918,137.1,1898,81.392,1812.544,168.641c-21.363,23.127-65.346,12.615-100.532,8.41-77.912-9.461-157.081-57.816-231.223-25.229-5.027,2.1,2.513,18.922-6.284,24.178-56.549,38.894-126.921,13.665-192.267,4.205-72.886-10.512-139.488-36.792-213.63-28.383-31.416,3.154-60.319,9.461-91.736,6.307-45.03-4.379-86.569-21.9-130.435-26.4a188.666,188.666,0,0,0-26.669-.93c-77.889,5.256-149.518,24.178-226.174,39.946-87.965,18.921-168.391,4.205-256.356-11.563-16.336-2.1-31.416-1.052-47.8-1.052H-5.128V121.036H289.245c59.3-1.8,113.339,20.274,171.145,24.479,28.9,1.051,56.549-9.461,86.708-14.717,15.08-2.1,30.16-2.1,45.24-5.256,70.372-13.665,138.231-14.716,208.141-18.972a243.6,243.6,0,0,1,25.945-.514c42.062,1.412,82.38,13.53,125.315,20.538,13.824,1.051,25.133,4.2,38.956,2.1,85.453-14.717,163.365-8.41,242.534,17.87,45.239,15.768,113.1,34.69,155.824,10.512-10.053-10.512-31.416-26.28-22.619-29.433,103.045-48.355,223.683-6.307,335.525,15.768,23.876,5.256,51.522,12.614,71.629-1.052,94.248-68.327,214.887-28.382,321.7-18.921,71.629,7.358,140.745-9.461,212.147-2.4h261.052Z" fill="#fff"/>
      <path d="M2568.489,167.833h-229.82c-32.262.5-66.192-2.019-98.864-2.019-37.7,0-74.143,5.047-111.842,1.514-103.045-9.589-229.967-36.335-315.419,5.551-21.363,11.1-65.346,6.057-100.532,4.038-77.912-4.543-157.081-27.756-231.223-12.112-5.027,1.009,2.513,9.084-6.284,11.608-56.549,18.671-126.921,6.559-192.267,2.018-72.886-5.047-139.488-17.663-213.63-13.626-31.416,1.514-60.319,4.542-91.736,3.028-45.03-2.1-86.569-10.513-130.435-12.674-8.778-.434-17.649-.615-26.669-.447-77.889,2.523-149.518,11.607-226.174,19.177-87.965,9.083-168.391,2.018-256.356-5.551-16.336-1.01-31.416-.5-47.8-.5H-5.128V150.025H289.245c59.3-.864,113.339,9.734,171.145,11.752,28.9.505,56.549-4.542,86.708-7.065,15.08-1.009,30.16-1.009,45.24-2.523,70.372-6.561,138.231-7.065,208.141-9.109,8.945-.312,17.5-.382,25.945-.246,42.062.677,82.38,6.5,125.315,9.859,13.824.5,25.133,2.019,38.956,1.01,85.453-7.065,163.365-4.037,242.534,8.579,45.239,7.569,113.1,16.654,155.824,5.046-10.053-5.046-31.416-12.616-22.619-14.13,103.045-23.214,223.683-3.028,335.525,7.57,23.876,2.523,51.522,6.055,71.629-.5,94.248-32.8,214.887-13.625,321.7-9.083,71.629,3.532,140.745-4.542,212.147-1.155h261.052Z" fill="#fff"/>
    </g>
  </g>
  <g>
    <g>
      <path d="M46.957,1246.781s15.3-75.513,25.718-184.325c3.35-34.976-2.3-80.551,1.956-118.826,3.1-27.854,47.195-42.705,50.741-70.538,5.324-41.772-29.628-96.044-23.387-133.576,11.964-71.94,19.756-135.541,40.293-160.84,88.768-109.353,50.258-431.011,121.2-411.6S356.17,598.09,377.7,629.155s56.049,3.882,60.885,128.138,74.275,163.084,76.38,229.1,23.585,260.392,23.585,260.392Z" fill="#98b67a"/>
      <path d="M521.148,986.389c-2.105-66.012-71.542-104.84-76.38-229.1s-39.352-97.075-60.886-128.138S340.605,186.493,269.661,167.079a50.375,50.375,0,0,0-11.583-.839c5.931,34.072,8.57,80.312,9.544,130.462.356,18.291,7.273,39.516,12.236,60.216-30.433,9.259-57.625,17.672-57.625,17.672s58.1,45.62,53.68,58.85-8.869,26.187-9.073,40.171c-.2,13.753,9.08,33.935,8.953,46.576-.2,20.353-9.727,32.127-9.485,48.3.484,32.312,1.337,55.417,6.333,60.671,5.461,5.74-94.6,15.442-89.961,21.746,5.982,8.134,116.4,13.01,121.091,21.5,4.394,7.945-67.577,16.1-64.234,23.8,3.165,7.287,81.7,14.14,83.983,20.732,6.722,19.377,9.79,34.768,10.007,40.363q.087,2.231.186,4.421c.427,9.388,1.028,18.238,1.774,26.611,1.481,16.613-37.375,47.3-34.973,60.588,2.015,11.155,41.3,20.8,43.672,30.2,2.894,11.452-86.571,21.052-83.225,29.335,4.909,12.147,102.685,21.7,106.667,32.068,4.267,11.109-200.132,23.15-199.616,39.344.474,14.834,213,26.479,217.35,39.348,7.5,22.173,12.961,47.3-10.47,95.618-12.688,26.162-27.921,131.956-27.921,131.956H544.733S523.253,1052.4,521.148,986.389Z" fill="#83996b"/>
      <path d="M524.856,986.389c-2.105-66.012-71.542-104.84-76.38-229.1s-39.352-97.075-60.886-128.138c-20.964-30.244-41.293-417.978-107.873-456.5C349.542,326.057,345,605.814,361.9,630.194c21.534,31.064,56.965,28.461,61.8,152.715s63.4,139.767,65.508,205.778S499,1246.781,499,1246.781h49.441S526.961,1052.4,524.856,986.389Z" fill="#6f8257"/>
      <path d="M122.8,881.916c9.873,3.451,84.186,19.845,82.95,23.08S88.63,938.5,76.327,936.632C82.976,914.487,110.58,901.329,122.8,881.916Z" fill="#83996b"/>
      <path d="M101.242,749.26s155.187,6.472,160.543,13.807-143.079,59.439-143.079,59.439S99.044,785.884,101.242,749.26Z" fill="#83996b"/>
      <path d="M73.241,1055.123c9.628.046,112.736,0,118.5,7.765s-79.106,40.553-80.753,53.5-52.938,65.124-52.938,65.124S63.422,1102.77,73.241,1055.123Z" fill="#83996b"/>
    </g>
    <g>
      <path d="M862.141,1246.781a732.772,732.772,0,0,1-13.873-112.229c-1.711-41.219,42.45-31.637,55.579-66.364,10.227-27.052-22.043-98.209-13.9-111.879,17.575-29.5,65.809-38.248,29.669-125.239-10.084-24.276,25.7-118.588,27.9-158.907,2.483-45.5-18.052-40.475-12.418-91.136,6.11-54.943,26.577-109.977,37.138-154.762,9.041-38.342-5.414-63.412,7.416-82.829,53.883-81.543,109.254-98.432,126.979,31.515s10.167,325.14,32.487,382.863,68.35,193.629,78.712,220.81,17.729,89.307,34.441,120.372,0,147.785,0,147.785Z" fill="#98b67a"/>
      <path d="M1254.746,1099c-16.712-31.065-24.08-93.191-34.441-120.372s-56.39-163.087-78.711-220.81-14.763-252.915-32.488-382.863c-10.9-79.883-34.975-104.867-61.464-94.466,19.531,4.292,28.055,28.461,31.16,52.435.988,7.634-53.691,8.748-53.62,15.693.032,3.171,55.107,12.7,55,15.531-.325,8.791-10.134,16.4-11.742,24.913-2.87,15.206,1.815,31.264,1.029,47.562-.507,10.5-8.3,20.006-10.917,30.09-1.58,6.075,2.347,12.814.612,18.83-1.362,4.718-61.207,9.451-62.413,14.172-2.4,9.382,54.241,18.776,53.767,28.365-.9,18.23-24.757,14.9-30.283,24.7-2.008,3.56,37.34,37.293,37.883,41.279a135.509,135.509,0,0,1,1.463,22.891c-1.017,29-23.929,32.315-28.221,54.573-1.066,5.531,16.284,33.938,15.3,38.926-4.356,22.115-7.327,38.64-3.95,47.372,3.645,9.426-53.56,20.24-46.033,28.239,5.119,5.44,75.133,6.78,78.56,16.393a127.5,127.5,0,0,1,5.126,21.468c3.946,23.827-36.321,45.183-29.846,63.733,3.968,11.371,50.331,27.983,55.27,35.1a125.367,125.367,0,0,0,14.019,16.6c6.2,6.322,11.226,10.862,13.112,15.809,1.813,4.756-49.661,14.433-50.265,25.668-.345,6.414,50.428,13.434,50.156,20.091-.4,9.938-.379,19.389,1.118,26.091,1.978,8.858-160.721,15.819-162.515,24.351-.575,2.73,137.861,23.231,137.2,25.884-3.325,13.3,15.733,9.6,21.012,19.413,3.054,5.678,11.553,14.8,19.241,25.549s14.565,23.124,14.378,35.3c-.649,42.284-7.378,89.267-7.378,89.267h98.881S1271.459,1130.061,1254.746,1099Z" fill="#83996b"/>
      <path d="M1257.218,1099c-16.712-31.065-24.08-93.191-34.441-120.372s-56.39-163.087-78.711-220.81S1129.3,504.9,1111.578,374.951c-6.98-51.175-20.063-80.478-35.656-90.157,13.22,23.359,19.824,76.908,21.3,142.079.356,15.733,7.642,36.559,7.68,53.1.045,19.249-7.2,34.3-7.381,53.724-.876,95.186-3.086,186.473,6.557,215.254,22.322,66.621,56.734,154.151,67.1,185.52s20.84,107.355,37.553,143.206,12.645,169.1,12.645,169.1h35.844S1273.931,1130.061,1257.218,1099Z" fill="#6f8257"/>
      <path d="M935.286,611.918s80.625.065,82.479,5.242-45.737,6.471-46.352,11.647,17.306,3.883,18.542,11.648-42.238,25.9-42.238,25.9.42-17.061-4.937-26.12C938.636,633.232,935,617.031,935.286,611.918Z" fill="#83996b"/>
      <path d="M918.738,828.321s66.685-.854,77.4,14.676-28.842,5.177-33.785,18.119,2.473,19.844-2.471,25.884-30.852,19.6-30.852,19.6,3.66-19.813,3.24-30.336C931.5,857.045,917.577,846.017,918.738,828.321Z" fill="#83996b"/>
      <path d="M888.711,960.9s79.409,15.831,73.64,22.734-46.969,0-47.793,12.942,9.065,17.257,9.065,26.746-18,25.153-18,25.153-6.443-33.846-9.451-43.056C891.965,992.535,887.063,966.94,888.711,960.9Z" fill="#83996b"/>
    </g>
    <g>
      <path d="M433.609,1246.781s2.027-22.919,5.31-53c2.356-21.6,29.4-55.277,32.767-78.425,4.365-30.036-14.712-48.074-9.764-58.109,14.07-28.537,44.137-46.7,51.4-106.364,3.006-24.694-17.439-50.317-16.864-79.179.462-23.182.841-44.146,12.647-68.742,9.01-18.774,18.619-36.7,24.7-51.833,7.992-19.913-8.025-33.478-5.139-69.558,1.117-13.969,21.888-47.757,22.935-62.1,4.348-59.641,9.755-117.624,30.139-132.95,37.954-28.537,159.806,110.217,160.08,180.26s-1.928,168.577,18.167,214.434-7.05,135.978-6.607,177.486,27.452,82.9,27.452,188.081Z" fill="#98b67a"/>
      <path d="M753.377,1058.7c-.443-41.508,26.7-131.629,6.607-177.486s-17.893-144.39-18.167-214.434c-.2-50.476-63.53-136.629-113.105-170.149,6.272,12.96,9.722,26.213,12.459,38.682,3.143,14.314-15.405,22.819-10.943,33.427,2.851,6.776,26.164,18.3,28.468,25.02,3.971,11.58-75.706,22.037-73.1,33.34,2.563,11.124,87.426,23.1,88.985,33.847,1.279,8.822-54.672,18.57-53.876,27.072,2.306,24.607,59.906,46.681,61.028,67.64.754,14.066-16.6,24.816-14.784,36.7,1.508,9.852,21.924,21.209,24.972,29.283,5.912,15.663-6.894,31.628-7.355,53.147-.245,11.342-97.772,28.374-98.96,40.231-1.24,12.386,108.385,23.543,106.75,35.634-2.382,17.608-4.835,34.439-6.357,49.135-.984,9.5-78.846,14.225-78.777,21.578.073,8.063,77.546,20.106,77.834,28.661.179,5.339.391,10.835.626,16.568.362,8.887.777,18.338,1.2,28.644.785,18.969,1.606,40.828,2.209,67.374.247,10.881.456,22.55.611,35.129.184,14.986.292,31.263.292,49.042h90.835C780.829,1141.6,753.822,1100.208,753.377,1058.7Z" fill="#83996b"/>
      <path d="M753.377,1058.7c-.443-41.508,26.7-131.629,6.607-177.486s-17.893-144.39-18.167-214.434c-.135-34.516-29.794-85.713-64.387-125.356,13.942,26.661,45.142,98.024,45.216,118.783.275,76.279-2.668,170.075,17.427,220.014s-11.388,139.009-10.943,184.211,18.4,91.758,10.41,182.349h41.289C780.829,1141.6,753.822,1100.208,753.377,1058.7Z" fill="#6f8257"/>
      <path d="M528.437,685.1s53.691-4,56.443-1.691-2.2,5.189-17.067,13.258-14.863,14.41-14.863,21.9-16.893,20.735-16.893,20.735S519.628,700.662,528.437,685.1Z" fill="#83996b"/>
      <path d="M496.609,864.745s137.748-3.079,141.051,0-83.61,15.8-89.665,22.721-6.607,14.411-9.909,29.4-24.763,34.021-24.763,34.021S492.205,884.1,496.609,864.745Z" fill="#83996b"/>
      <path d="M461.1,1061.406s23.308,6.917,39.41,6.917,47.9-4.756,54.5,0-16.515,11.673-28.9,16.86-13.627,11.673-9.91,13.834,12.387,2.6,11.974,7.783-56.021,4.363-56.021,4.363S460.545,1083.431,461.1,1061.406Z" fill="#83996b"/>
    </g>
    <g>
      <g>
        <path d="M2014.161,1246.782s21.564-400.963-7.565-435.127,32.564-107.934,89.74-138.995-25.465-88.431-10.532-135.891c9.879-31.405,33.652-46.911,46.643-73.769,8.243-17.04,29.141-142.513,36.517-157.98,33.386-70.007,58.882-122.011,85.348-138.791,41.527-26.331,100.544,312.531,99.352,591.585s72.591-19.936,82.895,46.075S2482.7,990.272,2482.7,990.272v256.51Z" fill="#98b67a"/>
        <path d="M2436.559,803.889c-10.3-66.011-84.087,232.979-82.895-46.075.857-200.571-29.391-432.038-61.893-536.595-12.717-40.914-25.78-62.395-37.459-54.99,25.17,21.938,22.2,82.766,27.675,110.415,4.387,22.139-21.256,75.224-17.318,100.8,2.129,13.828-86.064,20.467-84.105,35.083,3.015,22.5,96.054,53.459,98.576,77.357.5,4.688-25.3,36.98-24.828,41.709,2.7,26.986,31.342,27.024,33.271,54.885,1.995,28.823,3.536,57.9,4.544,86.806.993,28.489-159.563,14.359-159.68,42.085-.018,4.237,161,50.818,160.992,54.852-.039,18.1.021,34.2.181,48.5.28,25.2-84.8,45.643-81.427,60.549,10.337,45.706,60.881,11.6,100.555,52.231,14.731,15.083,44.918,33.393,55.758,42.286,12.416,10.179-188.432,32.911-187.911,45.719.671,16.443,165.146,37.742,164.585,54.365-1.142,33.815,45.532,40.113,41.551,69.878-8.425,63,7.6,103.034,7.6,103.034h88.37V990.272S2446.864,869.9,2436.559,803.889Z" fill="#83996b"/>
      </g>
      <g>
        <path d="M2331.06,733.918c4.7,156.005,34.606,145.167,40.123,145.2-14.168-18.154-17.677-84.2-17.519-121.306.857-200.571-29.391-432.038-61.893-536.595-12.717-40.914-25.78-62.395-37.459-54.99,25.17,21.938,22.2,82.766,27.675,110.415C2284.385,288.746,2321.193,406.548,2331.06,733.918Z" fill="#6f8257"/>
        <path d="M2436.559,803.889c14.119,130.2,3.687,165.564,1,186.383s17.63,35.063,17.63,35.063l-17.63,29.759,7.851,41.416-7.851,23.943,6.346,8.412-6.346,64.71v53.207h45.14V990.272S2464.536,865.993,2436.559,803.889Z" fill="#6f8257"/>
      </g>
      <path d="M2084.022,547.125s121.6-1.229,126.117,3.948-58.985,14.168-65.38,25.816,48.626,1.294,41.1,18.766-58.261,23.781-73.015,28.93C2107.371,608.381,2084.022,582.281,2084.022,547.125Z" fill="#83996b"/>
      <path d="M2001.785,803.889s163.514,5.392,170.286,15.877-99.809,29.552-102.818,47.671,41.377,22.648,29.34,33-77.11,38.173-77.11,38.173S2015.088,838.906,2001.785,803.889Z" fill="#83996b"/>
    </g>
    <g>
      <path d="M1385.338,1246.781s3.463-34.306,9.069-79.325c4.026-32.335,50.233-82.741,55.977-117.387,7.455-44.957-25.133-71.957-16.68-86.978,24.033-42.712,75.395-69.894,87.805-159.2,5.135-36.963-29.79-75.315-28.809-118.515.789-34.7,1.438-66.075,21.605-102.891,15.392-28.1,31.806-54.925,42.185-77.584,13.653-29.8-13.708-50.11-8.777-104.115,1.908-20.9,37.391-71.481,39.178-92.952,7.428-89.271,16.663-176.056,51.485-199,64.834-42.713,272.986,164.97,273.455,269.81s-3.292,252.323,31.033,320.961-12.043,203.532-11.284,265.66,46.893,124.084,46.893,281.516Z" fill="#98b67a"/>
      <path d="M1931.58,965.265c-.759-62.128,45.611-197.02,11.284-265.66s-30.564-216.119-31.033-320.961c-.338-75.551-108.525-204.5-193.211-254.677,10.715,19.4,16.607,39.237,21.284,57.9,5.37,21.426-26.315,34.155-18.692,50.032,4.869,10.145,44.693,27.4,48.628,37.451,6.783,17.332-129.324,32.984-124.875,49.9,4.378,16.652,149.344,34.575,152.007,50.664,2.186,13.2-93.393,27.792-92.033,40.519,3.94,36.832,102.334,69.872,104.25,101.242,1.288,21.055-28.359,37.144-25.255,54.925,2.577,14.747,37.452,31.747,42.658,43.831,10.1,23.444-11.774,47.341-12.564,79.549-.416,16.979-167.016,42.471-169.046,60.218-2.12,18.541,185.148,35.238,182.354,53.336-4.068,26.356-8.26,51.548-10.859,73.544-1.681,14.226-134.687,21.291-134.571,32.3.126,12.071,132.468,30.095,132.96,42.9.307,7.992.669,16.218,1.068,24.8.621,13.3,1.328,27.451,2.056,42.875,1.34,28.394,2.742,61.11,3.772,100.844.421,16.287.78,33.753,1.044,52.582.315,22.428.5,46.793.5,73.4h155.169C1978.473,1089.349,1932.339,1027.392,1931.58,965.265Z" fill="#83996b"/>
      <path d="M1931.58,965.265c-.759-62.128,45.611-197.02,11.284-265.66s-30.564-216.119-31.033-320.961c-.231-51.663-50.9-128.293-109.989-187.631,23.815,39.905,77.114,146.721,77.241,177.793.468,114.175-4.558,254.563,29.768,329.313s-19.453,208.065-18.693,275.725,31.425,137.342,17.784,272.937h70.531C1978.473,1089.349,1932.339,1027.392,1931.58,965.265Z" fill="#6f8257"/>
      <path d="M1547.327,406.062s91.715-5.98,96.417-2.529-3.762,7.767-29.153,19.844-25.391,21.569-25.391,32.787-28.857,31.036-28.857,31.036S1532.279,429.358,1547.327,406.062Z" fill="#83996b"/>
      <path d="M1492.957,674.955s235.306-4.608,240.949,0-142.826,23.656-153.17,34.009-11.286,21.571-16.928,44-42.3,50.922-42.3,50.922S1485.434,703.93,1492.957,674.955Z" fill="#83996b"/>
      <path d="M1432.3,969.314s39.816,10.354,67.324,10.354,81.816-7.118,93.1,0-28.213,17.472-49.372,25.237-23.276,17.472-16.928,20.707,21.16,3.883,20.455,11.648-95.7,6.532-95.7,6.532S1431.351,1002.281,1432.3,969.314Z" fill="#83996b"/>
    </g>
  </g>
  <g>
    <rect x="-5.128" y="1237.523" width="2573.617" height="369.945" fill="#202f18"/>
    <rect x="1406.646" y="1237.523" width="199.807" height="369.945" fill="#172614"/>
    <rect x="614.957" y="1237.523" width="165.878" height="369.945" fill="#172614"/>
    <path d="M1057.3,1393.636v213.832H891.42v-264.99c0-19.623,20.945-30.134,37.7-30.134h56.968C1002.164,1312.344,1057.3,1321.454,1057.3,1393.636Z" fill="#172614"/>
    <path d="M1221.213,1405.312v202.156h-91.029V1370.621c0-13.306,11.493-20.434,20.688-20.434h31.264C1190.957,1350.187,1221.213,1356.364,1221.213,1405.312Z" fill="#172614"/>
    <rect x="401.327" y="1237.523" width="120.638" height="369.945" fill="#172614"/>
    <rect x="200.263" y="1237.523" width="103.045" height="369.945" fill="#172614"/>
    <rect x="1730.862" y="1237.523" width="139.488" height="369.945" fill="#172614"/>
    <rect x="2019.891" y="1237.523" width="196.037" height="369.945" fill="#172614"/>
    <rect x="2334.053" y="1237.523" width="82.939" height="369.945" fill="#172614"/>
    <path d="M2568.489,1284.852H2465.416c-18.264.16-38.371-7.2-57.221-2.993-60.319,13.665-120.638,11.563-178.444-6.307-10.053-3.154-21.363-3.154-32.673-2.1-104.3,13.666-207.347,30.485-310.392,3.154-38.956-10.512-76.655,7.358-116.868,12.614-31.416,4.2-61.576,5.256-91.736-2.1-90.478-23.127-179.7,5.256-268.922,5.256-46.5,0-91.736-12.615-138.232-13.666-98.018-4.2-197.294,6.307-295.312,5.256-116.869-2.1-233.737,0-350.6,9.461-28.9,2.1-55.293-9.461-85.452-13.666-38.957-5.256-74.143,3.154-110.586,11.564-26.389,6.307-52.072,1.379-77.578-5.026-8.5-2.136-16.984-4.435-25.467-6.538-10.053-3.153-18.85-2.1-28.9-2.1-43.982-2.1-87.965,9.461-132.447,7.2H-5.128V1218.73h342.9c66.073,1.108,131.419-15.711,199.278-9.4,12.567,1.051,25.133,9.461,37.346,9.4H825.769c15.071,0,16.433,4.787,25.753,4.787s24.818-6.832,47.438-1.576c5.027,1.051,11.31,0,16.337,0,17.593-1.052,25.761-3.942,42.1-3.942,23.877,1.051,25.555,7.779,49.493,2.489,2.239-.017,28.571-1.758,30.822-1.758H1369.9c2.449,0,4.883,0,7.337-.017,36.945-4.131,70.875-6.233,107.318,1.125,8.8,2.1,18.849-1.051,29.3-1.108h39.059c52.275,2.159,103.8-5.2,156.577-5.2,26.389,1.051,49.009,13.666,76.655,8.41a335.209,335.209,0,0,1,44.867-3.211h295.944c43.724-.994,88.963-.994,132.946-3.1,27.646-1.051,52.779,8.41,81.5,3.1h227.078Z" fill="#38572b"/>
    <path d="M71.248,1397.842s-22.62-29.435-10.891-49.758,10.053-38.543,18.43-39.244,12.567,11.213,9.216,28.032S83.591,1422.064,71.248,1397.842Z" fill="#172614"/>
    <path d="M105.6,1361.4s-14.242,28.5-7.54,41.58,10.89,22.193,16.755,15.184S112.729,1342.607,105.6,1361.4Z" fill="#172614"/>
    <path d="M1287.265,1312.344s41.469,13.665,42.726,31.535,7.54,69.379-12.567,64.123S1279.725,1332.316,1287.265,1312.344Z" fill="#172614"/>
    <path d="M2486.526,1315.848s-5.863,62.371,6.7,72.883S2512.5,1298.329,2486.526,1315.848Z" fill="#172614"/>
    <path d="M2509.574,1356.435s-4.7,49.958,5.369,58.378S2530.376,1342.4,2509.574,1356.435Z" fill="#172614"/>
    <path d="M148.741,1284.852s28.8-.278,40.422-.278c17.8-1.05,60.377-5.162,60.377-5.162s-32.626,6.52-49.591,8.1S148.741,1284.852,148.741,1284.852Z" fill="#5f7254"/>
    <path d="M352.417,1286.549s29.851,4.772,47.863,4.772,44.32-3.581,44.32-3.581-21.91,9.362-43.273,9.362S352.417,1286.549,352.417,1286.549Z" fill="#5f7254"/>
    <path d="M564.629,1284.672s27.08,6.473,49.7,6.473,60.328-1.308,60.328-1.308-36.871,6.038-59.7,6.038S564.629,1284.672,564.629,1284.672Z" fill="#5f7254"/>
    <path d="M1212.181,1277.737s38.155-2.711,69.5-2.711,77.213,12.877,124.023,12.877,97.4-2.561,97.4-2.561-48.392,10.182-96.459,10.182-82.8-14.191-124.965-14.191S1212.181,1277.737,1212.181,1277.737Z" fill="#5f7254"/>
    <path d="M1652.729,1281.913s29.052,7.48,77.714,7.48,109.674-14.376,109.674-14.376-56.058,22.085-109.255,22.085S1652.729,1281.913,1652.729,1281.913Z" fill="#5f7254"/>
    <path d="M1897.6,1279.332a1202.982,1202.982,0,0,0,122.289,6.728c64.089,0,175.207-12.351,175.207-12.351s-85.147,21.465-175.207,21.465S1897.6,1279.332,1897.6,1279.332Z" fill="#5f7254"/>
    <path d="M2260,1283.415s24.891,4.225,73.114,4.225,70.058-4.225,70.058-4.225-26.7,11.759-69.116,11.759S2260,1283.415,2260,1283.415Z" fill="#5f7254"/>
    <ellipse cx="189.582" cy="1248.388" rx="40.841" ry="2.687" fill="#314c25"/>
    <path d="M292.627,1258.091c0,1.484-9.645,2.687-21.543,2.687s-21.544-1.2-21.544-2.687,9.645-2.688,21.544-2.688S292.627,1256.607,292.627,1258.091Z" fill="#314c25"/>
    <path d="M335.714,1251.075c0,1.485-9.645,2.688-21.544,2.688s-21.543-1.2-21.543-2.688,9.645-2.687,21.543-2.687S335.714,1249.591,335.714,1251.075Z" fill="#314c25"/>
    <ellipse cx="572.22" cy="1235.997" rx="40.841" ry="2.687" fill="#314c25"/>
    <path d="M675.266,1245.7c0,1.485-9.646,2.688-21.544,2.688s-21.543-1.2-21.543-2.688,9.645-2.687,21.543-2.687S675.266,1244.216,675.266,1245.7Z" fill="#314c25"/>
    <path d="M774.732,1265.63c0,1.484-9.645,2.688-21.543,2.688s-21.544-1.2-21.544-2.688,9.646-2.688,21.544-2.688S774.732,1264.146,774.732,1265.63Z" fill="#314c25"/>
    <path d="M718.352,1238.685c0,1.484-9.645,2.687-21.543,2.687s-21.543-1.2-21.543-2.687,9.645-2.688,21.543-2.688S718.352,1237.2,718.352,1238.685Z" fill="#314c25"/>
    <path d="M973.1,1255.927c0,1.484-18.285,2.687-40.841,2.687s-40.841-1.2-40.841-2.687,18.285-2.688,40.841-2.688S973.1,1254.443,973.1,1255.927Z" fill="#314c25"/>
    <path d="M1035.307,1265.63c0,1.484-9.646,2.688-21.544,2.688s-21.543-1.2-21.543-2.688,9.645-2.688,21.543-2.688S1035.307,1264.146,1035.307,1265.63Z" fill="#314c25"/>
    <path d="M1078.393,1258.614c0,1.485-9.645,2.688-21.543,2.688s-21.543-1.2-21.543-2.688,9.645-2.687,21.543-2.687S1078.393,1257.13,1078.393,1258.614Z" fill="#314c25"/>
    <path d="M1237.113,1240.849c0,1.484-18.285,2.687-40.841,2.687s-40.841-1.2-40.841-2.687,18.285-2.688,40.841-2.688S1237.113,1239.364,1237.113,1240.849Z" fill="#314c25"/>
    <ellipse cx="1277.773" cy="1250.552" rx="21.543" ry="2.687" fill="#314c25"/>
    <path d="M1342.4,1243.536c0,1.485-9.645,2.688-21.544,2.688s-21.543-1.2-21.543-2.688,9.644-2.687,21.543-2.687S1342.4,1242.052,1342.4,1243.536Z" fill="#314c25"/>
    <path d="M1534.586,1265.63c0,1.484-9.644,2.688-21.543,2.688s-21.544-1.2-21.544-2.688,9.645-2.688,21.544-2.688S1534.586,1264.146,1534.586,1265.63Z" fill="#314c25"/>
    <path d="M1747.915,1253.763c0,1.484-18.285,2.687-40.841,2.687s-40.841-1.2-40.841-2.687,18.285-2.688,40.841-2.688S1747.915,1252.279,1747.915,1253.763Z" fill="#314c25"/>
    <path d="M1810.119,1263.466c0,1.484-9.645,2.688-21.544,2.688s-21.543-1.2-21.543-2.688,9.645-2.688,21.543-2.688S1810.119,1261.982,1810.119,1263.466Z" fill="#314c25"/>
    <path d="M1853.206,1256.45c0,1.485-9.645,2.688-21.544,2.688s-21.543-1.2-21.543-2.688,9.644-2.687,21.543-2.687S1853.206,1254.966,1853.206,1256.45Z" fill="#314c25"/>
    <path d="M2204.124,1240.849c0,1.484-18.285,2.687-40.841,2.687s-40.841-1.2-40.841-2.687,18.285-2.688,40.841-2.688S2204.124,1239.364,2204.124,1240.849Z" fill="#314c25"/>
    <ellipse cx="2244.784" cy="1250.552" rx="21.543" ry="2.687" fill="#314c25"/>
    <path d="M2309.415,1243.536c0,1.485-9.645,2.688-21.544,2.688s-21.543-1.2-21.543-2.688,9.644-2.687,21.543-2.687S2309.415,1242.052,2309.415,1243.536Z" fill="#314c25"/>
    <ellipse cx="2512.054" cy="1261.826" rx="21.543" ry="2.687" fill="#314c25"/>
    <path d="M2551.566,1253.239c0,1.485-9.644,2.688-21.543,2.688s-21.544-1.2-21.544-2.688,9.645-2.687,21.544-2.687S2551.566,1251.755,2551.566,1253.239Z" fill="#314c25"/>
  </g>
  <g>
    <rect x="-5.128" y="1415.7" width="2573.617" height="191.768" fill="url(#b)"/>
    <g>
      <polygon points="2568.489 1607.468 -5.128 1607.468 -5.128 1543.379 1054.855 1543.379 1125.845 1547.217 1183.659 1543.379 1513.53 1543.379 1545.575 1552.451 1604.009 1543.379 2568.489 1543.379 2568.489 1607.468" fill="#2d8ba5"/>
      <g>
        <g>
          <path d="M2568.489,1557.189h-20.132c-32.444,0-94.228-.336-119.358.925a96.6,96.6,0,0,1-10.369.335c-3.457-.063-6.91-.257-10.368-.492-8.168-1.1-16.966-.472-25.763-.472-45.236,1.258-101.788,23.281-142,1.886-13.821-6.92-43.983,0-65.346-3.774-54.036-10.069-104.3,1.888-158.336,6.292-10.052.629-20.105.629-28.9-1.257-55.292-8.812-113.1-8.812-170.9-4.407-21.363,1.26-37.7-6.29-57.809-9.437-5.021-.631-10.052.628-11.306,2.517-8.247,4.914-17.722,7.374-27.849,8.294-3.738.286-7.445.409-11.355.388-42.479-1.762-82.271-1.918-126.255-7.581-20.108-1.889-18.012,5.819-23.038,11.483-7.54,8.809-32.672,5.663-50.265,3.146-86.71-12.584-175.932-10.7-263.9-8.182-76.654,2.518-155.823,3.779-233.738,3.149-13.82-.631-32.67-3.149-28.9-11.958-65.348,10.07-128.178,12.588-198.551,8.181-49.01-3.145-113.1,13.843-164.621.628-28.9-7.548-62.831,4.407-95.506,2.518-3.768-.628-11.308,0-11.308-2.518-1.258-3.146,3.77-8.177-1.258-9.437-46.495-6.923-92.992,8.181-138.23,15.1-8.8,1.26-20.107-1.258-30.161-.629-11.309.629-20.105,5.663-30.157,6.922-30.16,3.776-57.806-4.4-87.966-7.551-15.08-1.889-30.16,0-45.205.946q-5.62.043-11.214-.114c-29.837-.792-78.042-4.9-150.091-4.9H-5.128v-7.544H20.054c47.286,0,119.986,5.729,150.827,6.47,4.406.106,8.826.136,13.264.058,29.384-3.722,55.775.68,80.907,6.345,26.389,6.293,42.727-10.7,64.09-8.811,59.061,5.664,113.1-8.179,168.391-15.1,3.769-.629,8.795,0,11.308,1.885,33.928,24.542,92.993,10.068,139.488,6.923,3.771,0,5.025,1.889,5.025,3.145-1.254,5.036,3.772,10.071,15.082,9.441,67.858-3.149,131.949-13.845,204.832-6.295,40.213,3.778,86.71-16.358,123.152-6.919,52.779,13.214,111.843,7.55,165.875,5.032a285.514,285.514,0,0,1,40.214.631c18.851,1.887,33.93-5.663,50.264-5.035,62.835,1.889,124.412-1.259,187.243,3.774,27.646,2.517,56.548,15.106,82.937,6.924,13.824-4.407,27.647-10.07,43.985-10.07,50.266.632,100.532,3.776,150.931,2.495,3.143-.266,6.147-.611,9.134-1,8.64-1.18,17.121-2.753,25.919-4.013,16.335-1.886,33.927,0,50.264,0,15.079.629,23.877,6.923,40.213,5.662,46.492-3.774,95.506-8.809,138.23-.629,18.85,3.777,38.955,6.924,59.06,5.036,31.419-2.517,59.065-10.7,90.482-6.921,42.726,4.4,81.683-.632,123.154,2.514,11.309.63,8.794,9.442,17.592,11.328,40.211,7.55,79.167-11.957,121.895-10.7,5.026,0,11.308-.63,16.661.422,2.628.139,5.272.243,7.932.288s5.352.025,8.079-.079c25.13-1.261,106.179-2.806,142.005-2.806Z" fill="#8cb6ce"/>
          <g>
            <path d="M2568.489,1549.711H2489c-143.717,0-227,4.5-267.77,4.5-31,0-69.539-18.961-122.735-12.462-70.775,8.652-138.23,16.362-211.115,6.292-23.876-3.146-49.012,4.407-75.4,1.261-30.16-4.407-57.8-6.924-89.22-5.034-84.2,5.034-165.878,13.843-252.586,5.664-21.363-1.891-41.47.626-62.834.626a102.486,102.486,0,0,1-31.415-4.4,154.815,154.815,0,0,0-59.062-3.776c-136.975,16.362-270.181,6.924-405.9,3.147-17.594-.63-33.93,5.662-51.522,5.033a67.312,67.312,0,0,1-20.107-5.033,72.515,72.515,0,0,0-26.39-3.147c-32.672.63-59.063,13.216-92.991,11.326-18.85-1.256-36.443-3.146-54.036-3.146-38.955-.626-72.257-10.068-111.213-10.695-30.16-.629-63.462,10.069-92.363,10.069-21.362-.63-50.9-9.127-74.77-6.608-54.037,6.29-87.357,13.756-147.656,9.124s-116.241-2.74-198.552-2.74h-46.5v-14.654h28.9c57.783,0,186.613,2.381,217.4,5.486s55.292,1.209,74.142.583c125.666-5.037,251.329-15.734,379.507,0,33.929,4.4,66.6-1.889,99.275-6.291,45.239-5.036,67.859,7.966,113.1,2.3,7.541-.629,15.5-11.326,34.252-8.678,51.191,7.224,140.84,18.956,217.5,15.182,55.29-3.149,124.407-15.516,178.443-16.774,42.726-1.259,85.032,7.335,129.017,5.449,26.386-1.262,45.237,5.662,66.6,13.211,6.285,1.888,15.081,1.888,23.878,1.26,85.451-12.585,168.39-17.62,256.354-13.216,22.625.631,42.729-4.4,64.093-5.662,15.078-.628,30.156-1.257,41.467,3.145,66.6,25.17,147.029,1.262,217.4-3.145,17.592-1.257,33.925,3.145,50.231,5.477,4.412.608,42.838,6.574,47.364,7.156,27.179,3.47,118.963-5.486,258.262-5.486h76.432Z" fill="#d6f7ef"/>
            <path d="M2221.233,1549.807c-31,0-69.539-18.961-122.735-12.458-70.775,8.65-138.23,16.358-211.115,6.293-23.876-3.149-49.012,4.4-75.4,1.256-30.16-4.4-57.8-6.919-89.22-5.032-56.389,3.373-111.65,8.427-168.048,8.949a102.064,102.064,0,0,1-13.063.043c-23.542-.093-47.314-1.05-71.475-3.33-21.363-1.886-41.47.629-62.834.629a102.547,102.547,0,0,1-31.415-4.4,154.735,154.735,0,0,0-59.062-3.773c-136.975,16.359-270.181,6.919-405.9,3.147-17.594-.633-33.93,5.662-51.522,5.031a67.4,67.4,0,0,1-20.107-5.031,72.472,72.472,0,0,0-26.39-3.147c-32.672.629-59.063,13.211-92.991,11.326-18.85-1.261-36.443-3.148-54.036-3.148-38.955-.629-72.257-10.068-111.213-10.695-30.16-.627-63.462,10.066-92.363,10.066-15.966-.469-36.492-5.33-55.811-6.708q-14.972.7-29.932,1.427c-47.816,5.948-80.576,12.106-136.683,7.8-60.3-4.629-116.241-2.74-198.552-2.74h-46.5v6.293h46.5c82.311,0,138.253-1.892,198.552,2.741s93.619-2.832,147.656-9.123c23.874-2.518,53.408,5.975,74.77,6.605,28.9,0,62.2-10.694,92.363-10.068,38.956.629,72.258,10.068,111.213,10.7,17.593,0,35.186,1.887,54.036,3.146,33.928,1.888,60.319-10.7,92.991-11.326a72.494,72.494,0,0,1,26.39,3.145,67.374,67.374,0,0,0,20.107,5.035c17.592.629,33.928-5.663,51.522-5.035,135.716,3.774,268.922,13.216,405.9-3.145a154.7,154.7,0,0,1,59.062,3.773,102.547,102.547,0,0,0,31.415,4.407c21.364,0,41.471-2.516,62.834-.631,86.708,8.182,168.389-.63,252.586-5.663,31.418-1.886,59.06.631,89.22,5.033,26.389,3.148,51.525-4.4,75.4-1.255,72.885,10.067,140.34,2.357,211.115-6.293,53.2-6.5,91.734,12.458,122.735,12.458,40.775,0,124.053-4.5,267.77-4.5h79.486V1545.3H2489C2345.286,1545.3,2262.008,1549.807,2221.233,1549.807Z" fill="#e7ffff"/>
          </g>
        </g>
        <path d="M288.928,1530.63c0,1.21-4.359,2.2-9.738,2.2s-9.74-.991-9.74-2.2,4.359-2.206,9.74-2.206S288.928,1529.411,288.928,1530.63Z" fill="#f7fbf7"/>
        <path d="M46.92,1524.648c0,1.218-4.361,2.2-9.74,2.2s-9.738-.984-9.738-2.2,4.359-2.2,9.738-2.2S46.92,1523.432,46.92,1524.648Z" fill="#f7fbf7"/>
        <path d="M722.157,1532.831c0,1.214-4.361,2.2-9.739,2.2s-9.739-.987-9.739-2.2,4.36-2.2,9.739-2.2S722.157,1531.614,722.157,1532.831Z" fill="#f7fbf7"/>
        <path d="M1141.772,1534.167c0,1.214-7.523,2.2-16.807,2.2s-16.807-.989-16.807-2.2,7.523-2.2,16.807-2.2S1141.772,1532.951,1141.772,1534.167Z" fill="#f7fbf7"/>
        <path d="M1564.006,1534.167c0,1.214-6.671,2.2-14.9,2.2s-14.9-.989-14.9-2.2,6.671-2.2,14.9-2.2S1564.006,1532.951,1564.006,1534.167Z" fill="#f7fbf7"/>
        <path d="M1590.967,1531.231c0,.523-2.881.951-6.437.951s-6.437-.428-6.437-.951,2.881-.952,6.437-.952S1590.967,1530.705,1590.967,1531.231Z" fill="#f7fbf7"/>
        <path d="M1668.462,1524.966c0,.523-2.882.95-6.441.95s-6.437-.427-6.437-.95,2.883-.955,6.437-.955S1668.462,1524.44,1668.462,1524.966Z" fill="#f7fbf7"/>
        <path d="M304.143,1528.424c0,.695-2.492,1.261-5.565,1.261s-5.566-.566-5.566-1.261,2.493-1.256,5.566-1.256S304.143,1527.729,304.143,1528.424Z" fill="#f7fbf7"/>
        <path d="M439.006,1523.39c0,.695-2.49,1.258-5.564,1.258s-5.565-.563-5.565-1.258,2.492-1.259,5.565-1.259S439.006,1522.7,439.006,1523.39Z" fill="#f7fbf7"/>
      </g>
    </g>
    <path d="M873.825,1465.318c0,1.3-6.377,2.348-14.243,2.348s-14.241-1.051-14.241-2.348,6.376-2.347,14.241-2.347S873.825,1464.022,873.825,1465.318Z" fill="#f7fbf7"/>
    <path d="M932.261,1455.34c0,1.3-6.376,2.348-14.242,2.348s-14.242-1.051-14.242-2.348,6.377-2.347,14.242-2.347S932.261,1454.044,932.261,1455.34Z" fill="#f7fbf7"/>
    <path d="M145.333,1467.666c0,1.3-6.376,2.348-14.242,2.348s-14.242-1.051-14.242-2.348,6.377-2.348,14.242-2.348S145.333,1466.37,145.333,1467.666Z" fill="#f7fbf7"/>
    <path d="M71.225,1459.413c0,1.3-6.376,2.347-14.242,2.347s-14.241-1.051-14.241-2.347,6.376-2.348,14.241-2.348S71.225,1458.116,71.225,1459.413Z" fill="#f7fbf7"/>
    <path d="M1429.891,1455.34c0,1.3-6.377,2.348-14.242,2.348s-14.243-1.051-14.243-2.348,6.377-2.347,14.243-2.347S1429.891,1454.044,1429.891,1455.34Z" fill="#f7fbf7"/>
    <path d="M1210.514,1446.745c0,1.3-6.377,2.348-14.242,2.348s-14.243-1.052-14.243-2.348,6.377-2.348,14.243-2.348S1210.514,1445.448,1210.514,1446.745Z" fill="#f7fbf7"/>
    <path d="M1162.413,1439.343c0,1.3-9.5,2.348-21.224,2.348s-21.226-1.051-21.226-2.348,9.5-2.347,21.226-2.347S1162.413,1438.047,1162.413,1439.343Z" fill="#f7fbf7"/>
    <path d="M2021.9,1467.666c0,1.3-6.377,2.348-14.242,2.348s-14.243-1.051-14.243-2.348,6.377-2.348,14.243-2.348S2021.9,1466.37,2021.9,1467.666Z" fill="#f7fbf7"/>
    <path d="M1998.318,1434.442c0,1.3-6.377,2.347-14.242,2.347s-14.242-1.051-14.242-2.347,6.376-2.348,14.242-2.348S1998.318,1433.145,1998.318,1434.442Z" fill="#f7fbf7"/>
    <path d="M2552.319,1431.365c0,1.3-6.377,2.348-14.242,2.348s-14.243-1.052-14.243-2.348,6.377-2.348,14.243-2.348S2552.319,1430.068,2552.319,1431.365Z" fill="#f7fbf7"/>
    <path d="M2524.007,1442.217c0,1.3-6.376,2.347-14.241,2.347s-14.243-1.051-14.243-2.347,6.376-2.348,14.243-2.348S2524.007,1440.92,2524.007,1442.217Z" fill="#f7fbf7"/>
  </g>
  <g>
    <g>
      <g>
        <path d="M561.436,1450.921s175.827-.963,196.557,10.489c9.7,5.357-61.424,2.661-57.585,12.295s110.563.008,102.117,7.88-74.971-4.676-127.07,5.395c-22.285,4.306-30.237,11.215-84.408,12.433-29.369.661-71.991,8.168-91.343,8.51-33.093.586-97.2-8.247-125.55-13.969-46.855-9.46-69.93-3.854-35.379-9.314,29.4-4.645-89.265-10.412-99.43-15.414-13.052-6.422,17.709-12.162,82.538-12.162S487.263,1451.163,561.436,1450.921Z" fill="#2d8ba5"/>
        <path d="M221.893,1465.318c0,2.158-10.446,3.908-23.332,3.908s-23.333-1.75-23.333-3.908,10.447-3.908,23.333-3.908S221.893,1463.161,221.893,1465.318Z" fill="#2d8ba5"/>
        <path d="M796.389,1461c0,1.829-6.107,3.312-13.639,3.312s-13.638-1.483-13.638-3.312,6.106-3.315,13.638-3.315S796.389,1459.171,796.389,1461Z" fill="#2d8ba5"/>
        <path d="M845.341,1480.954c0,1.7-7.137,3.074-15.943,3.074s-15.941-1.375-15.941-3.074,7.137-3.073,15.941-3.073S845.341,1479.257,845.341,1480.954Z" fill="#2d8ba5"/>
      </g>
      <g>
        <path d="M616.121,1486.543c-16.271,2.762-37.771-8.557-57.021-6.5-16.77,1.788-42.427,5.637-59.4,5.637-23.492,0-37.184-3.687-57.237-6.5-11.029-1.549-35.176,3.528-44.208,1.768-24.9-4.858-36.07-8.7-36.07-8.7s-4.019-36.98,9.363-54.567,15.561-47.944,15.561-47.944l215.746,1.8,48.38,33.8s13.443,34.751,9.849,66.9C653.107,1472.243,643.386,1481.916,616.121,1486.543Z" fill="#202f18"/>
        <path d="M375.9,1420.987c13.01-17.1,13.278-45.813,13.4-47.417l-2.188-3.838s-4.8,30.355-18.176,47.944-9.362,54.567-9.362,54.567,8.983,3.372,14.58,3.372C374.155,1475.615,362.515,1438.574,375.9,1420.987Z" fill="#303f27"/>
        <path d="M654.08,1426.907s1.195,14.619.759,46.8a18.666,18.666,0,0,0,6.249-1.462,133.06,133.06,0,0,0-9.849-66.9C651.239,1410.992,654.08,1426.907,654.08,1426.907Z" fill="#303f27"/>
        <path d="M577.385,1369.732s-1.842,57.729,3.19,64.343,5.033,23.451,12.94,27.059,15.1-29.182,21.566-35.637,9.755-44.688,9.755-44.688Z" fill="#172614"/>
        <path d="M457.826,1481.585s-7.411-1.835-19.679-1.691-25.19.882-25.19.882.843-10.441.843-13.711c.36-9.838-2.876-18.858-.719-28.781,3.235-18.04,2.157-36.08.751-54.336-.032-3.287-.032-5.194-.032-5.194h42.919v5.177c0,1.636,0,3.612-.013,5.865-3.728,23.231,3.82,47.586.016,71.411,0,2.246,0,4.221,0,5.858C456.719,1470.335,457.826,1481.585,457.826,1481.585Z" fill="#172614"/>
        <path d="M467.456,1380.809s-2.078,36.729,16.253,46.2,45.288,32.924,58.227,29.766,0-85.746,0-85.746Z" fill="#172614"/>
        <path d="M605.736,1351.091c-11.395-5.165-231.254,1.164-218.052,20.445,2.426,3.544,10.254,5.822,21.541,7.218,5.547.683,12.5,6.008,19.492,6.312,9.808.425,20.233-4.338,31.79-4.453,12.369-.121,24.9,6.7,37.758,6.257,20.053-.7,40.227-8.791,56.617-9.327,19.365-.633,34.108-.748,39.351.607,20.935,5.414,57.006,27.188,57.006,27.188S640.241,1366.726,605.736,1351.091Z" fill="#38572b"/>
        <path d="M415.612,1380.809s8.073,3.379,14.543,3.154,26.564-3.154,26.564-3.154-20.2,6.634-27.748,6.182S415.612,1380.809,415.612,1380.809Z" fill="#5f7254"/>
        <path d="M474.805,1382.733s10.341,6.242,20.765,6.242,29.136-4.153,38.291-8.166c0,0-22.9,5.8-37.931,5.309C482.72,1385.691,474.805,1382.733,474.805,1382.733Z" fill="#5f7254"/>
        <path d="M577.385,1377.09a151.35,151.35,0,0,1,17.388,2.451c8.676,2.032,30.063,11.268,30.063,11.268s-20.793-12-29.39-13.457A67.066,67.066,0,0,0,577.385,1377.09Z" fill="#5f7254"/>
        <path d="M474.951,1370.484c0,1.194-10.471,2.161-23.387,2.161s-23.387-.967-23.387-2.161,10.471-2.161,23.387-2.161S474.951,1369.29,474.951,1370.484Z" fill="#314c25"/>
        <path d="M591.047,1364.527c0,1.2-10.47,2.162-23.387,2.162s-23.387-.966-23.387-2.162,10.47-2.161,23.387-2.161S591.047,1363.333,591.047,1364.527Z" fill="#314c25"/>
        <path d="M499.7,1362.366c0,1.194-6.6,2.161-14.737,2.161s-14.737-.967-14.737-2.161,6.6-2.162,14.737-2.162S499.7,1361.172,499.7,1362.366Z" fill="#314c25"/>
      </g>
    </g>
    <g>
      <g>
        <path d="M1750.794,1431.893s140.946-.772,157.563,8.408c7.773,4.294-49.237,2.133-46.161,9.856s88.63.005,81.859,6.317-60.1-3.748-101.861,4.324c-17.864,3.452-24.239,8.99-67.664,9.967-23.542.529-57.709,6.547-73.222,6.821-26.527.47-77.918-6.61-100.642-11.2-37.562-7.583-56.058-3.09-28.362-7.466,23.568-3.724-71.556-8.347-79.705-12.357-10.463-5.148,14.2-9.749,66.166-9.749S1691.335,1432.087,1750.794,1431.893Z" fill="#2d8ba5"/>
        <path d="M1478.609,1443.434c0,1.73-8.374,3.132-18.7,3.132s-18.7-1.4-18.7-3.132,8.373-3.133,18.7-3.133S1478.609,1441.7,1478.609,1443.434Z" fill="#2d8ba5"/>
        <path d="M1939.136,1439.975c0,1.466-4.895,2.654-10.933,2.654s-10.933-1.188-10.933-2.654,4.9-2.658,10.933-2.658S1939.136,1438.506,1939.136,1439.975Z" fill="#2d8ba5"/>
        <path d="M1978.377,1455.967c0,1.363-5.72,2.465-12.78,2.465s-12.779-1.1-12.779-2.465,5.722-2.462,12.779-2.462S1978.377,1454.607,1978.377,1455.967Z" fill="#2d8ba5"/>
      </g>
      <g>
        <path d="M1794.63,1460.447c-13.043,2.215-30.277-6.858-45.709-5.213-13.443,1.433-34.01,4.518-47.613,4.518-18.832,0-29.807-2.955-45.882-5.213-8.841-1.242-28.2,2.829-35.438,1.417-19.96-3.894-28.914-6.972-28.914-6.972s-3.222-29.643,7.506-43.742,12.473-38.432,12.473-38.432L1784,1368.256l38.782,27.1s10.776,27.857,7.9,53.632C1824.278,1448.984,1816.487,1456.738,1794.63,1460.447Z" fill="#202f18"/>
        <path d="M1602.062,1407.9c10.43-13.709,10.645-36.724,10.745-38.011l-1.754-3.076s-3.844,24.332-14.571,38.432-7.5,43.742-7.5,43.742,7.2,2.7,11.688,2.7C1600.666,1451.688,1591.334,1422,1602.062,1407.9Z" fill="#303f27"/>
        <path d="M1825.059,1412.643s.958,11.718.608,37.514a14.958,14.958,0,0,0,5.01-1.173,106.673,106.673,0,0,0-7.9-53.632C1822.781,1399.884,1825.059,1412.643,1825.059,1412.643Z" fill="#303f27"/>
        <path d="M1763.579,1366.81s-1.477,46.276,2.556,51.578,4.036,18.8,10.373,21.691,12.1-23.392,17.288-28.567,7.82-35.823,7.82-35.823Z" fill="#172614"/>
        <path d="M1667.737,1456.474a68.815,68.815,0,0,0-15.774-1.356c-9.835.117-20.194.707-20.194.707s.678-8.37.678-10.992c.287-7.886-2.306-15.117-.578-23.07,2.594-14.462,1.73-28.923.6-43.557-.024-2.636-.024-4.164-.024-4.164h34.4v4.15c0,1.311,0,2.895-.01,4.7-2.988,18.623,3.062,38.145.014,57.244,0,1.8,0,3.383,0,4.7C1666.85,1447.455,1667.737,1456.474,1667.737,1456.474Z" fill="#172614"/>
        <path d="M1675.457,1375.689s-1.666,29.443,13.03,37.035,36.3,26.391,46.675,23.861,0-68.736,0-68.736Z" fill="#172614"/>
        <path d="M1786.305,1351.867c-9.134-4.14-185.378.933-174.794,16.389,1.945,2.841,8.219,4.667,17.268,5.786,4.446.548,10.022,4.816,15.624,5.06,7.863.341,16.22-3.477,25.485-3.57,9.914-.1,19.958,5.374,30.267,5.016,16.074-.558,32.246-7.047,45.385-7.476,15.523-.508,27.342-.6,31.544.486,16.783,4.34,45.7,21.794,45.7,21.794S1813.965,1364.4,1786.305,1351.867Z" fill="#38572b"/>
        <path d="M1633.9,1375.689s6.471,2.71,11.658,2.528,21.294-2.528,21.294-2.528-16.192,5.318-22.242,4.956S1633.9,1375.689,1633.9,1375.689Z" fill="#5f7254"/>
        <path d="M1681.348,1377.231s8.29,5.005,16.647,5.005,23.356-3.33,30.693-6.547c0,0-18.359,4.648-30.405,4.257C1687.694,1379.6,1681.348,1377.231,1681.348,1377.231Z" fill="#5f7254"/>
        <path d="M1763.579,1372.708a121.354,121.354,0,0,1,13.938,1.965c6.956,1.628,24.1,9.032,24.1,9.032s-16.667-9.619-23.56-10.786A53.743,53.743,0,0,0,1763.579,1372.708Z" fill="#5f7254"/>
        <path d="M1681.466,1367.412c0,.957-8.394,1.733-18.748,1.733s-18.748-.776-18.748-1.733,8.394-1.731,18.748-1.731S1681.466,1366.456,1681.466,1367.412Z" fill="#314c25"/>
        <path d="M1774.53,1362.637c0,.959-8.393,1.734-18.748,1.734s-18.746-.775-18.746-1.734,8.393-1.732,18.746-1.732S1774.53,1361.68,1774.53,1362.637Z" fill="#314c25"/>
        <path d="M1701.308,1360.905c0,.957-5.289,1.732-11.813,1.732s-11.814-.775-11.814-1.732,5.289-1.733,11.814-1.733S1701.308,1359.948,1701.308,1360.905Z" fill="#314c25"/>
      </g>
    </g>
    <g>
      <g>
        <path d="M2280.987,1427.017s124.437-.681,139.109,7.425c6.862,3.79-43.471,1.882-40.756,8.7s78.25,0,72.272,5.575-53.059-3.309-89.931,3.819c-15.772,3.047-21.4,7.937-59.74,8.8-20.785.467-50.948,5.78-64.646,6.022-23.42.415-68.792-5.836-88.854-9.886-33.163-6.695-49.493-2.727-25.041-6.591,20.808-3.289-63.175-7.37-70.37-10.909-9.238-4.546,12.535-8.608,58.416-8.608S2228.491,1427.188,2280.987,1427.017Z" fill="#2d8ba5"/>
        <path d="M2040.68,1437.207c0,1.528-7.395,2.766-16.515,2.766s-16.512-1.238-16.512-2.766,7.393-2.765,16.512-2.765S2040.68,1435.68,2040.68,1437.207Z" fill="#2d8ba5"/>
        <path d="M2447.269,1434.153c0,1.3-4.321,2.344-9.652,2.344s-9.651-1.049-9.651-2.344,4.321-2.347,9.651-2.347S2447.269,1432.857,2447.269,1434.153Z" fill="#2d8ba5"/>
        <path d="M2481.916,1448.273c0,1.2-5.05,2.176-11.285,2.176s-11.281-.975-11.281-2.176,5.05-2.175,11.281-2.175S2481.916,1447.071,2481.916,1448.273Z" fill="#2d8ba5"/>
      </g>
      <g>
        <path d="M2319.688,1452.229c-11.516,1.954-26.731-6.056-40.356-4.6-11.868,1.265-30.028,3.988-42.037,3.988-16.626,0-26.316-2.609-40.507-4.6-7.807-1.1-24.9,2.5-31.288,1.251-17.622-3.437-25.528-6.155-25.528-6.155s-2.845-26.171,6.626-38.618,11.013-33.932,11.013-33.932l152.691,1.276,34.24,23.924s9.514,24.594,6.97,47.35C2345.864,1442.107,2338.985,1448.953,2319.688,1452.229Z" fill="#202f18"/>
        <path d="M2149.673,1405.831c9.21-12.1,9.4-32.423,9.486-33.558l-1.548-2.716s-3.392,21.482-12.864,33.932-6.626,38.618-6.626,38.618,6.359,2.388,10.32,2.388C2148.441,1444.5,2140.2,1418.279,2149.673,1405.831Z" fill="#303f27"/>
        <path d="M2346.553,1410.022s.846,10.345.538,33.122a13.183,13.183,0,0,0,4.421-1.037,94.176,94.176,0,0,0-6.97-47.35C2344.542,1398.757,2346.553,1410.022,2346.553,1410.022Z" fill="#303f27"/>
        <path d="M2292.273,1369.557s-1.3,40.856,2.257,45.538,3.564,16.6,9.159,19.15,10.684-20.652,15.262-25.221,6.9-31.628,6.9-31.628Z" fill="#172614"/>
        <path d="M2207.656,1448.719a60.771,60.771,0,0,0-13.927-1.2c-8.682.1-17.828.623-17.828.623s.6-7.388.6-9.7c.252-6.963-2.038-13.347-.511-20.37,2.29-12.767,1.528-25.535.531-38.455-.02-2.326-.02-3.676-.02-3.676h30.374v3.664c0,1.158,0,2.556-.009,4.151-2.639,16.442,2.7,33.679.011,50.54,0,1.59,0,2.987,0,4.146C2206.874,1440.758,2207.656,1448.719,2207.656,1448.719Z" fill="#172614"/>
        <path d="M2214.473,1377.4s-1.472,26,11.5,32.7,32.053,23.3,41.209,21.067,0-60.686,0-60.686Z" fill="#172614"/>
        <path d="M2312.338,1356.364c-8.065-3.654-163.666.824-154.324,14.469,1.718,2.508,7.258,4.121,15.246,5.109,3.926.484,8.85,4.253,13.8,4.468,6.941.3,14.319-3.071,22.5-3.152,8.754-.086,17.622,4.745,26.723,4.428,14.191-.492,28.468-6.221,40.069-6.6,13.706-.449,24.14-.529,27.85.43,14.817,3.831,40.345,19.242,40.345,19.242S2336.759,1367.429,2312.338,1356.364Z" fill="#38572b"/>
        <path d="M2177.781,1377.4s5.714,2.393,10.291,2.231,18.8-2.231,18.8-2.231-14.3,4.7-19.639,4.376S2177.781,1377.4,2177.781,1377.4Z" fill="#5f7254"/>
        <path d="M2219.672,1378.758s7.321,4.418,14.7,4.418,20.62-2.94,27.1-5.78c0,0-16.207,4.1-26.843,3.759A51.417,51.417,0,0,1,2219.672,1378.758Z" fill="#5f7254"/>
        <path d="M2292.273,1374.765a107.288,107.288,0,0,1,12.307,1.734c6.141,1.438,21.275,7.975,21.275,7.975s-14.714-8.493-20.8-9.524A47.43,47.43,0,0,0,2292.273,1374.765Z" fill="#5f7254"/>
        <path d="M2219.778,1370.09c0,.844-7.412,1.528-16.554,1.528s-16.551-.684-16.551-1.528,7.411-1.53,16.551-1.53S2219.778,1369.244,2219.778,1370.09Z" fill="#314c25"/>
        <ellipse cx="2285.39" cy="1365.874" rx="16.551" ry="1.53" fill="#314c25"/>
        <path d="M2237.3,1364.344c0,.845-4.668,1.53-10.429,1.53s-10.43-.685-10.43-1.53,4.67-1.531,10.43-1.531S2237.3,1363.5,2237.3,1364.344Z" fill="#314c25"/>
      </g>
    </g>
  </g>
</svg>
