<svg xmlns="http://www.w3.org/2000/svg" xmlns:xlink="http://www.w3.org/1999/xlink" width="1920" height="1080" viewBox="0 0 1920 1080">
  <defs>
    <linearGradient id="a" x1="963.451" y1="1105.68" x2="963.451" y2="2.809" gradientUnits="userSpaceOnUse">
      <stop offset="0.491" stop-color="#fff"/>
      <stop offset="0.657" stop-color="#fcfefe"/>
      <stop offset="0.765" stop-color="#f4fbfa"/>
      <stop offset="0.856" stop-color="#e5f5f2"/>
      <stop offset="0.937" stop-color="#d0ede8"/>
      <stop offset="1" stop-color="#bae5de"/>
    </linearGradient>
    <linearGradient id="b" data-name="Unbenannter Verlauf 122" x1="963.451" y1="1095.68" x2="963.451" y2="979.149" gradientUnits="userSpaceOnUse">
      <stop offset="0" stop-color="#208fb7"/>
      <stop offset="1" stop-color="#29baaf"/>
    </linearGradient>
  </defs>
  <g>
    <rect x="-5.353" y="2.809" width="1937.609" height="1102.871" fill="url(#a)"/>
    <g>
      <path d="M1932.255,115.716H1759.229c-24.289.718-49.833-2.872-74.432-2.872-28.383,0-55.82,7.18-84.2,2.154-77.58-13.643-173.136-51.7-237.47,7.9-16.084,15.8-49.2,8.616-75.688,5.744-58.658-6.462-118.262-39.491-174.082-17.232-3.784,1.436,1.892,12.924-4.731,16.514-42.574,26.566-95.555,9.334-144.752,2.872-54.874-7.18-105.017-25.131-160.837-19.386-23.653,2.154-45.413,6.462-69.065,4.308-33.9-2.992-65.176-14.959-98.2-18.033a156.316,156.316,0,0,0-20.078-.636c-58.641,3.59-112.568,16.515-170.28,27.285-66.227,12.924-126.777,2.872-193-7.9-12.3-1.436-23.653-.718-35.984-.718H-5.353V90.379H216.272c44.648-1.23,85.33,13.848,128.85,16.72,21.761.718,42.575-6.462,65.281-10.052,11.353-1.436,22.707-1.436,34.06-3.59,52.981-9.334,104.071-10.052,156.7-12.959,6.734-.444,13.174-.544,19.533-.351,31.668.964,62.022,9.242,94.347,14.028,10.407.718,18.922,2.872,29.329,1.436,64.334-10.052,122.993-5.744,182.6,12.206,34.059,10.771,85.149,23.7,117.316,7.181-7.569-7.181-23.653-17.951-17.03-20.105,77.58-33.029,168.4-4.308,252.608,10.77,17.976,3.591,38.79,8.617,53.928-.718,70.957-46.671,161.782-19.386,242.2-12.924,53.927,5.026,105.963-6.462,159.719-1.642h196.54Z" fill="#fff"/>
      <path d="M1932.255,122.343H1759.229c-24.289.345-49.833-1.378-74.432-1.378-28.383,0-55.82,3.447-84.2,1.034-77.58-6.55-173.136-24.818-237.47,3.791-16.084,7.584-49.2,4.137-75.688,2.758-58.658-3.1-118.262-18.958-174.082-8.272-3.784.689,1.892,6.2-4.731,7.928-42.574,12.753-95.555,4.48-144.752,1.378-54.874-3.447-105.017-12.064-160.837-9.306-23.653,1.034-45.413,3.1-69.065,2.067-33.9-1.436-65.176-7.181-98.2-8.657-6.608-.3-13.287-.42-20.078-.305-58.641,1.724-112.568,7.929-170.28,13.1-66.227,6.2-126.777,1.379-193-3.792-12.3-.689-23.653-.345-35.984-.345H-5.353V110.18H216.272c44.648-.59,85.33,6.648,128.85,8.027,21.761.345,42.575-3.1,65.281-4.826,11.353-.689,22.707-.689,34.06-1.723,52.981-4.481,104.071-4.826,156.7-6.222,6.734-.213,13.174-.261,19.533-.168,31.668.463,62.022,4.437,94.347,6.734,10.407.345,18.922,1.379,29.329.69,64.334-4.825,122.993-2.758,182.6,5.86,34.059,5.17,85.149,11.375,117.316,3.447-7.569-3.447-23.653-8.618-17.03-9.652,77.58-15.856,168.4-2.068,252.608,5.171,17.976,1.723,38.79,4.136,53.928-.345,70.957-22.4,161.782-9.306,242.2-6.2,53.927,2.412,105.963-3.1,159.719-.789h196.54Z" fill="#fff"/>
    </g>
  </g>
  <g>
    <g>
      <path d="M37.945,899.955s11.306-51.58,19.009-125.9c2.476-23.89-1.7-55.02,1.446-81.163,2.292-19.026,34.883-29.17,37.505-48.181,3.935-28.532-21.9-65.6-17.286-91.239,8.842-49.138,14.6-92.58,29.781-109.861,65.612-74.693,37.148-294.4,89.586-281.139s68.51,294.4,84.426,315.619,41.428,2.652,45,87.524,54.9,111.394,56.455,156.483S401.3,899.955,401.3,899.955Z" fill="#98b67a"/>
      <path d="M388.438,722.1c-1.556-45.089-52.88-71.611-56.456-156.483s-29.086-66.307-45-87.524S254.992,175.73,202.554,162.469a40.242,40.242,0,0,0-8.562-.573c4.385,23.273,6.335,54.857,7.055,89.111.263,12.494,5.376,26.992,9.044,41.131-22.494,6.324-42.593,12.07-42.593,12.07s42.947,31.161,39.678,40.2-6.557,17.887-6.707,27.438c-.148,9.394,6.711,23.179,6.618,31.814-.151,13.9-7.19,21.944-7.011,32.989.357,22.07.988,37.852,4.681,41.441,4.036,3.921-69.922,10.547-66.494,14.853,4.422,5.556,86.033,8.887,89.5,14.684,3.248,5.426-49.949,11-47.478,16.256,2.339,4.978,60.385,9.658,62.076,14.161,4.968,13.235,7.235,23.748,7.4,27.57q.065,1.522.138,3.02c.315,6.412.759,12.457,1.311,18.176,1.094,11.348-27.625,32.308-25.851,41.385,1.49,7.619,30.526,14.21,32.281,20.627,2.139,7.822-63.989,14.38-61.515,20.037,3.628,8.3,75.9,14.82,78.841,21.9,3.154,7.588-147.925,15.812-147.543,26.873.349,10.133,157.434,18.087,160.651,26.877,5.542,15.145,9.58,32.31-7.739,65.311-9.378,17.87-20.637,90.133-20.637,90.133H405.87S389.994,767.184,388.438,722.1Z" fill="#83996b"/>
      <path d="M391.179,722.1c-1.556-45.089-52.88-71.611-56.456-156.483s-29.086-66.307-45-87.524c-15.5-20.659-30.521-285.5-79.733-311.81,51.61,104.78,48.255,295.867,60.746,312.519,15.916,21.219,42.105,19.44,45.679,104.312s46.864,95.467,48.42,140.555,7.236,176.291,7.236,176.291h36.543S392.735,767.184,391.179,722.1Z" fill="#6f8257"/>
      <path d="M94.005,650.735c7.3,2.357,62.225,13.555,61.312,15.765s-86.57,22.885-95.664,21.609C64.568,672.982,84.971,664,94.005,650.735Z" fill="#83996b"/>
      <path d="M78.069,560.125s114.705,4.421,118.664,9.43-105.756,40.6-105.756,40.6S76.444,585.141,78.069,560.125Z" fill="#83996b"/>
      <path d="M57.373,769.043c7.116.032,83.327,0,87.59,5.3s-58.47,27.7-59.687,36.54S46.148,855.37,46.148,855.37,50.115,801.588,57.373,769.043Z" fill="#83996b"/>
    </g>
    <g>
      <path d="M664.99,899.955A464.722,464.722,0,0,1,654.736,823.3c-1.265-28.155,31.376-21.609,41.08-45.33,7.559-18.477-16.293-67.081-10.272-76.418,12.99-20.148,48.642-26.125,21.929-85.544-7.454-16.582,19-81,20.623-108.541,1.835-31.08-13.344-27.646-9.179-62.25,4.516-37.528,19.644-75.119,27.45-105.709,6.683-26.19-4-43.314,5.482-56.576,39.826-55.7,80.753-67.234,93.855,21.526s7.514,222.085,24.012,261.513,50.52,132.257,58.179,150.823,13.1,61,25.457,82.219,0,100.945,0,100.945Z" fill="#98b67a"/>
      <path d="M955.179,799.01c-12.353-21.218-17.8-63.653-25.457-82.219s-41.68-111.4-58.178-150.823-10.912-172.753-24.013-261.513c-8.054-54.564-25.852-71.629-45.43-64.525,14.436,2.932,20.736,19.44,23.031,35.816.731,5.214-39.685,5.975-39.633,10.719.024,2.166,40.732,8.674,40.654,10.608-.24,6-7.49,11.2-8.679,17.017-2.121,10.386,1.342,21.355.761,32.487-.374,7.174-6.132,13.665-8.069,20.553-1.168,4.149,1.735,8.752.452,12.862-1.006,3.222-45.24,6.455-46.131,9.68-1.771,6.408,40.091,12.824,39.74,19.374-.667,12.452-18.3,10.179-22.382,16.869-1.485,2.432,27.6,25.473,28,28.2a85.662,85.662,0,0,1,1.082,15.636c-.752,19.807-17.688,22.072-20.86,37.275-.788,3.778,12.036,23.182,11.31,26.588-3.22,15.106-5.416,26.393-2.92,32.358,2.694,6.438-39.588,13.824-34.025,19.288,3.784,3.716,55.534,4.631,58.067,11.2a81.548,81.548,0,0,1,3.789,14.664c2.917,16.275-26.846,30.862-22.061,43.533,2.934,7.767,37.2,19.113,40.853,23.975a87.68,87.68,0,0,0,10.362,11.342c4.579,4.318,8.3,7.419,9.691,10.8,1.34,3.249-36.706,9.859-37.152,17.532-.256,4.382,37.273,9.177,37.072,13.724-.3,6.788-.28,13.244.826,17.821,1.462,6.05-118.8,10.805-120.121,16.633-.425,1.865,101.9,15.868,101.408,17.68-2.458,9.084,11.628,6.557,15.531,13.26,2.257,3.878,8.539,10.11,14.221,17.451s10.766,15.795,10.628,24.115c-.48,28.882-5.453,60.974-5.453,60.974h73.086S967.532,820.229,955.179,799.01Z" fill="#83996b"/>
      <path d="M957.006,799.01c-12.353-21.218-17.8-63.653-25.457-82.219S889.87,605.4,873.371,565.968s-10.912-172.753-24.013-261.513c-5.16-34.955-14.83-54.97-26.355-61.581,9.771,15.955,14.653,52.531,15.745,97.046.263,10.746,5.649,24.971,5.677,36.271.033,13.147-5.324,23.428-5.456,36.7-.647,65.017-2.281,127.37,4.847,147.028,16.5,45.505,41.935,105.293,49.593,126.719s15.4,73.329,27.757,97.817,9.346,115.505,9.346,115.505h26.494S969.359,820.229,957.006,799.01Z" fill="#6f8257"/>
      <path d="M719.054,466.314s59.593.044,60.963,3.58-33.806,4.42-34.261,7.956,12.792,2.652,13.706,7.956-31.22,17.694-31.22,17.694.311-11.653-3.649-17.841C721.53,480.873,718.843,469.806,719.054,466.314Z" fill="#83996b"/>
      <path d="M706.823,614.127s49.289-.583,57.207,10.025-21.319,3.536-24.972,12.376,1.828,13.554-1.826,17.68-22.8,13.386-22.8,13.386,2.705-13.534,2.394-20.722C716.256,633.747,705.965,626.214,706.823,614.127Z" fill="#83996b"/>
      <path d="M684.628,704.684s58.694,10.814,54.431,15.529-34.717,0-35.326,8.84,6.7,11.787,6.7,18.269-13.3,17.181-13.3,17.181-4.762-23.119-6.985-29.41C687.034,726.293,683.41,708.81,684.628,704.684Z" fill="#83996b"/>
    </g>
    <g>
      <path d="M323.734,899.955s1.5-15.655,3.925-36.2C329.4,849,349.393,826,351.879,810.186c3.226-20.515-10.875-32.836-7.217-39.69,10.4-19.492,32.623-31.9,37.992-72.652,2.222-16.867-12.89-34.369-12.465-54.083.341-15.834.622-30.153,9.348-46.954,6.66-12.824,13.762-25.064,18.254-35.4,5.907-13.6-5.932-22.867-3.8-47.512.826-9.541,16.179-32.62,16.952-42.419,3.214-40.737,7.21-80.342,22.278-90.81,28.052-19.492,118.118,75.283,118.321,123.125s-1.425,115.146,13.428,146.469-5.212,92.879-4.884,121.231,20.291,56.625,20.291,128.468Z" fill="#98b67a"/>
      <path d="M560.087,771.487c-.328-28.352,19.736-89.909,4.884-121.231s-13.226-98.626-13.428-146.469c-.147-34.477-46.958-93.323-83.6-116.219,4.635,8.852,7.185,17.9,9.209,26.421,2.323,9.778-11.387,15.587-8.089,22.832,2.107,4.629,19.339,12.5,21.041,17.091,2.936,7.909-55.957,15.052-54.032,22.772,1.894,7.6,64.62,15.778,65.773,23.119.945,6.026-40.411,12.685-39.822,18.492,1.7,16.807,44.278,31.885,45.108,46.2.557,9.607-12.271,16.95-10.928,25.065,1.115,6.729,16.205,14.487,18.458,20,4.37,10.7-5.1,21.6-5.436,36.3-.181,7.747-72.267,19.381-73.145,27.48-.917,8.46,80.111,16.081,78.9,24.339-1.761,12.027-3.574,23.524-4.7,33.562-.727,6.491-58.278,9.716-58.227,14.739.054,5.507,57.317,13.733,57.53,19.576.132,3.648.289,7.4.462,11.317.268,6.07.575,12.526.89,19.565.579,12.957,1.186,27.888,1.632,46.02.182,7.432.337,15.4.451,24,.137,10.236.217,21.354.217,33.5h67.139C580.378,828.112,560.416,799.838,560.087,771.487Z" fill="#83996b"/>
      <path d="M560.087,771.487c-.328-28.352,19.736-89.909,4.884-121.231s-13.226-98.626-13.428-146.469c-.1-23.576-22.022-58.545-47.591-85.624,10.3,18.211,33.366,66.955,33.421,81.135.2,52.1-1.972,116.168,12.88,150.279s-8.417,94.949-8.088,125.824,13.6,62.675,7.7,124.554h30.518C580.378,828.112,560.416,799.838,560.087,771.487Z" fill="#6f8257"/>
      <path d="M393.825,516.3s39.685-2.73,41.719-1.155-1.628,3.544-12.615,9.056-10.985,9.843-10.985,14.962-12.487,14.163-12.487,14.163S387.314,526.93,393.825,516.3Z" fill="#83996b"/>
      <path d="M370.3,639.006s101.815-2.1,104.256,0-61.8,10.8-66.275,15.52-4.883,9.843-7.324,20.08-18.3,23.238-18.3,23.238S367.045,652.228,370.3,639.006Z" fill="#83996b"/>
      <path d="M344.055,773.335s17.228,4.725,29.13,4.725,35.4-3.249,40.284,0-12.207,7.973-21.362,11.516-10.072,7.973-7.325,9.449,9.155,1.772,8.85,5.316-41.407,2.98-41.407,2.98S343.643,788.379,344.055,773.335Z" fill="#83996b"/>
    </g>
    <g>
      <g>
        <path d="M1541,899.955s15.939-273.876-5.591-297.212,24.069-73.724,66.33-94.94-18.822-60.4-7.785-92.819c7.3-21.451,24.874-32.043,34.476-50.388,6.093-11.639,21.539-97.342,26.991-107.907,24.677-47.818,43.522-83.339,63.084-94.8,30.694-17.985,74.316,213.473,73.435,404.08s53.655-13.618,61.271,31.471,34.106,127.308,34.106,127.308V899.955Z" fill="#98b67a"/>
        <path d="M1853.213,597.439c-7.616-45.089-62.152,159.135-61.271-31.471.634-137-21.724-295.1-45.748-366.519-9.4-27.946-19.055-42.619-27.687-37.561,18.6,14.985,16.406,56.533,20.456,75.418,3.243,15.122-15.712,51.382-12.8,68.851,1.573,9.445-63.614,13.98-62.166,23.963,2.229,15.367,71,36.515,72.862,52.839.366,3.2-18.7,25.258-18.352,28.489,2,18.432,23.166,18.458,24.592,37.489,1.474,19.687,2.614,39.551,3.359,59.292.734,19.459-117.939,9.808-118.026,28.746-.013,2.894,119,34.711,118.995,37.467-.028,12.365.016,23.36.134,33.127.207,17.216-62.676,31.177-60.186,41.358,7.641,31.219,45,7.925,74.325,35.676,10.888,10.3,33.2,22.809,41.212,28.883,9.177,6.953-139.277,22.48-138.892,31.229.5,11.231,122.066,25.779,121.651,37.133-.844,23.1,33.655,27.4,30.712,47.73-6.227,43.036,5.618,70.377,5.618,70.377h65.318V724.747S1860.83,642.527,1853.213,597.439Z" fill="#83996b"/>
      </g>
      <g>
        <path d="M1775.235,549.646c3.475,106.558,25.578,99.155,29.656,99.179-10.472-12.4-13.066-57.512-12.949-82.857.634-137-21.724-295.1-45.748-366.519-9.4-27.946-19.055-42.619-27.687-37.561,18.6,14.985,16.406,56.533,20.456,75.418C1740.735,245.573,1767.941,326.037,1775.235,549.646Z" fill="#6f8257"/>
        <path d="M1853.213,597.439c10.436,88.932,2.725,113.088.742,127.308s13.031,23.95,13.031,23.95l-13.031,20.327,5.8,28.288-5.8,16.354,4.69,5.746-4.69,44.2v36.343h33.364V724.747S1873.892,639.859,1853.213,597.439Z" fill="#6f8257"/>
      </g>
      <path d="M1592.639,422.057s89.882-.839,93.218,2.7-43.6,9.678-48.325,17.634,35.942.884,30.381,12.818-43.064,16.243-53.969,19.76C1609.9,463.9,1592.639,446.07,1592.639,422.057Z" fill="#83996b"/>
      <path d="M1531.855,597.439s120.86,3.683,125.865,10.845-73.773,20.185-76,32.561,30.583,15.47,21.687,22.542-57,26.074-57,26.074S1541.687,621.357,1531.855,597.439Z" fill="#83996b"/>
    </g>
    <g>
      <path d="M1041.491,899.955s2.56-23.433,6.7-54.183c2.975-22.086,37.129-56.516,41.375-80.181,5.51-30.707-18.577-49.15-12.329-59.41,17.764-29.174,55.727-47.741,64.9-108.742,3.795-25.247-22.019-51.443-21.294-80.951.583-23.7,1.063-45.132,15.969-70.279,11.377-19.195,23.509-37.517,31.181-52.994,10.091-20.357-10.133-34.227-6.488-71.115,1.41-14.278,27.638-48.825,28.958-63.49,5.491-60.976,12.317-120.255,38.055-135.925,47.921-29.175,201.774,112.682,202.121,184.292s-2.434,172.349,22.938,219.232-8.9,139.021-8.341,181.457,34.661,84.755,34.661,192.289Z" fill="#98b67a"/>
      <path d="M1445.24,707.666c-.561-42.436,33.713-134.574,8.341-181.457s-22.592-147.62-22.938-219.232c-.25-51.6-80.215-139.683-142.81-173.955,7.92,13.249,12.275,26.8,15.732,39.548,3.969,14.634-19.45,23.329-13.816,34.174,3.6,6.929,33.034,18.716,35.943,25.58,5.014,11.839-95.588,22.53-92.3,34.086,3.236,11.374,110.386,23.616,112.354,34.6,1.616,9.019-69.03,18.984-68.025,27.677,2.912,25.158,75.639,47.726,77.056,69.153.951,14.381-20.962,25.371-18.667,37.516,1.9,10.073,27.682,21.685,31.53,29.939,7.466,16.013-8.7,32.336-9.287,54.336-.308,11.6-123.448,29.009-124.948,41.131-1.567,12.665,136.85,24.069,134.784,36.431-3.006,18-6.105,35.209-8.026,50.234-1.242,9.717-99.553,14.543-99.467,22.061.094,8.245,97.912,20.556,98.276,29.3.227,5.459.5,11.078.79,16.938.459,9.087.981,18.75,1.519,29.285.991,19.395,2.027,41.742,2.788,68.881.312,11.125.577,23.055.772,35.916.233,15.32.369,31.962.369,50.14H1479.9C1479.9,792.421,1445.8,750.1,1445.24,707.666Z" fill="#83996b"/>
      <path d="M1445.24,707.666c-.561-42.436,33.713-134.574,8.341-181.457s-22.592-147.62-22.938-219.232c-.171-35.288-37.619-87.629-81.3-128.16,17.6,27.257,57,100.217,57.092,121.441.346,77.986-3.369,173.878,22,224.935s-14.378,142.118-13.817,188.333,23.228,93.811,13.146,186.429H1479.9C1479.9,792.421,1445.8,750.1,1445.24,707.666Z" fill="#6f8257"/>
      <path d="M1161.224,325.705s67.79-4.085,71.265-1.727-2.78,5.305-21.548,13.554-18.767,14.733-18.767,22.4-21.329,21.2-21.329,21.2S1150.1,341.617,1161.224,325.705Z" fill="#83996b"/>
      <path d="M1121.037,509.371s173.924-3.147,178.1,0-105.568,16.158-113.214,23.23-8.342,14.734-12.512,30.056-31.265,34.782-31.265,34.782S1115.476,529.163,1121.037,509.371Z" fill="#83996b"/>
      <path d="M1076.2,710.432s29.429,7.072,49.762,7.072,60.473-4.862,68.814,0-20.853,11.934-36.493,17.238-17.2,11.934-12.511,14.144,15.639,2.652,15.118,7.956-70.734,4.461-70.734,4.461S1075.5,732.95,1076.2,710.432Z" fill="#83996b"/>
    </g>
  </g>
  <g>
    <rect x="-5.353" y="901.762" width="1937.609" height="252.689" fill="#2f3f26"/>
    <rect x="1057.534" y="901.762" width="150.43" height="252.689" fill="#172614"/>
    <rect x="461.493" y="901.762" width="124.885" height="252.689" fill="#172614"/>
    <path d="M794.519,1008.394v146.058H669.634v-181c0-13.4,15.769-20.583,28.383-20.583h42.89C753.01,952.868,794.519,959.091,794.519,1008.394Z" fill="#172614"/>
    <path d="M917.926,1016.37v138.082H849.393V992.674c0-9.088,8.653-13.957,15.576-13.957h23.537C895.147,978.717,917.926,982.936,917.926,1016.37Z" fill="#172614"/>
    <rect x="300.656" y="901.762" width="90.825" height="252.689" fill="#172614"/>
    <rect x="149.28" y="901.762" width="77.58" height="252.689" fill="#172614"/>
    <rect x="1301.627" y="901.762" width="105.017" height="252.689" fill="#172614"/>
    <rect x="1519.23" y="901.762" width="147.591" height="252.689" fill="#172614"/>
    <rect x="1755.754" y="901.762" width="62.443" height="252.689" fill="#172614"/>
    <path d="M1932.255,934.09h-77.6c-13.751.11-28.888-4.917-43.08-2.044-45.412,9.334-90.825,7.9-134.346-4.309-7.568-2.154-16.083-2.154-24.6-1.436-78.526,9.335-156.106,20.823-233.686,2.154-29.329-7.18-57.712,5.027-87.988,8.617-23.652,2.872-46.358,3.59-69.065-1.436-68.119-15.8-135.292,3.59-202.465,3.59-35,0-69.065-8.616-104.07-9.335-73.8-2.872-148.538,4.309-222.333,3.591-87.987-1.436-175.975,0-263.962,6.462-21.76,1.436-41.628-6.462-64.334-9.334-29.329-3.591-55.82,2.154-83.257,7.9-19.868,4.308-39.2.942-58.407-3.433-6.4-1.459-12.787-3.029-19.173-4.465-7.569-2.155-14.191-1.437-21.76-1.437-33.114-1.436-66.227,6.463-99.716,4.917H-5.353V888.925H252.8c49.745.758,98.942-10.731,150.031-6.423,9.461.718,18.922,6.463,28.117,6.423H620.207c11.347,0,12.372,3.271,19.388,3.271s18.686-4.667,35.716-1.077c3.784.718,8.515,0,12.3,0,13.245-.718,19.395-2.693,31.694-2.693,17.976.718,19.24,5.314,37.262,1.7,1.686-.011,21.51-1.2,23.2-1.2h250.1c1.844,0,3.676,0,5.524-.011,27.815-2.821,53.359-4.257,80.8.769,6.623,1.436,14.192-.718,22.063-.758h29.406c39.357,1.476,78.147-3.55,117.883-3.55,19.868.718,36.9,9.334,57.712,5.744a278.031,278.031,0,0,1,33.778-2.194h222.809c32.919-.678,66.978-.678,100.092-2.114,20.814-.718,39.736,5.744,61.359,2.114h170.961Z" fill="#446335"/>
    <path d="M52.148,1011.267s-17.03-20.105-8.2-33.986,7.569-26.327,13.876-26.806,9.462,7.659,6.938,19.147S61.44,1027.812,52.148,1011.267Z" fill="#172614"/>
    <path d="M78.008,986.376s-10.722,19.465-5.677,28.4,8.2,15.159,12.615,10.372S83.378,973.539,78.008,986.376Z" fill="#172614"/>
    <path d="M967.655,952.868s31.221,9.334,32.167,21.54,5.677,47.389-9.461,43.8S961.978,966.51,967.655,952.868Z" fill="#172614"/>
    <path d="M1870.547,955.262s-4.414,42.6,5.047,49.782S1890.1,943.3,1870.547,955.262Z" fill="#172614"/>
    <path d="M1887.9,982.985s-3.536,34.123,4.042,39.874S1903.561,973.4,1887.9,982.985Z" fill="#172614"/>
    <path d="M110.49,934.09s21.682-.19,30.433-.19c13.4-.717,45.456-3.526,45.456-3.526s-24.563,4.454-37.335,5.531S110.49,934.09,110.49,934.09Z" fill="#5f7254"/>
    <path d="M263.832,935.249s22.474,3.259,36.035,3.259,33.368-2.445,33.368-2.445-16.5,6.394-32.579,6.394S263.832,935.249,263.832,935.249Z" fill="#5f7254"/>
    <path d="M423.6,933.967s20.388,4.422,37.417,4.422,45.42-.894,45.42-.894-27.759,4.125-44.946,4.125S423.6,933.967,423.6,933.967Z" fill="#5f7254"/>
    <path d="M911.126,929.23s28.726-1.852,52.325-1.852,58.131,8.8,93.374,8.8,73.33-1.749,73.33-1.749-36.433,6.955-72.621,6.955-62.335-9.693-94.083-9.693S911.126,929.23,911.126,929.23Z" fill="#5f7254"/>
    <path d="M1242.8,932.083s21.873,5.109,58.509,5.109,82.571-9.82,82.571-9.82-42.2,15.085-82.256,15.085S1242.8,932.083,1242.8,932.083Z" fill="#5f7254"/>
    <path d="M1427.162,930.32s43.817,4.595,92.068,4.595,131.909-8.436,131.909-8.436-64.1,14.662-131.909,14.662S1427.162,930.32,1427.162,930.32Z" fill="#5f7254"/>
    <path d="M1700,933.109s18.74,2.886,55.046,2.886,52.745-2.886,52.745-2.886-20.105,8.032-52.036,8.032S1700,933.109,1700,933.109Z" fill="#5f7254"/>
    <path d="M171.987,909.183c0,1.014-13.767,1.836-30.749,1.836s-30.748-.822-30.748-1.836,13.767-1.835,30.748-1.835S171.987,908.169,171.987,909.183Z" fill="#314c25"/>
    <path d="M218.818,915.811c0,1.014-7.261,1.836-16.219,1.836s-16.22-.822-16.22-1.836,7.262-1.836,16.22-1.836S218.818,914.8,218.818,915.811Z" fill="#314c25"/>
    <path d="M251.257,911.019c0,1.014-7.261,1.836-16.219,1.836s-16.22-.822-16.22-1.836,7.262-1.836,16.22-1.836S251.257,910.005,251.257,911.019Z" fill="#314c25"/>
    <ellipse cx="429.317" cy="900.72" rx="30.748" ry="1.836" fill="#314c25"/>
    <path d="M506.9,907.348c0,1.014-7.262,1.835-16.22,1.835s-16.219-.821-16.219-1.835,7.262-1.836,16.219-1.836S506.9,906.334,506.9,907.348Z" fill="#314c25"/>
    <path d="M581.783,920.96c0,1.014-7.262,1.836-16.22,1.836s-16.219-.822-16.219-1.836,7.261-1.835,16.219-1.835S581.783,919.947,581.783,920.96Z" fill="#314c25"/>
    <path d="M539.336,902.556c0,1.014-7.262,1.835-16.22,1.835s-16.219-.821-16.219-1.835,7.261-1.836,16.219-1.836S539.336,901.542,539.336,902.556Z" fill="#314c25"/>
    <path d="M731.13,914.333c0,1.014-13.766,1.836-30.748,1.836s-30.748-.822-30.748-1.836S683.4,912.5,700.382,912.5,731.13,913.319,731.13,914.333Z" fill="#314c25"/>
    <path d="M777.962,920.96c0,1.014-7.261,1.836-16.219,1.836s-16.22-.822-16.22-1.836,7.262-1.835,16.22-1.835S777.962,919.947,777.962,920.96Z" fill="#314c25"/>
    <path d="M810.4,916.169c0,1.013-7.261,1.835-16.219,1.835s-16.22-.822-16.22-1.835,7.262-1.836,16.22-1.836S810.4,915.155,810.4,916.169Z" fill="#314c25"/>
    <path d="M929.9,904.034c0,1.014-13.767,1.836-30.748,1.836s-30.749-.822-30.749-1.836,13.767-1.836,30.749-1.836S929.9,903.02,929.9,904.034Z" fill="#314c25"/>
    <ellipse cx="960.509" cy="910.661" rx="16.219" ry="1.836" fill="#314c25"/>
    <path d="M1009.168,905.87c0,1.014-7.261,1.835-16.22,1.835s-16.219-.821-16.219-1.835,7.261-1.836,16.219-1.836S1009.168,904.856,1009.168,905.87Z" fill="#314c25"/>
    <path d="M1153.857,920.96c0,1.014-7.261,1.836-16.22,1.836s-16.219-.822-16.219-1.836,7.261-1.835,16.219-1.835S1153.857,919.947,1153.857,920.96Z" fill="#314c25"/>
    <path d="M1314.466,912.855c0,1.014-13.766,1.835-30.748,1.835s-30.748-.821-30.748-1.835,13.766-1.836,30.748-1.836S1314.466,911.841,1314.466,912.855Z" fill="#314c25"/>
    <path d="M1361.3,919.482c0,1.014-7.261,1.836-16.219,1.836s-16.22-.822-16.22-1.836,7.261-1.835,16.22-1.835S1361.3,918.468,1361.3,919.482Z" fill="#314c25"/>
    <path d="M1393.737,914.69c0,1.014-7.261,1.836-16.219,1.836s-16.22-.822-16.22-1.836,7.261-1.835,16.22-1.835S1393.737,913.677,1393.737,914.69Z" fill="#314c25"/>
    <path d="M1657.934,904.034c0,1.014-13.766,1.836-30.748,1.836s-30.748-.822-30.748-1.836,13.766-1.836,30.748-1.836S1657.934,903.02,1657.934,904.034Z" fill="#314c25"/>
    <ellipse cx="1688.546" cy="910.661" rx="16.219" ry="1.836" fill="#314c25"/>
    <path d="M1737.205,905.87c0,1.014-7.261,1.835-16.22,1.835s-16.219-.821-16.219-1.835,7.261-1.836,16.219-1.836S1737.205,904.856,1737.205,905.87Z" fill="#314c25"/>
    <ellipse cx="1889.767" cy="918.362" rx="16.219" ry="1.836" fill="#314c25"/>
    <path d="M1919.514,912.5c0,1.014-7.261,1.836-16.219,1.836s-16.22-.822-16.22-1.836,7.262-1.836,16.22-1.836S1919.514,911.483,1919.514,912.5Z" fill="#314c25"/>
  </g>
  <g>
    <rect x="-5.353" y="979.149" width="1937.609" height="116.531" fill="url(#b)"/>
    <g>
      <polygon points="1932.255 1095.68 -5.353 1095.68 -5.353 1056.735 792.68 1056.735 846.127 1059.067 889.653 1056.735 1138.004 1056.735 1162.13 1062.248 1206.123 1056.735 1932.255 1056.735 1932.255 1095.68" fill="#2d8ba5"/>
      <g>
        <g>
          <path d="M1932.255,1065.127H1917.1c-24.426,0-70.941-.2-89.861.562-2.605.191-5.206.239-7.807.2s-5.2-.156-7.806-.3c-6.15-.671-12.773-.287-19.4-.287-34.057.765-76.634,14.147-106.908,1.146-10.4-4.2-33.113,0-49.2-2.293-40.682-6.119-78.527,1.147-119.207,3.823-7.568.382-15.137.382-21.762-.764-41.627-5.354-85.147-5.354-128.668-2.678-16.084.766-28.384-3.822-43.522-5.734-3.781-.384-7.568.381-8.513,1.529-6.208,2.986-13.342,4.481-20.966,5.04-2.814.174-5.606.249-8.549.236-31.982-1.071-61.94-1.165-95.054-4.607-15.139-1.148-13.561,3.536-17.345,6.978-5.677,5.353-24.6,3.441-37.843,1.912-65.282-7.647-132.455-6.5-198.682-4.972-57.71,1.53-117.314,2.3-175.975,1.913-10.4-.383-24.6-1.913-21.757-7.266-49.2,6.119-96.5,7.649-149.484,4.971-36.9-1.911-85.15,8.412-123.94.382-21.759-4.587-47.3,2.677-71.9,1.53-2.837-.381-8.514,0-8.514-1.53-.946-1.912,2.838-4.969-.946-5.735-35.006-4.206-70.012,4.972-104.071,9.177-6.622.766-15.138-.765-22.707-.382-8.514.382-15.136,3.441-22.7,4.206-22.706,2.295-43.52-2.677-66.227-4.589-11.353-1.147-22.706,0-34.033.576q-4.231.026-8.443-.07c-22.463-.481-58.756-2.979-113-2.979H-5.353v-4.584H13.606c35.6,0,90.333,3.481,113.553,3.932,3.317.064,6.645.082,9.986.035,22.123-2.262,41.992.413,60.913,3.855,19.867,3.824,32.168-6.5,48.251-5.354,44.466,3.442,85.149-4.97,126.777-9.175,2.839-.382,6.622,0,8.514,1.146,25.544,14.913,70.012,6.117,105.017,4.206,2.839,0,3.784,1.148,3.784,1.911-.945,3.061,2.839,6.12,11.354,5.737,51.089-1.913,99.341-8.413,154.213-3.825,30.275,2.3,65.281-9.94,92.717-4.2,39.736,8.029,84.2,4.588,124.883,3.058a266.211,266.211,0,0,1,30.277.383c14.192,1.147,25.545-3.441,37.842-3.06,47.307,1.148,93.666-.765,140.97,2.294,20.815,1.529,42.574,9.179,62.441,4.207,10.408-2.678,20.815-6.119,33.115-6.119,37.844.384,75.688,2.3,113.633,1.516,2.366-.161,4.628-.371,6.877-.606,6.5-.718,12.889-1.673,19.513-2.439,12.3-1.146,25.543,0,37.843,0,11.352.382,17.976,4.207,30.275,3.441,35-2.294,71.9-5.353,104.07-.383,14.191,2.3,29.328,4.208,44.465,3.061,23.654-1.53,44.468-6.5,68.121-4.206,32.167,2.676,61.5-.384,92.719,1.528,8.515.383,6.621,5.737,13.244,6.883,30.275,4.588,59.6-7.266,91.772-6.5,3.784,0,8.514-.383,12.544.256,1.978.084,3.969.147,5.971.175s4.03.015,6.083-.048c18.92-.766,79.939-1.705,106.912-1.705Z" fill="#8cb6ce"/>
          <g>
            <path d="M1932.255,1060.583h-59.843c-108.2,0-170.9,2.736-201.6,2.736-23.34,0-52.354-11.522-92.4-7.573-53.285,5.258-104.07,9.943-158.943,3.824-17.976-1.912-36.9,2.678-56.767.766-22.707-2.678-43.518-4.207-67.172-3.059-63.389,3.059-124.884,8.412-190.165,3.442-16.084-1.149-31.221.38-47.306.38a94.428,94.428,0,0,1-23.652-2.676,143.614,143.614,0,0,0-44.466-2.294c-103.124,9.943-203.412,4.207-305.589,1.912-13.246-.383-25.545,3.441-38.79,3.058a60.694,60.694,0,0,1-15.137-3.058,66.932,66.932,0,0,0-19.869-1.912c-24.6.383-44.467,8.031-70.01,6.882-14.192-.763-27.438-1.912-40.683-1.912-29.328-.38-54.4-6.117-83.729-6.5-22.707-.382-47.779,6.119-69.537,6.119-16.084-.383-38.319-5.546-56.293-4.016-40.683,3.823-65.769,8.36-111.166,5.545s-87.515-1.665-149.485-1.665H-5.353v-8.9h21.76c43.5,0,140.5,1.447,163.675,3.334s41.628.734,55.82.354c94.61-3.06,189.219-9.561,285.721,0,25.544,2.675,50.143-1.148,74.741-3.823,34.06-3.06,51.089,4.841,85.149,1.4,5.677-.382,11.668-6.882,25.787-5.274,38.541,4.39,106.035,11.519,163.748,9.226,41.627-1.913,93.663-9.428,134.345-10.193,32.168-.765,64.019,4.457,97.134,3.311,19.866-.767,34.058,3.441,50.14,8.028,4.732,1.147,11.354,1.147,17.978.766,64.333-7.648,126.776-10.707,193-8.031,17.033.383,32.169-2.676,48.253-3.441,11.352-.382,22.7-.764,31.22,1.911,50.144,15.295,110.694.767,163.676-1.911,13.244-.764,25.542,1.911,37.818,3.329,3.321.369,32.251,3.994,35.659,4.348,20.462,2.109,89.564-3.334,194.438-3.334h57.544Z" fill="#d6f7ef"/>
            <path d="M1670.815,1060.641c-23.34,0-52.354-11.522-92.4-7.57-53.285,5.256-104.07,9.94-158.943,3.824-17.976-1.913-36.9,2.675-56.767.763-22.707-2.676-43.518-4.2-67.172-3.058-42.454,2.05-84.058,5.121-126.519,5.438a95.064,95.064,0,0,1-9.834.026c-17.725-.056-35.622-.638-53.812-2.023-16.084-1.146-31.221.382-47.306.382a94.474,94.474,0,0,1-23.652-2.677,143.553,143.553,0,0,0-44.466-2.292c-103.124,9.941-203.412,4.2-305.589,1.912-13.246-.384-25.545,3.441-38.79,3.057a60.784,60.784,0,0,1-15.137-3.057,66.9,66.9,0,0,0-19.869-1.912c-24.6.382-44.467,8.028-70.01,6.882-14.192-.766-27.438-1.913-40.683-1.913-29.328-.382-54.4-6.117-83.729-6.5-22.707-.381-47.779,6.117-69.537,6.117-12.021-.285-27.475-3.239-42.02-4.076q-11.271.426-22.534.867c-36,3.614-60.664,7.356-102.9,4.738-45.4-2.813-87.515-1.665-149.485-1.665H-5.353v3.824H29.652c61.97,0,104.087-1.15,149.485,1.666s70.483-1.721,111.166-5.544c17.974-1.53,40.209,3.631,56.293,4.014,21.758,0,46.83-6.5,69.537-6.119,29.329.383,54.4,6.119,83.729,6.5,13.245,0,26.491,1.147,40.683,1.912,25.543,1.147,45.412-6.5,70.01-6.883a66.932,66.932,0,0,1,19.869,1.911,60.738,60.738,0,0,0,15.137,3.06c13.245.382,25.544-3.441,38.79-3.06,102.177,2.294,202.465,8.031,305.589-1.911a143.522,143.522,0,0,1,44.466,2.293,94.474,94.474,0,0,0,23.652,2.678c16.085,0,31.222-1.529,47.306-.383,65.281,4.971,126.776-.383,190.165-3.442,23.654-1.146,44.465.384,67.172,3.059,19.868,1.913,38.791-2.675,56.767-.763,54.873,6.117,105.658,1.432,158.943-3.824,40.05-3.952,69.064,7.57,92.4,7.57,30.7,0,93.4-2.736,201.6-2.736h59.843v-3.824h-59.843C1764.211,1057.905,1701.514,1060.641,1670.815,1060.641Z" fill="#e7ffff"/>
          </g>
        </g>
        <path d="M216.033,1048.988c0,.736-3.282,1.337-7.331,1.337s-7.333-.6-7.333-1.337,3.282-1.34,7.333-1.34S216.033,1048.247,216.033,1048.988Z" fill="#f7fbf7"/>
        <path d="M33.832,1045.353c0,.74-3.283,1.338-7.333,1.338s-7.331-.6-7.331-1.338,3.281-1.337,7.331-1.337S33.832,1044.614,33.832,1045.353Z" fill="#f7fbf7"/>
        <path d="M542.2,1050.325c0,.738-3.283,1.338-7.332,1.338s-7.332-.6-7.332-1.338,3.282-1.337,7.332-1.337S542.2,1049.586,542.2,1050.325Z" fill="#f7fbf7"/>
        <path d="M858.118,1051.137c0,.738-5.665,1.339-12.654,1.339s-12.654-.6-12.654-1.339,5.664-1.339,12.654-1.339S858.118,1050.4,858.118,1051.137Z" fill="#f7fbf7"/>
        <path d="M1176.006,1051.137c0,.738-5.022,1.339-11.215,1.339s-11.217-.6-11.217-1.339,5.023-1.339,11.217-1.339S1176.006,1050.4,1176.006,1051.137Z" fill="#f7fbf7"/>
        <path d="M1196.305,1049.353c0,.318-2.17.578-4.847.578s-4.846-.26-4.846-.578,2.169-.578,4.846-.578S1196.305,1049.034,1196.305,1049.353Z" fill="#f7fbf7"/>
        <path d="M1254.649,1045.546c0,.318-2.171.578-4.85.578s-4.846-.26-4.846-.578,2.17-.58,4.846-.58S1254.649,1045.227,1254.649,1045.546Z" fill="#f7fbf7"/>
        <path d="M227.488,1047.648c0,.422-1.876.766-4.19.766s-4.19-.344-4.19-.766,1.877-.764,4.19-.764S227.488,1047.225,227.488,1047.648Z" fill="#f7fbf7"/>
        <path d="M329.023,1044.588c0,.423-1.875.765-4.189.765s-4.189-.342-4.189-.765,1.875-.764,4.189-.764S329.023,1044.167,329.023,1044.588Z" fill="#f7fbf7"/>
      </g>
    </g>
    <path d="M656.387,1009.3c0,.788-4.8,1.427-10.723,1.427s-10.722-.639-10.722-1.427,4.8-1.426,10.722-1.426S656.387,1008.513,656.387,1009.3Z" fill="#f7fbf7"/>
    <path d="M700.382,1003.237c0,.788-4.8,1.427-10.722,1.427s-10.723-.639-10.723-1.427,4.8-1.427,10.723-1.427S700.382,1002.449,700.382,1003.237Z" fill="#f7fbf7"/>
    <path d="M107.925,1010.727c0,.788-4.8,1.427-10.723,1.427s-10.722-.639-10.722-1.427,4.8-1.427,10.722-1.427S107.925,1009.939,107.925,1010.727Z" fill="#f7fbf7"/>
    <path d="M52.131,1005.712c0,.788-4.8,1.426-10.723,1.426s-10.722-.638-10.722-1.426,4.8-1.427,10.722-1.427S52.131,1004.924,52.131,1005.712Z" fill="#f7fbf7"/>
    <path d="M1075.034,1003.237c0,.788-4.8,1.427-10.722,1.427s-10.723-.639-10.723-1.427,4.8-1.427,10.723-1.427S1075.034,1002.449,1075.034,1003.237Z" fill="#f7fbf7"/>
    <path d="M909.871,998.014c0,.788-4.8,1.427-10.722,1.427s-10.723-.639-10.723-1.427,4.8-1.427,10.723-1.427S909.871,997.226,909.871,998.014Z" fill="#f7fbf7"/>
    <path d="M873.658,993.516c0,.788-7.155,1.427-15.98,1.427s-15.98-.639-15.98-1.427,7.154-1.426,15.98-1.426S873.658,992.729,873.658,993.516Z" fill="#f7fbf7"/>
    <path d="M1520.739,1010.727c0,.788-4.8,1.427-10.722,1.427s-10.723-.639-10.723-1.427,4.8-1.427,10.723-1.427S1520.739,1009.939,1520.739,1010.727Z" fill="#f7fbf7"/>
    <path d="M1502.988,990.538c0,.788-4.8,1.426-10.722,1.426s-10.723-.638-10.723-1.426,4.8-1.427,10.723-1.427S1502.988,989.75,1502.988,990.538Z" fill="#f7fbf7"/>
    <path d="M1920.081,988.668c0,.788-4.8,1.427-10.722,1.427s-10.723-.639-10.723-1.427,4.8-1.426,10.723-1.426S1920.081,987.88,1920.081,988.668Z" fill="#f7fbf7"/>
    <path d="M1898.766,995.262c0,.788-4.8,1.427-10.722,1.427s-10.723-.639-10.723-1.427,4.8-1.426,10.723-1.426S1898.766,994.475,1898.766,995.262Z" fill="#f7fbf7"/>
  </g>
  <g>
    <g>
      <g>
        <path d="M448.845,1008.527s130.124-.646,145.466,7.043c7.176,3.6-45.458,1.787-42.617,8.255s81.825,0,75.574,5.291-55.484-3.139-94.041,3.622c-16.493,2.892-22.378,7.531-62.468,8.349-21.735.443-53.278,5.483-67.6,5.713-24.491.394-71.937-5.537-92.916-9.379-34.677-6.351-51.754-2.587-26.184-6.254,21.759-3.118-66.062-6.991-73.585-10.349-9.66-4.312,13.106-8.166,61.084-8.166S393.951,1008.69,448.845,1008.527Z" fill="#2d8ba5"/>
        <path d="M197.558,1018.194c0,1.449-7.731,2.624-17.268,2.624s-17.267-1.175-17.267-2.624,7.731-2.624,17.267-2.624S197.558,1016.745,197.558,1018.194Z" fill="#2d8ba5"/>
        <path d="M622.727,1015.3c0,1.229-4.52,2.225-10.094,2.225s-10.093-1-10.093-2.225,4.519-2.225,10.093-2.225S622.727,1014.067,622.727,1015.3Z" fill="#2d8ba5"/>
        <path d="M658.955,1028.692c0,1.141-5.282,2.065-11.8,2.065s-11.8-.924-11.8-2.065,5.282-2.063,11.8-2.063S658.955,1027.553,658.955,1028.692Z" fill="#2d8ba5"/>
      </g>
      <g>
        <path d="M489.315,1032.445c-12.041,1.854-27.953-5.745-42.2-4.367-12.411,1.2-31.4,3.785-43.957,3.785-17.386,0-27.519-2.476-42.36-4.367-8.163-1.04-26.033,2.369-32.717,1.187-18.428-3.262-26.694-5.84-26.694-5.84s-2.975-24.829,6.929-36.638,11.516-32.19,11.516-32.19L479.5,955.226l35.8,22.7s9.949,23.333,7.29,44.922C516.688,1022.843,509.494,1029.338,489.315,1032.445Z" fill="#202f18"/>
        <path d="M311.533,988.429c9.628-11.483,9.827-30.761,9.919-31.838l-1.619-2.576s-3.548,20.381-13.452,32.19-6.928,36.638-6.928,36.638,6.648,2.265,10.79,2.265C310.243,1025.108,301.629,1000.237,311.533,988.429Z" fill="#303f27"/>
        <path d="M517.408,992.4s.885,9.816.562,31.422a15.042,15.042,0,0,0,4.625-.982,81.927,81.927,0,0,0-7.29-44.922C515.3,981.718,517.408,992.4,517.408,992.4Z" fill="#303f27"/>
        <path d="M460.648,954.015s-1.363,38.76,2.361,43.2,3.725,15.746,9.576,18.169,11.173-19.594,15.961-23.928,7.219-30,7.219-30Z" fill="#172614"/>
        <path d="M372.166,1029.116a69.8,69.8,0,0,0-14.564-1.135c-9.079.1-18.643.592-18.643.592s.624-7.01.624-9.206c.267-6.606-2.128-12.662-.532-19.325,2.394-12.112,1.6-24.225.556-36.482-.024-2.207-.024-3.488-.024-3.488h31.763v3.476c0,1.1,0,2.425-.01,3.938-2.758,15.6,2.828,31.951.013,47.948,0,1.508,0,2.834,0,3.933C371.346,1021.563,372.166,1029.116,372.166,1029.116Z" fill="#172614"/>
        <path d="M379.293,961.452s-1.538,24.661,12.028,31.019,33.517,22.107,43.092,19.986,0-57.573,0-57.573Z" fill="#172614"/>
        <path d="M481.63,941.5c-8.434-3.467-171.145.782-161.374,13.728,1.8,2.379,7.588,3.908,15.941,4.846,4.105.459,9.254,4.034,14.426,4.238,7.259.285,14.974-2.913,23.527-2.99,9.154-.081,18.426,4.5,27.944,4.2,14.84-.467,29.77-5.9,41.9-6.262,14.331-.425,25.242-.5,29.122.408,15.494,3.635,42.188,18.254,42.188,18.254S507.166,952,481.63,941.5Z" fill="#38572b"/>
        <path d="M340.924,961.452s5.975,2.269,10.763,2.117,19.659-2.117,19.659-2.117-14.949,4.454-20.535,4.15A18.047,18.047,0,0,1,340.924,961.452Z" fill="#5f7254"/>
        <path d="M384.731,962.743s7.653,4.192,15.368,4.192,21.563-2.789,28.338-5.483c0,0-16.95,3.892-28.072,3.565A58.643,58.643,0,0,1,384.731,962.743Z" fill="#5f7254"/>
        <path d="M460.648,958.955a123.024,123.024,0,0,1,12.869,1.645c6.42,1.365,22.248,7.566,22.248,7.566s-15.388-8.057-21.75-9.035A54.666,54.666,0,0,0,460.648,958.955Z" fill="#5f7254"/>
        <path d="M384.839,954.519c0,.8-7.749,1.451-17.308,1.451s-17.308-.649-17.308-1.451,7.75-1.451,17.308-1.451S384.839,953.718,384.839,954.519Z" fill="#314c25"/>
        <path d="M470.759,950.519c0,.8-7.749,1.452-17.308,1.452s-17.308-.649-17.308-1.452,7.749-1.451,17.308-1.451S470.759,949.718,470.759,950.519Z" fill="#314c25"/>
        <path d="M403.159,949.068c0,.8-4.884,1.451-10.907,1.451s-10.906-.649-10.906-1.451,4.882-1.451,10.906-1.451S403.159,948.267,403.159,949.068Z" fill="#314c25"/>
      </g>
    </g>
    <g>
      <g>
        <path d="M1329.056,995.751s104.311-.518,116.609,5.646c5.753,2.883-36.44,1.432-34.163,6.617s65.592,0,60.582,4.241-44.477-2.516-75.385,2.9c-13.221,2.318-17.939,6.036-50.076,6.692-17.423.355-42.709,4.4-54.189,4.58-19.632.315-57.666-4.438-74.483-7.518-27.8-5.092-41.487-2.075-20.99-5.013,17.442-2.5-52.957-5.6-58.988-8.3-7.743-3.456,10.507-6.546,48.968-6.546S1285.053,995.881,1329.056,995.751Z" fill="#2d8ba5"/>
        <path d="M1127.62,1003.5c0,1.162-6.2,2.1-13.842,2.1s-13.842-.941-13.842-2.1,6.2-2.1,13.842-2.1S1127.62,1002.339,1127.62,1003.5Z" fill="#2d8ba5"/>
        <path d="M1468.444,1001.178c0,.984-3.623,1.782-8.092,1.782s-8.091-.8-8.091-1.782,3.623-1.785,8.091-1.785S1468.444,1000.191,1468.444,1001.178Z" fill="#2d8ba5"/>
        <path d="M1497.485,1011.916c0,.914-4.233,1.655-9.458,1.655s-9.458-.741-9.458-1.655,4.235-1.654,9.458-1.654S1497.485,1011,1497.485,1011.916Z" fill="#2d8ba5"/>
      </g>
      <g>
        <path d="M1361.5,1014.923c-9.654,1.487-22.408-4.6-33.829-3.5-9.948.962-25.17,3.033-35.236,3.033-13.938,0-22.06-1.984-33.957-3.5-6.543-.833-20.869,1.9-26.226.952-14.772-2.614-21.4-4.681-21.4-4.681s-2.385-19.9,5.555-29.37,9.231-25.8,9.231-25.8l127.993.971,28.7,18.194s7.975,18.7,5.844,36.01C1383.44,1007.227,1377.674,1012.433,1361.5,1014.923Z" fill="#202f18"/>
        <path d="M1218.984,979.639c7.719-9.2,7.878-24.657,7.952-25.521l-1.3-2.066s-2.845,16.338-10.783,25.8-5.554,29.37-5.554,29.37,5.329,1.815,8.65,1.815C1217.951,1009.042,1211.045,989.106,1218.984,979.639Z" fill="#303f27"/>
        <path d="M1384.018,982.826s.709,7.868.45,25.188a12.062,12.062,0,0,0,3.708-.787,65.667,65.667,0,0,0-5.844-36.01C1382.332,974.26,1384.018,982.826,1384.018,982.826Z" fill="#303f27"/>
        <path d="M1338.518,952.052s-1.092,31.072,1.892,34.632,2.987,12.622,7.677,14.564,8.956-15.706,12.794-19.181,5.787-24.053,5.787-24.053Z" fill="#172614"/>
        <path d="M1267.588,1012.255a55.947,55.947,0,0,0-11.674-.909c-7.278.078-14.944.474-14.944.474s.5-5.62.5-7.38c.212-5.3-1.707-10.15-.428-15.491,1.92-9.709,1.281-19.419.446-29.245-.018-1.77-.018-2.8-.018-2.8h25.461V959.7c0,.88,0,1.943-.007,3.157-2.212,12.5,2.265,25.611.01,38.435,0,1.209,0,2.272,0,3.153C1266.932,1006.2,1267.588,1012.255,1267.588,1012.255Z" fill="#172614"/>
        <path d="M1273.3,958.014s-1.233,19.769,9.643,24.866,26.867,17.721,34.543,16.022,0-46.152,0-46.152Z" fill="#172614"/>
        <path d="M1355.337,942.019c-6.759-2.779-137.193.627-129.36,11,1.439,1.908,6.083,3.134,12.779,3.885,3.291.368,7.418,3.234,11.564,3.4,5.819.228,12-2.335,18.861-2.4,7.336-.066,14.77,3.608,22.4,3.368,11.9-.375,23.864-4.732,33.588-5.02,11.488-.341,20.235-.4,23.345.326,12.421,2.914,33.819,14.634,33.819,14.634S1375.808,950.434,1355.337,942.019Z" fill="#38572b"/>
        <path d="M1242.545,958.014a27.093,27.093,0,0,0,8.627,1.7c3.839-.12,15.76-1.7,15.76-1.7s-11.983,3.571-16.461,3.327A14.467,14.467,0,0,1,1242.545,958.014Z" fill="#5f7254"/>
        <path d="M1277.661,959.05s6.135,3.36,12.32,3.36,17.286-2.236,22.716-4.4c0,0-13.587,3.121-22.5,2.858A47.049,47.049,0,0,1,1277.661,959.05Z" fill="#5f7254"/>
        <path d="M1338.518,956.013a98.675,98.675,0,0,1,10.316,1.319c5.147,1.093,17.834,6.064,17.834,6.064s-12.334-6.458-17.436-7.242A43.814,43.814,0,0,0,1338.518,956.013Z" fill="#5f7254"/>
        <path d="M1277.749,952.457c0,.642-6.213,1.163-13.875,1.163S1250,953.1,1250,952.457s6.212-1.163,13.875-1.163S1277.749,951.814,1277.749,952.457Z" fill="#314c25"/>
        <path d="M1346.623,949.25c0,.644-6.211,1.165-13.875,1.165s-13.874-.521-13.874-1.165,6.212-1.162,13.874-1.162S1346.623,948.608,1346.623,949.25Z" fill="#314c25"/>
        <path d="M1292.434,948.088c0,.642-3.915,1.162-8.743,1.162s-8.743-.52-8.743-1.162,3.914-1.164,8.743-1.164S1292.434,947.445,1292.434,948.088Z" fill="#314c25"/>
      </g>
    </g>
    <g>
      <g>
        <path d="M1721.438,992.478s92.093-.458,102.951,4.984c5.078,2.545-32.172,1.265-30.162,5.843s57.91,0,53.487,3.744-39.268-2.222-66.556,2.564c-11.673,2.046-15.839,5.329-44.212,5.908-15.383.314-37.706,3.881-47.843,4.043-17.333.279-50.911-3.918-65.759-6.637-24.542-4.5-36.628-1.832-18.532-4.426,15.4-2.208-46.754-4.948-52.079-7.325-6.837-3.052,9.277-5.779,43.232-5.779S1682.587,992.592,1721.438,992.478Z" fill="#2d8ba5"/>
        <path d="M1543.593,999.319c0,1.026-5.473,1.857-12.222,1.857s-12.22-.831-12.22-1.857,5.471-1.857,12.22-1.857S1543.593,998.294,1543.593,999.319Z" fill="#2d8ba5"/>
        <path d="M1844.5,997.269c0,.869-3.2,1.573-7.143,1.573s-7.143-.7-7.143-1.573,3.2-1.576,7.143-1.576S1844.5,996.4,1844.5,997.269Z" fill="#2d8ba5"/>
        <path d="M1870.14,1006.75c0,.806-3.737,1.46-8.351,1.46s-8.349-.654-8.349-1.46,3.737-1.461,8.349-1.461S1870.14,1005.942,1870.14,1006.75Z" fill="#2d8ba5"/>
      </g>
      <g>
        <path d="M1750.079,1009.405c-8.522,1.313-19.782-4.066-29.865-3.09-8.784.849-22.223,2.677-31.111,2.677-12.305,0-19.476-1.751-29.979-3.09-5.777-.736-18.425,1.677-23.154.84a172.651,172.651,0,0,1-18.893-4.133s-2.105-17.572,4.9-25.929,8.151-22.783,8.151-22.783l113,.856,25.34,16.064s7.042,16.513,5.159,31.792C1769.452,1002.609,1764.361,1007.206,1750.079,1009.405Z" fill="#202f18"/>
        <path d="M1624.256,978.253c6.816-8.127,6.955-21.77,7.021-22.532l-1.146-1.824s-2.511,14.423-9.52,22.783-4.9,25.929-4.9,25.929,4.706,1.6,7.637,1.6C1623.344,1004.212,1617.247,986.611,1624.256,978.253Z" fill="#303f27"/>
        <path d="M1769.962,981.066s.626,6.947.4,22.239a10.628,10.628,0,0,0,3.272-.7,57.977,57.977,0,0,0-5.159-31.792C1768.473,973.5,1769.962,981.066,1769.962,981.066Z" fill="#303f27"/>
        <path d="M1729.791,953.9s-.965,27.432,1.67,30.575,2.637,11.144,6.778,12.859,7.907-13.867,11.3-16.935,5.109-21.236,5.109-21.236Z" fill="#172614"/>
        <path d="M1667.168,1007.049a49.357,49.357,0,0,0-10.307-.8c-6.425.069-13.194.418-13.194.418s.443-4.961.443-6.515c.187-4.675-1.508-8.962-.378-13.677,1.695-8.572,1.131-17.145.393-25.82-.015-1.562-.015-2.468-.015-2.468h22.479v2.46c0,.777,0,1.716-.006,2.787-1.954,11.04,2,22.613.008,33.934,0,1.068,0,2.006,0,2.784C1666.589,1001.7,1667.168,1007.049,1667.168,1007.049Z" fill="#172614"/>
        <path d="M1672.213,959.16s-1.089,17.454,8.512,21.954,23.722,15.645,30.5,14.145,0-40.747,0-40.747Z" fill="#172614"/>
        <path d="M1744.64,945.039c-5.969-2.454-121.125.553-114.211,9.714,1.272,1.684,5.372,2.768,11.283,3.431,2.906.325,6.55,2.856,10.21,3,5.137.2,10.6-2.062,16.652-2.116,6.478-.058,13.041,3.185,19.776,2.972,10.5-.33,21.069-4.177,29.654-4.432,10.144-.3,17.866-.355,20.611.289,10.966,2.573,29.858,12.92,29.858,12.92S1762.714,952.468,1744.64,945.039Z" fill="#38572b"/>
        <path d="M1645.058,959.16a23.889,23.889,0,0,0,7.616,1.5c3.39-.105,13.915-1.5,13.915-1.5s-10.58,3.153-14.534,2.938A12.768,12.768,0,0,1,1645.058,959.16Z" fill="#5f7254"/>
        <path d="M1676.061,960.075s5.417,2.966,10.878,2.966a69.946,69.946,0,0,0,20.054-3.881s-11.995,2.756-19.866,2.524A41.525,41.525,0,0,1,1676.061,960.075Z" fill="#5f7254"/>
        <path d="M1729.791,957.393a87.052,87.052,0,0,1,9.107,1.165c4.545.965,15.746,5.354,15.746,5.354s-10.889-5.7-15.394-6.394A38.666,38.666,0,0,0,1729.791,957.393Z" fill="#5f7254"/>
        <path d="M1676.139,954.254c0,.568-5.486,1.027-12.251,1.027s-12.249-.459-12.249-1.027,5.485-1.027,12.249-1.027S1676.139,953.686,1676.139,954.254Z" fill="#314c25"/>
        <ellipse cx="1724.697" cy="951.424" rx="12.249" ry="1.027" fill="#314c25"/>
        <path d="M1689.1,950.4c0,.567-3.455,1.027-7.718,1.027s-7.719-.46-7.719-1.027,3.456-1.028,7.719-1.028S1689.1,949.829,1689.1,950.4Z" fill="#314c25"/>
      </g>
    </g>
  </g>
</svg>
