<?xml version="1.0" encoding="UTF-8" standalone="no"?>
<!DOCTYPE svg PUBLIC "-//W3C//DTD SVG 1.1//EN" "http://www.w3.org/Graphics/SVG/1.1/DTD/svg11.dtd">
<svg width="100%" height="100%" viewBox="0 0 1920 1080" version="1.1" xmlns="http://www.w3.org/2000/svg" xmlns:xlink="http://www.w3.org/1999/xlink" xml:space="preserve" xmlns:serif="http://www.serif.com/" style="fill-rule:evenodd;clip-rule:evenodd;stroke-linejoin:round;stroke-miterlimit:2;">
    <g id="Layer-1" serif:id="Layer 1" transform="matrix(0.9375,0,0,0.703125,0,0)">
        <g transform="matrix(1536,2.78902e-14,2.78902e-14,-1536,256,768)">
            <rect x="-0.167" y="-0.5" width="1.333" height="1" style="fill:url(#_Linear1);"/>
        </g>
        <g transform="matrix(1,0,0,1,2048,131.249)">
            <path d="M0,26L-182.884,26C-208.557,27 -235.557,22 -261.557,22C-291.557,22 -320.557,32 -350.557,25C-432.557,6 -533.557,-47 -601.557,36C-618.557,58 -653.557,48 -681.557,44C-743.557,35 -806.557,-11 -865.557,20C-869.557,22 -863.557,38 -870.557,43C-915.557,80 -971.557,56 -1023.56,47C-1081.56,37 -1134.56,12 -1193.56,20C-1218.56,23 -1241.56,29 -1266.56,26C-1302.39,21.834 -1335.44,5.167 -1370.35,0.885C-1377.34,0.027 -1384.4,-0.334 -1391.58,0C-1453.56,5 -1510.56,23 -1571.56,38C-1641.56,56 -1705.56,42 -1775.56,27C-1788.56,25 -1800.56,26 -1813.59,26L-2048,26L-2048,-9.287L-1813.75,-9.287C-1766.56,-11 -1723.56,10 -1677.56,14C-1654.56,15 -1632.56,5 -1608.56,0C-1596.56,-2 -1584.56,-2 -1572.56,-5C-1516.56,-18 -1462.56,-19 -1406.92,-23.049C-1399.81,-23.667 -1393,-23.806 -1386.28,-23.537C-1352.81,-22.194 -1320.72,-10.666 -1286.56,-4C-1275.56,-3 -1266.56,0 -1255.56,-2C-1187.56,-16 -1125.56,-10 -1062.56,15C-1026.56,30 -972.557,48 -938.557,25C-946.557,15 -963.557,0 -956.557,-3C-874.557,-49 -778.557,-9 -689.557,12C-670.557,17 -648.557,24 -632.557,11C-557.557,-54 -461.557,-16 -376.557,-7C-319.557,0 -264.557,-16 -207.737,-9.287L0,-9.287L0,26Z" style="fill:white;fill-rule:nonzero;"/>
        </g>
        <g transform="matrix(1,0,0,1,2048,153.998)">
            <path d="M0,12.481L-182.884,12.481C-208.557,12.961 -235.557,10.561 -261.557,10.561C-291.557,10.561 -320.557,15.362 -350.557,12.002C-432.557,2.879 -533.557,-22.564 -601.557,17.282C-618.557,27.843 -653.557,23.044 -681.557,21.123C-743.557,16.801 -806.557,-5.281 -865.557,9.601C-869.557,10.561 -863.557,18.243 -870.557,20.643C-915.557,38.405 -971.557,26.883 -1023.56,22.563C-1081.56,17.762 -1134.56,5.76 -1193.56,9.601C-1218.56,11.042 -1241.56,13.921 -1266.56,12.481C-1302.39,10.481 -1335.44,2.48 -1370.35,0.424C-1377.34,0.012 -1384.4,-0.161 -1391.58,0C-1453.56,2.4 -1510.56,11.042 -1571.56,18.243C-1641.56,26.883 -1705.56,20.163 -1775.56,12.961C-1788.56,12.002 -1800.56,12.481 -1813.59,12.481L-2048,12.481L-2048,-4.459L-1813.75,-4.459C-1766.56,-5.281 -1723.56,4.8 -1677.56,6.72C-1654.56,7.201 -1632.56,2.4 -1608.56,0C-1596.56,-0.96 -1584.56,-0.96 -1572.56,-2.401C-1516.56,-8.642 -1462.56,-9.122 -1406.92,-11.066C-1399.81,-11.363 -1393,-11.429 -1386.28,-11.3C-1352.81,-10.656 -1320.72,-5.121 -1286.56,-1.921C-1275.56,-1.441 -1266.56,0 -1255.56,-0.96C-1187.56,-7.681 -1125.56,-4.801 -1062.56,7.201C-1026.56,14.401 -972.557,23.044 -938.557,12.002C-946.557,7.201 -963.557,0 -956.557,-1.441C-874.557,-23.524 -778.557,-4.322 -689.557,5.76C-670.557,8.161 -648.557,11.521 -632.557,5.28C-557.557,-25.924 -461.557,-7.681 -376.557,-3.361C-319.557,0 -264.557,-7.681 -207.737,-4.459L0,-4.459L0,12.481Z" style="fill:white;fill-rule:nonzero;"/>
        </g>
        <g transform="matrix(1,0,0,1,1242.93,770.144)">
            <path d="M0,76.498C-4.238,-15.555 -34.491,4.582 -53.365,-18.432C-71.741,-40.838 -89.558,-328.086 -147.914,-356.621C-147.913,-356.62 -147.913,-356.619 -147.912,-356.617C-150.752,-358.643 -153.687,-360.051 -156.729,-360.754C-157.582,-360.951 -162.888,-361.617 -166.88,-361.375C-166.88,-361.371 -166.879,-361.366 -166.878,-361.362C-222.615,-362.631 -192.63,-134.698 -268.376,-55.828C-286.376,-37.086 -293.206,10.033 -303.692,63.328C-304.149,65.651 -304.334,68.066 -304.33,70.548L-304.344,70.548C-306.269,97.66 -289.063,124.769 -289.038,124.809C-284.643,137.841 -281.449,150.713 -283.193,162.287C-283.544,164.608 -284.363,166.802 -285.513,168.908C-296.258,183.244 -320.365,192.985 -326.181,209.359L-326.171,209.359C-326.906,211.024 -327.43,212.745 -327.667,214.542C-331.147,240.968 -327.086,272.084 -328.893,297.171C-337.472,332.379 -342.171,390.456 -342.196,390.764C-347.602,421.097 -351.922,439.129 -351.922,439.129L87.616,439.129C87.616,439.129 68.79,295.125 66.945,246.221C65.102,197.316 4.239,168.551 0,76.498" style="fill:rgb(211,221,208);fill-rule:nonzero;"/>
        </g>
        <g transform="matrix(1,0,0,1,1821.71,603.602)">
            <path d="M0,55.801C-26.362,-13.176 -11.363,-159.961 -11.723,-265.318C-11.822,-294.382 -27.856,-331.752 -49.913,-369.483C-76.548,-429.835 -121.146,-491.368 -172.216,-522.67L-172.216,-522.669C-197.431,-542.217 -219.932,-549.869 -233.842,-537.877C-260.585,-514.824 -267.678,-427.61 -273.382,-337.901C-274.754,-316.323 -302.005,-265.498 -303.47,-244.49C-303.596,-242.685 -303.69,-240.92 -303.765,-239.186L-303.767,-239.186C-315.194,-216.035 -294.246,-158.944 -293.78,-157.68C-293.745,-151.894 -294.55,-146.085 -296.729,-139.863C-304.7,-117.094 -317.306,-90.137 -329.126,-61.898C-343.051,-28.637 -344.859,0.208 -345.521,31.031C-351.298,60.151 -323.595,160.598 -323.595,160.598C-333.124,250.346 -372.57,277.66 -391.027,320.584C-391.842,322.476 -392.159,324.561 -392.104,326.844C-392.822,359.592 -377.962,400.694 -377.619,401.636C-377.76,403.717 -377.943,405.825 -378.217,407.99C-382.629,442.807 -418.114,493.46 -421.206,525.953C-425.511,571.194 -428.172,605.67 -428.172,605.67L27.347,605.67C27.347,447.462 -8.084,385.2 -8.667,322.768C-9.249,260.334 26.361,124.778 0,55.801" style="fill:rgb(211,221,208);fill-rule:nonzero;"/>
        </g>
        <g transform="matrix(1,0,0,1,790.296,567.036)">
            <path d="M0,197.162C-7.112,152.133 -43.968,276.113 -66.532,272.689C-80.893,254.348 -84.454,188.103 -84.293,150.86C-83.421,-50.697 -92.851,-281.051 -125.9,-386.123C-137.014,-421.455 -164.125,-444.009 -179.073,-444.938C-179.209,-444.961 -179.345,-444.984 -179.481,-445.002C-179.632,-445.023 -179.781,-445.034 -179.932,-445.047C-180.147,-445.063 -180.362,-445.074 -180.578,-445.074C-180.729,-445.074 -180.88,-445.07 -181.03,-445.062C-181.244,-445.05 -181.459,-445.027 -181.672,-444.998C-181.82,-444.979 -181.968,-444.958 -182.116,-444.93C-182.337,-444.887 -182.556,-444.83 -182.775,-444.768C-182.915,-444.729 -183.055,-444.695 -183.192,-444.649C-183.433,-444.567 -183.674,-444.468 -183.913,-444.364C-184.029,-444.315 -184.146,-444.273 -184.262,-444.217C-184.616,-444.048 -184.97,-443.856 -185.321,-443.637C-212.232,-426.774 -238.159,-374.514 -272.108,-304.162C-279.608,-288.619 -300.859,-162.528 -309.241,-145.405C-322.451,-118.415 -346.625,-102.831 -356.671,-71.274C-357.76,-67.852 -358.326,-64.375 -358.482,-60.864L-358.482,-60.859C-358.648,-57.133 -358.344,-53.363 -357.665,-49.567C-353.688,-21.414 -336.071,0.176 -330.05,14.695C-329.813,15.287 -329.582,15.88 -329.36,16.469C-329.303,16.629 -329.235,16.794 -329.182,16.952C-322.193,35.775 -322.49,52.685 -345.961,65.286C-400.018,94.308 -458.027,160.424 -442.106,197.164C-428.579,232.355 -422.076,332.548 -422.076,332.548L-422.075,332.548C-419.724,462.189 -429.522,642.236 -429.522,642.236L46.921,642.236L46.921,384.463C46.921,384.463 28.449,259.572 0,197.162" style="fill:rgb(211,221,208);fill-rule:nonzero;"/>
        </g>
        <g transform="matrix(1,0,0,1,2040.29,1207.04)">
            <path d="M0,-968.923C0.003,-968.922 0.006,-968.92 0.008,-968.92C-18.217,-964.691 -39.026,-941.339 -59.589,-905.661C-70.834,-886.148 -58.164,-860.954 -66.089,-822.424C-75.345,-777.417 -93.284,-722.113 -98.639,-666.902C-99.97,-653.185 -99.635,-643.533 -98.478,-635.855C-98.726,-630.714 -95.54,-614.437 -91.908,-607.397C-87.949,-599.719 -87.591,-586.323 -87.575,-582.314C-87.576,-582.028 -87.575,-581.747 -87.577,-581.456C-87.577,-581.433 -87.577,-581.407 -87.578,-581.387C-87.597,-579.466 -87.654,-577.446 -87.755,-575.316C-89.617,-536.189 -118.926,-446.47 -112.976,-418.389L-112.981,-418.389C-113.841,-403.373 -105.272,-393.134 -102.182,-378.685C-101.709,-375.708 -101.357,-372.864 -101.121,-370.142C-100.771,-359.586 -103.94,-339.87 -103.962,-339.734C-111.302,-317.152 -129.278,-306.967 -138.215,-289.772C-138.813,-288.62 -139.156,-287.056 -139.3,-285.153C-140.741,-279.079 -136.446,-253.364 -132.759,-240.419C-130.126,-231.176 -124.488,-197.231 -124.476,-197.155C-123.969,-189.402 -124.313,-182.556 -126.032,-177.343C-137.54,-142.444 -176.246,-152.074 -174.746,-110.651C-172.557,-50.178 -162.586,2.133 -162.586,2.133L7.705,2.133L7.705,-971.056C5.172,-970.806 2.6,-970.093 0,-968.923" style="fill:rgb(211,221,208);fill-rule:nonzero;"/>
        </g>
        <g transform="matrix(1,0,0,1,175.984,384.007)">
            <path d="M0,676.752C-14.648,645.535 -21.106,583.102 -30.188,555.786C-39.269,528.473 -79.612,391.898 -99.177,333.891C-118.74,275.883 -112.115,79.731 -127.651,-50.855C-133.769,-102.284 -145.236,-131.731 -158.903,-141.457C-158.903,-141.456 -158.902,-141.455 -158.902,-141.455C-164.259,-146.484 -170.012,-148.514 -175.984,-147.922L-175.984,825.266L0,825.266C0,825.266 14.648,707.968 0,676.752" style="fill:rgb(211,221,208);fill-rule:nonzero;"/>
        </g>
        <g transform="matrix(1,0,0,1,51.2231,343.616)">
            <path d="M0,849.264C0,849.264 12.375,790.916 20.807,706.84C23.517,679.815 18.942,644.6 22.39,615.026C24.898,593.503 60.572,582.029 63.442,560.523C67.749,528.246 39.471,486.311 44.521,457.311C54.2,401.725 60.504,352.581 77.119,333.034C148.938,248.538 117.781,0 175.179,15.001C232.577,30.002 250.169,348.035 267.591,372.037C285.012,396.039 312.938,375.037 316.851,471.047C320.764,567.057 376.943,597.059 378.646,648.065C380.349,699.071 397.727,849.264 397.727,849.264L0,849.264Z" style="fill:rgb(152,182,122);fill-rule:nonzero;"/>
        </g>
        <g transform="matrix(1,0,0,1,434.869,558.917)">
            <path d="M0,432.764C-1.703,381.758 -57.882,351.756 -61.796,255.746C-65.708,159.737 -93.634,180.739 -111.056,156.737C-128.477,132.734 -146.069,-185.299 -203.467,-200.299C-204.256,-200.506 -209.152,-201.199 -212.838,-200.948C-208.04,-174.621 -205.904,-138.892 -205.116,-100.142C-204.829,-86.009 -199.232,-69.609 -195.217,-53.615C-219.839,-46.461 -241.839,-39.961 -241.839,-39.961C-241.839,-39.961 -194.829,-4.711 -198.408,5.512C-201.987,15.735 -205.584,25.746 -205.749,36.551C-205.911,47.178 -198.403,62.772 -198.505,72.539C-198.671,88.266 -206.375,97.364 -206.18,109.858C-205.788,134.825 -205.098,152.677 -201.056,156.737C-196.638,161.172 -277.591,168.668 -273.839,173.539C-268.999,179.825 -179.668,183.592 -175.87,190.15C-172.315,196.288 -230.543,202.593 -227.839,208.539C-225.278,214.17 -161.742,219.465 -159.892,224.559C-154.454,239.531 -151.972,251.423 -151.796,255.746C-151.749,256.895 -151.699,258.034 -151.645,259.162C-151.3,266.416 -150.814,273.254 -150.21,279.724C-149.012,292.561 -180.448,316.272 -178.505,326.539C-176.875,335.159 -145.092,342.615 -143.172,349.873C-140.831,358.722 -213.213,366.14 -210.505,372.539C-206.534,381.925 -127.428,389.305 -124.206,397.318C-120.754,405.902 -286.124,415.205 -285.706,427.718C-285.323,439.18 -113.38,448.178 -109.859,458.121C-103.792,475.254 -99.373,494.671 -118.33,532.003C-128.595,552.218 -140.919,633.963 -140.919,633.963L19.081,633.963C19.081,633.963 1.703,483.77 0,432.764" style="fill:rgb(131,153,107);fill-rule:nonzero;"/>
        </g>
        <g transform="matrix(1,0,0,1,437.869,564.126)">
            <path d="M0,427.555C-1.703,376.549 -57.882,346.547 -61.796,250.537C-65.708,154.528 -93.634,175.53 -111.056,151.528C-128.017,128.159 -144.464,-171.435 -198.331,-201.199C-141.839,-82.67 -145.512,133.492 -131.839,152.33C-114.417,176.333 -85.751,174.322 -81.839,270.33C-77.925,366.34 -30.542,378.326 -28.839,429.33C-27.136,480.336 -20.919,628.754 -20.919,628.754L19.081,628.754C19.081,628.754 1.703,478.561 0,427.555" style="fill:rgb(111,130,87);fill-rule:nonzero;"/>
        </g>
        <g transform="matrix(1,0,0,1,112.585,954.679)">
            <path d="M0,-43.723C7.988,-41.056 68.111,-28.389 67.111,-25.889C66.111,-23.389 -27.647,0 -37.601,-1.445C-32.222,-18.556 -9.889,-28.723 0,-43.723" style="fill:rgb(131,153,107);fill-rule:nonzero;"/>
        </g>
        <g transform="matrix(1,0,0,1,95.1421,865.052)">
            <path d="M0,-56.596C0,-56.596 125.555,-51.595 129.888,-45.928C134.222,-40.262 14.129,0 14.129,0C14.129,0 -1.778,-28.297 0,-56.596" style="fill:rgb(131,153,107);fill-rule:nonzero;"/>
        </g>
        <g transform="matrix(-0.840265,0.542176,0.542176,0.840265,180.167,1110.72)">
            <path d="M54.733,-113.779C48.207,-109.527 -21.906,-64.328 -22.574,-56.757C-23.242,-49.185 48.192,-65.127 54.733,-57.447C61.275,-49.767 118.003,-38.386 118.003,-38.386C118.003,-38.386 81.37,-87.153 54.733,-113.779" style="fill:rgb(131,153,107);fill-rule:nonzero;"/>
        </g>
        <g transform="matrix(1,0,0,1,710.751,418.828)">
            <path d="M0,774.052C0,774.052 -9.203,733.833 -11.224,687.335C-12.608,655.486 23.12,662.89 33.742,636.057C42.017,615.155 15.908,560.173 22.498,549.611C36.717,526.819 75.741,520.057 46.502,452.841C38.343,434.083 67.295,361.21 69.075,330.057C71.084,294.898 54.47,298.782 59.028,259.638C63.972,217.185 80.53,174.661 89.075,140.057C96.39,110.431 84.694,91.06 95.075,76.057C138.669,13.05 183.467,0 197.808,100.407C212.148,200.816 206.033,351.636 224.092,396.238C242.151,440.839 279.391,545.851 287.773,566.853C296.156,587.855 302.117,635.859 315.639,659.862C329.16,683.864 315.639,774.052 315.639,774.052L0,774.052Z" style="fill:rgb(152,182,122);fill-rule:nonzero;"/>
        </g>
        <g transform="matrix(1,0,0,1,1028.39,552.397)">
            <path d="M0,526.292C-13.521,502.289 -19.482,454.285 -27.865,433.283C-36.248,412.281 -73.487,307.27 -91.547,262.668C-109.605,218.066 -103.49,67.246 -117.831,-33.162C-126.646,-94.886 -146.128,-114.19 -167.559,-106.154C-151.757,-102.838 -144.86,-84.163 -142.349,-65.639C-141.549,-59.74 -185.787,-58.879 -185.73,-53.513C-185.704,-51.062 -141.146,-43.7 -141.23,-41.513C-141.493,-34.72 -149.43,-28.844 -150.73,-22.263C-153.053,-10.514 -149.262,1.895 -149.897,14.487C-150.308,22.604 -156.609,29.945 -158.73,37.737C-160.009,42.432 -156.831,47.639 -158.235,52.287C-159.337,55.933 -207.755,59.59 -208.73,63.237C-210.669,70.486 -164.847,77.745 -165.23,85.154C-165.961,99.24 -185.26,96.669 -189.73,104.237C-191.355,106.988 -159.521,133.053 -159.081,136.133C-158.219,142.185 -157.688,148.097 -157.897,153.82C-158.721,176.227 -177.258,178.789 -180.73,195.987C-181.593,200.261 -167.556,222.211 -168.351,226.064C-171.875,243.152 -174.278,255.921 -171.547,262.668C-168.598,269.951 -214.88,278.307 -208.79,284.487C-204.648,288.691 -148.003,289.727 -145.23,297.154C-143.45,301.924 -142.146,307.605 -141.083,313.742C-137.891,332.152 -170.469,348.654 -165.23,362.987C-162.02,371.773 -124.51,384.609 -120.514,390.109C-116.638,395.441 -112.675,399.527 -109.172,402.939C-104.159,407.824 -100.089,411.332 -98.563,415.154C-97.097,418.829 -138.742,426.307 -139.23,434.987C-139.51,439.943 -98.432,445.368 -98.651,450.512C-98.979,458.19 -98.958,465.493 -97.747,470.672C-96.146,477.516 -227.779,482.895 -229.23,489.487C-229.695,491.597 -117.693,507.438 -118.23,509.487C-120.921,519.763 -105.502,516.904 -101.23,524.487C-98.76,528.874 -91.884,535.924 -85.664,544.229C-79.443,552.534 -73.88,562.096 -74.031,571.508C-74.557,604.18 -80,640.482 -80,640.482L0,640.482C0,640.482 13.521,550.295 0,526.292" style="fill:rgb(131,153,107);fill-rule:nonzero;"/>
        </g>
        <g transform="matrix(1,0,0,1,1030.39,563.763)">
            <path d="M0,514.926C-13.521,490.923 -19.482,442.919 -27.865,421.917C-36.248,400.915 -73.487,295.904 -91.547,251.302C-109.605,206.7 -103.49,55.88 -117.831,-44.528C-123.479,-84.07 -134.063,-106.712 -146.679,-114.19C-135.983,-96.141 -130.64,-54.765 -129.444,-4.409C-129.156,7.747 -123.262,23.839 -123.23,36.621C-123.194,51.494 -129.058,63.124 -129.202,78.132C-129.911,151.681 -131.699,222.216 -123.897,244.454C-105.838,295.931 -77.996,363.564 -69.613,387.802C-61.23,412.041 -52.752,470.753 -39.23,498.454C-25.709,526.155 -29,629.116 -29,629.116L0,629.116C0,629.116 13.521,538.929 0,514.926" style="fill:rgb(111,130,87);fill-rule:nonzero;"/>
        </g>
        <g transform="matrix(1,0,0,1,769.929,744.4)">
            <path d="M0,-42.065C0,-42.065 65.23,-42.015 66.73,-38.015C68.23,-34.015 29.727,-33.015 29.229,-29.015C28.73,-25.015 43.23,-26.015 44.23,-20.015C45.23,-14.015 10.058,0 10.058,0C10.058,0 10.397,-13.182 6.063,-20.182C2.711,-25.596 -0.23,-38.115 0,-42.065" style="fill:rgb(131,153,107);fill-rule:nonzero;"/>
        </g>
        <g transform="matrix(1,0,0,1,756.541,929.367)">
            <path d="M0,-59.822C0,-59.822 53.951,-60.482 62.618,-48.482C71.285,-36.482 39.283,-44.482 35.284,-34.482C31.285,-24.482 37.285,-19.149 33.285,-14.482C29.285,-9.815 8.324,0.66 8.324,0.66C8.324,0.66 11.285,-14.649 10.945,-22.78C10.325,-37.628 -0.939,-46.149 0,-59.822" style="fill:rgb(131,153,107);fill-rule:nonzero;"/>
        </g>
        <g transform="matrix(1,0,0,1,732.247,1039.65)">
            <path d="M0,-67.668C0,-67.668 64.246,-55.436 59.579,-50.102C54.912,-44.769 21.578,-50.102 20.912,-40.102C20.246,-30.102 28.246,-26.768 28.246,-19.436C28.246,-12.102 13.684,0 13.684,0C13.684,0 8.471,-26.152 6.037,-33.269C2.633,-43.224 -1.333,-63.001 0,-67.668" style="fill:rgb(131,153,107);fill-rule:nonzero;"/>
        </g>
        <g transform="matrix(1,0,0,1,364.045,583.393)">
            <path d="M0,609.487C0,609.487 1.64,591.778 4.296,568.537C6.202,551.844 28.086,525.825 30.807,507.939C34.338,484.731 18.904,470.794 22.907,463.04C34.29,440.99 58.616,426.958 64.493,380.854C66.925,361.774 50.384,341.975 50.849,319.674C51.223,301.762 51.53,285.564 61.081,266.559C68.371,252.052 76.145,238.206 81.062,226.508C87.528,211.123 74.569,200.641 76.904,172.762C77.808,161.969 94.613,135.862 95.459,124.777C98.978,78.694 103.352,33.891 119.844,22.049C150.55,0 249.135,107.212 249.357,161.333C249.579,215.454 247.797,291.589 264.055,327.021C280.313,362.454 258.351,432.089 258.71,464.161C259.07,496.233 280.92,528.217 280.92,609.487L0,609.487Z" style="fill:rgb(152,182,122);fill-rule:nonzero;"/>
        </g>
        <g transform="matrix(1,0,0,1,622.755,758.581)">
            <path d="M0,288.973C-0.359,256.901 21.603,187.266 5.345,151.833C-10.913,116.401 -9.131,40.266 -9.353,-13.855C-9.513,-52.857 -60.752,-119.425 -100.861,-145.326C-95.787,-135.312 -92.996,-125.072 -90.781,-115.437C-88.238,-104.377 -103.244,-97.805 -99.634,-89.609C-97.328,-84.373 -78.466,-75.465 -76.603,-70.276C-73.39,-61.329 -137.853,-53.249 -135.746,-44.515C-133.672,-35.92 -65.014,-26.667 -63.752,-18.362C-62.717,-11.546 -107.985,-4.013 -107.34,2.556C-105.475,21.569 -58.874,38.625 -57.966,54.82C-57.355,65.688 -71.397,73.994 -69.927,83.174C-68.707,90.786 -52.189,99.562 -49.723,105.8C-44.94,117.903 -55.301,130.239 -55.674,146.866C-55.872,155.629 -134.776,168.789 -135.737,177.952C-136.741,187.522 -48.048,196.143 -49.371,205.485C-51.298,219.09 -53.283,232.095 -54.514,243.451C-55.31,250.793 -118.305,254.442 -118.25,260.123C-118.19,266.354 -55.51,275.659 -55.277,282.269C-55.132,286.395 -54.96,290.641 -54.771,295.071C-54.478,301.938 -54.142,309.241 -53.798,317.203C-53.163,331.861 -52.499,348.75 -52.011,369.262C-51.812,377.669 -51.642,386.686 -51.517,396.406C-51.368,407.985 -51.28,420.562 -51.28,434.299L22.21,434.299C22.21,353.03 0.36,321.045 0,288.973" style="fill:rgb(131,153,107);fill-rule:nonzero;"/>
        </g>
        <g transform="matrix(1,0,0,1,622.755,793.192)">
            <path d="M0,254.362C-0.359,222.29 21.603,152.655 5.345,117.222C-10.913,81.79 -9.131,5.655 -9.353,-48.466C-9.462,-75.136 -33.458,-114.695 -61.446,-145.326C-50.166,-124.726 -24.923,-69.585 -24.863,-53.545C-24.641,5.394 -27.022,77.868 -10.764,116.455C5.493,155.042 -19.978,223.864 -19.618,258.791C-19.258,293.717 -4.734,329.69 -11.195,399.688L22.21,399.688C22.21,318.419 0.36,286.434 0,254.362" style="fill:rgb(111,130,87);fill-rule:nonzero;"/>
        </g>
        <g transform="matrix(1,0,0,1,440.766,797.677)">
            <path d="M0,-38.797C0,-38.797 43.438,-41.885 45.665,-40.104C47.892,-38.322 43.883,-36.094 31.857,-29.859C19.832,-23.623 19.832,-18.725 19.832,-12.934C19.832,-7.144 6.165,3.088 6.165,3.088C6.165,3.088 -7.127,-26.772 0,-38.797" style="fill:rgb(131,153,107);fill-rule:nonzero;"/>
        </g>
        <g transform="matrix(1,0,0,1,415.016,961.869)">
            <path d="M0,-64.18C0,-64.18 111.445,-66.559 114.118,-64.18C116.79,-61.801 46.473,-51.969 41.574,-46.623C36.674,-41.279 36.229,-35.489 33.557,-23.909C30.884,-12.327 13.522,2.379 13.522,2.379C13.522,2.379 -3.563,-49.223 0,-64.18" style="fill:rgb(131,153,107);fill-rule:nonzero;"/>
        </g>
        <g transform="matrix(1,0,0,1,386.288,1088.73)">
            <path d="M0,-39.084C0,-39.084 18.857,-33.739 31.885,-33.739C44.913,-33.739 70.635,-37.414 75.979,-33.739C81.325,-30.065 62.618,-24.72 52.597,-20.712C42.575,-16.703 41.572,-11.692 44.579,-10.022C47.585,-8.352 54.601,-8.018 54.267,-4.009C53.933,0 8.942,-0.638 8.942,-0.638C8.942,-0.638 -0.451,-22.065 0,-39.084" style="fill:rgb(131,153,107);fill-rule:nonzero;"/>
        </g>
        <g transform="matrix(1,0,0,1,1642.8,337.615)">
            <path d="M0,855.266C0,855.266 17.446,545.451 -6.12,519.052C-29.686,492.654 20.226,435.654 66.484,411.654C112.743,387.654 45.882,343.326 57.963,306.654C65.956,282.388 85.189,270.407 95.7,249.654C102.369,236.488 119.276,139.537 125.244,127.586C152.255,73.494 172.883,33.311 194.295,20.345C227.893,0 275.641,261.831 274.677,477.451C273.712,693.07 333.406,462.046 341.743,513.052C350.08,564.057 379.075,657.066 379.075,657.066L379.075,855.266L0,855.266Z" style="fill:rgb(152,182,122);fill-rule:nonzero;"/>
        </g>
        <g transform="matrix(1,0,0,1,1984.54,694.452)">
            <path d="M0,156.215C-8.337,105.209 -68.031,336.233 -67.066,120.613C-66.373,-34.363 -90.846,-213.213 -117.142,-294.002C-127.431,-325.615 -137.999,-342.214 -147.448,-336.492C-127.084,-319.541 -129.49,-272.54 -125.058,-251.177C-121.508,-234.07 -142.255,-193.053 -139.068,-173.291C-137.346,-162.606 -208.699,-157.476 -207.114,-146.183C-204.675,-128.8 -129.401,-104.877 -127.36,-86.411C-126.96,-82.789 -147.833,-57.838 -147.448,-54.183C-145.26,-33.332 -122.091,-33.303 -120.53,-11.775C-118.916,10.496 -117.669,32.966 -116.854,55.298C-116.05,77.311 -245.948,66.393 -246.043,87.817C-246.058,91.09 -115.784,127.082 -115.792,130.199C-115.823,144.188 -115.775,156.625 -115.646,167.674C-115.419,187.15 -184.251,202.942 -181.524,214.459C-173.161,249.776 -132.269,223.424 -100.17,254.817C-88.252,266.471 -63.829,280.619 -55.059,287.49C-45.014,295.356 -207.511,312.92 -207.089,322.817C-206.546,335.522 -73.477,351.979 -73.931,364.823C-74.854,390.951 -37.093,395.818 -40.313,418.817C-47.13,467.499 -34.164,498.429 -34.164,498.429L37.332,498.429L37.332,300.229C37.332,300.229 8.337,207.22 0,156.215" style="fill:rgb(131,153,107);fill-rule:nonzero;"/>
        </g>
        <g transform="matrix(1,0,0,1,1899.19,472.781)">
            <path d="M0,323.821C3.804,444.363 27.998,435.988 32.462,436.015C20.999,421.988 18.16,370.957 18.288,342.285C18.981,187.308 -5.491,8.459 -31.787,-72.33C-42.076,-103.944 -52.645,-120.542 -62.094,-114.821C-41.729,-97.869 -44.136,-50.868 -39.703,-29.505C-37.763,-20.154 -7.983,70.869 0,323.821" style="fill:rgb(111,130,87);fill-rule:nonzero;"/>
        </g>
        <g transform="matrix(1,0,0,1,1984.54,1192.88)">
            <path d="M0,-342.214C11.423,-241.612 2.982,-214.286 0.812,-198.2C-1.358,-182.112 15.075,-171.108 15.075,-171.108L0.812,-148.113L7.163,-116.112L0.812,-97.612L5.945,-91.112L0.812,-41.112L0.812,0L37.332,0L37.332,-198.2C37.332,-198.2 22.635,-294.228 0,-342.214" style="fill:rgb(111,130,87);fill-rule:nonzero;"/>
        </g>
        <g transform="matrix(1,0,0,1,1699.32,711.173)">
            <path d="M0,-58.903C0,-58.903 98.384,-59.852 102.035,-55.852C105.688,-51.852 54.313,-44.905 49.14,-35.905C43.966,-26.905 88.48,-34.905 82.394,-21.405C76.308,-7.905 35.257,-3.03 23.32,0.949C18.891,-11.572 0,-31.739 0,-58.903" style="fill:rgb(131,153,107);fill-rule:nonzero;"/>
        </g>
        <g transform="matrix(1,0,0,1,1632.78,954.765)">
            <path d="M0,-104.098C0,-104.098 132.292,-99.932 137.771,-91.83C143.248,-83.729 57.02,-68.996 54.585,-54.996C52.15,-40.996 88.062,-37.496 78.323,-29.496C68.584,-21.496 15.937,0 15.937,0C15.937,0 10.763,-77.041 0,-104.098" style="fill:rgb(131,153,107);fill-rule:nonzero;"/>
        </g>
        <g transform="matrix(1,0,0,1,1134.04,280.609)">
            <path d="M0,912.271C0,912.271 2.802,885.763 7.338,850.978C10.595,825.994 47.979,787.046 52.626,760.276C58.657,725.539 32.292,704.676 39.131,693.07C58.575,660.067 100.13,639.064 110.17,570.058C114.324,541.498 86.068,511.864 86.862,478.484C87.5,451.674 88.025,427.429 104.342,398.982C116.795,377.269 130.074,356.542 138.472,339.035C149.518,316.005 127.381,300.316 131.37,258.587C132.914,242.435 161.622,203.355 163.067,186.765C169.077,117.788 176.549,50.73 204.722,33.003C257.176,0 425.582,160.472 425.962,241.48C426.341,322.489 423.298,436.445 451.069,489.48C478.842,542.516 441.325,646.745 441.939,694.75C442.554,742.753 479.879,790.626 479.879,912.271L0,912.271Z" style="fill:rgb(152,182,122);fill-rule:nonzero;"/>
        </g>
        <g transform="matrix(1,0,0,1,1575.98,542.826)">
            <path d="M0,432.532C-0.614,384.527 36.902,280.299 9.13,227.262C-18.642,174.227 -15.599,60.271 -15.978,-20.738C-16.251,-79.114 -103.78,-178.751 -172.296,-217.521C-163.627,-202.532 -158.86,-187.203 -155.076,-172.782C-150.731,-156.228 -176.366,-146.392 -170.199,-134.124C-166.26,-126.285 -134.04,-112.952 -130.856,-105.187C-125.368,-91.794 -235.486,-79.7 -231.887,-66.628C-228.345,-53.762 -111.06,-39.913 -108.905,-27.482C-107.137,-17.28 -184.465,-6.007 -183.364,3.827C-180.177,32.286 -100.571,57.815 -99.021,82.054C-97.979,98.323 -121.965,110.755 -119.453,124.494C-117.368,135.888 -89.152,149.024 -84.94,158.361C-76.769,176.475 -94.467,194.94 -95.105,219.827C-95.442,232.946 -230.23,252.643 -231.873,266.356C-233.588,280.682 -82.078,293.584 -84.339,307.567C-87.63,327.932 -91.021,347.397 -93.124,364.393C-94.484,375.386 -202.094,380.844 -202,389.349C-201.897,398.677 -94.826,412.603 -94.428,422.497C-94.18,428.672 -93.887,435.028 -93.563,441.657C-93.062,451.936 -92.489,462.868 -91.9,474.786C-90.816,496.725 -89.682,522.005 -88.849,552.706C-88.508,565.291 -88.218,578.786 -88.004,593.335C-87.749,610.665 -87.601,629.491 -87.601,650.053L37.939,650.053C37.939,528.409 0.614,480.536 0,432.532" style="fill:rgb(131,153,107);fill-rule:nonzero;"/>
        </g>
        <g transform="matrix(1,0,0,1,1575.98,594.631)">
            <path d="M0,380.727C-0.614,332.722 36.902,228.494 9.13,175.457C-18.642,122.422 -15.599,8.466 -15.978,-72.543C-16.165,-112.461 -57.155,-171.671 -104.965,-217.521C-85.697,-186.687 -42.575,-104.153 -42.473,-80.144C-42.094,8.077 -46.16,116.551 -18.389,174.309C9.383,232.066 -34.127,335.077 -33.513,387.356C-32.898,439.633 -8.088,493.477 -19.124,598.248L37.939,598.248C37.939,476.604 0.614,428.731 0,380.727" style="fill:rgb(111,130,87);fill-rule:nonzero;"/>
        </g>
        <g transform="matrix(1,0,0,1,1265.1,601.346)">
            <path d="M0,-58.072C0,-58.072 74.202,-62.693 78.006,-60.026C81.811,-57.359 74.963,-54.025 54.42,-44.693C33.877,-35.359 33.877,-28.027 33.877,-19.359C33.877,-10.693 10.53,4.621 10.53,4.621C10.53,4.621 -12.175,-40.072 0,-58.072" style="fill:rgb(131,153,107);fill-rule:nonzero;"/>
        </g>
        <g transform="matrix(1,0,0,1,1221.12,847.106)">
            <path d="M0,-96.064C0,-96.064 190.375,-99.625 194.94,-96.064C199.505,-92.503 79.387,-77.786 71.018,-69.786C62.648,-61.786 61.887,-53.119 57.322,-35.786C52.757,-18.453 23.1,3.561 23.1,3.561C23.1,3.561 -6.087,-73.675 0,-96.064" style="fill:rgb(131,153,107);fill-rule:nonzero;"/>
        </g>
        <g transform="matrix(1,0,0,1,1172.04,1036.99)">
            <path d="M0,-58.5C0,-58.5 32.213,-50.5 54.469,-50.5C76.723,-50.5 120.662,-56 129.792,-50.5C138.923,-45 106.967,-37 89.848,-31C72.729,-25 71.017,-17.5 76.152,-15C81.288,-12.5 93.271,-12 92.701,-6C92.13,0 15.276,-0.953 15.276,-0.953C15.276,-0.953 -0.769,-33.027 0,-58.5" style="fill:rgb(131,153,107);fill-rule:nonzero;"/>
        </g>
        <g transform="matrix(-1,0,0,1,2048,1184.07)">
            <rect x="0" y="0" width="2048" height="351.928" style="fill:rgb(32,47,24);"/>
        </g>
        <g transform="matrix(-1,0,0,1,2405.89,1184.07)">
            <rect x="1123.44" y="0" width="159" height="351.928" style="fill:rgb(23,38,20);"/>
        </g>
        <g transform="matrix(-1,0,0,1,1118.89,1184.07)">
            <rect x="493.443" y="0" width="132" height="351.928" style="fill:rgb(23,38,20);"/>
        </g>
        <g transform="matrix(1,0,0,1,845.443,1458.67)">
            <path d="M0,-126.085L0,77.333L-132,77.333L-132,-174.751C-132,-193.418 -115.333,-203.418 -102,-203.418L-56.667,-203.418C-43.874,-203.418 0,-194.751 0,-126.085" style="fill:rgb(23,38,20);fill-rule:nonzero;"/>
        </g>
        <g transform="matrix(1,0,0,1,975.882,1483.56)">
            <path d="M0,-139.871L0,52.44L-72.438,52.44L-72.438,-172.872C-72.438,-185.53 -63.292,-192.311 -55.975,-192.311L-31.097,-192.311C-24.077,-192.311 0,-186.434 0,-139.871" style="fill:rgb(23,38,20);fill-rule:nonzero;"/>
        </g>
        <g transform="matrix(-1,0,0,1,742.886,1184.07)">
            <rect x="323.443" y="0" width="96" height="351.928" style="fill:rgb(23,38,20);"/>
        </g>
        <g transform="matrix(-1,0,0,1,408.886,1184.07)">
            <rect x="163.443" y="0" width="82" height="351.928" style="fill:rgb(23,38,20);"/>
        </g>
        <g transform="matrix(-1,0,0,1,2873.89,1184.07)">
            <rect x="1381.44" y="0" width="111" height="351.928" style="fill:rgb(23,38,20);"/>
        </g>
        <g transform="matrix(-1,0,0,1,3378.89,1184.07)">
            <rect x="1611.44" y="0" width="156" height="351.928" style="fill:rgb(23,38,20);"/>
        </g>
        <g transform="matrix(-1,0,0,1,3788.89,1184.07)">
            <rect x="1861.44" y="0" width="66" height="351.928" style="fill:rgb(23,38,20);"/>
        </g>
        <g transform="matrix(1,0,0,1,2048,1169.4)">
            <path d="M0,59.696L-82.022,59.696C-96.557,59.848 -112.557,52.848 -127.557,56.848C-175.557,69.848 -223.557,67.848 -269.557,50.848C-277.557,47.848 -286.557,47.848 -295.557,48.848C-378.557,61.848 -460.557,77.848 -542.557,51.848C-573.557,41.848 -603.557,58.848 -635.557,63.848C-660.557,67.848 -684.557,68.848 -708.557,61.848C-780.557,39.848 -851.557,66.848 -922.557,66.848C-959.557,66.848 -995.557,54.848 -1032.56,53.848C-1110.56,49.848 -1189.56,59.848 -1267.56,58.848C-1360.56,56.848 -1453.56,58.848 -1546.56,67.848C-1569.56,69.848 -1590.56,58.848 -1614.56,54.848C-1645.56,49.848 -1673.56,57.848 -1702.56,65.848C-1723.56,71.848 -1743.99,67.161 -1764.29,61.067C-1771.06,59.036 -1777.81,56.848 -1784.56,54.848C-1792.56,51.848 -1799.56,52.848 -1807.56,52.848C-1842.56,50.848 -1877.56,61.848 -1912.95,59.696L-2048,59.696L-2048,-3.206L-1775.14,-3.206C-1722.56,-2.152 -1670.56,-18.152 -1616.56,-12.152C-1606.56,-11.152 -1596.56,-3.152 -1586.84,-3.206L-1386.8,-3.206C-1374.81,-3.206 -1373.72,1.348 -1366.31,1.348C-1358.89,1.348 -1346.56,-5.152 -1328.56,-0.152C-1324.56,0.848 -1319.56,-0.152 -1315.56,-0.152C-1301.56,-1.152 -1295.06,-3.902 -1282.06,-3.902C-1263.06,-2.902 -1261.72,3.499 -1242.67,-1.533C-1240.89,-1.55 -1219.94,-3.206 -1218.14,-3.206L-953.795,-3.206C-951.846,-3.206 -949.909,-3.209 -947.956,-3.222C-918.557,-7.152 -891.557,-9.152 -862.557,-2.152C-855.557,-0.152 -847.557,-3.152 -839.237,-3.206L-808.155,-3.206C-766.557,-1.152 -725.557,-8.152 -683.557,-8.152C-662.557,-7.152 -644.557,4.848 -622.557,-0.152C-610.557,-2.152 -598.557,-3.152 -586.854,-3.206L-351.351,-3.206C-316.557,-4.152 -280.557,-4.152 -245.557,-6.152C-223.557,-7.152 -203.557,1.848 -180.701,-3.206L0,-3.206L0,59.696Z" style="fill:rgb(56,87,43);fill-rule:nonzero;"/>
        </g>
        <g transform="matrix(0.997498,0.0706886,0.0706886,-0.997498,58.5728,1336.58)">
            <path d="M2.199,0.149C2.199,0.149 -17.735,26.807 -9.792,46.752C-1.848,66.696 -4.404,83.891 2.199,85.028C8.802,86.165 12.928,75.095 11.399,58.946C9.871,42.798 13.625,-22.142 2.199,0.149" style="fill:rgb(23,38,20);fill-rule:nonzero;"/>
        </g>
        <g transform="matrix(1,0,0,1,88.1104,1344.7)">
            <path d="M0,-42.789C0,-42.789 -11.333,-15.68 -6,-3.234C-0.667,9.211 2.666,17.878 7.333,11.211C12,4.544 5.676,-60.667 0,-42.789" style="fill:rgb(23,38,20);fill-rule:nonzero;"/>
        </g>
        <g transform="matrix(1,0,0,1,1028.44,1351.25)">
            <path d="M0,-96C0,-96 33,-83 34,-66C35,-49 40,0 24,-5C8,-10 -6,-77 0,-96" style="fill:rgb(23,38,20);fill-rule:nonzero;"/>
        </g>
        <g transform="matrix(1,0,0,1,1982.78,1321.25)">
            <path d="M0,-62.667C0,-62.667 -4.666,-3.334 5.334,6.666C15.334,16.666 20.666,-79.333 0,-62.667" style="fill:rgb(23,38,20);fill-rule:nonzero;"/>
        </g>
        <g transform="matrix(1,0,0,1,2001.12,1347.39)">
            <path d="M0,-50.195C0,-50.195 -3.737,-2.671 4.272,5.339C12.282,13.349 16.554,-63.544 0,-50.195" style="fill:rgb(23,38,20);fill-rule:nonzero;"/>
        </g>
        <g transform="matrix(0.0643943,0.997925,0.997925,-0.0643943,159.394,1188.54)">
            <path d="M38.097,-39.486C38.097,-39.486 39.308,-16.599 39.904,-7.368C39.819,6.832 38.097,40.894 38.097,40.894C38.097,40.894 42.615,14.586 43.243,1.017C43.871,-12.552 38.097,-39.486 38.097,-39.486" style="fill:rgb(95,114,84);fill-rule:nonzero;"/>
        </g>
        <g transform="matrix(-0.0154432,0.999881,0.999881,0.0154432,326.786,1199.13)">
            <path d="M32.226,-41.771C32.226,-41.771 36.398,-17.95 36.176,-3.618C35.955,10.714 32.226,31.595 32.226,31.595C32.226,31.595 41.4,14.298 41.663,-2.7C41.925,-19.698 32.226,-41.771 32.226,-41.771" style="fill:rgb(95,114,84);fill-rule:nonzero;"/>
        </g>
        <g transform="matrix(-0.0560359,0.998429,0.998429,0.0560359,504.946,1190.84)">
            <path d="M40.911,-49.337C40.911,-49.337 45.851,-27.477 44.843,-9.505C43.834,8.467 40.911,38.357 40.911,38.357C40.911,38.357 48.29,9.385 49.308,-8.754C50.326,-26.891 40.911,-49.337 40.911,-49.337" style="fill:rgb(95,114,84);fill-rule:nonzero;"/>
        </g>
        <g transform="matrix(1,0,0,1,968.694,1236.67)">
            <path d="M0,-14.342C0,-14.342 30.362,-16.921 55.306,-16.921C80.249,-16.921 116.749,-4.671 153.999,-4.671C191.249,-4.671 231.508,-7.108 231.508,-7.108C231.508,-7.108 192.999,2.579 154.749,2.579C116.499,2.579 88.862,-10.921 55.306,-10.921C21.749,-10.921 0,-14.342 0,-14.342" style="fill:rgb(95,114,84);fill-rule:nonzero;"/>
        </g>
        <g transform="matrix(0.0439565,0.999033,0.999033,-0.0439565,1394.49,1155.59)">
            <path d="M67.341,-78.257C67.341,-78.257 75.465,-55.473 77.168,-16.787C78.87,21.899 67.341,71.004 67.341,71.004C67.341,71.004 86.37,25.516 84.509,-16.776C82.648,-59.068 67.341,-78.257 67.341,-78.257" style="fill:rgb(95,114,84);fill-rule:nonzero;"/>
        </g>
        <g transform="matrix(0.0225931,0.999745,0.999745,-0.0225931,1634.68,1110.26)">
            <path d="M110.835,-123.088C110.835,-123.088 118.279,-76.932 119.431,-25.945C120.584,25.042 110.835,113.709 110.835,113.709C110.835,113.709 129.719,45.508 128.1,-26.141C126.481,-97.79 110.835,-123.088 110.835,-123.088" style="fill:rgb(95,114,84);fill-rule:nonzero;"/>
        </g>
        <g transform="matrix(0,1,1,0,1865.07,1176.36)">
            <path d="M51.373,-62.56C51.373,-62.56 55.393,-42.752 55.393,-4.377C55.393,33.997 51.373,51.373 51.373,51.373C51.373,51.373 62.56,30.122 62.56,-3.627C62.56,-37.378 51.373,-62.56 51.373,-62.56" style="fill:rgb(95,114,84);fill-rule:nonzero;"/>
        </g>
        <g transform="matrix(0,-1,-1,0,154.943,1161.91)">
            <path d="M-32.5,-32.5C-33.912,-32.5 -35.057,-17.949 -35.057,0C-35.057,17.949 -33.912,32.5 -32.5,32.5C-31.088,32.5 -29.943,17.949 -29.943,0C-29.943,-17.949 -31.088,-32.5 -32.5,-32.5" style="fill:rgb(49,76,37);fill-rule:nonzero;"/>
        </g>
        <g transform="matrix(0,-1,-1,0,219.8,1186.5)">
            <path d="M-17.144,-17.144C-18.555,-17.144 -19.7,-9.468 -19.7,0.001C-19.7,9.469 -18.555,17.144 -17.144,17.144C-15.732,17.144 -14.586,9.469 -14.586,0.001C-14.586,-9.468 -15.732,-17.144 -17.144,-17.144" style="fill:rgb(49,76,37);fill-rule:nonzero;"/>
        </g>
        <g transform="matrix(0,-1,-1,0,254.087,1179.82)">
            <path d="M-17.144,-17.144C-18.555,-17.144 -19.7,-9.468 -19.7,0.001C-19.7,9.469 -18.555,17.144 -17.144,17.144C-15.732,17.144 -14.586,9.469 -14.586,0.001C-14.586,-9.468 -15.732,-17.144 -17.144,-17.144" style="fill:rgb(49,76,37);fill-rule:nonzero;"/>
        </g>
        <g transform="matrix(0,-1,-1,0,459.435,1150.12)">
            <path d="M-32.5,-32.5C-33.912,-32.5 -35.057,-17.949 -35.057,0C-35.057,17.949 -33.912,32.5 -32.5,32.5C-31.088,32.5 -29.943,17.949 -29.943,0C-29.943,-17.949 -31.088,-32.5 -32.5,-32.5" style="fill:rgb(49,76,37);fill-rule:nonzero;"/>
        </g>
        <g transform="matrix(0,-1,-1,0,524.291,1174.71)">
            <path d="M-17.144,-17.144C-18.555,-17.144 -19.7,-9.468 -19.7,0.001C-19.7,9.469 -18.555,17.144 -17.144,17.144C-15.732,17.144 -14.586,9.469 -14.586,0.001C-14.586,-9.468 -15.732,-17.144 -17.144,-17.144" style="fill:rgb(49,76,37);fill-rule:nonzero;"/>
        </g>
        <g transform="matrix(0,-1,-1,0,603.443,1193.67)">
            <path d="M-17.144,-17.144C-18.555,-17.144 -19.7,-9.468 -19.7,0.001C-19.7,9.469 -18.555,17.144 -17.144,17.144C-15.732,17.144 -14.586,9.469 -14.586,0.001C-14.586,-9.468 -15.732,-17.144 -17.144,-17.144" style="fill:rgb(49,76,37);fill-rule:nonzero;"/>
        </g>
        <g transform="matrix(0,-1,-1,0,558.578,1168.03)">
            <path d="M-17.144,-17.144C-18.555,-17.144 -19.7,-9.468 -19.7,0.001C-19.7,9.469 -18.555,17.144 -17.144,17.144C-15.732,17.144 -14.586,9.469 -14.586,0.001C-14.586,-9.468 -15.732,-17.144 -17.144,-17.144" style="fill:rgb(49,76,37);fill-rule:nonzero;"/>
        </g>
        <g transform="matrix(0,-1,-1,0,745.943,1169.08)">
            <path d="M-32.5,-32.5C-33.912,-32.5 -35.057,-17.949 -35.057,0C-35.057,17.949 -33.912,32.5 -32.5,32.5C-31.088,32.5 -29.943,17.949 -29.943,0C-29.943,-17.949 -31.088,-32.5 -32.5,-32.5" style="fill:rgb(49,76,37);fill-rule:nonzero;"/>
        </g>
        <g transform="matrix(0,-1,-1,0,810.8,1193.67)">
            <path d="M-17.144,-17.144C-18.555,-17.144 -19.7,-9.468 -19.7,0.001C-19.7,9.469 -18.555,17.144 -17.144,17.144C-15.732,17.144 -14.586,9.469 -14.586,0.001C-14.586,-9.468 -15.732,-17.144 -17.144,-17.144" style="fill:rgb(49,76,37);fill-rule:nonzero;"/>
        </g>
        <g transform="matrix(0,-1,-1,0,845.087,1186.99)">
            <path d="M-17.144,-17.144C-18.555,-17.144 -19.7,-9.468 -19.7,0.001C-19.7,9.469 -18.555,17.144 -17.144,17.144C-15.732,17.144 -14.586,9.469 -14.586,0.001C-14.586,-9.468 -15.732,-17.144 -17.144,-17.144" style="fill:rgb(49,76,37);fill-rule:nonzero;"/>
        </g>
        <g transform="matrix(0,-1,-1,0,956.034,1154.74)">
            <path d="M-32.5,-32.5C-33.912,-32.5 -35.057,-17.949 -35.057,0C-35.057,17.949 -33.912,32.5 -32.5,32.5C-31.088,32.5 -29.943,17.949 -29.943,0C-29.943,-17.949 -31.088,-32.5 -32.5,-32.5" style="fill:rgb(49,76,37);fill-rule:nonzero;"/>
        </g>
        <g transform="matrix(0,-1,-1,0,1020.89,1179.32)">
            <path d="M-17.144,-17.144C-18.555,-17.144 -19.7,-9.468 -19.7,0.001C-19.7,9.469 -18.555,17.144 -17.144,17.144C-15.732,17.144 -14.586,9.469 -14.586,0.001C-14.586,-9.468 -15.732,-17.144 -17.144,-17.144" style="fill:rgb(49,76,37);fill-rule:nonzero;"/>
        </g>
        <g transform="matrix(0,-1,-1,0,1055.18,1172.65)">
            <path d="M-17.144,-17.144C-18.555,-17.144 -19.7,-9.468 -19.7,0.001C-19.7,9.469 -18.555,17.144 -17.144,17.144C-15.732,17.144 -14.586,9.469 -14.586,0.001C-14.586,-9.468 -15.732,-17.144 -17.144,-17.144" style="fill:rgb(49,76,37);fill-rule:nonzero;"/>
        </g>
        <g transform="matrix(0,-1,-1,0,1208.11,1193.67)">
            <path d="M-17.144,-17.144C-18.555,-17.144 -19.7,-9.468 -19.7,0.001C-19.7,9.469 -18.555,17.144 -17.144,17.144C-15.732,17.144 -14.586,9.469 -14.586,0.001C-14.586,-9.468 -15.732,-17.144 -17.144,-17.144" style="fill:rgb(49,76,37);fill-rule:nonzero;"/>
        </g>
        <g transform="matrix(0,-1,-1,0,1362.51,1167.02)">
            <path d="M-32.5,-32.5C-33.912,-32.5 -35.057,-17.949 -35.057,0C-35.057,17.949 -33.912,32.5 -32.5,32.5C-31.088,32.5 -29.943,17.949 -29.943,0C-29.943,-17.949 -31.088,-32.5 -32.5,-32.5" style="fill:rgb(49,76,37);fill-rule:nonzero;"/>
        </g>
        <g transform="matrix(0,-1,-1,0,1427.37,1191.61)">
            <path d="M-17.144,-17.144C-18.555,-17.144 -19.7,-9.468 -19.7,0.001C-19.7,9.469 -18.555,17.144 -17.144,17.144C-15.732,17.144 -14.586,9.469 -14.586,0.001C-14.586,-9.468 -15.732,-17.144 -17.144,-17.144" style="fill:rgb(49,76,37);fill-rule:nonzero;"/>
        </g>
        <g transform="matrix(0,-1,-1,0,1461.66,1184.93)">
            <path d="M-17.144,-17.144C-18.555,-17.144 -19.7,-9.468 -19.7,0.001C-19.7,9.469 -18.555,17.144 -17.144,17.144C-15.732,17.144 -14.586,9.469 -14.586,0.001C-14.586,-9.468 -15.732,-17.144 -17.144,-17.144" style="fill:rgb(49,76,37);fill-rule:nonzero;"/>
        </g>
        <g transform="matrix(0,-1,-1,0,1725.55,1154.74)">
            <path d="M-32.5,-32.5C-33.912,-32.5 -35.057,-17.949 -35.057,0C-35.057,17.949 -33.912,32.5 -32.5,32.5C-31.088,32.5 -29.943,17.949 -29.943,0C-29.943,-17.949 -31.088,-32.5 -32.5,-32.5" style="fill:rgb(49,76,37);fill-rule:nonzero;"/>
        </g>
        <g transform="matrix(0,-1,-1,0,1790.41,1179.32)">
            <path d="M-17.144,-17.144C-18.555,-17.144 -19.7,-9.468 -19.7,0.001C-19.7,9.469 -18.555,17.144 -17.144,17.144C-15.732,17.144 -14.586,9.469 -14.586,0.001C-14.586,-9.468 -15.732,-17.144 -17.144,-17.144" style="fill:rgb(49,76,37);fill-rule:nonzero;"/>
        </g>
        <g transform="matrix(0,-1,-1,0,1824.69,1172.65)">
            <path d="M-17.144,-17.144C-18.555,-17.144 -19.7,-9.468 -19.7,0.001C-19.7,9.469 -18.555,17.144 -17.144,17.144C-15.732,17.144 -14.586,9.469 -14.586,0.001C-14.586,-9.468 -15.732,-17.144 -17.144,-17.144" style="fill:rgb(49,76,37);fill-rule:nonzero;"/>
        </g>
        <g transform="matrix(0,-1,-1,0,2003.09,1190.05)">
            <path d="M-17.144,-17.144C-18.555,-17.144 -19.7,-9.468 -19.7,0.001C-19.7,9.469 -18.555,17.144 -17.144,17.144C-15.732,17.144 -14.586,9.469 -14.586,0.001C-14.586,-9.468 -15.732,-17.144 -17.144,-17.144" style="fill:rgb(49,76,37);fill-rule:nonzero;"/>
        </g>
        <g transform="matrix(0,-1,-1,0,2017.39,1181.88)">
            <path d="M-17.144,-17.144C-18.555,-17.144 -19.7,-9.468 -19.7,0.001C-19.7,9.469 -18.555,17.144 -17.144,17.144C-15.732,17.144 -14.586,9.469 -14.586,0.001C-14.586,-9.468 -15.732,-17.144 -17.144,-17.144" style="fill:rgb(49,76,37);fill-rule:nonzero;"/>
        </g>
        <g transform="matrix(182.429,-9.46151e-15,-9.46151e-15,-182.429,932.785,1444.79)">
            <rect x="-5.113" y="-0.5" width="11.226" height="1" style="fill:url(#_Linear2);"/>
        </g>
        <g transform="matrix(1,0,0,1,2048,1475.03)">
            <path d="M0,60.968L-2048,60.968L-2048,0L-1204.5,0L-1148.01,3.652L-1102,0L-839.502,0L-814.002,8.63L-767.502,0L0,0L0,60.968Z" style="fill:rgb(45,139,165);fill-rule:nonzero;"/>
        </g>
        <g transform="matrix(1,0,0,1,2048,1491.72)">
            <path d="M0,-3.555L-16.021,-3.555C-41.839,-3.555 -91.004,-3.875 -111.002,-2.675C-113.755,-2.376 -116.504,-2.301 -119.253,-2.357C-122.004,-2.416 -124.752,-2.601 -127.504,-2.825C-134.004,-3.875 -141.005,-3.274 -148.005,-3.274C-184.002,-2.076 -229.005,18.874 -261.004,-1.48C-272.002,-8.063 -296.004,-1.48 -313.004,-5.07C-356.004,-14.649 -396.005,-3.274 -439.003,0.916C-447.002,1.514 -455.002,1.514 -462.004,-0.28C-506.003,-8.662 -552.002,-8.662 -598.003,-4.472C-615.003,-3.274 -628.004,-10.456 -644.005,-13.45C-648.001,-14.05 -652.004,-12.852 -653.002,-11.055C-659.564,-6.38 -667.104,-4.04 -675.163,-3.165C-678.138,-2.893 -681.088,-2.776 -684.199,-2.796C-718.003,-4.472 -749.668,-4.62 -784.669,-10.008C-800.67,-11.805 -799.002,-4.472 -803.002,0.916C-809.002,9.296 -829.001,6.303 -843.001,3.909C-912.002,-8.063 -983.002,-6.267 -1053,-3.875C-1114,-1.48 -1177,-0.28 -1239,-0.879C-1250,-1.48 -1265,-3.875 -1262,-12.255C-1314,-2.675 -1364,-0.28 -1420,-4.472C-1459,-7.464 -1510,8.697 -1551,-3.875C-1574,-11.055 -1601,0.317 -1627,-1.48C-1630,-2.076 -1636,-1.48 -1636,-3.875C-1637,-6.868 -1633,-11.654 -1637,-12.852C-1674,-19.438 -1711,-5.07 -1747,1.514C-1754,2.713 -1763,0.317 -1771,0.916C-1780,1.514 -1787,6.303 -1795,7.501C-1819,11.092 -1841,3.31 -1865,0.317C-1877,-1.48 -1889,0.317 -1900.97,1.217C-1903.95,1.245 -1906.93,1.205 -1909.9,1.109C-1933.64,0.355 -1972,-3.555 -2029.33,-3.555L-2048,-3.555L-2048,-10.732L-2027.96,-10.732C-1990.33,-10.732 -1932.48,-5.282 -1907.94,-4.576C-1904.43,-4.476 -1900.91,-4.448 -1897.38,-4.522C-1874,-8.063 -1853,-3.875 -1833,1.514C-1812,7.501 -1799,-8.662 -1782,-6.868C-1735,-1.48 -1692,-14.649 -1648,-21.232C-1645,-21.829 -1641,-21.232 -1639,-19.438C-1612,3.909 -1565,-9.861 -1528,-12.852C-1525,-12.852 -1524,-11.055 -1524,-9.861C-1525,-5.07 -1521,-0.28 -1512,-0.879C-1458,-3.875 -1407,-14.05 -1349,-6.868C-1317,-3.274 -1280,-22.429 -1251,-13.45C-1209,-0.879 -1162,-6.267 -1119,-8.662C-1108,-9.262 -1098,-9.262 -1087,-8.063C-1072,-6.267 -1060,-13.45 -1047,-12.852C-997.002,-11.055 -948.001,-14.05 -898.002,-9.262C-876.002,-6.868 -853.003,5.108 -832.004,-2.675C-821.003,-6.868 -810.003,-12.255 -797.002,-12.255C-757.002,-11.654 -717.002,-8.662 -676.896,-9.881C-674.395,-10.134 -672.004,-10.462 -669.627,-10.83C-662.752,-11.953 -656.003,-13.45 -649.002,-14.649C-636.003,-16.443 -622.004,-14.649 -609.003,-14.649C-597.004,-14.05 -590.003,-8.063 -577.003,-9.262C-540.006,-12.852 -501.003,-17.642 -467.004,-9.861C-452.004,-6.267 -436.005,-3.274 -420.006,-5.07C-395.004,-7.464 -373.004,-15.247 -348.004,-11.654C-314.004,-7.464 -283.003,-12.255 -250.002,-9.262C-241.002,-8.662 -243.004,-0.28 -236.003,1.514C-204.004,8.697 -173.004,-9.861 -139.003,-8.662C-135.003,-8.662 -130.004,-9.262 -125.744,-8.261C-123.653,-8.129 -121.549,-8.031 -119.433,-7.988C-117.308,-7.947 -115.173,-7.963 -113.003,-8.063C-93.006,-9.262 -28.51,-10.732 0,-10.732L0,-3.555Z" style="fill:rgb(140,182,206);fill-rule:nonzero;"/>
        </g>
        <g transform="matrix(1,0,0,1,2048,1466.51)">
            <path d="M0,14.542L-63.253,14.542C-177.618,14.542 -243.888,18.826 -276.335,18.826C-301.005,18.826 -331.672,0.788 -374.004,6.971C-430.324,15.201 -484.003,22.536 -542.002,12.956C-561.002,9.964 -581.004,17.148 -602.004,14.156C-626.004,9.964 -648.001,7.569 -673.002,9.367C-740.003,14.156 -805.002,22.536 -874.002,14.755C-891.002,12.956 -907.002,15.351 -924.003,15.351C-933.001,15.351 -941.002,14.156 -949.002,11.161C-964.002,6.375 -980,5.177 -996.002,7.569C-1105,23.135 -1211,14.156 -1319,10.563C-1333,9.964 -1346,15.949 -1360,15.351C-1366,14.755 -1371,12.956 -1376,10.563C-1382,8.169 -1390,6.971 -1397,7.569C-1423,8.169 -1444,20.142 -1471,18.344C-1486,17.148 -1500,15.351 -1514,15.351C-1545,14.755 -1571.5,5.773 -1602.5,5.177C-1626.5,4.578 -1653,14.755 -1676,14.755C-1693,14.156 -1716.5,6.073 -1735.5,8.469C-1778.5,14.453 -1805.02,21.556 -1853,17.148C-1900.98,12.745 -1945.5,14.542 -2011,14.542L-2048,14.542L-2048,0.602L-2025,0.602C-1979.02,0.602 -1876.5,2.867 -1852,5.82C-1827.5,8.769 -1808,6.971 -1793,6.375C-1693,1.584 -1593,-8.593 -1491,6.375C-1464,10.563 -1438,4.578 -1412,0.391C-1376,-4.4 -1358,7.969 -1322,2.582C-1316,1.983 -1309.67,-8.192 -1294.75,-5.674C-1254.01,1.198 -1182.67,12.359 -1121.67,8.769C-1077.67,5.773 -1022.67,-5.991 -979.668,-7.188C-945.668,-8.386 -912.002,-0.211 -877,-2.005C-856.003,-3.205 -841.002,3.382 -824.004,10.563C-819.002,12.359 -812.003,12.359 -805.002,11.762C-737.003,-0.211 -671.003,-5 -601.004,-0.811C-583,-0.211 -567.002,-5 -550.001,-6.197C-538.003,-6.795 -526.004,-7.393 -517.003,-3.205C-464.002,20.739 -400.002,-2.005 -344.002,-6.197C-330.003,-7.393 -317.005,-3.205 -304.029,-0.986C-300.519,-0.408 -269.94,5.267 -266.339,5.82C-244.711,9.122 -171.672,0.602 -60.822,0.602L0,0.602L0,14.542Z" style="fill:rgb(214,247,239);fill-rule:nonzero;"/>
        </g>
        <g transform="matrix(1,0,0,1,1771.66,1473.41)">
            <path d="M0,7.74C-24.67,7.74 -55.337,-10.298 -97.669,-4.112C-153.989,4.117 -207.668,11.45 -265.667,1.875C-284.667,-1.12 -304.669,6.062 -325.669,3.07C-349.669,-1.12 -371.666,-3.512 -396.667,-1.717C-441.54,1.492 -485.515,6.3 -530.395,6.796C-533.996,7.051 -537.55,7.114 -540.789,6.837C-559.523,6.749 -578.44,5.838 -597.667,3.669C-614.667,1.875 -630.667,4.267 -647.668,4.267C-656.666,4.267 -664.667,3.07 -672.667,0.077C-687.667,-4.711 -703.665,-5.906 -719.667,-3.512C-828.667,12.051 -934.667,3.07 -1042.67,-0.519C-1056.67,-1.12 -1069.67,4.868 -1083.67,4.267C-1089.67,3.669 -1094.67,1.875 -1099.67,-0.519C-1105.67,-2.914 -1113.67,-4.112 -1120.67,-3.512C-1146.67,-2.914 -1167.67,9.055 -1194.67,7.262C-1209.67,6.062 -1223.67,4.267 -1237.67,4.267C-1268.66,3.669 -1295.17,-5.31 -1326.17,-5.906C-1350.17,-6.503 -1376.67,3.669 -1399.66,3.669C-1412.37,3.223 -1428.7,-1.402 -1444.08,-2.712C-1452.02,-2.268 -1459.96,-1.812 -1467.9,-1.355C-1505.95,4.303 -1532.02,10.162 -1576.66,6.062C-1624.65,1.659 -1669.16,3.456 -1734.66,3.456L-1771.66,3.456L-1771.66,9.442L-1734.66,9.442C-1669.16,9.442 -1624.65,7.642 -1576.66,12.051C-1528.68,16.455 -1502.16,9.356 -1459.16,3.372C-1440.17,0.976 -1416.66,9.055 -1399.66,9.655C-1376.67,9.655 -1350.17,-0.519 -1326.17,0.077C-1295.17,0.676 -1268.66,9.655 -1237.67,10.255C-1223.67,10.255 -1209.67,12.051 -1194.67,13.248C-1167.67,15.044 -1146.67,3.07 -1120.67,2.473C-1113.67,1.875 -1105.67,3.07 -1099.67,5.466C-1094.67,7.861 -1089.67,9.655 -1083.67,10.255C-1069.67,10.853 -1056.67,4.868 -1042.67,5.466C-934.667,9.055 -828.667,18.038 -719.667,2.473C-703.665,0.077 -687.667,1.275 -672.667,6.062C-664.667,9.055 -656.666,10.255 -647.668,10.255C-630.667,10.255 -614.667,7.861 -597.667,9.655C-528.667,17.438 -463.668,9.055 -396.667,4.267C-371.666,2.473 -349.669,4.868 -325.669,9.055C-304.669,12.051 -284.667,4.868 -265.667,7.861C-207.668,17.438 -153.989,10.103 -97.669,1.875C-55.337,-4.312 -24.67,13.726 0,13.726C32.447,13.726 98.717,9.442 213.082,9.442L276.335,9.442L276.335,3.456L213.082,3.456C98.717,3.456 32.447,7.74 0,7.74" style="fill:rgb(231,255,255);fill-rule:nonzero;"/>
        </g>
        <g transform="matrix(0,-1,-1,0,226.252,1455.15)">
            <path d="M-7.752,-7.748C-8.904,-7.748 -9.846,-4.279 -9.846,0.002C-9.846,4.283 -8.904,7.752 -7.752,7.752C-6.592,7.752 -5.653,4.283 -5.653,0.002C-5.653,-4.279 -6.592,-7.748 -7.752,-7.748" style="fill:rgb(247,251,247);fill-rule:nonzero;"/>
        </g>
        <g transform="matrix(0,-1,-1,0,33.667,1449.46)">
            <path d="M-7.749,-7.751C-8.907,-7.751 -9.844,-4.281 -9.844,0C-9.844,4.28 -8.907,7.749 -7.749,7.749C-6.592,7.749 -5.656,4.28 -5.656,0C-5.656,-4.281 -6.592,-7.751 -7.749,-7.751" style="fill:rgb(247,251,247);fill-rule:nonzero;"/>
        </g>
        <g transform="matrix(0,-1,-1,0,571,1457.25)">
            <path d="M-7.75,-7.75C-8.905,-7.75 -9.844,-4.28 -9.844,0C-9.844,4.281 -8.905,7.75 -7.75,7.75C-6.592,7.75 -5.656,4.281 -5.656,0C-5.656,-4.28 -6.592,-7.75 -7.75,-7.75" style="fill:rgb(247,251,247);fill-rule:nonzero;"/>
        </g>
        <g transform="matrix(0,-1,-1,0,899.291,1452.89)">
            <path d="M-13.376,-13.375C-14.531,-13.375 -15.472,-7.387 -15.472,0.001C-15.472,7.388 -14.531,13.376 -13.376,13.376C-12.22,13.376 -11.279,7.388 -11.279,0.001C-11.279,-7.387 -12.22,-13.375 -13.376,-13.375" style="fill:rgb(247,251,247);fill-rule:nonzero;"/>
        </g>
        <g transform="matrix(0,-1,-1,0,1236.81,1454.41)">
            <path d="M-11.856,-11.855C-13.011,-11.855 -13.952,-6.545 -13.952,-0C-13.952,6.547 -13.011,11.856 -11.856,11.856C-10.7,11.856 -9.759,6.547 -9.759,-0C-9.759,-6.545 -10.7,-11.855 -11.856,-11.855" style="fill:rgb(247,251,247);fill-rule:nonzero;"/>
        </g>
        <g transform="matrix(0,-1,-1,0,1265,1458.35)">
            <path d="M-5.122,-5.122C-5.621,-5.122 -6.028,-2.829 -6.028,0C-6.028,2.83 -5.621,5.122 -5.122,5.122C-4.622,5.122 -4.217,2.83 -4.217,0C-4.217,-2.829 -4.622,-5.122 -5.122,-5.122" style="fill:rgb(247,251,247);fill-rule:nonzero;"/>
        </g>
        <g transform="matrix(0,-1,-1,0,1326.67,1452.39)">
            <path d="M-5.126,-5.122C-5.624,-5.122 -6.03,-2.828 -6.03,0.004C-6.03,2.832 -5.624,5.126 -5.126,5.126C-4.626,5.126 -4.218,2.832 -4.218,0.004C-4.218,-2.828 -4.626,-5.122 -5.126,-5.122" style="fill:rgb(247,251,247);fill-rule:nonzero;"/>
        </g>
        <g transform="matrix(0,-1,-1,0,241.676,1456.38)">
            <path d="M-4.427,-4.431C-5.088,-4.431 -5.626,-2.448 -5.626,-0.002C-5.626,2.443 -5.088,4.427 -4.427,4.427C-3.766,4.427 -3.232,2.443 -3.232,-0.002C-3.232,-2.448 -3.766,-4.431 -4.427,-4.431" style="fill:rgb(247,251,247);fill-rule:nonzero;"/>
        </g>
        <g transform="matrix(0,-1,-1,0,348.999,1451.59)">
            <path d="M-4.428,-4.428C-5.089,-4.428 -5.625,-2.447 -5.625,0C-5.625,2.445 -5.089,4.428 -4.428,4.428C-3.769,4.428 -3.231,2.445 -3.231,0C-3.231,-2.447 -3.769,-4.428 -4.428,-4.428" style="fill:rgb(247,251,247);fill-rule:nonzero;"/>
        </g>
        <g transform="matrix(0,-1,-1,0,688.108,1389.44)">
            <path d="M-11.334,-11.334C-12.567,-11.334 -13.567,-6.26 -13.567,-0.001C-13.567,6.258 -12.567,11.334 -11.334,11.334C-10.101,11.334 -9.101,6.258 -9.101,-0.001C-9.101,-6.26 -10.101,-11.334 -11.334,-11.334" style="fill:rgb(247,251,247);fill-rule:nonzero;"/>
        </g>
        <g transform="matrix(0,-1,-1,0,734.61,1379.95)">
            <path d="M-11.334,-11.334C-12.567,-11.334 -13.567,-6.26 -13.567,-0.001C-13.567,6.258 -12.567,11.334 -11.334,11.334C-10.101,11.334 -9.101,6.258 -9.101,-0.001C-9.101,-6.26 -10.101,-11.334 -11.334,-11.334" style="fill:rgb(247,251,247);fill-rule:nonzero;"/>
        </g>
        <g transform="matrix(0,-1,-1,0,108.398,1391.67)">
            <path d="M-11.334,-11.334C-12.567,-11.334 -13.567,-6.26 -13.567,-0.001C-13.567,6.258 -12.567,11.334 -11.334,11.334C-10.101,11.334 -9.101,6.258 -9.101,-0.001C-9.101,-6.26 -10.101,-11.334 -11.334,-11.334" style="fill:rgb(247,251,247);fill-rule:nonzero;"/>
        </g>
        <g transform="matrix(0,-1,-1,0,49.4258,1383.82)">
            <path d="M-11.334,-11.334C-12.567,-11.334 -13.567,-6.26 -13.567,-0.001C-13.567,6.258 -12.567,11.334 -11.334,11.334C-10.101,11.334 -9.101,6.258 -9.101,-0.001C-9.101,-6.26 -10.101,-11.334 -11.334,-11.334" style="fill:rgb(247,251,247);fill-rule:nonzero;"/>
        </g>
        <g transform="matrix(0,-1,-1,0,1130.61,1379.95)">
            <path d="M-11.334,-11.334C-12.567,-11.334 -13.567,-6.26 -13.567,-0.001C-13.567,6.259 -12.567,11.334 -11.334,11.334C-10.101,11.334 -9.101,6.259 -9.101,-0.001C-9.101,-6.26 -10.101,-11.334 -11.334,-11.334" style="fill:rgb(247,251,247);fill-rule:nonzero;"/>
        </g>
        <g transform="matrix(0,-1,-1,0,956.034,1371.77)">
            <path d="M-11.334,-11.334C-12.567,-11.334 -13.567,-6.26 -13.567,-0.001C-13.567,6.259 -12.567,11.334 -11.334,11.334C-10.101,11.334 -9.101,6.259 -9.101,-0.001C-9.101,-6.26 -10.101,-11.334 -11.334,-11.334" style="fill:rgb(247,251,247);fill-rule:nonzero;"/>
        </g>
        <g transform="matrix(0,-1,-1,0,912.2,1359.17)">
            <path d="M-16.891,-16.891C-18.124,-16.891 -19.124,-9.329 -19.124,-0C-19.124,9.329 -18.124,16.891 -16.891,16.891C-15.657,16.891 -14.657,9.329 -14.657,-0C-14.657,-9.329 -15.657,-16.891 -16.891,-16.891" style="fill:rgb(247,251,247);fill-rule:nonzero;"/>
        </g>
        <g transform="matrix(0,-1,-1,0,1601.7,1391.67)">
            <path d="M-11.334,-11.334C-12.567,-11.334 -13.567,-6.26 -13.567,-0.001C-13.567,6.259 -12.567,11.334 -11.334,11.334C-10.101,11.334 -9.101,6.259 -9.101,-0.001C-9.101,-6.26 -10.101,-11.334 -11.334,-11.334" style="fill:rgb(247,251,247);fill-rule:nonzero;"/>
        </g>
        <g transform="matrix(0,-1,-1,0,1582.94,1360.07)">
            <path d="M-11.334,-11.334C-12.567,-11.334 -13.567,-6.26 -13.567,-0.001C-13.567,6.259 -12.567,11.334 -11.334,11.334C-10.101,11.334 -9.101,6.259 -9.101,-0.001C-9.101,-6.26 -10.101,-11.334 -11.334,-11.334" style="fill:rgb(247,251,247);fill-rule:nonzero;"/>
        </g>
        <g transform="matrix(0,-1,-1,0,2023.8,1357.14)">
            <path d="M-11.334,-11.334C-12.567,-11.334 -13.567,-6.26 -13.567,-0.001C-13.567,6.259 -12.567,11.334 -11.334,11.334C-10.101,11.334 -9.101,6.259 -9.101,-0.001C-9.101,-6.26 -10.101,-11.334 -11.334,-11.334" style="fill:rgb(247,251,247);fill-rule:nonzero;"/>
        </g>
        <g transform="matrix(0,-1,-1,0,2001.27,1367.46)">
            <path d="M-11.334,-11.334C-12.567,-11.334 -13.567,-6.26 -13.567,-0.001C-13.567,6.259 -12.567,11.334 -11.334,11.334C-10.101,11.334 -9.101,6.259 -9.101,-0.001C-9.101,-6.26 -10.101,-11.334 -11.334,-11.334" style="fill:rgb(247,251,247);fill-rule:nonzero;"/>
        </g>
        <g transform="matrix(1,0,0,1,450.853,1440.94)">
            <path d="M0,-53.867C0,-53.867 139.917,-54.783 156.414,-43.888C164.129,-38.793 107.534,-41.357 110.589,-32.192C113.645,-23.027 198.571,-32.185 191.851,-24.696C185.13,-17.206 132.191,-29.144 90.732,-19.564C72.999,-15.468 66.67,-8.895 23.563,-7.736C0.192,-7.108 -33.725,0.033 -49.125,0.359C-75.458,0.916 -126.474,-7.486 -149.033,-12.929C-186.319,-21.929 -204.681,-16.596 -177.187,-21.79C-153.79,-26.209 -248.221,-31.695 -256.31,-36.453C-266.696,-42.562 -242.217,-48.023 -190.628,-48.023C-139.04,-48.023 -59.025,-53.637 0,-53.867" style="fill:rgb(45,139,165);fill-rule:nonzero;"/>
        </g>
        <g transform="matrix(0,-1,-1,0,162.088,1382.21)">
            <path d="M-18.567,-18.567C-20.62,-18.567 -22.285,-10.254 -22.285,0C-22.285,10.254 -20.62,18.567 -18.567,18.567C-16.514,18.567 -14.849,10.254 -14.849,0C-14.849,-10.254 -16.514,-18.567 -18.567,-18.567" style="fill:rgb(45,139,165);fill-rule:nonzero;"/>
        </g>
        <g transform="matrix(0,-1,-1,0,626.968,1385.81)">
            <path d="M-10.854,-10.852C-12.594,-10.852 -14.005,-5.993 -14.005,0.002C-14.005,5.995 -12.594,10.854 -10.854,10.854C-9.112,10.854 -7.701,5.995 -7.701,0.002C-7.701,-5.993 -9.112,-10.852 -10.854,-10.852" style="fill:rgb(45,139,165);fill-rule:nonzero;"/>
        </g>
        <g transform="matrix(0,-1,-1,0,664.088,1402.96)">
            <path d="M-12.685,-12.687C-14.301,-12.687 -15.61,-7.008 -15.61,0C-15.61,7.005 -14.301,12.685 -12.685,12.685C-11.071,12.685 -9.762,7.005 -9.762,0C-9.762,-7.008 -11.071,-12.687 -12.685,-12.687" style="fill:rgb(45,139,165);fill-rule:nonzero;"/>
        </g>
        <g transform="matrix(1,0,0,1,494.369,1312.47)">
            <path d="M0,108.493C-12.948,111.121 -30.057,100.353 -45.375,102.306C-58.72,104.008 -79.137,107.669 -92.641,107.669C-111.335,107.669 -122.23,104.161 -138.188,101.481C-146.965,100.008 -166.18,104.838 -173.367,103.163C-193.182,98.542 -202.07,94.889 -202.07,94.889C-202.07,94.889 -205.269,59.711 -194.62,42.98C-183.972,26.248 -182.237,-2.628 -182.237,-2.628L-10.553,-0.912L27.946,31.243C27.946,31.243 38.644,64.302 35.784,94.889C29.433,94.889 21.697,104.092 0,108.493" style="fill:rgb(32,47,24);fill-rule:nonzero;"/>
        </g>
        <g transform="matrix(1,0,0,1,303.207,1361.81)">
            <path d="M0,-3.208C10.353,-19.477 10.566,-46.79 10.666,-48.316L8.925,-51.967C8.925,-51.967 5.109,-23.091 -5.539,-6.358C-16.188,10.372 -12.989,45.551 -12.989,45.551C-12.989,45.551 -5.841,48.759 -1.387,48.759C-1.387,48.759 -10.649,13.522 0,-3.208" style="fill:rgb(48,63,39);fill-rule:nonzero;"/>
        </g>
        <g transform="matrix(-0.991743,0.128245,0.128245,0.991743,531.574,1387.78)">
            <path d="M3.92,-24.253C3.92,-24.253 4.761,-10.339 9.031,19.976C9.031,19.976 6.996,20.24 3.92,19.234C-1.461,-5.493 -0.384,-26.152 3.531,-44.893C4.221,-39.558 3.92,-24.253 3.92,-24.253" style="fill:rgb(48,63,39);fill-rule:nonzero;"/>
        </g>
        <g transform="matrix(1,0,0,1,463.544,1400.23)">
            <path d="M0,-90.384C0,-90.384 -1.466,-35.467 2.539,-29.175C6.543,-22.882 6.544,-6.866 12.835,-3.434C19.128,0 24.849,-31.195 29.997,-37.335C35.145,-43.476 37.76,-79.847 37.76,-79.847L0,-90.384Z" style="fill:rgb(23,38,20);fill-rule:nonzero;"/>
        </g>
        <g transform="matrix(1,0,0,1,368.403,1318.42)">
            <path d="M0,97.823C0,97.823 -5.897,96.077 -15.66,96.215C-25.422,96.353 -35.705,97.053 -35.705,97.053C-35.705,97.053 -35.034,87.121 -35.034,84.01C-34.748,74.651 -37.323,66.07 -35.607,56.631C-33.032,39.469 -33.89,22.308 -35.009,4.941C-35.034,1.814 -35.034,0 -35.034,0L-0.881,0L-0.881,4.925C-0.881,6.481 -0.881,8.361 -0.892,10.505C-3.858,32.604 2.148,55.772 -0.878,78.437C-0.881,80.574 -0.881,82.453 -0.881,84.01C-0.881,87.121 0,97.823 0,97.823" style="fill:rgb(23,38,20);fill-rule:nonzero;"/>
        </g>
        <g transform="matrix(-0.773216,0.634143,0.634143,0.773216,457.193,1357.33)">
            <path d="M39.295,-80.018C39.295,-80.018 62.731,-54.05 57.165,-37.834C51.6,-21.617 49.161,9.237 39.295,13.444C29.429,17.652 -12.433,-49.628 -12.433,-49.628L39.295,-80.018Z" style="fill:rgb(23,38,20);fill-rule:nonzero;"/>
        </g>
        <g transform="matrix(1,0,0,1,486.105,1338.8)">
            <path d="M0,-46.691C-9.068,-51.604 -184.024,-45.584 -173.518,-27.242C-171.588,-23.871 -165.359,-21.704 -156.377,-20.376C-151.963,-19.725 -146.427,-14.66 -140.866,-14.371C-133.061,-13.966 -124.765,-18.498 -115.568,-18.607C-105.726,-18.722 -95.755,-12.229 -85.521,-12.655C-69.564,-13.317 -53.51,-21.017 -40.467,-21.527C-25.058,-22.129 -13.326,-22.239 -9.153,-20.95C7.506,-15.799 36.21,4.913 36.21,4.913C36.21,4.913 27.458,-31.818 0,-46.691" style="fill:rgb(56,87,43);fill-rule:nonzero;"/>
        </g>
        <g transform="matrix(0,1,1,0,354.322,1307.18)">
            <path d="M13.201,-19.512C13.201,-19.512 16.416,-13.088 16.201,-7.939C15.987,-2.791 13.201,13.201 13.201,13.201C13.201,13.201 19.512,-2.874 19.082,-8.881C18.653,-14.887 13.201,-19.512 13.201,-19.512" style="fill:rgb(95,114,84);fill-rule:nonzero;"/>
        </g>
        <g transform="matrix(0.0389108,0.999243,0.999243,-0.0389108,406.55,1300.7)">
            <path d="M20.531,-25.454C20.531,-25.454 26.784,-17.462 27.107,-9.173C27.43,-0.885 24.061,14.149 20.531,21.577C20.531,21.577 25.332,3.15 24.403,-8.781C23.588,-19.269 20.531,-25.454 20.531,-25.454" style="fill:rgb(95,114,84);fill-rule:nonzero;"/>
        </g>
        <g transform="matrix(-0.326669,0.945139,0.945139,0.326669,494.189,1306.85)">
            <path d="M19.45,-25.701C19.45,-25.701 17.469,-17.42 17.134,-11.861C16.706,-4.704 19.45,14.251 19.45,14.251C19.45,14.251 14.067,-5.117 14.991,-12.035C15.962,-19.302 19.45,-25.701 19.45,-25.701" style="fill:rgb(95,114,84);fill-rule:nonzero;"/>
        </g>
        <g transform="matrix(0,-1,-1,0,363.42,1291.95)">
            <path d="M-18.611,-18.611C-19.747,-18.611 -20.667,-10.278 -20.667,0.001C-20.667,10.278 -19.747,18.611 -18.611,18.611C-17.475,18.611 -16.555,10.278 -16.555,0.001C-16.555,-10.278 -17.475,-18.611 -18.611,-18.611" style="fill:rgb(49,76,37);fill-rule:nonzero;"/>
        </g>
        <g transform="matrix(0,-1,-1,0,455.805,1286.28)">
            <path d="M-18.61,-18.611C-19.748,-18.611 -20.667,-10.279 -20.667,0C-20.667,10.279 -19.748,18.61 -18.61,18.61C-17.474,18.61 -16.554,10.279 -16.554,0C-16.554,-10.279 -17.474,-18.611 -18.61,-18.611" style="fill:rgb(49,76,37);fill-rule:nonzero;"/>
        </g>
        <g transform="matrix(0,-1,-1,0,390.002,1291.11)">
            <path d="M-11.728,-11.727C-12.864,-11.727 -13.784,-6.477 -13.784,0C-13.784,6.478 -12.864,11.728 -11.728,11.728C-10.592,11.728 -9.671,6.478 -9.671,0C-9.671,-6.477 -10.592,-11.727 -11.728,-11.727" style="fill:rgb(49,76,37);fill-rule:nonzero;"/>
        </g>
        <g transform="matrix(1,0,0,1,1397.3,1412.16)">
            <path d="M0,-43.181C0,-43.181 112.16,-43.915 125.384,-35.182C131.569,-31.097 86.202,-33.153 88.65,-25.806C91.1,-18.459 159.179,-25.801 153.791,-19.797C148.403,-13.793 105.967,-23.363 72.733,-15.683C58.518,-12.4 53.444,-7.131 18.889,-6.202C0.154,-5.699 -27.034,0.026 -39.379,0.287C-60.488,0.734 -101.384,-6.001 -119.467,-10.365C-149.357,-17.578 -164.076,-13.304 -142.036,-17.467C-123.281,-21.01 -198.979,-25.408 -205.463,-29.222C-213.789,-34.119 -194.166,-38.496 -152.811,-38.496C-111.457,-38.496 -47.315,-42.996 0,-43.181" style="fill:rgb(45,139,165);fill-rule:nonzero;"/>
        </g>
        <g transform="matrix(0,-1,-1,0,1165.83,1365.07)">
            <path d="M-14.884,-14.883C-16.53,-14.883 -17.863,-8.219 -17.863,0.001C-17.863,8.221 -16.53,14.884 -14.884,14.884C-13.238,14.884 -11.904,8.221 -11.904,0.001C-11.904,-8.219 -13.238,-14.883 -14.884,-14.883" style="fill:rgb(45,139,165);fill-rule:nonzero;"/>
        </g>
        <g transform="matrix(0,-1,-1,0,1538.48,1367.96)">
            <path d="M-8.702,-8.698C-10.096,-8.698 -11.227,-4.803 -11.227,0.002C-11.227,4.807 -10.096,8.702 -8.702,8.702C-7.304,8.702 -6.173,4.807 -6.173,0.002C-6.173,-4.803 -7.304,-8.698 -8.702,-8.698" style="fill:rgb(45,139,165);fill-rule:nonzero;"/>
        </g>
        <g transform="matrix(0,-1,-1,0,1568.24,1381.71)">
            <path d="M-10.169,-10.171C-11.465,-10.171 -12.514,-5.619 -12.514,-0.001C-12.514,5.615 -11.465,10.169 -10.169,10.169C-8.875,10.169 -7.826,5.615 -7.826,-0.001C-7.826,-5.619 -8.875,-10.171 -10.169,-10.171" style="fill:rgb(45,139,165);fill-rule:nonzero;"/>
        </g>
        <g transform="matrix(1,0,0,1,1432.19,1309.17)">
            <path d="M0,86.971C-10.38,89.077 -24.094,80.447 -36.374,82.012C-47.071,83.375 -63.438,86.31 -74.263,86.31C-89.249,86.31 -97.982,83.498 -110.774,81.35C-117.81,80.169 -133.214,84.041 -138.975,82.699C-154.858,78.994 -161.983,76.066 -161.983,76.066C-161.983,76.066 -164.548,47.867 -156.011,34.454C-147.476,21.041 -146.085,-2.106 -146.085,-2.106L-8.46,-0.73L22.401,25.046C22.401,25.046 30.977,51.546 28.685,76.066C23.593,76.066 17.393,83.443 0,86.971" style="fill:rgb(32,47,24);fill-rule:nonzero;"/>
        </g>
        <g transform="matrix(1,0,0,1,1278.95,1348.72)">
            <path d="M0,-2.572C8.3,-15.613 8.471,-37.508 8.55,-38.731L7.154,-41.658C7.154,-41.658 4.096,-18.51 -4.44,-5.097C-12.977,8.315 -10.412,36.514 -10.412,36.514C-10.412,36.514 -4.682,39.086 -1.111,39.086C-1.111,39.086 -8.537,10.84 0,-2.572" style="fill:rgb(48,63,39);fill-rule:nonzero;"/>
        </g>
        <g transform="matrix(-0.991741,0.12826,0.12826,0.991741,1462.01,1369.54)">
            <path d="M3.142,-19.442C3.142,-19.442 3.815,-8.29 7.239,16.013C7.239,16.013 5.608,16.224 3.142,15.417C-1.172,-4.405 -0.308,-20.964 2.83,-35.987C3.383,-31.712 3.142,-19.442 3.142,-19.442" style="fill:rgb(48,63,39);fill-rule:nonzero;"/>
        </g>
        <g transform="matrix(1,0,0,1,1407.48,1379.52)">
            <path d="M0,-72.454C0,-72.454 -1.175,-28.432 2.034,-23.388C5.245,-18.343 5.246,-5.505 10.289,-2.753C15.333,0 19.919,-25.006 24.046,-29.929C28.173,-34.851 30.269,-64.007 30.269,-64.007L0,-72.454Z" style="fill:rgb(23,38,20);fill-rule:nonzero;"/>
        </g>
        <g transform="matrix(1,0,0,1,1331.21,1313.94)">
            <path d="M0,78.417C0,78.417 -4.727,77.018 -12.553,77.128C-20.379,77.239 -28.622,77.8 -28.622,77.8C-28.622,77.8 -28.083,69.838 -28.083,67.344C-27.854,59.842 -29.918,52.963 -28.543,45.396C-26.479,31.64 -27.166,17.883 -28.063,3.961C-28.083,1.454 -28.083,0 -28.083,0L-0.706,0L-0.706,3.948C-0.706,5.195 -0.706,6.702 -0.714,8.421C-3.092,26.137 1.723,44.708 -0.703,62.877C-0.706,64.59 -0.706,66.096 -0.706,67.344C-0.706,69.838 0,78.417 0,78.417" style="fill:rgb(23,38,20);fill-rule:nonzero;"/>
        </g>
        <g transform="matrix(-0.773213,0.634147,0.634147,0.773213,1402.39,1345.13)">
            <path d="M31.501,-64.143C31.501,-64.143 50.288,-43.327 45.825,-30.328C41.364,-17.328 39.408,7.405 31.501,10.778C23.591,14.151 -9.966,-39.782 -9.966,-39.782L31.501,-64.143Z" style="fill:rgb(23,38,20);fill-rule:nonzero;"/>
        </g>
        <g transform="matrix(1,0,0,1,1425.56,1330.28)">
            <path d="M0,-37.429C-7.269,-41.367 -147.518,-36.541 -139.096,-21.838C-137.548,-19.136 -132.555,-17.399 -125.354,-16.334C-121.816,-15.813 -117.379,-11.752 -112.921,-11.521C-106.664,-11.197 -100.014,-14.828 -92.641,-14.916C-84.752,-15.009 -76.759,-9.804 -68.556,-10.145C-55.765,-10.676 -42.896,-16.849 -32.439,-17.257C-20.087,-17.741 -10.682,-17.827 -7.338,-16.794C6.018,-12.666 29.026,3.938 29.026,3.938C29.026,3.938 22.011,-25.507 0,-37.429" style="fill:rgb(56,87,43);fill-rule:nonzero;"/>
        </g>
        <g transform="matrix(0,1,1,0,1319.92,1304.93)">
            <path d="M10.581,-15.64C10.581,-15.64 13.158,-10.491 12.985,-6.364C12.814,-2.237 10.581,10.581 10.581,10.581C10.581,10.581 15.64,-2.303 15.295,-7.118C14.951,-11.933 10.581,-15.64 10.581,-15.64" style="fill:rgb(95,114,84);fill-rule:nonzero;"/>
        </g>
        <g transform="matrix(0.0389119,0.999243,0.999243,-0.0389119,1361.79,1299.74)">
            <path d="M16.457,-20.405C16.457,-20.405 21.471,-13.998 21.73,-7.353C21.989,-0.709 19.288,11.342 16.457,17.296C16.457,17.296 20.306,2.526 19.562,-7.038C18.908,-15.446 16.457,-20.405 16.457,-20.405" style="fill:rgb(95,114,84);fill-rule:nonzero;"/>
        </g>
        <g transform="matrix(-0.326644,0.945147,0.945147,0.326644,1432.04,1304.67)">
            <path d="M15.592,-20.601C15.592,-20.601 14.003,-13.963 13.735,-9.507C13.391,-3.77 15.592,11.424 15.592,11.424C15.592,11.424 11.276,-4.1 12.018,-9.647C12.795,-15.472 15.592,-20.601 15.592,-20.601" style="fill:rgb(95,114,84);fill-rule:nonzero;"/>
        </g>
        <g transform="matrix(0,-1,-1,0,1327.22,1292.72)">
            <path d="M-14.919,-14.92C-15.829,-14.92 -16.567,-8.24 -16.567,-0.001C-16.567,8.239 -15.829,14.919 -14.919,14.919C-14.009,14.919 -13.272,8.239 -13.272,-0.001C-13.272,-8.24 -14.009,-14.92 -14.919,-14.92" style="fill:rgb(49,76,37);fill-rule:nonzero;"/>
        </g>
        <g transform="matrix(0,-1,-1,0,1401.27,1288.18)">
            <path d="M-14.918,-14.92C-15.83,-14.92 -16.567,-8.241 -16.567,-0.001C-16.567,8.239 -15.83,14.918 -14.918,14.918C-14.008,14.918 -13.271,8.239 -13.271,-0.001C-13.271,-8.241 -14.008,-14.92 -14.918,-14.92" style="fill:rgb(49,76,37);fill-rule:nonzero;"/>
        </g>
        <g transform="matrix(0,-1,-1,0,1348.53,1292.04)">
            <path d="M-9.402,-9.4C-10.312,-9.4 -11.049,-5.191 -11.049,-0C-11.049,5.193 -10.312,9.402 -9.402,9.402C-8.492,9.402 -7.754,5.193 -7.754,-0C-7.754,-5.191 -8.492,-9.4 -9.402,-9.4" style="fill:rgb(49,76,37);fill-rule:nonzero;"/>
        </g>
        <g transform="matrix(1,0,0,1,1819.21,1402.46)">
            <path d="M0,-38.123C0,-38.123 99.023,-38.771 110.698,-31.06C116.159,-27.455 76.105,-29.269 78.267,-22.782C80.429,-16.297 140.535,-22.779 135.778,-17.478C131.021,-12.178 93.556,-20.626 64.214,-13.846C51.663,-10.947 47.184,-6.295 16.675,-5.475C0.135,-5.03 -23.868,0.023 -34.769,0.254C-53.405,0.648 -89.511,-5.298 -105.476,-9.15C-131.865,-15.519 -144.86,-11.745 -125.402,-15.421C-108.844,-18.55 -175.675,-22.432 -181.4,-25.799C-188.752,-30.123 -171.426,-33.987 -134.915,-33.987C-98.404,-33.987 -41.774,-37.961 0,-38.123" style="fill:rgb(45,139,165);fill-rule:nonzero;"/>
        </g>
        <g transform="matrix(0,-1,-1,0,1614.85,1360.89)">
            <path d="M-13.141,-13.141C-14.593,-13.141 -15.772,-7.255 -15.772,0.002C-15.772,7.258 -14.593,13.141 -13.141,13.141C-11.688,13.141 -10.509,7.258 -10.509,0.002C-10.509,-7.255 -11.688,-13.141 -13.141,-13.141" style="fill:rgb(45,139,165);fill-rule:nonzero;"/>
        </g>
        <g transform="matrix(0,-1,-1,0,1943.86,1363.44)">
            <path d="M-7.682,-7.679C-8.913,-7.679 -9.911,-4.241 -9.911,0.002C-9.911,4.244 -8.913,7.682 -7.682,7.682C-6.449,7.682 -5.45,4.244 -5.45,0.002C-5.45,-4.241 -6.449,-7.679 -7.682,-7.679" style="fill:rgb(45,139,165);fill-rule:nonzero;"/>
        </g>
        <g transform="matrix(0,-1,-1,0,1970.13,1375.58)">
            <path d="M-8.979,-8.979C-10.122,-8.979 -11.048,-4.96 -11.048,0.001C-11.048,4.959 -10.122,8.979 -8.979,8.979C-7.835,8.979 -6.91,4.959 -6.91,0.001C-6.91,-4.96 -7.835,-8.979 -8.979,-8.979" style="fill:rgb(45,139,165);fill-rule:nonzero;"/>
        </g>
        <g transform="matrix(1,0,0,1,1850.01,1311.53)">
            <path d="M0,76.787C-9.164,78.646 -21.271,71.026 -32.113,72.408C-41.558,73.612 -56.009,76.202 -65.565,76.202C-78.796,76.202 -86.507,73.721 -97.8,71.823C-104.012,70.781 -117.612,74.2 -122.697,73.014C-136.721,69.744 -143.012,67.158 -143.012,67.158C-143.012,67.158 -145.275,42.262 -137.739,30.421C-130.203,18.577 -128.976,-1.859 -128.976,-1.859L-7.469,-0.645L19.778,22.114C19.778,22.114 27.35,45.511 25.325,67.158C20.83,67.158 15.356,73.671 0,76.787" style="fill:rgb(32,47,24);fill-rule:nonzero;"/>
        </g>
        <g transform="matrix(1,0,0,1,1714.72,1346.46)">
            <path d="M0,-2.272C7.329,-13.786 7.479,-33.116 7.549,-34.196L6.316,-36.78C6.316,-36.78 3.617,-16.344 -3.92,-4.501C-11.456,7.34 -9.192,32.237 -9.192,32.237C-9.192,32.237 -4.133,34.508 -0.98,34.508C-0.98,34.508 -7.537,9.57 0,-2.272" style="fill:rgb(48,63,39);fill-rule:nonzero;"/>
        </g>
        <g transform="matrix(-0.991746,0.128217,0.128217,0.991746,1876.34,1364.84)">
            <path d="M2.773,-17.167C2.773,-17.167 3.367,-7.319 6.388,14.137C6.388,14.137 4.949,14.323 2.773,13.61C-1.035,-3.89 -0.272,-18.511 2.499,-31.773C2.987,-27.999 2.773,-17.167 2.773,-17.167" style="fill:rgb(48,63,39);fill-rule:nonzero;"/>
        </g>
        <g transform="matrix(1,0,0,1,1828.2,1373.64)">
            <path d="M0,-63.968C0,-63.968 -1.037,-25.102 1.796,-20.648C4.631,-16.194 4.632,-4.86 9.084,-2.43C13.537,0 17.586,-22.076 21.229,-26.423C24.874,-30.769 26.724,-56.511 26.724,-56.511L0,-63.968Z" style="fill:rgb(23,38,20);fill-rule:nonzero;"/>
        </g>
        <g transform="matrix(1,0,0,1,1760.86,1315.75)">
            <path d="M0,69.232C0,69.232 -4.172,67.998 -11.082,68.094C-17.991,68.193 -25.27,68.687 -25.27,68.687C-25.27,68.687 -24.793,61.659 -24.793,59.457C-24.592,52.833 -26.414,46.759 -25.199,40.079C-23.377,27.933 -23.983,15.788 -24.776,3.497C-24.793,1.284 -24.793,0 -24.793,0L-0.622,0L-0.622,3.485C-0.622,4.586 -0.622,5.917 -0.629,7.434C-2.729,23.075 1.521,39.472 -0.62,55.512C-0.622,57.025 -0.622,58.354 -0.622,59.457C-0.622,61.659 0,69.232 0,69.232" style="fill:rgb(23,38,20);fill-rule:nonzero;"/>
        </g>
        <g transform="matrix(-0.773221,0.634136,0.634136,0.773221,1823.7,1343.29)">
            <path d="M27.811,-56.632C27.811,-56.632 44.398,-38.253 40.457,-26.777C36.519,-15.299 34.792,6.538 27.811,9.515C20.828,12.494 -8.799,-35.124 -8.799,-35.124L27.811,-56.632Z" style="fill:rgb(23,38,20);fill-rule:nonzero;"/>
        </g>
        <g transform="matrix(1,0,0,1,1844.16,1330.17)">
            <path d="M0,-33.045C-6.418,-36.522 -130.24,-32.262 -122.806,-19.281C-121.438,-16.896 -117.03,-15.36 -110.674,-14.421C-107.55,-13.961 -103.631,-10.375 -99.695,-10.171C-94.172,-9.885 -88.301,-13.092 -81.791,-13.169C-74.825,-13.251 -67.769,-8.655 -60.526,-8.957C-49.233,-9.425 -37.872,-14.875 -28.641,-15.236C-17.733,-15.663 -9.431,-15.739 -6.479,-14.827C5.313,-11.183 25.627,3.477 25.627,3.477C25.627,3.477 19.434,-22.52 0,-33.045" style="fill:rgb(56,87,43);fill-rule:nonzero;"/>
        </g>
        <g transform="matrix(0,1,1,0,1750.9,1307.79)">
            <path d="M9.342,-13.81C9.342,-13.81 11.618,-9.263 11.465,-5.621C11.316,-1.976 9.342,9.342 9.342,9.342C9.342,9.342 13.81,-2.035 13.505,-6.287C13.201,-10.538 9.342,-13.81 9.342,-13.81" style="fill:rgb(95,114,84);fill-rule:nonzero;"/>
        </g>
        <g transform="matrix(0.0389362,0.999242,0.999242,-0.0389362,1787.86,1303.21)">
            <path d="M14.53,-18.014C14.53,-18.014 18.957,-12.357 19.185,-6.49C19.414,-0.625 17.029,10.016 14.53,15.271C14.53,15.271 17.929,2.231 17.272,-6.214C16.694,-13.636 14.53,-18.014 14.53,-18.014" style="fill:rgb(95,114,84);fill-rule:nonzero;"/>
        </g>
        <g transform="matrix(-0.326649,0.945146,0.945146,0.326649,1849.88,1307.56)">
            <path d="M13.766,-18.189C13.766,-18.189 12.363,-12.328 12.126,-8.394C11.823,-3.328 13.766,10.086 13.766,10.086C13.766,10.086 9.954,-3.62 10.611,-8.518C11.297,-13.661 13.766,-18.189 13.766,-18.189" style="fill:rgb(95,114,84);fill-rule:nonzero;"/>
        </g>
        <g transform="matrix(0,-1,-1,0,1757.34,1297.01)">
            <path d="M-13.173,-13.172C-13.977,-13.172 -14.627,-7.274 -14.627,0.002C-14.627,7.274 -13.977,13.173 -13.173,13.173C-12.368,13.173 -11.718,7.274 -11.718,0.002C-11.718,-7.274 -12.368,-13.172 -13.173,-13.172" style="fill:rgb(49,76,37);fill-rule:nonzero;"/>
        </g>
        <g transform="matrix(0,-1,-1,0,1822.72,1293)">
            <path d="M-13.171,-13.171C-13.976,-13.171 -14.626,-7.275 -14.626,0C-14.626,7.274 -13.976,13.171 -13.171,13.171C-12.367,13.171 -11.716,7.274 -11.716,0C-11.716,-7.275 -12.367,-13.171 -13.171,-13.171" style="fill:rgb(49,76,37);fill-rule:nonzero;"/>
        </g>
        <g transform="matrix(0,-1,-1,0,1776.15,1296.42)">
            <path d="M-8.3,-8.299C-9.104,-8.299 -9.755,-4.584 -9.755,0C-9.755,4.584 -9.104,8.3 -8.3,8.3C-7.496,8.3 -6.844,4.584 -6.844,0C-6.844,-4.584 -7.496,-8.299 -8.3,-8.299" style="fill:rgb(49,76,37);fill-rule:nonzero;"/>
        </g>
    </g>
    <defs>
        <linearGradient id="_Linear1" x1="0" y1="0" x2="1" y2="0" gradientUnits="userSpaceOnUse" gradientTransform="matrix(-3.97136e-08,1,1,3.97136e-08,0.5,-0.5)"><stop offset="0" style="stop-color:white;stop-opacity:1"/><stop offset="0.49" style="stop-color:white;stop-opacity:1"/><stop offset="1" style="stop-color:rgb(186,229,222);stop-opacity:1"/></linearGradient>
        <linearGradient id="_Linear2" x1="0" y1="0" x2="1" y2="0" gradientUnits="userSpaceOnUse" gradientTransform="matrix(-8.38684e-08,1,1,8.38684e-08,0.500003,-0.500003)"><stop offset="0" style="stop-color:rgb(24,153,173);stop-opacity:1"/><stop offset="1" style="stop-color:rgb(20,190,165);stop-opacity:1"/></linearGradient>
    </defs>
</svg>
