<svg xmlns="http://www.w3.org/2000/svg" xmlns:xlink="http://www.w3.org/1999/xlink" width="2560" height="1600" viewBox="0 0 2560 1600">
  <defs>
    <linearGradient id="a" x1="1231.042" y1="1606.907" x2="1231.042" y2="-10.648" gradientUnits="userSpaceOnUse">
      <stop offset="0" stop-color="#cdf7fa"/>
      <stop offset="0.298" stop-color="#c9f4f8"/>
      <stop offset="0.597" stop-color="#bdecf1"/>
      <stop offset="0.894" stop-color="#a9dde5"/>
      <stop offset="1" stop-color="#a0d7e0"/>
    </linearGradient>
    <linearGradient id="b" data-name="Unbenannter Verlauf 116" x1="1231.042" y1="1606.907" x2="1231.042" y2="957.681" gradientUnits="userSpaceOnUse">
      <stop offset="0" stop-color="#75c2ab"/>
      <stop offset="0.185" stop-color="#71c1aa"/>
      <stop offset="0.37" stop-color="#65bda9"/>
      <stop offset="0.556" stop-color="#51b6a5"/>
      <stop offset="0.741" stop-color="#35ada1"/>
      <stop offset="0.925" stop-color="#11a19c"/>
      <stop offset="1" stop-color="#009b99"/>
    </linearGradient>
  </defs>
  <rect x="-126.264" y="-10.648" width="2714.612" height="1617.555" fill="url(#a)"/>
  <rect x="-126.264" y="957.681" width="2714.612" height="649.226" fill="url(#b)"/>
  <g>
    <path d="M569.6,358.9C274.9,346.535,60.725,357.4,60.725,357.4s307.363-64.781,347.945-64.781c0,0-63.717-105.606,186.146-133.8,200.258-22.6,374.059,19.591,426.732,63.28,57.633,47.8-51.494,56.965-51.494,56.965s107.124,3.014,158.017,33.144c0,0-217.282,3.012-266.276,18.078,0,0,97.3,68.157-307.452,59.117C503.153,388.253,612.268,360.693,569.6,358.9Z" fill="#fff"/>
    <path d="M861.8,330.278c48.538-14.925,262.23-18.021,266.214-18.078-191.309-33.986-517.128-7.81-564.465-3.5-49.694,4.52,81.079,19.585-7.847,19.585-73.319,0-386.075,21.336-493.593,28.825l-1.379.291S274.9,346.535,569.6,358.9c42.667,1.791-66.448,29.351-15.258,30.493C959.092,398.435,861.8,330.278,861.8,330.278Z" fill="#9fd0de"/>
  </g>
  <g>
    <path d="M1950.442,510.828c-166.552-6.989-287.6-.851-287.6-.851s173.711-36.612,196.647-36.612c0,0,.573-52.081,78.267-29.435-2.34-5.392,1.991-36.257,26.936-46.186,32.973-13.124,57.31,6.286,60.119,19.227,10.3-13.48,37.926-25.893,63.653-23.6,62.228,5.555,98.112,24.131,117.4,40.132,32.572,27.017-29.1,32.195-29.1,32.195s60.543,1.7,89.307,18.732c0,0-122.8,1.7-150.491,10.217,0,0,54.989,38.52-173.761,33.412C1912.887,527.417,1974.555,511.841,1950.442,510.828Z" fill="#fff"/>
    <path d="M2115.58,494.651c27.432-8.435,148.2-10.185,150.455-10.217-108.121-19.208-292.264-4.414-319.016-1.981-28.086,2.555,45.823,11.069-4.436,11.069-41.436,0-218.2,12.058-278.961,16.291l-.78.164s121.048-6.138,287.6.851c24.113,1.013-37.555,16.589-8.623,17.235C2170.569,533.171,2115.58,494.651,2115.58,494.651Z" fill="#9fd0de"/>
  </g>
  <g>
    <g>
      <path d="M2769.614,1121.3h-211.2c-68.444-.726-136,.871-204.556,2.469-15.123.533-30.247-.533-45.37.533-120.989,5.325-247.018,14.91-361.957-13.846-30.247-7.456-61.838,2.17-95.11,7.495-68.559,11.715-139.808,16.468-212.4,11.141-148.211-11.182-287.347-23.429-436.566-4.258-54.445,6.923-104.856,0-155.268-11.182-34.28-7.989-72.593-4.261-109.9.53-90.741,12.25-179.465,22.367-271.215,13.847-78.642-7.455-153.252-5.858-229.86-3.188q-13.827.288-27.619.291c-64.409.054-128.874-4-193.784-3.832h-369.08v-6.949H208.272c2.441.009,4.707.017,7.049.028,58.035.725,116.019,5.284,173.994,5.243,11.6-.01,23.19-.2,34.786-.644a1510.139,1510.139,0,0,1,234.917,3.726c100.824,9.053,194.59-3.729,294.4-16.508,30.247-3.729,60.494-6.922,87.716-1.066,106.873,23.962,213.746,7.989,322.636,1.6,74.609-4.792,146.194,3.729,219.795,12.781,100.823,12.78,153.587-6.046,248.361-19.889,28.231-4.263,95.447-3.011,121.661,3.381,113.93,29.288,238.952,21.3,359.94,15.443,40.329-2.13,80.659-2.13,120.988-3.729,41.338-1.6,82.675,0,123.9-.363h211.2Z" fill="#fff"/>
      <path d="M-154.267,1121.3h211.2c68.444-.726,136,.871,204.555,2.469,15.124.533,30.247-.533,45.371.533,120.988,5.325,247.018,14.91,361.956-13.846,30.247-7.456,66.544-6.391,99.816-1.065,68.56,11.714,135.1,25.028,207.7,19.7,148.21-11.182,287.347-23.429,436.566-4.258,54.444,6.923,104.856,0,155.268-11.182,34.28-7.989,72.593-4.261,109.9.53,90.741,12.25,179.466,22.367,271.215,13.847,78.643-7.455,153.252-5.858,229.86-3.188q13.827.288,27.619.291c64.409.054,128.874-4,193.784-3.832h369.08v-6.949H2407.076c-2.442.009-4.707.017-7.05.028-58.035.725-116.019,5.284-173.994,5.243-11.6-.01-23.189-.2-34.785-.644a1510.153,1510.153,0,0,0-234.918,3.726c-100.823,9.053-194.589-3.729-294.4-16.508-30.248-3.729-60.495-6.922-87.717-1.066-106.873,23.962-213.746,7.989-322.635,1.6-74.609-4.792-146.194,3.729-219.8,12.781-100.824,12.78-190.557-4.794-285.331-18.637-28.23-4.263-58.477-4.263-84.691,2.129-113.931,29.288-238.952,21.3-359.94,15.443-40.33-2.13-80.659-2.13-120.988-3.729-41.338-1.6-82.676,0-123.9-.363h-211.2Z" fill="#fff"/>
      <path d="M-154.267,1168.726h211.2c68.444-.727,136,.871,204.555,2.469,15.124.533,30.247-.533,45.371.533,120.988,5.325,247.018,14.909,361.956-13.847,30.247-7.455,66.544-6.391,99.816-1.064,68.56,11.714,135.1,25.028,207.7,19.7,148.21-11.182,287.347-23.429,436.566-4.259,54.444,6.924,104.856,0,155.268-11.181,34.28-7.989,72.593-4.261,109.9.529,90.741,12.251,179.466,22.368,271.215,13.849,78.643-7.457,153.252-5.859,229.86-3.189q13.827.286,27.619.292c64.409.053,128.874-4,193.784-3.833h369.08v-6.949H2407.076c-2.442.009-4.707.016-7.05.027-58.035.725-116.019,5.285-173.994,5.244-11.6-.01-23.189-.2-34.785-.645a1510.277,1510.277,0,0,0-234.918,3.726c-100.823,9.054-194.589-3.728-294.4-16.508-30.248-3.728-60.495-6.921-87.717-1.065-106.873,23.962-213.746,7.989-322.635,1.6-74.609-4.794-146.194,3.727-219.8,12.78-100.824,12.78-190.557-4.794-285.331-18.637-28.23-4.263-58.477-4.263-84.691,2.129-113.931,29.288-238.952,21.3-359.94,15.442-40.33-2.13-80.659-2.13-120.988-3.728-41.338-1.6-82.676,0-123.9-.363h-211.2Z" fill="#fff"/>
    </g>
    <g>
      <path d="M2769.614,1185.325h-211.2c-68.444-.727-136,.87-204.556,2.469-15.123.531-30.247-.533-45.37.531-120.989,5.327-247.018,14.911-361.957-13.845-30.247-7.455-66.543-6.391-99.815-1.064-68.56,11.714-135.1,25.027-207.7,19.7-148.211-11.183-287.347-23.43-436.566-4.259-54.445,6.924-104.856,0-155.268-11.181-34.28-7.99-72.593-4.261-109.9.529-90.741,12.25-179.465,22.367-271.215,13.848-78.642-7.456-153.252-5.859-229.86-3.188q-13.827.287-27.619.291c-64.409.053-128.874-4-193.784-3.832h-369.08v-6.949H208.272c2.441.008,4.707.016,7.049.027,58.036.725,116.019,5.285,173.995,5.242,11.594-.008,23.189-.2,34.785-.643a1510.262,1510.262,0,0,1,234.917,3.726c100.824,9.054,194.59-3.728,294.4-16.508,30.247-3.728,60.494-6.921,87.716-1.065,106.873,23.962,213.746,7.989,322.636,1.6,74.609-4.793,146.194,3.728,219.795,12.781,100.823,12.779,190.556-4.794,285.33-18.637,28.231-4.263,58.478-4.263,84.692,2.129,113.93,29.287,238.952,21.3,359.94,15.442,40.329-2.13,80.659-2.13,120.988-3.728,41.338-1.6,82.675,0,123.9-.363h211.2Z" fill="#fff"/>
      <path d="M-154.267,1185.325h211.2c68.444-.727,136,.87,204.555,2.469,15.124.531,30.247-.533,45.371.531,120.988,5.327,247.018,14.911,361.956-13.845,30.247-7.455,66.544-6.391,99.816-1.064,68.56,11.714,135.1,25.027,207.7,19.7,148.21-11.183,287.347-23.43,436.566-4.259,54.444,6.924,104.856,0,155.268-11.181,34.28-7.99,72.593-4.261,109.9.529,90.741,12.25,179.466,22.367,271.215,13.848,78.643-7.456,153.252-5.859,229.86-3.188q13.827.287,27.619.291c64.409.053,128.874-4,193.784-3.832h369.08v-6.949H2407.076c-2.442.008-4.707.016-7.05.027-58.035.725-116.019,5.285-173.994,5.242-11.6-.008-23.189-.2-34.785-.643a1510.277,1510.277,0,0,0-234.918,3.726c-100.823,9.054-194.589-3.728-294.4-16.508-30.248-3.728-60.495-6.921-87.717-1.065-106.873,23.962-213.746,7.989-322.635,1.6-74.609-4.793-146.194,3.728-219.8,12.781-100.824,12.779-190.557-4.794-285.331-18.637-28.23-4.263-58.477-4.263-84.691,2.129-113.931,29.287-238.952,21.3-359.94,15.442-40.33-2.13-80.659-2.13-120.988-3.728-41.338-1.6-82.676,0-123.9-.363h-211.2Z" fill="#fff"/>
      <path d="M-154.267,1232.749h211.2c68.444-.726,136,.871,204.555,2.469,15.124.533,30.247-.532,45.371.533,120.988,5.326,247.018,14.91,361.956-13.846,30.247-7.456,66.544-6.391,99.816-1.065,68.56,11.715,135.1,25.028,207.7,19.7,148.21-11.183,287.347-23.43,436.566-4.259,54.444,6.924,104.856,0,155.268-11.182,34.28-7.989,72.593-4.261,109.9.53,90.741,12.25,179.466,22.367,271.215,13.847,78.643-7.455,153.252-5.858,229.86-3.188q13.827.288,27.619.291c64.409.054,128.874-4,193.784-3.832h369.08V1225.8H2407.076c-2.442.009-4.707.017-7.05.028-58.035.725-116.019,5.285-173.994,5.243-11.6-.01-23.189-.2-34.785-.644a1510.153,1510.153,0,0,0-234.918,3.726c-100.823,9.054-194.589-3.728-294.4-16.508-30.248-3.729-60.495-6.922-87.717-1.066-106.873,23.963-213.746,7.989-322.635,1.6-74.609-4.792-146.194,3.729-219.8,12.781-100.824,12.78-190.557-4.793-285.331-18.637-28.23-4.263-58.477-4.263-84.691,2.129-113.931,29.288-238.952,21.3-359.94,15.443-40.33-2.13-80.659-2.13-120.988-3.728-41.338-1.6-82.676,0-123.9-.364h-211.2Z" fill="#fff"/>
    </g>
  </g>
  <path d="M-244.388,1395.2c88.907-125.55,181.854,6.992,283.929,22.58,195.57,29.865,448.368-50.01,671.1-32.492,161.638,12.713,211,114.549,424.46,101.874,245.641-14.586,365.082-44.674,570.725-82.05,175.989-31.987,237.335,41.663,412.988,13.216,192.022-31.1,234.617-48.255,438.8-57.657,96.641-4.45,56.177,2.853,197.89-84.413l11.472,310.571H-201.369S-250.8,1404.251-244.388,1395.2Z" fill="#f9e9d2"/>
  <path d="M-247.256,1424.935c88.907-125.549,181.854,6.992,283.929,22.58,195.57,29.866,448.368-50.01,671.1-32.491,161.638,12.713,211,114.549,424.46,101.874,245.641-14.586,365.082-44.674,570.725-82.051,175.989-31.986,237.335,41.663,412.988,13.216,192.022-31.1,234.617-48.254,438.8-57.656,96.641-4.451,56.177,2.853,197.89-84.413l11.472,310.57H-204.237S-253.666,1433.987-247.256,1424.935Z" fill="#ffdca4"/>
</svg>
