<svg xmlns="http://www.w3.org/2000/svg" xmlns:xlink="http://www.w3.org/1999/xlink" width="1920" height="1080" viewBox="0 0 1920 1080">
  <defs>
    <linearGradient id="a" x1="945.364" y1="1092.606" x2="945.364" y2="-88.861" gradientUnits="userSpaceOnUse">
      <stop offset="0" stop-color="#cdf7fa"/>
      <stop offset="0.298" stop-color="#c9f4f8"/>
      <stop offset="0.597" stop-color="#bdecf1"/>
      <stop offset="0.894" stop-color="#a9dde5"/>
      <stop offset="1" stop-color="#a0d7e0"/>
    </linearGradient>
    <linearGradient id="b" data-name="Unbenannter Verlauf 116" x1="945.364" y1="1092.606" x2="945.364" y2="618.41" gradientUnits="userSpaceOnUse">
      <stop offset="0" stop-color="#75c2ab"/>
      <stop offset="0.185" stop-color="#71c1aa"/>
      <stop offset="0.37" stop-color="#65bda9"/>
      <stop offset="0.556" stop-color="#51b6a5"/>
      <stop offset="0.741" stop-color="#35ada1"/>
      <stop offset="0.925" stop-color="#11a19c"/>
      <stop offset="1" stop-color="#009b99"/>
    </linearGradient>
  </defs>
  <rect x="-46.016" y="-88.861" width="1982.76" height="1181.467" fill="url(#a)"/>
  <rect x="-46.016" y="618.41" width="1982.76" height="474.197" fill="url(#b)"/>
  <g>
    <path d="M907,277.04c-215.247-9.033-371.685-1.1-371.685-1.1s224.5-47.316,254.14-47.316c0,0-46.539-77.135,135.962-97.731,146.269-16.507,273.213,14.309,311.686,46.22,42.1,34.916-37.611,41.607-37.611,41.607s78.243,2.2,115.416,24.209c0,0-158.7,2.2-194.489,13.2,0,0,71.066,49.782-224.564,43.18C858.469,298.478,938.167,278.349,907,277.04Z" fill="#fff"/>
    <path d="M1120.422,256.133c35.452-10.9,191.534-13.162,194.443-13.2-139.733-24.824-377.712-5.7-412.287-2.56-36.3,3.3,59.221,14.305-5.731,14.305-53.552,0-281.99,15.584-360.522,21.053l-1.007.213s156.438-7.933,371.685,1.1c31.164,1.309-48.534,21.438-11.145,22.273C1191.488,305.915,1120.422,256.133,1120.422,256.133Z" fill="#9fd0de"/>
  </g>
  <g>
    <path d="M1481.976,341.641c-121.65-5.105-210.063-.622-210.063-.622s126.879-26.741,143.631-26.741c0,0,.418-38.04,57.166-21.5-1.709-3.938,1.455-26.482,19.675-33.734,24.083-9.586,41.859,4.591,43.91,14.043,7.521-9.846,27.7-18.912,46.493-17.234,45.452,4.057,71.661,17.625,85.751,29.313,23.791,19.733-21.256,23.515-21.256,23.515s44.22,1.244,65.229,13.682c0,0-89.694,1.243-109.919,7.462,0,0,40.165,28.135-126.915,24.4C1454.546,353.757,1499.589,342.381,1481.976,341.641Z" fill="#fff"/>
    <path d="M1602.593,329.825c20.037-6.161,108.249-7.439,109.893-7.462-78.972-14.03-213.47-3.225-233.01-1.447-20.514,1.865,33.469,8.085-3.24,8.085-30.265,0-159.371,8.807-203.754,11.9l-.569.12s88.413-4.483,210.063.622c17.613.74-27.43,12.116-6.3,12.588C1642.758,357.96,1602.593,329.825,1602.593,329.825Z" fill="#9fd0de"/>
  </g>
  <g>
    <g>
      <path d="M2128.375,737.918H1974.116c-49.992-.531-99.332.636-149.408,1.8-11.046.389-22.093-.389-33.139.389C1703.2,744,1611.147,751,1527.2,730c-22.092-5.447-45.167,1.584-69.468,5.474-50.077,8.557-102.117,12.028-155.139,8.137-108.254-8.167-209.879-17.112-318.869-3.11-39.767,5.057-76.587,0-113.408-8.167-25.038-5.835-53.022-3.113-80.27.387-66.277,8.947-131.082,16.337-198.1,10.114-57.441-5.446-111.936-4.279-167.89-2.329q-10.1.212-20.173.213c-47.045.039-94.13-2.922-141.541-2.8H-7.236v-5.076h264.8c1.784.007,3.438.013,5.149.021,42.389.529,84.741,3.859,127.086,3.829,8.469-.007,16.938-.147,25.408-.47a1103.03,1103.03,0,0,1,171.584,2.721c73.642,6.613,142.129-2.723,215.034-12.057,22.092-2.724,44.185-5.056,64.068-.779,78.06,17.5,156.121,5.835,235.654,1.167,54.495-3.5,106.78,2.724,160.539,9.335,73.642,9.335,112.181-4.416,181.4-14.527,20.619-3.113,69.714-2.2,88.861,2.469,83.215,21.393,174.531,15.559,262.9,11.28,29.457-1.556,58.914-1.556,88.37-2.723,30.193-1.166,60.386,0,90.495-.266h154.259Z" fill="#fff"/>
      <path d="M-7.236,737.918h154.26c49.991-.531,99.331.636,149.408,1.8,11.046.389,22.092-.389,33.138.389C417.94,744,509.993,751,593.944,730c22.093-5.447,48.6-4.668,72.906-.779,50.076,8.557,98.679,18.281,151.7,14.39,108.253-8.167,209.879-17.112,318.868-3.11,39.767,5.057,76.588,0,113.409-8.167,25.038-5.835,53.022-3.113,80.269.387,66.278,8.947,131.082,16.337,198.1,10.114,57.441-5.446,111.936-4.279,167.891-2.329q10.1.212,20.173.213c47.044.039,94.13-2.922,141.54-2.8h269.577v-5.076h-264.8c-1.783.007-3.438.013-5.149.021-42.389.529-84.741,3.859-127.086,3.829-8.469-.007-16.938-.147-25.407-.47a1103.042,1103.042,0,0,0-171.585,2.721c-73.641,6.613-142.128-2.723-215.034-12.057-22.092-2.724-44.185-5.056-64.068-.779-78.06,17.5-156.12,5.835-235.653,1.167-54.495-3.5-106.781,2.724-160.54,9.335-73.641,9.335-139.182-3.5-208.406-13.612-20.619-3.114-42.712-3.114-61.859,1.554-83.215,21.393-174.531,15.559-262.9,11.28-29.456-1.556-58.913-1.556-88.37-2.723-30.193-1.166-60.386,0-90.494-.266H-7.236Z" fill="#fff"/>
      <path d="M-7.236,772.558h154.26c49.991-.532,99.331.636,149.408,1.8,11.046.39,22.092-.389,33.138.39,88.37,3.89,180.423,10.89,264.374-10.114,22.093-5.445,48.6-4.668,72.906-.777,50.076,8.556,98.679,18.28,151.7,14.39,108.253-8.167,209.879-17.113,318.868-3.111,39.767,5.057,76.588,0,113.409-8.167,25.038-5.835,53.022-3.112,80.269.387,66.278,8.948,131.082,16.337,198.1,10.115,57.441-5.447,111.936-4.279,167.891-2.329q10.1.21,20.173.213c47.044.039,94.13-2.923,141.54-2.8h269.577v-5.076h-264.8c-1.783.007-3.438.011-5.149.02-42.389.529-84.741,3.859-127.086,3.829-8.469-.006-16.938-.147-25.407-.47a1103.166,1103.166,0,0,0-171.585,2.721c-73.641,6.613-142.128-2.723-215.034-12.058-22.092-2.723-44.185-5.055-64.068-.777-78.06,17.5-156.12,5.835-235.653,1.167-54.495-3.5-106.781,2.722-160.54,9.334-73.641,9.335-139.182-3.5-208.406-13.612-20.619-3.114-42.712-3.114-61.859,1.555-83.215,21.392-174.531,15.559-262.9,11.279-29.456-1.556-58.913-1.556-88.37-2.723-30.193-1.165-60.386,0-90.494-.265H-7.236Z" fill="#fff"/>
    </g>
    <g>
      <path d="M2128.375,784.681H1974.116c-49.992-.531-99.332.636-149.408,1.8-11.046.389-22.093-.389-33.139.389-88.37,3.89-180.422,10.891-264.374-10.113-22.092-5.445-48.6-4.668-72.9-.777-50.077,8.556-98.68,18.279-151.7,14.39-108.254-8.168-209.879-17.114-318.869-3.111-39.767,5.057-76.587,0-113.408-8.167-25.038-5.836-53.022-3.112-80.27.387-66.277,8.947-131.082,16.336-198.1,10.115-57.441-5.447-111.936-4.28-167.89-2.33q-10.1.21-20.173.214c-47.045.038-94.13-2.923-141.541-2.8H-7.236v-5.075h264.8c1.784.006,3.438.011,5.149.02,42.39.529,84.741,3.859,127.086,3.829,8.469-.007,16.938-.147,25.408-.47a1103.153,1103.153,0,0,1,171.584,2.721c73.642,6.613,142.129-2.723,215.034-12.058,22.092-2.723,44.185-5.055,64.068-.777,78.06,17.5,156.121,5.835,235.654,1.166,54.495-3.5,106.78,2.723,160.539,9.335,73.642,9.334,139.183-3.5,208.406-13.612,20.62-3.114,42.712-3.114,61.859,1.555,83.215,21.391,174.531,15.558,262.9,11.279,29.457-1.556,58.914-1.556,88.37-2.723,30.193-1.165,60.386,0,90.495-.265h154.259Z" fill="#fff"/>
      <path d="M-7.236,784.681h154.26c49.991-.531,99.331.636,149.408,1.8,11.046.389,22.092-.389,33.138.389,88.37,3.89,180.423,10.891,264.374-10.113,22.093-5.445,48.6-4.668,72.906-.777,50.076,8.556,98.679,18.279,151.7,14.39,108.253-8.168,209.879-17.114,318.868-3.111,39.767,5.057,76.588,0,113.409-8.167,25.038-5.836,53.022-3.112,80.269.387,66.278,8.947,131.082,16.336,198.1,10.115,57.441-5.447,111.936-4.28,167.891-2.33q10.1.21,20.173.214c47.044.038,94.13-2.923,141.54-2.8h269.577v-5.075h-264.8c-1.783.006-3.438.011-5.149.02-42.389.529-84.741,3.859-127.086,3.829-8.469-.007-16.938-.147-25.407-.47a1103.166,1103.166,0,0,0-171.585,2.721c-73.641,6.613-142.128-2.723-215.034-12.058-22.092-2.723-44.185-5.055-64.068-.777-78.06,17.5-156.12,5.835-235.653,1.166-54.495-3.5-106.781,2.723-160.54,9.335-73.641,9.334-139.182-3.5-208.406-13.612-20.619-3.114-42.712-3.114-61.859,1.555-83.215,21.391-174.531,15.558-262.9,11.279-29.456-1.556-58.913-1.556-88.37-2.723-30.193-1.165-60.386,0-90.494-.265H-7.236Z" fill="#fff"/>
      <path d="M-7.236,819.32h154.26c49.991-.531,99.331.636,149.408,1.8,11.046.389,22.092-.388,33.138.389C417.94,825.4,509.993,832.4,593.944,811.4c22.093-5.447,48.6-4.668,72.906-.779,50.076,8.558,98.679,18.281,151.7,14.391,108.253-8.168,209.879-17.114,318.868-3.111,39.767,5.058,76.588,0,113.409-8.168,25.038-5.835,53.022-3.112,80.269.388,66.278,8.947,131.082,16.337,198.1,10.114,57.441-5.446,111.936-4.279,167.891-2.329q10.1.212,20.173.213c47.044.039,94.13-2.922,141.54-2.8h269.577v-5.076h-264.8c-1.783.007-3.438.013-5.149.021-42.389.529-84.741,3.86-127.086,3.829-8.469-.007-16.938-.147-25.407-.47a1103.042,1103.042,0,0,0-171.585,2.721c-73.641,6.614-142.128-2.722-215.034-12.057-22.092-2.724-44.185-5.056-64.068-.779-78.06,17.5-156.12,5.835-235.653,1.167-54.495-3.5-106.781,2.724-160.54,9.335-73.641,9.335-139.182-3.5-208.406-13.612-20.619-3.114-42.712-3.114-61.859,1.554-83.215,21.393-174.531,15.559-262.9,11.28-29.456-1.556-58.913-1.556-88.37-2.723-30.193-1.166-60.386,0-90.494-.266H-7.236Z" fill="#fff"/>
    </g>
  </g>
  <g>
    <path d="M1643.966,959.491c-112,18.927-151.122-30.074-263.342-8.793-131.128,24.868-207.29,44.887-363.923,54.591-136.115,8.433-167.589-59.322-270.658-67.78C604.015,925.853,442.818,979,318.113,959.126c-65.088-10.371-164.8-47.381-238.411-14.2C32.918,966.894,22.152,973.021.129,974.85L0,1072.426H80.553l1839.829-.826.129-96.75C1790.314,981.105,1766.41,938.8,1643.966,959.491Z" fill="#f9e9d2"/>
    <path d="M1643.966,984c-112,18.926-151.122-30.075-263.342-8.793-131.128,24.867-207.29,44.886-363.923,54.59-136.115,8.434-167.589-59.321-270.658-67.779-142.028-11.656-303.225,41.487-427.93,21.617-65.088-10.371-164.8-47.381-238.411-14.2C32.918,991.4,22.152,997.532.129,999.361L0,1096.936H80.553l1839.829-.825.129-96.75C1790.314,1005.616,1766.41,963.311,1643.966,984Z" fill="#ffdca4"/>
  </g>
</svg>
