<?xml version="1.0" encoding="UTF-8" standalone="no"?>
<!DOCTYPE svg PUBLIC "-//W3C//DTD SVG 1.1//EN" "http://www.w3.org/Graphics/SVG/1.1/DTD/svg11.dtd">
<svg width="100%" height="100%" viewBox="0 0 784 373" version="1.1" xmlns="http://www.w3.org/2000/svg" xmlns:xlink="http://www.w3.org/1999/xlink" xml:space="preserve" xmlns:serif="http://www.serif.com/" style="fill-rule:evenodd;clip-rule:evenodd;">
    <g transform="matrix(1,0,0,1,-33.6918,-20.5275)">
        <g id="Top">
            <g transform="matrix(-2.40205e-05,1.00954,-1.00629,-2.39432e-05,853.798,-3.72922)">
                <path d="M376,124.668C395.333,122.335 394.263,772.771 388.263,769.771C382.263,766.771 376.929,765.104 372.263,764.771C367.596,764.437 251.365,766.143 245.032,767.477C238.699,768.81 235.132,769.043 234.332,768.177C233.465,767.377 230.436,741.706 227.769,734.706C225.103,727.706 222.603,722.54 220.269,719.206C217.936,715.873 214.536,712.606 210.069,709.406C205.536,706.273 198.936,704.373 190.269,703.706C181.603,703.04 177.003,702.473 176.469,702.006C176.003,701.473 175.769,685.706 175.769,654.706C175.769,623.706 176.103,606.706 176.769,603.706C177.436,600.706 178.336,598.706 179.469,597.706C180.669,596.706 181.336,595.04 181.469,592.706C181.669,590.373 180.769,583.206 178.769,571.206C176.769,559.206 176.103,532.873 176.769,492.206C177.436,451.54 178.003,430.14 178.469,428.006C179.003,425.806 180.003,415.606 181.469,397.406C183.003,379.273 184.103,358.706 184.769,335.706C185.436,312.706 185.269,294.04 184.269,279.706C183.269,265.373 182.103,255.04 180.769,248.706C179.436,242.373 179.269,226.54 180.269,201.206C181.269,175.873 182.102,145.208 182.769,143.874C183.436,142.541 185.869,140.808 190.069,138.674C194.202,136.474 202.936,134.374 216.269,132.374C229.602,130.374 356.666,127.002 376,124.668Z" style="fill:rgb(233,206,146);stroke:rgb(233,206,146);stroke-width:0.5px;"/>
            </g>
            <g transform="matrix(-2.37936e-05,1,-1,-2.37936e-05,853.014,0.0101481)">
                <path d="M307.588,106.76C316.588,106.093 229.602,130.374 216.269,132.374C202.936,134.374 194.202,136.474 190.069,138.674C185.869,140.808 183.436,142.541 182.769,143.874C182.102,145.208 181.269,175.873 180.269,201.206C179.269,226.54 179.436,242.373 180.769,248.706C182.103,255.04 183.269,265.373 184.269,279.706C185.269,294.04 185.436,312.706 184.769,335.706C184.103,358.706 183.003,379.273 181.469,397.406C180.003,415.606 179.003,425.806 178.469,428.006C178.003,430.14 177.436,451.54 176.769,492.206C176.103,532.873 176.769,559.206 178.769,571.206C180.769,583.206 181.669,590.373 181.469,592.706C181.336,595.04 180.669,596.706 179.469,597.706C178.336,598.706 177.436,600.706 176.769,603.706C176.103,606.706 175.769,623.706 175.769,654.706C175.769,685.706 176.003,701.473 176.469,702.006C177.003,702.473 181.603,703.04 190.269,703.706C198.936,704.373 205.536,706.273 210.069,709.406C214.536,712.606 217.936,715.873 220.269,719.206C222.603,722.54 225.103,727.706 227.769,734.706C230.436,741.706 233.465,767.377 234.332,768.177C235.132,769.043 238.699,768.81 245.032,767.477C251.365,766.143 329.5,811.5 329.5,811.5C313.833,811.5 300.667,811.667 290,812C279.333,812.333 273.6,810.6 272.8,806.8L271.5,801L271.2,799.5L271,798L268,798L267.8,799L267.5,800L267.2,800.2L266.8,800.8L266.5,801L266,802C265.667,802.667 264.833,804.5 263.5,807.5C262.167,810.5 243.733,811.833 208.2,811.5L155,811L155.2,810.5L155.5,810L155.8,809.8L156,809.5L158,808.5L157.8,808.2C157.6,808.067 157.5,806.5 157.5,803.5C157.5,800.5 156.5,794.667 154.5,786C152.5,777.333 151,768.333 150,759C149,749.667 148,692.833 147,588.5C146,484.167 145.5,392.333 145.5,313C145.5,233.667 146.4,193.4 148.2,192.2C150.067,191.067 152.933,187.4 156.8,181.2C160.6,175.067 162.667,169.167 163,163.5C163.333,157.833 162,152.333 159,147C156,141.667 153.4,138.333 151.2,137C149.067,135.667 147.267,133 145.8,129C144.267,125 143.333,120 143,114C142.667,108 143.067,104.667 144.2,104C145.4,103.333 146.067,102.5 146.2,101.5C146.4,100.5 147.167,98.5 148.5,95.5L150.5,91L150.8,90.8L151,90.5L145,89.5L144.8,89.2L144.2,88.8L144,88.5L144,88L146,88.2L148,88.5L195.2,87.8C226.733,87.267 243.333,88.833 245,92.5C246.667,96.167 247.667,98.333 248,99L248.5,100L248.8,100.2L249,100.5L253,100.5L253.2,100.2L253.8,99.8L254.2,99.2L254.5,99L257.2,93.5C259.067,89.833 266.833,88.6 280.5,89.8C294.167,90.933 302.067,94.067 304.2,99.2C306.4,104.4 298.588,107.427 307.588,106.76Z" style="fill:rgb(216,183,119);stroke:rgb(216,183,119);stroke-width:0.5px;"/>
            </g>
            <g transform="matrix(-2.37936e-05,1,-1,-2.37936e-05,853.014,0.0101481)">
                <path d="M72,38.8L73,39L73,40C73,40.667 74,41.167 76,41.5C78,41.833 79.067,43 79.2,45C79.4,47 80.333,50.5 82,55.5C83.667,60.5 84.733,63.5 85.2,64.5C85.733,65.5 87.833,66.933 91.5,68.8C95.167,70.6 98.333,71.6 101,71.8L105,72L105,80L104,79.8L103,79.5L102.8,79.2L102.5,79L102.2,79.2L102,79.5L100,79.5L98.5,79C97.5,78.667 95,78 91,77L85,75.5L84.8,75.8L84.5,76L82.8,82.2C81.6,86.4 80.833,88.667 80.5,89C80.167,89.333 79.667,89.6 79,89.8L78,90L77.5,90L77.2,91L77,92L75.2,98C74.067,102 73,110.833 72,124.5C71,138.167 70,183.667 69,261C68,338.333 67.5,449.667 67.5,595C67.5,740.333 67.4,813.067 67.2,813.2C67.067,813.4 66.667,813.667 66,814L65,814.5L67,815.5L66,816C65.333,816.333 65,816.6 65,816.8L65,817L64.8,817C64.6,817 64.4,817.167 64.2,817.5L64,818L59,818.2C55.667,818.4 43.943,818.267 38.276,817.8C32.609,817.267 22.253,819.098 21.453,810.098C20.586,801.098 24.091,733.857 21.758,616.19C19.425,498.523 26.067,376.333 23.2,255C20.4,133.667 21.167,72.833 25.5,72.5L32,72L32,54.5C32,42.833 37.833,37.067 49.5,37.2C61.167,37.4 67.667,37.667 69,38C70.333,38.333 71.333,38.6 72,38.8Z" style="fill:rgb(181,135,56);stroke:rgb(181,135,56);stroke-width:0.5px;"/>
            </g>
            <g transform="matrix(-2.37936e-05,1,-1,-2.37936e-05,853.014,0.0101481)">
                <path d="M73,40L73,39L79,39.8C83,40.267 85.833,41 87.5,42C89.167,43 91.5,43.5 94.5,43.5C97.5,43.5 99.333,43.667 100,44C100.667,44.333 100.4,44.733 99.2,45.2C98.067,45.733 98.333,46.167 100,46.5C101.667,46.833 102.667,47.333 103,48C103.333,48.667 103.667,48.167 104,46.5C104.333,44.833 104.833,46 105.5,50C106.167,54 106.6,60 106.8,68C106.933,76 110,80.4 116,81.2C122,82.067 125.267,83.067 125.8,84.2C126.267,85.4 126.6,86.067 126.8,86.2L127,86.5L133,87.5L133,88L129.5,88C127.167,88 124.267,206.833 120.8,444.5C117.267,682.167 115.4,802.833 115.2,806.5L115,812L118,812L116.5,812.5C115.5,812.833 115,813.667 115,815L115,817L113,816.8C111.667,816.6 110.667,816.333 110,816C109.333,815.667 108.333,815.833 107,816.5C105.667,817.167 103.333,817.667 100,818C96.667,818.333 94.833,818.067 94.5,817.2C94.167,816.4 92,816 88,816L82,816L82.2,815.5L82.5,815L82.8,814.8L83.2,814.2C83.4,814.067 83.667,812.667 84,810C84.333,807.333 83.267,687 80.8,449L77,92L77.2,92C77.4,92 77.6,91.667 77.8,91L78,90L79,89.8C79.667,89.6 80.167,89.333 80.5,89C80.833,88.667 81.6,86.4 82.8,82.2L84.5,76L84.8,75.8L85,75.5L91,77C95,78 97.5,78.667 98.5,79L100,79.5L102,79.5L102.2,79.2L102.5,79L102.8,79.2L103,79.5L104,79.8L105,80L105,72L101,71.8C98.333,71.6 95.167,70.6 91.5,68.8C87.833,66.933 85.733,65.5 85.2,64.5C84.733,63.5 83.333,59.667 81,53C78.667,46.333 76.733,42.667 75.2,42C73.733,41.333 73,40.667 73,40Z" style="fill:rgb(228,203,149);stroke:rgb(228,203,149);stroke-width:0.5px;"/>
            </g>
            <g transform="matrix(-2.37936e-05,1,-1,-2.37936e-05,853.014,0.0101481)">
                <path d="M129.5,88L144,88L144,88.5L144.2,88.8L144.8,89.2L145,89.5L151,90.5L150.8,90.8L150.5,91L148.5,95.5C147.167,98.5 146.4,100.5 146.2,101.5C146.067,102.5 145.4,103.333 144.2,104C143.067,104.667 142.667,108 143,114C143.333,120 144.267,125 145.8,129C147.267,133 149.067,135.667 151.2,137C153.4,138.333 156,141.667 159,147C162,152.333 163.333,157.833 163,163.5C162.667,169.167 160.6,175.067 156.8,181.2C152.933,187.4 150.067,191.067 148.2,192.2C146.4,193.4 145.5,233.667 145.5,313C145.5,392.333 146,484.167 147,588.5C148,692.833 149,749.667 150,759C151,768.333 152.5,777.333 154.5,786C156.5,794.667 157.5,800.5 157.5,803.5C157.5,806.5 157.6,808.067 157.8,808.2L158,808.5L156,809.5L155.8,809.8L155.5,810L155.2,810.5L155,811L148.5,811.2C144.167,811.4 138,811.6 130,811.8L118,812L115,812L115.2,806.5C115.4,802.833 117.267,682.167 120.8,444.5C124.267,206.833 127.167,88 129.5,88Z" style="fill:rgb(158,117,48);stroke:rgb(158,117,48);stroke-width:0.5px;"/>
            </g>
            <g transform="matrix(-2.37936e-05,1,-1,-2.37936e-05,853.014,0.0101481)">
                <path d="M75.5,97L77.5,90L78,90L78.8,193C79.267,261.667 80.333,381 82,551C83.667,721 84.333,807.333 84,810C83.667,812.667 83.4,814.067 83.2,814.2L82.8,814.8L82.5,815L82.2,815.5L82,816L81.5,816.2C81.167,816.4 78.5,816.667 73.5,817L66,817.5L65,817.8L64,818L64,816L65.5,815.8L67,815.5L65,814.5L66,814C66.667,813.667 67.067,813.4 67.2,813.2C67.4,813.067 67.5,740.333 67.5,595C67.5,449.667 68,338.333 69,261C70,183.667 71,138.167 72,124.5C73,110.833 74.167,101.667 75.5,97Z" style="fill:rgb(202,165,100);stroke:rgb(202,165,100);stroke-width:0.5px;"/>
            </g>
        </g>
    </g>
</svg>
