<?xml version="1.0" encoding="UTF-8" standalone="no"?>
<!DOCTYPE svg PUBLIC "-//W3C//DTD SVG 1.1//EN" "http://www.w3.org/Graphics/SVG/1.1/DTD/svg11.dtd">
<svg width="100%" height="100%" preserveAspectRatio="none" viewBox="0 0 782 579" version="1.1" xmlns="http://www.w3.org/2000/svg" xmlns:xlink="http://www.w3.org/1999/xlink" xml:space="preserve" xmlns:serif="http://www.serif.com/" style="fill-rule:evenodd;clip-rule:evenodd;">
    <g transform="matrix(1,0,0,1,-55.1406,-273.969)">
        <g id="Schriftrolle" transform="matrix(-2.37936e-05,1,-1,-2.37936e-05,870.599,-192.4)">
            <g transform="matrix(1,0,0,1,257,-0.00611496)">
                <path d="M564.59,123.177C560.565,122.828 557.035,122.318 554,121.668C549.333,120.668 532.333,120.002 503,119.668C473.666,119.335 455,118.835 447,118.168C439,117.502 430,117.835 420,119.168C410,120.502 395.333,122.335 376,124.668C356.666,127.002 241.638,130.374 228.305,132.374C221.888,133.336 219.59,276.971 219.23,426.509C218.842,587.688 220.706,755.725 222.089,759.356C224.756,766.356 245.501,767.377 246.368,768.177C247.168,769.043 250.735,768.81 257.068,767.477C263.401,766.143 367.596,764.437 372.263,764.771C376.929,765.104 382.263,766.771 388.263,769.771C394.263,772.771 406.435,770.187 419.102,770.853C431.769,771.52 440.602,772.52 445.602,773.853C450.602,775.187 460.935,776.52 476.602,777.853C492.269,779.187 501.173,771.965 505.84,771.965C510.507,771.965 514.173,771.465 516.84,770.465C519.507,769.465 522.007,769.132 524.34,769.465C526.673,769.799 530.673,771.465 536.34,774.465C542.007,777.465 557.833,770.167 589.5,771.5C621.167,772.833 643.833,774.5 657.5,776.5C671.167,778.5 683,779.5 693,779.5C703,779.5 710.167,778.667 714.5,777C718.833,775.333 722.667,774.667 726,775C729.333,775.333 732.902,769.039 738.569,772.039C744.236,775.039 743.197,769.369 760.53,770.036C777.863,770.703 786.435,772.58 786.435,772.58L786.419,808.58L772.5,810.2C756.167,810.4 745.667,810.5 741,810.5C736.333,810.5 732.6,808.267 729.8,803.8L725.5,797L725.2,796.8L725,796.5L723,795.5L721,795.5L719,796.5L718.8,796.8L718.2,797.2L717.8,797.8C717.6,797.933 716.4,800.067 714.2,804.2C712.067,808.4 703.833,810.5 689.5,810.5C675.167,810.5 659.833,810.167 643.5,809.5C627.167,808.833 612,809 598,810C584,811 570.833,811.733 558.5,812.2C546.167,812.733 539.4,810.167 538.2,804.5L536.2,794.5L536,793L533,793L532.8,796L532.5,799L532,805C531.667,809 531.4,811.5 531.2,812.5L531,814L527.5,813.8C525.167,813.6 522.167,813.333 518.5,813C514.833,812.667 506.5,812.267 493.5,811.8C480.5,811.267 473.6,810.167 472.8,808.5C471.933,806.833 470.733,806 469.2,806C467.733,806 466.5,806.733 465.5,808.2C464.5,809.733 450,810.667 422,811C394,811.333 375.5,811.5 366.5,811.5L329.5,811.5C313.833,811.5 300.667,811.667 290,812C279.333,812.333 285.636,810.6 284.836,806.8L283.536,801L283.236,799.5L283.036,798L280.036,798L279.836,799L279.536,800L279.236,800.2L278.836,800.8L278.536,801L278.036,802C277.703,802.667 276.869,804.5 275.536,807.5C274.203,810.5 245.952,808.927 210.419,808.594L210.402,84.207C241.935,83.674 255.369,88.833 257.036,92.5C258.703,96.167 259.703,98.333 260.036,99L260.536,100L260.836,100.2L261.036,100.5L265.036,100.5L265.236,100.2L265.836,99.8L266.236,99.2L266.536,99L269.236,93.5C271.103,89.833 266.833,88.6 280.5,89.8C294.167,90.933 302.067,94.067 304.2,99.2C306.4,104.4 307.667,107.667 308,109L308.5,111L309.5,113L309.8,114.5L310,116L312,116L312.2,113L312.5,110L314.2,100.2C315.4,93.733 317.667,90.333 321,90C324.333,89.667 330.5,89.167 339.5,88.5C348.5,87.833 354.5,87.167 357.5,86.5C360.5,85.833 372.833,85.667 394.5,86C416.167,86.333 428,86.833 430,87.5C432,88.167 437.4,88.733 446.2,89.2C455.067,89.733 460.333,92.667 462,98C463.667,103.333 464.6,106.333 464.8,107L465,108L466,108.2L467,108.5L467.2,108.8L467.8,109.2L468,109.5L470,110.5L473,110.5L473.5,110.2L474,110L473.8,111L473.5,112L473.2,112.2L473,112.5L473.2,112.8L473.8,113.2L474,113.5L477,114.5L484,114.5C488.667,114.5 492.5,114 495.5,113C498.5,112 505,111.667 515,112C525,112.333 535.833,114.5 547.5,118.5C554.526,120.909 560.222,122.472 564.59,123.177L566.469,123.356L570.303,123.594L571.5,123.5C575.833,122.833 580.667,121.5 586,119.5C591.333,117.5 604.167,116.667 624.5,117C644.833,117.333 661.667,118 675,119C688.333,120 702.5,120.5 717.5,120.5C732.5,120.5 741.167,120.667 743.5,121L747,121.5L749.5,121.8C751.167,121.933 752,122.333 752,123C752,123.667 751.667,123.933 751,123.8C750.333,123.6 749.933,123.4 749.8,123.2L749.5,123L749.2,123.2L749,123.5L747,124.5L740.5,124.5C738.167,124.5 731.833,125 721.5,126L706,127.5L705.8,127.8L705.2,128.2L705,128.5L720.5,128.5C730.833,128.5 735.5,128.667 734.5,129C733.5,129.333 737.5,129.333 746.5,129C755.5,128.667 760.833,128.5 762.5,128.5L769,128.5L771.5,128.8L774,129L774,129.5L772,130.5L766,132.5L687.5,133C635.167,133.333 604.166,117.335 594.5,119.668C584.833,122.002 580.333,123.335 581,123.668C581.666,124.002 578.5,124.002 571.5,123.668L570.303,123.594C568.756,123.686 566.851,123.548 564.59,123.177Z" style="fill:rgb(216,183,119);stroke:rgb(216,183,119);stroke-width:0.5px;"/>
            </g>
            <g transform="matrix(1,0,0,1,257,-0.00611496)">
                <path d="M786.42,130.58L786.435,772.58C786.435,772.58 745.167,783 739.5,780C733.833,777 729.333,775.333 726,775C722.667,774.667 718.833,775.333 714.5,777C710.167,778.667 703,779.5 693,779.5C683,779.5 671.167,778.5 657.5,776.5C643.833,774.5 621.167,772.833 589.5,771.5C557.833,770.167 542.007,777.465 536.34,774.465C530.673,771.465 526.673,769.799 524.34,769.465C522.007,769.132 519.507,769.465 516.84,770.465C514.173,771.465 510.507,771.965 505.84,771.965C501.173,771.965 492.269,779.187 476.602,777.853C460.935,776.52 450.602,775.187 445.602,773.853C440.602,772.52 431.769,771.52 419.102,770.853C406.435,770.187 394.263,772.771 388.263,769.771C382.263,766.771 376.929,765.104 372.263,764.771C367.596,764.437 286.028,764.646 279.695,765.98C273.362,767.313 263.778,777.175 262.978,776.309C262.111,775.509 210.418,772.594 210.418,772.594L210.403,130.594C210.403,130.594 236.792,129.808 250.125,127.808C263.458,125.808 356.666,127.002 376,124.668C395.333,122.335 410,120.502 420,119.168C430,117.835 439,117.502 447,118.168C455,118.835 473.666,119.335 503,119.668C532.333,120.002 549.333,120.668 554,121.668C558.666,122.668 564.5,123.335 571.5,123.668C578.5,124.002 581.666,124.002 581,123.668C580.333,123.335 584.833,122.002 594.5,119.668C604.166,117.335 635.167,133.333 687.5,133L766,132.5L772,130.5L774,129.5L786.42,130.58Z" style="fill:rgb(233,206,146);stroke:rgb(233,206,146);stroke-width:0.5px;"/>
            </g>
            <g transform="matrix(1,0,0,1,257,-0.00611496)">
                <path d="M786.419,84.212L786.42,130.58L771.5,128.8L769,128.5L762.5,128.5C760.833,128.5 755.5,128.667 746.5,129C737.5,129.333 733.5,129.333 734.5,129C735.5,128.667 730.833,128.5 720.5,128.5L705,128.5L705.2,128.2L705.8,127.8L706,127.5L721.5,126C731.833,125 738.167,124.5 740.5,124.5L747,124.5L749,123.5L749.2,123.2L749.8,122.8L750,122.5L747,121.5L743.5,121C741.167,120.667 732.5,120.5 717.5,120.5C702.5,120.5 688.333,120 675,119C661.667,118 644.833,117.333 624.5,117C604.167,116.667 591.333,117.5 586,119.5C580.667,121.5 575.833,122.833 571.5,123.5C567.167,124.167 559.167,122.5 547.5,118.5C535.833,114.5 525,112.333 515,112C505,111.667 498.5,112 495.5,113C492.5,114 488.667,114.5 484,114.5L477,114.5L474,113.5L473.8,113.2L473.2,112.8L473,112.5L473.2,112.2L473.5,112L473.8,111L474.2,109L474.5,108L477.8,97.5C479.933,90.5 485,87.267 493,87.8C501,88.267 508.833,88.833 516.5,89.5C524.167,90.167 537.5,90.333 556.5,90C575.5,89.667 589.167,88.833 597.5,87.5C605.833,86.167 616.833,85.267 630.5,84.8C644.167,84.267 651.267,85.833 651.8,89.5C652.267,93.167 652.667,95.833 653,97.5L653.5,100L654.5,102L654.8,102.2L655.2,102.8L655.8,103.2L656.2,103.8L656.8,104.2L657,104.5L659,104.5L659.2,104.2L659.8,103.8L660.2,103.2L660.5,103L661.5,101L664.5,92.5C666.5,86.833 675.733,84.067 692.2,84.2C708.733,84.4 720,85 726,86C732,87 744.833,87.5 764.5,87.5C784.167,87.5 786.419,84.212 786.419,84.212Z" style="fill:rgb(216,183,119);stroke:rgb(216,183,119);stroke-width:0.5px;"/>
            </g>
            <g transform="matrix(1,0,0,1,257,-0.00611496)">
                <path d="M726,86C731.435,86.906 739.179,99.08 742.096,104.913C742.623,105.967 744.57,115.268 740.471,117.866C736.372,120.464 732.5,120.5 717.5,120.5C702.5,120.5 688.333,120 675,119C661.667,118 644.833,117.333 624.5,117C604.167,116.667 591.333,117.5 586,119.5C580.667,121.5 575.833,122.833 571.5,123.5C567.167,124.167 559.167,122.5 547.5,118.5C535.833,114.5 525,112.333 515,112C505,111.667 498.5,112 495.5,113C492.5,114 488.667,114.5 484,114.5L477,114.5L474,113.5L473.8,113.2L473.2,112.8L473,112.5L473.2,112.2L473.5,112L473.8,111L474.2,109L474.5,108L477.8,97.5C479.933,90.5 485,87.267 493,87.8C501,88.267 508.833,88.833 516.5,89.5C524.167,90.167 537.5,90.333 556.5,90C575.5,89.667 589.167,88.833 597.5,87.5C605.833,86.167 616.833,85.267 630.5,84.8C644.167,84.267 651.267,85.833 651.8,89.5C652.267,93.167 652.667,95.833 653,97.5L653.5,100L654.5,102L654.8,102.2L655.2,102.8L655.8,103.2L656.2,103.8L656.8,104.2L657,104.5L659,104.5L659.2,104.2L659.8,103.8L660.2,103.2L660.5,103L661.5,101L664.5,92.5C666.5,86.833 675.733,84.067 692.2,84.2C708.733,84.4 720,85 726,86Z" style="fill:rgb(209,173,111);stroke:rgb(209,173,111);stroke-width:0.5px;"/>
            </g>
            <g transform="matrix(1,0,0,1,458.44,-2.84419)">
                <path d="M72,38.8L73,39L73,40C73,40.667 74,41.167 76,41.5C78,41.833 79.067,43 79.2,45C79.4,47 80.333,50.5 82,55.5C83.667,60.5 84.733,63.5 85.2,64.5C85.733,65.5 87.833,66.933 91.5,68.8C95.167,70.6 98.333,71.6 101,71.8L105,72L105,80L104,79.8L103,79.5L102.8,79.2L102.5,79L102.2,79.2L102,79.5L100,79.5L98.5,79C97.5,78.667 95,78 91,77L85,75.5L84.8,75.8L84.5,76L82.8,82.2C81.6,86.4 80.833,88.667 80.5,89C80.167,89.333 79.667,89.6 79,89.8L78,90L77.5,90L77.2,91L77,92L75.2,98C74.067,102 73,110.833 72,124.5C71,138.167 70,183.667 69,261C68,338.333 67.5,449.667 67.5,595C67.5,740.333 67.4,813.067 67.2,813.2C67.067,813.4 66.667,813.667 66,814L65,814.5L67,815.5L66,816C65.333,816.333 65,816.6 65,816.8L65,817L64.8,817C64.6,817 64.4,817.167 64.2,817.5L64,818L59,818.2C55.667,818.4 51.167,818.267 45.5,817.8C39.833,817.267 36.6,812.5 35.8,803.5C34.933,794.5 33.333,731.167 31,613.5C28.667,495.833 26.067,376.333 23.2,255C20.4,133.667 21.167,72.833 25.5,72.5L32,72L32,54.5C32,42.833 37.833,37.067 49.5,37.2C61.167,37.4 67.667,37.667 69,38C70.333,38.333 71.333,38.6 72,38.8Z" style="fill:none;"/>
            </g>
        </g>
    </g>
</svg>
