<svg xmlns="http://www.w3.org/2000/svg" xmlns:xlink="http://www.w3.org/1999/xlink" width="2560" height="1600" viewBox="0 0 2560 1600">
  <defs>
    <linearGradient id="a" x1="1297.882" y1="1613.035" x2="1297.882" y2="-4.52" gradientUnits="userSpaceOnUse">
      <stop offset="0" stop-color="#cdf7fa"/>
      <stop offset="0.298" stop-color="#c9f4f8"/>
      <stop offset="0.597" stop-color="#bdecf1"/>
      <stop offset="0.894" stop-color="#a9dde5"/>
      <stop offset="1" stop-color="#a0d7e0"/>
    </linearGradient>
    <linearGradient id="b" data-name="Unbenannter Verlauf 467" x1="1291.897" y1="1606.907" x2="1291.897" y2="957.681" gradientUnits="userSpaceOnUse">
      <stop offset="0" stop-color="#64bab0"/>
      <stop offset="0.2" stop-color="#60b8af"/>
      <stop offset="0.4" stop-color="#54b3ad"/>
      <stop offset="0.601" stop-color="#40abaa"/>
      <stop offset="0.8" stop-color="#24a0a6"/>
      <stop offset="1" stop-color="#0091a0"/>
    </linearGradient>
  </defs>
  <rect x="-25.162" y="-4.52" width="2646.089" height="1617.555" fill="url(#a)"/>
  <rect x="-65.409" y="957.681" width="2714.612" height="649.226" fill="url(#b)"/>
  <g>
    <g>
      <path d="M2689.685,1179.6H2483.819c-66.716-.727-132.563.871-199.392,2.468-14.742.533-29.484-.533-44.225.533-117.935,5.326-240.783,14.911-352.82-13.845-29.484-7.457-60.277,2.169-92.709,7.5-66.829,11.715-136.28,16.467-207.04,11.141-144.47-11.182-280.094-23.43-425.546-4.258-53.07,6.923-102.21,0-151.349-11.183-33.415-7.989-70.76-4.261-107.123.531-88.451,12.25-174.936,22.367-264.369,13.847-76.658-7.456-149.384-5.858-224.058-3.189q-13.478.29-26.922.292c-62.783.054-125.621-4-188.892-3.832H-160.39v-6.95H193c2.38.01,4.589.017,6.871.029,56.571.724,113.091,5.283,169.6,5.242,11.3-.009,22.6-.2,33.907-.643a1435.015,1435.015,0,0,1,228.988,3.726c98.279,9.053,189.677-3.729,286.973-16.509,29.484-3.729,58.967-6.922,85.5-1.065,104.176,23.962,208.351,7.988,314.491,1.6,72.727-4.792,142.5,3.729,214.247,12.781,98.279,12.78,149.711-6.046,242.093-19.889,27.518-4.263,93.037-3.011,118.589,3.38,111.055,29.289,232.92,21.3,350.854,15.444,39.312-2.131,78.623-2.131,117.935-3.729,40.294-1.6,80.588,0,120.769-.364h205.866Z" fill="#fff"/>
      <path d="M-160.39,1179.6H45.477c66.716-.727,132.562.871,199.392,2.468,14.741.533,29.483-.533,44.225.533,117.934,5.326,240.782,14.911,352.82-13.845,29.483-7.457,64.863-6.391,97.295-1.066,66.83,11.715,131.693,25.028,202.454,19.7,144.469-11.182,280.093-23.43,425.546-4.258,53.07,6.923,102.209,0,151.348-11.183,33.415-7.989,70.761-4.261,107.124.531,88.451,12.25,174.936,22.367,264.369,13.847,76.657-7.456,149.383-5.858,224.058-3.189q13.477.29,26.922.292c62.783.054,125.62-4,188.892-3.832h359.763v-6.95H2336.3c-2.381.01-4.589.017-6.872.029-56.571.724-113.091,5.283-169.6,5.242-11.3-.009-22.6-.2-33.907-.643a1435.017,1435.017,0,0,0-228.988,3.726c-98.278,9.053-189.677-3.729-286.973-16.509-29.483-3.729-58.967-6.922-85.5-1.065-104.175,23.962-208.35,7.988-314.491,1.6-72.726-4.792-142.5,3.729-214.247,12.781-98.278,12.78-185.746-4.794-278.128-18.637-27.518-4.263-57-4.263-82.554,2.128-111.055,29.289-232.92,21.3-350.854,15.444-39.311-2.131-78.623-2.131-117.934-3.729-40.294-1.6-80.588,0-120.769-.364H-160.39Z" fill="#fff"/>
      <path d="M-160.39,1227.029H45.477c66.716-.728,132.562.871,199.392,2.468,14.741.533,29.483-.532,44.225.533,117.934,5.326,240.782,14.91,352.82-13.846,29.483-7.456,64.863-6.391,97.295-1.065,66.83,11.715,131.693,25.028,202.454,19.7,144.469-11.182,280.093-23.429,425.546-4.259,53.07,6.924,102.209,0,151.348-11.182,33.415-7.988,70.761-4.261,107.124.53,88.451,12.251,174.936,22.368,264.369,13.848,76.657-7.457,149.383-5.858,224.058-3.189q13.477.288,26.922.292c62.783.054,125.62-4,188.892-3.832h359.763v-6.949H2336.3c-2.381.009-4.589.015-6.872.027-56.571.724-113.091,5.284-169.6,5.243-11.3-.009-22.6-.2-33.907-.644a1435.134,1435.134,0,0,0-228.988,3.726c-98.278,9.054-189.677-3.728-286.973-16.509-29.483-3.728-58.967-6.921-85.5-1.064-104.175,23.962-208.35,7.988-314.491,1.6-72.726-4.793-142.5,3.728-214.247,12.781-98.278,12.78-185.746-4.794-278.128-18.637-27.518-4.263-57-4.263-82.554,2.128-111.055,29.289-232.92,21.3-350.854,15.443-39.311-2.131-78.623-2.131-117.934-3.728-40.294-1.6-80.588,0-120.769-.363H-160.39Z" fill="#fff"/>
    </g>
    <g>
      <path d="M2689.685,1243.628H2483.819c-66.716-.728-132.563.87-199.392,2.468-14.742.532-29.484-.533-44.225.532-117.935,5.327-240.783,14.911-352.82-13.845-29.484-7.456-64.864-6.391-97.3-1.065-66.829,11.715-131.693,25.027-202.453,19.7-144.47-11.183-280.094-23.431-425.546-4.259-53.07,6.924-102.21,0-151.349-11.182-33.415-7.99-70.76-4.261-107.123.53-88.451,12.25-174.936,22.367-264.369,13.848-76.658-7.457-149.384-5.859-224.058-3.189q-13.478.288-26.922.292c-62.783.053-125.621-4-188.892-3.832H-160.39v-6.95H193c2.38.009,4.589.016,6.872.028,56.57.724,113.09,5.284,169.6,5.242,11.3-.008,22.6-.2,33.907-.643a1435.132,1435.132,0,0,1,228.988,3.726c98.279,9.054,189.677-3.728,286.973-16.509,29.484-3.728,58.967-6.921,85.5-1.064,104.176,23.962,208.351,7.988,314.491,1.6,72.727-4.794,142.5,3.728,214.247,12.781,98.279,12.779,185.747-4.794,278.129-18.637,27.517-4.263,57-4.263,82.553,2.128,111.055,29.288,232.92,21.3,350.854,15.443,39.312-2.131,78.623-2.131,117.935-3.728,40.294-1.6,80.588,0,120.769-.364h205.866Z" fill="#fff"/>
      <path d="M-160.39,1243.628H45.477c66.716-.728,132.562.87,199.392,2.468,14.741.532,29.483-.533,44.225.532,117.934,5.327,240.782,14.911,352.82-13.845,29.483-7.456,64.863-6.391,97.295-1.065,66.83,11.715,131.693,25.027,202.454,19.7,144.469-11.183,280.093-23.431,425.546-4.259,53.07,6.924,102.209,0,151.348-11.182,33.415-7.99,70.761-4.261,107.124.53,88.451,12.25,174.936,22.367,264.369,13.848,76.657-7.457,149.383-5.859,224.058-3.189q13.477.288,26.922.292c62.783.053,125.62-4,188.892-3.832h359.763v-6.95H2336.3c-2.381.009-4.589.016-6.872.028-56.571.724-113.091,5.284-169.6,5.242-11.3-.008-22.6-.2-33.907-.643a1435.134,1435.134,0,0,0-228.988,3.726c-98.278,9.054-189.677-3.728-286.973-16.509-29.483-3.728-58.967-6.921-85.5-1.064-104.175,23.962-208.35,7.988-314.491,1.6-72.726-4.794-142.5,3.728-214.247,12.781-98.278,12.779-185.746-4.794-278.128-18.637-27.518-4.263-57-4.263-82.554,2.128-111.055,29.288-232.92,21.3-350.854,15.443-39.311-2.131-78.623-2.131-117.934-3.728-40.294-1.6-80.588,0-120.769-.364H-160.39Z" fill="#fff"/>
      <path d="M-160.39,1291.052H45.477c66.716-.727,132.562.871,199.392,2.468,14.741.533,29.483-.531,44.225.533,117.934,5.327,240.782,14.911,352.82-13.845,29.483-7.457,64.863-6.391,97.295-1.066,66.83,11.716,131.693,25.028,202.454,19.7,144.469-11.183,280.093-23.431,425.546-4.259,53.07,6.924,102.209,0,151.348-11.183,33.415-7.989,70.761-4.261,107.124.531,88.451,12.25,174.936,22.367,264.369,13.847,76.657-7.456,149.383-5.858,224.058-3.189q13.477.289,26.922.292c62.783.054,125.62-4,188.892-3.832h359.763V1284.1H2336.3c-2.381.009-4.589.016-6.872.028-56.571.724-113.091,5.284-169.6,5.242-11.3-.009-22.6-.2-33.907-.643a1435.017,1435.017,0,0,0-228.988,3.726c-98.278,9.054-189.677-3.728-286.973-16.509-29.483-3.729-58.967-6.922-85.5-1.065-104.175,23.963-208.35,7.988-314.491,1.6-72.726-4.792-142.5,3.729-214.247,12.781-98.278,12.78-185.746-4.793-278.128-18.637-27.518-4.263-57-4.263-82.554,2.128-111.055,29.289-232.92,21.3-350.854,15.444-39.311-2.131-78.623-2.131-117.934-3.728-40.294-1.6-80.588,0-120.769-.364H-160.39Z" fill="#fff"/>
    </g>
  </g>
  <g>
    <path d="M1564.618,407.043c-231.264-10.094-399.343-1.229-399.343-1.229s292.255-70.224,324.1-70.224c0,0-68.567-59.971,127.514-82.989,36.258-119.483,368.027-16.293,261.985,89.266,31.843,2.408,84.066,2.46,124,27.055,0,0-170.513,2.459-208.962,14.757,0,0,76.355,55.635-241.274,48.256C1512.472,431,1598.1,408.506,1564.618,407.043Z" fill="#fff"/>
    <path d="M1793.918,383.679c38.091-12.183,205.787-14.71,208.913-14.757-150.131-27.742-405.819-6.375-442.966-2.861-39,3.689,63.627,15.987-6.158,15.987-57.537,0-302.974,17.416-387.349,23.529l-1.083.237s168.079-8.865,399.343,1.229c33.483,1.463-52.146,23.959-11.974,24.892C1870.273,439.314,1793.918,383.679,1793.918,383.679Z" fill="#9fd0de"/>
  </g>
  <g>
    <path d="M515.23,679.6c-161.285-7.04-278.5-.858-278.5-.858s168.217-36.878,190.428-36.878c0,0,.555-52.46,75.792-29.649-2.267-5.431,1.928-36.521,26.084-46.522,31.93-13.22,55.5,6.332,58.217,19.366,9.972-13.577,36.727-26.08,61.641-23.767,60.26,5.6,95.009,24.307,113.69,40.425,31.542,27.213-28.182,32.428-28.182,32.428s58.627,1.716,86.482,18.869c0,0-118.918,1.714-145.732,10.291,0,0,53.251,38.8-168.266,33.655C478.864,696.306,538.581,680.617,515.23,679.6Z" fill="#fff"/>
    <path d="M675.146,663.3c26.565-8.5,143.517-10.259,145.7-10.291-104.7-19.348-283.022-4.447-308.928-2-27.2,2.573,44.373,11.15-4.3,11.15-40.127,0-211.3,12.145-270.14,16.409l-.755.165s117.219-6.182,278.5.858c23.351,1.02-36.366,16.709-8.35,17.36C728.4,702.1,675.146,663.3,675.146,663.3Z" fill="#9fd0de"/>
  </g>
  <g>
    <path d="M2041.018,716.363c-161.285-7.04-278.505-.858-278.505-.858s168.218-36.878,190.428-36.878c0,0,.555-52.46,75.792-29.649-2.266-5.431,1.928-36.521,26.084-46.522,31.93-13.22,55.5,6.332,58.218,19.366,9.971-13.577,36.726-26.08,61.64-23.767,60.261,5.6,95.009,24.307,113.69,40.424,31.543,27.214-28.182,32.429-28.182,32.429s58.628,1.716,86.482,18.869c0,0-118.917,1.714-145.732,10.291,0,0,53.251,38.8-168.266,33.655C2004.651,733.072,2064.369,717.383,2041.018,716.363Z" fill="#fff"/>
    <path d="M2200.933,700.068c26.565-8.5,143.517-10.259,145.7-10.291-104.7-19.348-283.022-4.447-308.928-2-27.2,2.573,44.374,11.15-4.3,11.15-40.127,0-211.3,12.145-270.14,16.409l-.755.165s117.22-6.182,278.505.858c23.351,1.02-36.367,16.709-8.351,17.36C2254.184,738.868,2200.933,700.068,2200.933,700.068Z" fill="#9fd0de"/>
  </g>
</svg>
