<svg xmlns="http://www.w3.org/2000/svg" xmlns:xlink="http://www.w3.org/1999/xlink" width="1920" height="1080" viewBox="0 0 1920 1080">
  <defs>
    <linearGradient id="a" x1="961.023" y1="1128.255" x2="961.023" y2="-66.392" gradientUnits="userSpaceOnUse">
      <stop offset="0" stop-color="#cdf7fa"/>
      <stop offset="0.298" stop-color="#c9f4f8"/>
      <stop offset="0.597" stop-color="#bdecf1"/>
      <stop offset="0.894" stop-color="#a9dde5"/>
      <stop offset="1" stop-color="#a0d7e0"/>
    </linearGradient>
    <linearGradient id="b" data-name="Unbenannter Verlauf 467" x1="956.603" y1="1123.73" x2="956.603" y2="644.243" gradientUnits="userSpaceOnUse">
      <stop offset="0" stop-color="#64bab0"/>
      <stop offset="0.2" stop-color="#60b8af"/>
      <stop offset="0.4" stop-color="#54b3ad"/>
      <stop offset="0.601" stop-color="#40abaa"/>
      <stop offset="0.8" stop-color="#24a0a6"/>
      <stop offset="1" stop-color="#0091a0"/>
    </linearGradient>
  </defs>
  <rect x="-16.114" y="-66.392" width="1954.273" height="1194.648" fill="url(#a)"/>
  <rect x="-45.838" y="644.243" width="2004.881" height="479.487" fill="url(#b)"/>
  <g>
    <g>
      <path d="M2095.154,808.144H1943.111c-49.273-.537-97.9.643-147.261,1.823-10.888.394-21.775-.393-32.663.394-87.1,3.933-177.83,11.012-260.575-10.226-21.776-5.507-44.518,1.6-68.471,5.536-49.357,8.652-100.649,12.162-152.91,8.228-106.7-8.258-206.863-17.3-314.287-3.145-39.195,5.113-75.487,0-111.779-8.259-24.679-5.9-52.26-3.147-79.116.392-65.326,9.047-129.2,16.519-195.25,10.227-56.616-5.507-110.328-4.327-165.479-2.355q-9.954.213-19.883.215c-46.368.04-92.777-2.954-139.506-2.83H-9.773v-5.132H251.221c1.758.007,3.389.012,5.075.021,41.78.535,83.523,3.9,125.26,3.871,8.347-.007,16.695-.148,25.042-.475a1059.839,1059.839,0,0,1,169.12,2.752c72.583,6.686,140.086-2.754,211.944-12.192,21.775-2.754,43.55-5.113,63.148-.787,76.939,17.7,153.877,5.9,232.268,1.179,53.712-3.539,105.246,2.754,158.232,9.439,72.584,9.439,110.569-4.465,178.8-14.688,20.323-3.149,68.713-2.224,87.584,2.5,82.02,21.631,172.024,15.733,259.124,11.406,29.034-1.573,58.067-1.573,87.1-2.754,29.759-1.178,59.518,0,89.194-.268h152.043Z" fill="#fff"/>
      <path d="M-9.773,808.144H142.27c49.273-.537,97.9.643,147.261,1.823,10.887.394,21.775-.393,32.663.394,87.1,3.933,177.83,11.012,260.575-10.226,21.775-5.507,47.9-4.72,71.858-.787C703.984,808,751.889,817.833,804.149,813.9c106.7-8.258,206.864-17.3,314.288-3.145,39.2,5.113,75.487,0,111.779-8.259,24.678-5.9,52.26-3.147,79.116.392,65.325,9.047,129.2,16.519,195.25,10.227,56.615-5.507,110.327-4.327,165.478-2.355q9.954.213,19.883.215c46.369.04,92.778-2.954,139.507-2.83h265.7v-5.132H1834.16c-1.758.007-3.389.012-5.076.021-41.78.535-83.523,3.9-125.26,3.871-8.347-.007-16.694-.148-25.042-.475a1059.827,1059.827,0,0,0-169.119,2.752c-72.584,6.686-140.087-2.754-211.945-12.192-21.775-2.754-43.55-5.113-63.147-.787-76.939,17.7-153.878,5.9-232.268,1.179-53.712-3.539-105.247,2.754-158.233,9.439-72.583,9.439-137.183-3.54-205.411-13.764-20.324-3.148-42.1-3.148-60.971,1.572-82.019,21.631-172.023,15.733-259.124,11.406-29.033-1.573-58.067-1.573-87.1-2.754-29.759-1.178-59.519,0-89.194-.268H-9.773Z" fill="#fff"/>
      <path d="M-9.773,843.17H142.27c49.273-.537,97.9.643,147.261,1.823,10.887.394,21.775-.393,32.663.394,87.1,3.933,177.83,11.011,260.575-10.226,21.775-5.507,47.9-4.721,71.858-.787,49.357,8.652,97.262,18.485,149.522,14.551,106.7-8.259,206.864-17.3,314.288-3.146,39.2,5.114,75.487,0,111.779-8.258,24.678-5.9,52.26-3.147,79.116.391,65.325,9.048,129.2,16.52,195.25,10.228,56.615-5.507,110.327-4.327,165.478-2.355q9.954.212,19.883.215c46.369.04,92.778-2.955,139.507-2.83h265.7v-5.132H1834.16c-1.758.007-3.389.011-5.076.02-41.78.535-83.523,3.9-125.26,3.872-8.347-.007-16.694-.149-25.042-.476a1059.944,1059.944,0,0,0-169.119,2.752c-72.584,6.687-140.087-2.753-211.945-12.192-21.775-2.754-43.55-5.112-63.147-.787-76.939,17.7-153.878,5.9-232.268,1.18-53.712-3.54-105.247,2.754-158.233,9.439-72.583,9.439-137.183-3.54-205.411-13.764-20.324-3.148-42.1-3.148-60.971,1.572-82.019,21.631-172.023,15.733-259.124,11.4-29.033-1.573-58.067-1.573-87.1-2.753-29.759-1.178-59.519,0-89.194-.268H-9.773Z" fill="#fff"/>
    </g>
    <g>
      <path d="M2095.154,855.429H1943.111c-49.273-.537-97.9.643-147.261,1.823-10.888.393-21.775-.393-32.663.393-87.1,3.934-177.83,11.012-260.575-10.225-21.776-5.507-47.906-4.721-71.858-.787-49.357,8.652-97.262,18.484-149.523,14.551-106.7-8.259-206.863-17.3-314.287-3.145-39.195,5.113-75.487,0-111.779-8.259-24.679-5.9-52.26-3.147-79.116.391-65.326,9.047-129.2,16.519-195.25,10.228-56.616-5.507-110.328-4.327-165.479-2.355q-9.954.213-19.883.215c-46.368.039-92.777-2.955-139.506-2.83H-9.773V850.3H251.221c1.758.006,3.389.011,5.075.02,41.781.535,83.523,3.9,125.26,3.872,8.347-.007,16.695-.149,25.042-.476a1059.956,1059.956,0,0,1,169.12,2.752c72.583,6.687,140.086-2.753,211.944-12.192,21.775-2.753,43.55-5.112,63.148-.786,76.939,17.7,153.877,5.9,232.268,1.179,53.712-3.54,105.246,2.754,158.232,9.439,72.584,9.439,137.183-3.54,205.412-13.764,20.324-3.148,42.1-3.148,60.97,1.572,82.02,21.631,172.024,15.732,259.124,11.4,29.034-1.573,58.067-1.573,87.1-2.753,29.759-1.178,59.518,0,89.194-.268h152.043Z" fill="#fff"/>
      <path d="M-9.773,855.429H142.27c49.273-.537,97.9.643,147.261,1.823,10.887.393,21.775-.393,32.663.393,87.1,3.934,177.83,11.012,260.575-10.225,21.775-5.507,47.9-4.721,71.858-.787,49.357,8.652,97.262,18.484,149.522,14.551,106.7-8.259,206.864-17.3,314.288-3.145,39.2,5.113,75.487,0,111.779-8.259,24.678-5.9,52.26-3.147,79.116.391,65.325,9.047,129.2,16.519,195.25,10.228,56.615-5.507,110.327-4.327,165.478-2.355q9.954.213,19.883.215c46.369.039,92.778-2.955,139.507-2.83h265.7V850.3H1834.16c-1.758.006-3.389.011-5.076.02-41.78.535-83.523,3.9-125.26,3.872-8.347-.007-16.694-.149-25.042-.476a1059.944,1059.944,0,0,0-169.119,2.752c-72.584,6.687-140.087-2.753-211.945-12.192-21.775-2.753-43.55-5.112-63.147-.786-76.939,17.7-153.878,5.9-232.268,1.179-53.712-3.54-105.247,2.754-158.233,9.439-72.583,9.439-137.183-3.54-205.411-13.764-20.324-3.148-42.1-3.148-60.971,1.572-82.019,21.631-172.023,15.732-259.124,11.4-29.033-1.573-58.067-1.573-87.1-2.753-29.759-1.178-59.519,0-89.194-.268H-9.773Z" fill="#fff"/>
      <path d="M-9.773,890.454H142.27c49.273-.536,97.9.643,147.261,1.823,10.887.394,21.775-.392,32.663.394,87.1,3.934,177.83,11.012,260.575-10.225,21.775-5.508,47.9-4.721,71.858-.787,49.357,8.652,97.262,18.484,149.522,14.551,106.7-8.259,206.864-17.305,314.288-3.146,39.2,5.114,75.487,0,111.779-8.259,24.678-5.9,52.26-3.146,79.116.392,65.325,9.047,129.2,16.519,195.25,10.227,56.615-5.506,110.327-4.327,165.478-2.355q9.954.213,19.883.216c46.369.039,92.778-2.955,139.507-2.831h265.7v-5.132H1834.16c-1.758.007-3.389.012-5.076.021-41.78.535-83.523,3.9-125.26,3.872-8.347-.007-16.694-.149-25.042-.476a1059.827,1059.827,0,0,0-169.119,2.752c-72.584,6.687-140.087-2.753-211.945-12.192-21.775-2.754-43.55-5.112-63.147-.787-76.939,17.7-153.878,5.9-232.268,1.18-53.712-3.54-105.247,2.754-158.233,9.439-72.583,9.438-137.183-3.54-205.411-13.765-20.324-3.148-42.1-3.148-60.971,1.572-82.019,21.631-172.023,15.733-259.124,11.406-29.033-1.573-58.067-1.573-87.1-2.753-29.759-1.179-59.519,0-89.194-.269H-9.773Z" fill="#fff"/>
    </g>
  </g>
  <g>
    <path d="M1068.149,294.76c-170.8-7.456-294.935-.908-294.935-.908s215.845-51.864,239.365-51.864c0,0-50.64-44.292,94.176-61.292,26.779-88.244,271.807-12.033,193.489,65.928,23.518,1.778,62.087,1.817,91.584,19.981,0,0-125.933,1.816-154.329,10.9,0,0,56.391,41.089-178.193,35.64C1029.636,312.455,1092.877,295.84,1068.149,294.76Z" fill="#fff"/>
    <path d="M1237.5,277.5c28.132-9,151.984-10.864,154.293-10.9-110.88-20.489-299.718-4.708-327.154-2.113-28.8,2.725,46.992,11.807-4.548,11.807-42.494,0-223.762,12.863-286.077,17.378l-.8.175s124.134-6.548,294.935.908c24.728,1.08-38.513,17.695-8.843,18.384C1293.89,318.593,1237.5,277.5,1237.5,277.5Z" fill="#9fd0de"/>
  </g>
  <g>
    <path d="M362.569,402.1c-119.118-5.2-205.69-.633-205.69-.633s124.237-27.237,140.64-27.237c0,0,.41-38.744,55.977-21.9-1.674-4.011,1.424-26.973,19.265-34.359,23.581-9.763,40.988,4.677,43,14.3,7.364-10.027,27.125-19.262,45.524-17.553,44.506,4.132,70.17,17.952,83.967,29.855,23.295,20.1-20.814,23.951-20.814,23.951s43.3,1.267,63.871,13.935c0,0-87.827,1.266-107.63,7.6,0,0,39.328,28.656-124.273,24.855C335.71,414.438,379.815,402.85,362.569,402.1Z" fill="#fff"/>
    <path d="M480.675,390.063c19.619-6.276,105.994-7.577,107.6-7.6-77.328-14.289-209.026-3.284-228.159-1.474-20.087,1.9,32.772,8.235-3.173,8.235-29.635,0-156.052,8.97-199.512,12.119l-.557.122s86.572-4.566,205.69.633c17.246.753-26.859,12.341-6.167,12.821C520,418.719,480.675,390.063,480.675,390.063Z" fill="#9fd0de"/>
  </g>
  <g>
    <path d="M1575.228,437.421c-119.117-5.2-205.689-.633-205.689-.633s124.237-27.237,140.64-27.237c0,0,.41-38.744,55.977-21.9-1.674-4.011,1.424-26.973,19.264-34.359,23.582-9.764,40.988,4.676,43,14.3,7.364-10.028,27.124-19.262,45.524-17.553,44.506,4.132,70.169,17.951,83.966,29.855,23.3,20.1-20.814,23.951-20.814,23.951s43.3,1.267,63.872,13.935c0,0-87.827,1.266-107.631,7.6,0,0,39.329,28.656-124.273,24.856C1548.37,449.761,1592.474,438.174,1575.228,437.421Z" fill="#fff"/>
    <path d="M1693.334,425.386c19.62-6.275,105.995-7.576,107.605-7.6-77.327-14.29-209.025-3.284-228.159-1.474-20.087,1.9,32.773,8.235-3.172,8.235-29.635,0-156.053,8.97-199.512,12.118l-.557.123s86.572-4.567,205.689.633c17.246.753-26.858,12.34-6.167,12.821C1732.663,454.042,1693.334,425.386,1693.334,425.386Z" fill="#9fd0de"/>
  </g>
</svg>
