<svg xmlns="http://www.w3.org/2000/svg" xmlns:xlink="http://www.w3.org/1999/xlink" width="1920" height="1080" viewBox="0 0 1920 1080">
  <defs>
    <linearGradient id="a" x1="961.023" y1="1128.255" x2="961.023" y2="-66.392" gradientUnits="userSpaceOnUse">
      <stop offset="0" stop-color="#cdf7fa"/>
      <stop offset="0.298" stop-color="#c9f4f8"/>
      <stop offset="0.597" stop-color="#bdecf1"/>
      <stop offset="0.894" stop-color="#a9dde5"/>
      <stop offset="1" stop-color="#a0d7e0"/>
    </linearGradient>
    <linearGradient id="b" data-name="Unbenannter Verlauf 467" x1="956.603" y1="1123.73" x2="956.603" y2="644.243" gradientUnits="userSpaceOnUse">
      <stop offset="0" stop-color="#64bab0"/>
      <stop offset="0.2" stop-color="#60b8af"/>
      <stop offset="0.4" stop-color="#54b3ad"/>
      <stop offset="0.601" stop-color="#40abaa"/>
      <stop offset="0.8" stop-color="#24a0a6"/>
      <stop offset="1" stop-color="#0091a0"/>
    </linearGradient>
  </defs>
  <rect x="-16.114" y="-66.392" width="1954.273" height="1194.648" fill="url(#a)"/>
  <rect x="-45.838" y="644.243" width="2004.881" height="479.487" fill="url(#b)"/>
  <g>
    <g>
      <path d="M2095.154,731.013H1943.111c-49.273-.536-97.9.644-147.261,1.824-10.888.393-21.775-.394-32.663.393-87.1,3.933-177.83,11.012-260.575-10.225-21.776-5.508-44.518,1.6-68.471,5.535-49.357,8.652-100.649,12.162-152.91,8.228-106.7-8.258-206.863-17.3-314.287-3.144-39.195,5.113-75.487,0-111.779-8.259-24.679-5.9-52.26-3.147-79.116.392-65.326,9.047-129.2,16.519-195.25,10.226-56.616-5.506-110.328-4.326-165.479-2.355q-9.954.214-19.883.216c-46.368.039-92.777-2.955-139.506-2.831H-9.773v-5.132H251.221c1.758.007,3.389.012,5.075.021,41.78.535,83.523,3.9,125.26,3.872,8.347-.007,16.695-.149,25.042-.476a1059.956,1059.956,0,0,1,169.12,2.752C648.3,738.737,715.8,729.3,787.662,719.858c21.775-2.754,43.55-5.112,63.148-.787,76.939,17.7,153.877,5.9,232.268,1.18,53.712-3.54,105.246,2.754,158.232,9.439,72.584,9.439,110.569-4.465,178.8-14.689,20.323-3.148,68.713-2.224,87.584,2.5,82.02,21.632,172.024,15.733,259.124,11.406,29.034-1.573,58.067-1.573,87.1-2.754,29.759-1.178,59.518,0,89.194-.268h152.043Z" fill="#fff"/>
      <path d="M-9.773,731.013H142.27c49.273-.536,97.9.644,147.261,1.824,10.887.393,21.775-.394,32.663.393,87.1,3.933,177.83,11.012,260.575-10.225,21.775-5.508,47.9-4.72,71.858-.787,49.357,8.652,97.262,18.484,149.522,14.55,106.7-8.258,206.864-17.3,314.288-3.144,39.2,5.113,75.487,0,111.779-8.259,24.678-5.9,52.26-3.147,79.116.392,65.325,9.047,129.2,16.519,195.25,10.226,56.615-5.506,110.327-4.326,165.478-2.355q9.954.214,19.883.216c46.369.039,92.778-2.955,139.507-2.831h265.7v-5.132H1834.16c-1.758.007-3.389.012-5.076.021-41.78.535-83.523,3.9-125.26,3.872-8.347-.007-16.694-.149-25.042-.476a1059.944,1059.944,0,0,0-169.119,2.752c-72.584,6.687-140.087-2.754-211.945-12.192-21.775-2.754-43.55-5.112-63.147-.787-76.939,17.7-153.878,5.9-232.268,1.18-53.712-3.54-105.247,2.754-158.233,9.439-72.583,9.439-137.183-3.541-205.411-13.764-20.324-3.149-42.1-3.149-60.971,1.571C495.669,739.129,405.665,733.23,318.564,728.9c-29.033-1.573-58.067-1.573-87.1-2.754-29.759-1.178-59.519,0-89.194-.268H-9.773Z" fill="#fff"/>
      <path d="M-9.773,766.039H142.27c49.273-.537,97.9.644,147.261,1.823,10.887.394,21.775-.393,32.663.394,87.1,3.933,177.83,11.012,260.575-10.226,21.775-5.507,47.9-4.72,71.858-.786,49.357,8.651,97.262,18.484,149.522,14.55,106.7-8.258,206.864-17.3,314.288-3.145,39.2,5.114,75.487,0,111.779-8.259,24.678-5.9,52.26-3.146,79.116.392,65.325,9.047,129.2,16.519,195.25,10.227,56.615-5.507,110.327-4.326,165.478-2.355q9.954.213,19.883.216c46.369.039,92.778-2.956,139.507-2.831h265.7v-5.132H1834.16c-1.758.007-3.389.012-5.076.02-41.78.535-83.523,3.9-125.26,3.873-8.347-.007-16.694-.15-25.042-.476a1059.942,1059.942,0,0,0-169.119,2.751c-72.584,6.688-140.087-2.753-211.945-12.192-21.775-2.753-43.55-5.111-63.147-.786-76.939,17.7-153.878,5.9-232.268,1.18-53.712-3.541-105.247,2.753-158.233,9.439-72.583,9.439-137.183-3.541-205.411-13.765-20.324-3.148-42.1-3.148-60.971,1.572-82.019,21.632-172.023,15.733-259.124,11.406-29.033-1.574-58.067-1.574-87.1-2.754-29.759-1.178-59.519,0-89.194-.268H-9.773Z" fill="#fff"/>
    </g>
    <g>
      <path d="M2095.154,778.3H1943.111c-49.273-.538-97.9.642-147.261,1.823-10.888.392-21.775-.394-32.663.392-87.1,3.934-177.83,11.013-260.575-10.225-21.776-5.507-47.906-4.72-71.858-.786-49.357,8.652-97.262,18.483-149.523,14.55-106.7-8.259-206.863-17.3-314.287-3.145-39.195,5.114-75.487,0-111.779-8.258-24.679-5.9-52.26-3.147-79.116.391-65.326,9.047-129.2,16.519-195.25,10.227-56.616-5.507-110.328-4.327-165.479-2.355q-9.954.213-19.883.216c-46.368.039-92.777-2.956-139.506-2.83H-9.773v-5.133H251.221c1.758.006,3.389.012,5.075.02,41.781.535,83.523,3.9,125.26,3.872,8.347-.006,16.695-.149,25.042-.475a1059.955,1059.955,0,0,1,169.12,2.751c72.583,6.688,140.086-2.753,211.944-12.192,21.775-2.753,43.55-5.111,63.148-.786,76.939,17.7,153.877,5.9,232.268,1.18,53.712-3.541,105.246,2.753,158.232,9.439,72.584,9.438,137.183-3.541,205.412-13.764,20.324-3.149,42.1-3.149,60.97,1.571,82.02,21.631,172.024,15.732,259.124,11.406,29.034-1.574,58.067-1.574,87.1-2.754,29.759-1.178,59.518,0,89.194-.268h152.043Z" fill="#fff"/>
      <path d="M-9.773,778.3H142.27c49.273-.538,97.9.642,147.261,1.823,10.887.392,21.775-.394,32.663.392,87.1,3.934,177.83,11.013,260.575-10.225,21.775-5.507,47.9-4.72,71.858-.786,49.357,8.652,97.262,18.483,149.522,14.55,106.7-8.259,206.864-17.3,314.288-3.145,39.2,5.114,75.487,0,111.779-8.258,24.678-5.9,52.26-3.147,79.116.391,65.325,9.047,129.2,16.519,195.25,10.227,56.615-5.507,110.327-4.327,165.478-2.355q9.954.213,19.883.216c46.369.039,92.778-2.956,139.507-2.83h265.7v-5.133H1834.16c-1.758.006-3.389.012-5.076.02-41.78.535-83.523,3.9-125.26,3.872-8.347-.006-16.694-.149-25.042-.475a1059.942,1059.942,0,0,0-169.119,2.751c-72.584,6.688-140.087-2.753-211.945-12.192-21.775-2.753-43.55-5.111-63.147-.786-76.939,17.7-153.878,5.9-232.268,1.18-53.712-3.541-105.247,2.753-158.233,9.439-72.583,9.438-137.183-3.541-205.411-13.764-20.324-3.149-42.1-3.149-60.971,1.571-82.019,21.631-172.023,15.732-259.124,11.406-29.033-1.574-58.067-1.574-87.1-2.754-29.759-1.178-59.519,0-89.194-.268H-9.773Z" fill="#fff"/>
      <path d="M-9.773,813.324H142.27c49.273-.537,97.9.643,147.261,1.823,10.887.393,21.775-.393,32.663.393,87.1,3.934,177.83,11.013,260.575-10.225,21.775-5.507,47.9-4.72,71.858-.787,49.357,8.653,97.262,18.484,149.522,14.551,106.7-8.259,206.864-17.3,314.288-3.145,39.2,5.114,75.487,0,111.779-8.259,24.678-5.9,52.26-3.147,79.116.392,65.325,9.047,129.2,16.519,195.25,10.227,56.615-5.507,110.327-4.327,165.478-2.356q9.954.215,19.883.216c46.369.04,92.778-2.955,139.507-2.83h265.7v-5.133H1834.16c-1.758.007-3.389.013-5.076.021-41.78.535-83.523,3.9-125.26,3.872-8.347-.007-16.694-.149-25.042-.475a1059.942,1059.942,0,0,0-169.119,2.751c-72.584,6.688-140.087-2.753-211.945-12.192-21.775-2.754-43.55-5.112-63.147-.787-76.939,17.7-153.878,5.9-232.268,1.18-53.712-3.54-105.247,2.754-158.233,9.439-72.583,9.439-137.183-3.54-205.411-13.764-20.324-3.149-42.1-3.149-60.971,1.572-82.019,21.631-172.023,15.732-259.124,11.406-29.033-1.574-58.067-1.574-87.1-2.754-29.759-1.179-59.519,0-89.194-.269H-9.773Z" fill="#fff"/>
    </g>
  </g>
  <g>
    <path d="M1068.149,294.76c-170.8-7.456-294.935-.908-294.935-.908s215.845-51.864,239.365-51.864c0,0-50.64-44.292,94.176-61.292,26.779-88.244,271.807-12.033,193.489,65.928,23.518,1.778,62.087,1.817,91.584,19.981,0,0-125.933,1.816-154.329,10.9,0,0,56.391,41.089-178.193,35.64C1029.636,312.455,1092.877,295.84,1068.149,294.76Z" fill="#fff"/>
    <path d="M1237.5,277.5c28.132-9,151.984-10.864,154.293-10.9-110.88-20.489-299.718-4.708-327.154-2.113-28.8,2.725,46.992,11.807-4.548,11.807-42.494,0-223.762,12.863-286.077,17.378l-.8.175s124.134-6.548,294.935.908c24.728,1.08-38.513,17.695-8.843,18.384C1293.89,318.593,1237.5,277.5,1237.5,277.5Z" fill="#9fd0de"/>
  </g>
  <g>
    <path d="M362.569,402.1c-119.118-5.2-205.69-.633-205.69-.633s124.237-27.237,140.64-27.237c0,0,.41-38.744,55.977-21.9-1.674-4.011,1.424-26.973,19.265-34.359,23.581-9.763,40.988,4.677,43,14.3,7.364-10.027,27.125-19.262,45.524-17.553,44.506,4.132,70.17,17.952,83.967,29.855,23.295,20.1-20.814,23.951-20.814,23.951s43.3,1.267,63.871,13.935c0,0-87.827,1.266-107.63,7.6,0,0,39.328,28.656-124.273,24.855C335.71,414.438,379.815,402.85,362.569,402.1Z" fill="#fff"/>
    <path d="M480.675,390.063c19.619-6.276,105.994-7.577,107.6-7.6-77.328-14.289-209.026-3.284-228.159-1.474-20.087,1.9,32.772,8.235-3.173,8.235-29.635,0-156.052,8.97-199.512,12.119l-.557.122s86.572-4.566,205.69.633c17.246.753-26.859,12.341-6.167,12.821C520,418.719,480.675,390.063,480.675,390.063Z" fill="#9fd0de"/>
  </g>
  <g>
    <path d="M1575.228,437.421c-119.117-5.2-205.689-.633-205.689-.633s124.237-27.237,140.64-27.237c0,0,.41-38.744,55.977-21.9-1.674-4.011,1.424-26.973,19.264-34.359,23.582-9.764,40.988,4.676,43,14.3,7.364-10.028,27.124-19.262,45.524-17.553,44.506,4.132,70.169,17.951,83.966,29.855,23.3,20.1-20.814,23.951-20.814,23.951s43.3,1.267,63.872,13.935c0,0-87.827,1.266-107.631,7.6,0,0,39.329,28.656-124.273,24.856C1548.37,449.761,1592.474,438.174,1575.228,437.421Z" fill="#fff"/>
    <path d="M1693.334,425.386c19.62-6.275,105.995-7.576,107.605-7.6-77.327-14.29-209.025-3.284-228.159-1.474-20.087,1.9,32.773,8.235-3.172,8.235-29.635,0-156.053,8.97-199.512,12.118l-.557.123s86.572-4.567,205.689.633c17.246.753-26.858,12.34-6.167,12.821C1732.663,454.042,1693.334,425.386,1693.334,425.386Z" fill="#9fd0de"/>
  </g>
  <g>
    <rect x="-51.878" y="877.062" width="2020.509" height="213.985" fill="#a87c4f"/>
    <path d="M1986.9,992.307c-30.778-2.234-48.635-6.849-79.479-9.28-22.278-1.756-51.981-4.354-95.133,5.328-102.9,23.086-113.81-6.309-222.942,1.387s-182.407,7.7-229.178-7.7-166.817,10.261-260.359,2.565S959.5,988.459,864.4,980.764s-165.258,0-229.178-2.565-218.265,17.955-265.036,1.282-93.542,8.978-183.966-1.282-208.91,7.7-213.588,8.978l-57.684,5.13c201.116,14.108,208.911,16.673,313.366,10.26s43.653-7.7,221.383-2.565,204.233,7.7,297.775,5.13,59.244,20.521,171.494,8.978,166.817-11.543,260.359-12.825,160.061,21.341,242.69,12.363,171.493,9.591,199.556-7.082,141.872,7.823,191.761,9.106,70.689-11.958,104.987-13.241Z" fill="#9b6f48"/>
    <path d="M-61.31,901.291c30.777-1.058,35.25-1.794,66.094-2.945,22.279-.831,65.366-3.51,108.518,1.074,102.9,10.93,113.809-2.987,222.942.656s182.407,3.644,229.178-3.643,166.816,4.858,260.358,1.214,140.313,1.822,235.415-1.821,165.257,0,229.178-1.215,218.264,8.5,265.035.607,93.542,4.251,183.966-.607,158.946,3.043,163.623,3.65l107.649,3.03c-43.838,1.456-79.178,5.212-107.649,6.161-102.143,3.406-124.03,1.071-205.716-1.3-104.456-3.036-43.653-3.644-221.383-1.215s-204.234,3.644-297.776,2.429-59.243,9.717-171.494,4.251-166.816-5.465-260.358-6.072-160.061,10.1-242.69,5.854-171.494,4.541-199.556-3.354-141.873,3.7-191.762,4.312-72.838-4.294-107.137-4.9Z" fill="#9b6f48"/>
    <path d="M66.691,984.55c8.835-2.266,51.06-2.576,78.778-1.288s42.307,2.576,42.307,9.016-39.389,9.017-61.272,3.865C91.116,996.955,57.857,986.816,66.691,984.55Z" fill="#936644"/>
    <path d="M107.832,987.989s27.85-.225,42.937.559,23.021,1.4,22.947,3.575-21.565,2.545-33.429.531S108.434,993.657,107.832,987.989Z" fill="#8c5f41"/>
    <path d="M720.948,984.113c16.374-1.188,61.164-1.188,77.538,0s52.977,6.34,66.944,6.736,52.013-.793,66.461-1.189,65.017-5.15,70.315,1.189-40.937,12.282-53.458,12.678-52.977,6.736-66.944,6.736-40.455-.4-49.605-3.17-50.569-10.3-63.091-9.9-61.164,6.339-83.318,2.773-46.715-3.962-56.348-9.112S704.573,985.3,720.948,984.113Z" fill="#936644"/>
    <path d="M893.851,996.668c-1.167.062-32.861-1.294-36.172,2.3s8.965,6.743,23.712,5.2,33.123-1,37.991-4.678S893.851,996.668,893.851,996.668Z" fill="#8c5f41"/>
    <path d="M1441.24,1019.719s47.55,22.764,90.424,13.659,117.707-9.865,135.636-9.865,77.951,8.347,120.825,15.935,63.128,13.366,122.7,11.664l4.426,23.83s-88.723,10.68-105.873,6.127-21.411-9.533-43.234-16.68c-30.449-9.973-69.225-12.8-95.728-19.629s-79.511.759-112.251,9.105-67.818-4.552-142.651-14.417-109.133,12.9-174.612,19.729-167.6-6.07-206.572-9.864-67.039,6.07-129.4,6.07-116.148-.759-143.431,3.035-88.086-3.794-156.683,0-97.44-11.382-134.077-14.417-107.573,7.588-173.832,2.276-74.373-5.839-153.565,3.036C42.231,1060.644,4.1,1019.793,4.1,1019.793c65.479-3.794,89.351-3.657,128.326,7.725s42.253,17.393,113.81,5.1c26.5-4.553,72.5-4.553,123.164-.759s111.354,4.15,122.384,2.487c36.637-5.522,58.464-14.628,83.408-7.8s63.921,17.453,97.44,16.694,184.745-19.518,265.036-12.689,140.313,14.418,196.438,8.347,70.157-3.794,83.408-11.382,56.9-7.588,56.9-7.588Z" fill="#9b6f48"/>
    <path d="M474.571,942.261s-47.551,16.082-90.424,9.649-117.707-6.969-135.636-6.969-77.952,5.9-120.825,11.257-95.881-4.824-153.565-7.5l6.236,18.762s57.684.536,74.833-2.681,58.464,2.145,90.424,3.753,73.275-3.753,99.779-8.577,79.51.536,112.25,6.432S425.461,963.167,500.3,956.2s109.132,9.113,174.612,13.938,167.6-4.289,206.572-6.969,67.038,4.289,129.4,4.289,116.149-.536,143.432,2.144,88.085-2.68,156.683,0,97.439-8.041,134.077-10.185,107.573,5.36,173.832,1.608,74.054-1.608,153.565,2.144,142.445,2.5,142.445,2.5v-16c-65.479-2.68-92.556-9.935-131.532-1.895s-42.253,12.288-113.81,3.6c-26.5-3.216-72.495-3.216-123.163-.536s-111.355,2.931-122.384,1.757c-36.638-3.9-58.464-10.334-83.409-5.51s-63.92,12.33-97.439,11.794-184.746-13.789-265.036-8.964S837.826,960.1,781.7,955.811s-70.156-2.68-83.408-8.041-56.905-5.36-56.905-5.36Z" fill="#9b6f48"/>
    <path d="M99.649,1029.033c-32.677-2.506-56.829-3.759-60.381-.626s18.47,10.652,39.07,12.531,52.568,5.013,53.988.627S99.649,1029.033,99.649,1029.033Z" fill="#936644"/>
    <path d="M589.364,1039.421c-1.922-.684-14.1-10.951-33.317-8.9s-40.364,6.16-37.8,9.582,22.424,10.266,35.879,11.635,36.521.684,37.161-4.791S589.364,1039.421,589.364,1039.421Z" fill="#936644"/>
    <path d="M738.9,1044.76s98.219-8.347,117.707-8.347,71.715-2.277,84.967.759,27.283,0,27.283,3.035-24.944,9.864-35.078,9.864-90.424-4.552-99.778-3.035-64.7,5.312-77.952,5.312-26.5,0-26.5-2.277S738.9,1044.76,738.9,1044.76Z" fill="#936644"/>
    <path d="M402.143,1058.418c20.268-6.07,42.094-9.1,58.464-6.829s53.787,12.141,53.787,12.141-50.669,7.588-53.007,7.588-70.157-.759-70.157-.759Z" fill="#a87c4f"/>
    <path d="M6.487,922.091c3.829,0,59.808-7.66,105-3.064s108-3.83,133.276-3.064,82.724,10.723,110.3,6.894,79.66-12.256,109.532-6.894,59.745,10.723,78.128,9.957,71.234-11.489,91.915-11.489,60.51-1.532,80.425-.766,75.064,10.724,106.468,6.894,93.447,3.83,93.447,3.83-25.277,9.191-71.234,9.957-98.809-6.894-121.021-7.66-20.681,7.66-61.277,9.192-49.787-3.83-85.021-3.064-43.66,0-68.936,1.532-61.532,2.808-96.766.511c0,0-55.66-3.575-130.724-3.575s-69.7,8.426-101.872,6.128-74.3-2.3-98.043-6.128-49.851,5.107-73.595,2.043S6.487,922.091,6.487,922.091Z" fill="#9b6f48"/>
    <path d="M651.423,882.468c3.83,0,59.808-4.711,105-1.884s108-2.356,133.276-1.884,82.724,6.594,110.3,4.239,79.66-7.537,109.532-4.239,59.745,6.594,78.128,6.123,71.234-7.066,91.915-7.066,60.51-.942,80.425-.471,75.064,6.6,106.468,4.24,93.447,2.355,93.447,2.355-25.276,5.653-71.234,6.124-98.808-4.24-121.021-4.711-20.681,4.711-61.277,5.653-49.787-2.355-85.021-1.884-43.66,0-68.936.942-61.532,1.727-96.766.314c0,0-55.66-2.2-130.724-2.2s-69.7,5.181-101.872,3.768-74.3-1.413-98.042-3.768-49.852,3.14-73.6,1.256S651.423,882.468,651.423,882.468Z" fill="#9b6f48"/>
    <path d="M1186.059,1040.55s44.63-2.418,59.611-11.379,63.645-9.088,72.418-9.253,45.428-2.434,45.491.721-7.835,7.249-25.3,11.522-58.829,10.576-69.15,13.137-46.85,11.139-60.439,9.817-55.124-3.7-61.52-4.365-5.676-4.627-1.72-6.279S1186.059,1040.55,1186.059,1040.55Z" fill="#936644"/>
    <path d="M1680.551,1030.342s34.3,3.036,52.228,6.83,45.212,5.311,45.212,8.347-20.267,9.864-33.519,6.829-54.566-10.624-60.8-12.9-28.063-3.035-28.063-6.829S1680.551,1030.342,1680.551,1030.342Z" fill="#936644"/>
    <path d="M287.53,1018.894c1.169-.249,61.972-14.194,94.711-11.206s72.885,12.7,72.885,12.7Z" fill="#9b6f48"/>
    <path d="M1290.793,1020.478s-21.047,7.588-28.842,11.382.779,5.312,4.677,6.829,41.314-6.07,53.007-10.623,15.59-8.347,15.59-8.347Z" fill="#8c5f41"/>
    <path d="M132.807,1080.9c1.169-.379,61.971-21.626,94.711-17.073s72.885,19.35,72.885,19.35Z" fill="#9b6f48"/>
    <path d="M12.3,892.42c1.169-.217,61.972-12.4,94.711-9.792s72.885,11.1,72.885,11.1Z" fill="#9b6f48"/>
    <path d="M336.024,1086.632c1.871-.562,99.19-32.018,151.592-25.277S604.274,1090,604.274,1090Z" fill="#9b6f48"/>
    <path d="M900.534,1094.291c1.872-.561,99.19-32.017,151.593-25.277s116.657,28.648,116.657,28.648Z" fill="#9b6f48"/>
    <path d="M1249.045,1089.7c1.871-.562,99.19-32.018,151.592-25.278s116.658,28.648,116.658,28.648Z" fill="#9b6f48"/>
    <path d="M602.912,925.835s36.426-6.468,60.255-6.808,44.6-2.043,48-.341-13.617,6.809-37.787,9.873-35.744,5.447-43.574,1.7S610.061,931.963,602.912,925.835Z" fill="#936644"/>
    <path d="M198.487,923.793c20.085-1.7,32.34-3.745,43.234-2.724s24.851,3.064,26.893,5.447-24.851-.34-35.064,1.7-37.787,6.468-57.531,5.447-68.426-3.064-70.128-5.106S178.4,925.5,198.487,923.793Z" fill="#936644"/>
    <path d="M980.614,914.942s-53.106,2.553-48,11.744S960.7,936.9,1009.721,932.3s66.893-17.361,66.893-17.361Z" fill="#9b6f48"/>
    <path d="M988.2,914.6s-42.274,2.033-38.21,9.349,22.357,8.13,61.379,4.472,53.249-13.821,53.249-13.821Z" fill="#936644"/>
    <path d="M1003.067,915.282s-20.311.977-18.358,4.492,10.741,3.906,29.489,2.148,25.584-6.64,25.584-6.64Z" fill="#8c5f41"/>
    <path d="M569.364,893.5s57.433-2.018,51.91-9.282-30.372-8.072-83.387-4.44S465.545,893.5,465.545,893.5Z" fill="#9b6f48"/>
    <path d="M553.96,892.472s42.274-1.019,38.21-4.687-22.357-4.076-61.379-2.242-53.249,6.929-53.249,6.929Z" fill="#936644"/>
    <path d="M1111.338,919.96s-31.66-2.318-31.66,2.7,34.213,8.115,52.085,8.888,63.83,1.932,83.745-2.319,52.085-11.979,68.936-10.047,28.6,2.319,56.681,4.251,51.064,5.023,67.4.773S1431,914.937,1431,914.937s-258.383.386-268.085,0S1134.316,921.506,1111.338,919.96Z" fill="#9b6f48"/>
    <path d="M1559.678,881.738s-31.659-1.952-31.659,2.278,34.212,6.834,52.085,7.485,63.829,1.627,83.744-1.953,52.085-10.087,68.936-8.46,28.6,1.952,56.681,3.579,51.064,4.231,67.4.651,22.468-7.81,22.468-7.81-258.383.325-268.085,0S1582.657,883.04,1559.678,881.738Z" fill="#9b6f48"/>
    <path d="M1242.572,940.474s8.17-14.809,49.532-9.7,46.468,10.212,46.468,10.212Z" fill="#9b6f48"/>
    <rect x="-23.471" y="1051.112" width="35.404" height="24.17" fill="#9b6f48"/>
    <rect x="-25.854" y="983.027" width="35.404" height="19.404" fill="#9b6f48"/>
    <rect x="-26.875" y="949.665" width="35.404" height="16.34" fill="#9b6f48"/>
    <rect x="-28.918" y="922.091" width="35.404" height="11.234" fill="#9b6f48"/>
    <rect x="-30.279" y="898.261" width="35.404" height="9.191" fill="#9b6f48"/>
    <rect x="1909.806" y="1051.112" width="35.404" height="24.17" fill="#9b6f48"/>
    <rect x="1907.423" y="983.027" width="35.404" height="19.404" fill="#9b6f48"/>
    <rect x="1906.401" y="949.665" width="35.404" height="16.34" fill="#9b6f48"/>
    <rect x="1912.359" y="922.091" width="35.404" height="11.234" fill="#9b6f48"/>
    <rect x="1902.997" y="898.261" width="35.404" height="9.191" fill="#9b6f48"/>
    <path d="M90.231,1084.133s-40.851-30.638-78.3-33.021-3.4,22.468-3.4,22.468l3.4,1.7S70.827,1089.24,90.231,1084.133Z" fill="#9b6f48"/>
    <path d="M1826.738,939.931c8.358-5.9,9.715-9.006,9.141-10.767-2.432-7.464-40.659,5.752-92.919,4.015-37.743-1.255-41.21-8.926-84.815-10.322-28.374-.909-28.2,2.3-64.325,3.368-71.08,2.107-91.6-9.719-140.94-.353a248.891,248.891,0,0,0-47.423,14.012" fill="#9b6f48"/>
    <path d="M1440.7,940.167s14.809-11.437,50.554-8.169,59.234,4.493,82.723,2.859,58.213-5.31,76.6-3.676,43.4,9.8,43.4,9.8Z" fill="#936644"/>
    <path d="M1829.3,927.2s54.673-3.5,68.426-4.6c4.255-.34,16.68-.34,16.68-.34l1.532,10.893-11.574.171s-35.745,8.681-58.213,7.659-33.7,0-33.7,0Z" fill="#9b6f48"/>
    <path d="M1331.423,982.686c-21.261-2.762-22.27,2.2-55.83,1.7-12.392-.183-19.916-.972-20.766,1.7-.994,3.127,7.656,9.38,16,12.6,9.105,3.509,14.6,2.149,27.575,2.724,2,.088,11.886,1.534,31.659,4.425,19.716,2.884,26.451,3.973,36.766,3.064,5.057-.445,18.2-1.6,18.724-5.446.553-4.05-13.181-9.094-21.788-12.256S1345.61,984.53,1331.423,982.686Z" fill="#936644"/>
    <path d="M1330.061,988.133c-4.313-.366-9.921-.647-34.723.681-10.117.542-12.547.768-12.6,1.362-.107,1.286,11.141,2.352,29.276,6.128,24.812,5.166,36.35,9.957,39.83,5.106,1.375-1.916.967-4.6.341-6.128C1351.618,993.89,1349.352,989.774,1330.061,988.133Z" fill="#8c5f41"/>
    <path d="M1869.98,988.475c-26.77-.092-67.215,4.344-67.408,11.8-.108,4.159,12.335,7.644,17.4,8.7,7.572,1.578,14.538,1.027,30.753-3.106,0,0,13.831-2.73,34.17-10.562,3.682-1.418,6.987-2.788,6.834-4.038C1891.392,988.549,1874.924,988.492,1869.98,988.475Z" fill="#936644"/>
    <path d="M1840.018,994.261c-6.415.542-20.436,1.726-20.766,5.106-.2,2.094,4.838,5.108,9.873,5.788,8.091,1.091,11.38-4.493,25.872-8.171,5.448-1.382,8.537-1.494,8.511-2.042C1863.456,993.865,1851.473,993.293,1840.018,994.261Z" fill="#8c5f41"/>
    <path d="M222.316,877.665s-31.659.511-34.212,1.532-7.66,5.617,20.425,8.681,60.766,4.6,60.766,4.6,38.295-1.1,61.275-6.169,26.552-2.083,35.745,0,43.917,6.209,61.278,3.105,51.574-11.745,51.574-11.745Z" fill="#9b6f48"/>
    <path d="M1786.821,893.087c-26.3.911-29.22,1.926-29.283,2.781-.067.907,3.068,1.838,6.258,2.654,27.037,6.912,56.359,5.073,62.655,4.639,17.155-1.181,22.674-.906,22.865-2.252.3-2.125-12.7-5.189-14.545-5.623C1824.246,892.806,1814.54,892.127,1786.821,893.087Z" fill="#936644"/>
    <line x1="-2.816" y1="892.871" x2="1978.717" y2="892.871" fill="none" stroke="#8c5f41" stroke-miterlimit="10" stroke-width="2"/>
    <line x1="-3.985" y1="914.497" x2="1977.547" y2="914.497" fill="none" stroke="#8c5f41" stroke-miterlimit="10" stroke-width="2"/>
    <line x1="-3.985" y1="940.676" x2="1977.547" y2="940.676" fill="none" stroke="#8c5f41" stroke-miterlimit="10" stroke-width="2"/>
    <line x1="-3.985" y1="973.684" x2="1977.547" y2="973.684" fill="none" stroke="#8c5f41" stroke-miterlimit="10" stroke-width="2"/>
    <line x1="-3.985" y1="1019.719" x2="1977.547" y2="1019.719" fill="none" stroke="#8c5f41" stroke-miterlimit="10" stroke-width="2"/>
  </g>
  <path d="M809.815,940.45c-2.078.078-26.93,1.007-27.324,3.2-.382,2.128,22.231,5.628,42.938,4.115,11.261-.824,24.194-3.293,23.421-5.03C847.892,940.585,826.052,939.843,809.815,940.45Z" fill="#9b6f48"/>
  <path d="M748.027,1011.429c-2.077.078-26.93,1.007-27.323,3.2-.382,2.127,22.231,5.628,42.938,4.114,11.261-.823,24.194-3.292,23.42-5.029C786.1,1011.564,764.265,1010.821,748.027,1011.429Z" fill="#9b6f48"/>
  <path d="M808.385,1066.494c-4.3.153-55.713,1.988-56.527,6.317-.79,4.2,45.992,11.109,88.831,8.122,23.3-1.625,50.053-6.5,48.452-9.928C887.159,1066.76,841.978,1065.3,808.385,1066.494Z" fill="#9b6f48"/>
  <path d="M1655.678,1065.58c-41.371,6.182-48.969-1.985-69.447,8.681-6.53,3.4-19.459,10.135-18.383,15.319,3.206,15.43,128.772,8.779,130.724-8.17.618-5.372-11.088-12.552-19.915-15.319C1669.635,1063.263,1662.214,1064.6,1655.678,1065.58Z" fill="#9b6f48"/>
</svg>
