<?xml version="1.0" encoding="UTF-8" standalone="no"?>
<!DOCTYPE svg PUBLIC "-//W3C//DTD SVG 1.1//EN" "http://www.w3.org/Graphics/SVG/1.1/DTD/svg11.dtd">
<svg width="100%" height="100%" viewBox="0 0 1920 1080" version="1.1" xmlns="http://www.w3.org/2000/svg" xmlns:xlink="http://www.w3.org/1999/xlink" xml:space="preserve" xmlns:serif="http://www.serif.com/" style="fill-rule:evenodd;clip-rule:evenodd;stroke-linejoin:round;stroke-miterlimit:2;">
    <g transform="matrix(0.78989,0,0,0.78989,993.242,592.418)">
        <g id="sea.svg" transform="matrix(1,0,0,1,-1450,-750)">
            <clipPath id="_clip1">
                <rect x="0" y="0" width="2900" height="1500"/>
            </clipPath>
            <g clip-path="url(#_clip1)">
                <g id="Layer-1" serif:id="Layer 1">
                    <g>
                        <g transform="matrix(1500,-4.045e-14,-4.045e-14,-1500,700,750)">
                            <rect x="-0.467" y="-0.5" width="1.933" height="1" style="fill:url(#_Linear2);"/>
                        </g>
                        <g transform="matrix(1,0,0,1,2095.59,407.521)">
                            <path d="M0,202.363C-375.093,188.7 -647.704,200.699 -647.704,200.699C-647.704,200.699 -256.489,129.125 -204.836,129.125C-204.836,129.125 -285.936,12.446 32.094,-18.709C286.985,-43.679 508.201,2.936 575.244,51.207C648.6,104.022 509.702,114.145 509.702,114.145C509.702,114.145 646.051,117.474 710.828,150.764C710.828,150.764 434.269,154.092 371.908,170.738C371.908,170.738 495.749,246.042 -19.421,236.054C-84.576,234.792 54.307,204.342 0,202.363" style="fill:white;fill-rule:nonzero;"/>
                        </g>
                        <g transform="matrix(1,0,0,1,2467.5,596.04)">
                            <path d="M0,-17.781C61.779,-34.271 333.771,-37.692 338.841,-37.755C95.34,-75.304 -319.367,-46.384 -379.618,-41.627C-442.869,-36.634 -276.42,-19.989 -389.605,-19.989C-482.927,-19.989 -881.007,3.585 -1017.86,11.859C-1019.01,12.07 -1019.61,12.18 -1019.61,12.18C-1019.61,12.18 -747.001,0.181 -371.908,13.844C-317.602,15.823 -456.484,46.273 -391.329,47.535C123.841,57.523 0,-17.781 0,-17.781" style="fill:rgb(159,208,222);fill-rule:nonzero;"/>
                        </g>
                        <g transform="matrix(1,0,0,1,475.761,243.336)">
                            <path d="M0,222.475C-255.125,213.182 -440.546,221.343 -440.546,221.343C-440.546,221.343 -118.137,156.693 -83.004,156.693C-83.004,156.693 -158.646,101.482 57.666,80.291C97.666,-29.709 463.666,65.291 346.683,162.472C381.812,164.689 439.422,164.737 483.482,187.379C483.482,187.379 295.375,189.643 252.959,200.965C252.959,200.965 337.192,252.184 -13.209,245.391C-57.526,244.532 36.938,223.822 0,222.475" style="fill:white;fill-rule:nonzero;"/>
                        </g>
                        <g transform="matrix(1,0,0,1,728.721,456.394)">
                            <path d="M0,-12.094C42.021,-23.31 227.02,-25.636 230.468,-25.679C64.847,-51.219 -217.223,-31.549 -258.203,-28.313C-301.225,-24.917 -188.011,-13.595 -264.997,-13.595C-328.47,-13.595 -599.231,2.438 -692.312,8.066C-693.098,8.21 -693.506,8.284 -693.506,8.284C-693.506,8.284 -508.085,0.123 -252.959,9.416C-216.022,10.763 -310.485,31.473 -266.168,32.332C84.232,39.125 0,-12.094 0,-12.094" style="fill:rgb(159,208,222);fill-rule:nonzero;"/>
                        </g>
                        <g transform="matrix(1,0,0,1,1044.59,133.449)">
                            <path d="M0,96.318C-177.926,89.837 -307.24,95.528 -307.24,95.528C-307.24,95.528 -121.667,61.577 -97.165,61.577C-97.165,61.577 -96.552,13.281 -13.552,34.281C-16.052,29.281 -11.425,0.659 15.224,-8.548C50.448,-20.719 76.448,-2.719 79.448,9.281C90.448,-3.219 119.964,-14.729 147.448,-12.599C213.926,-7.448 252.26,9.778 272.869,24.616C307.666,49.67 241.779,54.471 241.779,54.471C241.779,54.471 306.456,56.051 337.184,71.842C337.184,71.842 205.997,73.421 176.416,81.317C176.416,81.317 235.161,117.037 -9.212,112.3C-40.119,111.701 25.76,97.257 0,96.318" style="fill:white;fill-rule:nonzero;"/>
                        </g>
                        <g transform="matrix(1,0,0,1,1221,223.2)">
                            <path d="M0,-8.434C29.306,-16.256 158.325,-17.879 160.73,-17.909C45.226,-35.721 -151.493,-22.002 -180.072,-19.746C-210.076,-17.377 -131.12,-9.481 -184.811,-9.481C-229.077,-9.481 -417.908,1.701 -482.823,5.626C-483.372,5.726 -483.656,5.778 -483.656,5.778C-483.656,5.778 -354.342,0.086 -176.416,6.567C-150.655,7.506 -216.535,21.95 -185.627,22.549C58.745,27.287 0,-8.434 0,-8.434" style="fill:rgb(159,208,222);fill-rule:nonzero;"/>
                        </g>
                    </g>
                </g>
            </g>
        </g>
        <g id="sea.svg1" serif:id="sea.svg">
        </g>
    </g>
    <defs>
        <linearGradient id="_Linear2" x1="0" y1="0" x2="1" y2="0" gradientUnits="userSpaceOnUse" gradientTransform="matrix(-4.06667e-08,1,-1,-4.06667e-08,0.5,-0.5)"><stop offset="0" style="stop-color:rgb(205,247,250);stop-opacity:1"/><stop offset="1" style="stop-color:rgb(160,215,224);stop-opacity:1"/></linearGradient>
    </defs>
</svg>
