<?xml version="1.0" encoding="UTF-8" standalone="no"?>
<!DOCTYPE svg PUBLIC "-//W3C//DTD SVG 1.1//EN" "http://www.w3.org/Graphics/SVG/1.1/DTD/svg11.dtd">
<svg width="100%" height="100%" viewBox="0 0 853 1172" version="1.1" xmlns="http://www.w3.org/2000/svg" xmlns:xlink="http://www.w3.org/1999/xlink" xml:space="preserve" xmlns:serif="http://www.serif.com/" style="fill-rule:evenodd;clip-rule:evenodd;">
    <g transform="matrix(-2.37936e-05,1,-1,-2.37936e-05,853.014,0.0101481)">
        <path d="M891.8,310.8L891.5,311L890.5,313L890.2,313.2L889.8,313.8L889.2,314.2L888.8,314.8L888.2,315.2L887.8,315.8L887.2,316.2L887,316.5L886,316.8L885,317L885.2,316L885.5,315L885.8,314.8L886.2,314.2L886.8,313.8L887.2,313.2L887.8,312.8L888.2,312.2L888.8,311.8L889.2,311.2L889.8,310.8L890.2,310.2L890.5,310L897.2,304.2C901.733,300.4 907.4,296.4 914.2,292.2C921.067,288.067 924.167,283.5 923.5,278.5C922.833,273.5 922.167,269.667 921.5,267C920.833,264.333 920.333,262.167 920,260.5L919.5,258L918.5,254L917.5,252L917.2,252.2L917,252.5L915,253.5L914.8,253.8L914.5,254L914,255C913.667,255.667 912.267,257.067 909.8,259.2C907.267,261.4 903,263.5 897,265.5C891,267.5 884.5,268.167 877.5,267.5C870.5,266.833 864,265.167 858,262.5C852,259.833 847.167,256.333 843.5,252C839.833,247.667 837.4,243.4 836.2,239.2C835.067,235.067 834.833,231 835.5,227C836.167,223 838.5,218.5 842.5,213.5L848.5,206L848.8,205.8L849.2,205.2L849.8,204.8L850.2,204.2L850.8,203.8L851.2,203.2L851.5,203L851.8,201.5L852,200L849.5,199.8L847,199.5L838.5,199C832.833,198.667 826.667,198.5 820,198.5C813.333,198.5 807.733,198.933 803.2,199.8C798.733,200.6 793.267,202.4 786.8,205.2C780.267,208.067 773.167,210.5 765.5,212.5C757.833,214.5 746,218 730,223C714,228 699.167,233 685.5,238C671.833,243 662.733,250.067 658.2,259.2C653.733,268.4 649.333,276.833 645,284.5C640.667,292.167 637.733,296.4 636.2,297.2C634.733,298.067 630.5,301.667 623.5,308C616.5,314.333 609.733,321.6 603.2,329.8C596.733,337.933 591.333,345.833 587,353.5L580.5,365L580.2,365.2L580,365.5L582,367C583.333,368 584.167,368.333 584.5,368C584.833,367.667 585.333,367.5 586,367.5L587,367.5L586.8,367.8C586.6,367.933 586.167,368.333 585.5,369C584.833,369.667 584.333,371.667 584,375C583.667,378.333 583.833,380.5 584.5,381.5C585.167,382.5 585.667,383.833 586,385.5C586.333,387.167 585.933,388.933 584.8,390.8C583.6,392.6 579.333,393.667 572,394C564.667,394.333 558.167,395.667 552.5,398C546.833,400.333 538.167,402 526.5,403C514.833,404 507.833,405 505.5,406C503.167,407 501.067,408.933 499.2,411.8C497.4,414.6 496.333,417 496,419C495.667,421 496,423 497,425C498,427 498.167,429.833 497.5,433.5C496.833,437.167 496.333,441 496,445C495.667,449 495,453 494,457C493,461 493.067,464.667 494.2,468C495.4,471.333 496.333,473.067 497,473.2L498,473.5L498.2,473.8L498.5,474L498.5,476L498.2,476.2C498.067,476.4 496.833,476.833 494.5,477.5L491,478.5L491.2,478.8L491.8,479.2L492,479.5L496,481.5L500.5,482.5C503.5,483.167 505.667,483.5 507,483.5L509,483.5L508.2,491.8C507.733,497.267 507.333,500.333 507,501L506.5,502L506.2,502.2L505.8,502.8L505.2,503.2L504.8,503.8L504.2,504.2L503.8,504.8L503.2,505.2L503,505.5L499,507.5L496,507.5L495.8,507.2L495.2,506.8L494.8,506.2L494.5,506L494,504.5C493.667,503.5 493.333,501.833 493,499.5C492.667,497.167 491.833,495 490.5,493L488.5,490L488.2,489.8L487.8,489.2L487.2,488.8L487,488.5L486,488C485.333,487.667 483.667,487.4 481,487.2C478.333,487.067 477.067,488.167 477.2,490.5L477.5,494L477.2,493.8L476.8,493.2L476.2,492.8L476,492.5L472.5,490.5C470.167,489.167 467.4,489.4 464.2,491.2C461.067,493.067 459.067,494.4 458.2,495.2C457.4,496.067 456.167,496.6 454.5,496.8C452.833,496.933 451.833,497.4 451.5,498.2C451.167,499.067 451.333,499.6 452,499.8C452.667,499.933 453.167,501 453.5,503C453.833,505 453.667,506 453,506C452.333,506 452.6,509 453.8,515C454.933,521 455.6,525.333 455.8,528L456,532L454,532L453.8,531C453.6,530.333 453.333,529.333 453,528L452.5,526L452.2,541C452.067,551 452.333,556 453,556C453.667,556 453.933,557.833 453.8,561.5C453.6,565.167 453.5,568.333 453.5,571L453.5,575L453.8,575.2L454,575.5L470,575.5C480.667,575.5 488.067,576.733 492.2,579.2C496.4,581.733 498.6,583.067 498.8,583.2L499.2,583.8L499.8,584.2L500.2,584.8L500.8,585.2L501.2,585.8L501.5,586L502.5,588L502.8,588.2L503.2,588.8L503.5,589L503.8,590L504,591L502,591L501.8,590L501.5,589L501.2,588.8L500.8,588.2L500.2,587.8L499.8,587.2L499.5,587L499.2,586L499,585L498,584.8C497.333,584.6 495,583.333 491,581C487,578.667 482.667,577.333 478,577C473.333,576.667 469.667,576.833 467,577.5C464.333,578.167 461.5,579.333 458.5,581C455.5,582.667 452,585 448,588L442,592.5L441.8,592.8L441.2,593.2L441,593.5L439.5,593.8L438,594L437.8,593L437.5,592L432,573C428.333,560.333 425.833,547.667 424.5,535C423.167,522.333 422.833,513 423.5,507C424.167,501 428.167,495.5 435.5,490.5C442.833,485.5 447.667,481.833 450,479.5C452.333,477.167 454.067,475 455.2,473C456.4,471 458.5,469.167 461.5,467.5C464.5,465.833 467.6,460.833 470.8,452.5C473.933,444.167 475.333,438.167 475,434.5C474.667,430.833 472.5,425.5 468.5,418.5C464.5,411.5 462.5,406.667 462.5,404C462.5,401.333 463.933,398.933 466.8,396.8C469.6,394.6 477.167,391.267 489.5,386.8C501.833,382.267 508,379.667 508,379C508,378.333 508.333,378 509,378C509.667,378 510,378.333 510,379C510,379.667 511.5,379.4 514.5,378.2C517.5,377.067 519.933,375.267 521.8,372.8C523.6,370.267 524.067,368.733 523.2,368.2C522.4,367.733 522.933,366.933 524.8,365.8C526.6,364.6 527.6,363.5 527.8,362.5C527.933,361.5 528.333,361 529,361C529.667,361 530,360.667 530,360C530,359.333 530.733,358.667 532.2,358C533.733,357.333 535.067,355.733 536.2,353.2C537.4,350.733 538.333,349.4 539,349.2C539.667,349.067 540.167,348.333 540.5,347C540.833,345.667 541.5,345 542.5,345C543.5,345 544.4,343.833 545.2,341.5C546.067,339.167 547.833,336.167 550.5,332.5C553.167,328.833 555.167,326 556.5,324C557.833,322 559.167,317 560.5,309C561.833,301 566.267,292.067 573.8,282.2C581.267,272.4 590.5,262 601.5,251C612.5,240 622,231.667 630,226C638,220.333 644.6,215.6 649.8,211.8C654.933,207.933 659.067,203.933 662.2,199.8C665.4,195.6 672.6,191.933 683.8,188.8C694.933,185.6 707.667,182.333 722,179C736.333,175.667 743.4,173.733 743.2,173.2C743.067,172.733 751.833,171.333 769.5,169C787.167,166.667 796.733,166.267 798.2,167.8C799.733,169.267 801.333,171.667 803,175C804.667,178.333 807.4,181.4 811.2,184.2C815.067,187.067 819.167,189.333 823.5,191C827.833,192.667 834,193.333 842,193C850,192.667 856.267,191.267 860.8,188.8C865.267,186.267 868.667,183.167 871,179.5C873.333,175.833 875.067,172.6 876.2,169.8C877.4,166.933 881.333,165.833 888,166.5C894.667,167.167 899.067,168.267 901.2,169.8C903.4,171.267 905.5,174 907.5,178C909.5,182 912.167,190.667 915.5,204C918.833,217.333 922.5,234.333 926.5,255C930.5,275.667 932.267,286.667 931.8,288C931.267,289.333 926.733,291.667 918.2,295C909.733,298.333 903.267,301.733 898.8,305.2C894.267,308.733 891.933,310.6 891.8,310.8Z" style="fill:rgb(232,205,146);stroke:rgb(232,205,146);stroke-width:0.5px;"/>
        <path d="M989.2,422.5L989,445L985.8,562C983.6,640 982.333,693.667 982,723C981.667,752.333 980.333,768.833 978,772.5C975.667,776.167 969.4,778.933 959.2,780.8C949.067,782.6 937.5,783.667 924.5,784C911.5,784.333 902.667,785.333 898,787C893.333,788.667 888.333,789.833 883,790.5C877.667,791.167 873.667,791.6 871,791.8L867,792L863.5,792.2L860,792.5L843,792.5C831.667,792.5 825.5,792.167 824.5,791.5C823.5,790.833 819.167,789.833 811.5,788.5C803.833,787.167 791.333,786.167 774,785.5C756.667,784.833 745.167,783 739.5,780C733.833,777 729.333,775.333 726,775C722.667,774.667 718.833,775.333 714.5,777C710.167,778.667 703,779.5 693,779.5C683,779.5 671.167,778.5 657.5,776.5C643.833,774.5 621.167,772.833 589.5,771.5C557.833,770.167 542.007,777.465 536.34,774.465C530.673,771.465 526.673,769.799 524.34,769.465C522.007,769.132 519.507,769.465 516.84,770.465C514.173,771.465 510.507,771.965 505.84,771.965C501.173,771.965 492.269,779.187 476.602,777.853C460.935,776.52 450.602,775.187 445.602,773.853C440.602,772.52 431.769,771.52 419.102,770.853C406.435,770.187 394.263,772.771 388.263,769.771C382.263,766.771 376.929,765.104 372.263,764.771C367.596,764.437 251.365,766.143 245.032,767.477C238.699,768.81 235.132,769.043 234.332,768.177C233.465,767.377 230.436,741.706 227.769,734.706C225.103,727.706 222.603,722.54 220.269,719.206C217.936,715.873 214.536,712.606 210.069,709.406C205.536,706.273 198.936,704.373 190.269,703.706C181.603,703.04 177.003,702.473 176.469,702.006C176.003,701.473 175.769,685.706 175.769,654.706C175.769,623.706 176.103,606.706 176.769,603.706C177.436,600.706 178.336,598.706 179.469,597.706C180.669,596.706 181.336,595.04 181.469,592.706C181.669,590.373 180.769,583.206 178.769,571.206C176.769,559.206 176.103,532.873 176.769,492.206C177.436,451.54 178.003,430.14 178.469,428.006C179.003,425.806 180.003,415.606 181.469,397.406C183.003,379.273 184.103,358.706 184.769,335.706C185.436,312.706 185.269,294.04 184.269,279.706C183.269,265.373 182.103,255.04 180.769,248.706C179.436,242.373 179.269,226.54 180.269,201.206C181.269,175.873 182.102,145.208 182.769,143.874C183.436,142.541 185.869,140.808 190.069,138.674C194.202,136.474 202.936,134.374 216.269,132.374C229.602,130.374 356.666,127.002 376,124.668C395.333,122.335 410,120.502 420,119.168C430,117.835 439,117.502 447,118.168C455,118.835 473.666,119.335 503,119.668C532.333,120.002 549.333,120.668 554,121.668C558.666,122.668 564.5,123.335 571.5,123.668C578.5,124.002 581.666,124.002 581,123.668C580.333,123.335 584.833,122.002 594.5,119.668C604.166,117.335 635.167,133.333 687.5,133L766,132.5L772,130.5L774,129.5L774,129L834.5,129.8C874.833,130.267 898.167,129.5 904.5,127.5C910.833,125.5 924.667,124.667 946,125C967.333,125.333 978.933,126.4 980.8,128.2C982.6,130.067 984,133.833 985,139.5C986,145.167 987,174.667 988,228C989,281.333 989.5,323.333 989.5,354C989.5,384.667 989.4,407.5 989.2,422.5Z" style="fill:rgb(233,206,146);stroke:rgb(233,206,146);stroke-width:0.5px;"/>
        <path d="M464.8,107L465,108L466,108.2L467,108.5L467.2,108.8L467.8,109.2L468,109.5L470,110.5L473,110.5L473.5,110.2L474,110L473.8,111L473.5,112L473.2,112.2L473,112.5L473.2,112.8L473.8,113.2L474,113.5L477,114.5L484,114.5C488.667,114.5 492.5,114 495.5,113C498.5,112 505,111.667 515,112C525,112.333 535.833,114.5 547.5,118.5C559.167,122.5 567.167,124.167 571.5,123.5C575.833,122.833 580.667,121.5 586,119.5C591.333,117.5 604.167,116.667 624.5,117C644.833,117.333 661.667,118 675,119C688.333,120 702.5,120.5 717.5,120.5C732.5,120.5 741.167,120.667 743.5,121L747,121.5L749.5,121.8C751.167,121.933 752,122.333 752,123C752,123.667 751.667,123.933 751,123.8C750.333,123.6 749.933,123.4 749.8,123.2L749.5,123L749.2,123.2L749,123.5L747,124.5L740.5,124.5C738.167,124.5 731.833,125 721.5,126L706,127.5L705.8,127.8L705.2,128.2L705,128.5L720.5,128.5C730.833,128.5 735.5,128.667 734.5,129C733.5,129.333 737.5,129.333 746.5,129C755.5,128.667 760.833,128.5 762.5,128.5L769,128.5L771.5,128.8L774,129L774,129.5L772,130.5L766,132.5L687.5,133C635.167,133.333 604.166,117.335 594.5,119.668C584.833,122.002 580.333,123.335 581,123.668C581.666,124.002 578.5,124.002 571.5,123.668C564.5,123.335 558.666,122.668 554,121.668C549.333,120.668 532.333,120.002 503,119.668C473.666,119.335 455,118.835 447,118.168C439,117.502 430,117.835 420,119.168C410,120.502 395.333,122.335 376,124.668C356.666,127.002 229.602,130.374 216.269,132.374C202.936,134.374 194.202,136.474 190.069,138.674C185.869,140.808 183.436,142.541 182.769,143.874C182.102,145.208 181.269,175.873 180.269,201.206C179.269,226.54 179.436,242.373 180.769,248.706C182.103,255.04 183.269,265.373 184.269,279.706C185.269,294.04 185.436,312.706 184.769,335.706C184.103,358.706 183.003,379.273 181.469,397.406C180.003,415.606 179.003,425.806 178.469,428.006C178.003,430.14 177.436,451.54 176.769,492.206C176.103,532.873 176.769,559.206 178.769,571.206C180.769,583.206 181.669,590.373 181.469,592.706C181.336,595.04 180.669,596.706 179.469,597.706C178.336,598.706 177.436,600.706 176.769,603.706C176.103,606.706 175.769,623.706 175.769,654.706C175.769,685.706 176.003,701.473 176.469,702.006C177.003,702.473 181.603,703.04 190.269,703.706C198.936,704.373 205.536,706.273 210.069,709.406C214.536,712.606 217.936,715.873 220.269,719.206C222.603,722.54 225.103,727.706 227.769,734.706C230.436,741.706 233.465,767.377 234.332,768.177C235.132,769.043 238.699,768.81 245.032,767.477C251.365,766.143 367.596,764.437 372.263,764.771C376.929,765.104 382.263,766.771 388.263,769.771C394.263,772.771 406.435,770.187 419.102,770.853C431.769,771.52 440.602,772.52 445.602,773.853C450.602,775.187 460.935,776.52 476.602,777.853C492.269,779.187 501.173,771.965 505.84,771.965C510.507,771.965 514.173,771.465 516.84,770.465C519.507,769.465 522.007,769.132 524.34,769.465C526.673,769.799 530.673,771.465 536.34,774.465C542.007,777.465 557.833,770.167 589.5,771.5C621.167,772.833 643.833,774.5 657.5,776.5C671.167,778.5 683,779.5 693,779.5C703,779.5 710.167,778.667 714.5,777C718.833,775.333 722.667,774.667 726,775C729.333,775.333 733.833,777 739.5,780C745.167,783 756.667,784.833 774,785.5C791.333,786.167 803.833,787.167 811.5,788.5C819.167,789.833 823.5,790.833 824.5,791.5C825.5,792.167 831.667,792.5 843,792.5L860,792.5L863.5,792.2L867,792L867,792.5L862,793.5L841.5,794C827.833,794.333 820.667,794.6 820,794.8C819.333,794.933 819,795.5 819,796.5C819,797.5 818.667,798.067 818,798.2L817,798.5L810,799.5L815,800.5L816.2,802.2C817.067,803.4 817.6,804.067 817.8,804.2L818,804.5L823,805.5L820,806.5L814,806.5C812,806.5 807.333,806.667 800,807L789,807.5L794,808.5L798,809.5L797.5,809.8L797,810L772.5,810.2C756.167,810.4 745.667,810.5 741,810.5C736.333,810.5 732.6,808.267 729.8,803.8L725.5,797L725.2,796.8L725,796.5L723,795.5L721,795.5L719,796.5L718.8,796.8L718.2,797.2L717.8,797.8C717.6,797.933 716.4,800.067 714.2,804.2C712.067,808.4 703.833,810.5 689.5,810.5C675.167,810.5 659.833,810.167 643.5,809.5C627.167,808.833 612,809 598,810C584,811 570.833,811.733 558.5,812.2C546.167,812.733 539.4,810.167 538.2,804.5L536.2,794.5L536,793L533,793L532.8,796L532.5,799L532,805C531.667,809 531.4,811.5 531.2,812.5L531,814L527.5,813.8C525.167,813.6 522.167,813.333 518.5,813C514.833,812.667 506.5,812.267 493.5,811.8C480.5,811.267 473.6,810.167 472.8,808.5C471.933,806.833 470.733,806 469.2,806C467.733,806 466.5,806.733 465.5,808.2C464.5,809.733 450,810.667 422,811C394,811.333 375.5,811.5 366.5,811.5L329.5,811.5C313.833,811.5 300.667,811.667 290,812C279.333,812.333 273.6,810.6 272.8,806.8L271.5,801L271.2,799.5L271,798L268,798L267.8,799L267.5,800L267.2,800.2L266.8,800.8L266.5,801L266,802C265.667,802.667 264.833,804.5 263.5,807.5C262.167,810.5 243.733,811.833 208.2,811.5L155,811L155.2,810.5L155.5,810L155.8,809.8L156,809.5L158,808.5L157.8,808.2C157.6,808.067 157.5,806.5 157.5,803.5C157.5,800.5 156.5,794.667 154.5,786C152.5,777.333 151,768.333 150,759C149,749.667 148,692.833 147,588.5C146,484.167 145.5,392.333 145.5,313C145.5,233.667 146.4,193.4 148.2,192.2C150.067,191.067 152.933,187.4 156.8,181.2C160.6,175.067 162.667,169.167 163,163.5C163.333,157.833 162,152.333 159,147C156,141.667 153.4,138.333 151.2,137C149.067,135.667 147.267,133 145.8,129C144.267,125 143.333,120 143,114C142.667,108 143.067,104.667 144.2,104C145.4,103.333 146.067,102.5 146.2,101.5C146.4,100.5 147.167,98.5 148.5,95.5L150.5,91L150.8,90.8L151,90.5L145,89.5L144.8,89.2L144.2,88.8L144,88.5L144,88L146,88.2L148,88.5L195.2,87.8C226.733,87.267 243.333,88.833 245,92.5C246.667,96.167 247.667,98.333 248,99L248.5,100L248.8,100.2L249,100.5L253,100.5L253.2,100.2L253.8,99.8L254.2,99.2L254.5,99L257.2,93.5C259.067,89.833 266.833,88.6 280.5,89.8C294.167,90.933 302.067,94.067 304.2,99.2C306.4,104.4 307.667,107.667 308,109L308.5,111L309.5,113L309.8,114.5L310,116L312,116L312.2,113L312.5,110L314.2,100.2C315.4,93.733 317.667,90.333 321,90C324.333,89.667 330.5,89.167 339.5,88.5C348.5,87.833 354.5,87.167 357.5,86.5C360.5,85.833 372.833,85.667 394.5,86C416.167,86.333 428,86.833 430,87.5C432,88.167 437.4,88.733 446.2,89.2C455.067,89.733 460.333,92.667 462,98C463.667,103.333 464.6,106.333 464.8,107Z" style="fill:rgb(216,183,119);stroke:rgb(216,183,119);stroke-width:0.5px;"/>
        <path d="M1109,45.8L1109,46L1106,46.2C1104,46.4 1102.07,47.6 1100.2,49.8C1098.4,51.933 1097.17,54 1096.5,56C1095.83,58 1095.07,59.833 1094.2,61.5C1093.4,63.167 1092.67,64 1092,64C1091.33,64 1090.5,64.667 1089.5,66L1088,68L1086,69.8C1084.67,70.933 1084.6,72.4 1085.8,74.2C1086.93,76.067 1086.67,107 1085,167C1083.33,227 1082.33,348.5 1082,531.5C1081.67,714.5 1081.67,806.833 1082,808.5L1082.8,812.5L1083,814L1084,814.2L1085,814.5L1085,815L1082,814.8C1080,814.6 1071.83,814.4 1057.5,814.2L1036,814L1036,813.5L1044.5,813.2L1053,813L1052.8,812L1052.5,811L1052.2,810.8L1052,810.5L1046.5,810.5C1044.83,810.5 1043.83,804.6 1043.5,792.8L1043,775L1042.8,762.5C1042.6,754.167 1042.33,749.5 1042,748.5C1041.67,747.5 1041.33,708.667 1041,632C1040.67,555.333 1039.93,445.5 1038.8,302.5L1037,88L1030,87.8L1023,87.5L1023,87L1029.8,86.5C1034.27,86.167 1036.73,84.067 1037.2,80.2C1037.73,76.4 1041.73,74.4 1049.2,74.2C1056.73,74.067 1060.73,69.333 1061.2,60C1061.73,50.667 1064.5,45.933 1069.5,45.8C1074.5,45.6 1079,45.167 1083,44.5C1087,43.833 1092.33,43.833 1099,44.5C1105.67,45.167 1109,45.6 1109,45.8Z" style="fill:rgb(229,204,149);stroke:rgb(229,204,149);stroke-width:0.5px;"/>
        <path d="M72,38.8L73,39L73,40C73,40.667 74,41.167 76,41.5C78,41.833 79.067,43 79.2,45C79.4,47 80.333,50.5 82,55.5C83.667,60.5 84.733,63.5 85.2,64.5C85.733,65.5 87.833,66.933 91.5,68.8C95.167,70.6 98.333,71.6 101,71.8L105,72L105,80L104,79.8L103,79.5L102.8,79.2L102.5,79L102.2,79.2L102,79.5L100,79.5L98.5,79C97.5,78.667 95,78 91,77L85,75.5L84.8,75.8L84.5,76L82.8,82.2C81.6,86.4 80.833,88.667 80.5,89C80.167,89.333 79.667,89.6 79,89.8L78,90L77.5,90L77.2,91L77,92L75.2,98C74.067,102 73,110.833 72,124.5C71,138.167 70,183.667 69,261C68,338.333 67.5,449.667 67.5,595C67.5,740.333 67.4,813.067 67.2,813.2C67.067,813.4 66.667,813.667 66,814L65,814.5L67,815.5L66,816C65.333,816.333 65,816.6 65,816.8L65,817L64.8,817C64.6,817 64.4,817.167 64.2,817.5L64,818L59,818.2C55.667,818.4 51.167,818.267 45.5,817.8C39.833,817.267 36.6,812.5 35.8,803.5C34.933,794.5 33.333,731.167 31,613.5C28.667,495.833 26.067,376.333 23.2,255C20.4,133.667 21.167,72.833 25.5,72.5L32,72L32,54.5C32,42.833 37.833,37.067 49.5,37.2C61.167,37.4 67.667,37.667 69,38C70.333,38.333 71.333,38.6 72,38.8Z" style="fill:rgb(181,135,56);stroke:rgb(181,135,56);stroke-width:0.5px;"/>
        <path d="M73,40L73,39L79,39.8C83,40.267 85.833,41 87.5,42C89.167,43 91.5,43.5 94.5,43.5C97.5,43.5 99.333,43.667 100,44C100.667,44.333 100.4,44.733 99.2,45.2C98.067,45.733 98.333,46.167 100,46.5C101.667,46.833 102.667,47.333 103,48C103.333,48.667 103.667,48.167 104,46.5C104.333,44.833 104.833,46 105.5,50C106.167,54 106.6,60 106.8,68C106.933,76 110,80.4 116,81.2C122,82.067 125.267,83.067 125.8,84.2C126.267,85.4 126.6,86.067 126.8,86.2L127,86.5L133,87.5L133,88L129.5,88C127.167,88 124.267,206.833 120.8,444.5C117.267,682.167 115.4,802.833 115.2,806.5L115,812L118,812L116.5,812.5C115.5,812.833 115,813.667 115,815L115,817L113,816.8C111.667,816.6 110.667,816.333 110,816C109.333,815.667 108.333,815.833 107,816.5C105.667,817.167 103.333,817.667 100,818C96.667,818.333 94.833,818.067 94.5,817.2C94.167,816.4 92,816 88,816L82,816L82.2,815.5L82.5,815L82.8,814.8L83.2,814.2C83.4,814.067 83.667,812.667 84,810C84.333,807.333 83.267,687 80.8,449L77,92L77.2,92C77.4,92 77.6,91.667 77.8,91L78,90L79,89.8C79.667,89.6 80.167,89.333 80.5,89C80.833,88.667 81.6,86.4 82.8,82.2L84.5,76L84.8,75.8L85,75.5L91,77C95,78 97.5,78.667 98.5,79L100,79.5L102,79.5L102.2,79.2L102.5,79L102.8,79.2L103,79.5L104,79.8L105,80L105,72L101,71.8C98.333,71.6 95.167,70.6 91.5,68.8C87.833,66.933 85.733,65.5 85.2,64.5C84.733,63.5 83.333,59.667 81,53C78.667,46.333 76.733,42.667 75.2,42C73.733,41.333 73,40.667 73,40Z" style="fill:rgb(228,203,149);stroke:rgb(228,203,149);stroke-width:0.5px;"/>
        <path d="M1106,46.2L1109,46L1122,48.5C1130.67,50.167 1135,55.833 1135,65.5C1135,75.167 1136.33,80.333 1139,81C1141.67,81.667 1140.27,179.167 1134.8,373.5C1129.27,567.833 1125.83,687.833 1124.5,733.5C1123.17,779.167 1122.07,804.933 1121.2,810.8C1120.4,816.6 1116.67,819.333 1110,819C1103.33,818.667 1098.5,818.167 1095.5,817.5C1092.5,816.833 1090.5,816.4 1089.5,816.2L1088,816L1087.8,815.5L1087.5,815L1087.5,809.5C1087.5,805.833 1087.83,798.5 1088.5,787.5C1089.17,776.5 1091.27,655 1094.8,423C1098.27,191 1098,74.6 1094,73.8L1088,72.5L1087.8,72.2L1087.2,71.8L1087,71.5L1087.2,71.2L1087.5,71L1087.8,69.5L1088,68L1089.5,66C1090.5,64.667 1091.33,64 1092,64C1092.67,64 1093.4,63.167 1094.2,61.5C1095.07,59.833 1095.83,58 1096.5,56C1097.17,54 1098.4,51.933 1100.2,49.8C1102.07,47.6 1104,46.4 1106,46.2Z" style="fill:rgb(181,134,56);stroke:rgb(181,134,56);stroke-width:0.5px;"/>
        <path d="M1000,87.2L1015,87L1013.2,88C1012.07,88.667 1011.73,89.5 1012.2,90.5C1012.73,91.5 1013.33,92 1014,92C1014.67,92 1015.33,92.733 1016,94.2C1016.67,95.733 1017.33,96.6 1018,96.8C1018.67,96.933 1018.83,97.4 1018.5,98.2C1018.17,99.067 1018.33,99.6 1019,99.8C1019.67,99.933 1020.6,104.667 1021.8,114C1022.93,123.333 1023.67,231.333 1024,438C1024.33,644.667 1025.83,750.833 1028.5,756.5C1031.17,762.167 1033.6,766.4 1035.8,769.2C1037.93,772.067 1039.4,774.4 1040.2,776.2C1041.07,778.067 1041.67,778.333 1042,777C1042.33,775.667 1042.6,775 1042.8,775L1043,775L1043.5,792.8C1043.83,804.6 1044.83,810.5 1046.5,810.5L1052,810.5L1052.2,810.8L1052.5,811L1052.8,812L1053,813L1044.5,813.2L1036,813.5L1036,814L1018.5,813.8C1006.83,813.6 997.5,813 990.5,812C983.5,811 969.333,810.267 948,809.8C926.667,809.267 915.4,807.333 914.2,804L912.5,799L912.2,798.8L912,798.5L909,798.5L908.8,798.8L908.2,799.2L907.8,799.8L907.5,800L907,801C906.667,801.667 906.067,803.067 905.2,805.2C904.4,807.4 898.167,809.167 886.5,810.5C874.833,811.833 859.333,812.667 840,813C820.667,813.333 808.667,813 804,812L797,810.5L797,810L797.5,809.8L798,809.5L794,808.5L789,807.5L795,807.2C799,807.067 801,806.667 801,806C801,805.333 802.667,805.267 806,805.8C809.333,806.267 812,806.5 814,806.5L820,806.5L823,805.5L818,804.5L817.8,804.2C817.6,804.067 817.067,803.4 816.2,802.2L815,800.5L810,799.5L817,798.5L818,798.2C818.667,798.067 819,797.5 819,796.5C819,795.5 819.333,794.933 820,794.8C820.667,794.6 827.833,794.333 841.5,794L862,793.5L867,792.5L867,792L871,791.8C873.667,791.6 877.667,791.167 883,790.5C888.333,789.833 893.333,788.667 898,787C902.667,785.333 911.5,784.333 924.5,784C937.5,783.667 949.067,782.6 959.2,780.8C969.4,778.933 975.667,776.167 978,772.5C980.333,768.833 981.667,752.333 982,723C982.333,693.667 983.6,640 985.8,562L989,445L989.5,445L990,440C990.333,436.667 990.833,426 991.5,408C992.167,390 993,371.833 994,353.5C995,335.167 995.5,293 995.5,227C995.5,161 995,125.5 994,120.5C993,115.5 992.933,113.067 993.8,113.2C994.6,113.4 993.667,112.167 991,109.5C988.333,106.833 982.5,104.733 973.5,103.2C964.5,101.733 959.933,100.667 959.8,100C959.6,99.333 959,99 958,99C957,99 955.733,98.833 954.2,98.5L952,98L952,100L951,99.8L950,99.5L950,99L950.2,97.5L950.5,96L951.5,93L952.5,91L952.8,90L953,89L969,88.2C979.667,87.733 990,87.4 1000,87.2Z" style="fill:rgb(202,168,105);stroke:rgb(202,168,105);stroke-width:0.5px;"/>
        <path d="M868,99L868.5,100L868.8,100.2L869.2,100.8L869.8,101.2L870,101.5L871.5,101.8L873,102L873.2,101L873.5,100L874.8,94.5C875.6,90.833 884.667,88.6 902,87.8C919.333,86.933 930.667,86.733 936,87.2C941.333,87.733 944.067,88.833 944.2,90.5C944.4,92.167 944.5,95.333 944.5,100L944.5,107L944.8,107.2L945,107.5L946,107.8L947,108L947.2,107L947.5,106L948.5,102L949,100.5C949.333,99.5 949.6,99 949.8,99L950,99L950,99.5L951,99.8L952,100L952,98L955.8,98.5C958.267,98.833 959.6,99.333 959.8,100C959.933,100.667 964.5,101.733 973.5,103.2C982.5,104.733 988.333,106.833 991,109.5C993.667,112.167 994.6,113.4 993.8,113.2C992.933,113.067 993,115.5 994,120.5C995,125.5 995.5,161 995.5,227C995.5,293 995,335.167 994,353.5C993,371.833 992.167,390 991.5,408C990.833,426 990.333,436.667 990,440L989.5,445L989,445L989.2,422.5C989.4,407.5 989.5,384.667 989.5,354C989.5,323.333 989,281.333 988,228C987,174.667 986,145.167 985,139.5C984,133.833 982.6,130.067 980.8,128.2C978.933,126.4 967.333,125.333 946,125C924.667,124.667 910.833,125.5 904.5,127.5C898.167,129.5 874.833,130.267 834.5,129.8L774,129L771.5,128.8L769,128.5L762.5,128.5C760.833,128.5 755.5,128.667 746.5,129C737.5,129.333 733.5,129.333 734.5,129C735.5,128.667 730.833,128.5 720.5,128.5L705,128.5L705.2,128.2L705.8,127.8L706,127.5L721.5,126C731.833,125 738.167,124.5 740.5,124.5L747,124.5L749,123.5L749.2,123.2L749.8,122.8L750,122.5L747,121.5L743.5,121C741.167,120.667 732.5,120.5 717.5,120.5C702.5,120.5 688.333,120 675,119C661.667,118 644.833,117.333 624.5,117C604.167,116.667 591.333,117.5 586,119.5C580.667,121.5 575.833,122.833 571.5,123.5C567.167,124.167 559.167,122.5 547.5,118.5C535.833,114.5 525,112.333 515,112C505,111.667 498.5,112 495.5,113C492.5,114 488.667,114.5 484,114.5L477,114.5L474,113.5L473.8,113.2L473.2,112.8L473,112.5L473.2,112.2L473.5,112L473.8,111L474.2,109L474.5,108L477.8,97.5C479.933,90.5 485,87.267 493,87.8C501,88.267 508.833,88.833 516.5,89.5C524.167,90.167 537.5,90.333 556.5,90C575.5,89.667 589.167,88.833 597.5,87.5C605.833,86.167 616.833,85.267 630.5,84.8C644.167,84.267 651.267,85.833 651.8,89.5C652.267,93.167 652.667,95.833 653,97.5L653.5,100L654.5,102L654.8,102.2L655.2,102.8L655.8,103.2L656.2,103.8L656.8,104.2L657,104.5L659,104.5L659.2,104.2L659.8,103.8L660.2,103.2L660.5,103L661.5,101L664.5,92.5C666.5,86.833 675.733,84.067 692.2,84.2C708.733,84.4 720,85 726,86C732,87 744.833,87.5 764.5,87.5C784.167,87.5 797.333,87.167 804,86.5C810.667,85.833 816.167,86.167 820.5,87.5C824.833,88.833 833.5,89.6 846.5,89.8C859.5,89.933 866.267,91.333 866.8,94C867.267,96.667 867.667,98.333 868,99ZM956.2,99.8C956.067,99.6 956.067,99.4 956.2,99.2C956.4,99.067 956.5,99.167 956.5,99.5C956.5,99.833 956.4,99.933 956.2,99.8Z" style="fill:rgb(209,173,111);stroke:rgb(209,173,111);stroke-width:0.5px;"/>
        <path d="M1013.2,88L1015,87L1023,87L1023,87.5L1030,87.8L1037,88L1038.8,302.5C1039.93,445.5 1040.67,555.333 1041,632C1041.33,708.667 1041.67,747.5 1042,748.5C1042.33,749.5 1042.6,754.167 1042.8,762.5L1043,775L1042.8,775C1042.6,775 1042.33,775.667 1042,777C1041.67,778.333 1041.07,778.067 1040.2,776.2C1039.4,774.4 1037.93,772.067 1035.8,769.2C1033.6,766.4 1031.17,762.167 1028.5,756.5C1025.83,750.833 1024.33,644.667 1024,438C1023.67,231.333 1022.93,123.333 1021.8,114C1020.6,104.667 1019.67,99.933 1019,99.8C1018.33,99.6 1018.17,99.067 1018.5,98.2C1018.83,97.4 1018.67,96.933 1018,96.8C1017.33,96.6 1016.67,95.733 1016,94.2C1015.33,92.733 1014.67,92 1014,92C1013.33,92 1012.73,91.5 1012.2,90.5C1011.73,89.5 1012.07,88.667 1013.2,88Z" style="fill:rgb(154,114,45);stroke:rgb(154,114,45);stroke-width:0.5px;"/>
        <path d="M129.5,88L144,88L144,88.5L144.2,88.8L144.8,89.2L145,89.5L151,90.5L150.8,90.8L150.5,91L148.5,95.5C147.167,98.5 146.4,100.5 146.2,101.5C146.067,102.5 145.4,103.333 144.2,104C143.067,104.667 142.667,108 143,114C143.333,120 144.267,125 145.8,129C147.267,133 149.067,135.667 151.2,137C153.4,138.333 156,141.667 159,147C162,152.333 163.333,157.833 163,163.5C162.667,169.167 160.6,175.067 156.8,181.2C152.933,187.4 150.067,191.067 148.2,192.2C146.4,193.4 145.5,233.667 145.5,313C145.5,392.333 146,484.167 147,588.5C148,692.833 149,749.667 150,759C151,768.333 152.5,777.333 154.5,786C156.5,794.667 157.5,800.5 157.5,803.5C157.5,806.5 157.6,808.067 157.8,808.2L158,808.5L156,809.5L155.8,809.8L155.5,810L155.2,810.5L155,811L148.5,811.2C144.167,811.4 138,811.6 130,811.8L118,812L115,812L115.2,806.5C115.4,802.833 117.267,682.167 120.8,444.5C124.267,206.833 127.167,88 129.5,88Z" style="fill:rgb(158,117,48);stroke:rgb(158,117,48);stroke-width:0.5px;"/>
        <path d="M1086,69.8L1088,68L1087.8,69.5L1087.5,71L1087.2,71.2L1087,71.5L1087.2,71.8L1087.8,72.2L1088,72.5L1094,73.8C1098,74.6 1098.27,191 1094.8,423C1091.27,655 1089.17,776.5 1088.5,787.5C1087.83,798.5 1087.5,805.833 1087.5,809.5L1087.5,815L1087.8,815.5L1088,816L1087,815.8L1086,815.5L1085.8,815.2L1085.5,815L1085,815L1085,814.5L1084,814.2L1083,814L1082.8,812.5L1082,808.5C1081.67,806.833 1081.67,714.5 1082,531.5C1082.33,348.5 1083.33,227 1085,167C1086.67,107 1086.93,76.067 1085.8,74.2C1084.6,72.4 1084.67,70.933 1086,69.8Z" style="fill:rgb(199,162,97);stroke:rgb(199,162,97);stroke-width:0.5px;"/>
        <path d="M75.5,97L77.5,90L78,90L78.8,193C79.267,261.667 80.333,381 82,551C83.667,721 84.333,807.333 84,810C83.667,812.667 83.4,814.067 83.2,814.2L82.8,814.8L82.5,815L82.2,815.5L82,816L81.5,816.2C81.167,816.4 78.5,816.667 73.5,817L66,817.5L65,817.8L64,818L64,816L65.5,815.8L67,815.5L65,814.5L66,814C66.667,813.667 67.067,813.4 67.2,813.2C67.4,813.067 67.5,740.333 67.5,595C67.5,449.667 68,338.333 69,261C70,183.667 71,138.167 72,124.5C73,110.833 74.167,101.667 75.5,97Z" style="fill:rgb(202,165,100);stroke:rgb(202,165,100);stroke-width:0.5px;"/>
    </g>
</svg>
