<?xml version="1.0" encoding="UTF-8" standalone="no"?>
<!DOCTYPE svg PUBLIC "-//W3C//DTD SVG 1.1//EN" "http://www.w3.org/Graphics/SVG/1.1/DTD/svg11.dtd">
<svg width="100%" height="100%" viewBox="0 0 2900 1500" version="1.1" xmlns="http://www.w3.org/2000/svg" xmlns:xlink="http://www.w3.org/1999/xlink" xml:space="preserve" xmlns:serif="http://www.serif.com/" style="fill-rule:evenodd;clip-rule:evenodd;stroke-linejoin:round;stroke-miterlimit:2;">
    <g id="Layer-1" serif:id="Layer 1">
        <g>
            <g transform="matrix(1500,-4.045e-14,-4.045e-14,-1500,700,750)">
                <rect x="-0.467" y="-0.5" width="1.933" height="1" style="fill:url(#_Linear1);"/>
            </g>
            <g transform="matrix(1,0,0,1,2900,1437.04)">
                <path d="M0,-569.418C0,-569.418 -83.354,-603.64 -120.834,-595.418C-158.313,-587.196 -239.357,-569.418 -239.357,-569.418C-239.357,-569.418 -343.239,-624.505 -402.777,-625.418C-462.315,-626.331 -531.357,-569.418 -531.357,-569.418C-531.357,-569.418 -660.195,-595.503 -703.748,-597.418C-747.301,-599.333 -871.357,-569.418 -871.357,-569.418C-871.357,-569.418 -905.668,-592.418 -939.013,-593.418C-972.357,-594.418 -1003.36,-569.418 -1003.36,-569.418C-1003.36,-569.418 -1081.6,-583.003 -1115.44,-587.418C-1149.28,-591.833 -1235.36,-569.418 -1235.36,-569.418C-1235.36,-569.418 -1339.12,-588.003 -1369.44,-591.418C-1399.77,-594.833 -1516.76,-569.418 -1516.76,-569.418C-1516.76,-569.418 -1617.02,-602.418 -1655.19,-599.418C-1693.36,-596.418 -1765.75,-569.418 -1765.75,-569.418C-1765.75,-569.418 -1879.7,-591.156 -1933.33,-585.833C-1986.97,-580.51 -2098.73,-569.418 -2098.73,-569.418C-2098.73,-569.418 -2176.25,-601.246 -2234.3,-606.832C-2292.36,-612.418 -2475.22,-569.418 -2475.22,-569.418C-2475.22,-569.418 -2629.31,-590.248 -2658.33,-590.333C-2687.36,-590.418 -2791.7,-569.418 -2791.7,-569.418C-2791.7,-569.418 -2830.22,-589.418 -2842.29,-591.418C-2854.36,-593.418 -2900,-569.418 -2900,-569.418L-2900,56.913L0,56.913L0,-569.418Z" style="fill:rgb(16,120,123);fill-rule:nonzero;"/>
            </g>
            <g transform="matrix(602.044,-2.36263e-14,-2.36263e-14,-602.044,1148.98,1198.98)">
                <rect x="-1.908" y="-0.5" width="4.817" height="1" style="fill:url(#_Linear2);"/>
            </g>
            <g transform="matrix(1,0,0,1,2095.59,407.521)">
                <path d="M0,202.363C-375.093,188.7 -647.704,200.699 -647.704,200.699C-647.704,200.699 -256.489,129.125 -204.836,129.125C-204.836,129.125 -285.936,12.446 32.094,-18.709C286.985,-43.679 508.201,2.936 575.244,51.207C648.6,104.022 509.702,114.145 509.702,114.145C509.702,114.145 646.051,117.474 710.828,150.764C710.828,150.764 434.269,154.092 371.908,170.738C371.908,170.738 495.749,246.042 -19.421,236.054C-84.576,234.792 54.307,204.342 0,202.363" style="fill:white;fill-rule:nonzero;"/>
            </g>
            <g transform="matrix(1,0,0,1,2467.5,596.04)">
                <path d="M0,-17.781C61.779,-34.271 333.771,-37.692 338.841,-37.755C95.34,-75.304 -319.367,-46.384 -379.618,-41.627C-442.869,-36.634 -276.42,-19.989 -389.605,-19.989C-482.927,-19.989 -881.007,3.585 -1017.86,11.859C-1019.01,12.07 -1019.61,12.18 -1019.61,12.18C-1019.61,12.18 -747.001,0.181 -371.908,13.844C-317.602,15.823 -456.484,46.273 -391.329,47.535C123.841,57.523 0,-17.781 0,-17.781" style="fill:rgb(159,208,222);fill-rule:nonzero;"/>
            </g>
            <g transform="matrix(1,0,0,1,475.761,243.336)">
                <path d="M0,222.475C-255.125,213.182 -440.546,221.343 -440.546,221.343C-440.546,221.343 -118.137,156.693 -83.004,156.693C-83.004,156.693 -158.646,101.482 57.666,80.291C97.666,-29.709 463.666,65.291 346.683,162.472C381.812,164.689 439.422,164.737 483.482,187.379C483.482,187.379 295.375,189.643 252.959,200.965C252.959,200.965 337.192,252.184 -13.209,245.391C-57.526,244.532 36.938,223.822 0,222.475" style="fill:white;fill-rule:nonzero;"/>
            </g>
            <g transform="matrix(1,0,0,1,728.721,456.394)">
                <path d="M0,-12.094C42.021,-23.31 227.02,-25.636 230.468,-25.679C64.847,-51.219 -217.223,-31.549 -258.203,-28.313C-301.225,-24.917 -188.011,-13.595 -264.997,-13.595C-328.47,-13.595 -599.231,2.438 -692.312,8.066C-693.098,8.21 -693.506,8.284 -693.506,8.284C-693.506,8.284 -508.085,0.123 -252.959,9.416C-216.022,10.763 -310.485,31.473 -266.168,32.332C84.232,39.125 0,-12.094 0,-12.094" style="fill:rgb(159,208,222);fill-rule:nonzero;"/>
            </g>
            <g transform="matrix(1,0,0,1,1044.59,133.449)">
                <path d="M0,96.318C-177.926,89.837 -307.24,95.528 -307.24,95.528C-307.24,95.528 -121.667,61.577 -97.165,61.577C-97.165,61.577 -96.552,13.281 -13.552,34.281C-16.052,29.281 -11.425,0.659 15.224,-8.548C50.448,-20.719 76.448,-2.719 79.448,9.281C90.448,-3.219 119.964,-14.729 147.448,-12.599C213.926,-7.448 252.26,9.778 272.869,24.616C307.666,49.67 241.779,54.471 241.779,54.471C241.779,54.471 306.456,56.051 337.184,71.842C337.184,71.842 205.997,73.421 176.416,81.317C176.416,81.317 235.161,117.037 -9.212,112.3C-40.119,111.701 25.76,97.257 0,96.318" style="fill:white;fill-rule:nonzero;"/>
            </g>
            <g transform="matrix(1,0,0,1,1221,223.2)">
                <path d="M0,-8.434C29.306,-16.256 158.325,-17.879 160.73,-17.909C45.226,-35.721 -151.493,-22.002 -180.072,-19.746C-210.076,-17.377 -131.12,-9.481 -184.811,-9.481C-229.077,-9.481 -417.908,1.701 -482.823,5.626C-483.372,5.726 -483.656,5.778 -483.656,5.778C-483.656,5.778 -354.342,0.086 -176.416,6.567C-150.655,7.506 -216.535,21.95 -185.627,22.549C58.745,27.287 0,-8.434 0,-8.434" style="fill:rgb(159,208,222);fill-rule:nonzero;"/>
            </g>
            <g transform="matrix(1,0,0,1,2900,1100.28)">
                <path d="M0,7.449L-209.473,7.449C-277.357,6.775 -344.357,8.257 -412.357,9.738C-427.357,10.232 -442.357,9.244 -457.357,10.232C-577.357,15.171 -702.357,24.059 -816.357,-2.607C-846.357,-9.522 -877.69,-0.595 -910.69,4.344C-978.69,15.207 -1049.36,19.614 -1121.36,14.675C-1268.36,4.305 -1406.36,-7.052 -1554.36,10.726C-1608.36,17.146 -1658.36,10.726 -1708.36,0.356C-1742.36,-7.052 -1780.36,-3.595 -1817.36,0.848C-1907.36,12.208 -1995.36,21.59 -2086.36,13.689C-2164.36,6.775 -2238.36,8.257 -2314.34,10.732C-2323.48,10.911 -2332.61,10.994 -2341.73,11.003C-2405.62,11.053 -2469.55,7.293 -2533.93,7.449L-2900,7.449L-2900,1.005L-2540.42,1.005C-2538,1.013 -2535.75,1.02 -2533.43,1.031C-2475.87,1.703 -2418.36,5.93 -2360.86,5.892C-2349.36,5.884 -2337.86,5.706 -2326.36,5.296C-2249.36,0.848 -2173.36,1.838 -2093.36,8.751C-1993.36,17.146 -1900.36,5.293 -1801.36,-6.558C-1771.36,-10.016 -1741.36,-12.977 -1714.36,-7.546C-1608.36,14.675 -1502.36,-0.138 -1394.36,-6.065C-1320.36,-10.509 -1249.36,-2.607 -1176.36,5.787C-1076.36,17.638 -1024.02,0.18 -930.024,-12.656C-902.024,-16.61 -835.357,-15.448 -809.357,-9.522C-696.357,17.638 -572.357,10.232 -452.357,4.8C-412.357,2.824 -372.357,2.824 -332.357,1.342C-291.357,-0.138 -250.357,1.342 -209.473,1.005L0,1.005L0,7.449Z" style="fill:white;fill-rule:nonzero;"/>
            </g>
            <g transform="matrix(1,0,0,1,0,1101.45)">
                <path d="M0,6.287L209.473,6.287C277.357,5.613 344.357,7.095 412.357,8.576C427.357,9.07 442.357,8.082 457.357,9.07C577.357,14.009 702.357,22.897 816.357,-3.769C846.357,-10.684 882.357,-9.695 915.357,-4.757C983.357,6.106 1049.36,18.452 1121.36,13.513C1268.36,3.143 1406.36,-8.214 1554.36,9.564C1608.36,15.984 1658.36,9.564 1708.36,-0.806C1742.36,-8.214 1780.36,-4.757 1817.36,-0.314C1907.36,11.046 1995.36,20.428 2086.36,12.527C2164.36,5.613 2238.36,7.095 2314.34,9.57C2323.48,9.749 2332.61,9.832 2341.73,9.841C2405.62,9.891 2469.55,6.131 2533.93,6.287L2900,6.287L2900,-0.157L2540.42,-0.157C2538,-0.149 2535.75,-0.142 2533.43,-0.131C2475.87,0.541 2418.36,4.768 2360.86,4.73C2349.36,4.722 2337.86,4.544 2326.36,4.134C2249.36,-0.314 2173.36,0.676 2093.36,7.589C1993.36,15.984 1900.36,4.131 1801.36,-7.72C1771.36,-11.178 1741.36,-14.139 1714.36,-8.708C1608.36,13.513 1502.36,-1.3 1394.36,-7.227C1320.36,-11.671 1249.36,-3.769 1176.36,4.625C1076.36,16.476 987.357,0.18 893.357,-12.657C865.357,-16.61 835.357,-16.61 809.357,-10.684C696.357,16.476 572.357,9.07 452.357,3.638C412.357,1.662 372.357,1.662 332.357,0.18C291.357,-1.3 250.357,0.18 209.473,-0.157L0,-0.157L0,6.287Z" style="fill:white;fill-rule:nonzero;"/>
            </g>
            <g transform="matrix(1,0,0,1,0,1145.42)">
                <path d="M0,6.288L209.473,6.288C277.357,5.613 344.357,7.096 412.357,8.577C427.357,9.071 442.357,8.083 457.357,9.071C577.357,14.01 702.357,22.897 816.357,-3.769C846.357,-10.683 882.357,-9.695 915.357,-4.756C983.357,6.107 1049.36,18.453 1121.36,13.514C1268.36,3.144 1406.36,-8.213 1554.36,9.564C1608.36,15.985 1658.36,9.564 1708.36,-0.805C1742.36,-8.213 1780.36,-4.756 1817.36,-0.314C1907.36,11.047 1995.36,20.429 2086.36,12.528C2164.36,5.613 2238.36,7.096 2314.34,9.571C2323.48,9.749 2332.61,9.833 2341.73,9.842C2405.62,9.892 2469.55,6.131 2533.93,6.288L2900,6.288L2900,-0.156L2540.42,-0.156C2538,-0.148 2535.75,-0.142 2533.43,-0.131C2475.87,0.541 2418.36,4.769 2360.86,4.731C2349.36,4.723 2337.86,4.544 2326.36,4.134C2249.36,-0.314 2173.36,0.677 2093.36,7.589C1993.36,15.985 1900.36,4.132 1801.36,-7.72C1771.36,-11.177 1741.36,-14.138 1714.36,-8.707C1608.36,13.514 1502.36,-1.299 1394.36,-7.226C1320.36,-11.671 1249.36,-3.769 1176.36,4.626C1076.36,16.477 987.357,0.181 893.357,-12.656C865.357,-16.609 835.357,-16.609 809.357,-10.683C696.357,16.477 572.357,9.071 452.357,3.638C412.357,1.662 372.357,1.662 332.357,0.181C291.357,-1.299 250.357,0.181 209.473,-0.156L0,-0.156L0,6.288Z" style="fill:white;fill-rule:nonzero;"/>
            </g>
            <g transform="matrix(1,0,0,1,2900,1160.82)">
                <path d="M0,6.288L-209.473,6.288C-277.357,5.613 -344.357,7.095 -412.357,8.577C-427.357,9.07 -442.357,8.083 -457.357,9.07C-577.357,14.01 -702.357,22.897 -816.357,-3.769C-846.357,-10.683 -882.357,-9.695 -915.357,-4.756C-983.357,6.107 -1049.36,18.452 -1121.36,13.514C-1268.36,3.143 -1406.36,-8.214 -1554.36,9.564C-1608.36,15.985 -1658.36,9.564 -1708.36,-0.805C-1742.36,-8.214 -1780.36,-4.756 -1817.36,-0.314C-1907.36,11.046 -1995.36,20.428 -2086.36,12.528C-2164.36,5.613 -2238.36,7.095 -2314.34,9.571C-2323.48,9.749 -2332.61,9.833 -2341.73,9.842C-2405.62,9.891 -2469.55,6.131 -2533.93,6.288L-2900,6.288L-2900,-0.156L-2540.42,-0.156C-2538,-0.149 -2535.75,-0.142 -2533.43,-0.131C-2475.87,0.541 -2418.36,4.769 -2360.86,4.73C-2349.36,4.723 -2337.86,4.544 -2326.36,4.134C-2249.36,-0.314 -2173.36,0.677 -2093.36,7.589C-1993.36,15.985 -1900.36,4.132 -1801.36,-7.72C-1771.36,-11.177 -1741.36,-14.138 -1714.36,-8.707C-1608.36,13.514 -1502.36,-1.299 -1394.36,-7.226C-1320.36,-11.671 -1249.36,-3.769 -1176.36,4.626C-1076.36,16.476 -987.357,0.181 -893.357,-12.656C-865.357,-16.609 -835.357,-16.609 -809.357,-10.683C-696.357,16.476 -572.357,9.07 -452.357,3.638C-412.357,1.662 -372.357,1.662 -332.357,0.181C-291.357,-1.299 -250.357,0.181 -209.473,-0.156L0,-0.156L0,6.288Z" style="fill:white;fill-rule:nonzero;"/>
            </g>
            <g transform="matrix(1,0,0,1,0,1160.82)">
                <path d="M0,6.288L209.473,6.288C277.357,5.613 344.357,7.095 412.357,8.577C427.357,9.07 442.357,8.083 457.357,9.07C577.357,14.01 702.357,22.897 816.357,-3.769C846.357,-10.683 882.357,-9.695 915.357,-4.756C983.357,6.107 1049.36,18.452 1121.36,13.514C1268.36,3.143 1406.36,-8.214 1554.36,9.564C1608.36,15.985 1658.36,9.564 1708.36,-0.805C1742.36,-8.214 1780.36,-4.756 1817.36,-0.314C1907.36,11.046 1995.36,20.428 2086.36,12.528C2164.36,5.613 2238.36,7.095 2314.34,9.571C2323.48,9.749 2332.61,9.833 2341.73,9.842C2405.62,9.891 2469.55,6.131 2533.93,6.288L2900,6.288L2900,-0.156L2540.42,-0.156C2538,-0.149 2535.75,-0.142 2533.43,-0.131C2475.87,0.541 2418.36,4.769 2360.86,4.73C2349.36,4.723 2337.86,4.544 2326.36,4.134C2249.36,-0.314 2173.36,0.677 2093.36,7.589C1993.36,15.985 1900.36,4.132 1801.36,-7.72C1771.36,-11.177 1741.36,-14.138 1714.36,-8.707C1608.36,13.514 1502.36,-1.299 1394.36,-7.226C1320.36,-11.671 1249.36,-3.769 1176.36,4.626C1076.36,16.476 987.357,0.181 893.357,-12.656C865.357,-16.609 835.357,-16.609 809.357,-10.683C696.357,16.476 572.357,9.07 452.357,3.638C412.357,1.662 372.357,1.662 332.357,0.181C291.357,-1.299 250.357,0.181 209.473,-0.156L0,-0.156L0,6.288Z" style="fill:white;fill-rule:nonzero;"/>
            </g>
            <g transform="matrix(1,0,0,1,0,1204.79)">
                <path d="M0,6.287L209.473,6.287C277.357,5.613 344.357,7.095 412.357,8.576C427.357,9.07 442.357,8.083 457.357,9.07C577.357,14.01 702.357,22.897 816.357,-3.769C846.357,-10.684 882.357,-9.695 915.357,-4.757C983.357,6.107 1049.36,18.452 1121.36,13.514C1268.36,3.143 1406.36,-8.214 1554.36,9.564C1608.36,15.985 1658.36,9.564 1708.36,-0.806C1742.36,-8.214 1780.36,-4.757 1817.36,-0.314C1907.36,11.046 1995.36,20.428 2086.36,12.527C2164.36,5.613 2238.36,7.095 2314.34,9.57C2323.48,9.749 2332.61,9.833 2341.73,9.841C2405.62,9.891 2469.55,6.131 2533.93,6.287L2900,6.287L2900,-0.157L2540.42,-0.157C2538,-0.149 2535.75,-0.142 2533.43,-0.131C2475.87,0.541 2418.36,4.769 2360.86,4.73C2349.36,4.722 2337.86,4.544 2326.36,4.134C2249.36,-0.314 2173.36,0.676 2093.36,7.589C1993.36,15.985 1900.36,4.132 1801.36,-7.72C1771.36,-11.178 1741.36,-14.139 1714.36,-8.708C1608.36,13.514 1502.36,-1.3 1394.36,-7.227C1320.36,-11.671 1249.36,-3.769 1176.36,4.625C1076.36,16.476 987.357,0.181 893.357,-12.657C865.357,-16.61 835.357,-16.61 809.357,-10.684C696.357,16.476 572.357,9.07 452.357,3.638C412.357,1.662 372.357,1.662 332.357,0.181C291.357,-1.3 250.357,0.181 209.473,-0.157L0,-0.157L0,6.287Z" style="fill:white;fill-rule:nonzero;"/>
            </g>
        </g>
        <g transform="matrix(1,0,0,1,-163.457,15.3591)">
            <text x="851.163px" y="330.233px" style="font-family:'CaesarDressing', 'Caesar Dressing';font-size:198.044px;">Odysseus irre Reise</text>
        </g>
    </g>
    <defs>
        <linearGradient id="_Linear1" x1="0" y1="0" x2="1" y2="0" gradientUnits="userSpaceOnUse" gradientTransform="matrix(-4.06667e-08,1,-1,-4.06667e-08,0.5,-0.5)"><stop offset="0" style="stop-color:rgb(205,247,250);stop-opacity:1"/><stop offset="1" style="stop-color:rgb(160,215,224);stop-opacity:1"/></linearGradient>
        <linearGradient id="_Linear2" x1="0" y1="0" x2="1" y2="0" gradientUnits="userSpaceOnUse" gradientTransform="matrix(-5.06608e-08,1,-1,-5.06608e-08,0.500001,-0.500001)"><stop offset="0" style="stop-color:rgb(27,213,174);stop-opacity:1"/><stop offset="1" style="stop-color:rgb(16,178,163);stop-opacity:1"/></linearGradient>
    </defs>
</svg>
