<svg xmlns="http://www.w3.org/2000/svg" xmlns:xlink="http://www.w3.org/1999/xlink" width="2560" height="1600" viewBox="0 0 2560 1600">
  <defs>
    <linearGradient id="a" x1="1274.894" y1="1612.021" x2="1274.894" y2="-17.298" gradientUnits="userSpaceOnUse">
      <stop offset="0" stop-color="#cdf7fa"/>
      <stop offset="0.298" stop-color="#c9f4f8"/>
      <stop offset="0.597" stop-color="#bdecf1"/>
      <stop offset="0.894" stop-color="#a9dde5"/>
      <stop offset="1" stop-color="#a0d7e0"/>
    </linearGradient>
    <linearGradient id="b" data-name="Unbenannter Verlauf 154" x1="1274.894" y1="1612.021" x2="1274.894" y2="958.073" gradientUnits="userSpaceOnUse">
      <stop offset="0" stop-color="#52b8a1"/>
      <stop offset="0.221" stop-color="#4eb8a2"/>
      <stop offset="0.442" stop-color="#42b6a4"/>
      <stop offset="0.663" stop-color="#2eb4a8"/>
      <stop offset="0.884" stop-color="#12b2ad"/>
      <stop offset="1" stop-color="#00b0b1"/>
    </linearGradient>
  </defs>
  <rect x="-39.489" y="-17.298" width="2628.766" height="1629.319" fill="url(#a)"/>
  <path d="M2589.277,925.129s-75.559-37.172-109.533-28.241l-107.438,28.241s-94.166-59.836-148.135-60.828-116.554,60.828-116.554,60.828-116.788-28.334-156.268-30.414-151.933,30.414-151.933,30.414-31.1-24.983-61.327-26.069-58.327,26.069-58.327,26.069-70.921-14.756-101.6-19.552-108.7,19.552-108.7,19.552-94.058-20.187-121.546-23.9-133.539,23.9-133.539,23.9S1123.5,889.284,1088.9,892.543s-100.222,32.586-100.222,32.586S885.386,901.517,836.766,907.3l-149.931,17.83s-70.266-34.572-122.89-40.64-218.379,40.64-218.379,40.64S205.885,902.5,179.575,902.411,58.683,925.129,58.683,925.129s-34.914-21.724-45.856-23.9-52.316,23.9-52.316,23.9v680.329H2589.277Z" fill="#10787b"/>
  <rect x="-39.489" y="958.073" width="2628.766" height="653.948" fill="url(#b)"/>
  <g>
    <path d="M1860.105,645.166c-340.011-14.841-587.125-1.808-587.125-1.808s354.625-77.744,401.447-77.744c0,0-73.515-126.738,214.77-160.579,231.052-27.123,431.577,23.511,492.35,75.943,66.495,57.369-59.412,68.364-59.412,68.364s123.6,3.617,182.315,39.776c0,0-250.693,3.616-307.221,21.7,0,0,112.258,81.8-354.729,70.948C1783.439,680.39,1909.332,647.316,1860.105,645.166Z" fill="#fff"/>
    <path d="M2197.229,610.814c56-17.911,302.553-21.627,307.149-21.695-220.726-40.787-596.646-9.373-651.262-4.207-57.335,5.424,93.546,23.5-9.053,23.5-84.593,0-445.441,25.607-569.492,34.593l-1.591.349s247.114-13.033,587.125,1.808c49.227,2.15-76.666,35.224-17.605,36.6C2309.487,692.61,2197.229,610.814,2197.229,610.814Z" fill="#9fd0de"/>
  </g>
  <g>
    <path d="M391.774,488.671C160.511,478.576-7.568,487.442-7.568,487.442s292.255-70.224,324.1-70.224c0,0-68.568-59.971,127.513-82.989,36.259-119.484,368.027-16.293,261.985,89.266,31.844,2.408,84.066,2.46,124.005,27.055,0,0-170.514,2.459-208.962,14.756,0,0,76.354,55.635-241.274,48.257C339.629,512.63,425.257,490.134,391.774,488.671Z" fill="#fff"/>
    <path d="M621.075,465.306c38.09-12.182,205.786-14.71,208.913-14.756-150.131-27.742-405.819-6.376-442.967-2.861-39,3.689,63.627,15.986-6.158,15.986-57.537,0-302.974,17.416-387.349,23.53l-1.082.237s168.079-8.866,399.342,1.229c33.483,1.463-52.145,23.959-11.973,24.892C697.429,520.941,621.075,465.306,621.075,465.306Z" fill="#9fd0de"/>
  </g>
  <g>
    <path d="M907.4,232.278c-161.285-7.041-278.5-.858-278.5-.858s168.218-36.878,190.428-36.878c0,0,.555-52.46,75.792-29.649-2.266-5.431,1.928-36.521,26.084-46.522,31.93-13.22,55.5,6.332,58.218,19.366,9.971-13.577,36.726-26.08,61.64-23.767,60.261,5.6,95.009,24.307,113.69,40.424,31.543,27.213-28.182,32.429-28.182,32.429s58.628,1.716,86.482,18.868c0,0-118.917,1.715-145.732,10.292,0,0,53.251,38.8-168.266,33.654C871.034,248.987,930.752,233.3,907.4,232.278Z" fill="#fff"/>
    <path d="M1067.316,215.983c26.565-8.5,143.517-10.259,145.7-10.292-104.7-19.347-283.022-4.446-308.928-2-27.2,2.573,44.374,11.15-4.295,11.15-40.127,0-211.3,12.145-270.14,16.408l-.755.166s117.22-6.183,278.505.858c23.351,1.02-36.367,16.709-8.351,17.359C1120.567,254.783,1067.316,215.983,1067.316,215.983Z" fill="#9fd0de"/>
  </g>
  <g>
    <g>
      <path d="M2599.42,1114.186H2409.539c-61.536-.732-122.269.877-183.909,2.486-13.6.537-27.2-.537-40.792.537-108.776,5.364-222.085,15.019-325.423-13.946-27.194-7.511-55.6,2.185-85.51,7.549-61.64,11.8-125.7,16.587-190.963,11.222-133.252-11.263-258.345-23.6-392.5-4.289-48.95,6.974-94.273,0-139.6-11.264-30.82-8.047-65.266-4.292-98.805.535-81.583,12.339-161.352,22.529-243.841,13.948-70.705-7.51-137.784-5.9-206.659-3.212q-12.432.291-24.832.294c-57.908.054-115.866-4.03-174.225-3.86H-29.346v-7H296.6c2.195.009,4.232.017,6.338.028,52.178.73,104.309,5.322,156.432,5.281,10.425-.01,20.85-.2,31.275-.648a1212.369,1212.369,0,0,1,211.207,3.753c90.647,9.119,174.949-3.757,264.689-16.629,27.194-3.756,54.389-6.972,78.863-1.073,96.086,24.136,192.172,8.047,290.071,1.609,67.079-4.828,131.438,3.756,197.611,12.873,90.647,12.873,138.085-6.09,223.293-20.033,25.382-4.294,85.813-3.033,109.382,3.4,102.431,29.5,214.833,21.457,323.61,15.556,36.259-2.146,72.517-2.146,108.776-3.756,37.166-1.607,74.331,0,111.392-.366H2599.42Z" fill="#fff"/>
      <path d="M-29.346,1114.186H160.535c61.535-.732,122.269.877,183.909,2.486,13.6.537,27.194-.537,40.791.537,108.776,5.364,222.085,15.019,325.423-13.946,27.194-7.511,59.827-6.438,89.741-1.074,61.64,11.8,121.467,25.21,186.733,19.845,133.251-11.263,258.344-23.6,392.5-4.289,48.949,6.974,94.273,0,139.6-11.264,30.82-8.047,65.266-4.292,98.805.535,81.583,12.339,161.352,22.529,243.841,13.948,70.7-7.51,137.784-5.9,206.66-3.212q12.43.291,24.831.294c57.908.054,115.866-4.03,174.225-3.86H2599.42v-7H2273.473c-2.2.009-4.232.017-6.338.028-52.178.73-104.309,5.322-156.433,5.281-10.424-.01-20.848-.2-31.274-.648a1212.369,1212.369,0,0,0-211.207,3.753c-90.647,9.119-174.948-3.757-264.689-16.629-27.194-3.756-54.388-6.972-78.863-1.073-96.086,24.136-192.172,8.047-290.071,1.609-67.079-4.828-131.438,3.756-197.61,12.873-90.648,12.873-171.323-4.828-256.532-18.772-25.381-4.294-52.575-4.294-76.143,2.144-102.432,29.5-214.834,21.457-323.61,15.556-36.259-2.146-72.518-2.146-108.777-3.756-37.165-1.607-74.331,0-111.391-.366H-29.346Z" fill="#fff"/>
      <path d="M-29.346,1161.956H160.535c61.535-.733,122.269.877,183.909,2.486,13.6.537,27.194-.537,40.791.537,108.776,5.364,222.085,15.018,325.423-13.947,27.194-7.51,59.827-6.438,89.741-1.073,61.64,11.8,121.467,25.21,186.733,19.845,133.251-11.263,258.344-23.6,392.5-4.29,48.949,6.975,94.273,0,139.6-11.263,30.82-8.047,65.266-4.292,98.805.534,81.583,12.34,161.352,22.53,243.841,13.949,70.7-7.511,137.784-5.9,206.66-3.212q12.43.289,24.831.294c57.908.054,115.866-4.031,174.225-3.86H2599.42v-7H2273.473c-2.2.009-4.232.016-6.338.027-52.178.73-104.309,5.323-156.433,5.282-10.424-.01-20.848-.2-31.274-.649a1212.565,1212.565,0,0,0-211.207,3.753c-90.647,9.12-174.948-3.756-264.689-16.629-27.194-3.755-54.388-6.971-78.863-1.072-96.086,24.136-192.172,8.047-290.071,1.609-67.079-4.829-131.438,3.755-197.61,12.873-90.648,12.873-171.323-4.828-256.532-18.772-25.381-4.294-52.575-4.294-76.143,2.144-102.432,29.5-214.834,21.457-323.61,15.555-36.259-2.146-72.518-2.146-108.777-3.755-37.165-1.607-74.331,0-111.391-.366H-29.346Z" fill="#fff"/>
    </g>
    <g>
      <path d="M2599.42,1178.675H2409.539c-61.536-.733-122.269.876-183.909,2.487-13.6.535-27.2-.537-40.792.535-108.776,5.366-222.085,15.019-325.423-13.945-27.194-7.511-59.827-6.438-89.74-1.073-61.64,11.8-121.467,25.209-186.733,19.845-133.252-11.264-258.345-23.6-392.5-4.29-48.95,6.974-94.273,0-139.6-11.263-30.82-8.048-65.266-4.292-98.805.533-81.583,12.339-161.352,22.53-243.841,13.949-70.705-7.511-137.784-5.9-206.659-3.212q-12.432.291-24.832.294c-57.908.053-115.866-4.031-174.225-3.86H-29.346v-7H296.6c2.195.009,4.232.016,6.338.028,52.178.73,104.309,5.323,156.433,5.28,10.424-.008,20.849-.2,31.274-.648a1212.565,1212.565,0,0,1,211.207,3.753c90.647,9.12,174.949-3.755,264.689-16.628,27.194-3.755,54.389-6.972,78.863-1.073,96.086,24.137,192.172,8.047,290.071,1.609,67.079-4.828,131.438,3.756,197.611,12.874,90.647,12.872,171.323-4.829,256.531-18.772,25.381-4.294,52.575-4.294,76.144,2.143,102.431,29.5,214.833,21.456,323.61,15.555,36.259-2.146,72.517-2.146,108.776-3.755,37.166-1.607,74.331,0,111.392-.366H2599.42Z" fill="#fff"/>
      <path d="M-29.346,1178.675H160.535c61.535-.733,122.269.876,183.909,2.487,13.6.535,27.194-.537,40.791.535,108.776,5.366,222.085,15.019,325.423-13.945,27.194-7.511,59.827-6.438,89.741-1.073,61.64,11.8,121.467,25.209,186.733,19.845,133.251-11.264,258.344-23.6,392.5-4.29,48.949,6.974,94.273,0,139.6-11.263,30.82-8.048,65.266-4.292,98.805.533,81.583,12.339,161.352,22.53,243.841,13.949,70.7-7.511,137.784-5.9,206.66-3.212q12.43.291,24.831.294c57.908.053,115.866-4.031,174.225-3.86H2599.42v-7H2273.473c-2.2.009-4.232.016-6.338.028-52.178.73-104.309,5.323-156.433,5.28-10.424-.008-20.848-.2-31.274-.648a1212.565,1212.565,0,0,0-211.207,3.753c-90.647,9.12-174.948-3.755-264.689-16.628-27.194-3.755-54.388-6.972-78.863-1.073-96.086,24.137-192.172,8.047-290.071,1.609-67.079-4.828-131.438,3.756-197.61,12.874-90.648,12.872-171.323-4.829-256.532-18.772-25.381-4.294-52.575-4.294-76.143,2.143-102.432,29.5-214.834,21.456-323.61,15.555-36.259-2.146-72.518-2.146-108.777-3.755-37.165-1.607-74.331,0-111.391-.366H-29.346Z" fill="#fff"/>
      <path d="M-29.346,1226.444H160.535c61.535-.732,122.269.877,183.909,2.487,13.6.536,27.194-.536,40.791.536,108.776,5.366,222.085,15.02,325.423-13.945,27.194-7.512,59.827-6.438,89.741-1.074,61.64,11.8,121.467,25.21,186.733,19.846,133.251-11.264,258.344-23.6,392.5-4.29,48.949,6.974,94.273,0,139.6-11.264,30.82-8.047,65.266-4.292,98.805.535,81.583,12.338,161.352,22.529,243.841,13.947,70.7-7.51,137.784-5.9,206.66-3.212q12.43.292,24.831.294c57.908.054,115.866-4.03,174.225-3.86H2599.42v-7H2273.473c-2.2.01-4.232.017-6.338.029-52.178.73-104.309,5.323-156.433,5.28-10.424-.009-20.848-.2-31.274-.648a1212.565,1212.565,0,0,0-211.207,3.753c-90.647,9.12-174.948-3.755-264.689-16.628-27.194-3.756-54.388-6.973-78.863-1.074-96.086,24.138-192.172,8.047-290.071,1.609-67.079-4.827-131.438,3.757-197.61,12.874-90.648,12.873-171.323-4.828-256.532-18.772-25.381-4.294-52.575-4.294-76.143,2.143-102.432,29.5-214.834,21.457-323.61,15.556-36.259-2.146-72.518-2.146-108.777-3.755-37.165-1.608-74.331,0-111.391-.367H-29.346Z" fill="#fff"/>
    </g>
  </g>
  <g>
    <g>
      <polygon points="2590.298 1641.638 -38.468 1641.638 -38.468 1248.897 253.617 1154.043 645.593 1320.764 1232.581 1117.556 1798.249 1329.646 2327.899 1139.08 2590.298 1248.897 2590.298 1641.638" fill="#b5ba4f"/>
      <path d="M1232.581,1117.556s-141.754,90.967-91.523,116.807,400.006,321.6,469.8,407.275h690.8S1746.838,1222.93,1232.581,1117.556Z" fill="#869144"/>
    </g>
    <path d="M2327.9,1139.08s-21.71,117.548,14.549,143.388,162.059-59.411,247.85-33.571C2590.3,1248.9,2432.445,1170.84,2327.9,1139.08Z" fill="#869144"/>
    <path d="M253.617,1154.043s-29.339,23.312,17.3,45.866c63.453,30.685-22.4,170.08,70.944,179.689,77.781,8.007,303.73-58.834,303.73-58.834S356.955,1172.883,253.617,1154.043Z" fill="#869144"/>
  </g>
</svg>
