<svg xmlns="http://www.w3.org/2000/svg" xmlns:xlink="http://www.w3.org/1999/xlink" width="2560" height="1600" viewBox="0 0 2560 1600">
  <defs>
    <linearGradient id="a" x1="-1253.787" y1="804.085" x2="4097.702" y2="804.085" gradientUnits="userSpaceOnUse">
      <stop offset="0" stop-color="#cdf7fa"/>
      <stop offset="0.298" stop-color="#c9f4f8"/>
      <stop offset="0.597" stop-color="#bdecf1"/>
      <stop offset="0.894" stop-color="#a9dde5"/>
      <stop offset="1" stop-color="#a0d7e0"/>
    </linearGradient>
    <linearGradient id="b" data-name="Unbenannter Verlauf 833" x1="-1253.787" y1="931.078" x2="4097.702" y2="931.078" gradientUnits="userSpaceOnUse">
      <stop offset="0" stop-color="#c5f1f2"/>
      <stop offset="0.298" stop-color="#c1edef"/>
      <stop offset="0.597" stop-color="#b5e2e4"/>
      <stop offset="0.894" stop-color="#a1cfd4"/>
      <stop offset="1" stop-color="#98c7cc"/>
    </linearGradient>
    <linearGradient id="c" data-name="Unbenannter Verlauf 905" x1="-1253.787" y1="996.87" x2="4097.702" y2="996.87" gradientUnits="userSpaceOnUse">
      <stop offset="0" stop-color="#b7e5ea"/>
      <stop offset="0.254" stop-color="#b3e2e6"/>
      <stop offset="0.508" stop-color="#a8d8da"/>
      <stop offset="0.762" stop-color="#95c7c6"/>
      <stop offset="1" stop-color="#7cb1ac"/>
    </linearGradient>
  </defs>
  <g>
    <rect x="-1253.787" y="1.362" width="5351.489" height="1605.447" fill="url(#a)"/>
    <path d="M4097.7,1606.809H-1253.787V291.722h773.459c276.983,0,408.318,89.272,755.5,89.272s141.3-125.646,505.55-125.646S1566.6,364.373,1870.3,364.373s1140.386-72.651,1433.046-72.651H4097.7Z" fill="url(#b)"/>
    <path d="M4097.7,1606.809H-1253.787V457.9H-354.9c271.756,0,519.448,76.379,875.321,76.379s370.344-100.619,532.827-138.247,727.84,53.515,1201.3,53.515,688.968,8.353,994.3,8.353H4097.7Z" fill="url(#c)"/>
  </g>
  <polygon points="4077.277 884.003 3643.901 694.009 3168.956 646.427 2776.15 828.751 2429.56 645.258 1985.166 622.655 1572.712 671.711 1287.108 751.983 830.297 735.372 491.167 707.202 -24.471 646.427 -285.383 712.725 -512.845 805.07 -979.868 735.372 -1274.213 884.003 -1274.213 1713.021 4077.277 1713.021 4077.277 884.003" fill="#d5f2f7"/>
  <polygon points="-1497.447 990.612 -999.617 889.572 -491.12 1016.65 -455.003 1009.202 -418.442 833.999 -356.585 833.999 -277.524 972.603 -100.682 936.135 246.696 756.368 725.675 796.681 777.299 809.859 824.373 738.021 872.247 717.277 925.048 847.572 978.018 861.093 1043.794 820.604 1086.881 735.628 1115.605 760.761 1128.23 899.435 1250.672 930.689 1620.262 930.689 1988.202 844.066 2113.034 834.542 2139.599 760.363 2179.199 727.65 2208.775 827.238 2352.26 816.291 2905.801 756.368 3185.89 821.739 3430.072 912.786 3931.424 844.066 4247.404 990.612 4247.404 1808 -1497.447 1808 -1497.447 990.612" fill="#fff"/>
  <g>
    <rect x="-1241.475" y="1412.417" width="5351.489" height="267.923" fill="#3e2d1d"/>
    <rect x="-1241.475" y="1190.128" width="5351.489" height="238.979" fill="#b5ba4f"/>
    <path d="M4110.015,1407.415H3628.326c-24.991,0-10.637-11.892-37.162-11.892-17.039,0-74.523,11.892-92.166,11.892h-95.136c-23.839,0-37.721-14.864-62.434-14.864-26.287,0-63.461,14.864-90.678,14.864H2296.4c-23.716,0-26.693-14.864-50.543-14.864-27.426,0-75.743,14.864-103.313,14.864H993.09c-17.168,0-33.149,7.062-50.17,7.062-19.425,0-39.868-7.062-59.09-7.062H802.443c-22.966,0-50.966,12.636-73.583,12.636-26.011,0-46.581-12.636-72.1-12.636H-481.915c-22.3,0-24.528-11.889-54.258-11.889s-36.421,11.889-58.718,11.889h-646.584v45.909h5351.49Z" fill="#660"/>
    <g>
      <path d="M4110.015,1543.647H2068.7c-4.566,0-9.137,0-13.627-.081-19.561-2.149-41.858-6.609-61.926-4.379-122.639,4.46-245.277,11.149-369,4.46H1216.413c-32.676-2.23-63.893,2.229-97.34-4.46-35.677-6.689-66.894,6.689-100.34,6.689-53.515,4.46-109.26-4.459-162.075-2.229H577.427c-51.477-6.69-100.533,17.838-151.818,4.459-37.906-8.919-71.353-8.919-109.924-4.459H-319.986c-63.818-2.23-128.481,0-193.145-4.46-149.4-6.689-298.792,11.149-449.021,4.46h-279.323v48.707h357.14c92.48.348,183.9.348,276.438-.005q5.922.008,11.891.005H347.635c48.987-4.112,100.272,2.578,149.452.006,3.279-.006,6.53-.006,9.783-.006H971.019c43.254.348,87.85.348,129.585-.031q7.185.036,14.417.031h623.765q137.383.522,274.3-.02,6.774.027,13.57.02H4110.015Z" fill="#261911"/>
      <path d="M4110.015,1467.834H2055c-144.355-4.46-287.061,13.379-430.765,0H1216.364c-110.67-2.23-219.929,2.23-331.069,0H567.848c-77.575,2.23-155.618,2.23-234.752,0h-628.41c-61.732,4.46-121.936,0-182.141-4.46-149.4-8.919-296.561,8.92-446.31,4.46h-317.71v24.353h279.324c152.458,4.634,304.084.175,455.709-15.434,40.136-2.23,75.813,15.609,113.719,20.068,33.447,4.46,66.894-6.689,99.844-4.634h608.63c27.356,2.4,51.884-6.515,78.641.175,28.987,6.689,55.745,13.378,84.732,6.689,40.136-8.919,78.043-6.689,118.459-6.864H856.659c86.261,2.4,173.222.175,260.184-2.055,37.907-2.23,75.813,4.459,114.012,2.055H1614.29c55.54-4.285,109.055,18.013,164.8,11.324,95.881-8.92,189.532-17.839,284.348-11.324H4110.015Z" fill="#261911"/>
      <path d="M4110.015,1509.912H2063.453c-30.167-1.942-61.384-10.861-94.831-6.4-122.638,22.3-236.358,15.608-354.338,6.4H1230.86c-33.745.288-64.962,2.518-98.408-4.172-40.137-8.919-78.043,8.919-118.179,8.919-53.515,2.23-104.8-6.689-157.615-4.747H597.585c-22.58.288-47.108-1.942-69.406,2.518-51.285,8.919-100.34,11.149-149.395-4.46-20.069-6.689-42.366,4.46-63.121,1.942H-292.88c-68.626,4.747-133.29-6.4-200.183-8.631-156.085-8.919-312.17,20.068-469.089,8.631h-279.323v14.459h289.844c81.734-3.022,164.236,10.357,246.738,1.437,71.353-8.919,142.706-20.068,214.06-8.919,64.663,11.149,127.1,6.69,188.916,7.482h603.18c46.3-5.252,86.44-.792,133.265,8.127,26.758,6.689,53.515,0,80.273-4.46,28.987-6.689,55.744-4.459,82.782-3.667H856.659c92.95,5.9,184.371-5.252,275.793-3.022,31.217,0,64.663,2.23,98.4,3.022h397.659c123.819,14.816,248.687,1.437,373.555-5.252,20.068-2.23,42.366,4.46,61.373,5.252H4110.015Z" fill="#261911"/>
    </g>
    <polygon points="1925.698 1558.311 1949.669 1544.932 1968.622 1551.621 1968.622 1565.557 1943.537 1572.804 1932.388 1569.46 1925.698 1558.311" fill="#3e2d1d"/>
    <polygon points="1298.385 1556.392 1322.355 1543.013 1341.308 1549.703 1341.308 1563.639 1316.223 1570.886 1305.074 1567.541 1298.385 1556.392" fill="#3e2d1d"/>
    <polygon points="511.27 1558.311 535.24 1544.932 554.193 1551.621 554.193 1565.557 529.108 1572.804 517.959 1569.46 511.27 1558.311" fill="#3e2d1d"/>
    <polygon points="488.694 1566.248 473.855 1557.964 462.122 1562.106 462.122 1570.733 477.651 1575.219 484.553 1573.148 488.694 1566.248" fill="#3e2d1d"/>
    <polygon points="263.114 1558.524 248.276 1550.241 236.542 1554.382 236.542 1563.01 252.071 1567.495 258.973 1565.425 263.114 1558.524" fill="#3e2d1d"/>
    <polygon points="2223.933 1564.771 2247.903 1551.393 2266.856 1558.082 2266.856 1572.018 2241.771 1579.265 2230.622 1575.92 2223.933 1564.771" fill="#3e2d1d"/>
    <polygon points="2314.036 1555.722 2333.303 1552.072 2344.635 1560.889 2341.484 1570.333 2322.849 1569.573 2316.051 1564.787 2314.036 1555.722" fill="#3e2d1d"/>
    <polygon points="1994.791 1543.31 2011.876 1547.401 2017.904 1558.766 2011.863 1565.329 1996.908 1557.866 1993.108 1551.46 1994.791 1543.31" fill="#3e2d1d"/>
    <g>
      <g>
        <path d="M119.9,1340.573c0,7.726-16.079,7.186-35.914,7.186s-35.916.54-35.916-7.186,16.08-20.791,35.916-20.791S119.9,1332.85,119.9,1340.573Z" fill="#878303"/>
        <path d="M106.569,1325.609c2.715,2.866,4.262,5.771,4.262,8.159,0,7.726-16.08,7.184-35.915,7.184-10.657,0-20.2.144-26.777-.908-.016.177-.065.357-.065.529,0,7.726,16.079,7.752,35.915,7.752s36.765-.4,36.765-8.131C120.754,1335.8,114.7,1330.069,106.569,1325.609Z" fill="#605d03"/>
        <path d="M82.841,1323.133c.422,1.224-5.208,3.41-12.225,5.817s-12.761,4.111-13.18,2.887,4.643-4.921,11.66-7.327S82.423,1321.905,82.841,1323.133Z" fill="#a09a2d"/>
      </g>
      <g>
        <path d="M377.822,1299.224c0,5.3-11.028,4.93-24.633,4.93s-24.636.37-24.636-4.93,11.03-14.261,24.636-14.261S377.822,1293.926,377.822,1299.224Z" fill="#878303"/>
        <path d="M368.676,1288.961c1.862,1.965,2.923,3.957,2.923,5.6,0,5.3-11.029,4.927-24.635,4.927-7.308,0-13.854.1-18.366-.622-.011.119-.045.244-.045.361,0,5.3,11.029,5.318,24.635,5.318s25.218-.279,25.218-5.577C378.406,1295.951,374.252,1292.019,368.676,1288.961Z" fill="#605d03"/>
        <path d="M352.4,1287.263c.289.838-3.573,2.339-8.386,3.989s-8.753,2.82-9.04,1.98,3.185-3.375,8-5.026S352.114,1286.42,352.4,1287.263Z" fill="#a09a2d"/>
      </g>
      <g>
        <path d="M434.725,1317.045c0,6.641-13.819,6.178-30.868,6.178s-30.872.463-30.872-6.178,13.821-17.871,30.872-17.871S434.725,1310.406,434.725,1317.045Z" fill="#878303"/>
        <path d="M423.264,1304.184c2.334,2.461,3.662,4.959,3.662,7.012,0,6.639-13.82,6.176-30.869,6.176-9.16,0-17.363.124-23.017-.78-.013.15-.055.3-.055.453,0,6.641,13.82,6.663,30.871,6.663s31.6-.348,31.6-6.987C435.457,1312.943,430.252,1308.015,423.264,1304.184Z" fill="#605d03"/>
        <path d="M402.869,1302.055c.363,1.052-4.477,2.931-10.508,5s-10.969,3.534-11.329,2.48,3.99-4.229,10.023-6.3S402.51,1301,402.869,1302.055Z" fill="#a09a2d"/>
      </g>
      <g>
        <path d="M155.86,1314.567c0,5.2-10.817,4.834-24.161,4.834s-24.164.364-24.164-4.834,10.817-13.988,24.164-13.988S155.86,1309.371,155.86,1314.567Z" fill="#878303"/>
        <path d="M146.889,1304.5c1.827,1.929,2.868,3.883,2.868,5.49,0,5.2-10.818,4.834-24.163,4.834-7.17,0-13.59.1-18.016-.612-.011.12-.043.242-.043.357,0,5.2,10.817,5.215,24.163,5.215s24.735-.272,24.735-5.47C156.433,1311.357,152.359,1307.5,146.889,1304.5Z" fill="#605d03"/>
        <path d="M130.926,1302.835c.283.823-3.5,2.292-8.226,3.913s-8.585,2.765-8.867,1.942,3.124-3.312,7.845-4.93S130.645,1302.007,130.926,1302.835Z" fill="#a09a2d"/>
      </g>
      <g>
        <path d="M32.8,1336.63c0,5.2-10.817,4.834-24.162,4.834s-24.164.364-24.164-4.834,10.818-13.989,24.164-13.989S32.8,1331.434,32.8,1336.63Z" fill="#878303"/>
        <path d="M23.83,1326.561c1.827,1.929,2.868,3.882,2.868,5.489,0,5.2-10.818,4.835-24.163,4.835-7.169,0-13.59.1-18.015-.612-.011.119-.044.241-.044.357,0,5.2,10.818,5.215,24.163,5.215s24.736-.272,24.736-5.47C33.375,1333.42,29.3,1329.561,23.83,1326.561Z" fill="#605d03"/>
        <path d="M7.867,1324.9c.283.823-3.5,2.293-8.226,3.913s-8.585,2.766-8.866,1.943,3.123-3.313,7.844-4.93S7.586,1324.07,7.867,1324.9Z" fill="#a09a2d"/>
      </g>
      <g>
        <path d="M57.251,1352.153c0,5.2-10.817,4.834-24.162,4.834s-24.164.364-24.164-4.834,10.818-13.988,24.164-13.988S57.251,1346.958,57.251,1352.153Z" fill="#878303"/>
        <path d="M48.28,1342.084c1.827,1.93,2.868,3.883,2.868,5.49,0,5.2-10.818,4.834-24.164,4.834-7.169,0-13.589.1-18.015-.612-.011.12-.044.242-.044.357,0,5.2,10.818,5.215,24.163,5.215s24.736-.272,24.736-5.469C57.824,1348.944,53.75,1345.085,48.28,1342.084Z" fill="#605d03"/>
        <path d="M32.316,1340.421c.283.823-3.5,2.293-8.225,3.913s-8.585,2.765-8.867,1.942,3.123-3.312,7.844-4.93S32.035,1339.593,32.316,1340.421Z" fill="#a09a2d"/>
      </g>
      <g>
        <path d="M2054.957,1306.162c0,7.726-16.079,7.186-35.917,7.186s-35.916.54-35.916-7.186,16.081-20.791,35.916-20.791S2054.957,1298.438,2054.957,1306.162Z" fill="#878303"/>
        <path d="M2041.621,1291.2c2.713,2.865,4.262,5.77,4.262,8.159,0,7.726-16.081,7.184-35.914,7.184-10.657,0-20.2.143-26.78-.908-.015.176-.065.357-.065.529,0,7.726,16.079,7.752,35.916,7.752s36.766-.4,36.766-8.131C2055.806,1301.391,2049.752,1295.657,2041.621,1291.2Z" fill="#605d03"/>
        <path d="M2017.893,1288.722c.42,1.224-5.209,3.41-12.227,5.816s-12.76,4.111-13.179,2.888,4.643-4.922,11.659-7.328S2017.475,1287.494,2017.893,1288.722Z" fill="#a09a2d"/>
      </g>
      <g>
        <path d="M2090.912,1280.156c0,5.2-10.818,4.834-24.162,4.834s-24.164.363-24.164-4.834,10.818-13.989,24.164-13.989S2090.912,1274.96,2090.912,1280.156Z" fill="#878303"/>
        <path d="M2081.94,1270.087c1.827,1.929,2.868,3.882,2.868,5.489,0,5.2-10.818,4.834-24.164,4.834-7.168,0-13.588.1-18.015-.612-.011.12-.043.242-.043.358,0,5.2,10.818,5.215,24.164,5.215s24.734-.272,24.734-5.47C2091.484,1276.946,2087.41,1273.087,2081.94,1270.087Z" fill="#605d03"/>
        <path d="M2065.977,1268.423c.283.823-3.5,2.293-8.225,3.913s-8.586,2.766-8.867,1.942,3.123-3.312,7.844-4.929S2065.7,1267.6,2065.977,1268.423Z" fill="#a09a2d"/>
      </g>
      <g>
        <path d="M2216.877,1301c0,5.2-10.818,4.834-24.162,4.834s-24.164.364-24.164-4.834,10.818-13.988,24.164-13.988S2216.877,1295.805,2216.877,1301Z" fill="#878303"/>
        <path d="M2207.906,1290.932c1.827,1.929,2.868,3.883,2.868,5.49,0,5.2-10.818,4.834-24.164,4.834-7.169,0-13.588.1-18.015-.612-.011.12-.044.242-.044.357,0,5.2,10.818,5.215,24.164,5.215s24.735-.272,24.735-5.47C2217.45,1297.791,2213.376,1293.933,2207.906,1290.932Z" fill="#605d03"/>
        <path d="M2191.942,1289.269c.284.823-3.5,2.292-8.224,3.913s-8.586,2.765-8.867,1.942,3.123-3.312,7.844-4.93S2191.661,1288.441,2191.942,1289.269Z" fill="#a09a2d"/>
      </g>
      <g>
        <path d="M2269.271,1316.525c0,5.2-10.818,4.834-24.162,4.834s-24.164.363-24.164-4.834,10.818-13.989,24.164-13.989S2269.271,1311.329,2269.271,1316.525Z" fill="#878303"/>
        <path d="M2260.3,1306.456c1.827,1.929,2.868,3.882,2.868,5.489,0,5.2-10.818,4.834-24.164,4.834-7.168,0-13.588.1-18.015-.611-.01.119-.043.241-.043.357,0,5.2,10.818,5.215,24.164,5.215s24.734-.272,24.734-5.47C2269.843,1313.315,2265.769,1309.456,2260.3,1306.456Z" fill="#605d03"/>
        <path d="M2244.336,1304.792c.283.823-3.5,2.293-8.225,3.913s-8.586,2.766-8.866,1.943,3.122-3.313,7.843-4.931S2244.055,1303.965,2244.336,1304.792Z" fill="#a09a2d"/>
      </g>
      <g>
        <path d="M1967.853,1302.218c0,5.2-10.816,4.834-24.162,4.834s-24.164.364-24.164-4.834,10.818-13.988,24.164-13.988S1967.853,1297.023,1967.853,1302.218Z" fill="#878303"/>
        <path d="M1958.882,1292.149c1.827,1.93,2.868,3.883,2.868,5.49,0,5.2-10.818,4.834-24.162,4.834-7.171,0-13.592.1-18.017-.612-.011.12-.044.242-.044.357,0,5.2,10.818,5.216,24.162,5.216s24.737-.273,24.737-5.47C1968.426,1299.009,1964.352,1295.15,1958.882,1292.149Z" fill="#605d03"/>
        <path d="M1942.918,1290.486c.283.823-3.5,2.293-8.226,3.913s-8.584,2.765-8.867,1.942,3.125-3.312,7.845-4.93S1942.637,1289.658,1942.918,1290.486Z" fill="#a09a2d"/>
      </g>
      <g>
        <path d="M1992.3,1317.742c0,5.2-10.815,4.834-24.161,4.834s-24.164.364-24.164-4.834,10.817-13.989,24.164-13.989S1992.3,1312.546,1992.3,1317.742Z" fill="#878303"/>
        <path d="M1983.331,1307.673c1.827,1.929,2.868,3.882,2.868,5.489,0,5.2-10.818,4.835-24.162,4.835-7.17,0-13.592.1-18.017-.612-.011.12-.043.242-.043.357,0,5.2,10.817,5.215,24.161,5.215s24.737-.272,24.737-5.47C1992.875,1314.532,1988.8,1310.674,1983.331,1307.673Z" fill="#605d03"/>
        <path d="M1967.368,1306.009c.283.823-3.506,2.293-8.227,3.913s-8.584,2.766-8.867,1.943,3.125-3.312,7.846-4.93S1967.087,1305.182,1967.368,1306.009Z" fill="#a09a2d"/>
      </g>
    </g>
  </g>
  <g>
    <path d="M612.972,554.812c-231.264-10.1-399.343-1.23-399.343-1.23s292.255-70.223,324.1-70.223c0,0-68.568-59.972,127.513-82.989,36.259-119.484,368.028-16.294,261.986,89.266,31.843,2.408,84.065,2.46,124,27.054,0,0-170.513,2.459-208.962,14.757,0,0,76.354,55.635-241.274,48.256C560.826,578.771,646.455,556.275,612.972,554.812Z" fill="#fff"/>
    <path d="M842.272,531.447c38.091-12.183,205.787-14.71,208.913-14.757-150.131-27.741-405.819-6.375-442.966-2.86-39,3.689,63.627,15.986-6.158,15.986-57.537,0-302.974,17.416-387.35,23.529l-1.082.237s168.079-8.865,399.343,1.23c33.483,1.463-52.146,23.959-11.974,24.891C918.626,587.082,842.272,531.447,842.272,531.447Z" fill="#9fd0de"/>
  </g>
  <g>
    <path d="M1947.944,395.555c-161.285-7.04-278.5-.857-278.5-.857s168.217-36.879,190.427-36.879c0,0,.556-52.459,75.793-29.649-2.267-5.431,1.928-36.521,26.084-46.522,31.93-13.219,55.5,6.332,58.217,19.367,9.972-13.578,36.727-26.081,61.64-23.767,60.261,5.6,95.01,24.306,113.691,40.424,31.542,27.213-28.182,32.429-28.182,32.429s58.627,1.716,86.482,18.868c0,0-118.918,1.715-145.732,10.291,0,0,53.251,38.8-168.266,33.655C1911.577,412.264,1971.3,396.575,1947.944,395.555Z" fill="#fff"/>
    <path d="M2107.86,379.26c26.565-8.5,143.517-10.259,145.7-10.291-104.7-19.348-283.021-4.446-308.927-2-27.2,2.573,44.373,11.149-4.3,11.149-40.127,0-211.3,12.146-270.14,16.409l-.755.166s117.219-6.183,278.5.857c23.351,1.02-36.367,16.709-8.35,17.36C2161.111,418.061,2107.86,379.26,2107.86,379.26Z" fill="#9fd0de"/>
  </g>
  <g>
    <g>
      <g>
        <polygon points="1280.702 1219.713 -6.106 1219.713 -6.106 1027.92 136.872 981.599 328.749 1063.016 616.086 963.781 892.986 1067.353 1152.255 974.292 1280.702 1027.92 1280.702 1219.713" fill="#cece76"/>
        <path d="M616.086,963.781s-69.391,44.423-44.8,57.042,195.807,157.049,229.97,198.89h338.154S867.82,1015.239,616.086,963.781Z" fill="#99a058"/>
      </g>
      <path d="M1152.255,974.292s-10.627,57.4,7.122,70.023,79.33-29.014,121.325-16.395C1280.7,1027.92,1203.432,989.8,1152.255,974.292Z" fill="#99a058"/>
      <path d="M136.872,981.6s-14.361,11.384,8.47,22.4c31.061,14.985-10.966,83.058,34.728,87.75,38.074,3.911,148.679-28.731,148.679-28.731S187.457,990.8,136.872,981.6Z" fill="#99a058"/>
    </g>
    <g>
      <g>
        <polygon points="2567.511 1219.713 1280.702 1219.713 1280.702 1027.92 1423.681 981.599 1615.557 1063.016 1902.894 963.781 2179.794 1067.353 2439.064 974.292 2567.511 1027.92 2567.511 1219.713" fill="#cece76"/>
        <path d="M1902.894,963.781s-69.39,44.423-44.8,57.042,195.808,157.049,229.97,198.89h338.154S2154.628,1015.239,1902.894,963.781Z" fill="#99a058"/>
      </g>
      <path d="M2439.064,974.292s-10.628,57.4,7.122,70.023,79.329-29.014,121.325-16.395C2567.511,1027.92,2490.24,989.8,2439.064,974.292Z" fill="#99a058"/>
      <path d="M1423.681,981.6s-14.362,11.384,8.469,22.4c31.061,14.985-10.966,83.058,34.728,87.75,38.075,3.911,148.679-28.731,148.679-28.731S1474.266,990.8,1423.681,981.6Z" fill="#99a058"/>
    </g>
  </g>
</svg>
