<svg xmlns="http://www.w3.org/2000/svg" xmlns:xlink="http://www.w3.org/1999/xlink" width="2560" height="1600" viewBox="0 0 2560 1600">
  <defs>
    <linearGradient id="a" x1="170.329" y1="1619.195" x2="170.329" y2="-24.51" gradientUnits="userSpaceOnUse">
      <stop offset="0.122" stop-color="#fff"/>
      <stop offset="0.269" stop-color="#e1f3f4"/>
      <stop offset="0.423" stop-color="#caeaeb"/>
      <stop offset="0.588" stop-color="#b9e3e5"/>
      <stop offset="0.77" stop-color="#afdfe1"/>
      <stop offset="1" stop-color="#acdee0"/>
    </linearGradient>
  </defs>
  <g>
    <rect x="-2570.322" y="-24.51" width="5481.3" height="1643.705" fill="url(#a)"/>
    <path d="M-2570.322,1059.769c597.02,0,709.46-468.323,1322.914-468.323s718.768,538.173,1417.737,538.173S1108.044,440.06,1619.593,440.06s726.928,619.709,1291.386,619.709V1619.2h-5481.3Z" fill="#69bfd6"/>
    <path d="M-2570.322,1232.91c34.95,0,324.662-20.863,324.662-20.863l32.313-88.6,301.141-25.059,25,11.988-24.383,19.242,81.014,7.914,87.983,42.188,534.005-34.313,233.41,87.5,27.814-140.857,28.612-27.105-17.315-30.092,74.147-71.148-55.154-25.039L-893.9,821.322l476.267-30.475,92.435,30.475,48.535-39.5,214.333-13.716,57.755,41.8,174.909-9.134,231.955,88.564,81.51,67.248-58.489,7.123L529.024,993.9l25.485,21.026-35.083,14.7,68.586,12.944,99.758,82.3,438.9-13.528,18.314-21.407,51.576-16.2-34.186-4.12,19.962-23.33,42.328-16.086-3.949-28.775,380.3-7.6,108.709,99.553,367.015,26.512,122.369-181.524,63.71-23.453-33.446-21.447,39.3-58.3h221.254l18.524,51.446-28.8,33.274,21.7,13.294-1.144,27.886L2484.6,978.453l14.211,16.7-1.871,45.645-22.236,10.708,21.048,18.252-2.2,53.689,417.425,109.462V1619.2h-5481.3Z" fill="#3fa2b5"/>
    <g>
      <path d="M2422.875,861.683l-26.457,146.341,26.457,69.8-34.03,114.806,7.664,93.669-7.664,62.847s35.69,65.434,28.369,63.617-61.94,4.6-61.94,4.6-1.7-80.527,1.364-88.167,16.871-49.029,16.871-49.029l-9.2-95.038,39.886-104.239-21.487-75.111Z" fill="#3794a9"/>
      <path d="M948.73,461.044l31.145,206.74L958.66,831.519l21.208,259.03-11.149,136.195-31.54,92.375s-63.83,100.826-53.187,98.189,144.685,0,144.685,0,2.479-117.083-1.98-128.192-24.53-71.288-24.53-71.288l13.381-138.188L985.816,835.976l13.992-171.459Z" fill="#3794a9"/>
      <path d="M1333.592,1417.359l24.158-71.787-55.145-24.8,55.145,10.349,8.05-53.312-6.9-98.723,31.061-81.372-8.051-91.984s-28.76-34.493-25.308-32.192,26.229,20.7,26.229,20.7V919.5l13.751,97.733,8.331,80.484-28.759,90.833,5.756,80.487,35.657-26.958,18.4-40.881-11.5,40.881-14.134,21.208,16.435,5.75-30.186,2.3-13.751,14.946,13.751,74.494,33.635,56.585Z" fill="#3794a9"/>
      <path d="M2122.663,1417.359c-.448-.029,13.956-52.8,13.956-52.8l-17.605-55.2,17.605-33.6v-52l-31.927-57.6.341-32,4.376,26.4,13.254,27.2,13.956-25.6-8,30.8,18.8,21.6,72.434-29.2,32.012-34.4,10.177-29.6-13.383-17.6,20.012,16.4-11.2,37.2-31.781,35.856-36.181,16.366,44.323,16.578,14.83-4-14.83,11.2-50.565-17.2L2155.4,1237.3s1.225,32.46,1.225,32.661-8.4,45-8.4,45l22.8,45.824,18.163,56.578Z" fill="#3794a9"/>
      <path d="M90.037,1417.359c-.448-.029,13.958-52.8,13.958-52.8l-17.606-55.2,17.606-33.6v-52l-31.928-57.6.34-32,4.376,26.4,13.254,27.2,13.958-25.6-8,30.8,18.807,21.6,72.431-29.2,32.014-34.4,10.175-29.6-13.378-17.6,20.009,16.4-11.2,37.2-31.783,35.856-36.18,16.366,44.322,16.578,14.835-4-14.835,11.2-50.563-17.2-27.866,21.14s1.226,32.46,1.226,32.661-8.4,45-8.4,45l22.8,45.824,18.162,56.578Z" fill="#3794a9"/>
    </g>
    <g>
      <g>
        <path d="M1840.7,264.8c0,32.123-85.679,58.164-191.373,58.164s-191.373-26.041-191.373-58.164,85.681-58.161,191.373-58.161S1840.7,232.68,1840.7,264.8Z" fill="#fff"/>
        <path d="M1649.329,307.309c-78.373,0-147.039-11.129-185.2-27.809,21.424,25,96.221,45.367,185.2,45.367s163.78-20.362,185.2-45.367C1796.372,296.18,1727.7,307.309,1649.329,307.309Z" fill="#8accdd"/>
      </g>
      <g>
        <path d="M2555.431,367.925c0,31.317-83.525,56.7-186.564,56.7s-186.569-25.386-186.569-56.7,83.532-56.7,186.569-56.7S2555.431,336.611,2555.431,367.925Z" fill="#fff"/>
        <path d="M2368.867,409.367c-76.409,0-143.347-10.851-180.556-27.112,20.887,24.377,93.807,44.228,180.556,44.228s159.664-19.851,180.549-44.228C2512.216,398.516,2445.271,409.367,2368.867,409.367Z" fill="#8accdd"/>
      </g>
      <g>
        <path d="M2775.992,222.444c0,27.02-72.066,48.923-160.966,48.923s-160.969-21.9-160.969-48.923,72.068-48.92,160.969-48.92S2775.992,195.426,2775.992,222.444Z" fill="#fff"/>
        <path d="M2615.026,258.2c-65.926,0-123.677-9.362-155.781-23.391,18.021,21.032,80.935,38.16,155.781,38.16s137.755-17.128,155.776-38.16C2738.705,248.837,2680.945,258.2,2615.026,258.2Z" fill="#8accdd"/>
      </g>
      <g>
        <path d="M659.071,327.8c0,31.384-83.706,56.823-186.966,56.823S285.137,359.185,285.137,327.8s83.712-56.821,186.968-56.821S659.071,296.42,659.071,327.8Z" fill="#fff"/>
        <path d="M472.105,369.331c-76.569,0-143.65-10.873-180.94-27.169,20.932,24.429,94.006,44.322,180.94,44.322s160.007-19.893,180.939-44.322C615.762,358.458,548.676,369.331,472.105,369.331Z" fill="#8accdd"/>
      </g>
      <g>
        <path d="M876.481,209.19c0,20.1-53.617,36.4-119.76,36.4s-119.764-16.3-119.764-36.4,53.622-36.4,119.764-36.4S876.481,189.088,876.481,209.19Z" fill="#fff"/>
        <path d="M756.721,235.791c-49.049,0-92.019-6.965-115.9-17.4,13.406,15.648,60.215,28.391,115.9,28.391s102.493-12.743,115.9-28.391C848.74,228.826,805.768,235.791,756.721,235.791Z" fill="#8accdd"/>
      </g>
      <g>
        <path d="M201.935,172.2c0,20.1-53.618,36.4-119.761,36.4S-37.589,192.3-37.589,172.2s53.622-36.4,119.763-36.4S201.935,152.094,201.935,172.2Z" fill="#fff"/>
        <path d="M82.174,198.8c-49.047,0-92.017-6.965-115.9-17.4,13.407,15.649,60.215,28.391,115.9,28.391s102.493-12.742,115.9-28.391C174.194,191.832,131.221,198.8,82.174,198.8Z" fill="#8accdd"/>
      </g>
    </g>
    <g>
      <g>
        <path d="M1850.922,1402.393V1287.62l67.458-144.9V973.426l-67.458-55.952-31.575,33,17.222,20.085,20.094-12.913L1838,986.339l-37.316-33,58.848-61.692,78.937,61.692,7.179,175.03,38.75-71.736,117.69-78.906,48.8-65.995v-74.6l10.048,61.692,55.976-38.736,60.284,5.739,17.61,39.648L2264.278,873H2218.35l-47.362,41.6s-48.8,66-48.8,70.3-116.255,83.211-116.255,83.211l-40.19,73.167-37.316,110.47,2.872,81.777,72.616,96.122H1893.979Z" fill="#0e6e79"/>
        <g>
          <polygon points="2003.539 1056.637 2111.726 981.677 2170.032 892.534 2160.94 898.825 2150.892 837.133 2150.892 911.736 2102.097 977.731 1984.402 1056.637 1963.438 1095.444 2003.539 1056.637" fill="#0c5a67"/>
          <polygon points="1899.931 1374.162 1870.059 1287.62 1937.517 1142.719 1927.362 972.909 1861.592 926.325 1918.38 973.426 1918.38 1142.719 1850.922 1287.62 1850.922 1402.393 1822.742 1429.652 1961.811 1429.652 1899.931 1374.162" fill="#0c5a67"/>
        </g>
      </g>
      <g>
        <path d="M1759.03,1409.44v-85.1l-50.02-107.435V1091.389l50.02-41.485,23.409,24.466-12.768,14.892-14.9-9.573,13.834,21.275,27.669-24.465-43.632-45.741-58.526,45.741-5.322,129.774-28.733-53.187-87.259-58.5-36.184-48.932V990.336l-7.448,45.741-41.505-28.721-44.693,4.255-13.06,29.4,22.639-24.08H1486.6l35.118,30.848s36.181,48.931,36.181,52.124,86.2,61.695,86.2,61.695l29.8,54.248,27.667,81.907-2.127,60.633-53.84,71.268H1727.1Z" fill="#0e6e79"/>
        <g>
          <polygon points="1645.873 1153.086 1565.661 1097.506 1522.43 1031.413 1529.17 1036.077 1536.618 990.336 1536.618 1045.65 1572.797 1094.582 1660.061 1153.086 1675.605 1181.859 1645.873 1153.086" fill="#0c5a67"/>
          <polygon points="1722.69 1388.51 1744.837 1324.345 1694.825 1216.91 1702.351 1091.006 1751.118 1056.468 1709.01 1091.389 1709.01 1216.91 1759.03 1324.345 1759.03 1409.44 1779.924 1429.652 1676.811 1429.652 1722.69 1388.51" fill="#0c5a67"/>
        </g>
      </g>
      <g>
        <path d="M431.026,1389.7V1221.482l-98.875-212.376V760.98l98.875-82L477.3,727.336l-25.244,29.44L422.607,737.85l27.349,42.058,54.692-48.364L418.4,641.125,302.7,731.544,292.182,988.08,235.388,882.941,62.893,767.29-8.634,670.562V561.22l-14.723,90.419L-105.4,594.864l-88.355,8.413-25.814,58.109,44.748-47.6H-107.5l69.421,60.98S33.445,771.494,33.445,777.8,203.833,899.762,203.833,899.762L262.734,1007l54.692,161.909-4.2,119.859-106.43,140.881H367.915Z" fill="#0e6e79"/>
        <g>
          <polygon points="207.337 882.941 48.777 773.073 -36.682 642.418 -23.357 651.639 -8.634 561.22 -8.634 670.562 62.89 767.29 235.388 882.941 266.115 939.818 207.337 882.941" fill="#0c5a67"/>
          <polygon points="359.191 1348.321 402.973 1221.482 304.103 1009.106 318.988 760.22 415.384 691.944 332.151 760.98 332.151 1009.106 431.026 1221.482 431.026 1389.699 472.326 1429.652 268.497 1429.652 359.191 1348.321" fill="#0c5a67"/>
        </g>
      </g>
      <g>
        <path d="M638.176,1362.963l45.565-102.473L669.1,1154.167l29.29-98.622s6.508-137.375,6.508-142.255-21.153-91.968-21.153-91.968l37.541,95.247-5,127.59,50.441-21.146,29.29-63.436-9.76,53.675,43.932,3.255,29.293-14.64V966.084l13.017,42.288-42.31,17.9-40.68,1.625-66.715,42.29-21.155,94.342,17.9,92.71-1.627,81.33,37.427,91.087H597.5Z" fill="#0e6e79"/>
        <g>
          <polygon points="775.221 1025.215 796.017 959.577 766.727 1023.013 732.826 1037.223 775.221 1025.215" fill="#0c5a67"/>
          <polygon points="871.197 1004.143 859.482 966.084 859.482 1001.867 832.292 1015.457 871.197 1004.143" fill="#0c5a67"/>
          <path d="M700.009,1260.49l-14.645-106.323,21.278-93.927s1.9-122.685,2.671-142.89l-25.572-96.028s21.153,87.088,21.153,91.968-6.508,142.255-6.508,142.255l-29.29,98.622,14.645,106.323-45.565,102.473L597.5,1429.652h96.562l-19.46-50.4Z" fill="#0c5a67"/>
        </g>
      </g>
      <g>
        <path d="M2574.662,1362.963l45.565-102.473-14.645-106.323,29.288-98.622s6.51-137.375,6.51-142.255-21.153-91.968-21.153-91.968l37.541,95.247-5,127.59,50.441-21.146,29.29-63.436-9.761,53.675,43.933,3.255,29.293-14.64V966.084l13.017,42.288-42.31,17.9-40.682,1.625-66.713,42.29-21.155,94.342,17.9,92.71-1.625,81.33,37.428,91.087H2533.984Z" fill="#0e6e79"/>
        <path d="M2636.5,1260.49l-14.645-106.323,21.278-93.927s1.9-122.685,2.67-142.89l-25.571-96.028s21.153,87.088,21.153,91.968-6.51,142.255-6.51,142.255l-29.288,98.622,14.645,106.323-45.565,102.473-40.678,66.689h96.563l-19.461-50.4Z" fill="#0c5a67"/>
      </g>
    </g>
    <g>
      <g>
        <polygon points="-743.222 1619.195 170.329 1619.195 170.329 1480.17 -32.488 1484.068 -165.1 1454.149 -287.208 1465.597 -357.9 1468.613 -554.024 1454.149 -743.222 1484.068 -743.222 1619.195" fill="#494d3f"/>
        <polygon points="-477.832 1536.673 -325.915 1519.491 -186.523 1544.177 -57.088 1526.973 76.84 1546.42 170.329 1526.924 170.329 1480.17 -32.488 1484.068 -165.1 1454.149 -287.208 1465.597 -357.9 1468.613 -554.024 1454.149 -743.222 1484.068 -743.222 1538.699 -645.198 1519.491 -477.832 1536.673" fill="#494d3f"/>
        <polygon points="76.84 1546.42 -57.088 1526.973 -186.523 1544.177 -325.915 1519.491 -477.832 1536.673 -645.198 1519.491 -743.222 1526.924 -743.222 1573.024 -618.465 1552.404 -467.514 1591.3 -325.915 1552.404 -178.726 1571.853 -57.088 1552.404 76.84 1583.821 170.329 1573.024 170.329 1526.924 76.84 1546.42" fill="#3a3d34"/>
        <polygon points="-57.088 1552.404 -178.726 1571.853 -325.915 1552.404 -467.514 1591.3 -618.465 1552.404 -743.222 1573.024 -743.222 1619.195 170.329 1619.195 170.329 1573.024 76.84 1583.821 -57.088 1552.404" fill="#494d3f"/>
        <polygon points="-32.488 1477.587 -165.1 1447.668 -287.208 1459.114 -357.9 1462.13 -554.024 1447.668 -743.222 1477.587 -743.222 1502.516 -554.024 1472.597 -357.9 1487.062 -287.208 1484.045 -165.1 1472.597 -32.488 1502.516 170.329 1502.516 170.329 1475.591 -32.488 1477.587" fill="#30332b"/>
        <path d="M170.329,1490.143l-204.664-.127c-.317-.058-132.05-27.478-132.05-27.478s-67.121,6.234-118.264,14.05l-78.531.071-191.613-13.4-188.429,26.8V1468.7l187.833-26.969.867.06,192.194,13.444h75.843c4.378-.662,31.568-4.762,58.988-8.347,17.555-2.294,31.792-3.933,42.313-4.874,18.432-1.647,23.459-1.1,26.427.988,6.876,2.88,61.937,14.063,126.575,25.7H170.329v21.441Z" fill="#0b5d6c"/>
        <path d="M-743.222,1396.8l281.789-23.937,92.793,11.967s289.082-13.466,296.218-11.967S170.329,1396.8,170.329,1396.8v78.794H-31.893l-134.415-28.922-116.68,13.943h-86.374l-184.662-14.436-189.2,29.415Z" fill="#0d7984"/>
        <path d="M-72.422,1372.492c-7.136-1.5-296.218,11.967-296.218,11.967l-92.793-11.967-281.789,23.935v79.164l189.4-29.056,184.572,14.367,86.351-.081,116.979-13.757,134.032,28.817,202.22-.29v-79.164S-65.283,1373.985-72.422,1372.492Zm-296.384,77.778-185.76-14.521-188.656,27.732v-57.225l281.479-23.714,92.521,11.932,1.242-.058c.647-.029,17.221-.8,42.224-1.94l42.827,11.812-90.687,11.787,35.092,17.98Zm539.135,13.211-200.8,1.752-135.169-29.082L-283.83,1450.27l24.146-13.074-56.509-15.16,54.723-17.249-31.153-13.811c79.3-3.567,195.541-8.628,216.815-8.628,1.009,0,1.54.011,1.775.02,16.253,2.252,171.383,16.928,244.362,23.888Z" fill="#0f6d7b"/>
        <path d="M19.646,1424.168c0,1.554-6.693,2.813-14.95,2.813s-14.951-1.259-14.951-2.813,6.692-2.814,14.951-2.814S19.646,1422.614,19.646,1424.168Z" fill="#0f6d7b"/>
        <path d="M49.552,1435.156c0,1.554-6.7,2.814-14.954,2.814s-14.952-1.26-14.952-2.814,6.7-2.813,14.952-2.813S49.552,1433.6,49.552,1435.156Z" fill="#0f6d7b"/>
        <polygon points="170.329 1561.038 144.699 1585.33 137.79 1554.713 170.329 1561.038" fill="#3a3d34"/>
        <polygon points="90.15 1560.499 99.018 1529.543 121.635 1554.272 90.15 1560.499" fill="#3a3d34"/>
        <path d="M49.552,1530.1s10.77-5.317,13.127-5.317,18.379,5.317,18.379,5.317-21.361,4.479-22.362,4.2S49.552,1530.1,49.552,1530.1Z" fill="#3a3d34"/>
        <polygon points="39.974 1597.868 46.934 1595.064 51.629 1599.473 44.765 1602.481 39.974 1597.868" fill="#3a3d34"/>
      </g>
      <g>
        <g>
          <polygon points="170.329 1619.195 1083.877 1619.195 1083.877 1480.17 881.067 1484.068 748.455 1454.149 626.345 1465.597 555.652 1468.613 359.528 1454.149 170.329 1484.068 170.329 1619.195" fill="#494d3f"/>
          <polygon points="435.723 1536.673 587.635 1519.491 727.027 1544.177 856.465 1526.973 990.393 1546.42 1083.877 1526.924 1083.877 1480.17 881.067 1484.068 748.455 1454.149 626.345 1465.597 555.652 1468.613 359.528 1454.149 170.329 1484.068 170.329 1538.699 268.352 1519.491 435.723 1536.673" fill="#494d3f"/>
          <polygon points="990.393 1546.42 856.465 1526.973 727.027 1544.177 587.635 1519.491 435.723 1536.673 268.352 1519.491 170.329 1526.924 170.329 1573.024 295.087 1552.404 446.036 1591.3 587.635 1552.404 734.824 1571.853 856.465 1552.404 990.393 1583.821 1083.877 1573.024 1083.877 1526.924 990.393 1546.42" fill="#3a3d34"/>
          <polygon points="856.465 1552.404 734.824 1571.853 587.635 1552.404 446.036 1591.3 295.087 1552.404 170.329 1573.024 170.329 1619.195 1083.877 1619.195 1083.877 1573.024 990.393 1583.821 856.465 1552.404" fill="#494d3f"/>
          <polygon points="881.067 1477.587 748.455 1447.668 626.345 1459.114 555.652 1462.13 359.528 1447.668 170.329 1477.587 170.329 1502.516 359.528 1472.597 555.652 1487.062 626.345 1484.045 748.455 1472.597 881.067 1502.516 1083.877 1502.516 1083.877 1475.591 881.067 1477.587" fill="#30332b"/>
          <path d="M1083.877,1490.143l-204.663-.127c-.312-.058-132.046-27.478-132.046-27.478s-67.121,6.234-118.266,14.05l-78.529.071-191.612-13.4-188.432,26.8V1468.7l187.833-26.969.867.06,192.193,13.444h75.843c4.381-.662,31.569-4.762,58.992-8.347,17.555-2.294,31.79-3.933,42.311-4.874,18.432-1.647,23.462-1.1,26.425.988,6.875,2.88,61.94,14.063,126.579,25.7h202.505v21.441Z" fill="#0b5d6c"/>
          <path d="M170.329,1396.8,452.12,1372.86l92.791,11.967s289.082-13.466,296.218-11.967,242.748,23.937,242.748,23.937v78.794H881.66l-134.416-28.922-116.681,13.943h-86.37l-184.665-14.436-189.2,29.415Z" fill="#0d7984"/>
          <path d="M841.129,1372.492c-7.136-1.5-296.218,11.967-296.218,11.967l-92.791-11.967-281.791,23.935v79.164l189.4-29.056L544.3,1460.9l86.346-.081,116.979-13.757,134.033,28.817,202.217-.29v-79.164S848.268,1373.985,841.129,1372.492ZM544.746,1450.27l-185.762-14.521-188.655,27.732v-57.225l281.482-23.714,92.518,11.932,1.242-.058c.648-.029,17.224-.8,42.227-1.94l42.827,11.812-90.69,11.787,35.1,17.98Zm539.131,13.211-200.8,1.752-135.168-29.082L629.722,1450.27l24.145-13.074-56.5-15.16,54.719-17.249-31.154-13.811c79.3-3.567,195.542-8.628,216.818-8.628,1.01,0,1.538.011,1.774.02,16.251,2.252,171.378,16.928,244.358,23.888Z" fill="#0f6d7b"/>
          <path d="M714.5,1395.847c0,1.554-6.693,2.814-14.948,2.814s-14.955-1.26-14.955-2.814,6.7-2.813,14.955-2.813S714.5,1394.293,714.5,1395.847Z" fill="#0f6d7b"/>
          <path d="M782.3,1401.476c0,1.554-6.69,2.812-14.948,2.812s-14.953-1.258-14.953-2.812,6.693-2.815,14.953-2.815S782.3,1399.92,782.3,1401.476Z" fill="#0f6d7b"/>
          <path d="M933.2,1424.168c0,1.554-6.693,2.813-14.951,2.813s-14.952-1.259-14.952-2.813,6.692-2.814,14.952-2.814S933.2,1422.614,933.2,1424.168Z" fill="#0f6d7b"/>
          <path d="M963.1,1435.156c0,1.554-6.693,2.814-14.951,2.814s-14.952-1.26-14.952-2.814,6.695-2.813,14.952-2.813S963.1,1433.6,963.1,1435.156Z" fill="#0f6d7b"/>
          <path d="M856.465,1405.077c0,1.554-6.692,2.816-14.952,2.816s-14.949-1.262-14.949-2.816,6.693-2.813,14.949-2.813S856.465,1403.523,856.465,1405.077Z" fill="#0f6d7b"/>
          <path d="M755.5,1407.893c0,2.129-9.179,3.857-20.5,3.857s-20.5-1.728-20.5-3.857,9.179-3.859,20.5-3.859S755.5,1405.761,755.5,1407.893Z" fill="#0f6d7b"/>
          <path d="M476.724,1395.847c0,2.132-9.176,3.859-20.5,3.859s-20.5-1.727-20.5-3.859,9.176-3.859,20.5-3.859S476.724,1393.716,476.724,1395.847Z" fill="#0f6d7b"/>
          <path d="M275.657,1426.089c0,2.129-9.178,3.857-20.5,3.857s-20.507-1.728-20.507-3.857,9.181-3.859,20.507-3.859S275.657,1423.958,275.657,1426.089Z" fill="#0f6d7b"/>
          <path d="M419.256,1405.953c0,1.061-4.568,1.922-10.2,1.922s-10.207-.861-10.207-1.922,4.57-1.919,10.207-1.919S419.256,1404.892,419.256,1405.953Z" fill="#0f6d7b"/>
          <path d="M491.521,1404.034c0,1.061-4.571,1.919-10.206,1.919s-10.207-.858-10.207-1.919,4.568-1.922,10.207-1.922S491.521,1402.972,491.521,1404.034Z" fill="#0f6d7b"/>
          <path d="M537.913,1424.168c0,1.059-4.568,1.921-10.209,1.921s-10.206-.862-10.206-1.921,4.572-1.922,10.206-1.922S537.913,1423.106,537.913,1424.168Z" fill="#0f6d7b"/>
          <polygon points="359.586 1540.911 376.701 1512.49 391.937 1540.911 359.586 1540.911" fill="#3a3d34"/>
          <polygon points="439.301 1577.048 405.343 1591.3 413.333 1560.869 439.301 1577.048" fill="#3a3d34"/>
          <polygon points="531.051 1552.404 535.006 1584.068 503.845 1567.082 531.051 1552.404" fill="#3a3d34"/>
          <polygon points="819.225 1536.57 823.182 1568.237 792.022 1551.251 819.225 1536.57" fill="#3a3d34"/>
          <polygon points="1083.877 1561.038 1058.254 1585.33 1051.341 1554.713 1083.877 1561.038" fill="#3a3d34"/>
          <polygon points="608.498 1539.816 637.726 1519.491 638.154 1550.651 608.498 1539.816" fill="#3a3d34"/>
          <polygon points="1003.701 1560.499 1012.572 1529.543 1035.189 1554.272 1003.701 1560.499" fill="#3a3d34"/>
          <path d="M731.865,1500.978s10.771-5.317,13.125-5.317,18.379,5.317,18.379,5.317-21.36,4.479-22.361,4.2S731.865,1500.978,731.865,1500.978Z" fill="#3a3d34"/>
          <path d="M963.1,1530.1s10.772-5.317,13.129-5.317,18.375,5.317,18.375,5.317-21.36,4.479-22.361,4.2S963.1,1530.1,963.1,1530.1Z" fill="#3a3d34"/>
          <path d="M492.709,1501.107s16-7.894,19.5-7.894,27.286,7.894,27.286,7.894-31.718,6.648-33.2,6.233S492.709,1501.107,492.709,1501.107Z" fill="#3a3d34"/>
          <path d="M632.779,1579.473s11.517-5.683,14.036-5.683,19.644,5.683,19.644,5.683-22.836,4.787-23.906,4.488S632.779,1579.473,632.779,1579.473Z" fill="#3a3d34"/>
          <path d="M196.242,1584.365s11.515-5.686,14.038-5.686,43.712,5.944,43.712,5.944-46.9,4.526-47.977,4.225S196.242,1584.365,196.242,1584.365Z" fill="#3a3d34"/>
          <path d="M239.122,1591.878s22.356-3.014,23.848-3.014,25.879,3.518,25.879,3.518-27.77,2.679-28.4,2.5S239.122,1591.878,239.122,1591.878Z" fill="#3a3d34"/>
          <path d="M606.488,1591.311s8.221-4.057,10.021-4.057,14.025,4.057,14.025,4.057-16.3,3.418-17.066,3.2S606.488,1591.311,606.488,1591.311Z" fill="#3a3d34"/>
          <path d="M627.1,1598.584s8.222-4.058,10.021-4.058,14.028,4.058,14.028,4.058-16.3,3.417-17.069,3.2S627.1,1598.584,627.1,1598.584Z" fill="#3a3d34"/>
          <path d="M259.619,1501.107s15.994-7.894,19.492-7.894,27.288,7.894,27.288,7.894-31.72,6.648-33.2,6.233S259.619,1501.107,259.619,1501.107Z" fill="#3a3d34"/>
          <path d="M485.963,1515.921s-10.166,5.34-12.427,5.393-17.8-4.7-17.8-4.7,20.352-4.766,21.322-4.519S485.963,1515.921,485.963,1515.921Z" fill="#3a3d34"/>
          <polygon points="687.466 1519.76 701.898 1513.944 711.625 1523.085 697.399 1529.316 687.466 1519.76" fill="#3a3d34"/>
          <polygon points="844.386 1574.214 858.82 1568.397 868.542 1577.538 854.321 1583.772 844.386 1574.214" fill="#3a3d34"/>
          <polygon points="866.094 1583.669 873.057 1580.864 877.747 1585.274 870.885 1588.279 866.094 1583.669" fill="#3a3d34"/>
          <polygon points="897.322 1575.182 904.282 1572.375 908.975 1576.785 902.113 1579.792 897.322 1575.182" fill="#3a3d34"/>
          <polygon points="953.523 1597.868 960.488 1595.064 965.178 1599.473 958.316 1602.481 953.523 1597.868" fill="#3a3d34"/>
          <polygon points="579.694 1563.343 590.039 1559.174 597.012 1565.727 586.815 1570.194 579.694 1563.343" fill="#3a3d34"/>
          <polygon points="283.008 1568.15 297.441 1562.334 307.166 1571.476 292.942 1577.707 283.008 1568.15" fill="#3a3d34"/>
        </g>
        <g>
          <polygon points="1083.877 1619.195 1997.426 1619.195 1997.426 1480.17 1794.613 1484.068 1662.005 1454.149 1539.893 1465.597 1469.203 1468.613 1273.079 1454.149 1083.877 1484.068 1083.877 1619.195" fill="#494d3f"/>
          <polygon points="1349.269 1536.673 1501.186 1519.491 1640.578 1544.177 1770.016 1526.973 1903.94 1546.42 1997.426 1526.924 1997.426 1480.17 1794.613 1484.068 1662.005 1454.149 1539.893 1465.597 1469.203 1468.613 1273.079 1454.149 1083.877 1484.068 1083.877 1538.699 1181.9 1519.491 1349.269 1536.673" fill="#494d3f"/>
          <polygon points="1903.94 1546.42 1770.016 1526.973 1640.578 1544.177 1501.186 1519.491 1349.269 1536.673 1181.9 1519.491 1083.877 1526.924 1083.877 1573.024 1208.635 1552.404 1359.587 1591.3 1501.186 1552.404 1648.375 1571.853 1770.016 1552.404 1903.94 1583.821 1997.426 1573.024 1997.426 1526.924 1903.94 1546.42" fill="#3a3d34"/>
          <polygon points="1770.016 1552.404 1648.375 1571.853 1501.186 1552.404 1359.587 1591.3 1208.635 1552.404 1083.877 1573.024 1083.877 1619.195 1997.426 1619.195 1997.426 1573.024 1903.94 1583.821 1770.016 1552.404" fill="#494d3f"/>
          <polygon points="1794.613 1477.587 1662.005 1447.668 1539.893 1459.114 1469.203 1462.13 1273.079 1447.668 1083.877 1477.587 1083.877 1502.516 1273.079 1472.597 1469.203 1487.062 1539.893 1484.045 1662.005 1472.597 1794.613 1502.516 1997.426 1502.516 1997.426 1475.591 1794.613 1477.587" fill="#30332b"/>
          <path d="M1997.426,1490.143l-204.663-.127c-.31-.058-132.046-27.478-132.046-27.478s-67.121,6.234-118.266,14.05l-78.529.071-191.61-13.4-188.435,26.8V1468.7l187.835-26.969.865.06,192.194,13.444h75.845c4.381-.662,31.568-4.762,58.992-8.347,17.553-2.294,31.788-3.933,42.308-4.874,18.431-1.647,23.462-1.1,26.425.988,6.876,2.88,61.938,14.063,126.578,25.7h202.507v21.441Z" fill="#0b5d6c"/>
          <path d="M1083.877,1396.8l281.79-23.937,92.792,11.967s289.082-13.466,296.219-11.967,242.748,23.937,242.748,23.937v78.794H1795.209l-134.416-28.922-116.679,13.943h-86.372l-184.663-14.436-189.2,29.415Z" fill="#0d7984"/>
          <path d="M1754.678,1372.492c-7.137-1.5-296.219,11.967-296.219,11.967l-92.792-11.967-281.79,23.935v79.164l189.4-29.056,184.576,14.367,86.343-.081,116.98-13.757,134.033,28.817,202.217-.29v-79.164S1761.814,1373.985,1754.678,1372.492ZM1458.3,1450.27l-185.76-14.521-188.658,27.732v-57.225l281.48-23.714,92.519,11.932,1.243-.058c.649-.029,17.227-.8,42.23-1.94l42.825,11.812-90.688,11.787,35.093,17.98Zm539.131,13.211-200.8,1.752-135.167-29.082-118.186,14.119,24.145-13.074-56.5-15.16,54.719-17.249-31.156-13.811c79.3-3.567,195.54-8.628,216.815-8.628,1.01,0,1.543.011,1.779.02,16.251,2.252,171.378,16.928,244.356,23.888Z" fill="#0f6d7b"/>
          <path d="M1628.045,1395.847c0,1.554-6.693,2.814-14.949,2.814s-14.952-1.26-14.952-2.814,6.692-2.813,14.952-2.813S1628.045,1394.293,1628.045,1395.847Z" fill="#0f6d7b"/>
          <path d="M1695.848,1401.476c0,1.554-6.693,2.812-14.953,2.812s-14.952-1.258-14.952-2.812,6.7-2.815,14.952-2.815S1695.848,1399.92,1695.848,1401.476Z" fill="#0f6d7b"/>
          <path d="M1846.748,1424.168c0,1.554-6.695,2.813-14.952,2.813s-14.951-1.259-14.951-2.813,6.695-2.814,14.951-2.814S1846.748,1422.614,1846.748,1424.168Z" fill="#0f6d7b"/>
          <path d="M1876.651,1435.156c0,1.554-6.69,2.814-14.952,2.814s-14.951-1.26-14.951-2.814,6.693-2.813,14.951-2.813S1876.651,1433.6,1876.651,1435.156Z" fill="#0f6d7b"/>
          <path d="M1770.016,1405.077c0,1.554-6.7,2.816-14.952,2.816s-14.953-1.262-14.953-2.816,6.692-2.813,14.953-2.813S1770.016,1403.523,1770.016,1405.077Z" fill="#0f6d7b"/>
          <path d="M1669.05,1407.893c0,2.129-9.18,3.857-20.5,3.857s-20.5-1.728-20.5-3.857,9.18-3.859,20.5-3.859S1669.05,1405.761,1669.05,1407.893Z" fill="#0f6d7b"/>
          <path d="M1390.275,1395.847c0,2.132-9.179,3.859-20.5,3.859s-20.5-1.727-20.5-3.859,9.179-3.859,20.5-3.859S1390.275,1393.716,1390.275,1395.847Z" fill="#0f6d7b"/>
          <path d="M1189.2,1426.089c0,2.129-9.179,3.857-20.5,3.857s-20.506-1.728-20.506-3.857,9.179-3.859,20.506-3.859S1189.2,1423.958,1189.2,1426.089Z" fill="#0f6d7b"/>
          <path d="M1332.805,1405.953c0,1.061-4.568,1.922-10.206,1.922s-10.207-.861-10.207-1.922,4.573-1.919,10.207-1.919S1332.805,1404.892,1332.805,1405.953Z" fill="#0f6d7b"/>
          <path d="M1405.069,1404.034c0,1.061-4.57,1.919-10.2,1.919s-10.208-.858-10.208-1.919,4.57-1.922,10.208-1.922S1405.069,1402.972,1405.069,1404.034Z" fill="#0f6d7b"/>
          <path d="M1451.461,1424.168c0,1.059-4.568,1.921-10.208,1.921s-10.206-.862-10.206-1.921,4.57-1.922,10.206-1.922S1451.461,1423.106,1451.461,1424.168Z" fill="#0f6d7b"/>
          <polygon points="1273.135 1540.911 1290.25 1512.49 1305.486 1540.911 1273.135 1540.911" fill="#3a3d34"/>
          <polygon points="1352.85 1577.048 1318.894 1591.3 1326.884 1560.869 1352.85 1577.048" fill="#3a3d34"/>
          <polygon points="1444.599 1552.404 1448.554 1584.068 1417.394 1567.082 1444.599 1552.404" fill="#3a3d34"/>
          <polygon points="1732.776 1536.57 1736.731 1568.237 1705.57 1551.251 1732.776 1536.57" fill="#3a3d34"/>
          <polygon points="1997.426 1561.038 1971.801 1585.33 1964.887 1554.713 1997.426 1561.038" fill="#3a3d34"/>
          <polygon points="1522.047 1539.816 1551.277 1519.491 1551.705 1550.651 1522.047 1539.816" fill="#3a3d34"/>
          <polygon points="1917.249 1560.499 1926.122 1529.543 1948.737 1554.272 1917.249 1560.499" fill="#3a3d34"/>
          <path d="M1645.414,1500.978s10.772-5.317,13.127-5.317,18.379,5.317,18.379,5.317-21.362,4.479-22.365,4.2S1645.414,1500.978,1645.414,1500.978Z" fill="#3a3d34"/>
          <path d="M1876.651,1530.1s10.775-5.317,13.13-5.317,18.377,5.317,18.377,5.317-21.36,4.479-22.364,4.2S1876.651,1530.1,1876.651,1530.1Z" fill="#3a3d34"/>
          <path d="M1406.26,1501.107s15.994-7.894,19.494-7.894,27.286,7.894,27.286,7.894-31.716,6.648-33.2,6.233S1406.26,1501.107,1406.26,1501.107Z" fill="#3a3d34"/>
          <path d="M1546.33,1579.473s11.512-5.683,14.034-5.683,19.641,5.683,19.641,5.683-22.833,4.787-23.9,4.488S1546.33,1579.473,1546.33,1579.473Z" fill="#3a3d34"/>
          <path d="M1109.792,1584.365s11.515-5.686,14.032-5.686,43.714,5.944,43.714,5.944-46.9,4.526-47.972,4.225S1109.792,1584.365,1109.792,1584.365Z" fill="#3a3d34"/>
          <path d="M1152.672,1591.878s22.353-3.014,23.846-3.014,25.88,3.518,25.88,3.518-27.77,2.679-28.4,2.5S1152.672,1591.878,1152.672,1591.878Z" fill="#3a3d34"/>
          <path d="M1520.038,1591.311s8.222-4.057,10.022-4.057,14.025,4.057,14.025,4.057-16.3,3.418-17.066,3.2S1520.038,1591.311,1520.038,1591.311Z" fill="#3a3d34"/>
          <path d="M1540.651,1598.584s8.22-4.058,10.022-4.058,14.027,4.058,14.027,4.058-16.306,3.417-17.07,3.2S1540.651,1598.584,1540.651,1598.584Z" fill="#3a3d34"/>
          <path d="M1173.167,1501.107s15.992-7.894,19.5-7.894,27.286,7.894,27.286,7.894-31.719,6.648-33.2,6.233S1173.167,1501.107,1173.167,1501.107Z" fill="#3a3d34"/>
          <path d="M1399.511,1515.921s-10.166,5.34-12.426,5.393-17.8-4.7-17.8-4.7,20.355-4.766,21.322-4.519S1399.511,1515.921,1399.511,1515.921Z" fill="#3a3d34"/>
          <polygon points="1601.015 1519.76 1615.448 1513.944 1625.175 1523.085 1610.947 1529.316 1601.015 1519.76" fill="#3a3d34"/>
          <polygon points="1757.935 1574.214 1772.366 1568.397 1782.093 1577.538 1767.871 1583.772 1757.935 1574.214" fill="#3a3d34"/>
          <polygon points="1779.645 1583.669 1786.608 1580.864 1791.298 1585.274 1784.436 1588.279 1779.645 1583.669" fill="#3a3d34"/>
          <polygon points="1810.868 1575.182 1817.831 1572.375 1822.526 1576.785 1815.661 1579.792 1810.868 1575.182" fill="#3a3d34"/>
          <polygon points="1867.074 1597.868 1874.036 1595.064 1878.727 1599.473 1871.865 1602.481 1867.074 1597.868" fill="#3a3d34"/>
          <polygon points="1493.243 1563.343 1503.59 1559.174 1510.561 1565.727 1500.364 1570.194 1493.243 1563.343" fill="#3a3d34"/>
          <polygon points="1196.556 1568.15 1210.99 1562.334 1220.714 1571.476 1206.493 1577.707 1196.556 1568.15" fill="#3a3d34"/>
        </g>
        <g>
          <polygon points="1997.426 1619.195 2910.979 1619.195 2910.979 1480.17 2708.162 1484.068 2575.549 1454.149 2453.44 1465.597 2382.747 1468.613 2186.625 1454.149 1997.426 1484.068 1997.426 1619.195" fill="#494d3f"/>
          <polygon points="2262.818 1536.673 2414.735 1519.491 2554.127 1544.177 2683.56 1526.973 2817.49 1546.42 2910.979 1526.924 2910.979 1480.17 2708.162 1484.068 2575.549 1454.149 2453.44 1465.597 2382.747 1468.613 2186.625 1454.149 1997.426 1484.068 1997.426 1538.699 2095.451 1519.491 2262.818 1536.673" fill="#494d3f"/>
          <polygon points="2817.49 1546.42 2683.56 1526.973 2554.127 1544.177 2414.735 1519.491 2262.818 1536.673 2095.451 1519.491 1997.426 1526.924 1997.426 1573.024 2122.184 1552.404 2273.138 1591.3 2414.735 1552.404 2561.926 1571.853 2683.56 1552.404 2817.49 1583.821 2910.979 1573.024 2910.979 1526.924 2817.49 1546.42" fill="#3a3d34"/>
          <polygon points="2683.56 1552.404 2561.926 1571.853 2414.735 1552.404 2273.138 1591.3 2122.184 1552.404 1997.426 1573.024 1997.426 1619.195 2910.979 1619.195 2910.979 1573.024 2817.49 1583.821 2683.56 1552.404" fill="#494d3f"/>
          <polygon points="2708.162 1477.587 2575.549 1447.668 2453.44 1459.114 2382.747 1462.13 2186.625 1447.668 1997.426 1477.587 1997.426 1502.516 2186.625 1472.597 2382.747 1487.062 2453.44 1484.045 2575.549 1472.597 2708.162 1502.516 2910.979 1502.516 2910.979 1475.591 2708.162 1477.587" fill="#30332b"/>
          <path d="M2910.979,1490.143l-204.665-.127c-.315-.058-132.051-27.478-132.051-27.478s-67.121,6.234-118.262,14.05l-78.533.071-191.612-13.4-188.43,26.8V1468.7l187.835-26.969.867.06,192.194,13.444h75.845c4.374-.662,31.568-4.762,58.988-8.347,17.552-2.294,31.789-3.933,42.312-4.874,18.43-1.647,23.458-1.1,26.423.988,6.878,2.88,61.94,14.063,126.577,25.7h202.512v21.441Z" fill="#0b5d6c"/>
          <path d="M1997.426,1396.8l281.791-23.937,92.791,11.967s289.082-13.466,296.221-11.967,242.75,23.937,242.75,23.937v78.794H2708.755l-134.412-28.922-116.681,13.943h-86.374l-184.663-14.436-189.2,29.415Z" fill="#0d7984"/>
          <path d="M2668.229,1372.492c-7.139-1.5-296.221,11.967-296.221,11.967l-92.791-11.967-281.791,23.935v79.164l189.4-29.056L2371.4,1460.9l86.348-.081,116.982-13.757,134.032,28.817,202.22-.29v-79.164S2675.365,1373.985,2668.229,1372.492Zm-296.386,77.778-185.757-14.521-188.66,27.732v-57.225l281.482-23.714,92.518,11.932,1.242-.058c.647-.029,17.224-.8,42.225-1.94l42.827,11.812-90.686,11.787,35.091,17.98Zm539.136,13.211-200.808,1.752-135.163-29.082L2456.82,1450.27l24.146-13.074-56.509-15.16,54.724-17.249-31.154-13.811c79.3-3.567,195.54-8.628,216.813-8.628,1.01,0,1.543.011,1.775.02,16.254,2.252,171.382,16.928,244.364,23.888Z" fill="#0f6d7b"/>
          <path d="M2541.595,1395.847c0,1.554-6.694,2.814-14.952,2.814s-14.955-1.26-14.955-2.814,6.7-2.813,14.955-2.813S2541.595,1394.293,2541.595,1395.847Z" fill="#0f6d7b"/>
          <path d="M2582.6,1407.893c0,2.129-9.181,3.857-20.506,3.857s-20.5-1.728-20.5-3.857,9.181-3.859,20.5-3.859S2582.6,1405.761,2582.6,1407.893Z" fill="#0f6d7b"/>
          <path d="M2303.819,1395.847c0,2.132-9.176,3.859-20.5,3.859s-20.5-1.727-20.5-3.859,9.178-3.859,20.5-3.859S2303.819,1393.716,2303.819,1395.847Z" fill="#0f6d7b"/>
          <path d="M2102.754,1426.089c0,2.129-9.18,3.857-20.5,3.857s-20.5-1.728-20.5-3.857,9.181-3.859,20.5-3.859S2102.754,1423.958,2102.754,1426.089Z" fill="#0f6d7b"/>
          <path d="M2246.356,1405.953c0,1.061-4.568,1.922-10.206,1.922s-10.207-.861-10.207-1.922,4.568-1.919,10.207-1.919S2246.356,1404.892,2246.356,1405.953Z" fill="#0f6d7b"/>
          <path d="M2318.616,1404.034c0,1.061-4.568,1.919-10.207,1.919s-10.2-.858-10.2-1.919,4.571-1.922,10.2-1.922S2318.616,1402.972,2318.616,1404.034Z" fill="#0f6d7b"/>
          <path d="M2365.008,1424.168c0,1.059-4.568,1.921-10.2,1.921s-10.207-.862-10.207-1.921,4.569-1.922,10.207-1.922S2365.008,1423.106,2365.008,1424.168Z" fill="#0f6d7b"/>
          <polygon points="2186.683 1540.911 2203.796 1512.49 2219.037 1540.911 2186.683 1540.911" fill="#3a3d34"/>
          <polygon points="2266.398 1577.048 2232.438 1591.3 2240.434 1560.869 2266.398 1577.048" fill="#3a3d34"/>
          <polygon points="2358.15 1552.404 2362.105 1584.068 2330.944 1567.082 2358.15 1552.404" fill="#3a3d34"/>
          <polygon points="2435.593 1539.816 2464.828 1519.491 2465.256 1550.651 2435.593 1539.816" fill="#3a3d34"/>
          <path d="M2558.96,1500.978s10.775-5.317,13.132-5.317,18.377,5.317,18.377,5.317-21.362,4.479-22.364,4.2S2558.96,1500.978,2558.96,1500.978Z" fill="#3a3d34"/>
          <path d="M2319.8,1501.107s16-7.894,19.5-7.894,27.288,7.894,27.288,7.894-31.72,6.648-33.207,6.233S2319.8,1501.107,2319.8,1501.107Z" fill="#3a3d34"/>
          <path d="M2459.876,1579.473s11.517-5.683,14.034-5.683,19.644,5.683,19.644,5.683-22.834,4.787-23.906,4.488S2459.876,1579.473,2459.876,1579.473Z" fill="#3a3d34"/>
          <path d="M2023.338,1584.365s11.518-5.686,14.037-5.686,43.712,5.944,43.712,5.944-46.9,4.526-47.975,4.225S2023.338,1584.365,2023.338,1584.365Z" fill="#3a3d34"/>
          <path d="M2066.217,1591.878s22.356-3.014,23.85-3.014,25.879,3.518,25.879,3.518-27.77,2.679-28.4,2.5S2066.217,1591.878,2066.217,1591.878Z" fill="#3a3d34"/>
          <path d="M2433.589,1591.311s8.22-4.057,10.017-4.057,14.027,4.057,14.027,4.057-16.3,3.418-17.07,3.2S2433.589,1591.311,2433.589,1591.311Z" fill="#3a3d34"/>
          <path d="M2454.2,1598.584s8.22-4.058,10.019-4.058,14.026,4.058,14.026,4.058-16.3,3.417-17.069,3.2S2454.2,1598.584,2454.2,1598.584Z" fill="#3a3d34"/>
          <path d="M2086.714,1501.107s16-7.894,19.494-7.894,27.288,7.894,27.288,7.894-31.72,6.648-33.2,6.233S2086.714,1501.107,2086.714,1501.107Z" fill="#3a3d34"/>
          <path d="M2313.06,1515.921s-10.166,5.34-12.424,5.393-17.8-4.7-17.8-4.7,20.348-4.766,21.32-4.519S2313.06,1515.921,2313.06,1515.921Z" fill="#3a3d34"/>
          <polygon points="2514.566 1519.76 2528.995 1513.944 2538.719 1523.085 2524.496 1529.316 2514.566 1519.76" fill="#3a3d34"/>
          <polygon points="2406.789 1563.343 2417.136 1559.174 2424.107 1565.727 2413.91 1570.194 2406.789 1563.343" fill="#3a3d34"/>
          <polygon points="2110.105 1568.15 2124.54 1562.334 2134.265 1571.476 2120.037 1577.707 2110.105 1568.15" fill="#3a3d34"/>
        </g>
      </g>
    </g>
  </g>
</svg>
