<?xml version="1.0" encoding="UTF-8" standalone="no"?>
<!DOCTYPE svg PUBLIC "-//W3C//DTD SVG 1.1//EN" "http://www.w3.org/Graphics/SVG/1.1/DTD/svg11.dtd">
<svg width="100%" height="100%" viewBox="0 0 474 628" version="1.1" xmlns="http://www.w3.org/2000/svg" xmlns:xlink="http://www.w3.org/1999/xlink" xml:space="preserve" xmlns:serif="http://www.serif.com/" style="fill-rule:evenodd;clip-rule:evenodd;stroke-linejoin:round;stroke-miterlimit:2;">
    <g transform="matrix(1,0,0,1,-4826,-1062)">
        <g id="Zyklop">
        </g>
        <g id="Schaf">
        </g>
        <g id="Hermes-evil" serif:id="Hermes evil">
        </g>
        <g id="Hermes-nett" serif:id="Hermes nett">
        </g>
        <g id="Kirke-evil" serif:id="Kirke evil">
        </g>
        <g id="Kirke-nett" serif:id="Kirke nett">
        </g>
        <g id="Helios">
        </g>
        <g id="Mutter">
        </g>
        <g id="Theresias">
        </g>
        <g id="Odysseus-froh" serif:id="Odysseus froh">
        </g>
        <g id="Odysseus-besorgt" serif:id="Odysseus besorgt">
        </g>
        <g id="Gladiator">
        </g>
        <g id="Steuermann-froh" serif:id="Steuermann froh">
        </g>
        <g id="Steuermann-traurig" serif:id="Steuermann traurig" transform="matrix(4.16667,0,0,4.16667,4783.34,-844.878)">
            <path d="M14.938,544.197C14.37,540.507 14.512,538.91 15.399,538.413C16.286,537.916 18.629,538.874 18.629,538.874L14.938,544.197Z" style="fill:rgb(244,154,103);fill-rule:nonzero;"/>
            <path d="M24.816,547.191C23.632,549.51 21.977,550.172 20.084,548.8C20.084,548.8 17.339,549.178 16.63,547.664C16.63,547.664 13.29,548.656 14.25,544.966C15.21,541.275 17.812,540.613 17.812,540.613L24.816,547.191Z" style="fill:rgb(244,154,103);fill-rule:nonzero;"/>
            <path d="M42.397,481.398C40.519,483.197 36.763,482.719 36.763,482.719L36.209,481.666L35.996,482.546C35.996,482.546 32.561,484.89 29.548,482.672C26.536,480.453 27.641,478.354 27.641,478.354C27.641,478.354 25.598,476.575 26.591,474.787C27.585,472.998 29.605,471.526 29.605,471.526L30.937,471.606L29.636,470.827C29.636,470.827 28.42,469.162 29.39,466.862C30.36,464.563 32.245,464.293 32.245,464.293L33.076,464.47C33.076,464.47 31.387,462.14 33.222,460.783C35.058,459.427 38.468,460.65 38.468,460.65L38.815,461.308L39.076,460.112C39.076,460.112 40.719,458.681 42.44,458.975C44.162,459.269 45.661,461.587 45.661,461.587L45.315,462.332L46.572,462.151C46.572,462.151 49.886,465.407 47.511,470.171C45.136,474.935 42.397,481.398 42.397,481.398Z" style="fill:rgb(200,77,41);fill-rule:nonzero;"/>
            <path d="M44.176,465.234L43.29,464.235L43.659,465.706C43.659,465.706 43.342,467.743 41.03,468.683C38.719,469.624 37.194,468.481 37.194,468.481L36.363,466.122C36.363,466.122 34.559,467.457 34.006,467.443C31.724,467.385 30.218,466.657 30.218,466.657L30.438,465.947L29.554,466.513C29.497,466.625 29.442,466.739 29.39,466.862C28.42,469.162 29.636,470.827 29.636,470.827L30.937,471.606L29.605,471.526C29.605,471.526 27.585,472.998 26.591,474.787C25.598,476.575 27.641,478.354 27.641,478.354C27.641,478.354 26.536,480.453 29.548,482.672C32.561,484.89 35.996,482.546 35.996,482.546L36.209,481.666L36.763,482.719C36.763,482.719 40.519,483.197 42.397,481.398C42.397,481.398 45.136,474.935 47.511,470.171C48.492,468.204 48.502,466.495 48.176,465.166C46.299,465.565 44.176,465.234 44.176,465.234Z" style="fill:rgb(172,53,38);fill-rule:nonzero;"/>
            <path d="M72.619,483.386C78.538,503.853 81.638,510.526 82.766,510.971C83.893,511.416 87.698,507.411 88.685,506.522C89.671,505.632 97.499,477.555 97.499,477.555L104.328,475.081C104.328,475.081 102.637,509.784 102.496,510.822C102.355,511.86 97.14,525.653 95.026,526.84C93.871,527.488 81.98,530.842 79.152,531.119C76.805,531.35 66.278,526.84 64.023,524.468C61.893,522.225 72.619,483.386 72.619,483.386Z" style="fill:rgb(199,27,118);fill-rule:nonzero;"/>
            <path d="M80.196,529.575C77.77,529.646 67.803,524.62 65.471,522.094C63.606,520.072 61.893,522.225 64.023,524.468C66.278,526.84 76.805,531.35 79.152,531.119C81.961,530.843 93.712,527.533 94.997,526.854C91.281,527.786 82.593,529.505 80.196,529.575Z" style="fill:rgb(175,32,105);fill-rule:nonzero;"/>
            <path d="M81.366,521.363C87.334,509.677 96.39,502.01 102.96,502.53C103.505,491.964 104.328,475.081 104.328,475.081L97.499,477.555C97.499,477.555 89.671,505.632 88.685,506.522C87.698,507.411 83.893,511.416 82.766,510.971C81.638,510.526 78.538,503.853 72.619,483.386C72.619,483.386 61.893,522.225 64.023,524.468C65.938,526.483 73.821,530.039 77.59,530.923C78.463,527.822 79.72,524.588 81.366,521.363Z" style="fill:rgb(175,32,105);fill-rule:nonzero;"/>
            <path d="M63.805,478.888C73.89,479.777 92.463,483.633 92.463,483.633L93.967,497.176C90.804,498.461 70.172,499.657 67.35,497.97C64.654,496.358 63.805,478.888 63.805,478.888Z" style="fill:rgb(247,188,133);fill-rule:nonzero;"/>
            <path d="M64.891,490.243C65.444,493.956 66.24,497.306 67.35,497.97C70.172,499.657 90.804,498.461 93.967,497.176L93.18,490.09C87.82,491.186 67.973,491.832 64.891,490.243Z" style="fill:rgb(244,154,103);fill-rule:nonzero;"/>
            <path d="M21.869,527.981C22.432,511.946 25.898,500.112 25.898,500.112L43.341,519.413C43.341,519.413 38.301,533.827 34.571,538.565C30.841,543.303 21.668,533.727 21.869,527.981Z" style="fill:rgb(247,188,133);fill-rule:nonzero;"/>
            <path d="M22.882,518.164L22.141,520.833C26.59,522.835 29.853,526.914 31.04,529.732L34.006,524.913C34.006,524.913 25.173,518.276 22.882,518.164Z" style="fill:rgb(244,154,103);fill-rule:nonzero;"/>
            <path d="M25.898,500.112C25.898,500.112 25.637,501.004 25.249,502.619C25.249,502.619 31.924,512.593 32.448,516.656C33.028,521.14 30.292,528.192 26.563,532.93C25.903,533.768 25.071,534.15 24.153,534.193C27.075,538.448 32.057,541.758 34.571,538.566C38.301,533.827 43.341,519.413 43.341,519.413L25.898,500.112Z" style="fill:rgb(244,154,103);fill-rule:nonzero;"/>
            <path d="M43.946,541.992C44.349,533.525 41.527,522.638 41.527,522.638C41.527,522.638 25.398,506.307 25.398,501.569C25.398,496.831 49.994,478.888 63.805,478.888C63.805,478.888 70.989,489.216 69.377,506.151C67.764,523.087 71.466,533.121 71.466,533.121C61.475,539.786 51.9,544.566 43.946,541.992Z" style="fill:rgb(247,188,133);fill-rule:nonzero;"/>
            <path d="M68.58,505.846C67.371,522.104 69.988,532.499 70.355,533.855C70.725,533.613 71.095,533.369 71.466,533.121C71.466,533.121 68.543,522.738 70.156,505.803C71.769,488.867 63.805,478.888 63.805,478.888C63.327,478.888 62.836,478.911 62.334,478.952C64.194,481.747 69.661,491.307 68.58,505.846Z" style="fill:rgb(244,154,103);fill-rule:nonzero;"/>
            <path d="M47.977,542.686C47.081,530.3 52.084,521.557 58.137,519.194C62.191,517.612 67.954,520.012 70.293,526.55C69.715,521.825 69.306,514.725 70.156,505.803C71.769,488.867 63.805,478.888 63.805,478.888C49.994,478.888 25.398,496.831 25.398,501.569C25.398,506.307 41.527,522.638 41.527,522.638C41.527,522.638 44.349,533.525 43.946,541.992C45.248,542.414 46.594,542.635 47.977,542.686Z" style="fill:rgb(244,154,103);fill-rule:nonzero;"/>
            <path d="M63.79,479.382L54.472,500.07L57.29,512.603C68.177,512.904 73.18,506.761 73.18,506.761C73.18,506.761 73.165,485.581 63.79,479.382Z" style="fill:rgb(247,188,133);fill-rule:nonzero;"/>
            <path d="M49.578,486.204L24.811,504.001L40.605,520.759C51.494,520.52 56.381,513.358 56.381,513.358C56.381,513.358 54.768,492.358 49.578,486.204Z" style="fill:rgb(247,188,133);fill-rule:nonzero;"/>
            <path d="M64.186,549.999C78.423,577.115 93.77,598.164 93.77,598.164L94.44,598.125L71.736,536.43L64.186,549.999Z" style="fill:rgb(247,188,133);fill-rule:nonzero;"/>
            <path d="M78.461,554.703L71.736,536.43L64.186,549.999C68.316,557.866 72.538,565.216 76.453,571.695C75.74,563.868 76.436,557.641 78.461,554.703Z" style="fill:rgb(244,154,103);fill-rule:nonzero;"/>
            <path d="M56.177,543.005C53.804,576.523 46.222,605.823 46.222,605.823L45.796,604.96L44.047,549.452L56.177,543.005Z" style="fill:rgb(247,188,133);fill-rule:nonzero;"/>
            <path d="M51.35,581.306C53.246,570.547 55.176,557.151 56.177,543.005L44.047,549.452L45.252,587.685C47.122,584.731 49.246,582.504 51.35,581.306Z" style="fill:rgb(244,154,103);fill-rule:nonzero;"/>
            <path d="M42.161,575.186C58.83,575.398 75.098,555.942 75.801,546.637L72.311,535.667L43.391,545.183L42.161,575.186Z" style="fill:rgb(250,228,180);fill-rule:nonzero;"/>
            <path d="M60.33,563.768C63.815,560.939 69.574,555.216 73.185,554.03C74.716,551.282 75.644,548.708 75.801,546.637L72.311,535.667L43.391,545.183L42.161,575.186C46.078,575.235 49.969,574.191 53.645,572.455C52.396,570.293 56.168,567.147 60.33,563.768Z" style="fill:rgb(238,209,147);fill-rule:nonzero;"/>
            <path d="M40.383,569.923C50.766,571.132 71.668,557.113 75.398,543.606C75.398,543.606 73.381,531.512 71.072,531.398C70.286,531.358 57.428,543.114 43.644,540.682C40.216,540.077 40.383,569.923 40.383,569.923Z" style="fill:rgb(219,47,126);fill-rule:nonzero;"/>
            <path d="M74.12,546.969C74.651,545.85 75.088,544.726 75.398,543.606C75.398,543.606 73.381,531.512 71.072,531.398C70.919,531.39 70.306,531.831 69.323,532.524C72.023,532.088 73.421,541.193 74.12,546.969Z" style="fill:rgb(205,25,115);fill-rule:nonzero;"/>
            <path d="M45.697,556.698C45.697,551.344 46.672,545.82 48.292,540.992C46.765,541.044 45.211,540.958 43.644,540.682C40.216,540.077 40.383,569.923 40.383,569.923C42.504,570.17 45.068,569.773 47.831,568.883C46.49,565.595 45.697,561.524 45.697,556.698Z" style="fill:rgb(205,25,115);fill-rule:nonzero;"/>
            <path d="M72.874,535.074C69.09,549.046 56.672,561.84 56.672,561.84C56.672,561.84 68.919,551.688 74.609,541.615C74.214,539.703 73.605,537.097 72.874,535.074Z" style="fill:rgb(205,25,115);fill-rule:nonzero;"/>
            <path d="M43.127,559.27L40.654,564.51C53.508,562.334 62.901,547.701 62.901,547.701C62.901,547.701 53.706,559.467 43.127,559.27Z" style="fill:rgb(205,25,115);fill-rule:nonzero;"/>
            <path d="M93.625,496.215C98.862,493.141 110.062,479.283 110.062,479.283L105.02,471.967C105.02,471.967 90.782,480.074 88.409,483.337C86.036,486.6 93.625,496.215 93.625,496.215Z" style="fill:rgb(247,188,133);fill-rule:nonzero;"/>
            <path d="M105.02,471.967C105.02,471.967 101.281,474.097 97.316,476.611L95.871,483.874C95.871,483.874 92.462,487.686 88.508,491.098C90.182,494.513 93.652,497.286 93.652,497.286C98.889,494.212 110.062,479.283 110.062,479.283L105.02,471.967Z" style="fill:rgb(244,154,103);fill-rule:nonzero;"/>
            <path d="M106.79,479.546C107.776,479.195 108.81,479.093 109.766,479.556C110.499,479.911 114.215,479.528 114.693,479.198C115.211,478.842 117.225,477.542 116.711,474.556C116.258,471.924 114.73,471.003 113.287,471.243C111.843,471.483 109.218,468.588 108.652,468.474C107.292,468.201 106.922,470.492 104.653,472.259C98.648,476.938 101.178,481.541 106.79,479.546Z" style="fill:rgb(247,188,133);fill-rule:nonzero;"/>
            <path d="M105.005,472.667C105.149,471.728 108.625,467.372 109.679,466.892C110.734,466.412 112.745,464.393 113.274,463.972C113.803,463.551 115.174,465.189 114.806,465.691C114.437,466.193 111.726,468.246 111.386,468.968C110.708,470.407 112.35,470.989 112.789,471.336C112.132,472.296 104.602,475.297 105.005,472.667Z" style="fill:rgb(247,188,133);fill-rule:nonzero;"/>
            <path d="M110.452,470.898C112.12,470.819 114.323,470.951 114.808,470.749C115.855,470.311 117.906,466.91 118.444,466.925C118.987,466.94 120.557,467.477 120.094,468.294C119.654,469.068 117.294,472.607 116.507,472.94C115.753,473.259 112.631,473.896 112.339,473.856C112.048,473.816 109.886,470.924 110.452,470.898Z" style="fill:rgb(247,188,133);fill-rule:nonzero;"/>
            <path d="M21.919,547.232C29.243,546.612 35.221,541.123 36.304,535.516C37.388,529.908 25.626,523.206 21.77,526.988C17.914,530.77 15.872,541.009 15.69,541.967C15.393,543.525 20.882,547.319 21.919,547.232Z" style="fill:rgb(247,188,133);fill-rule:nonzero;"/>
            <path d="M29.772,527.144C29.775,527.308 29.784,527.472 29.779,527.638C29.556,535.145 28.433,536.709 24.307,538.307C22.008,539.196 19.421,538.53 16.851,537.185C16.446,538.772 15.386,541.519 15.33,541.813C15.034,543.369 20.635,547.789 21.672,547.701C28.996,547.082 35.888,540.382 36.972,534.775C37.574,531.658 33.542,528.949 29.772,527.144Z" style="fill:rgb(244,154,103);fill-rule:nonzero;"/>
            <path d="M29.408,492.878C34.055,487.835 38.776,480.865 38.776,480.865L38.084,472.758L46.834,472.115L52.766,477.38L62.851,478.567C53.963,486.955 41.011,493.682 29.408,492.878Z" style="fill:rgb(247,188,133);fill-rule:nonzero;"/>
            <path d="M63.805,478.888C63.649,478.888 63.485,478.9 63.326,478.904C60.936,480.442 48.036,489.711 34.426,492.037L34.217,492.081C30.148,495.15 27.057,498.105 25.9,500.114L25.898,500.112L25.896,500.121C25.573,500.684 25.398,501.173 25.398,501.569C25.398,501.668 25.415,501.778 25.428,501.888C25.005,503.582 24.353,506.428 23.717,510.129C46.957,520.007 65.471,505.682 72.068,479.933C68.902,479.444 66.331,479.11 63.805,478.888Z" style="fill:rgb(244,154,103);fill-rule:nonzero;"/>
            <path d="M23.451,506.67C47.159,517.042 64.684,503.626 71.107,480.074C71.997,476.812 63.692,476.021 62.901,476.317C62.11,476.613 48.279,487.161 33.635,489.664C22.067,491.642 21.869,505.978 23.451,506.67Z" style="fill:rgb(219,47,126);fill-rule:nonzero;"/>
            <path d="M23.674,504.965C23.171,504.745 22.85,503.147 23.014,501.008C22.478,503.962 22.822,506.395 23.451,506.67C47.159,517.042 64.684,503.626 71.107,480.074C71.197,479.743 71.189,479.439 71.107,479.156C64.51,502.217 47.116,515.221 23.674,504.965Z" style="fill:rgb(205,25,115);fill-rule:nonzero;"/>
            <path d="M52.321,506.373C39.819,506.373 29.64,499.666 29.206,491.283C22.053,495.605 22.104,506.081 23.451,506.67C35.092,511.763 45.24,511.117 53.318,506.357C52.987,506.366 52.655,506.373 52.321,506.373Z" style="fill:rgb(205,25,115);fill-rule:nonzero;"/>
            <path d="M70.764,481.282C70.881,480.883 70.996,480.48 71.107,480.074C71.997,476.812 63.692,476.021 62.901,476.317C62.83,476.344 62.65,476.455 62.379,476.633C65.691,477.716 68.561,479.318 70.764,481.282Z" style="fill:rgb(205,25,115);fill-rule:nonzero;"/>
            <path d="M98.473,474.6C98.473,474.6 95.828,487.926 95.925,488.012C96.023,488.1 97.877,490.077 98.019,490.112C98.164,490.149 102.414,490.683 102.414,490.683L104.793,493.73L107.65,494.57L109.124,492.674L107.385,468.437C107.385,468.437 99.058,472.826 98.473,474.6Z" style="fill:rgb(219,47,126);fill-rule:nonzero;"/>
            <path d="M99.801,606.332L97.222,606.535C97.222,606.535 95.756,604.75 95.165,603.48C94.574,602.209 92.308,602.918 92.365,600.994C92.419,599.186 92.937,598.9 92.539,596.272L93.353,595.703C93.353,595.703 96.494,601.692 97.915,605.018C97.915,605.018 100.004,605.146 99.801,606.332Z" style="fill:rgb(247,188,133);fill-rule:nonzero;"/>
            <path d="M37.138,606.332L46.293,606.332C46.293,606.332 47.481,603.809 46.068,603.461C44.655,603.112 37.138,606.332 37.138,606.332Z" style="fill:rgb(247,188,133);fill-rule:nonzero;"/>
            <path d="M44.43,518.298C44.226,517.752 43.32,517.455 42.407,517.633C41.493,517.812 40.918,518.4 41.122,518.947C41.326,519.492 42.232,519.791 43.145,519.611C44.059,519.434 44.634,518.845 44.43,518.298Z" style="fill:rgb(224,114,55);fill-rule:nonzero;"/>
            <path d="M68.656,507.287C68.528,506.718 69.122,505.976 69.982,505.629C70.841,505.281 71.642,505.461 71.769,506.03C71.897,506.6 71.304,507.342 70.444,507.689C69.585,508.036 68.784,507.857 68.656,507.287Z" style="fill:rgb(224,114,55);fill-rule:nonzero;"/>
            <path d="M58.142,535.472C58.033,535.167 58.548,534.726 59.291,534.485C60.033,534.244 60.723,534.297 60.831,534.602C60.939,534.906 60.425,535.349 59.682,535.589C58.94,535.829 58.25,535.776 58.142,535.472Z" style="fill:rgb(244,154,103);fill-rule:nonzero;"/>
            <path d="M57.962,522.356C58.323,528.987 52.596,528.088 52.596,528.088C52.596,528.088 57.15,528.785 58.248,526.45C59.087,524.667 57.962,522.356 57.962,522.356Z" style="fill:rgb(244,154,103);fill-rule:nonzero;"/>
            <path d="M57.937,522.189C59.641,528.667 64.18,524.93 64.18,524.93C64.18,524.93 60.565,527.885 58.936,526.22C57.692,524.949 57.937,522.189 57.937,522.189Z" style="fill:rgb(244,154,103);fill-rule:nonzero;"/>
            <path d="M58.479,525.646C58.758,533.343 53.042,532.3 53.042,532.3C53.042,532.3 57.588,533.108 58.715,530.398C59.575,528.328 58.479,525.646 58.479,525.646Z" style="fill:rgb(244,154,103);fill-rule:nonzero;"/>
            <path d="M58.456,525.451C60.08,532.972 64.665,528.634 64.665,528.634C64.665,528.634 61.014,532.063 59.405,530.131C58.177,528.655 58.456,525.451 58.456,525.451Z" style="fill:rgb(244,154,103);fill-rule:nonzero;"/>
            <path d="M28.889,502.295L34.45,504.965C59.811,506.077 65.965,483.905 65.965,483.905C61.442,494.212 49.504,504.52 28.889,502.295Z" style="fill:rgb(205,25,115);fill-rule:nonzero;"/>
            <path d="M62.975,476.688C62.883,476.722 62.612,476.897 62.194,477.175C58.083,481.892 49.178,490.056 35.34,492.284C48.714,491.555 58.088,484.654 67.01,477.058C65.158,476.64 63.326,476.556 62.975,476.688Z" style="fill:rgb(205,25,115);fill-rule:nonzero;"/>
            <path d="M37.194,498.514C54.917,497.92 58.624,487.612 58.624,487.612C52.856,493.018 45.699,496.635 37.194,498.514Z" style="fill:rgb(205,25,115);fill-rule:nonzero;"/>
            <path d="M32.707,489.029C34.621,486.658 36.331,484.328 37.445,482.768C36.332,484.328 34.621,486.658 32.707,489.028L32.707,489.029Z" style="fill:rgb(220,148,145);fill-rule:nonzero;"/>
            <path d="M37.445,482.768C38.185,481.73 38.662,481.033 38.758,480.892C38.662,481.033 38.185,481.731 37.445,482.768ZM38.759,480.891C38.76,480.888 38.762,480.886 38.764,480.884C38.762,480.886 38.76,480.888 38.759,480.891ZM38.765,480.882C38.765,480.881 38.766,480.881 38.766,480.88C38.766,480.881 38.765,480.881 38.765,480.882ZM38.766,480.88C38.767,480.879 38.767,480.878 38.768,480.878C38.767,480.878 38.767,480.879 38.766,480.88ZM38.768,480.877C38.769,480.875 38.771,480.873 38.771,480.872C38.771,480.873 38.769,480.875 38.768,480.877ZM38.772,480.872C38.773,480.87 38.773,480.869 38.774,480.868C38.773,480.869 38.773,480.87 38.772,480.872ZM38.774,480.868C38.775,480.867 38.775,480.867 38.775,480.866C38.775,480.867 38.775,480.867 38.774,480.868Z" style="fill:rgb(140,35,43);fill-rule:nonzero;"/>
            <path d="M32.707,489.028C34.621,486.658 36.332,484.328 37.445,482.768C38.185,481.731 38.662,481.033 38.758,480.892C38.758,480.892 38.758,480.891 38.759,480.891C38.76,480.888 38.762,480.886 38.764,480.884C38.764,480.883 38.764,480.882 38.765,480.882C38.765,480.881 38.766,480.881 38.766,480.88C38.767,480.879 38.767,480.878 38.768,480.878L38.768,480.877C38.769,480.875 38.771,480.873 38.771,480.872L38.772,480.872C38.773,480.87 38.773,480.869 38.774,480.868C38.775,480.867 38.775,480.867 38.775,480.866L38.776,480.866L38.776,480.865L38.084,472.758L46.834,472.115L52.319,476.984C45.573,484.572 38.677,488.132 32.707,489.029" style="fill:rgb(211,93,51);fill-rule:nonzero;"/>
            <path d="M35.998,470.436C38.674,476.035 41.214,477.583 41.214,477.583C41.214,477.583 47.819,477.591 50.122,475.351L50.993,473.983C50.993,473.983 46.077,463.405 39.856,464.774C33.633,466.142 35.998,470.436 35.998,470.436Z" style="fill:rgb(247,188,133);fill-rule:nonzero;"/>
            <path d="M38.389,473.529C39.5,474.992 40.983,473.312 40.273,472.458C39.546,471.585 37.21,471.515 37.21,471.515C37.21,471.515 34.139,469.625 36.363,466.122C36.363,466.122 32.43,470.001 36.463,473.503L38.389,473.529Z" style="fill:rgb(172,53,38);fill-rule:nonzero;"/>
            <path d="M39.641,474.34C36.958,475.496 35.454,475.437 34.677,474.191C33.901,472.945 35.628,471.355 36.857,471.734C38.086,472.115 39.641,474.34 39.641,474.34Z" style="fill:rgb(247,188,133);fill-rule:nonzero;"/>
            <path d="M38.683,474.066C37.021,474.781 36.09,474.744 35.609,473.974C35.127,473.202 36.197,472.217 36.958,472.452C37.719,472.688 38.683,474.066 38.683,474.066Z" style="fill:rgb(225,124,82);fill-rule:nonzero;"/>
            <path d="M38.674,474.151C37.682,474.49 37.115,474.448 36.805,474.03C36.495,473.611 37.121,473.116 37.589,473.259C38.057,473.401 38.674,474.151 38.674,474.151Z" style="fill:rgb(247,188,133);fill-rule:nonzero;"/>
            <path d="M43.2,551.607C49.652,543.079 59.069,541.967 59.069,541.967L45.351,543.45L43.2,551.607Z" style="fill:rgb(205,25,115);fill-rule:nonzero;"/>
            <path d="M100.966,495.992C100.966,496.486 100.472,510.23 100.472,510.23L93.55,523.973L98.395,509.142L97.307,498.464L100.966,495.992Z" style="fill:rgb(175,32,105);fill-rule:nonzero;"/>
            <path d="M79.906,521.65C79.906,521.65 90.139,518.905 91.029,517.719C91.919,516.533 95.528,509.34 95.528,509.34C95.528,509.34 90.881,515.667 90.09,516.656C89.299,517.645 76.742,519.325 76.742,519.325L79.906,521.65Z" style="fill:rgb(175,32,105);fill-rule:nonzero;"/>
            <path d="M107.385,468.437C107.385,468.437 107.319,468.472 107.205,468.533L108.333,487.038L106.999,489.357L104.441,489.411L102.325,487.151C102.325,487.151 98.514,487.937 98.384,487.946C98.257,487.955 96.605,486.584 96.518,486.528C96.451,486.485 97.894,478.201 98.556,474.416L98.473,474.6C98.473,474.6 95.828,487.926 95.925,488.012C96.023,488.1 97.877,490.077 98.019,490.112C98.164,490.149 102.414,490.683 102.414,490.683L104.793,493.73L107.65,494.57L109.124,492.674L107.385,468.437Z" style="fill:rgb(199,27,118);fill-rule:nonzero;"/>
            <path d="M105.564,491.469C105.341,491.172 102.82,485.833 102.82,485.833L102.524,473.895L100.744,485.388L99.705,488.799L105.564,491.469Z" style="fill:rgb(199,27,118);fill-rule:nonzero;"/>
            <path d="M40.342,470.943C40.988,469.4 43.234,468.073 43.234,468.073C43.234,468.073 41.952,466.665 41.05,466.885C40.148,467.105 39.055,468.974 39.119,469.675C39.184,470.376 40.342,470.943 40.342,470.943Z" style="fill:rgb(200,77,41);fill-rule:nonzero;"/>
            <path d="M45.789,467.298C44.735,467.321 43.365,468.001 43.365,468.001C43.365,468.001 42.05,467.229 42.344,466.552C42.633,465.884 44.517,465.858 45.049,466.171C45.521,466.447 45.789,467.298 45.789,467.298Z" style="fill:rgb(200,77,41);fill-rule:nonzero;"/>
            <path d="M46.559,470.036C46.559,470.036 45.045,468.877 43.041,467.781L45.873,470.012L44.785,471.385L46.559,470.036Z" style="fill:rgb(225,124,82);fill-rule:nonzero;"/>
            <path d="M42.584,469.439C42.056,470.206 41.289,470.149 41.821,469.634C42.354,469.119 43.134,468.64 42.584,469.439Z" style="fill:rgb(107,54,45);fill-rule:nonzero;"/>
            <path d="M45.311,468.03C44.812,468.434 44.316,468.247 44.768,468.01C45.22,467.774 45.83,467.609 45.311,468.03Z" style="fill:rgb(107,54,45);fill-rule:nonzero;"/>
            <path d="M14.869,538.864C15.363,536.868 19.625,538.778 20.332,539.549C20.815,540.074 20.752,541.378 19.46,541.754C18.168,542.129 14.47,540.478 14.869,538.864Z" style="fill:rgb(247,188,133);fill-rule:nonzero;"/>
            <path d="M15.115,546.813C13.182,546.109 14.926,541.418 15.967,541.323C17.008,541.229 18.238,541.229 18.475,542.554C18.712,543.878 16.677,547.38 15.115,546.813Z" style="fill:rgb(247,188,133);fill-rule:nonzero;"/>
            <path d="M18.191,548.232C16.258,547.529 18.569,543.074 19.611,542.98C20.652,542.885 21.314,542.649 21.55,543.973C21.787,545.298 19.753,548.8 18.191,548.232Z" style="fill:rgb(247,188,133);fill-rule:nonzero;"/>
            <path d="M21.74,548.895C19.807,548.192 22.118,543.736 23.159,543.642C24.2,543.547 24.863,543.311 25.1,544.636C25.336,545.96 23.301,549.462 21.74,548.895Z" style="fill:rgb(247,188,133);fill-rule:nonzero;"/>
            <path d="M112.98,472.856C114.734,473.055 117.336,473.717 117.822,473.382C118.308,473.047 120.996,470.377 121.347,470.215C121.784,470.015 123.126,471.537 122.651,472.173C122.177,472.811 119.503,475.722 118.647,475.999C117.792,476.276 114.789,476.384 114.494,476.292C114.199,476.2 112.365,472.786 112.98,472.856Z" style="fill:rgb(247,188,133);fill-rule:nonzero;"/>
            <path d="M113.253,475.697C114.954,476.354 116.93,477.251 117.469,477.065C118.008,476.879 120.592,475.586 120.968,475.527C121.436,475.455 122.42,477.161 121.84,477.634C121.26,478.108 117.893,479.732 116.998,479.764C116.103,479.797 114.123,479.442 112.811,479.586C112.481,479.623 112.657,475.468 113.253,475.697Z" style="fill:rgb(247,188,133);fill-rule:nonzero;"/>
            <g id="Schwert" transform="matrix(0.151958,-0.185765,0.185765,0.151958,-638.575,789.076)">
                <g transform="matrix(4.16667,0,0,4.16667,1951.44,-804.026)">
                    <path d="M143.464,552.805L139.223,554.147L152.45,601.599L158.101,606.442L159.939,599.23L143.464,552.805Z" style="fill:rgb(189,228,230);fill-rule:nonzero;"/>
                </g>
                <g transform="matrix(4.16667,0,0,4.16667,1951.44,-804.026)">
                    <path d="M143.574,552.923L139.223,554.147L152.45,601.599L158.101,606.442L142.995,559.309L144.531,555.911L143.574,552.923Z" style="fill:rgb(155,216,221);fill-rule:nonzero;"/>
                </g>
                <g transform="matrix(4.16667,0,0,4.16667,1951.44,-804.026)">
                    <path d="M140.574,552.036L135.615,553.606C134.4,553.989 134.172,555.639 135.259,556.305C135.861,556.673 136.669,556.846 137.731,556.509L145.212,554.143C146.005,553.892 146.641,553.377 147.056,552.727C147.794,551.569 146.613,550.126 145.304,550.54L140.574,552.036Z" style="fill:rgb(246,160,58);fill-rule:nonzero;"/>
                </g>
                <g transform="matrix(4.16667,0,0,4.16667,1951.44,-804.026)">
                    <path d="M145.166,552.601L136.665,555.29C136.252,555.421 135.878,555.491 135.536,555.522C135.633,555.658 135.75,555.785 135.91,555.884C136.444,556.211 137.161,556.363 138.104,556.066L144.745,553.964C145.45,553.741 146.015,553.285 146.383,552.707C146.556,552.436 146.608,552.148 146.572,551.876C146.166,552.178 145.697,552.432 145.166,552.601Z" style="fill:rgb(247,209,100);fill-rule:nonzero;"/>
                </g>
                <g transform="matrix(4.16667,0,0,4.16667,1951.44,-804.026)">
                    <path d="M144.756,552.024C144.756,552.533 145.17,552.946 145.679,552.946C146.189,552.946 146.602,552.533 146.602,552.024C146.602,551.514 146.189,551.101 145.679,551.101C145.17,551.101 144.756,551.514 144.756,552.024Z" style="fill:rgb(141,24,56);fill-rule:nonzero;"/>
                </g>
                <g transform="matrix(4.16667,0,0,4.16667,1951.44,-804.026)">
                    <path d="M135.352,555.005C135.352,555.514 135.765,555.927 136.275,555.927C136.784,555.927 137.197,555.514 137.197,555.005C137.197,554.495 136.784,554.082 136.275,554.082C135.765,554.082 135.352,554.495 135.352,555.005Z" style="fill:rgb(141,24,56);fill-rule:nonzero;"/>
                </g>
                <g transform="matrix(4.16667,0,0,4.16667,1951.44,-804.026)">
                    <path d="M134.331,541.951C134.816,543.483 136.451,544.332 137.984,543.848C139.516,543.362 140.365,541.728 139.88,540.195C139.396,538.663 137.76,537.814 136.228,538.299C134.695,538.783 133.846,540.419 134.331,541.951Z" style="fill:rgb(247,209,100);fill-rule:nonzero;"/>
                </g>
                <g transform="matrix(4.16667,0,0,4.16667,1951.44,-804.026)">
                    <path d="M135.957,541.437C136.158,542.071 136.835,542.423 137.469,542.222C138.104,542.022 138.455,541.344 138.255,540.71C138.054,540.075 137.377,539.724 136.742,539.924C136.108,540.125 135.756,540.802 135.957,541.437Z" style="fill:rgb(141,24,56);fill-rule:nonzero;"/>
                </g>
            </g>
            <g id="Mund" transform="matrix(0.942117,-0.335284,-0.335284,-0.942117,85.6801,1144.65)">
                <path d="M186.565,645.638L186.956,646.334C187.792,646.506 189.725,646.61 189.725,646.61C189.725,646.61 187.192,645.952 186.565,645.638Z" style="fill:white;fill-rule:nonzero;stroke:rgb(107,54,45);stroke-width:0.15px;"/>
            </g>
        </g>
        <g id="Steuermann-angry" serif:id="Steuermann angry">
        </g>
    </g>
</svg>
