<svg xmlns="http://www.w3.org/2000/svg" width="237.574" height="349.31" viewBox="0 0 237.574 349.31">
  <g style="isolation: isolate">
    <g>
      <path d="M172.017,71.132l13.7,112.628s4.566,20.293,2.536,30.44S177.6,233.479,177.6,233.479l-76.1-17.757L77.146,108.675l80.158-55.3Z" fill="#75462c"/>
      <path d="M36.586,200.213c-1.329-8.644-1-12.384,1.081-13.548s7.564,1.081,7.564,1.081Z" fill="#e59368"/>
      <path d="M59.72,207.222c-2.77,5.43-6.649,6.982-11.082,3.768,0,0-6.427.887-8.09-2.659,0,0-7.821,2.324-5.573-6.319s8.344-10.194,8.344-10.194Z" fill="#e59368"/>
      <path d="M100.5,54.534C96.1,58.748,87.3,57.628,87.3,57.628L86,55.163l-.5,2.06s-8.045,5.489-15.1.294S65.939,47.4,65.939,47.4s-4.785-4.164-2.459-8.352,7.057-7.637,7.057-7.637l3.12.186L70.61,29.778a9.8,9.8,0,0,1-.576-9.284c2.271-5.385,6.687-6.018,6.687-6.018l1.946.414s-3.956-5.457.343-8.633,12.284-.313,12.284-.313l.812,1.54.612-2.8s3.846-3.352,7.879-2.664,7.542,6.118,7.542,6.118l-.809,1.742,2.945-.421s7.76,7.623,2.2,18.781S100.5,54.534,100.5,54.534Z" fill="#7c5941"/>
      <path d="M104.662,16.679l-2.076-2.337.867,3.443a9.807,9.807,0,0,1-6.159,6.973c-5.413,2.2-8.983-.474-8.983-.474l-1.947-5.525s-4.225,3.128-5.52,3.095a23.518,23.518,0,0,1-8.871-1.841l.515-1.663-2.069,1.326c-.133.262-.263.53-.385.818a9.8,9.8,0,0,0,.576,9.284L73.657,31.6l-3.12-.186s-4.731,3.449-7.057,7.637S65.939,47.4,65.939,47.4s-2.589,4.919,4.466,10.113,15.1-.294,15.1-.294l.5-2.06,1.3,2.465s8.795,1.12,13.194-3.094c0,0,6.415-15.135,11.977-26.292a16.761,16.761,0,0,0,1.558-11.722A29.952,29.952,0,0,1,104.662,16.679Z" fill="#604137"/>
      <path d="M167.641,50.834c18.315,6.82,50.911,23.507,50.911,23.507l9.474,25.636c-6.547.772-58.8-7.6-63.557-11.811C156.871,81.441,167.641,50.834,167.641,50.834Z" fill="#ecb683"/>
      <path d="M163.848,72.527c-.87,7.193-1.1,13.836.621,15.639,4.388,4.587,57.01,12.583,63.557,11.811L216.581,86.725C206.044,86.02,168.771,77.062,163.848,72.527Z" fill="#e59368"/>
      <path d="M52.729,161.172c1.227-34.98,8.789-60.8,8.789-60.8l32.81,39.566s-10.8,34.41-18.939,44.746S52.289,173.708,52.729,161.172Z" fill="#ecb683"/>
      <path d="M61.518,100.375s-.568,1.945-1.416,5.47c0,0,14.561,21.757,15.706,30.622,1.264,9.782-4.7,25.166-12.841,35.5a6.857,6.857,0,0,1-5.258,2.757c6.377,9.284,12.568,15.442,18.052,8.476,8.137-10.336,19.124-42.7,19.124-42.7Z" fill="#e59368"/>
      <path d="M108.4,196.007c1.785-18.13-3.092-41.8-3.092-41.8s-32.845-36.8-32.331-46.969,55.253-46.011,84.9-44.513c0,0,14.3,22.947,9,59.12s1.558,58.113,1.558,58.113C146.263,193.176,125.193,202.4,108.4,196.007Z" fill="#ecb683"/>
      <path d="M161.814,111.79c-2.83,38.074,3.3,62.42,4.158,65.6q1.3-.851,2.6-1.718s-6.846-24.316-3.069-63.978-14.873-63.034-14.873-63.034c-1.119,0-2.27.055-3.445.152C151.544,55.352,164.346,77.741,161.814,111.79Z" fill="#e59368"/>
      <path d="M116.978,197.934c-.579-26.681,11.108-44.9,24.356-49.317,8.872-2.956,20.981,2.818,25.291,17.106a207.673,207.673,0,0,1,1.957-44.544c5.3-36.173-10.709-58.457-10.709-58.457-29.642-1.5-84.38,34.344-84.895,44.513S105.309,154.2,105.309,154.2s4.877,23.673,3.092,41.8A31.835,31.835,0,0,0,116.978,197.934Z" fill="#e59368"/>
      <path d="M151.461,56.191,132.42,98.465l5.757,25.607c22.247.618,32.47-11.937,32.47-11.937S170.617,68.859,151.461,56.191Z" fill="#ecb683"/>
      <path d="M121.132,71.013,72.038,106.29l31.309,33.22c21.584-.474,31.272-14.672,31.272-14.672S131.422,83.213,121.132,71.013Z" fill="#ecb683"/>
      <path d="M151.524,215.2A1012.905,1012.905,0,0,0,220.808,328l1.57-.092L169.206,183.417Z" fill="#ecb683"/>
      <path d="M184.954,226.21l-15.748-42.793L151.524,215.2c9.673,18.423,19.559,35.635,28.728,50.81C178.584,247.675,180.213,233.09,184.954,226.21Z" fill="#e59368"/>
      <path d="M132.769,198.815c-5.558,78.5-23.316,147.115-23.316,147.115l-1-2.021-4.1-130Z" fill="#ecb683"/>
      <path d="M121.464,288.512a884.241,884.241,0,0,0,11.3-89.7l-28.409,15.1,2.822,89.54C111.56,296.534,116.537,291.319,121.464,288.512Z" fill="#e59368"/>
      <path d="M99.943,274.18c39.038.5,77.136-45.068,78.783-66.86l-8.173-25.691-67.73,22.287Z" fill="#f7e3b0"/>
      <path d="M142.493,247.44c8.163-6.626,21.65-20.029,30.106-22.805,3.587-6.436,5.76-12.464,6.127-17.314l-8.173-25.692-67.73,22.287-2.88,70.264c9.172.116,18.287-2.332,26.895-6.4C123.912,262.722,132.746,255.353,142.493,247.44Z" fill="#e9ce91"/>
      <path d="M95.779,261.854c24.316,2.833,73.267-30,82-61.634,0,0-4.723-28.323-10.13-28.59-1.842-.091-31.954,27.441-64.236,21.744C95.388,191.958,95.779,261.854,95.779,261.854Z" fill="#af7045"/>
      <g>
        <path d="M174.79,208.1a48.861,48.861,0,0,0,2.991-7.877s-4.723-28.323-10.13-28.59c-.358-.018-1.8,1.015-4.1,2.637C169.877,173.247,173.152,194.573,174.79,208.1Z" fill="#9b613a"/>
        <path d="M108.224,230.884A118.227,118.227,0,0,1,114.3,194.1a52.21,52.21,0,0,1-10.886-.726c-8.027-1.416-7.636,68.48-7.636,68.48,4.968.579,10.972-.352,17.443-2.436C110.082,251.718,108.224,242.183,108.224,230.884Z" fill="#9b613a"/>
      </g>
      <path d="M171.872,180.242c-8.863,32.719-37.946,62.683-37.946,62.683s28.681-23.776,42.009-47.366A120.931,120.931,0,0,0,171.872,180.242Z" fill="#9b613a"/>
      <path d="M102.2,236.9l-5.789,12.273c30.1-5.095,52.1-39.364,52.1-39.364S126.98,237.368,102.2,236.9Z" fill="#9b613a"/>
      <path d="M228.026,99.977c2.34-13.648-8.371-66.372-8.371-66.372l-15.945-.4s-6.378,28.1-3.588,38.069C203.909,78.85,228.026,99.977,228.026,99.977Z" fill="#ecb683"/>
      <path d="M212.828,86.374c5.781,5.78,15.2,13.6,15.2,13.6,2.34-13.648-8.371-66.97-8.371-66.97S220.6,82.387,212.828,86.374Z" fill="#e59368"/>
      <path d="M210.287,37.99c.778-1.971,9.229-4.524,11.207-5.366,1.516-.646,5.874-6.822,6.007-7.989a8.794,8.794,0,0,0-4.4-9.251c-4.616-2.809-8.051-1.7-9.605.816s-9.458,2.675-10.384,3.386c-2.226,1.711.776,5.321.454,11.13C202.718,46.1,205.867,49.2,210.287,37.99Z" fill="#ecb683"/>
      <path d="M209.2,20.064c2.1-2.647,5.231-5.831,5.566-6.84.724-2.179-1.733-9.829-1-10.63s3.651-2.489,4.281-.7c.6,1.7,2.854,10.005,2.316,11.647a48.357,48.357,0,0,1-4.147,7.575C215.774,21.51,208.491,20.962,209.2,20.064Z" fill="#ecb683"/>
      <path d="M214.728,19.356c2.292-2.738,6.311-6.4,6.287-7.589s-1.534-8.709-1.416-9.481c.148-.963,4.215-1.531,4.76-.02s2.481,9.273,2,11.027a35.238,35.238,0,0,1-4.136,7.337C221.734,21.025,213.926,20.316,214.728,19.356Z" fill="#ecb683"/>
      <path d="M219.868,22.228c2.833-2.362,6.362-4.973,6.564-6.109s.456-6.977.722-7.7c.331-.9,4.316-.961,4.582.529s-.173,9.042-1,10.657-3.4,4.765-4.431,7.227C226.049,27.454,218.875,23.056,219.868,22.228Z" fill="#ecb683"/>
      <path d="M50.044,207.607c15.493-1.311,24.429-16.951,26.187-28.9.9-6.121-20.338-23.537-26.5-13.917-6.263,9.776-12.475,29.657-12.861,31.683C36.241,199.764,47.851,207.792,50.044,207.607Z" fill="#ecb683"/>
      <path d="M66.87,166.1c.006.348-3.046,19.247-11.774,22.626-4.862,1.882-10.335.473-15.771-2.372-.856,3.356-3.1,9.166-3.217,9.787-.627,3.294,11.221,12.643,13.413,12.457,15.493-1.31,27.478-21.635,29.77-33.5C80.565,168.513,74.844,169.921,66.87,166.1Z" fill="#e59368"/>
      <path d="M70.077,81.42C80.96,69.611,92.016,53.287,92.016,53.287L90.4,34.3l20.492-1.506,13.893,12.33L148.4,47.9C127.582,67.549,97.251,83.3,70.077,81.42Z" fill="#ecb683"/>
      <path d="M150.632,48.656c-.366,0-.749.029-1.121.04C143.912,52.3,113.7,74,81.828,79.452c-.168.028-.324.072-.49.1-9.53,7.187-16.767,14.1-19.478,18.812l0,0-.006.021a7.286,7.286,0,0,0-1.166,3.39,6.121,6.121,0,0,0,.073.746c-.992,3.969-2.519,10.632-4.008,19.3,54.426,23.131,97.785-10.416,113.233-70.718C162.569,49.961,156.547,49.177,150.632,48.656Z" fill="#e59368"/>
      <path d="M56.126,113.721c55.523,24.291,96.564-7.13,111.606-62.287,2.084-7.641-17.366-9.493-19.218-8.8s-34.242,25.4-68.539,31.259C52.884,78.525,52.421,112.1,56.126,113.721Z" fill="#84502c"/>
      <path d="M56.647,109.726c-1.177-.514-1.928-4.257-1.545-9.267-1.255,6.918-.449,12.617,1.024,13.262,55.523,24.291,96.564-7.13,111.606-62.287a3.886,3.886,0,0,0,0-2.148C152.283,103.292,111.547,133.745,56.647,109.726Z" fill="#75462c"/>
      <g>
        <path d="M123.738,113.026c-29.278,0-53.118-15.708-54.134-35.341-16.753,10.121-16.632,34.656-13.478,36.036,27.262,11.927,51.029,10.415,69.945-.735C125.3,113.008,124.521,113.026,123.738,113.026Z" fill="#75462c"/>
        <path d="M166.929,54.264q.412-1.406.8-2.83c2.084-7.641-17.366-9.493-19.218-8.8a10.227,10.227,0,0,0-1.222.741A55.316,55.316,0,0,1,166.929,54.264Z" fill="#75462c"/>
      </g>
      <path d="M234.934,347.122l-6.041.477a44.617,44.617,0,0,1-4.818-7.157c-1.384-2.974-6.692-1.315-6.557-5.82.127-4.236,1.339-4.9.408-11.06l1.905-1.332s7.357,14.026,10.684,21.815C230.515,344.045,235.406,344.343,234.934,347.122Z" fill="#ecb683"/>
      <path d="M88.181,347.122h21.438s2.782-5.909-.526-6.724S88.181,347.122,88.181,347.122Z" fill="#ecb683"/>
      <path d="M111.942,133.711c-.407-1.092-2.217-1.687-4.042-1.329s-2.975,1.532-2.568,2.624,2.218,1.687,4.043,1.329S112.35,134.8,111.942,133.711Z" fill="#ecb683"/>
      <path d="M159.226,113.333c-.255-1.136.931-2.62,2.648-3.314s3.317-.334,3.572.8-.931,2.62-2.648,3.314S159.482,114.47,159.226,113.333Z" fill="#cd734a"/>
      <path d="M105.365,133.49c.067-1.163,1.616-2.263,3.458-2.457s3.28.592,3.212,1.755-1.616,2.263-3.458,2.457S105.3,134.653,105.365,133.49Z" fill="#cd734a"/>
      <path d="M137.369,181.173c-.254-.714.951-1.749,2.69-2.312s3.355-.44,3.608.274-.951,1.748-2.69,2.311S137.622,181.886,137.369,181.173Z" fill="#e59368"/>
      <path d="M136.948,150.456c.847,15.531-12.566,13.425-12.566,13.425s10.665,1.632,13.236-3.837C139.581,155.869,136.948,150.456,136.948,150.456Z" fill="#e59368"/>
      <path d="M136.889,150.063c3.991,15.174,14.621,6.421,14.621,6.421s-8.465,6.92-12.281,3.021C136.316,156.529,136.889,150.063,136.889,150.063Z" fill="#e59368"/>
      <path d="M138.159,158.16c.654,18.027-12.732,15.583-12.732,15.583s10.645,1.9,13.284-4.453C140.725,164.443,138.159,158.16,138.159,158.16Z" fill="#e59368"/>
      <path d="M138.1,157.705c3.8,17.612,14.542,7.452,14.542,7.452s-8.551,8.032-12.318,3.507C137.451,165.21,138.1,157.705,138.1,157.705Z" fill="#e59368"/>
      <path d="M68.861,103.475l13.025,6.251c59.392,2.605,73.806-49.319,73.806-49.319C145.1,84.545,117.139,108.685,68.861,103.475Z" fill="#75462c"/>
      <path d="M148.687,43.5a17.353,17.353,0,0,0-1.827,1.141c-9.63,11.047-30.484,30.166-62.89,35.385,31.32-1.708,53.272-17.868,74.167-35.66C153.8,43.391,149.51,43.2,148.687,43.5Z" fill="#75462c"/>
      <path d="M88.311,94.618C129.816,93.229,138.5,69.09,138.5,69.09Q118.234,88.077,88.311,94.618Z" fill="#75462c"/>
      <path d="M123.734,44.2l-12.847-11.4L90.4,34.3l1.621,18.987S85.637,62.7,77.8,72.405C91.784,70.305,107.935,61.969,123.734,44.2Z" fill="#ad4545" opacity="0.6" style="mix-blend-mode: multiply"/>
      <path d="M85.509,28.862C91.775,41.976,97.725,45.6,97.725,45.6s15.47.018,20.862-5.228l2.04-3.206S109.115,12.4,94.544,15.6,85.509,28.862,85.509,28.862Z" fill="#ecb683"/>
      <path d="M91.11,36.107c2.6,3.426,6.074-.51,4.411-2.509-1.7-2.044-7.172-2.208-7.172-2.208s-7.194-4.428-1.985-12.631c0,0-9.209,9.084.235,17.287Z" fill="#7c5941"/>
      <path d="M94.042,38c-6.283,2.709-9.806,2.569-11.625-.348s2.225-6.642,5.1-5.752S94.042,38,94.042,38Z" fill="#ecb683"/>
      <path d="M91.8,37.362c-3.892,1.678-6.074,1.591-7.2-.215s1.379-4.114,3.161-3.563S91.8,37.362,91.8,37.362Z" fill="#d07a5b"/>
      <path d="M91.777,37.563c-2.324.794-3.65.7-4.377-.284s.74-2.138,1.836-1.805A7.846,7.846,0,0,1,91.777,37.563Z" fill="#ecb683"/>
      <path d="M102.378,218.959a59.679,59.679,0,0,1,37.163-22.576l-32.127,3.474Z" fill="#9b613a"/>
      <path d="M93.986,28.307c1.879-2.95,7.079-4.965,7.079-4.965s-2.253-3.267-4.238-3.1-4.921,3.648-5.016,5.1S93.986,28.307,93.986,28.307Z" fill="#7c5941"/>
      <path d="M107.525,21.144a14.671,14.671,0,0,0-4.963,1.439s-2.691-1.581-2.09-2.967c.593-1.367,4.448-1.422,5.54-.781A4.849,4.849,0,0,1,107.525,21.144Z" fill="#7c5941"/>
      <path d="M110.243,27.926A71.524,71.524,0,0,0,102,22.645l6.632,5.225-2.549,3.214Z" fill="#d07a5b"/>
      <path d="M100.878,26.21c-1.566,1.79-3.378,1.362-1.9.226S102.508,24.347,100.878,26.21Z" fill="#533831"/>
      <path d="M107.775,23.107c-1.748,1.075-3.07.253-1.576-.3S109.6,21.988,107.775,23.107Z" fill="#533831"/>
      <path d="M111.192,30.829l-5.622,3.662a3.046,3.046,0,0,0,3.748.512C111.363,33.725,111.192,30.829,111.192,30.829Z" fill="#fff" stroke="#533831" stroke-miterlimit="10" stroke-width="0.25"/>
      <path d="M202.911,32.44c-1.241-1.468-3.262-12.561-2.592-14.807s.265-8,.327-9.364,4.384-1.28,4.659-.05-.2,8.093.449,9.572c1.293,2.947,4.364,1.217,5.477,1.009C211.821,21.078,206.385,36.552,202.911,32.44Z" fill="#ecb683"/>
      <g>
        <polygon points="3.749 184.577 1.493 191.66 89.113 219.473 93.479 202.177 3.749 184.577" fill="#f7e578"/>
        <polygon points="3.749 184.577 10.477 185.971 8.285 193.74 1.493 191.66 3.749 184.577" fill="#f2cf67"/>
        <polygon points="93.479 202.177 89.088 201.32 85.324 217.964 89.113 219.473 93.479 202.177" fill="#f2cf67"/>
      </g>
      <path d="M36.426,187.722c1.157-4.676,11.139-.2,12.794,1.6a3.285,3.285,0,0,1-2.043,5.163C44.15,195.368,35.491,191.5,36.426,187.722Z" fill="#ecb683"/>
      <path d="M37,206.336C32.475,204.69,36.559,193.7,39,193.481s5.319-.222,5.873,2.881S40.659,207.665,37,206.336Z" fill="#ecb683"/>
      <path d="M44.205,209.66c-4.526-1.646.887-12.079,3.325-12.3s3.989-.775,4.543,2.327S47.862,210.99,44.205,209.66Z" fill="#ecb683"/>
      <path d="M52.517,211.212c-4.527-1.646.886-12.08,3.324-12.3s3.99-.776,4.544,2.327S56.174,212.542,52.517,211.212Z" fill="#ecb683"/>
    </g>
  </g>
</svg>
