<?xml version="1.0" encoding="iso-8859-1"?>
<!-- Generator: Adobe Illustrator 26.0.2, SVG Export Plug-In . SVG Version: 6.00 Build 0)  -->
<svg version="1.1" id="_x31_" xmlns="http://www.w3.org/2000/svg" xmlns:xlink="http://www.w3.org/1999/xlink" x="0px" y="0px"
	 width="101.784px" height="149.654px" viewBox="0 0 101.784 149.654" enable-background="new 0 0 101.784 149.654"
	 xml:space="preserve">
<g>
	<path fill="#75462C" d="M74.306,31.005l5.849,48.092c0,0,1.95,8.665,1.083,12.998s-4.549,8.232-4.549,8.232l-32.494-7.582
		L33.796,47.035l34.227-23.613L74.306,31.005z"/>
	<path fill="#E59368" d="M16.478,86.122c-0.568-3.691-0.426-5.288,0.461-5.785c0.887-0.497,3.23,0.461,3.23,0.461L16.478,86.122z"/>
	<path fill="#E59368" d="M26.356,89.115c-1.183,2.319-2.839,2.981-4.732,1.609c0,0-2.745,0.379-3.454-1.136
		c0,0-3.34,0.992-2.38-2.698c0.96-3.69,3.563-4.353,3.563-4.353L26.356,89.115z"/>
	<path fill="#7C5941" d="M43.767,23.917c-1.879,1.799-5.634,1.321-5.634,1.321l-0.555-1.052l-0.213,0.879
		c0,0-3.435,2.344-6.448,0.126c-3.013-2.218-1.907-4.318-1.907-4.318s-2.043-1.778-1.05-3.566c0.993-1.788,3.013-3.261,3.013-3.261
		l1.332,0.079l-1.301-0.778c0,0-1.215-1.665-0.246-3.965c0.97-2.299,2.855-2.569,2.855-2.569l0.831,0.177
		c0,0-1.689-2.33,0.147-3.686c1.836-1.356,5.245-0.134,5.245-0.134l0.347,0.658l0.261-1.195c0,0,1.642-1.431,3.364-1.138
		c1.722,0.294,3.221,2.613,3.221,2.613l-0.345,0.744l1.257-0.18c0,0,3.313,3.255,0.939,8.019
		C46.506,17.454,43.767,23.917,43.767,23.917z"/>
	<path fill="#604137" d="M45.546,7.753L44.66,6.755l0.37,1.47c0,0-0.318,2.037-2.63,2.977C40.088,12.143,38.564,11,38.564,11
		l-0.831-2.359c0,0-1.804,1.336-2.357,1.322c-2.281-0.058-3.788-0.786-3.788-0.786l0.22-0.71l-0.884,0.567
		c-0.057,0.112-0.112,0.226-0.164,0.349c-0.97,2.299,0.246,3.965,0.246,3.965l1.301,0.778l-1.332-0.079c0,0-2.02,1.472-3.013,3.261
		c-0.993,1.788,1.05,3.566,1.05,3.566s-1.105,2.1,1.907,4.318c3.013,2.218,6.448-0.126,6.448-0.126l0.213-0.879l0.555,1.052
		c0,0,3.755,0.478,5.634-1.321c0,0,2.739-6.463,5.114-11.227c0.98-1.967,0.99-3.676,0.665-5.005
		C47.669,8.085,45.546,7.753,45.546,7.753z"/>
	<path fill="#ECB683" d="M72.438,22.337c7.82,2.912,21.739,10.037,21.739,10.037l4.046,10.947
		c-2.795,0.33-25.109-3.247-27.139-5.043C67.839,35.406,72.438,22.337,72.438,22.337z"/>
	<path fill="#E59368" d="M70.818,31.6c-0.372,3.071-0.471,5.908,0.265,6.678c1.874,1.958,24.343,5.373,27.139,5.043l-4.887-5.659
		C88.836,37.362,72.92,33.536,70.818,31.6z"/>
	<path fill="#ECB683" d="M23.37,69.451c0.524-14.936,3.753-25.96,3.753-25.96l14.01,16.894c0,0-4.612,14.693-8.087,19.107
		C29.572,83.906,23.183,74.804,23.37,69.451z"/>
	<path fill="#E59368" d="M27.123,43.491c0,0-0.243,0.83-0.605,2.335c0,0,6.217,9.29,6.706,13.076
		c0.54,4.177-2.009,10.746-5.483,15.159c-0.615,0.781-1.39,1.137-2.245,1.177c2.723,3.964,5.366,6.593,7.708,3.619
		c3.474-4.414,8.166-18.235,8.166-18.235L27.123,43.491z"/>
	<path fill="#ECB683" d="M47.143,84.326c0.762-7.742-1.32-17.85-1.32-17.85S31.797,50.762,32.017,46.42
		c0.22-4.342,23.593-19.647,36.25-19.007c0,0,6.106,9.798,3.843,25.244c-2.263,15.446,0.665,24.814,0.665,24.814
		C63.309,83.117,54.313,87.054,47.143,84.326z"/>
	<path fill="#E59368" d="M69.95,48.365c-1.209,16.257,1.409,26.653,1.775,28.009c0.37-0.242,0.74-0.486,1.111-0.734
		c0,0-2.923-10.383-1.311-27.319c1.613-16.936-6.351-26.915-6.351-26.915c-0.478,0-0.969,0.024-1.471,0.065
		C65.565,24.266,71.031,33.826,69.95,48.365z"/>
	<path fill="#E59368" d="M50.805,85.148c-0.247-11.392,4.743-19.174,10.4-21.058c3.788-1.262,8.959,1.203,10.799,7.304
		c-0.31-4.357-0.357-10.883,0.836-19.02c2.263-15.446-4.573-24.961-4.573-24.961c-12.657-0.64-36.03,14.665-36.25,19.007
		c-0.22,4.342,13.805,20.056,13.805,20.056s2.082,10.108,1.32,17.85C48.316,84.772,49.539,85.037,50.805,85.148z"/>
	<path fill="#ECB683" d="M65.529,24.625l-8.13,18.051l2.459,10.934c9.499,0.264,13.864-5.097,13.864-5.097
		S73.708,30.034,65.529,24.625z"/>
	<path fill="#ECB683" d="M52.579,30.953L31.616,46.017l13.369,14.185c9.216-0.203,13.353-6.265,13.353-6.265
		S56.972,36.163,52.579,30.953z"/>
	<path fill="#ECB683" d="M65.556,92.519c14.237,27.116,29.584,48.165,29.584,48.165l0.67-0.039L73.106,78.95L65.556,92.519z"/>
	<path fill="#E59368" d="M79.83,97.222L73.106,78.95l-7.55,13.569c4.13,7.867,8.352,15.216,12.267,21.696
		C77.11,106.388,77.806,100.16,79.83,97.222z"/>
	<path fill="#ECB683" d="M57.547,85.524c-2.373,33.517-9.956,62.818-9.956,62.818l-0.426-0.863l-1.749-55.508L57.547,85.524z"/>
	<path fill="#E59368" d="M52.72,123.825c1.896-10.758,3.826-24.154,4.827-38.301l-12.13,6.447l1.205,38.233
		C48.491,127.25,50.616,125.024,52.72,123.825z"/>
	<path fill="#F7E3B0" d="M43.531,117.705c16.669,0.212,32.937-19.244,33.64-28.549l-3.49-10.97l-28.92,9.516L43.531,117.705z"/>
	<path fill="#E9CE91" d="M61.7,106.287c3.485-2.829,9.244-8.552,12.855-9.738c1.532-2.748,2.459-5.322,2.616-7.393l-3.49-10.97
		l-28.92,9.516l-1.23,30.003c3.917,0.05,7.809-0.996,11.484-2.731C53.766,112.813,57.538,109.666,61.7,106.287z"/>
	<path fill="#AF7045" d="M41.753,112.442c10.383,1.21,31.285-12.809,35.015-26.317c0,0-2.017-12.094-4.326-12.208
		c-0.786-0.039-13.644,11.717-27.428,9.285C41.586,82.597,41.753,112.442,41.753,112.442z"/>
	<g>
		<path fill="#9B613A" d="M75.49,89.488c0.53-1.119,0.968-2.243,1.277-3.363c0,0-2.017-12.094-4.326-12.208
			c-0.153-0.008-0.766,0.433-1.749,1.126C73.393,74.607,74.791,83.713,75.49,89.488z"/>
		<path fill="#9B613A" d="M47.067,99.218c0-5.355,0.975-10.878,2.595-15.707c-1.527,0.052-3.081-0.033-4.648-0.31
			c-3.427-0.605-3.261,29.241-3.261,29.241c2.121,0.247,4.685-0.15,7.448-1.04C47.86,108.114,47.067,104.043,47.067,99.218z"/>
	</g>
	<path fill="#9B613A" d="M74.244,77.594c-3.785,13.971-16.203,26.765-16.203,26.765s12.247-10.152,17.938-20.225
		C75.584,82.223,74.975,79.616,74.244,77.594z"/>
	<path fill="#9B613A" d="M44.496,101.789l-2.472,5.24c12.853-2.175,22.246-16.808,22.246-16.808S55.076,101.986,44.496,101.789z"/>
	<path fill="#ECB683" d="M98.222,43.321c0.999-5.827-3.574-28.34-3.574-28.34l-6.809-0.17c0,0-2.723,12-1.532,16.255
		C87.924,34.3,98.222,43.321,98.222,43.321z"/>
	<path fill="#E59368" d="M91.733,37.512c2.468,2.468,6.489,5.809,6.489,5.809c0.999-5.827-3.574-28.596-3.574-28.596
		S95.052,35.81,91.733,37.512z"/>
	<path fill="#ECB683" d="M90.648,16.853c0.332-0.842,3.941-1.932,4.785-2.292c0.647-0.276,2.508-2.913,2.565-3.411
		c0.061-0.54,0.359-2.589-1.878-3.95c-1.971-1.199-3.438-0.727-4.101,0.349c-0.663,1.076-4.038,1.142-4.434,1.446
		c-0.951,0.73,0.331,2.272,0.194,4.752C87.416,20.314,88.76,21.639,90.648,16.853z"/>
	<path fill="#ECB683" d="M90.184,9.199c0.896-1.13,2.233-2.49,2.376-2.921c0.309-0.93-0.74-4.197-0.425-4.539
		c0.318-0.345,1.559-1.063,1.828-0.297c0.255,0.726,1.219,4.272,0.989,4.973c-0.22,0.673-1.578,3.067-1.771,3.235
		C92.991,9.816,89.881,9.582,90.184,9.199z"/>
	<path fill="#ECB683" d="M92.544,8.896c0.979-1.169,2.694-2.731,2.684-3.241c-0.01-0.51-0.655-3.719-0.604-4.048
		c0.063-0.411,1.8-0.654,2.032-0.008c0.233,0.645,1.059,3.959,0.852,4.708c-0.207,0.749-1.56,2.964-1.766,3.133
		C95.535,9.609,92.201,9.306,92.544,8.896z"/>
	<path fill="#ECB683" d="M94.738,10.123c1.21-1.009,2.717-2.124,2.803-2.609c0.086-0.485,0.195-2.979,0.308-3.287
		c0.141-0.384,1.843-0.41,1.957,0.226s-0.074,3.861-0.425,4.55c-0.351,0.689-1.451,2.035-1.892,3.086
		C97.378,12.354,94.314,10.476,94.738,10.123z"/>
	<path fill="#ECB683" d="M22.224,89.279c6.615-0.56,10.431-7.238,11.182-12.342c0.384-2.613-8.684-10.05-11.316-5.943
		c-2.674,4.175-5.327,12.664-5.492,13.529C16.33,85.93,21.288,89.358,22.224,89.279z"/>
	<path fill="#E59368" d="M29.409,71.556c0.002,0.149-1.301,8.218-5.028,9.661c-2.076,0.804-4.413,0.202-6.734-1.013
		c-0.366,1.433-1.323,3.914-1.374,4.179c-0.268,1.406,4.791,5.398,5.727,5.319c6.615-0.56,11.733-9.238,12.712-14.303
		C35.256,72.586,32.814,73.187,29.409,71.556z"/>
	<path fill="#ECB683" d="M30.778,35.397c4.647-5.042,9.368-12.013,9.368-12.013l-0.692-8.107l8.75-0.643l5.932,5.265l10.085,1.186
		C55.333,29.475,42.381,36.201,30.778,35.397z"/>
	<path fill="#E59368" d="M65.175,21.407c-0.156,0-0.32,0.013-0.479,0.017c-2.391,1.537-15.29,10.806-28.9,13.133
		c-0.072,0.012-0.138,0.031-0.209,0.044c-4.069,3.069-7.16,6.023-8.317,8.033l-0.002-0.002c0,0-0.002,0.007-0.003,0.009
		c-0.323,0.562-0.498,1.052-0.498,1.448c0,0.099,0.017,0.21,0.031,0.318c-0.423,1.695-1.076,4.54-1.711,8.241
		c23.24,9.877,41.754-4.447,48.351-30.196C70.272,21.964,67.701,21.63,65.175,21.407z"/>
	<path fill="#84502C" d="M24.821,49.19c23.708,10.372,41.232-3.044,47.656-26.596c0.89-3.263-7.415-4.054-8.206-3.757
		C63.48,19.133,49.649,29.68,35.005,32.184C23.437,34.161,23.239,48.497,24.821,49.19z"/>
	<path fill="#75462C" d="M25.044,47.484c-0.502-0.22-0.823-1.818-0.66-3.957c-0.536,2.954-0.192,5.387,0.437,5.662
		c23.708,10.372,41.232-3.044,47.656-26.596c0.09-0.331,0.082-0.635,0-0.917C65.88,44.737,48.486,57.74,25.044,47.484z"/>
	<g>
		<path fill="#75462C" d="M53.691,48.893c-12.502,0-22.681-6.707-23.115-15.09c-7.154,4.321-7.102,14.798-5.755,15.387
			c11.641,5.093,21.789,4.448,29.866-0.314C54.357,48.885,54.025,48.893,53.691,48.893z"/>
		<path fill="#75462C" d="M72.134,23.802c0.117-0.4,0.232-0.802,0.343-1.208c0.89-3.263-7.415-4.054-8.206-3.757
			c-0.071,0.027-0.251,0.138-0.522,0.316C67.061,20.236,69.931,21.838,72.134,23.802z"/>
	</g>
	<path fill="#ECB683" d="M101.172,148.851l-2.579,0.204c0,0-1.466-1.786-2.057-3.056c-0.591-1.27-2.857-0.562-2.8-2.485
		c0.054-1.809,0.572-2.093,0.174-4.723l0.813-0.568c0,0,3.142,5.989,4.562,9.315C99.285,147.537,101.373,147.665,101.172,148.851z"
		/>
	<path fill="#ECB683" d="M38.508,148.851h9.154c0,0,1.188-2.523-0.225-2.871C46.025,145.632,38.508,148.851,38.508,148.851z"/>
	<path fill="#ECB683" d="M48.654,57.725c-0.174-0.466-0.947-0.72-1.726-0.568c-0.779,0.153-1.27,0.654-1.096,1.12
		c0.174,0.466,0.947,0.72,1.726,0.568C48.338,58.693,48.828,58.192,48.654,57.725z"/>
	<path fill="#CD734A" d="M68.845,49.024c-0.109-0.485,0.397-1.119,1.131-1.415c0.733-0.296,1.416-0.143,1.525,0.343
		c0.109,0.485-0.397,1.119-1.131,1.415C69.637,49.663,68.954,49.51,68.845,49.024z"/>
	<path fill="#CD734A" d="M45.846,57.631c0.029-0.497,0.69-0.966,1.477-1.049c0.787-0.083,1.401,0.253,1.372,0.749
		c-0.029,0.497-0.69,0.966-1.477,1.049C46.431,58.463,45.817,58.128,45.846,57.631z"/>
	<path fill="#E59368" d="M59.512,77.991c-0.108-0.305,0.406-0.747,1.149-0.987c0.743-0.24,1.432-0.188,1.541,0.117
		c0.108,0.305-0.406,0.747-1.149,0.987C60.309,78.348,59.62,78.296,59.512,77.991z"/>
	<path fill="#E59368" d="M59.332,64.875c0.361,6.632-5.366,5.733-5.366,5.733s4.554,0.697,5.652-1.638
		C60.456,67.187,59.332,64.875,59.332,64.875z"/>
	<path fill="#E59368" d="M59.307,64.708c1.704,6.479,6.243,2.742,6.243,2.742s-3.615,2.955-5.244,1.29
		C59.062,67.469,59.307,64.708,59.307,64.708z"/>
	<path fill="#E59368" d="M59.849,68.165c0.279,7.698-5.437,6.654-5.437,6.654s4.545,0.809,5.672-1.902
		C60.945,70.848,59.849,68.165,59.849,68.165z"/>
	<path fill="#E59368" d="M59.826,67.971c1.624,7.52,6.209,3.182,6.209,3.182s-3.651,3.429-5.26,1.497
		C59.547,71.175,59.826,67.971,59.826,67.971z"/>
	<path fill="#75462C" d="M30.259,44.815l5.561,2.67c25.36,1.112,31.515-21.059,31.515-21.059
		C62.812,36.732,50.874,47.039,30.259,44.815z"/>
	<path fill="#75462C" d="M64.345,19.207c-0.091,0.034-0.362,0.209-0.78,0.487c-4.112,4.717-13.017,12.881-26.854,15.11
		c13.374-0.729,22.747-7.63,31.669-15.227C66.528,19.159,64.696,19.075,64.345,19.207z"/>
	<path fill="#75462C" d="M38.564,41.033c17.723-0.593,21.43-10.9,21.43-10.9C54.226,35.537,47.07,39.155,38.564,41.033z"/>
	<path opacity="0.6" fill="#AD4545" d="M53.69,19.503l-5.486-4.869l-8.75,0.643l0.692,8.107c0,0-2.724,4.021-6.069,8.163
		C40.047,30.651,46.943,27.092,53.69,19.503z"/>
	<path fill="#ECB683" d="M37.368,12.955c2.676,5.6,5.216,7.148,5.216,7.148s6.606,0.008,8.908-2.232l0.871-1.369
		c0,0-4.915-10.577-11.137-9.209C35.003,8.662,37.368,12.955,37.368,12.955z"/>
	<path fill="#7C5941" d="M39.759,16.049c1.111,1.462,2.593-0.218,1.883-1.072c-0.726-0.873-3.062-0.943-3.062-0.943
		s-3.072-1.891-0.847-5.394c0,0-3.932,3.879,0.1,7.382L39.759,16.049z"/>
	<path fill="#ECB683" d="M41.011,16.859c-2.683,1.157-4.187,1.097-4.964-0.149c-0.777-1.245,0.95-2.836,2.179-2.456
		C39.456,14.634,41.011,16.859,41.011,16.859z"/>
	<path fill="#D07A5B" d="M40.053,16.585c-1.662,0.716-2.593,0.679-3.075-0.092c-0.481-0.771,0.588-1.757,1.35-1.521
		C39.089,15.207,40.053,16.585,40.053,16.585z"/>
	<path fill="#ECB683" d="M40.044,16.671c-0.992,0.339-1.558,0.297-1.869-0.121c-0.31-0.418,0.316-0.913,0.784-0.771
		C39.427,15.921,40.044,16.671,40.044,16.671z"/>
	<path fill="#9B613A" d="M44.571,94.126c6.451-8.528,15.869-9.64,15.869-9.64l-13.718,1.483L44.571,94.126z"/>
	<path fill="#7C5941" d="M40.987,12.718c0.802-1.259,3.023-2.12,3.023-2.12s-0.962-1.395-1.81-1.322
		c-0.848,0.073-2.101,1.558-2.141,2.177C40.019,12.072,40.987,12.718,40.987,12.718z"/>
	<path fill="#7C5941" d="M46.768,9.66c-0.921,0.02-2.119,0.615-2.119,0.615S43.5,9.599,43.757,9.007
		c0.253-0.584,1.899-0.607,2.365-0.334C46.534,8.915,46.768,9.66,46.768,9.66z"/>
	<path fill="#D07A5B" d="M47.929,12.555c0,0-1.514-1.159-3.518-2.255l2.832,2.231l-1.088,1.372L47.929,12.555z"/>
	<path fill="#533831" d="M43.93,11.823c-0.669,0.764-1.442,0.581-0.812,0.097C43.748,11.434,44.626,11.027,43.93,11.823z"/>
	<path fill="#533831" d="M46.875,10.498c-0.747,0.459-1.311,0.108-0.673-0.13C46.84,10.13,47.652,10.02,46.875,10.498z"/>
	<path fill="#533831" d="M48.334,13.795l-2.401,1.564c0,0,0.727,0.764,1.6,0.218C48.407,15.032,48.334,13.795,48.334,13.795z"/>
	<path fill="#ECB683" d="M87.498,14.483c-0.53-0.627-1.393-5.364-1.107-6.323c0.286-0.959,0.113-3.415,0.14-3.999
		c0.027-0.584,1.872-0.546,1.989-0.021c0.117,0.525-0.086,3.456,0.192,4.088c0.552,1.258,1.864,0.52,2.339,0.431
		C91.303,9.631,88.981,16.239,87.498,14.483z"/>
	<g>
		<polygon fill="#F7E578" points="2.456,79.445 1.493,82.469 38.907,94.346 40.771,86.96 		"/>
		<polygon fill="#F2CF67" points="2.456,79.445 5.329,80.04 4.393,83.357 1.493,82.469 		"/>
		<polygon fill="#F2CF67" points="40.771,86.96 38.896,86.594 37.288,93.701 38.907,94.346 		"/>
	</g>
	<path fill="#ECB683" d="M16.409,80.788c0.494-1.996,4.756-0.086,5.463,0.684c0.483,0.526,0.42,1.829-0.872,2.205
		C19.708,84.053,16.01,82.401,16.409,80.788z"/>
	<path fill="#ECB683" d="M16.655,88.736c-1.933-0.703-0.189-5.394,0.852-5.489c1.041-0.095,2.271-0.095,2.508,1.23
		C20.252,85.802,18.217,89.304,16.655,88.736z"/>
	<path fill="#ECB683" d="M19.731,90.156c-1.933-0.703,0.379-5.158,1.42-5.253c1.041-0.095,1.703-0.331,1.94,0.994
		C23.327,87.222,21.293,90.723,19.731,90.156z"/>
	<path fill="#ECB683" d="M23.28,90.818c-1.933-0.703,0.379-5.158,1.42-5.253c1.041-0.095,1.703-0.331,1.94,0.994
		C26.876,87.884,24.842,91.386,23.28,90.818z"/>
</g>
</svg>
