<svg xmlns="http://www.w3.org/2000/svg" width="178.148" height="349.043" viewBox="0 0 178.148 349.043">
  <g style="isolation: isolate">
    <g>
      <g>
        <g>
          <path d="M20.883,199.334l-.7,1.726c1.622.409,3.721-.056,5.369.565,11.993,4.525,15.278,12.568,12.513,18.5s-10.545,9.641-22.538,5.117c-1.647-.621-3.648-2.471-5.109-3.225l-.619,1.329a43.1,43.1,0,0,0,8.126,4.061c13.087,4.937,22.253,1.733,25.509-5.257s-1.083-15.347-14.17-20.284A41.172,41.172,0,0,0,20.883,199.334Z" fill="#e09234"/>
          <path d="M4.087,223.9c-.918,1.972.344,4.328,2.819,5.261a5.885,5.885,0,0,0,.972.274,2.8,2.8,0,0,1-.46-2.969c.744-1.6,2.97-2.277,4.974-1.521a4.506,4.506,0,0,1,.915.471,4.6,4.6,0,0,0-3.075-3.4C7.757,221.082,5.006,221.924,4.087,223.9Z" fill="#e09234"/>
          <path d="M7.377,229.293a1.932,1.932,0,0,0,2.449-.749,1.613,1.613,0,0,0-1.123-2.1,1.931,1.931,0,0,0-2.449.749A1.613,1.613,0,0,0,7.377,229.293Z" fill="#e09234"/>
          <path d="M17.21,195.726c.919-1.972,3.67-2.813,6.146-1.879a5.688,5.688,0,0,1,.9.432,3.367,3.367,0,0,0-2.675,1.786c-.744,1.6.278,3.5,2.281,4.258a4.788,4.788,0,0,0,1.015.258,5.443,5.443,0,0,1-4.846.406C17.554,200.054,16.292,197.7,17.21,195.726Z" fill="#e09234"/>
          <path d="M23.794,194.054a1.612,1.612,0,0,1,1.123,2.1,1.931,1.931,0,0,1-2.449.749,1.612,1.612,0,0,1-1.123-2.1A1.931,1.931,0,0,1,23.794,194.054Z" fill="#e09234"/>
        </g>
        <polygon points="35.536 223.055 15.43 214.409 15.646 213.9 35.752 222.546 35.536 223.055" fill="#765260"/>
        <polygon points="37.757 220.824 15.255 211.093 15.472 210.585 37.974 220.316 37.757 220.824" fill="#765260"/>
        <polygon points="38.776 218.207 18.178 209.268 18.396 208.76 38.994 217.699 38.776 218.207" fill="#765260"/>
        <path d="M29.585,201.357a45.714,45.714,0,0,0-5.638-1.71c-.071-.022-.142-.039-.213-.066-1.949-.735-2.963-2.559-2.333-4.127a2.053,2.053,0,0,0,.942.7,1.931,1.931,0,0,0,2.449-.749,1.5,1.5,0,0,0-.685-1.867l.022,0a5.7,5.7,0,0,0-.9-.432c-2.475-.934-5.227-.093-6.145,1.879s.343,4.327,2.818,5.261c.053.02.107.032.16.05l-.011.023c.065.016.136.024.2.037a5.747,5.747,0,0,0,2.734.173,7.361,7.361,0,0,1,2.432.355c11.993,4.524,15.278,12.568,12.513,18.5s-11.442,9.465-23.435,4.941a7.117,7.117,0,0,1-2.139-1.443,5.02,5.02,0,0,0-1.508-1.26,4.945,4.945,0,0,0-.565-.346l-.029.063c-.052-.021-.1-.047-.151-.067-2.476-.934-5.227-.093-6.146,1.879s.344,4.328,2.819,5.261a5.967,5.967,0,0,0,.973.274l-.012-.017A1.818,1.818,0,0,0,9.7,227.8a1.612,1.612,0,0,0-1.123-2.1,2.3,2.3,0,0,0-1.2-.114,3.956,3.956,0,0,1,4.894-1.393,4.59,4.59,0,0,1,.916.47c0-.019-.01-.037-.014-.056a44.443,44.443,0,0,0,4.626,2.055c13.087,4.937,22.254,1.734,25.51-5.256S42.673,206.294,29.585,201.357Z" fill="#f1cc44"/>
        <path d="M43.183,221.653a24.446,24.446,0,0,0-3.218-5.069c-.353-.438-.728-.87-1.114-1.3a9.715,9.715,0,0,1-.917,4.1c-1.482,3.182-4.667,5.671-9.149,6.6.992,1.061,1.972,2.051,2.927,2.954C37.261,228.373,41.212,225.659,43.183,221.653Z" fill="#f7e578"/>
        <path d="M23.578,199.978a6.5,6.5,0,0,0,1.046-.16c-.226-.057-.452-.117-.677-.171-.071-.022-.142-.039-.213-.066-1.949-.735-2.963-2.559-2.333-4.127a2.053,2.053,0,0,0,.942.7,1.931,1.931,0,0,0,2.449-.749,1.5,1.5,0,0,0-.685-1.867l.022,0a5.7,5.7,0,0,0-.9-.432,5.057,5.057,0,0,0-5.792,1.3,4.7,4.7,0,0,0-.021.788C17.611,198.052,20.369,200.2,23.578,199.978Z" fill="#f7e578"/>
        <polygon points="13.33 224.29 25.317 200.484 27.085 200.965 15.141 225.196 13.33 224.29" fill="#f1cc44"/>
        <path d="M14.658,210.815a.866.866,0,1,0,.806-.918A.864.864,0,0,0,14.658,210.815Z" fill="#765260"/>
        <ellipse cx="15.795" cy="214.229" rx="0.866" ry="0.861" transform="translate(-14.435 1.556) rotate(-3.873)" fill="#765260"/>
        <path d="M17.68,209.184a.865.865,0,1,0,.8-.918A.864.864,0,0,0,17.68,209.184Z" fill="#765260"/>
        <path d="M13.4,223.726a12.212,12.212,0,0,1-1.039-.842,5.02,5.02,0,0,0-1.508-1.26,4.945,4.945,0,0,0-.565-.346l-.029.063c-.052-.021-.1-.047-.151-.067-2.476-.934-5.227-.093-6.146,1.879a3.218,3.218,0,0,0-.2.571,5.09,5.09,0,0,0,5.158,3.244,5.3,5.3,0,0,0,.824-.126,1.9,1.9,0,0,0-1.169-1.137,2.3,2.3,0,0,0-1.2-.114,3.956,3.956,0,0,1,4.894-1.393,4.392,4.392,0,0,1,.724.357A4.8,4.8,0,0,0,13.4,223.726Z" fill="#f7e578"/>
        <polygon points="18.38 218.626 22.678 209.906 21.853 207.362 17.519 215.97 18.38 218.626" fill="#f7e578"/>
      </g>
      <g>
        <polygon points="65.168 206.63 58.001 344.873 59.022 344.734 90.72 176.26 65.168 206.63" fill="#ecb683"/>
        <path d="M72.392,273.672,90.72,176.26,65.168,206.63l-4.117,79.405A50.462,50.462,0,0,1,72.392,273.672Z" fill="#e59368"/>
        <path d="M44.831,347.005l14.306-1.942s1.318-4.173-.963-4.415S44.831,347.005,44.831,347.005Z" fill="#ecb683"/>
      </g>
      <g>
        <polygon points="130.253 191.136 137.493 344.13 136.464 343.926 106.787 178.83 130.253 191.136" fill="#ecb683"/>
        <path d="M131.728,222.307l-1.475-31.171L106.787,178.83l12.537,69.746A138.525,138.525,0,0,1,131.728,222.307Z" fill="#e59368"/>
        <path d="M150.121,346.976l-14.16-2.8s-1.062-4.246,1.23-4.349S150.121,346.976,150.121,346.976Z" fill="#ecb683"/>
      </g>
      <path d="M54.941,31.021C49.806,44.77,64.827,71.45,68.45,80.3c0,0-2.649-22.924-4.238-30.039" fill="#7f4d2a"/>
      <path d="M69.285,66.593S54.411,55.658,54.411,36.027,69.005,11.785,76.4,11.785c11.12,0,18.14,11.989,18.14,24.637s-4.6,30.3-4.6,30.3" fill="#7f4d2a"/>
      <path d="M31.8,200.567c1.018-1.257,1.513-3.048,1-3.456s-2.827.379-3.845,1.635-.913,2.048-.4,2.456A2.6,2.6,0,0,0,31.8,200.567Z" fill="#ecb683"/>
      <path d="M169.678,178.282C149.51,138.56,104.387,67.216,101.445,65.02s-2.715,25.1.355,28.828,66.464,85.063,66.464,85.063Z" fill="#ecb683"/>
      <path d="M101.592,76.515c-.506-.7-1.7-1.807-2.225.476.057,7.073.882,14.972,2.433,16.857,3.069,3.73,66.464,85.063,66.464,85.063l-1.512-3.441C151.81,154.056,104.529,80.551,101.592,76.515Z" fill="#e59368"/>
      <path d="M74.7,30.089l-5.47,3s5.735,18.813-2.775,29.973L90.09,57.377A30.581,30.581,0,0,1,74.7,30.089Z" fill="#ecb683"/>
      <path d="M101.48,64.978c-.8-.71-17.7-12.581-20.595-12.164s-18.563,13.5-18.563,13.5L88.35,105.782l20.876-6.834S102.283,65.688,101.48,64.978Z" fill="#ecb683"/>
      <path d="M64.224,64.177c-.419.346-1.9,2.136-1.9,2.136L88.35,105.782l20.876-6.834s-.512-2.437-.914-4.345Z" fill="#e59368"/>
      <path d="M31.062,203.179C38.267,157.022,59.422,71.407,61.507,68.3s9.717,24.446,7.955,29.139S32.549,203.381,32.549,203.381Z" fill="#ecb683"/>
      <path d="M61.507,68.3c-.394.588-1.471,4.129-3.006,9.8-.5,1.846,2.939,22.026,1.918,24.987-1.313,3.8-21.345,75.524-29.134,100.13l1.264.172S67.7,102.129,69.462,97.436,63.592,65.187,61.507,68.3Z" fill="#e59368"/>
      <path d="M55.672,256.656c34.829-4.784,83-53.909,83-53.909l-9.338-33.915-64.108,28.7Z" fill="#f7e584"/>
      <path d="M82.247,229.941c14.258-25.488,38.712-39.843,54.978-32.444l-7.892-28.665-64.108,28.7-9.553,59.123a67.788,67.788,0,0,0,18.312-5.7A80.868,80.868,0,0,1,82.247,229.941Z" fill="#f1ce58"/>
      <path d="M101.586,120.4l-22.7,10.955C59.4,172.728,59.129,221.117,59.129,221.117s44.26-10.425,72.192-48.887C131.321,172.23,121.879,132.267,101.586,120.4Z" fill="#fff1c5"/>
      <path d="M75.541,215.39c2.5-1.065,5.207-2.3,8.06-3.723-10.617-30.362,2.609-51.891,2.609-51.891C75.854,174.794,74.187,193.607,75.541,215.39Z" fill="#ffeab0"/>
      <path d="M69.291,209.214c1.1-32.856,16.429-63.579,34.9-65.726,12.713-1.478,22.442,10.925,26.37,29.742.25-.337.509-.659.756-1,0,0-9.442-39.963-29.735-51.83l-22.7,10.955C59.4,172.728,59.129,221.117,59.129,221.117a97.722,97.722,0,0,0,10.222-3.261C69.218,215.054,69.192,212.17,69.291,209.214Z" fill="#ffeab0"/>
      <path d="M71.724,143.544l-2.862,11.733s24.963-8.43,42.826-27.567l-5.9-7.182Z" fill="#f7e584"/>
      <path d="M92.737,139.1c6.655-4.47,12.181-8.02,16.152-8.543.948-.923,1.885-1.868,2.8-2.848l-5.9-7.182L71.724,143.544l-2.862,11.733s3.291-1.115,8.325-3.44C79.949,147.845,86.094,143.563,92.737,139.1Z" fill="#f1ce58"/>
      <path d="M85.094,101.283c-13.141,30.3-15.2,48.07-15.2,48.07a108.2,108.2,0,0,0,39.849-25.516s-17.092-14.466-13.5-26.427S85.094,101.283,85.094,101.283Z" fill="#fff1c5"/>
      <path d="M94.855,118.825a14.554,14.554,0,0,1,12.282,2.575c-4.636-4.624-13.592-15.013-10.894-23.99,3.594-11.96-11.149,3.873-11.149,3.873-13.14,30.3-15.2,48.07-15.2,48.07S76.705,123.6,94.855,118.825Z" fill="#ffeab0"/>
      <path d="M66.457,102.65c.592,2.362,12.773,13.423,12.773,13.423l19.837-4.817s11.94-10.842,11.591-12.479S63.194,64.433,63.194,64.433l-.924.982S65.68,99.546,66.457,102.65Z" fill="#fff1c5"/>
      <path d="M62.907,65.316v6.63a4.575,4.575,0,0,0,6.326-1.753Z" fill="#ffeab0"/>
      <path d="M65,69.986c4.122,2.221,41.137,29.816,41.481,31.269s3.092-1.2,3.092-1.2l-44.4-32.208Z" fill="#ffeab0"/>
      <path d="M97.89,103.134c-12.8,2.717-26.694,8.58-33.666-33.148-.216-1.294-1.486-.523-1.687-1.915.818,8.07,2.473,32.573,3.118,35.149.592,2.361,12.911,14.011,12.911,14.011l20.87-5.041s9.211-9.638,10.938-12.616A78.923,78.923,0,0,1,97.89,103.134Z" fill="#ffeab0"/>
      <path d="M88.958,124.407s-11.429,7.011-19,24.473c-.045.313-.064.473-.064.473a75.456,75.456,0,0,0,8.087-3.29C80.728,134.968,84.94,128.662,88.958,124.407Z" fill="#ffeab0"/>
      <path d="M63.966,67.765s43.685,30.922,43.914,32.718c.147,1.149-12.492,7.07-21.634,11.194-5.163,2.33-9.211,4.086-9.211,4.086l1.531,1.468s35.573-13.254,32.635-18.368c-1.03-1.794-46.29-33.49-46.29-33.49Z" fill="#f7e3b0"/>
      <path d="M111.315,99.21c-1.019.37-2.2.775-3.483,1.19a.591.591,0,0,1,.048.083c.147,1.148-12.492,7.07-21.634,11.194-5.16,2.329-9.206,4.084-9.21,4.086-.744.651.5,2.429,1.512,1.931C78.548,117.694,112.6,104.548,111.315,99.21Z" fill="#f1ce58"/>
      <path d="M71.774,64.873,80,63.489C67.905,61.805,68,65.68,71.774,64.873Z" fill="#e59368"/>
      <path d="M88.772,61.983l-5.716,1.228C90.17,57.914,91.45,61.582,88.772,61.983Z" fill="#e59368"/>
      <path d="M88.755,56.473c-.275-.166-.55-.333-.819-.492A30.535,30.535,0,0,1,74.7,30.089l-5.47,3s5.625,18.474-2.559,29.668c-.595.478-1.147.925-1.65,1.334a46.6,46.6,0,0,0,11.189-1.887A43.635,43.635,0,0,0,88.755,56.473Z" fill="#ad4545" opacity="0.6" style="mix-blend-mode: multiply"/>
      <path d="M82.318,49.359C72.912,46.5,69.8,38.111,69.288,33.235s3.6-13.023,8.334-13.008c7.148.023,9.149,7.769,9.651,13.9C87.891,41.672,82.318,49.359,82.318,49.359Z" fill="#ecb683"/>
      <path d="M67.946,32.766c-1.478-1.785-3.607.4-3.035,1.88s3.836,2.847,4.123,1.993A5.474,5.474,0,0,0,67.946,32.766Z" fill="#ecb683"/>
      <path d="M67.569,33.43c-.912-1.1-2.226.246-1.872,1.16s2.367,1.757,2.543,1.23A3.372,3.372,0,0,0,67.569,33.43Z" fill="#d07a5b"/>
      <path d="M67.956,34.362c-.59-.713-1.441.16-1.212.751s1.533,1.138,1.647.8A2.186,2.186,0,0,0,67.956,34.362Z" fill="#ecb683"/>
      <path d="M59.678,66.737a5.2,5.2,0,0,0,5.15,4.355,3.917,3.917,0,0,0,4.12-4.355A5.206,5.206,0,0,0,63.8,62.383,3.916,3.916,0,0,0,59.678,66.737Z" fill="#f1ce58"/>
      <path d="M61.228,66.054a3.85,3.85,0,0,0,3.809,3.22,2.9,2.9,0,0,0,3.047-3.22,3.85,3.85,0,0,0-3.809-3.221A2.9,2.9,0,0,0,61.228,66.054Z" fill="#f7e584"/>
      <g>
        <path d="M84.522,32.546c-.2-1.173-.97-2.064-1.718-1.99s-1.186,1.092-.984,2.269.97,2.066,1.714,1.989S84.723,33.723,84.522,32.546Z" fill="#5e443e"/>
        <path d="M77.2,33.273c-.19-1.36-1-2.429-1.813-2.4s-1.315,1.164-1.125,2.524,1,2.431,1.81,2.394S77.387,34.63,77.2,33.273Z" fill="#5e443e"/>
        <path d="M72.9,33.123s2.231-2.031,4.526-1.844a2.106,2.106,0,0,0-2.336-.61C73.486,31.1,72.9,33.123,72.9,33.123Z" fill="#5e443e"/>
        <path d="M85.317,31.45s-2.512-1.176-4.409-.46a1.761,1.761,0,0,1,1.8-1.092A3.658,3.658,0,0,1,85.317,31.45Z" fill="#5e443e"/>
        <path d="M71.95,30.674l-.128-.282a5.794,5.794,0,0,1,3.618-3.523l.279,1.009A5.471,5.471,0,0,0,71.95,30.674Z" fill="#903131"/>
        <path d="M85.178,28.85a6.2,6.2,0,0,0-4.69-1.59l-.1-1.019a6.528,6.528,0,0,1,4.9,2.239Z" fill="#903131"/>
        <path d="M81.908,36.708c0,.04.011.076,0,.114a1.351,1.351,0,0,1-1.726,1.041,1.756,1.756,0,0,1-1.115-.852,1.656,1.656,0,0,0,1.312,1.639,1.351,1.351,0,0,0,1.73-1.038A1.448,1.448,0,0,0,81.908,36.708Z" fill="#d07a5b"/>
        <path d="M77.911,41.157l5.147-.384s-.235,2.551-2.341,2.652C78.7,43.523,77.911,41.157,77.911,41.157Z" fill="#422231"/>
        <path d="M78.276,41.232l4.371-.326s.46,1.086-2.02,1.314C78.017,42.46,78.276,41.232,78.276,41.232Z" fill="#f8e9e9"/>
        <path d="M81.952,44.147c-.029-.311-.448.032-1,.07s-1.029-.242-1,.07.5.533,1.052.495S81.981,44.459,81.952,44.147Z" fill="#d78d70"/>
      </g>
      <g>
        <path d="M163.334,170.512c1.259,3.062.483,7.784,1.849,9.482,1.082,1.345,6.05.892,6.392-.178s-6.494-9.571-6.494-9.571Z" fill="#ecb683"/>
        <path d="M166.977,172.957c2.485,1.74,7.2,3.436,8,3.9s.17,1.216-2.243.638c-2.464-.59-3.052-1.382-3.81-.563C168.108,177.814,165.733,172.087,166.977,172.957Z" fill="#ecb683"/>
        <path d="M168.736,178.306c1.432,1.71,4.883,5.912,5.509,5.527s-4.134-6.655-4.134-6.655Z" fill="#ecb683"/>
        <path d="M167.152,179.283c.858,1.872,2.909,6.479,3.591,6.191s-2.025-7.1-2.025-7.1Z" fill="#ecb683"/>
        <path d="M164.761,179.223c.482,2.619,1.793,6.692,2.5,6.4s-.831-7.421-.831-7.421Z" fill="#ecb683"/>
      </g>
      <path d="M29.2,205.045c.391-1.564.2-2.96-.439-3.117s-1.467.985-1.859,2.549.038,2.238.673,2.4S28.808,206.609,29.2,205.045Z" fill="#ecb683"/>
      <path d="M31.419,205.665c.392-1.565.2-2.96-.439-3.117s-1.466.984-1.858,2.549.038,2.238.672,2.394S31.027,207.229,31.419,205.665Z" fill="#ecb683"/>
      <path d="M33.611,206.033c.392-1.564.2-2.96-.439-3.116s-1.467.984-1.859,2.548.038,2.238.673,2.4S33.219,207.6,33.611,206.033Z" fill="#ecb683"/>
      <path d="M29.731,202c1.532.526,2.948.454,3.161-.161s-.855-1.54-2.388-2.066-2.245-.159-2.459.456S28.2,201.478,29.731,202Z" fill="#ecb683"/>
      <path d="M66.066,43.669s-2.517,9.749,6.357,21.343c4.139,5.408,7.068,9.1,9.015,11.493a.22.22,0,0,0,.356-.258c-4.334-6.708-12.1-20.823-11.623-35.213" fill="#7f4d2a"/>
      <path d="M90.861,31.841S93.633,58.051,89.738,68a95.451,95.451,0,0,0-2.032-25.609" fill="#7f4d2a"/>
      <g>
        <path d="M86.646,13.718a11.774,11.774,0,0,0-2.763-3.138,6.837,6.837,0,0,0-.078,3.732c.328.84,1.7.921,1.881.883S86.974,14.558,86.646,13.718Z" fill="#f1ce58"/>
        <path d="M86.5,26.838a10.8,10.8,0,0,1-.323-3.992,4.8,4.8,0,0,1,3.016,2.013c.34.771-.828,1.915-1,2.027S86.83,27.443,86.5,26.838Z" fill="#f1ce58"/>
        <path d="M86.659,22.415a14.149,14.149,0,0,1-2.679-3.394,6.464,6.464,0,0,1,3.881.834c.762.57.413,1.93.327,2.082S87.316,22.842,86.659,22.415Z" fill="#f1ce58"/>
        <path d="M84.429,18.209A10.7,10.7,0,0,1,81.935,15.6a6.34,6.34,0,0,1,4.081.5c.621.47-.078,1.58-.189,1.692S84.924,18.435,84.429,18.209Z" fill="#f1ce58"/>
        <path d="M87.068,18.1a11.981,11.981,0,0,1,.889-4.444,9.435,9.435,0,0,1,2.122,3.624c.23,1.064-.943,1.939-1.139,2.005S87.225,19.325,87.068,18.1Z" fill="#f1ce58"/>
        <path d="M88.662,22.669a13.557,13.557,0,0,1,2.092-4.233,9.36,9.36,0,0,1,.955,4.363c-.139,1.05-1.524,1.419-1.719,1.411S88.523,23.72,88.662,22.669Z" fill="#f1ce58"/>
        <path d="M87.686,28.243a16.663,16.663,0,0,1,4.09-3.36,9.311,9.311,0,0,1-1.05,4.547,2.519,2.519,0,0,1-2.4.764C88.129,30.118,87.058,29.209,87.686,28.243Z" fill="#f1ce58"/>
      </g>
      <g>
        <path d="M70.886,13.317a14.115,14.115,0,0,1,3.55-2.971,7.728,7.728,0,0,1-.746,3.982c-.525.85-1.96.754-2.14.689S70.361,14.167,70.886,13.317Z" fill="#f1ce58"/>
        <path d="M68.134,27.3A12.5,12.5,0,0,0,69.353,23.1a5.539,5.539,0,0,0-3.563,1.741c-.521.775.431,2.148.586,2.291S67.657,27.9,68.134,27.3Z" fill="#f1ce58"/>
        <path d="M68.947,22.573a17.084,17.084,0,0,0,3.519-3.255,6.821,6.821,0,0,0-4.194.369c-.914.5-.855,2-.8,2.173S68.174,22.94,68.947,22.573Z" fill="#f1ce58"/>
        <path d="M72.183,18.394a12.844,12.844,0,0,0,3.154-2.441,6.547,6.547,0,0,0-4.328-.01c-.746.417-.27,1.693-.18,1.827S71.621,18.568,72.183,18.394Z" fill="#f1ce58"/>
        <path d="M69.479,17.929a12.987,12.987,0,0,0,.065-4.849,11.413,11.413,0,0,0-2.995,3.575,2.13,2.13,0,0,0,.733,2.286A1.832,1.832,0,0,0,69.479,17.929Z" fill="#f1ce58"/>
        <path d="M66.821,22.576A13.75,13.75,0,0,0,65.6,17.791a11.04,11.04,0,0,0-1.953,4.516c-.089,1.137,1.26,1.715,1.463,1.732S66.732,23.713,66.821,22.576Z" fill="#f1ce58"/>
        <path d="M66.6,28.639a15.677,15.677,0,0,0-3.482-4.122,10.034,10.034,0,0,0,.077,4.98c.436,1.113,2.1,1.189,2.314,1.134S67.03,29.752,66.6,28.639Z" fill="#f1ce58"/>
      </g>
    </g>
  </g>
</svg>
