<svg xmlns="http://www.w3.org/2000/svg" width="223.438" height="349.423" viewBox="0 0 223.438 349.423">
  <g>
    <path d="M177.577,231.459l-14.1,2.864s-1,20.114,26.988,19.963C192.231,248.439,178.984,232.235,177.577,231.459Z" fill="#cc8569"/>
    <path d="M65.2,265.758c-1.095,28.357,2.709,44.984,7.357,69.948,2.134.985,5.579,1.805,7.384-.492,2.954-17.722,10.115-28.28,13.845-38.592Z" fill="#cc8569"/>
    <path d="M128.7,263.594c2.806,30.8,9.35,51.742,15.347,73.534,1.805,1.532,5.853,1.477,7.33-.492,2.024-26.911,4.614-58.5,7.768-72.274Z" fill="#cc8569"/>
    <path d="M110.4,238.564a410.207,410.207,0,0,0-75.408,16.081c-6.556,17.842-.018,62.355,12.782,87.461,2.133,1.969,4.637,2.133,7.347-.115,2.687-15.4,5.919-28.471,5.919-28.471,27.035-3.576,51.256-10.172,82.119-7.011l16.962-42.147-6.474-27.373Z" fill="#eaa583"/>
    <path d="M160.343,281.064c-5.907,10.666-16.409,12.088-45.727,23.465-12.055,4.678-45.273.245-56.322,1.9-2.117,10.708-2.865,15.576-3.462,36.329,2.764-19,6.831-28.684,6.831-28.684,68.681,2.618,74.451-6.933,88.835-9.987Z" fill="#cc8569"/>
    <path d="M53.563,286.567c3.211,8.519,4.887,15.222,3.631,27.372l6.843-3.911C61.956,300.3,58.679,292.183,53.563,286.567Z" fill="#cc8569"/>
    <path d="M96.9,278.491c1.2,25.471,8.347,45.736,13.72,63.779,1.7,1.914,5.8,1.859,8.368.328.482-11.283,2.484-28.528,4.841-37.362C130.842,246.125,114.881,264.565,96.9,278.491Z" fill="#eaa583"/>
    <ellipse cx="203.715" cy="275.074" rx="8.071" ry="9.763" fill="#eaa583"/>
    <path d="M207.6,266.788c-15.752-2.954-17.721-22.973-17.721-22.973l-15.753-9.846-27.239,3.282c-8.861,5.908-4.267,38.726-4.267,38.726S146.56,296,157.39,297.309s29.864-5.908,29.864-5.908l21-8.532Z" fill="#eaa583"/>
    <path d="M202.153,265.311s-8.072,0-8.072,9.763,8.072,9.764,8.072,9.764-4.166-4.947-4.166-10.415A13.239,13.239,0,0,1,202.153,265.311Z" fill="#cc8569"/>
    <path d="M202.91,277.993c-1.166-.113-.575-7.687.367-7.175S204.077,278.105,202.91,277.993Z" fill="#5e3026"/>
    <path d="M152.385,236.6l-2.133.246s-4.759,12.225-4.185,17.312,2.844,6.4,2.844,6.4Z" fill="#cc8569"/>
    <path d="M207.833,277.836c-1.088-.092-.4-8,.479-7.288S208.921,277.928,207.833,277.836Z" fill="#5e3026"/>
    <path d="M153.341,234.716l14.243-2.059s7.726,18.6-18.673,27.9C145.273,255.645,152.278,235.922,153.341,234.716Z" fill="#efb79e"/>
    <path d="M100.805,307.975l-1.367-16.136s-2.188,14.221-1.313,17.722S100.805,307.975,100.805,307.975Z" fill="#cc8569"/>
    <path d="M124.352,300.864l.9-10.01s1.231,9.08.356,12.034S124.352,300.864,124.352,300.864Z" fill="#cc8569"/>
    <path d="M148.857,291.292s29.126,2.407,35.854.93c0,0-8.041,2.954-12.307,3.938s-12.608,2.9-17.2.93A12.853,12.853,0,0,1,148.857,291.292Z" fill="#cc8569"/>
    <g>
      <path d="M170.89,262.62c5.779-3.14,11.594-4.041,12.464-3.569s-1.454,2.567-1.454,2.567l-5.961,1.661Z" fill="#664646"/>
      <path d="M176.442,263.466c-.34,4.925,3.907,4.416,3.907,4.416s2.038-1.019.339-4.416S176.442,263.466,176.442,263.466Z" fill="#664646"/>
    </g>
    <polygon points="174.127 233.97 177.577 231.459 167.891 233.477 168.22 234.708 174.127 233.97" fill="#efb79e"/>
    <path d="M35.388,255.465S33.9,265.65,28.724,265.877c-7.038.309-6.266-7.618-2.279-9.153,7.384-2.845,2.826,11.8-6.619,11.267-3.808-.216-2.461-5.743-2.461-5.743" fill="none" stroke="#eaa583" stroke-linecap="round" stroke-linejoin="round" stroke-width="2"/>
  </g>
</svg>
