<?xml version="1.0" encoding="iso-8859-1"?>
<!-- Generator: Adobe Illustrator 26.0.2, SVG Export Plug-In . SVG Version: 6.00 Build 0)  -->
<svg version="1.1" id="_x31_" xmlns="http://www.w3.org/2000/svg" xmlns:xlink="http://www.w3.org/1999/xlink" x="0px" y="0px"
	 width="85.56px" height="147.969px" viewBox="0 0 85.56 147.969" enable-background="new 0 0 85.56 147.969" xml:space="preserve">
<g>
	<path fill="#CC8569" d="M69.108,99.459l-5.925,1.204c0,0-0.421,8.451,11.339,8.387C75.265,106.593,69.7,99.785,69.108,99.459z"/>
	<path fill="#EAA583" d="M74.277,104.65c0,0,0.827,8.411,7.446,9.652l0.276,6.756l-8.825,3.585L74.277,104.65z"/>
	<path fill="#CC8569" d="M21.892,113.869c-0.46,11.914,1.138,18.9,3.091,29.388c0.896,0.414,2.344,0.758,3.102-0.207
		c1.241-7.446,4.249-11.882,5.817-16.214L21.892,113.869z"/>
	<path fill="#CC8569" d="M48.571,112.96c1.179,12.942,3.928,21.739,6.448,30.895c0.758,0.643,2.459,0.62,3.079-0.207
		c0.85-11.307,1.939-24.579,3.264-30.366L48.571,112.96z"/>
	<path fill="#EAA583" d="M40.885,102.444C23.382,104.439,9.203,109.2,9.203,109.2c-2.754,7.496-0.007,26.198,5.37,36.746
		c0.896,0.827,1.948,0.896,3.087-0.048c1.129-6.469,2.487-11.962,2.487-11.962c11.359-1.502,21.535-4.274,34.502-2.946l7.127-17.708
		l-2.72-11.5L40.885,102.444z"/>
	<path fill="#CC8569" d="M61.868,120.3c-2.482,4.481-6.894,5.079-19.212,9.859c-5.065,1.966-19.021,0.103-23.664,0.8
		c-0.89,4.499-1.204,6.544-1.454,15.264c1.161-7.982,2.87-12.051,2.87-12.051c28.856,1.1,31.281-2.913,37.324-4.196L61.868,120.3z"
		/>
	<path fill="#CC8569" d="M17.004,122.612c1.349,3.579,2.054,6.396,1.526,11.5l2.875-1.643
		C20.53,128.38,19.154,124.972,17.004,122.612z"/>
	<path fill="#EAA583" d="M35.214,119.219c0.503,10.702,3.507,19.216,5.764,26.797c0.712,0.804,2.436,0.781,3.516,0.138
		c0.202-4.741,1.044-11.986,2.034-15.697C49.473,105.621,42.767,113.368,35.214,119.219z"/>
	<ellipse fill="#EAA583" cx="80.09" cy="117.784" rx="3.391" ry="4.102"/>
	<path fill="#EAA583" d="M56.214,101.892l11.444-1.379l6.618,4.137l-1.103,19.993c0,0-7.997,3.033-12.548,2.482
		c-4.55-0.552-6.205-8.963-6.205-8.963S52.491,104.374,56.214,101.892z"/>
	<path fill="#CC8569" d="M79.434,113.682c0,0-3.391,0-3.391,4.102s3.391,4.102,3.391,4.102s-1.75-2.078-1.75-4.376
		C77.683,115.213,79.434,113.682,79.434,113.682z"/>
	<path fill="#5E3026" d="M79.752,119.01c-0.49-0.047-0.242-3.23,0.154-3.014C80.302,116.21,80.242,119.057,79.752,119.01z"/>
	<path fill="#CC8569" d="M58.524,101.617l-0.896,0.103c0,0-1.999,5.136-1.758,7.273c0.241,2.137,1.195,2.689,1.195,2.689
		L58.524,101.617z"/>
	<path fill="#5E3026" d="M81.82,118.944c-0.457-0.039-0.167-3.36,0.201-3.062C82.391,116.18,82.277,118.983,81.82,118.944z"/>
	<path fill="#EFB79E" d="M58.926,100.827l5.984-0.865c0,0,3.246,7.813-7.845,11.72C55.536,109.62,58.479,101.334,58.926,100.827z"/>
	<path fill="#CC8569" d="M36.853,131.607l-0.575-6.779c0,0-0.919,5.975-0.552,7.446C36.095,133.744,36.853,131.607,36.853,131.607z"
		/>
	<path fill="#CC8569" d="M46.746,128.619l0.379-4.205c0,0,0.517,3.815,0.149,5.056S46.746,128.619,46.746,128.619z"/>
	<path fill="#CC8569" d="M57.042,124.597c0,0,12.237,1.011,15.064,0.391c0,0-3.378,1.241-5.171,1.655
		c-1.793,0.414-5.297,1.218-7.227,0.391C57.777,126.206,57.042,124.597,57.042,124.597z"/>
	<g>
		<path fill="#664646" d="M66.299,112.551c2.428-1.319,4.871-1.698,5.237-1.499c0.365,0.199-0.611,1.078-0.611,1.078l-2.504,0.698
			L66.299,112.551z"/>
		<path fill="#664646" d="M68.632,112.906c-0.143,2.069,1.641,1.855,1.641,1.855s0.856-0.428,0.143-1.855
			S68.632,112.906,68.632,112.906z"/>
	</g>
	<polygon fill="#EFB79E" points="67.659,100.514 69.108,99.459 65.039,100.307 65.177,100.824 	"/>
	
		<path fill="none" stroke="#EAA583" stroke-width="0.75" stroke-linecap="round" stroke-linejoin="round" stroke-miterlimit="10" d="
		M9.368,109.545c0,0-0.624,4.279-2.8,4.374c-2.957,0.13-2.633-3.201-0.958-3.846c3.102-1.195,1.187,4.959-2.781,4.734
		c-1.6-0.091-1.034-2.413-1.034-2.413"/>
</g>
</svg>
