<svg xmlns="http://www.w3.org/2000/svg" width="264.028" height="349.821" viewBox="0 0 264.028 349.821">
  <g style="isolation: isolate">
    <g>
      <path d="M203.63,165.745c7.59,3.124,16.061,4.667,17.441,8.6s-7.359,16.661-10.809,16.892-14.145-9.6-14.145-9.6Z" fill="#e59368"/>
      <polygon points="242.076 73.633 238.913 72.904 174.573 300.219 177.789 300.961 242.076 73.633" fill="#677979"/>
      <path d="M200.5,164.923c9.14,2.269,10.991,3.2,12.127,5.48s-3.555,10.628-3.925,11.612c-.468,1.245-4.821,1.353-4.792-1.069s1.943-5.984,1.943-5.984-6.634.143-7.24-4.7A5.731,5.731,0,0,1,200.5,164.923Z" fill="#ecb683"/>
      <path d="M213.326,174.9c1.851-.292,6.807.432,7.572,1.377s-.681,4.045-2.346,4.295-5.834-.771-6.524-1.7S212.457,175.034,213.326,174.9Z" fill="#ecb683"/>
      <path d="M210.2,180.833c1.793-.26,6.7.545,7.517,1.5s-.383,4.022-2,4.244-5.771-.866-6.513-1.8S209.359,180.955,210.2,180.833Z" fill="#ecb683"/>
      <path d="M206.685,185.36c1.806-.157,6.661.926,7.422,1.926s-.609,3.994-2.233,4.123-5.715-1.193-6.4-2.17S205.837,185.434,206.685,185.36Z" fill="#ecb683"/>
      <path d="M205.708,170.436c-42.522-44.9-58.222-79.486-68.986-87.909l6.375,61.492L197.576,183Z" fill="#ecb683"/>
      <polygon points="143.061 128.673 143.602 148.936 197.835 183.204 203.172 174.864 143.061 128.673" fill="#e59368"/>
      <path d="M145.071,100.315c-9.5-20.178-26.848-52.894-41.082-60.1s4.282,51.533,4.282,51.533Z" fill="#2b3138"/>
      <path d="M53.769,103.3c2.491-27.4,19.821-57.2,34.4-64.4s-3.714,50.716-3.714,50.716Z" fill="#2b3138"/>
      <path d="M50.923,183.716S36.512,104.01,64.672,87.544L71.64,163.9s10.785,47.869-2.57,50.772S50.923,183.716,50.923,183.716Z" fill="#ecb683"/>
      <path d="M147.251,214.707a75.782,75.782,0,0,1-4.348-33.968s2.216-52.744,5.694-69.39c0,0,.534-36.694-37.362-38.474-54.106-2.54-60.112,32.572-60.112,32.572s-5.41,27.485,18.163,68.518S147.251,214.707,147.251,214.707Z" fill="#ecb683"/>
      <path d="M108.319,154.735c-25.812-3.5-48.776-43.876-37.937-71.815,4.961-12.786,8.5-21.729,12.847-27.546,1.525-8.411,11.1-9.444,16.767-9.444,3.531,0,12.41,3.2,11.283,8.588,7.364,10.276,13.816,27.84,14.072,41.781.387,21.053-26.516,37.58-18.194,47.024s16.065,0,12.581-8.067C126.706,144.11,122.835,156.7,108.319,154.735Z" fill="#e59368"/>
      <path d="M142.9,180.739s2.615-39.386,3.968-59.516c-5.217,18.969-8.9,41.831-12.41,43.9-4.926,2.9-28.653-11.095-36.478-14.869s-3.188-46.743-2.9-77.808c0,0,1.615-1.105,4.159-2.615C75.45,70.806,70.1,142.943,63.9,152.868c-13.887-21.63.581,9.871,5.386,21.1,2.193,5.124,5.984,9.085,9.476,12.84,2.077-14.932,10.939-31.357,24.431-29.292,15.959,2.442,31.691,27.129,33.1,46.809a41.061,41.061,0,0,1-.391,9.483,91.2,91.2,0,0,0,11.343.9A75.789,75.789,0,0,1,142.9,180.739Z" fill="#e59368"/>
      <path d="M57.328,145.642C55.1,96.627,61.42,84.885,65.067,81.415l2.246,3.319L55.726,179.8Z" fill="#e59368"/>
      <path d="M44.156,348.162c74.018-18.38,98.748-8.061,116.131,0h76.935s-54.87-4.645-77.709-66.195S44.156,348.162,44.156,348.162Z" fill="#2b3138"/>
      <path d="M132.831,251.82c24,61.105,49.618,96.051,49.618,96.051H183.9l-29.42-118.163Z" fill="#ecb683"/>
      <path d="M179.269,329.269l-24.788-99.561-21.65,22.112a534.748,534.748,0,0,0,35.4,73.679A67.629,67.629,0,0,1,179.269,329.269Z" fill="#e59368"/>
      <path d="M98.7,242.067c-7.333,66.109-23.066,103.917-23.066,103.917H74.223L71.938,218.143Z" fill="#e59368"/>
      <path d="M144.029,206.869c-21.678-20.9-83.158-87.19-73.868-131.707l-4.645,4.645C47.322,127.034,80.479,246.2,55.092,321.549c-13.646,40.5-51.824,6.967-51.824,6.967s12.484,20.05,42.969,20.05c20.156,0,26.855-32.534,101.663-37.566,50.47-3.395,29.807,37.549,95.228,37.549C185.449,347.775,165.707,227.772,144.029,206.869Z" fill="#4b555e"/>
      <path d="M76.866,159.061c17.226,25.549,24.581,39.485,24.581,68.518s10.839,69.1,10.839,69.1-15-37.465-16.064-68.324C94.82,187.746,76.866,159.061,76.866,159.061Z" fill="#2b3138"/>
      <path d="M144.029,206.869c-21.678-20.9-82.292-89.921-73-134.438l-3.608,3.607L56.527,89.066a113.127,113.127,0,0,0-7.472,28.288C41.4,176.243,73.166,267.9,55.092,321.549c-13.646,40.5-51.824,6.967-51.824,6.967s12.484,20.05,42.969,20.05c12.228,0,19.507-11.973,40.041-22.516-.9-1.7-1.778-3.481-2.637-5.373C62.024,273.094,63.707,137.891,67.382,136.222s66.975,58.182,88.591,105.766c12.183,26.818,17.946,53.1,17.1,72.545,20.348,9.527,19.458,34.016,70.057,34.016C185.449,347.775,165.707,227.772,144.029,206.869Z" fill="#2b3138"/>
      <path d="M196.869,348.065H180.03s-1.162-5.613,1.355-6.387S196.869,348.065,196.869,348.065Z" fill="#ecb683"/>
      <path d="M60.873,348.065H77.617s1.154-5.613-1.348-6.387S60.873,348.065,60.873,348.065Z" fill="#ecb683"/>
      <path d="M80.641,152.868c39.314,39.7,57.194,74.9,57.194,74.9A486.7,486.7,0,0,1,80.641,152.868Z" fill="#2b3138"/>
      <path d="M153.622,310.807c-30.977-47.494-45.691-75.2-45.691-75.2s9.933,44.691,28.419,76.443c3.663-.424,7.5-.782,11.55-1.054C149.922,310.864,151.818,310.806,153.622,310.807Z" fill="#2b3138"/>
      <g style="mix-blend-mode: overlay">
        <path d="M219,340.472c-37.7-8.547-28.724-38.188-71.969-35.279C72.221,310.226,65.522,342.76,45.366,342.76a62.7,62.7,0,0,1-12.458-1.215c-14.582.193-29.64-13.029-29.64-13.029s12.484,20.05,42.969,20.05c20.156,0,26.081-32.534,100.889-37.566,50.47-3.395,30.581,37.549,96,37.549A42.879,42.879,0,0,1,219,340.472Z" fill="#b1c3c9"/>
      </g>
      <path d="M100.18,215.221c6.326-19.163,32.911-5.669,54.877,9.723-1.516-3.3-3.011-6.307-4.495-8.952-19.764-14.224-44.954-27.874-50.76-10.285,0,0-22.129-2.514-36.106,12.016.128,2.288.224,4.582.331,6.875C79.688,212.9,100.18,215.221,100.18,215.221Z" fill="#b1c3c9" style="mix-blend-mode: overlay"/>
      <path d="M133.63,154.449c0-1.23-2.34-2.226-5.226-2.226s-5.226,1-5.226,2.226,2.34,2.226,5.226,2.226S133.63,155.678,133.63,154.449Z" fill="#cd734a"/>
      <ellipse cx="94.623" cy="64.981" rx="15.545" ry="20.215" fill="#ecb683"/>
      <path d="M88.827,69.027c2.542,1.726,5.778,1.8,9.848-.1l-2.347-4.942H91.1Z" fill="#424a56"/>
      <path d="M106.108,153.494c-25.963-3.442-48.477-43.453-37.575-70.937C73.523,69.979,76.5,61.472,80.872,55.75c1.533-8.275,11.163-9.291,16.864-9.291,3.552,0,12.484,3.148,11.35,8.449,7.407,10.109,13.9,27.387,14.154,41.1.39,20.71-26.672,36.968-18.3,46.259s16.159,0,12.655-7.936C124.6,143.042,120.71,155.429,106.108,153.494Z" fill="#e5e5e5"/>
      <path d="M83.327,63.971s5.778.411,10.884.414a51.625,51.625,0,0,0,10.746-1.134s-1.7,6.1-11.084,3.1C83.815,70.077,83.327,63.971,83.327,63.971Z" fill="#ccc"/>
      <path d="M104.712,142.268c-8.323-9.291,19.645-25.162,19.258-45.872-.148-7.932-2.9-19.065-6.712-25.677a70.691,70.691,0,0,1,1,11.934c0,23.09-10.789,41.808-24.1,41.808s-24.1-18.718-24.1-41.808c0-1.954.656-4.314.8-6.2-.755,1.885-2.11,4.3-2.934,6.391-10.839,27.484,12.124,67.205,37.936,70.647,14.516,1.935,18.387-10.452,11.419-19.162C120.776,142.268,113.034,151.558,104.712,142.268Z" fill="#ccc"/>
      <path d="M82.394,63.636s-7.55-17.27,10-17.537c26.36-.4,14.905,12.143,12.464,17.009,0,0-1.921,5.157-11.638,1.977C82.8,68.721,82.394,63.636,82.394,63.636Z" fill="#ecb683"/>
      <path d="M90.649,68.423c1.6,1.406,3.64,1.471,6.2-.08l-1.478-4.029H92.084Z" fill="#e59368"/>
      <path d="M91.549,68.071c1.1,1.076,2.5,1.126,4.259-.06l-1.015-3.082a2.128,2.128,0,0,0-2.259,0Z" fill="#ecb683"/>
      <path d="M80.59,55.484l.489,3.959a14.288,14.288,0,0,1,11.164-3.914c7.028.578,14.1,5.115,14.1,5.115l2.4-4.181L93.444,48.9,79.7,54.15Z" fill="#e59368"/>
      <path d="M101.288,64.677a2.066,2.066,0,0,0-1.742-.8,2.158,2.158,0,0,0-1.778.8c0,.181.842.109,1.814.109S101.288,64.858,101.288,64.677Z" fill="#2b3138"/>
      <path d="M89.2,64.677a2.066,2.066,0,0,0-1.742-.8,2.158,2.158,0,0,0-1.778.8c0,.181.842.109,1.814.109S89.2,64.858,89.2,64.677Z" fill="#2b3138"/>
      <path d="M73.785,67.716S79.478,53,91.932,53s27.754,14.719,27.754,14.719-8.9-29.884-24.552-31.668C95.134,36.048,81.679,35.01,73.785,67.716Z" fill="#2b3138"/>
      <path d="M97.759,62.69s-1.335-1.179-.4-1.735,4.248-.467,5.16-.356.066,1.913.066,1.913A40.042,40.042,0,0,1,97.759,62.69Z" fill="#e5e5e5"/>
      <path d="M89.666,62.779s1.334-1.179.4-1.735-4.247-.467-5.159-.356S84.84,62.6,84.84,62.6A40.051,40.051,0,0,0,89.666,62.779Z" fill="#e5e5e5"/>
      <path d="M238.836,73.439s2.644-18.988,10.355-18.733,16.255,8.625,13.038,16.972-8.393,9.279-12.372,7.31-6.918-13.094.462-13.953,4.248,4.919,4.248,4.919-3.562-3.426-3.978-1.969-2.813,7.258,2.694,7.441,9.726-16.219.18-16.535-11.49,15.381-11.49,15.381" fill="#677979"/>
    </g>
  </g>
</svg>
