<?xml version="1.0" encoding="iso-8859-1"?>
<!-- Generator: Adobe Illustrator 26.0.2, SVG Export Plug-In . SVG Version: 6.00 Build 0)  -->
<svg version="1.1" id="_x31_" xmlns="http://www.w3.org/2000/svg" xmlns:xlink="http://www.w3.org/1999/xlink" x="0px" y="0px"
	 width="112.413px" height="148.94px" viewBox="0 0 112.413 148.94" enable-background="new 0 0 112.413 148.94"
	 xml:space="preserve">
<path fill="#E59368" d="M86.016,70.275c3.194,1.314,6.759,1.964,7.339,3.619s-3.097,7.011-4.549,7.108
	c-1.452,0.097-5.952-4.041-5.952-4.041L86.016,70.275z"/>
<g>
	<polygon fill="#677979" points="102.193,31.514 100.862,31.207 73.788,126.862 75.142,127.174 	"/>
</g>
<path fill="#ECB683" d="M84.7,69.929c3.846,0.955,4.625,1.347,5.103,2.306c0.478,0.959-1.496,4.472-1.652,4.886
	c-0.197,0.524-2.029,0.57-2.017-0.45c0.012-1.019,0.818-2.518,0.818-2.518s-2.792,0.06-3.047-1.978
	C83.714,70.646,84.7,69.929,84.7,69.929z"/>
<path fill="#ECB683" d="M90.096,74.126c0.779-0.123,2.864,0.182,3.186,0.58c0.322,0.397-0.287,1.702-0.987,1.807
	c-0.701,0.105-2.455-0.324-2.745-0.715C89.259,75.408,89.73,74.183,90.096,74.126z"/>
<path fill="#ECB683" d="M88.781,76.624c0.755-0.109,2.82,0.229,3.164,0.631c0.343,0.402-0.162,1.693-0.841,1.786
	c-0.679,0.093-2.429-0.364-2.741-0.758C88.051,77.888,88.426,76.675,88.781,76.624z"/>
<path fill="#ECB683" d="M87.301,78.529c0.76-0.066,2.803,0.389,3.123,0.81c0.32,0.421-0.256,1.681-0.94,1.735
	c-0.683,0.054-2.405-0.502-2.694-0.913C86.501,79.75,86.944,78.56,87.301,78.529z"/>
<path fill="#ECB683" d="M86.89,72.249C68.997,53.356,62.39,38.801,57.86,35.257l2.683,25.876l22.925,16.405L86.89,72.249z"/>
<polygon fill="#E59368" points="60.528,54.675 60.756,63.201 83.577,77.622 85.823,74.112 "/>
<path fill="#2B3138" d="M61.374,42.742c-3.996-8.491-11.298-22.258-17.287-25.289c-5.989-3.032,1.802,21.685,1.802,21.685
	L61.374,42.742z"/>
<path fill="#2B3138" d="M22.954,43.997c1.048-11.529,8.341-24.067,14.474-27.099c6.134-3.032-1.563,21.341-1.563,21.341
	L22.954,43.997z"/>
<path fill="#ECB683" d="M21.756,77.837c0,0-6.064-33.54,5.786-40.469l2.932,32.131c0,0,4.538,20.143-1.082,21.365
	S21.756,77.837,21.756,77.837z"/>
<path fill="#ECB683" d="M62.291,90.878c-2.805-7.208-1.83-14.294-1.83-14.294s0.932-22.195,2.396-29.199
	c0,0,0.225-15.441-15.722-16.19C24.367,30.126,21.84,44.901,21.84,44.901s-2.277,11.566,7.643,28.832
	C39.403,91,62.291,90.878,62.291,90.878z"/>
<path fill="#E59368" d="M45.908,65.642c-10.861-1.472-20.525-18.463-15.964-30.22c2.087-5.38,3.575-9.143,5.406-11.591
	c0.641-3.539,4.67-3.974,7.055-3.974c1.486,0,5.222,1.346,4.748,3.614c3.099,4.324,5.814,11.715,5.922,17.581
	c0.163,8.859-11.158,15.814-7.656,19.788c3.502,3.974,6.76,0,5.294-3.395C53.646,61.171,52.017,66.47,45.908,65.642z"/>
<path fill="#E59368" d="M60.458,76.584c0,0,1.1-16.574,1.67-25.044c-2.195,7.982-3.744,17.602-5.222,18.473
	c-2.073,1.222-12.057-4.669-15.35-6.257c-3.293-1.588-1.341-19.669-1.219-32.742c0,0,0.679-0.465,1.75-1.1
	c-10.009,0.41-12.262,30.765-14.87,34.941c-5.844-9.102,0.244,4.154,2.266,8.878c0.923,2.156,2.518,3.823,3.987,5.403
	c0.874-6.283,4.603-13.195,10.281-12.326c6.716,1.028,13.335,11.416,13.928,19.698c0.101,1.408,0.037,2.744-0.164,3.99
	c2.902,0.389,4.773,0.38,4.773,0.38C59.483,83.67,60.458,76.584,60.458,76.584z"/>
<path fill="#E59368" d="M24.451,61.815c-0.936-20.626,1.722-25.567,3.257-27.027l0.945,1.397L23.777,76.19L24.451,61.815z"/>
<path fill="#2B3138" d="M18.909,147.036c31.147-7.734,41.553-3.392,48.868,0l32.374,0c0,0-23.089-1.955-32.7-27.855
	C57.84,93.281,18.909,147.036,18.909,147.036z"/>
<path fill="#ECB683" d="M56.223,106.495c10.097,25.713,20.879,40.418,20.879,40.418h0.611L65.333,97.19L56.223,106.495z"/>
<path fill="#E59368" d="M75.764,139.086L65.333,97.19l-9.11,9.305c5.339,13.595,10.867,24.11,14.894,31.004
	C72.623,137.868,74.188,138.395,75.764,139.086z"/>
<path fill="#E59368" d="M41.86,102.391c-3.086,27.819-9.707,43.729-9.707,43.729h-0.592l-0.961-53.796L41.86,102.391z"/>
<path fill="#4B555E" d="M60.935,87.58c-9.122-8.796-34.993-36.69-31.084-55.422l-1.955,1.955
	c-7.656,19.873,6.297,70.017-4.387,101.725c-5.742,17.043-21.807,2.932-21.807,2.932s5.253,8.437,18.081,8.437
	c8.482,0,11.301-13.69,42.78-15.808c21.238-1.429,12.543,15.801,40.072,15.801C78.365,146.873,70.057,96.376,60.935,87.58z"/>
<path fill="#2B3138" d="M32.673,67.462c7.249,10.751,10.344,16.615,10.344,28.832s4.561,29.077,4.561,29.077
	s-6.312-15.765-6.76-28.751C40.228,79.533,32.673,67.462,32.673,67.462z"/>
<path fill="#2B3138" d="M60.935,87.58c-9.122-8.796-34.629-37.839-30.719-56.572l-1.518,1.518l-4.583,5.482
	c0,0-2.246,5.053-3.144,11.904c-3.219,24.781,10.146,63.351,2.54,85.925c-5.742,17.043-21.807,2.932-21.807,2.932
	s5.253,8.437,18.081,8.437c5.146,0,8.209-5.038,16.849-9.475c-0.377-0.715-0.748-1.465-1.11-2.261
	c-9.096-20.023-8.388-76.917-6.842-77.619c1.546-0.703,28.183,24.483,37.279,44.506c5.127,11.285,7.551,22.343,7.195,30.527
	c8.562,4.009,8.188,14.314,29.48,14.314C78.365,146.873,70.057,96.376,60.935,87.58z"/>
<path fill="#ECB683" d="M83.17,146.995h-7.086c0,0-0.489-2.362,0.57-2.688C77.713,143.982,83.17,146.995,83.17,146.995z"/>
<path fill="#ECB683" d="M25.943,146.995h7.046c0,0,0.486-2.362-0.567-2.688C31.369,143.982,25.943,146.995,25.943,146.995z"/>
<path fill="#2B3138" d="M34.261,64.856c16.544,16.707,24.068,31.52,24.068,31.52C49.094,86.53,41.231,75.963,34.261,64.856z"/>
<path fill="#2B3138" d="M64.972,131.317c-13.035-19.986-19.227-31.643-19.227-31.643s4.18,18.806,11.959,32.167
	c1.541-0.178,3.156-0.329,4.86-0.443C63.415,131.341,64.213,131.317,64.972,131.317z"/>
<g>
	<path fill="#B1C3C9" d="M92.482,143.8c-15.863-3.597-12.087-16.07-30.285-14.846c-31.479,2.118-34.298,15.808-42.78,15.808
		c-1.915,0-3.657-0.191-5.242-0.511c-6.136,0.081-12.473-5.483-12.473-5.483s5.253,8.437,18.081,8.437
		c8.482,0,10.975-13.69,42.454-15.808c21.238-1.429,12.869,15.801,40.398,15.801C98.892,147.149,95.528,145.901,92.482,143.8z"/>
</g>
<path fill="#B1C3C9" d="M42.484,91.095c2.662-8.064,13.849-2.386,23.092,4.091c-0.638-1.387-1.267-2.654-1.892-3.767
	c-8.317-5.986-18.916-11.729-21.36-4.328c0,0-9.312-1.058-15.194,5.056c0.054,0.963,0.095,1.928,0.14,2.893
	C33.861,90.117,42.484,91.095,42.484,91.095z"/>
<path fill="#CD734A" d="M56.559,65.521c0-0.517-0.985-0.937-2.199-0.937c-1.214,0-2.199,0.419-2.199,0.937
	c0,0.517,0.985,0.937,2.199,0.937C55.575,66.458,56.559,66.039,56.559,65.521z"/>
<ellipse fill="#ECB683" cx="40.145" cy="27.873" rx="6.541" ry="8.507"/>
<path fill="#424A56" d="M37.706,29.576c1.07,0.726,2.431,0.759,4.144-0.041l-0.988-2.079h-2.198L37.706,29.576z"/>
<path fill="#E5E5E5" d="M44.978,65.119c-10.925-1.448-20.399-18.285-15.811-29.85c2.1-5.293,3.35-8.872,5.192-11.28
	c0.645-3.482,4.697-3.909,7.097-3.909c1.495,0,5.253,1.324,4.776,3.555c3.117,4.254,5.848,11.524,5.956,17.295
	c0.164,8.715-11.224,15.556-7.701,19.466c3.523,3.909,6.8,0,5.325-3.339C52.761,60.721,51.122,65.934,44.978,65.119z"/>
<path fill="#CCCCCC" d="M35.392,27.448c0,0,2.431,0.173,4.58,0.174c1.69,0.001,3.421-0.224,4.522-0.477c0,0-0.717,2.566-4.664,1.305
	C35.597,30.017,35.392,27.448,35.392,27.448z"/>
<path fill="#CCCCCC" d="M44.39,60.396c-3.502-3.909,8.267-10.588,8.104-19.303c-0.062-3.338-1.222-8.023-2.824-10.805
	c0.273,1.592,0.422,3.277,0.422,5.022c0,9.716-4.54,17.593-10.14,17.593c-5.6,0-10.14-7.876-10.14-17.593
	c0-0.822,0.276-1.816,0.339-2.608c-0.318,0.793-0.888,1.81-1.235,2.689c-4.561,11.565,5.102,28.28,15.964,29.728
	c6.109,0.814,7.737-4.398,4.805-8.063C51.15,60.396,47.893,64.305,44.39,60.396z"/>
<path fill="#ECB683" d="M34.999,27.307c0,0-3.177-7.267,4.206-7.38c11.093-0.168,6.272,5.11,5.245,7.157c0,0-0.808,2.17-4.897,0.832
	C35.168,29.447,34.999,27.307,34.999,27.307z"/>
<path fill="#E59368" d="M38.473,29.321c0.674,0.592,1.532,0.619,2.611-0.034l-0.622-1.695h-1.385L38.473,29.321z"/>
<path fill="#ECB683" d="M38.852,29.174c0.463,0.453,1.052,0.473,1.792-0.026l-0.427-1.297c-0.31-0.186-0.627-0.178-0.951,0
	L38.852,29.174z"/>
<path fill="#E59368" d="M34.24,23.877l0.206,1.666c0,0,1.741-1.89,4.698-1.647c2.957,0.243,5.933,2.152,5.933,2.152l1.011-1.759
	l-6.438-3.182l-5.783,2.209L34.24,23.877z"/>
<path fill="#2B3138" d="M42.95,27.745c0-0.076-0.324-0.336-0.733-0.336c-0.409,0-0.748,0.26-0.748,0.336s0.355,0.046,0.764,0.046
	C42.641,27.791,42.95,27.821,42.95,27.745z"/>
<path fill="#2B3138" d="M37.864,27.745c0-0.076-0.324-0.336-0.733-0.336s-0.748,0.26-0.748,0.336s0.355,0.046,0.764,0.046
	C37.556,27.791,37.864,27.821,37.864,27.745z"/>
<path fill="#2B3138" d="M31.376,29.024c0,0,2.396-6.194,7.636-6.194s11.679,6.194,11.679,6.194S46.949,16.449,40.36,15.698
	C40.36,15.698,34.698,15.261,31.376,29.024z"/>
<path fill="#E5E5E5" d="M41.465,26.909c0,0-0.561-0.496-0.168-0.73c0.393-0.234,1.787-0.197,2.171-0.15
	c0.384,0.047,0.028,0.805,0.028,0.805S41.642,26.984,41.465,26.909z"/>
<path fill="#E5E5E5" d="M38.059,26.946c0,0,0.561-0.496,0.168-0.73s-1.787-0.197-2.171-0.15c-0.384,0.047-0.028,0.805-0.028,0.805
	S37.881,27.021,38.059,26.946z"/>
<path fill="#677979" d="M100.83,31.432c0,0,1.113-7.99,4.357-7.883s6.84,3.629,5.487,7.142c-1.354,3.513-3.532,3.905-5.206,3.076
	c-1.674-0.829-2.911-5.51,0.194-5.871c3.105-0.361,1.788,2.07,1.788,2.07s-1.499-1.442-1.674-0.829
	c-0.175,0.613-1.184,3.054,1.134,3.131c2.318,0.077,4.093-6.825,0.076-6.958c-4.017-0.133-4.835,6.473-4.835,6.473"/>
</svg>
