<svg xmlns="http://www.w3.org/2000/svg" width="392.825" height="350.131" viewBox="0 0 392.825 350.131">
  <g>
    <path d="M268.724,350.283h31.219s.694-17.5,4.51-27.747,9.512-60.812,19.4-88.475l-14.886-25.925s6.632-50.087,2.428-64.457c-11.447-39.129-21.841-43.391-32.606-43.967-23.935-1.281-32.681,55.4-24.282,79.4s35.035,52.932,35.035,52.932,23.588,54.639-1.041,100.74c0,0-10.059,2.988-12.487,5.549S270.459,343.453,268.724,350.283Z" fill="#49383c"/>
    <path d="M347.118,97.578s29.138,74.7,43.707,106.289c0,0-26.016,65.738-19.772,114.827,0,0-41.463-26.315-48.563-61.041,0,0,15.263-43.968,6.591-74.275s13.875-79.824-17.691-93.057l-1.018-4.358C332.55,87.333,347.118,97.578,347.118,97.578Z" fill="#3d2e33"/>
    <path d="M150.593,178.19C118.343,135.36,111.72,93.674,98.1,85.361l10.357-52.222s30.254,16.368,63.424,61.194c0,0,38.339,16.674,55.69,14.19Z" fill="#564146"/>
    <path d="M124.076,126.333c0,2.375-.042,4.72-.1,7.051C112.6,109.415,106.757,90.645,98.1,85.362l-1.2-6.424C103.149,76.946,124.076,90.5,124.076,126.333Z" fill="#49383c"/>
    <path d="M111.137,34.738c8.077,5.055,33.412,22.657,60.745,59.6,0,0,38.339,16.674,55.69,14.19l-18.5,16.745c-12.206.306-25.868-2.052-39.78-7.381-40.243-15.412-67.328-49.8-60.5-76.816A32.244,32.244,0,0,1,111.137,34.738Z" fill="#634b52"/>
    <path d="M105.23,85.483c-21.507-3.415-27.981,20.49-42.319,28.458-2.108,1.171-9.944-.285-13.181-2.562s40.353-50.512,60.862-39.406C120.8,77.5,105.23,85.483,105.23,85.483Z" fill="#564146"/>
    <path d="M73.793,12.072c2.408-1.007,16.342,6.989,26.868,21.51-2.967,5.54-8.229,6.62-15.709,3.393C82.242,22.294,71.384,13.08,73.793,12.072Z" fill="#564146"/>
    <path d="M114.942,63.57c-4.023,14.783-12.545,11.1-19.483,12.237S69.444,102.06,54.123,114.794c0,0-12.95,2.047-12.95-3.984,0-2.845,28.444-38.418,30.063-44.394s-1.85-9.106,0-12.237S85.111,31.7,95.748,29.99,121.968,37.754,114.942,63.57Z" fill="#634b52"/>
    <path d="M64.482,96.617c-.411.539-.817,1.082-1.246,1.612-7.763,9.609-16.1,14.943-21.508,14.481a3.3,3.3,0,0,1-.555-1.9c0-2.572,23.237-31.88,28.9-41.9C70.5,75.664,68.531,85.8,64.482,96.617Z" fill="#72545d"/>
    <path d="M86.143,47.938a47.11,47.11,0,0,1-15.457,8.29,3.987,3.987,0,0,1,.55-2.049c1.85-3.13,13.875-22.481,24.512-24.189a16.411,16.411,0,0,1,5.538.1C98.847,35.683,93.368,42.354,86.143,47.938Z" fill="#72545d"/>
    <path d="M47.648,99.143c-3.675-.6-15.494,9.96-16.187,13.09s14.072,2.54,14.072,2.54S51.117,99.712,47.648,99.143Z" fill="#3d2e33"/>
    <path d="M85.573,142.683s13.876-1.423,30.526-1.423c0,0,46.017-28.526,62.9-27.353l-35.843,79.715c-28.906,3.7-61.282,1.993-61.282,1.993s-20.119,7.968-27.056,13.09S37.936,225.5,34,225.5s-11.562-8.537-11.562-8.537Z" fill="#634b52"/>
    <path d="M52.833,181.2C67.619,174.51,85.594,170.572,105,170.572c16.391,0,39.952-16.216,53.246-11.312l-15.089,34.362c-28.906,3.7-61.282,1.993-61.282,1.993s-20.119,7.968-27.056,13.09S37.936,225.5,34,225.5s-11.562-8.537-11.562-8.537Z" fill="#564146"/>
    <path d="M31.893,221.9c15.24-18.108,20.611-21.023,27.2-23.015s5.088-11.952.347-13.66S31.893,221.9,31.893,221.9Z" fill="#49383c"/>
    <path d="M117.132,153.187c-17.474-1.878-32.62-2.606-38.086-2.825l6.527-7.679s13.876-1.423,30.526-1.423c0,0,46.017-28.526,62.9-27.353l-10.866,24.166C143.7,143.558,117.132,153.187,117.132,153.187Z" fill="#6b4d57"/>
    <path d="M78.558,143.034C64.934,120.2,56.609,122.763,56.609,122.763a43.427,43.427,0,0,1,9.568,23.675C67.809,165.468,78.558,143.034,78.558,143.034Z" fill="#564146"/>
    <path d="M85.573,142.683c-9.607-1.084-17.517,1.636-23.761,7.4S46.9,166.3,45.509,170.145c0,0,2.255,7.9.867,9.177s-20.323,22.093-25.09,26.537c-7.632,7.115-7.343,13.8-4.221,16.791S27.471,227.345,29.206,225,51.728,196.55,62.159,194.9C74.738,192.918,96.328,143.9,85.573,142.683Z" fill="#634b52"/>
    <path d="M61.812,150.082a27.99,27.99,0,0,1,12.774-6.823c.053,4.713-5.526,12.567-13.769,18.907-5.539,4.26-11.043,6.879-15.1,7.5C47.561,165.511,55.8,155.63,61.812,150.082Z" fill="#72545d"/>
    <path d="M26.112,226.091a14.7,14.7,0,0,1-9.047-3.441c-3.122-2.989-3.411-9.676,4.221-16.791,4.767-4.444,23.7-25.256,25.09-26.537.013-.011.021-.033.033-.046,1.4,8.022-2.34,21.355-10.1,33.845A69.775,69.775,0,0,1,26.112,226.091Z" fill="#72545d"/>
    <path d="M116.33,350.283h35.15l1.387-8.965s22.2-67.871,27.057-75.555c0,0-4.51-41.833-3.122-48.663s-28.791-18.782-28.791-18.782,17.691,52.932,15.957,66.164-21.854,64.884-21.854,64.884l-6.359,8.964S115.405,341.461,116.33,350.283Z" fill="#564146"/>
    <g>
      <path d="M164.835,305.665c2.774-15.685,2.242-29-1.8-36.552a44.688,44.688,0,0,0,.934-4.631c1.734-13.232-15.957-66.164-15.957-66.164S178.189,210.27,176.8,217.1s3.122,48.663,3.122,48.663C177.53,269.551,170.921,287.965,164.835,305.665Z" fill="#49383c"/>
      <path d="M152.231,345.428l-.751,4.855h-1.544C150.716,348.7,151.48,347.08,152.231,345.428Z" fill="#49383c"/>
    </g>
    <path d="M304.106,184.658c-26.71-7.683-50.644,2.989-50.644,2.989S237,226.621,194.146,241.005c-15.263,5.122-65.213-20.917-70.069-30.308s20.118-92.2,56.194-96.045,50.3-5.122,65.212-18.355c8.556-7.59,37.04-11.942,58.172-11.662,15.711.208,24.9,13.472,30.173,18.864C349.091,132.953,304.106,184.658,304.106,184.658Z" fill="#564146"/>
    <path d="M167.671,216.509c2.269-13.094,9.471-22.673,18.022-22.673,10.37,0,18.777,14.077,18.777,31.443a50.158,50.158,0,0,1-1.477,12.242c-2.819,1.269-5.757,2.447-8.847,3.484-2.862.96-6.952.814-11.728-.1C181.149,229.122,175.313,219.625,167.671,216.509Z" fill="#49383c"/>
    <path d="M212.762,156.912c2.285,0,4.475,1.16,6.508,3.278-.469,6.128-.727,12.676-.727,19.488,0,18.068,1.787,34.322,4.636,45.614a97.324,97.324,0,0,1-27.012,14.985,143.063,143.063,0,0,1-2.6-27.872C193.568,181.757,202.161,156.912,212.762,156.912Z" fill="#49383c"/>
    <path d="M176.7,115.3a25.558,25.558,0,0,1,3.568-.648c36.075-3.842,50.3-5.122,65.212-18.355,8.555-7.59,37.04-11.942,58.172-11.662a27.558,27.558,0,0,1,11.418,2.67c5.564,5.989,8.728,12.829,8.728,20.1,0,23.578-33.217,42.691-74.193,42.691C213.325,150.091,183.145,135.1,176.7,115.3Z" fill="#634b52"/>
    <path d="M313.356,156.912a146.614,146.614,0,0,1-1,17.23c-4.735,6.47-8.254,10.516-8.254,10.516-8.311-2.391-6.971,1.561-14.107,1.85,6.316-8.979,1.157-29.8,1.157-48.378C291.156,129.679,313.356,127.679,313.356,156.912Z" fill="#49383c"/>
    <path d="M313.125,350.283h31.218s.694-17.5,4.51-27.747,9.512-60.812,19.4-88.475l-14.887-25.925s6.632-50.087,2.428-64.457c-11.447-39.129-39.769-58.356-50.534-58.932-23.934-1.28-14.753,70.365-6.354,94.362s35.035,52.932,35.035,52.932,23.588,54.639-1.041,100.74c0,0-10.059,2.988-12.487,5.549S314.859,343.453,313.125,350.283Z" fill="#564146"/>
    <path d="M320.409,338.33c2.428-2.561,12.487-5.549,12.487-5.549,20.165-37.747,8.012-81.2,2.943-95.713,9.411,9.755,16.392,34.07,17.656,63.475-1.825,10.339-3.343,18.506-4.642,21.993-3.816,10.245-4.51,27.747-4.51,27.747H313.125C314.859,343.453,317.981,340.892,320.409,338.33Z" fill="#634b52"/>
    <path d="M305.256,84.747c5.469.293,15.468,5.409,25.484,15.491a129.291,129.291,0,0,1,12.3,29.365c9.909,34.363,6.373,67.272-7.9,73.5-12.975,5.666-30.354-12.674-40.852-41.877C288.217,130.655,285.841,83.708,305.256,84.747Z" fill="#634b52"/>
    <path d="M167.089,118.067c-38.85,32.869-64.519,98.606-64.519,98.606l8.325,38.845,22.894-3.841s27.4-26.893,41.625-32.016c25.906-55.33,10.637-96.15,3.122-105.009C177.3,113.191,167.089,118.067,167.089,118.067Z" fill="#6b4d57"/>
    <path d="M106.457,234.808c7.948-13.015,33.692-71.92,77.659-84.981,4.546,17.072,4.961,40.653-8.7,69.834-14.222,5.123-41.625,32.016-41.625,32.016L110.9,255.518Z" fill="#634b52"/>
    <path d="M118.259,215.355c9.674-1.237,18.992,10.964,23.4,28.941-4.718,4.286-7.873,7.381-7.873,7.381L110.9,255.518l-4.438-20.71c2.184-3.575,5.719-10.624,10.6-19.225A10.7,10.7,0,0,1,118.259,215.355Z" fill="#564146"/>
    <path d="M136.449,242.855c-4.857,16.79-9.049,21.541-10.211,22.669-10.92,10.593-18.118,50.419-28.012,56.15-14.1.621-26.7-5.541-26.7-5.541L68.75,304.181l45.5-66.449Z" fill="#564146"/>
    <path d="M116.792,273.3c-5.422,9.71-11.678,33.011-16.3,37.849s-22.547,8.253-25.785,7.968S64.3,309.73,64.53,304.323s20.118-34.718,19.424-38.987-3.006-5.407-1.849-8.537S91.123,224.072,94.13,219.8s15.956-7.968,16.881-7.968,26.131,3.414,25.9,32.157c-.041,5.122-6.475,18.782-9.944,21.059S118.642,269.993,116.792,273.3Z" fill="#634b52"/>
    <path d="M74.705,319.121c-3.238-.284-10.407-9.391-10.176-14.8.186-4.338,13.017-24.054,17.727-33.888,2.929-1.108,5.6-1.155,7.8.073,8.112,4.521,6.814,24.516-2.743,45.115C81.851,317.776,76.4,319.271,74.705,319.121Z" fill="#72545d"/>
    <path d="M102.934,220.807a108.927,108.927,0,0,0-9.956-40.162c-2.751,2.424-.593,31.7-2.007,51.076C94.866,229.632,102.934,220.807,102.934,220.807Z" fill="#634b52"/>
    <path d="M116.925,241.59s-9.526,22.243-12.533,23.1a151,151,0,0,1-16.044,2.357c-.566,0-3.35-3.209-6.044-6.482a4.563,4.563,0,0,1-.2-3.763c1.156-3.131,9.018-32.727,12.025-36.995s15.956-7.968,16.881-7.968c.73,0,8.685,6.873,15.275,16.489C123.8,231.082,120.1,238.772,116.925,241.59Z" fill="#72545d"/>
    <path d="M130.205,238.871c6.706-23.336,3.7-46.956,3.7-46.956-3.7.854-11.332,30.735-17.575,52.362C121.738,243.978,130.205,238.871,130.205,238.871Z" fill="#564146"/>
    <path d="M90.066,315.315c.18-4.3-21.359-9.784-24.149-8.573s-5.088,19.921-3.7,22.767S89.933,318.481,90.066,315.315Z" fill="#3d2e33"/>
    <path d="M156.567,350.283h39.082s1.387-10.245,1.387-15.083,24.744-68.014,25.669-73.99-9.712-28.174-8.094-49.232,8.325-68.583,4.394-77.69-36.432-23.905-43.244-19.636-22.807,52.046-13.412,91.065c1.85,7.684,43.706,44.963,44.169,56.631s-15.725,57.769-25.669,70.006c0,0-21.182,7.3-23.495,11A7.569,7.569,0,0,0,156.567,350.283Z" fill="#634b52"/>
    <path d="M97.367.963c2.544,0,12.2,16.544,16.38,39.19-4.708,5.144-9.856,3.8-15.427-3.806C101.251,17.424,94.823.963,97.367.963Z" fill="#634b52"/>
    <path d="M87.544,143.833c-6.653-18.3-14.632-28.968-14.632-28.968s2.286,22.546,1.958,28.294C73.78,162.248,87.544,143.833,87.544,143.833Z" fill="#634b52"/>
    <path d="M19.4,207.014c-3.675-.6-15.494,9.961-16.188,13.091s14.072,2.54,14.072,2.54S22.867,207.584,19.4,207.014Z" fill="#3d2e33"/>
    <path d="M19.485,211.521c-2.026-.332-8.542,5.492-8.924,7.218s7.758,1.4,7.758,1.4S21.4,211.835,19.485,211.521Z" fill="#281d21"/>
    <path d="M132,212.831a103.611,103.611,0,0,1-.71,19.579c-.474,2.392-1.059,4.821-1.779,7.246,0,0-6.135,3.58-10.636,4.274C124.052,228.88,129.466,213.223,132,212.831Z" fill="#49383c"/>
    <path d="M105.461,267.47c4.278-4.98,8.556-14.94,8.556-14.94s.463,8.858-.694,10.565S105.461,267.47,105.461,267.47Z" fill="#3d2e33"/>
    <path d="M108.182,264.735a36.215,36.215,0,0,0,4.2-7.335s.227,4.349-.34,5.187S108.182,264.735,108.182,264.735Z" fill="#e5cc61"/>
    <path d="M50.016,173.479c6.082-1.2,13.1-7.252,13.1-7.252s-2.969,7.972-4.681,8.649S50.016,173.479,50.016,173.479Z" fill="#3d2e33"/>
    <path d="M52.223,173.014c3.87-.766,8.339-4.613,8.339-4.613s-1.892,5.071-2.981,5.5S52.223,173.014,52.223,173.014Z" fill="#e5cc61"/>
    <path d="M77.592,58.439c6.083-1.2,13.105-7.253,13.105-7.253s-2.97,7.973-4.682,8.65S77.592,58.439,77.592,58.439Z" fill="#3d2e33"/>
    <path d="M79.8,57.973c3.869-.766,8.339-4.612,8.339-4.612s-1.892,5.07-2.981,5.5S79.8,57.973,79.8,57.973Z" fill="#e5cc61"/>
    <path d="M190.465,148.154c-3.833,28.611-13.99,50.375-22.685,48.611-3.675-.745-6.5-5.586-8.245-13.074-1.017-33.052,10.663-65.552,16.226-69.039,2.567-1.608,8.779-.509,15.736,1.971A146.513,146.513,0,0,1,190.465,148.154Z" fill="#6b4d57"/>
    <polygon points="164.678 350.283 160.765 350.283 165.527 339.604 173.102 340.749 166.591 342.952 164.678 350.283" fill="#564146"/>
    <polygon points="178.474 350.283 175.414 350.283 179.138 339.604 184.664 340.892 179.97 342.952 178.474 350.283" fill="#564146"/>
    <path d="M127.65,219.922a111.091,111.091,0,0,1-.871,15.618c-.411,2.073-.924,4.174-1.517,6.275a26.611,26.611,0,0,1-6.389,2.115C121.932,235.04,125.069,225.964,127.65,219.922Z" fill="#3d2e33"/>
    <path d="M176.7,115.3a25.558,25.558,0,0,1,3.568-.648c36.075-3.842,50.3-5.122,65.212-18.355,8.18-7.256,34.57-11.55,55.34-11.669-7.535,16.094-36.417,30.743-71.8,34.98-19.643,2.352-37.821,1.078-51.808-2.912C177.034,116.232,176.856,115.768,176.7,115.3Z" fill="#6b4d57"/>
    <path d="M287.542,128.312c-2.042-21.7,2.114-40.122,9.282-41.143s14.634,15.742,16.676,37.444-2.113,40.121-9.281,41.143S289.585,150.013,287.542,128.312Z" fill="#6b4d57"/>
    <path d="M293.005,145.244c-11.793-36.71-36.977-31.188-36.977-31.188L291.387,94.02l7.4,8.537Z" fill="#6b4d57"/>
    <path d="M99.932,38.371c1.821-12.555-.924-23.117.972-22.808s7.331,11.525,9.834,26.949C107.345,44.208,103.741,42.8,99.932,38.371Z" fill="#564146"/>
    <path d="M104.871,42.437a15.7,15.7,0,0,1-4.939-4.066c1.136-7.834.5-14.89.312-19.015C102.065,23.858,104.142,32.281,104.871,42.437Z" fill="#3d2e33"/>
    <path d="M47.323,105.052c-1.665-.274-7.023,4.515-7.337,5.934s6.378,1.151,6.378,1.151S48.9,105.31,47.323,105.052Z" fill="#281d21"/>
    <path d="M86.486,145.159c-1.935,2.333-6.107,6.9-8.907,6.638.338-7.787-.443-26.292-.443-26.292A114.11,114.11,0,0,1,86.486,145.159Z" fill="#564146"/>
    <path d="M81.525,150.12c-1.379,1.053-2.781,1.785-3.946,1.677.223-5.122-.039-14.88-.244-20.959A155.681,155.681,0,0,1,81.525,150.12Z" fill="#3d2e33"/>
    <path d="M228.949,212.405c9.019-23.62,0-44.964,0-44.964C230.308,183.973,230.674,199.377,228.949,212.405Z" fill="#49383c"/>
    <path d="M238.893,195.9c9.019-15.248,0-29.027,0-29.027C240.252,177.544,240.618,187.489,238.893,195.9Z" fill="#49383c"/>
    <path d="M246.756,189.638c9.018-15.248,0-29.026,0-29.026C248.114,171.284,248.48,181.228,246.756,189.638Z" fill="#49383c"/>
    <g>
      <path d="M162.348,205.717a99.786,99.786,0,0,1-2.031-11.453,95.313,95.313,0,0,0,12.406,24.982C167.117,213.056,162.907,208.035,162.348,205.717Z" fill="#564146"/>
      <g>
        <path d="M205.053,257.8c-3.836-7.563-14.537-19.266-24.276-29.8,5.313,4.315,10.772,5.961,15.77,4.146,14.082-5.115,21.016-55.774,13.208-88.33-6.3-26.28-20.928-25.711-33.028-29.585,8.449-2.652,38.506,11.315,42.278,20.052,3.931,9.107-2.775,56.631-4.394,77.69s9.019,43.256,8.094,49.232c-.471,3.045-7.125,20.937-13.54,38.4C212.388,280.08,211.162,264.313,205.053,257.8Z" fill="#564146"/>
        <path d="M196.5,343.069c-.391,3.809-.851,7.214-.851,7.214h-2.273Q194.974,346.77,196.5,343.069Z" fill="#564146"/>
      </g>
    </g>
  </g>
</svg>
