<svg xmlns="http://www.w3.org/2000/svg" width="357.496" height="363.669" viewBox="0 0 357.496 363.669">
  <g>
    <path d="M244.08,350h28.336s.629-17.5,4.093-27.746,8.633-60.813,17.6-88.476L280.6,207.85s6.019-50.087,2.2-64.457C272.416,104.264,262.981,100,253.21,99.426c-21.724-1.281-29.663,55.4-22.039,79.4s31.8,52.932,31.8,52.932,21.41,54.639-.944,100.74c0,0-9.131,2.988-11.335,5.55S245.654,343.167,244.08,350Z" fill="#49383c"/>
    <path d="M315.234,97.292s26.447,74.7,39.671,106.29c0,0-23.613,65.737-17.946,114.827,0,0-37.634-26.316-44.078-61.042,0,0,13.853-43.968,5.981-74.275s12.594-79.824-16.057-93.057l-.924-4.358A66.13,66.13,0,0,1,315.234,97.292Z" fill="#3d2e33"/>
    <path d="M136.857,177.9c-29.272-42.83-35.283-84.515-47.645-92.828l9.4-52.223s27.46,16.368,57.567,61.194c0,0,34.8,16.675,50.548,14.19Z" fill="#564146"/>
    <path d="M112.789,126.048c0,2.374-.038,4.72-.094,7.05C102.368,109.13,97.069,90.359,89.212,85.076l-1.085-6.424C93.794,76.66,112.789,90.218,112.789,126.048Z" fill="#49383c"/>
    <path d="M101.045,34.452c7.331,5.056,30.326,22.657,55.135,59.6,0,0,34.8,16.675,50.548,14.19l-16.8,16.746c-11.079.306-23.479-2.053-36.106-7.381C117.3,102.189,92.716,67.8,98.917,40.785A34.322,34.322,0,0,1,101.045,34.452Z" fill="#634b52"/>
    <path d="M95.683,85.2c-19.52-3.415-25.4,20.49-38.411,28.458-1.913,1.171-9.025-.284-11.964-2.561S81.935,60.581,100.55,71.688C109.819,77.218,95.683,85.2,95.683,85.2Z" fill="#564146"/>
    <path d="M67.149,11.787c2.186-1.008,14.833,6.988,24.387,21.509-2.693,5.541-7.469,6.62-14.258,3.394C74.818,22.008,64.963,12.8,67.149,11.787Z" fill="#564146"/>
    <path d="M104.5,63.285c-3.652,14.782-11.387,11.1-17.684,12.237S63.2,101.774,49.3,114.509c0,0-11.754,2.046-11.754-3.984,0-2.846,25.817-38.418,27.286-44.394s-1.679-9.107,0-12.237S77.422,31.412,87.077,29.705,110.875,37.468,104.5,63.285Z" fill="#634b52"/>
    <path d="M58.7,96.331c-.373.54-.742,1.082-1.131,1.612-7.046,9.609-14.614,14.944-19.521,14.481a3.542,3.542,0,0,1-.5-1.9c0-2.573,21.091-31.881,26.229-41.9C64.161,75.378,62.373,85.512,58.7,96.331Z" fill="#72545d"/>
    <path d="M78.359,47.652c-4.937,4.2-9.884,7.025-14.03,8.29a4.3,4.3,0,0,1,.5-2.048c1.679-3.131,12.594-22.482,22.249-24.189a13.538,13.538,0,0,1,5.026.1C89.889,35.4,84.916,42.068,78.359,47.652Z" fill="#72545d"/>
    <path d="M43.419,98.857c-3.336-.6-14.063,9.96-14.693,13.09s12.773,2.54,12.773,2.54S46.567,99.426,43.419,98.857Z" fill="#3d2e33"/>
    <path d="M77.842,142.4a276.078,276.078,0,0,1,27.706-1.423s41.768-28.526,57.091-27.353l-32.533,79.716c-26.237,3.7-55.623,1.992-55.623,1.992s-18.261,7.968-24.557,13.09S34.6,225.21,31.035,225.21s-10.495-8.538-10.495-8.538Z" fill="#634b52"/>
    <path d="M48.125,180.917c13.42-6.693,29.736-10.631,47.348-10.631,14.877,0,36.263-16.216,48.329-11.312l-13.7,34.363c-26.237,3.7-55.623,1.992-55.623,1.992s-18.261,7.968-24.557,13.09S34.6,225.21,31.035,225.21s-10.495-8.538-10.495-8.538Z" fill="#564146"/>
    <path d="M29.118,221.616c13.833-18.108,18.709-21.023,24.691-23.014s4.617-11.953.314-13.66S29.118,221.616,29.118,221.616Z" fill="#49383c"/>
    <path d="M106.486,152.9c-15.861-1.879-29.608-2.606-34.568-2.825l5.924-7.68a276.078,276.078,0,0,1,27.706-1.423s41.768-28.526,57.091-27.353l-9.862,24.166C130.6,143.272,106.486,152.9,106.486,152.9Z" fill="#6b4d57"/>
    <path d="M71.474,142.748c-12.365-22.832-19.922-20.271-19.922-20.271a45.587,45.587,0,0,1,8.685,23.675C61.718,165.182,71.474,142.748,71.474,142.748Z" fill="#564146"/>
    <path d="M77.842,142.4a24.6,24.6,0,0,0-21.567,7.4c-5.667,5.763-13.538,16.221-14.8,20.063,0,0,2.047,7.9.787,9.178s-18.446,22.092-22.773,26.537c-6.927,7.114-6.665,13.8-3.831,16.79s9.445,4.695,11.02,2.347,20.442-28.447,29.91-30.093C68.007,192.632,87.6,143.61,77.842,142.4Z" fill="#634b52"/>
    <path d="M56.275,149.8a24.76,24.76,0,0,1,11.594-6.823c.049,4.713-5.016,12.567-12.5,18.907-5.027,4.26-10.023,6.879-13.708,7.5C43.339,165.225,50.819,155.344,56.275,149.8Z" fill="#72545d"/>
    <path d="M23.872,225.806a12.649,12.649,0,0,1-8.212-3.442c-2.834-2.988-3.1-9.676,3.831-16.79,4.327-4.445,21.514-25.257,22.773-26.537.012-.012.019-.034.03-.047,1.272,8.022-2.124,21.355-9.164,33.845A69.235,69.235,0,0,1,23.872,225.806Z" fill="#72545d"/>
    <path d="M105.758,350h31.9l1.26-8.964s20.15-67.872,24.557-75.556c0,0-4.093-41.833-2.833-48.663s-26.132-18.782-26.132-18.782S150.571,250.964,149,264.2s-19.836,64.884-19.836,64.884l-5.772,8.964S104.918,341.175,105.758,350Z" fill="#564146"/>
    <g>
      <path d="M149.784,305.379c2.518-15.685,2.035-29-1.635-36.552.409-1.828.7-3.4.848-4.63,1.574-13.233-14.483-66.165-14.483-66.165s27.391,11.953,26.132,18.782,2.833,48.663,2.833,48.663C161.307,269.265,155.308,287.679,149.784,305.379Z" fill="#49383c"/>
      <path d="M138.344,345.143,137.662,350h-1.4C136.969,348.417,137.662,346.794,138.344,345.143Z" fill="#49383c"/>
    </g>
    <path d="M276.194,184.372c-24.243-7.683-45.967,2.989-45.967,2.989s-14.94,38.975-53.839,53.358c-13.853,5.123-59.191-20.917-63.6-30.307s18.26-92.2,51-96.046,45.653-5.122,59.191-18.355c7.765-7.59,33.619-11.941,52.8-11.661,14.26.208,22.6,13.472,27.387,18.863C317.025,132.667,276.194,184.372,276.194,184.372Z" fill="#564146"/>
    <path d="M152.358,216.223c2.06-13.093,8.6-22.673,16.358-22.673,9.412,0,17.043,14.077,17.043,31.443a55.017,55.017,0,0,1-1.34,12.242,82.118,82.118,0,0,1-8.031,3.484c-2.6.96-6.31.815-10.645-.1C164.592,228.836,159.295,219.339,152.358,216.223Z" fill="#49383c"/>
    <path d="M193.285,156.626c2.074,0,4.062,1.16,5.907,3.278-.426,6.129-.66,12.676-.66,19.489,0,18.067,1.623,34.321,4.208,45.614a86.407,86.407,0,0,1-24.517,14.984,157.142,157.142,0,0,1-2.36-27.872C175.863,181.471,183.663,156.626,193.285,156.626Z" fill="#49383c"/>
    <path d="M160.556,115.014a21.385,21.385,0,0,1,3.238-.648c32.744-3.841,45.653-5.122,59.191-18.355,7.765-7.59,33.619-11.941,52.8-11.661a23.121,23.121,0,0,1,10.363,2.669c5.051,5.99,7.922,12.829,7.922,20.1,0,23.578-30.15,42.692-67.342,42.692C193.8,149.806,166.4,134.816,160.556,115.014Z" fill="#634b52"/>
    <path d="M284.589,156.626a161.281,161.281,0,0,1-.9,17.23c-4.3,6.471-7.492,10.516-7.492,10.516-7.544-2.39-6.327,1.561-12.8,1.85,5.733-8.978,1.05-29.8,1.05-48.378C264.44,129.393,284.589,127.393,284.589,156.626Z" fill="#49383c"/>
    <path d="M284.38,350h28.336s.629-17.5,4.093-27.746,8.634-60.813,17.6-88.476L320.9,207.85s6.019-50.087,2.2-64.457c-10.39-39.129-36.1-58.356-45.868-58.932-21.724-1.28-13.391,70.365-5.767,94.362s31.8,52.932,31.8,52.932,21.41,54.639-.944,100.74c0,0-9.131,2.988-11.334,5.55S285.954,343.167,284.38,350Z" fill="#564146"/>
    <path d="M290.992,338.045c2.2-2.562,11.334-5.55,11.334-5.55,18.3-37.747,7.271-81.2,2.67-95.713,8.543,9.755,14.879,34.07,16.027,63.475-1.658,10.34-3.035,18.506-4.214,21.994C313.345,332.5,312.716,350,312.716,350H284.38C285.954,343.167,288.788,340.606,290.992,338.045Z" fill="#634b52"/>
    <path d="M277.238,84.461c4.964.293,14.039,5.409,23.13,15.491a136.737,136.737,0,0,1,11.164,29.365c8.994,34.363,5.784,67.272-7.169,73.5-11.777,5.666-27.551-12.674-37.079-41.877C261.772,130.369,259.616,83.423,277.238,84.461Z" fill="#634b52"/>
    <path d="M151.83,117.781c-35.262,32.869-58.561,98.607-58.561,98.607l7.556,38.844,20.78-3.841s24.873-26.893,37.781-32.015c23.514-55.331,9.655-96.151,2.834-105.01C161.1,112.905,151.83,117.781,151.83,117.781Z" fill="#6b4d57"/>
    <path d="M96.8,234.523c7.214-13.015,30.58-71.921,70.488-84.982,4.126,17.072,4.5,40.653-7.9,69.835-12.908,5.122-37.781,32.015-37.781,32.015l-20.78,3.841Z" fill="#634b52"/>
    <path d="M107.509,215.069c8.781-1.237,17.238,10.965,21.242,28.941-4.282,4.286-7.146,7.381-7.146,7.381l-20.78,3.841L96.8,234.523c1.982-3.576,5.191-10.625,9.619-19.226A9.064,9.064,0,0,1,107.509,215.069Z" fill="#564146"/>
    <path d="M124.019,242.569c-4.408,16.79-8.213,21.541-9.268,22.669-9.911,10.593-16.445,50.419-25.425,56.15-12.8.621-24.235-5.54-24.235-5.54L62.572,303.9l41.3-66.449Z" fill="#564146"/>
    <path d="M106.178,273.019c-4.922,9.71-10.6,33.01-14.8,37.848s-20.465,8.253-23.4,7.968-9.446-9.39-9.236-14.8S77,269.319,76.372,265.05s-2.728-5.407-1.679-8.537,8.186-32.727,10.915-36.995,14.483-7.968,15.322-7.968,23.719,3.415,23.509,32.157c-.038,5.122-5.877,18.782-9.026,21.059S107.856,269.707,106.178,273.019Z" fill="#634b52"/>
    <path d="M67.977,318.835c-2.939-.284-9.445-9.39-9.236-14.8.169-4.338,11.814-24.055,16.09-33.888,2.658-1.108,5.086-1.155,7.083.072,7.363,4.521,6.185,24.516-2.49,45.115C74.463,317.49,69.518,318.985,67.977,318.835Z" fill="#72545d"/>
    <path d="M93.6,220.521a117.618,117.618,0,0,0-9.036-40.162c-2.5,2.424-.539,31.7-1.822,51.076C86.276,229.347,93.6,220.521,93.6,220.521Z" fill="#634b52"/>
    <path d="M106.3,241.3s-8.646,22.244-11.375,23.1a125.482,125.482,0,0,1-14.562,2.356c-.514,0-3.042-3.209-5.487-6.482a4.986,4.986,0,0,1-.181-3.763c1.05-3.13,8.186-32.727,10.915-36.995s14.483-7.968,15.322-7.968c.663,0,7.883,6.873,13.865,16.49C112.542,230.8,109.176,238.486,106.3,241.3Z" fill="#72545d"/>
    <path d="M118.352,238.585c6.087-23.336,3.358-46.956,3.358-46.956-3.358.854-10.285,30.735-15.952,52.362C110.667,243.692,118.352,238.585,118.352,238.585Z" fill="#564146"/>
    <path d="M81.919,315.029c.164-4.3-19.386-9.784-21.918-8.573s-4.618,19.921-3.359,22.767S81.8,318.2,81.919,315.029Z" fill="#3d2e33"/>
    <path d="M142.28,350h35.472s1.26-10.245,1.26-15.083,22.459-68.014,23.3-73.99-8.815-28.173-7.346-49.232,7.556-68.583,3.988-77.69S165.884,110.1,159.7,114.366s-20.7,52.047-12.174,91.065c1.68,7.684,39.671,44.964,40.091,56.631s-14.273,57.77-23.3,70.007c0,0-19.226,7.3-21.325,11A8.244,8.244,0,0,0,142.28,350Z" fill="#634b52"/>
    <path d="M88.547.678c2.308,0,11.069,16.544,14.867,39.189-4.274,5.144-8.946,3.8-14-3.8C92.072,17.138,86.238.678,88.547.678Z" fill="#634b52"/>
    <path d="M79.63,143.547c-6.039-18.3-13.28-28.967-13.28-28.967s2.074,22.545,1.777,28.294C67.137,161.962,79.63,143.547,79.63,143.547Z" fill="#634b52"/>
    <path d="M17.778,206.729c-3.335-.6-14.063,9.96-14.693,13.091s12.773,2.539,12.773,2.539S20.926,207.3,17.778,206.729Z" fill="#3d2e33"/>
    <path d="M17.857,211.236c-1.839-.333-7.754,5.491-8.1,7.217s7.042,1.4,7.042,1.4S19.593,211.55,17.857,211.236Z" fill="#281d21"/>
    <path d="M119.979,212.546a114.076,114.076,0,0,1-.644,19.578c-.431,2.393-.961,4.821-1.615,7.247,0,0-5.568,3.579-9.653,4.274C112.767,228.594,117.682,212.938,119.979,212.546Z" fill="#49383c"/>
    <path d="M95.893,267.185c3.883-4.98,7.766-14.941,7.766-14.941s.42,8.858-.63,10.565S95.893,267.185,95.893,267.185Z" fill="#3d2e33"/>
    <path d="M98.363,264.45a37.489,37.489,0,0,0,3.813-7.336s.206,4.349-.309,5.187S98.363,264.45,98.363,264.45Z" fill="#e5cc61"/>
    <path d="M45.568,173.194c5.52-1.2,11.894-7.253,11.894-7.253s-2.695,7.972-4.249,8.649S45.568,173.194,45.568,173.194Z" fill="#3d2e33"/>
    <path d="M47.571,172.728c3.512-.766,7.569-4.612,7.569-4.612s-1.717,5.07-2.706,5.5S47.571,172.728,47.571,172.728Z" fill="#e5cc61"/>
    <path d="M70.6,58.153c5.52-1.2,11.894-7.252,11.894-7.252s-2.7,7.972-4.249,8.649S70.6,58.153,70.6,58.153Z" fill="#3d2e33"/>
    <path d="M72.6,57.687c3.513-.765,7.569-4.612,7.569-4.612s-1.717,5.07-2.706,5.5S72.6,57.687,72.6,57.687Z" fill="#e5cc61"/>
    <path d="M173.047,147.868c-3.479,28.611-12.7,50.375-20.59,48.611-3.335-.745-5.9-5.586-7.483-13.074-.924-33.051,9.678-65.552,14.727-69.039,2.33-1.608,7.969-.509,14.283,1.971A161.32,161.32,0,0,1,173.047,147.868Z" fill="#6b4d57"/>
    <polygon points="149.642 349.997 146.09 349.997 150.413 339.318 157.288 340.464 151.378 342.666 149.642 349.997" fill="#564146"/>
    <polygon points="162.164 349.997 159.386 349.997 162.766 339.318 167.782 340.606 163.521 342.666 162.164 349.997" fill="#564146"/>
    <path d="M116.033,219.636a122.117,122.117,0,0,1-.791,15.618c-.373,2.073-.839,4.174-1.377,6.276a22.706,22.706,0,0,1-5.8,2.115C110.843,234.754,113.69,225.679,116.033,219.636Z" fill="#3d2e33"/>
    <path d="M160.556,115.014a21.385,21.385,0,0,1,3.238-.648c32.744-3.841,45.653-5.122,59.191-18.355,7.424-7.256,31.377-11.55,50.229-11.668-6.839,16.093-33.054,30.742-65.172,34.979-17.829,2.353-34.327,1.079-47.023-2.912C160.857,115.946,160.7,115.483,160.556,115.014Z" fill="#6b4d57"/>
    <path d="M261.16,128.026c-1.854-21.7,1.918-40.122,8.424-41.143s13.283,15.742,15.137,37.444S282.8,164.449,276.3,165.47,263.014,149.727,261.16,128.026Z" fill="#6b4d57"/>
    <path d="M266.119,144.958c-10.705-36.71-33.563-31.187-33.563-31.187l32.093-20.036,6.717,8.537Z" fill="#6b4d57"/>
    <path d="M90.875,38.085c1.652-12.555-.839-23.117.881-22.808,1.735.312,6.655,11.525,8.927,26.95C97.6,43.922,94.331,42.516,90.875,38.085Z" fill="#564146"/>
    <path d="M95.358,42.151a14.6,14.6,0,0,1-4.483-4.066c1.03-7.834.449-14.89.283-19.015C92.811,23.572,94.7,32,95.358,42.151Z" fill="#3d2e33"/>
    <path d="M43.124,104.766c-1.512-.274-6.375,4.515-6.66,5.934s5.79,1.151,5.79,1.151S44.551,105.024,43.124,104.766Z" fill="#281d21"/>
    <path d="M78.67,144.873c-1.756,2.333-5.542,6.9-8.084,6.638.307-7.787-.4-26.291-.4-26.291A119.3,119.3,0,0,1,78.67,144.873Z" fill="#564146"/>
    <path d="M74.167,149.834c-1.252,1.053-2.524,1.785-3.581,1.677.2-5.122-.036-14.879-.222-20.959A169.269,169.269,0,0,1,74.167,149.834Z" fill="#3d2e33"/>
    <path d="M207.977,212.119c8.187-23.62,0-44.963,0-44.963C209.211,183.687,209.543,199.091,207.977,212.119Z" fill="#49383c"/>
    <path d="M217,195.614c8.186-15.249,0-29.027,0-29.027C218.236,177.259,218.569,187.2,217,195.614Z" fill="#49383c"/>
    <path d="M224.14,189.353c8.185-15.249,0-29.027,0-29.027C225.373,171,225.705,180.942,224.14,189.353Z" fill="#49383c"/>
    <g>
      <path d="M147.527,205.431a109.159,109.159,0,0,1-1.844-11.453,99.427,99.427,0,0,0,11.26,24.982C151.855,212.77,148.034,207.749,147.527,205.431Z" fill="#564146"/>
      <g>
        <path d="M186.288,257.518c-3.482-7.563-13.194-19.266-22.034-29.8,4.822,4.316,9.777,5.961,14.313,4.146,12.782-5.115,19.076-55.774,11.989-88.329-5.721-26.281-19-25.711-29.978-29.586,7.668-2.652,34.95,11.315,38.374,20.052,3.568,9.107-2.519,56.631-3.988,77.69s8.186,43.256,7.346,49.232c-.428,3.045-6.467,20.937-12.289,38.4C192.945,279.794,191.833,264.028,186.288,257.518Z" fill="#564146"/>
        <path d="M178.525,342.784c-.355,3.809-.773,7.213-.773,7.213h-2.063Q177.14,346.484,178.525,342.784Z" fill="#564146"/>
      </g>
    </g>
  </g>
</svg>
